<svg width="92" height="36" xmlns="http://www.w3.org/2000/svg">
  <g fill="#FFF" fill-rule="evenodd">
    <path d="M74 36c9.941 0 18-8.059 18-18S83.941 0 74 0 56 8.059 56 18s8.059 18 18 18z" fill-opacity=".2"/>
    <path d="M6.253 23.982c2.514 0 3.968-1.1 5.045-2.592l-2.384-1.705c-.685.836-1.388 1.394-2.58 1.394-1.6 0-2.726-1.345-2.726-3.067v-.033c0-1.673 1.126-3.05 2.726-3.05 1.094 0 1.846.541 2.499 1.345l2.384-1.854c-1.013-1.394-2.515-2.378-4.85-2.378-3.462 0-6.009 2.624-6.009 5.97v.033c0 3.427 2.629 5.937 5.895 5.937zm10.479-.23h3.315l.816-2.066h4.425l.817 2.066H29.5L24.635 12.19h-3.053l-4.85 11.562zm5.062-4.543l1.29-3.247 1.274 3.247h-2.564zm13.876 4.543h3.168v-3.477h1.404l2.302 3.477h3.642l-2.727-4.002c1.42-.606 2.351-1.77 2.351-3.542v-.033c0-1.131-.343-2-1.012-2.673-.768-.77-1.976-1.23-3.723-1.23H35.67v11.48zm3.168-5.97v-2.771h2.09c1.045 0 1.714.459 1.714 1.377v.033c0 .837-.637 1.361-1.698 1.361h-2.106zm16.423 5.97h3.167V15.06h3.43v-2.788h-10.01v2.788h3.413v8.692zM74 24a6 6 0 1 0 0-12 6 6 0 0 0 0 12z"/>
  </g>
</svg>