<svg width="92" height="36" viewBox="0 0 92 36" xmlns="http://www.w3.org/2000/svg">
  <g fill="#2E3C43" fill-rule="evenodd">
    <path d="M74 36a18 18 0 1 0 0-36 18 18 0 0 0 0 36z" opacity=".1"/>
    <path d="M6.25 23.98c2.52 0 3.97-1.1 5.05-2.59l-2.39-1.7c-.68.83-1.38 1.39-2.58 1.39-1.6 0-2.72-1.35-2.72-3.07v-.03c0-1.67 1.12-3.05 2.72-3.05 1.1 0 1.85.54 2.5 1.34l2.39-1.85a5.62 5.62 0 0 0-4.85-2.38c-3.46 0-6.01 2.63-6.01 5.97v.03a5.82 5.82 0 0 0 5.9 5.94zm10.48-.23h3.32l.81-2.06h4.43l.81 2.06h3.4L24.64 12.2h-3.06l-4.85 11.56zm5.06-4.54l1.3-3.25 1.27 3.25h-2.57zm13.88 4.54h3.17v-3.47h1.4l2.3 3.47h3.65l-2.73-4a3.64 3.64 0 0 0 2.35-3.54v-.03c0-1.14-.34-2-1.01-2.68-.77-.77-1.98-1.23-3.73-1.23h-5.4v11.48zm3.17-5.97v-2.77h2.09c1.04 0 1.71.46 1.71 1.38v.03c0 .84-.63 1.36-1.7 1.36h-2.1zm16.42 5.97v-8.69h-3.41v-2.79h10v2.79h-3.42v8.7h-3.17zM74 24a6 6 0 1 1 0-12 6 6 0 0 1 0 12z"/>
  </g>
</svg>