<?xml version="1.0" encoding="UTF-8"?>
<svg width="20px" height="20px" viewBox="0 0 20 20" version="1.1" xmlns="http://www.w3.org/2000/svg" xmlns:xlink="http://www.w3.org/1999/xlink">
    <!-- Generator: Sketch 51.3 (57544) - http://www.bohemiancoding.com/sketch -->
    <title>Line_Icons</title>
    <desc>Created with Sketch.</desc>
    <defs></defs>
    <g id="Active-Development-Cycle" stroke="none" stroke-width="1" fill="none" fill-rule="evenodd">
        <g id="03-Feedback" transform="translate(-1087.000000, -93.000000)" fill="#00D851">
            <g id="dropdown" transform="translate(1057.000000, 55.000000)">
                <g id="Group-13" transform="translate(16.000000, 24.000000)">
                    <g id="Group-4">
                        <g id="chat-bubble-square-3" transform="translate(12.000000, 12.000000)">
                            <g id="Line_Icons" transform="translate(1.000000, 2.000000)">
                                <g id="Group">
                                    <path d="M4.998,20 L4.998,16 L2.998,16 C1.894,16 0.998,15.103 0.998,14 L0.998,2 C0.998,0.896 1.894,0 2.998,0 L18.998,0 C20.102,0 20.998,0.896 20.998,2 L20.998,14 C20.998,15.103 20.102,16 18.998,16 L10.332,16 L4.998,20 Z M2.998,2 L2.998,14 L6.998,14 L6.998,16 L9.664,14 L18.998,14 L18.998,2 L2.998,2 Z" id="Shape" fill-rule="nonzero"></path>
                                    <rect id="Rectangle" x="8.998" y="5" width="8" height="2"></rect>
                                    <rect id="Rectangle" x="8.998" y="9" width="8" height="2"></rect>
                                    <circle id="Oval" cx="5.998" cy="6" r="1.25"></circle>
                                    <circle id="Oval" cx="5.998" cy="10" r="1.25"></circle>
                                </g>
                            </g>
                        </g>
                    </g>
                </g>
            </g>
        </g>
    </g>
</svg>