<svg width="52" height="52" xmlns="http://www.w3.org/2000/svg">
  <g fill="none" fill-rule="evenodd">
    <path d="M-4.997-4.997h61.44v61.443h-61.44z"/>
    <path d="M25.72.12C11.576.12.117 11.57.12 25.72c0 14.147 11.448 25.6 25.6 25.6 14.144 0 25.6-11.448 25.6-25.6.003-14.144-11.448-25.6-25.6-25.6zM5.24 25.72c0-5.47 2.13-10.614 5.998-14.482A20.346 20.346 0 0 1 25.72 5.24c5.368 0 10.412 2.06 14.252 5.79l-21.707 7.235-7.234 21.71C7.3 36.131 5.24 31.084 5.24 25.72zm17.073-3.407l6.812 6.817-10.22 3.407 3.408-10.224zM25.72 46.2c-5.366 0-10.409-2.06-14.249-5.788l21.704-7.237 7.234-21.71c3.73 3.843 5.791 8.89 5.791 14.255 0 11.32-9.16 20.48-20.48 20.48z" fill="#E6E8EB" fill-rule="nonzero"/>
  </g>
</svg>
