<svg xmlns="http://www.w3.org/2000/svg" width="24" height="24" viewBox="0 0 24 24">
    <defs>
        <filter id="if56zver7a">
            <feColorMatrix in="SourceGraphic" values="0 0 0 0 0.921569 0 0 0 0 0.082353 0 0 0 0 0.062745 0 0 0 1.000000 0"/>
        </filter>
    </defs>
    <g fill="none" fill-rule="evenodd">
        <g>
            <g filter="url(#if56zver7a)" transform="translate(-502 -681) translate(490 669)">
                <g>
                    <path fill="#2E3C43" d="M12 4c-4.411 0-8 3.589-8 8s3.589 8 8 8 8-3.589 8-8-3.589-8-8-8m0 18C6.486 22 2 17.515 2 12 2 6.486 6.486 2 12 2s10 4.486 10 10c0 5.515-4.486 10-10 10M8.734 7.331l.094.083L12 10.585l3.172-3.17c.39-.391 1.023-.391 1.414 0 .36.36.388.927.083 1.32l-.083.093L13.415 12l3.17 3.172c.391.39.391 1.023 0 1.414-.36.36-.927.388-1.32.083l-.093-.083L12 13.415l-3.172 3.17c-.39.391-1.023.391-1.414 0-.36-.36-.388-.927-.083-1.32l.083-.093L10.585 12l-3.17-3.172c-.391-.39-.391-1.023 0-1.414.33-.33.834-.381 1.218-.152l.101.069z" transform="translate(12 12)"/>
                </g>
            </g>
        </g>
    </g>
</svg>
