<?xml version="1.0" encoding="UTF-8"?>
<svg width="20px" height="18px" viewBox="0 0 20 18" version="1.1" xmlns="http://www.w3.org/2000/svg" xmlns:xlink="http://www.w3.org/1999/xlink">
    <!-- Generator: Sketch 51.3 (57544) - http://www.bohemiancoding.com/sketch -->
    <title>settings-1</title>
    <desc>Created with Sketch.</desc>
    <defs></defs>
    <g id="First-Development-Cycle" stroke="none" stroke-width="1" fill="none" fill-rule="evenodd">
        <g id="50-Account-Dropdown" transform="translate(-1040.000000, -198.000000)">
            <g id="Maps" transform="translate(0.000000, 128.000000)">
                <g id="settings-1" transform="translate(1038.000000, 67.000000)">
                    <g id="Frame_-_24px">
                        <rect id="Rectangle" x="0" y="0" width="24" height="24"></rect>
                    </g>
                    <g id="Line_Icons" transform="translate(2.000000, 2.000000)" fill="#036FE2" fill-rule="nonzero">
                        <g id="Group">
                            <path d="M17,6.999 C18.654,6.999 20,5.653 20,3.999 C20,2.345 18.654,0.999 17,0.999 C15.698,0.999 14.599,1.837 14.185,2.999 L0,2.999 L0,4.999 L14.185,4.999 C14.599,6.161 15.698,6.999 17,6.999 Z M17,2.999 C17.551,2.999 18,3.448 18,3.999 C18,4.552 17.551,4.999 17,4.999 C16.449,4.999 16,4.552 16,3.999 C16,3.448 16.449,2.999 17,2.999 Z" id="Shape"></path>
                            <path d="M7,6.999 C5.698,6.999 4.599,7.837 4.185,8.999 L0,8.999 L0,10.999 L4.185,10.999 C4.599,12.161 5.699,12.999 7,12.999 C8.301,12.999 9.401,12.161 9.815,10.999 L20,10.999 L20,8.999 L9.815,8.999 C9.401,7.837 8.302,6.999 7,6.999 Z M7,10.999 C6.449,10.999 6,10.552 6,9.999 C6,9.448 6.449,8.999 7,8.999 C7.551,8.999 8,9.448 8,9.999 C8,10.552 7.551,10.999 7,10.999 Z" id="Shape"></path>
                            <path d="M17,12.999 C15.698,12.999 14.599,13.837 14.185,14.999 L0,14.999 L0,16.999 L14.185,16.999 C14.599,18.161 15.699,18.999 17,18.999 C18.654,18.999 20,17.653 20,15.999 C20,14.345 18.654,12.999 17,12.999 Z M17,16.999 C16.449,16.999 16,16.552 16,15.999 C16,15.448 16.449,14.999 17,14.999 C17.551,14.999 18,15.448 18,15.999 C18,16.552 17.551,16.999 17,16.999 Z" id="Shape"></path>
                        </g>
                    </g>
                </g>
            </g>
        </g>
    </g>
</svg>