<svg width="20" height="18" xmlns="http://www.w3.org/2000/svg">
  <g fill="none" fill-rule="evenodd">
    <path d="M-2-3h24v24H-2z"/>
    <path class="svgicon" fill="#036FE2" fill-rule="nonzero" d="M17 5.999c1.654 0 3-1.346 3-3s-1.346-3-3-3a2.993 2.993 0 0 0-2.815 2H0v2h14.185a2.993 2.993 0 0 0 2.815 2zm0-4a1 1 0 1 1 0 2 1 1 0 0 1 0-2zM7 5.999a2.993 2.993 0 0 0-2.815 2H0v2h4.185a2.994 2.994 0 0 0 2.815 2 2.994 2.994 0 0 0 2.815-2H20v-2H9.815a2.993 2.993 0 0 0-2.815-2zm0 4a1 1 0 1 1 0-2 1 1 0 0 1 0 2zM17 11.999a2.993 2.993 0 0 0-2.815 2H0v2h14.185a2.994 2.994 0 0 0 2.815 2c1.654 0 3-1.346 3-3s-1.346-3-3-3zm0 4a1 1 0 1 1 0-2 1 1 0 0 1 0 2z"/>
  </g>
</svg>
