<svg xmlns="http://www.w3.org/2000/svg" xmlns:xlink="http://www.w3.org/1999/xlink" width="12" height="9" viewBox="0 0 12 9">
    <defs>
        <path id="ai17frjxda" d="M4.747.089l.068.056c.195.195.198.509.003.704L1.666 4H12v1H1.786l3.07 3.07c.174.173.19.44.055.635l-.058.069-.067.056c-.192.132-.465.119-.637-.054L.274 4.903C.228 4.88.186 4.85.148 4.812c-.195-.195-.198-.509-.003-.704L4.111.142c.172-.172.445-.185.636-.053z"/>
    </defs>
    <g fill="none" fill-rule="evenodd">
        <g>
            <g>
                <g>
                    <g transform="translate(-250 -164) translate(250 159) translate(0 3) translate(0 2)">
                        <mask id="padmjdqzcb" fill="#fff">
                            <use xlink:href="#ai17frjxda"/>
                        </mask>
                        <use fill="#2E3C43" xlink:href="#ai17frjxda"/>
                        <g fill="#1181FB" mask="url(#padmjdqzcb)">
                            <path d="M0 0H16V16H0z" transform="translate(0 -2)"/>
                        </g>
                    </g>
                </g>
            </g>
        </g>
    </g>
</svg>
