<svg xmlns="http://www.w3.org/2000/svg" viewBox="0 0 14 14">
  <path d="M6.667 0a6.674 6.674 0 016.666 6.667 6.674 6.674 0 01-6.666 6.666A6.674 6.674 0 010 6.667 6.675 6.675 0 016.667 0zm0 1.333a5.34 5.34 0 00-5.334 5.334A5.34 5.34 0 006.667 12 5.34 5.34 0 0012 6.667a5.34 5.34 0 00-5.333-5.334zm0 4c.368 0 .666.299.666.667v2.667h1.334V10h-4V8.667H6v-2h-.667V5.333zm0-2.166c.555 0 .833.277.833.833 0 .556-.278.833-.833.833-.556 0-.834-.277-.834-.833 0-.556.278-.833.834-.833z" fill="#162945" fill-rule="evenodd"/>
</svg>