<?xml version="1.0" encoding="UTF-8"?>
<svg width="48px" height="68px" viewBox="0 0 48 68" version="1.1" xmlns="http://www.w3.org/2000/svg" xmlns:xlink="http://www.w3.org/1999/xlink">
  <g id="Maintenance-notifications" stroke="none" stroke-width="1" fill="none" fill-rule="evenodd">
      <g id="A---Maintenance-active" transform="translate(-696.000000, -190.000000)">
          <g id="Welcome-Module" transform="translate(0.000000, 64.000000)">
              <g id="Background">
                  <g id="wrench" transform="translate(680.000000, 120.000000)">
                      <g id="Frame_-_24px">
                          <rect id="Rectangle" x="0" y="0" width="80" height="80"></rect>
                      </g>
                      <g id="Line_Icons" transform="translate(16.666667, 6.333333)" fill="#FFD64F" fill-rule="nonzero">
                          <path d="M46.6666667,23.6666667 C46.6666667,13.8133333 40.4166667,4.98 31.1133333,1.69 L26.6666667,0.113333333 L26.6666667,20.3333333 C26.6666667,22.1766667 25.17,23.6666667 23.3333333,23.6666667 C21.4966667,23.6666667 20,22.1766667 20,20.3333333 L20,0.113333333 L15.5533333,1.69 C6.25,4.98 0,13.8133333 0,23.6666667 C0,32.9533333 5.46333333,40.96 13.3333333,44.7166667 L13.3333333,67 L20,67 L20,47 L26.6666667,47 L26.6666667,67 L33.3333333,67 L33.3333333,44.7166667 C41.2033333,40.96 46.6666667,32.95 46.6666667,23.6666667 Z M23.3333333,40.3333333 C14.1433333,40.3333333 6.66666667,32.8566667 6.66666667,23.6666667 C6.66666667,18.35 9.22,13.45 13.3333333,10.3566667 L13.3333333,20.3333333 C13.3333333,25.8466667 17.82,30.3333333 23.3333333,30.3333333 C28.8466667,30.3333333 33.3333333,25.8466667 33.3333333,20.3333333 L33.3333333,10.3533333 C37.4466667,13.4466667 40,18.3466667 40,23.6666667 C40,32.8533333 32.5233333,40.3333333 23.3333333,40.3333333 Z" id="Shape"></path>
                      </g>
                  </g>
              </g>
          </g>
      </g>
  </g>
</svg>