<svg width="48" height="68" xmlns="http://www.w3.org/2000/svg">
  <g fill="none" fill-rule="evenodd">
    <path d="M-16-6h80v80h-80z"/>
    <path d="M47.333 24c0-9.853-6.25-18.687-15.553-21.977L27.333.447v20.22a3.335 3.335 0 0 1-6.666 0V.447L16.22 2.023C6.917 5.313.667 14.147.667 24 .667 33.287 6.13 41.293 14 45.05v22.283h6.667v-20h6.666v20H34V45.05C41.87 41.293 47.333 33.283 47.333 24zM24 40.667C14.81 40.667 7.333 33.19 7.333 24c0-5.317 2.554-10.217 6.667-13.31v9.977c0 5.513 4.487 10 10 10s10-4.487 10-10v-9.98C38.113 13.78 40.667 18.68 40.667 24c0 9.187-7.477 16.667-16.667 16.667z" fill="#FFD64F" fill-rule="nonzero"/>
  </g>
</svg>