<svg width="56" height="58" viewBox="0 0 56 58" xmlns="http://www.w3.org/2000/svg"><g fill="#E6E8EB" fill-rule="nonzero"><path d="M23.6308 3.5026c2.1576 0 4.32.1217 6.4127.3633A16.9829 16.9829 0 0028.914 9.014c-1.618-.1656-3.3808-.2603-5.2832-.2603-11.9388 0-18.3795 3.7285-18.3795 5.2513 0 1.5229 6.4407 5.2513 18.3795 5.2513 2.8486 0 5.3843-.2123 7.5941-.5562a17.1246 17.1246 0 003.9112 4.5716c-3.5379.818-7.5268 1.2359-11.5053 1.2359-6.895 0-13.8214-1.255-18.3795-3.676v3.676c0 1.5229 6.4407 5.2513 18.3795 5.2513 8.5119 0 14.229-1.8952 16.8098-3.5351 1.727.5898 3.5802.9094 5.5081.9094.4419 0 .8798-.0168 1.3132-.0497l-.0004 18.4292c0 6.895-11.8862 10.5026-23.6307 10.5026S0 52.4078 0 45.5128V14.0051C0 7.1101 11.8863 3.5026 23.6308 3.5026zm18.3795 38.3343c-4.5582 2.4209-11.4846 3.676-18.3795 3.676-6.895 0-13.8214-1.2525-18.3795-3.676v3.676c0 1.5228 6.4407 5.2512 18.3795 5.2512s18.3795-3.7284 18.3795-5.2513zm0-10.5025c-4.5582 2.4208-11.4846 3.6759-18.3795 3.6759-6.895 0-13.8214-1.2525-18.3795-3.676v3.676c0 1.5228 6.4407 5.2512 18.3795 5.2512s18.3795-3.7284 18.3795-5.2512zM46.277.8462c1.0543 0 1.918.8158 1.9944 1.8507l.0055.1493v14.7692c0 1.1046-.8954 2-2 2-1.0543 0-1.9181-.8159-1.9945-1.8508l-.0055-.1492V2.8462c0-1.1046.8955-2 2-2z"/><path d="M55.5447 10.4421c0 1.0544-.8159 1.9182-1.8507 1.9945l-.1493.0055H38.7755c-1.1046 0-2-.8954-2-2 0-1.0543.8158-1.9181 1.8507-1.9945l.1493-.0055h14.7692c1.1046 0 2 .8955 2 2z"/></g></svg>