<?xml version="1.0" encoding="UTF-8"?>
<svg width="16px" height="16px" viewBox="0 0 16 16" version="1.1" xmlns="http://www.w3.org/2000/svg" xmlns:xlink="http://www.w3.org/1999/xlink">
    <title>id-card-1</title>
    <g id="v3-final" stroke="none" stroke-width="1" fill="none" fill-rule="evenodd">
        <g id="v3-11-Your-connections" transform="translate(-915.000000, -391.000000)">
            <g id="Card-Copy-3" transform="translate(895.000000, 274.000000)">
                <g id="id-card-1" transform="translate(20.000000, 117.000000)">
                    <g>
                        <polygon id="Frame_-_24px" points="0 0 16 0 16 16 0 16"></polygon>
                        <g id="Line_Icons" transform="translate(1.333333, 2.000000)" fill="#2e3c43" fill-rule="nonzero">
                            <polygon id="Path" points="7.334 5.33333333 11.334 5.33333333 11.334 6.66666667 7.334 6.66666667"></polygon>
                            <polygon id="Path-Copy" points="2.00066667 8 6.00066667 8 6.00066667 9.33333333 2.00066667 9.33333333"></polygon>
                            <polygon id="Path-Copy-2" points="2.00066667 4.66666667 6.00066667 4.66666667 6.00066667 6 2.00066667 6"></polygon>
                            <polygon id="Path-Copy-2" transform="translate(2.667333, 7.333333) rotate(-270.000000) translate(-2.667333, -7.333333) " points="0.667333333 6.66666667 4.66733333 6.66666667 4.66733333 8 0.667333333 8"></polygon>
                            <polygon id="Path-Copy-3" transform="translate(5.334000, 7.333333) rotate(-270.000000) translate(-5.334000, -7.333333) " points="3.334 6.66666667 7.334 6.66666667 7.334 8 3.334 8"></polygon>
                            <polygon id="Path" points="7.334 8 11.334 8 11.334 9.33333333 7.334 9.33333333"></polygon>
                            <path d="M12.0006667,1.33333333 L8.544,1.33333333 C8.268,0.558666667 7.53466667,0 6.66733333,0 C5.8,0 5.06666667,0.558666667 4.79066667,1.33333333 L1.334,1.33333333 C0.598666667,1.33333333 0.000666666667,1.93066667 0.000666666667,2.66666667 L0.000666666667,10.6666667 C0.000666666667,11.402 0.598666667,12 1.334,12 L12.0006667,12 C12.736,12 13.334,11.402 13.334,10.6666667 L13.334,2.66666667 C13.334,1.93066667 12.736,1.33333333 12.0006667,1.33333333 Z M6.66733333,1.33333333 C7.03466667,1.33333333 7.334,1.63266667 7.334,2 C7.334,2.36733333 7.03466667,2.66666667 6.66733333,2.66666667 C6.3,2.66666667 6.00066667,2.36733333 6.00066667,2 C6.00066667,1.63266667 6.3,1.33333333 6.66733333,1.33333333 Z M1.334,10.6666667 L1.334,2.66666667 L4.79066667,2.66666667 C5.06666667,3.44133333 5.8,4 6.66733333,4 C7.53466667,4 8.268,3.44133333 8.544,2.66666667 L12.0006667,2.66666667 L12.0013333,10.6666667 L1.334,10.6666667 Z" id="Shape"></path>
                        </g>
                    </g>
                </g>
            </g>
        </g>
    </g>
</svg>