<?xml version="1.0" encoding="UTF-8"?>
<svg width="16px" height="16px" viewBox="0 0 16 16" version="1.1" xmlns="http://www.w3.org/2000/svg" xmlns:xlink="http://www.w3.org/1999/xlink">
    <title>plug-1</title>
    <g id="v3-final" stroke="none" stroke-width="1" fill="none" fill-rule="evenodd">
        <g id="v3-11-Your-connections" transform="translate(-1086.000000, -391.000000)">
            <g id="Card-Copy-3" transform="translate(895.000000, 274.000000)">
                <g id="plug-1" transform="translate(191.000000, 117.000000)">
                    <g>
                        <polygon id="Frame_-_24px" points="0 0 16 0 16 16 0 16"></polygon>
                        <path d="M16.0013333,12.6666667 L16.0013333,11.3333333 L15.2666667,11.3333333 C15.1805656,10.9157341 15.0146396,10.5186888 14.778,10.164 L15.3006667,9.64133333 L14.358,8.69866667 L13.8346667,9.22133333 C13.4805584,8.98525162 13.08419,8.81977739 12.6673333,8.734 L12.6673333,8 L11.334,8 L11.334,8.734 C10.9167401,8.82017061 10.5199669,8.98585116 10.1653333,9.222 L9.64333333,8.7 L8.70066667,9.64266667 L9.22266667,10.1646667 C8.98623701,10.5191498 8.82053289,10.9159795 8.73466667,11.3333333 L8,11.3333333 L8,12.6666667 L8.73466667,12.6666667 C8.82133333,13.0913333 8.99066667,13.486 9.22266667,13.836 L8.7,14.3586667 L9.64333333,15.3006667 L10.1653333,14.778 C10.519915,15.0141057 10.9167237,15.1795747 11.334,15.2653333 L11.334,16 L12.6673333,16 L12.6673333,15.2653333 C13.0846872,15.1794671 13.4815169,15.013763 13.836,14.7773333 L14.3586667,15.2993333 L15.3006667,14.356 L14.778,13.834 C15.0149994,13.4802341 15.1809667,13.0837692 15.2666667,12.6666667 L16.0013333,12.6666667 Z M12,13.3333333 C11.2636203,13.3333333 10.6666667,12.7363797 10.6666667,12 C10.6666667,11.2636203 11.2636203,10.6666667 12,10.6666667 C12.7363797,10.6666667 13.3333333,11.2636203 13.3333333,12 C13.3333333,12.7363797 12.7363797,13.3333333 12,13.3333333 Z" id="Shape" fill="#2e3c43" fill-rule="nonzero"></path>
                        <path d="M4.48484848,0.121212121 L4.48484848,2.3030303 L7.39393939,2.3030303 L7.39393939,0.121212121 L8.84848485,0.121212121 L8.84848485,2.3030303 L10.3030303,2.3030303 C11.1052121,2.3030303 11.7575758,2.95466667 11.7575758,3.75757576 L11.7575758,3.75757576 L11.7575758,5.93939394 C11.7575758,6.1858092 11.7421754,6.42865119 11.7122874,6.66701641 L10.2423736,6.66715815 C10.282262,6.43043833 10.3030303,6.1873009 10.3030303,5.93939394 L10.3030303,5.93939394 L1.57575758,5.93939394 C1.57575758,8.34593939 3.53284848,10.3030303 5.93939394,10.3030303 C6.1873009,10.3030303 6.43043833,10.282262 6.66715815,10.2423736 L6.66666667,13.9393939 L5.21212121,13.9393939 L5.21212121,11.7073939 C2.34666667,11.3473939 0.121212121,8.90084848 0.121212121,5.93939394 L0.121212121,5.93939394 L0.121212121,3.75757576 C0.121212121,2.95466667 0.773575758,2.3030303 1.57575758,2.3030303 L1.57575758,2.3030303 L3.03030303,2.3030303 L3.03030303,0.121212121 L4.48484848,0.121212121 Z M10.3030303,3.75757576 L1.57575758,3.75757576 L1.57575758,4.48484848 L10.3030303,4.48484848 L10.3030303,3.75757576 Z" id="Combined-Shape" fill="#2e3c43" fill-rule="nonzero"></path>
                    </g>
                </g>
            </g>
        </g>
    </g>
</svg>