<?xml version="1.0" encoding="UTF-8"?>
<svg width="36px" height="40px" viewBox="0 0 36 40" version="1.1" xmlns="http://www.w3.org/2000/svg" xmlns:xlink="http://www.w3.org/1999/xlink">
    <!-- Generator: Sketch 52.6 (67491) - http://www.bohemiancoding.com/sketch -->
    <title>server-2</title>
    <desc>Created with Sketch.</desc>
    <g id="Active-Development-Cycle" stroke="none" stroke-width="1" fill="none" fill-rule="evenodd">
        <g id="01-Home-/-Recent" transform="translate(-382.000000, -318.000000)">
            <g id="Group-6" transform="translate(376.000000, 312.000000)">
                <g id="places-home-1">
                    <g id="Frame_-_24px">
                        <g id="server-2" transform="translate(0.000000, 2.000000)">
                            <g id="Frame-24px">
                                <rect id="Rectangle" x="0" y="0" width="48" height="48"></rect>
                            </g>
                            <g id="Line_Icons" transform="translate(6.000000, 4.000000)" fill="#FFFFFF" fill-rule="nonzero">
                                <path d="M18,0 C9.054,0 0,2.748 0,8 L0,32 C0,37.252 9.054,40 18,40 C26.946,40 36,37.252 36,32 L36,8 C36,2.748 26.946,0 18,0 Z M18,4 C27.094,4 32,6.84 32,8 C32,9.16 27.094,12 18,12 C8.906,12 4,9.16 4,8 C4,6.84 8.906,4 18,4 Z M18,36 C8.906,36 4,33.16 4,32 L4,29.2 C7.472,31.046 12.748,32 18,32 C23.252,32 28.528,31.044 32,29.2 L32,32 C32,33.16 27.094,36 18,36 Z M18,28 C8.906,28 4,25.16 4,24 L4,21.2 C7.472,23.046 12.748,24 18,24 C23.252,24 28.528,23.044 32,21.2 L32,24 C32,25.16 27.094,28 18,28 Z M18,20 C8.906,20 4,17.16 4,16 L4,13.2 C7.472,15.044 12.748,16 18,16 C23.252,16 28.528,15.044 32,13.2 L32,16 C32,17.16 27.094,20 18,20 Z" id="Shape"></path>
                            </g>
                        </g>
                    </g>
                </g>
            </g>
        </g>
    </g>
</svg>