<svg xmlns="http://www.w3.org/2000/svg" width="36" height="36" viewBox="0 0 36 36">
    <defs>
        <filter id="c1d815jofa">
            <feColorMatrix in="SourceGraphic" values="0 0 0 0 0.180392 0 0 0 0 0.235294 0 0 0 0 0.262745 0 0 0 1.000000 0"/>
        </filter>
    </defs>
    <g fill="none" fill-rule="evenodd">
        <g>
            <g>
                <g>
                    <g>
                        <g>
                            <g>
                                <path d="M0 0.001H35.446V35.449H0z" transform="translate(-704 -32) translate(-1) translate(597 32) translate(108)"/>
                                <path fill="#047AE6" fill-rule="nonzero" d="M29.214 3.248C29.055 3.09 28.84 3 28.615 3c-.224 0-.44.09-.598.248l-5.923 5.923c-.108.109-.185.245-.223.394l-.847 3.384c-.07.288.015.593.225.802.21.21.514.295.802.225l3.384-.847c.15-.037.285-.114.394-.223l5.923-5.923c.159-.159.248-.374.248-.598 0-.225-.09-.44-.248-.598l-2.538-2.539zm-4.417 8.295l-1.79.448.45-1.788 2.62-2.622 1.342 1.342-2.622 2.62zm3.818-3.816l-1.342-1.342 1.342-1.342 1.342 1.342-1.342 1.342z" transform="translate(-704 -32) translate(-1) translate(597 32) translate(108)"/>
                            </g>
                        </g>
                        <g filter="transparent" transform="translate(-704 -32) translate(-1) translate(597 32) translate(108) translate(0 4)">
                            <g fill="#2e3c43" fill-rule="nonzero" transform="translate(.848 .848)">
                                <circle cx="12.727" cy="16.705" r="2.386"/>
                                <path d="M9.545 0v4.773l5.457-.001.002.1c.03 1.082.24 2.119.598 3.082H3.182v1.591H16.37c.776 1.29 1.847 2.381 3.119 3.183H3.182c0 5.264 4.281 9.545 9.545 9.545 4.868 0 8.896-3.661 9.474-8.375.766.196 1.57.301 2.399.301.26 0 .518-.01.772-.03-.658 5.817-5.257 10.447-11.054 11.176v4.882h-3.182v-4.882C4.868 24.557 0 19.205 0 12.727V7.955c0-1.757 1.427-3.182 3.182-3.182h3.182V0h3.181z"/>
                            </g>
                        </g>
                    </g>
                </g>
            </g>
        </g>
    </g>
</svg>
