<svg width="38" height="42" xmlns="http://www.w3.org/2000/svg">
  <g fill="none" fill-rule="evenodd">
    <path d="M-6-5.998h49.92v49.922H-6z"/>
    <path d="M-6-3.92h49.92V46H-6z"/>
    <path d="M18.96.24C9.656.24.24 3.098.24 8.56v24.96c0 5.462 9.416 8.32 18.72 8.32 9.304 0 18.72-2.858 18.72-8.32V8.56c0-5.462-9.416-8.32-18.72-8.32zm0 4.16c9.458 0 14.56 2.954 14.56 4.16s-5.102 4.16-14.56 4.16S4.4 9.766 4.4 8.56 9.502 4.4 18.96 4.4zm0 33.28c-9.458 0-14.56-2.954-14.56-4.16v-2.912c3.61 1.92 9.098 2.912 14.56 2.912s10.95-.994 14.56-2.912v2.912c0 1.206-5.102 4.16-14.56 4.16zm0-8.32c-9.458 0-14.56-2.954-14.56-4.16v-2.912c3.61 1.92 9.098 2.912 14.56 2.912s10.95-.994 14.56-2.912V25.2c0 1.206-5.102 4.16-14.56 4.16zm0-8.32c-9.458 0-14.56-2.954-14.56-4.16v-2.912c3.61 1.918 9.098 2.912 14.56 2.912s10.95-.994 14.56-2.912v2.912c0 1.206-5.102 4.16-14.56 4.16z" fill="#E6E8EB" fill-rule="nonzero"/>
  </g>
</svg>