<svg width="56" height="56" xmlns="http://www.w3.org/2000/svg">
  <g fill="none" fill-rule="evenodd">
    <path d="M-4-4h64v64H-4z"/>
    <g fill="#E6E8EB">
      <path d="M32.667 40.334C29.923 41.258 26.014 42 21 42c-10.61 0-16.333-3.313-16.333-4.667v-3.266c4.05 2.151 10.206 3.266 16.333 3.266 4.093 0 8.185-.508 11.667-1.481V31c-2.744.924-6.653 1.666-11.667 1.666-10.61 0-16.333-3.314-16.333-4.667v-3.267C8.717 26.885 14.873 28 21 28c6.127 0 12.283-1.115 16.333-3.267V28H42V9.333C42 3.206 31.437 0 21 0S0 3.206 0 9.333v28c0 6.128 10.563 9.334 21 9.334 4.088 0 8.183-.5 11.667-1.466v-4.867zM21 4.667c10.61 0 16.333 3.313 16.333 4.666C37.333 10.687 31.61 14 21 14S4.667 10.687 4.667 9.333C4.667 7.98 10.39 4.667 21 4.667zM4.667 15.4c4.05 2.151 10.206 3.267 16.333 3.267 6.127 0 12.283-1.116 16.333-3.267v3.267c0 1.353-5.723 4.666-16.333 4.666S4.667 20.02 4.667 18.667V15.4z" fill-rule="nonzero"/>
      <path d="M56 44.333h-7v-7h-4.667v7h-7V49h7v7H49v-7h7z"/>
    </g>
  </g>
</svg>
