<svg xmlns="http://www.w3.org/2000/svg" width="48" height="49" viewBox="0 0 48 49">
    <g fill="none" fill-rule="evenodd">
        <g transform="translate(-537 -288)">
            <g>
                <path fill="#036fe2" d="M23.5 2c11.897 0 21.542 9.85 21.542 22S35.397 46 23.5 46C11.603 46 1.958 36.15 1.958 24S11.603 2 23.5 2zm0 4.4C13.982 6.4 6.267 14.28 6.267 24c0 9.72 7.715 17.6 17.233 17.6S40.733 33.72 40.733 24c0-9.72-7.715-17.6-17.233-17.6zm0 8.8c4.759 0 8.617 3.94 8.617 8.8 0 4.86-3.858 8.8-8.617 8.8s-8.617-3.94-8.617-8.8c0-4.86 3.858-8.8 8.617-8.8zm.128 4.818c-.396 0-.752.041-1.07.124-.317.082-.61.201-.88.357-.232.133-.51.342-.834.627l-.166.149 1.141 1.364c.312-.276.592-.484.84-.626.246-.141.49-.212.733-.212.235 0 .417.06.547.177.13.119.194.28.194.484 0 .165-.032.322-.097.473-.065.15-.18.33-.344.54-.149.188-.448.524-.897 1.006l-.155.167-1.878 1.939v1.396h5.58v-1.75h-2.908v-.054c.852-.781 1.408-1.31 1.67-1.59.26-.28.47-.545.628-.798.158-.252.274-.51.35-.77.075-.262.113-.547.113-.855 0-.411-.108-.783-.324-1.114-.215-.331-.518-.586-.91-.765-.39-.18-.835-.269-1.333-.269zm11.627-5.54l.671.907-1.209.884.862 1.164 1.209-.884.67.907-3.23 2.363-.67-.907 1.227-.898-.862-1.164-1.227.898-.671-.907 3.23-2.363zm-22.511 1.099l.01.006c.963.643 1.22 1.938.522 2.971-.698 1.033-1.987 1.284-2.95.641l-.01-.006c-.963-.642-1.22-1.938-.523-2.971.699-1.033 1.988-1.284 2.95-.641zm-2.118 1.21c-.343.507-.16 1.121.324 1.444l.01.006c.483.323 1.141.255 1.484-.251.346-.512.163-1.127-.321-1.45l-.01-.006c-.484-.323-1.141-.255-1.487.257zm5.516-5.914l3.423 2.783-1.065.56-.597-.5-1.383.726.08.77-1.044.548-.371-4.384.957-.503zm12.573-.746l3.17 1.617-.441.87-1.085-.553-1.376 2.71-1.002-.51 1.377-2.711-1.085-.553.442-.87zm-12.44 2.17l.13 1.224.805-.421-.935-.802zm5.01-2.955l1.14.004-.01 2.236c-.002.58.292.858.744.86.45.001.747-.262.75-.825l.008-2.265 1.14.005-.009 2.23c-.005 1.299-.754 1.865-1.905 1.86-1.151-.004-1.872-.588-1.867-1.846l.009-2.26z" transform="translate(537 288.716)"/>
            </g>
        </g>
    </g>
</svg>
