<svg xmlns="http://www.w3.org/2000/svg" width="48" height="48" viewBox="0 0 48 48">
    <g fill="none" fill-rule="evenodd">
        <g transform="translate(-856 -285)">
            <g>
                <path fill="#036fe2" d="M21.368 26.104c.95-.312 1.978.114 2.422 1.002l2 4c.384.77.234 1.7-.376 2.308l-.586.586H40c.758 0 1.452.428 1.79 1.106.34.678.266 1.488-.19 2.094l-6 8c-.378.504-.97.8-1.6.8H12c0 1.106-.894 2-2 2H2c-1.104 0-2-.894-2-2V30c0-1.104.896-2 2-2h8c.848 0 1.562.53 1.854 1.274zM8 32H4v12h4V32zm12.988-1.554L12 33.44V42h21l3-4H18v-2h.02c0-.52.184-1.032.566-1.414l2.98-2.98-.578-1.16zM44 0c2.208 0 4 1.792 4 4v22c0 2.206-1.792 4-4 4H30v-4h13.994l.004-14H12v14H8V4c0-2.208 1.794-4 4-4zM24 4h-4v4h4V4zm-8 0h-4v4h4V4zm28 0H28v4h16V4z" transform="translate(856 285)"/>
            </g>
        </g>
    </g>
</svg>
