<svg xmlns="http://www.w3.org/2000/svg" width="36" height="36" viewBox="0 0 36 36">
    <g fill="none" fill-rule="evenodd">
        <g>
            <g>
                <g>
                    <g>
                        <path d="M0 0.001H35.446V35.449H0z" transform="translate(-705 -32) translate(657 32) translate(48)"/>
                        <path fill="#2E3C43" fill-rule="nonzero" d="M13.292 5.908c1.214 0 2.43.068 3.608.204-.354.906-.574 1.88-.636 2.896-.91-.093-1.902-.146-2.972-.146-6.715 0-10.338 2.097-10.338 2.953 0 .857 3.623 2.954 10.338 2.954 1.603 0 3.03-.12 4.273-.313.576.983 1.322 1.853 2.198 2.571-1.99.461-4.233.696-6.47.696-3.88 0-7.775-.706-10.34-2.068v2.068c0 .857 3.624 2.954 10.34 2.954 4.788 0 8.004-1.066 9.455-1.989.971.332 2.014.512 3.098.512.249 0 .495-.01.739-.028v10.366c0 3.879-6.686 5.908-13.293 5.908C6.686 35.446 0 33.416 0 29.538V11.815c0-3.878 6.686-5.907 13.292-5.907zM23.631 27.47c-2.564 1.361-6.46 2.067-10.339 2.067-3.878 0-7.774-.704-10.338-2.067v2.067c0 .857 3.623 2.954 10.338 2.954 6.716 0 10.339-2.097 10.339-2.954zm0-5.908c-2.564 1.362-6.46 2.068-10.339 2.068-3.878 0-7.774-.705-10.338-2.068v2.068c0 .856 3.623 2.954 10.338 2.954 6.716 0 10.339-2.098 10.339-2.954z" transform="translate(-705 -32) translate(657 32) translate(48)"/>
                    </g>
                    <path fill="#036FE2" fill-rule="nonzero" d="M26.03 4.038c.78 0 1.421.595 1.494 1.356l.007.144v8.308c0 .829-.672 1.5-1.5 1.5-.78 0-1.42-.595-1.493-1.355l-.007-.145V5.538c0-.828.671-1.5 1.5-1.5z" transform="translate(-705 -32) translate(657 32) translate(48)"/>
                    <path fill="#036FE2" fill-rule="nonzero" d="M25.965 4.157c.78 0 1.42.595 1.493 1.356l.007.144v8.308c0 .828-.672 1.5-1.5 1.5-.78 0-1.42-.595-1.493-1.355l-.007-.145V5.657c0-.828.672-1.5 1.5-1.5z" transform="translate(-705 -32) translate(657 32) translate(48) rotate(90 25.965 9.811)"/>
                </g>
            </g>
        </g>
    </g>
</svg>
