<svg width="523" height="362" xmlns="http://www.w3.org/2000/svg">
  <g fill="none" fill-rule="evenodd">
    <path fill="#FCEC26" d="M415 23.191L420.017 21l.983 2.809L415.978 26 415 23.191"/>
    <path fill="#D3242D" d="M424.64 43.878l-.924-3.292 1.648-.464.92 3.296-1.644.46"/>
    <path fill="#987AA9" d="M116 160.999L112.006 165 110 163.006l3.994-4.006 2.006 1.999"/>
    <path fill="#D3242D" d="M286 130.868l4.97-.052.03 2.316-4.974.052-.026-2.316"/>
    <path fill="#D4167C" d="M502.125 38L501 30.541l3.875-.541L506 37.463l-3.875.537M516 29.98l4.017-1.82.983 1.856-4.017 1.824-.983-1.86M275.086 56.924L277.09 53l1.824 1.08-2 3.92-1.828-1.076"/>
    <path fill="#987AA9" d="M210 95.02l4.867-.24.133 2.204-4.867.236-.133-2.2"/>
    <path fill="#82BA41" d="M123.988 195.047L121.944 199l-1.932-1.043 2.044-3.957 1.932 1.047"/>
    <path fill="#7D2A79" d="M457.875 11L452 8.822 453.13 6 459 8.174 457.875 11"/>
    <path fill="#D4167C" d="M194.013 161L188 159.015l.987-3.015 6.013 1.98-.987 3.02"/>
    <path fill="#31A0CE" d="M382.288 27.72l-1.036 3.08-1.54-.52 1.036-3.08 1.54.52"/>
    <path fill="#987AA9" d="M461.35 27.954L455 26.818l.65-2.772 6.35 1.14-.65 2.768"/>
    <path fill="#FCEC26" d="M492.674 125L488 120.342l2.322-2.342 4.678 4.658-2.326 2.342"/>
    <path fill="#31A0CE" d="M336.103 32L342 34.14 340.897 37 335 34.86l1.103-2.86"/>
    <path fill="#987AA9" d="M106.246 146l-.808-4.598 2.312-.402.812 4.598-2.316.402"/>
    <path fill="#82BA41" d="M502 49.362l7.912-.148.088 3.424-7.912.148-.088-3.424"/>
    <path fill="#987AA9" d="M208 48.902l6.578-.764.422 2.96-6.574.764-.426-2.96"/>
    <path fill="#FCEC26" d="M28 101.834l4.155-1.392.845 1.72-4.16 1.396-.84-1.724"/>
    <path fill="#D3242D" d="M511.746 186l.592 4.668-2.088.332-.588-4.668 2.084-.332"/>
    <path fill="#31A0CE" d="M326.952 138.802L325.46 144l-2.412-.802L324.54 138l2.412.802"/>
    <path fill="#FCEC26" d="M91 296.875L96.686 294 98 297.12 92.31 300 91 296.875M82 21.017L86.347 18 88 19.983 83.653 23 82 21.017"/>
    <path fill="#987AA9" d="M169.726 50l-1.172-3.419L170.27 46l1.176 3.415-1.72.585"/>
    <path fill="#31A0CE" d="M229.088 78.728l.476-7.728 3.348.272L232.44 79l-3.352-.272"/>
    <path fill="#D4167C" d="M188.403 37L192 40.047 190.597 42 187 38.953 188.403 37"/>
    <path fill="#7D2A79" d="M111.882 40L108 37.855 109.118 36 113 38.14 111.882 40"/>
    <path fill="#D4167C" d="M135.452 11l-1.424-5.257 2.52-.743 1.424 5.257-2.52.743"/>
    <path fill="#FCEC26" d="M231 30.801L227.543 34 226 32.203 229.461 29 231 30.801M412.098 66l1.784 4.082-1.984.918-1.78-4.082 1.98-.918"/>
    <path fill="#987AA9" d="M353 53.746l5.986-.028.014 2.54-5.981.024-.019-2.536"/>
    <path fill="#D4167C" d="M345.59 143.643l.66-4.643 2.16.357-.66 4.643-2.16-.357"/>
    <path fill="#FCEC26" d="M126 71.204L123.729 77 121 75.791 123.271 70 126 71.204M52 43.475L46.864 49 44 46.525 49.136 41 52 43.475"/>
    <path fill="#D3242D" d="M362.238 102.463l1-5.463 2.524.541-1 5.459-2.524-.537"/>
    <path fill="#987AA9" d="M30.392 38L37 42.736 34.608 46 28 41.268 30.392 38M434 45.982l4.82-.364.18 2.404-4.815.36-.185-2.4"/>
    <path fill="#82BA41" d="M11.69 1.05l.42 3.9 2.2-.236-.392-3.664H11.69"/>
    <path fill="#FCEC26" d="M240.77 322l-.688-6.638 3.148-.362.688 6.638-3.148.362M338.788 178L332 175.503l1.207-3.503 6.793 2.497-1.212 3.503"/>
    <path fill="#987AA9" d="M119.482 54.589L118.446 59l-1.928-.589L117.546 54l1.936.589M522 91l-6 2.355L517.222 97 522 95.126V91"/>
    <path fill="#82BA41" d="M314 32.804L316.49 28l2.51 1.192L316.505 34 314 32.804M384.943 7.33L389 8.938l-.943 1.732L384 9.062l.943-1.732M146 21.586L140.749 27 138 24.414 143.251 19 146 21.586"/>
    <path fill="#987AA9" d="M116.294 39.223L115.886 44l-2.18-.228.412-4.772 2.176.223"/>
    <path fill="#82BA41" d="M275.56 73.136l2.196 2.636-1.32 1.092-2.192-2.632 1.316-1.096"/>
    <path fill="#D3242D" d="M183 36.242l-4.232 1.276-.768-1.764 4.236-1.272.764 1.76"/>
    <path fill="#82BA41" d="M481.918 102.022l-3.884-.1.052-1.944 3.88.1-.048 1.944"/>
    <path fill="#7D2A79" d="M247.613 8.132L253 9.3l-.613 2.568L247 10.696l.613-2.564"/>
    <path fill="#82BA41" d="M39.756 80L37 75.41 39.244 74 42 78.59 39.756 80"/>
    <path fill="#FCEC26" d="M.556 19.678v2.632l.032.012.856-2.316-.888-.328"/>
    <path fill="#987AA9" d="M507.005 27L501 23.005 503 20l6 4-1.995 3"/>
    <path fill="#D4167C" d="M31.017 65L27 59.012 29.983 57 34 62.983 31.017 65"/>
    <path fill="#FCEC26" d="M457.342 111.534L454 110.182l.658-1.716 3.342 1.352-.658 1.716M58.507 102.564L54 101.612l.497-2.176 4.503.952-.493 2.176"/>
    <path fill="#D4167C" d="M159.318 110.694L155 109.382l.682-2.076 4.318 1.312-.682 2.076"/>
    <path fill="#D3242D" d="M505 12.21l5.517-.86.483 2.44-5.512.86-.488-2.44"/>
    <path fill="#82BA41" d="M513.033 53.262l6.967.064-.037 3.412-6.963-.064.033-3.412"/>
    <path fill="#31A0CE" d="M310.093 56L304 54.13l.912-3.13L311 52.87l-.907 3.13"/>
    <path fill="#D3242D" d="M148 93.066L156.433 92l.567 3.934L148.571 97 148 93.066"/>
    <path fill="#D4167C" d="M368.582 285.445l.944-4.445 1.892.555-.948 4.445-1.888-.555"/>
    <path fill="#7D2A79" d="M514.004 75.244l-.2 3.612-1.808-.104.204-3.608 1.804.1"/>
    <path fill="#D3242D" d="M135.251 206l3.749 2.858-1.251 2.142-3.749-2.858 1.251-2.142"/>
    <path fill="#987AA9" d="M320.6 96l-4.6-4.73 2.4-2.27 4.6 4.734L320.6 96"/>
    <path fill="#D3242D" d="M438.242 158l3.758 4.23-2.242 1.77-3.758-4.23 2.242-1.77M347.664 18.526l.116 2.892-1.448.056-.112-2.892 1.444-.056M115.584 235.114l1.376-2.916 1.456.688-1.372 2.916-1.46-.688"/>
    <path fill="#7D2A79" d="M472 8.836L476.522 6 478 8.164 473.478 11 472 8.836"/>
    <path fill="#D4167C" d="M239.11 9.556l-3.02-1.604.804-1.508 3.016 1.6-.8 1.512"/>
    <path fill="#D3242D" d="M281.128 192.232l1.388-5.232 2.356.768-1.388 5.232-2.356-.768M74 20.548l-4.476.972L69 19.452l4.476-.972.524 2.068"/>
    <path fill="#987AA9" d="M65 52.339L62.327 55 61 53.657 63.677 51 65 52.339"/>
    <path fill="#FCEC26" d="M50.972 24l-.564-5.692L53.032 18l.56 5.696-2.62.304"/>
    <path fill="#D3242D" d="M81.561 9.542L85 10.698l-.561 1.76L81 11.306l.561-1.764"/>
    <path fill="#82BA41" d="M172 146.867L165.784 152 163 149.137l6.216-5.137 2.784 2.867"/>
    <path fill="#987AA9" d="M312.676 97.014l.508 3.72-1.86.252-.508-3.72 1.86-.252"/>
    <path fill="#7D2A79" d="M18.965 325L23 332.978 19.03 335 15 327.026 18.965 325"/>
    <path fill="#D4167C" d="M410.312 101L404 99.482l.692-3.482L411 97.523l-.688 3.477"/>
    <path fill="#D3242D" d="M421.95 189l-2.95-5.64 3.05-1.36 2.95 5.637-3.05 1.363"/>
    <path fill="#82BA41" d="M390.738 47.81l.344-4.81 2.18.194-.348 4.806-2.176-.19"/>
    <path fill="#FCEC26" d="M486 17.118l-6.601.712-.399-2.944 6.601-.716.399 2.948"/>
    <path fill="#31A0CE" d="M431.08 149l5.92 6.079-3.075 2.921-5.925-6.079 3.08-2.921"/>
    <path fill="#82BA41" d="M140 30.056l-4.883.22-.117-2.332 4.883-.22.117 2.332"/>
    <path fill="#31A0CE" d="M344 198.847L340.163 203 338 201.153l3.841-4.153 2.159 1.847"/>
    <path fill="#D3242D" d="M518.026 10L514 6.025 515.974 4 520 7.975 518.026 10M168.344 1.066l2.292 1.868 1.02-1.252-.76-.616h-2.552M292.148 1.248l-4.148.42.361 3.084L295 4.08l-.331-2.832h-2.521"/>
    <path fill="#7D2A79" d="M78.75 41L87 42.594 86.25 47 78 45.406 78.75 41M150.88 59.12l-4.88-.204.115-2.036 4.885.2-.12 2.04M449.242 56L454 58.552 452.758 61 448 58.448 449.242 56"/>
    <path fill="#D3242D" d="M103.788 24.726L97 24.342l.212-3.068 6.788.388-.212 3.064"/>
    <path fill="#82BA41" d="M314.778 27L312 22.429 314.222 21 317 25.571 314.778 27"/>
    <path fill="#987AA9" d="M204.524 32l-1.384-5.225 2.336-.775 1.384 5.23-2.336.77"/>
    <path fill="#D3242D" d="M392.788 4.276L392.284 11l-3.072-.276.504-6.724 3.072.276"/>
    <path fill="#FCEC26" d="M450.97 12l3.03 4.333L452.026 18 449 13.662 450.97 12"/>
    <path fill="#987AA9" d="M34 208.411L36.604 205 38 206.589 35.4 210l-1.4-1.589"/>
    <path fill="#7D2A79" d="M16 33.358L13.299 38 11 36.637 13.697 32 16 33.358"/>
    <path fill="#31A0CE" d="M119 9.423L120.186 2l3.814.573L122.818 10 119 9.423"/>
    <path fill="#FCEC26" d="M205.13 109.405l1.136-5.405 2.604.59-1.14 5.41-2.6-.595"/>
    <path fill="#31A0CE" d="M422.482 13.342L423.626 9l1.892.658L424.366 14l-1.884-.658M405.724 55L409 60.38 406.28 62 403 56.625 405.724 55"/>
    <path fill="#D4167C" d="M405.916 288.038l1.7 3.076-1.54.848-1.692-3.076 1.532-.848"/>
    <path fill="#987AA9" d="M207.662 36L205 30.55l2.338-1.55L210 34.444 207.662 36"/>
    <path fill="#D3242D" d="M172.506 10.354l5.494.884-.506 2.408-5.494-.884.506-2.408"/>
    <path fill="#31A0CE" d="M170.36 10l6.64 2.699L175.644 16 169 13.301 170.36 10"/>
    <path fill="#7D2A79" d="M86.678 1.07l1.124 1.86 1.52-.92-.564-.94h-2.08"/>
    <path fill="#D3242D" d="M34.568 174.092l.62 3.508-1.752.308-.624-3.504 1.756-.312"/>
    <path fill="#D4167C" d="M152 191.054l4.244-5.054 2.756 1.95-4.244 5.05-2.756-1.946M207.968 196.36l-2.36 3.64-1.576-1.36 2.36-3.64 1.576 1.36"/>
    <path fill="#D3242D" d="M178.668 50.012L184 51.336l-.668 2.652L178 52.664l.668-2.652"/>
    <path fill="#82BA41" d="M365 116.593L363.788 124l-3.788-.589 1.212-7.411 3.788.593"/>
    <path fill="#D4167C" d="M148.929 23L146 19.306 148.071 18 151 21.694 148.929 23M286.884 32.372l-.112 3.312-1.656-.052.108-3.316 1.66.056"/>
    <path fill="#FCEC26" d="M375.588 33.078l3 .344-.172 1.5-3.004-.344.176-1.5"/>
    <path fill="#82BA41" d="M425.846 62l-1.632-4.135L426.15 57l1.636 4.126-1.94.874"/>
    <path fill="#31A0CE" d="M336.514 70L341 75.53 338.482 78 334 72.47l2.514-2.47"/>
    <path fill="#82BA41" d="M475.21 61.437L476.258 56l2.532.56-1.048 5.44-2.532-.563"/>
    <path fill="#D4167C" d="M243.022 128.82l.108-3.696 1.848.052-.108 3.7-1.848-.056"/>
    <path fill="#FCEC26" d="M156.016 49.02l1.96-4.02 2.008.98-1.956 4.02-2.012-.98M514.546 19.71L513.11 23l-1.656-.714L512.89 19l1.656.71"/>
    <path fill="#7D2A79" d="M455 157.036L448.565 160 447 156.964l6.43-2.964 1.57 3.036"/>
    <path fill="#31A0CE" d="M226.722 101.438l4.278 1.264-.726 1.86-4.274-1.264.722-1.86M438.69.842l-.576.808 2.124 1.508 1.648-2.316h-3.196"/>
    <path fill="#82BA41" d="M215.842 7L221 12.503 218.158 15 213 9.497 215.842 7"/>
    <path fill="#FCEC26" d="M179 26.707L177.446 33 174 32.289 175.554 26l3.446.707M384.702 282l.828 4.578-2.236.422-.824-4.578 2.232-.422"/>
    <path fill="#7D2A79" d="M260.948 8.29L264 10.186l-.944 1.524L260 9.818l.948-1.528"/>
    <path fill="#82BA41" d="M182 290.314l7.846-.288.154 3.66-7.846.288-.154-3.66"/>
    <path fill="#7D2A79" d="M53.096 37l-1.024-6.425L54.904 30l1.024 6.42-2.832.58"/>
    <path fill="#31A0CE" d="M407 43.813L409.246 38 412 39.187 409.758 45 407 43.813"/>
    <path fill="#FCEC26" d="M448.513 19L446 12.222 449.487 11 452 17.778 448.513 19M8.82 20L4 17.523 5.184 15 10 17.477 8.82 20"/>
    <path fill="#D3242D" d="M351.95 92l1.924 3.958L352.05 97l-1.924-3.954L351.95 92"/>
    <path fill="#987AA9" d="M251.636 37.779L250.252 42l-1.888-.77 1.384-4.23 1.888.779"/>
    <path fill="#D3242D" d="M240.774 22.028l-3.66-.224.112-1.832 3.66.228-.112 1.828M503.363 35l7.637.808-.368 4.192-7.632-.803.363-4.197"/>
    <path fill="#987AA9" d="M287.86 175l7.14 3.566-1.851 3.434-7.149-3.566 1.86-3.434"/>
    <path fill="#D3242D" d="M9.396 139L3 135.992 4.609 133 11 136.004 9.396 139"/>
    <path fill="#FCEC26" d="M295.23 34.908l3.704.332-.164 1.852-3.704-.332.164-1.852"/>
    <path fill="#D4167C" d="M44.809 43L52 44.552 51.196 48 44 46.452 44.809 43M402 53.057L408.354 50 410 52.943 403.65 56 402 53.057"/>
    <path fill="#82BA41" d="M246.29 1.056l-3.29 2 1.575 1.888L249 2.256l-1.003-1.2h-1.706"/>
    <path fill="#FCEC26" d="M28 3.888l4.094-1.796L33 4.116l-4.09 1.792-.91-2.02M68.038 93l-.832-5.579L69.962 87l.832 5.579-2.756.421"/>
    <path fill="#7D2A79" d="M48.812 106.56l-2.548 2.152-1.076-1.276 2.552-2.148 1.072 1.272"/>
    <path fill="#82BA41" d="M101.148 1L101 2.592l4.815.408.185-2h-4.852"/>
    <path fill="#987AA9" d="M515.613 141L511 136.282l2.387-2.282 4.613 4.718-2.387 2.282"/>
    <path fill="#D4167C" d="M385.38 245l3.62 3.015-1.376 1.985-3.624-3.02 1.38-1.98"/>
    <path fill="#987AA9" d="M183.319 355l1.681 6.215-3.314.785-1.686-6.21 3.319-.79"/>
    <path fill="#D3242D" d="M356 35.485L355.068 44 351 43.515l.932-8.515 4.068.485"/>
    <path fill="#82BA41" d="M136.573 73L140 76.237 138.427 78 135 74.763 136.573 73"/>
    <path fill="#31A0CE" d="M390.819 1L390 3.537 396.836 6 398 2.393 394.142 1h-3.323"/>
    <path fill="#D3242D" d="M78.234 140L82 146.2l-3.238 1.8L75 141.8l3.234-1.8"/>
    <path fill="#987AA9" d="M472.066.662l-1.066.9 1.81 1.776L476 .662h-3.934"/>
    <path fill="#7D2A79" d="M254.345 34.7l3.655.716-.345 1.884-3.655-.716.345-1.884M330.088 63.592l2.588-2.476 1.236 1.292-2.584 2.476-1.24-1.292"/>
    <path fill="#D3242D" d="M376.914 5.404l-.188 3.284-1.64-.096.188-3.28 1.64.092"/>
    <path fill="#D4167C" d="M343 51.934l6.557-.8.443 2.932-6.553.8-.447-2.932"/>
    <path fill="#31A0CE" d="M472 58.605L463.148 61 462 56.395 470.852 54 472 58.605"/>
    <path fill="#D4167C" d="M74.542 1.116l.588 1.768 2.328-.772-.328-.996h-2.588"/>
    <path fill="#FCEC26" d="M.332 18l1.336-.182L.916 11l-.584.08V18"/>
    <path fill="#D3242D" d="M364 7.972L356.908 10 356 6.028 363.096 4 364 7.972"/>
    <path fill="#FCEC26" d="M21.208 56L18 51.858 19.788 50 23 54.147 21.208 56"/>
    <path fill="#31A0CE" d="M1.156 148h1.688v-5H1.156zM22 296.484L18.857 300 17 298.512 20.143 295 22 296.484"/>
    <path fill="#D3242D" d="M81.47 32.35L82.806 29l1.724.65L83.194 33l-1.724-.65"/>
    <path fill="#FCEC26" d="M501.722 66.058L501.618 73l-3.34-.054.104-6.946 3.34.058"/>
    <path fill="#31A0CE" d="M254.52 127l4.48 2.877-1.52 2.123-4.48-2.877 1.52-2.123"/>
    <path fill="#987AA9" d="M101.186 57L103 63.13l-3.186.87L98 57.87l3.186-.87"/>
    <path fill="#D4167C" d="M202.27 110.032l-.064 4.968-2.476-.036.064-4.964 2.476.032"/>
    <path fill="#7D2A79" d="M243.167 92.444l5.833.32-.167 2.792-5.833-.32.167-2.792"/>
    <path fill="#FCEC26" d="M361.393 81L358 77.73l1.602-1.73L363 79.27 361.393 81"/>
    <path fill="#987AA9" d="M150.796 1.11l-.796.74 3.348 3.04L155 3.35l-2.47-2.24h-1.734"/>
    <path fill="#D4167C" d="M217.28 49.508l5.72.488-.275 2.496-5.725-.484.28-2.5"/>
    <path fill="#82BA41" d="M89.33 235.036l7.67.576-.33 3.352-7.67-.576.33-3.352"/>
    <path fill="#31A0CE" d="M463.782 28.67l-.984-2.848 1.42-.492.984 2.848-1.42.492"/>
    <path fill="#D3242D" d="M476 15.218L471.792 19 470 16.782 474.208 13 476 15.218"/>
    <path fill="#82BA41" d="M110.31 6l3.69 6.254L110.69 14 107 7.746 110.31 6"/>
    <path fill="#D3242D" d="M302.076 159.184l3.732-.236.116 1.868-3.728.236-.12-1.868"/>
    <path fill="#D4167C" d="M271 12.821L264.663 14 264 11.179 270.332 10l.668 2.821"/>
    <path fill="#FCEC26" d="M443.103 29L438 27.346l.897-2.346L444 26.65l-.897 2.35"/>
    <path fill="#31A0CE" d="M111.297 171l7.703 2.413-1.297 3.587-7.703-2.413 1.297-3.587"/>
    <path fill="#FCEC26" d="M282 27.523L277.186 30 276 27.472 280.819 25 282 27.523"/>
    <path fill="#7D2A79" d="M270 18.1l-4.422 4.9L263 20.896 267.422 16 270 18.1"/>
    <path fill="#FCEC26" d="M498.53 49.112L498.318 55l-2.848-.112.212-5.888 2.848.112"/>
    <path fill="#D4167C" d="M405.85 37.534l-2.588 2.224-1.112-1.292 2.588-2.224 1.112 1.292M324.49 21l2.51 4.793L324.51 27 322 22.207 324.49 21"/>
    <path fill="#D3242D" d="M141.403 194.892L136 193.736l.593-2.628 5.407 1.156-.597 2.628"/>
    <path fill="#82BA41" d="M497 83.59l4.43-5.59 2.57 2.41-4.435 5.59L497 83.59"/>
    <path fill="#31A0CE" d="M371.062 18L369 12.049 371.934 11 374 16.951 371.062 18M194 245.865l3.828-4.865 2.172 2.14-3.824 4.86-2.176-2.135"/>
    <path fill="#FCEC26" d="M10.798 1.182l-.068 1.52 2.464.116.076-1.636h-2.472"/>
    <path fill="#82BA41" d="M105.7 26l2.3 4.944L105.304 32 103 27.056 105.7 26"/>
    <path fill="#7D2A79" d="M243 117.35l3.059-6.35 2.941 1.655-3.059 6.345-2.941-1.65"/>
    <path fill="#FCEC26" d="M190.614 20.534l.804-4.534 1.968.466-.808 4.534-1.964-.466"/>
    <path fill="#7D2A79" d="M64 232.98l3.759-6.98L71 228.02 67.241 235 64 232.98M222.024 14L225 17.653 222.976 19 220 15.343 222.024 14"/>
    <path fill="#D3242D" d="M477 21.158L472.483 24 471 21.846 475.517 19 477 21.158"/>
    <path fill="#31A0CE" d="M11 23.77L5.933 28 4 25.226 9.071 21 11 23.77"/>
    <path fill="#FCEC26" d="M103 4.544L110.194 3 111 6.452 103.806 8 103 4.544"/>
    <path fill="#7D2A79" d="M240 56.261L232.943 58 232 54.739 239.057 53l.943 3.261M144.435 175l5.565 2.543-1.44 2.457-5.56-2.54 1.435-2.46"/>
    <path fill="#82BA41" d="M175 134.544L170.105 141 167 138.451l4.9-6.451 3.1 2.544"/>
    <path fill="#31A0CE" d="M126 20.328l5.346-1.276.654 2.62-5.346 1.276-.654-2.62"/>
    <path fill="#82BA41" d="M298.7 109.208l1.912 2.628-1.312.956-1.912-2.632 1.312-.952"/>
    <path fill="#FCEC26" d="M212.05 24.854l4.95.088-.05 2.204-4.95-.084.05-2.208"/>
    <path fill="#7D2A79" d="M495.444 64.466L496.452 60l2.104.538L497.548 65l-2.104-.534M262 98.39l-4.353 3.61L256 99.61l4.353-3.61L262 98.39M293.138 35l1.624 4.12-1.9.88-1.624-4.115 1.9-.885"/>
    <path fill="#987AA9" d="M312.704 72L317 75.063 315.3 77l-4.3-3.067L312.704 72"/>
    <path fill="#D3242D" d="M408 150.984L402.014 153 401 150.011l5.986-2.011 1.014 2.984"/>
    <path fill="#D4167C" d="M443 89.3l-6.202 1.7-.798-3.3 6.198-1.7.802 3.3"/>
    <path fill="#987AA9" d="M203.562 135.767l.468-4.767 2.408.233-.464 4.767-2.412-.233"/>
    <path fill="#D3242D" d="M19.816 251L17 246.465 19.18 245l2.82 4.535L19.816 251"/>
    <path fill="#31A0CE" d="M16.325 23L22 25.417 20.67 28 15 25.583 16.325 23"/>
    <path fill="#D3242D" d="M378.734 48l-1.652-5.048 2.184-.952 1.652 5.044-2.184.956M59 51.21l-6.73.468L52 48.79l6.73-.468.27 2.888"/>
    <path fill="#7D2A79" d="M391.571 27L385 26.165l.437-3.165 6.563.835-.429 3.165"/>
    <path fill="#987AA9" d="M36 9.9L39.715 7 41 9.1 37.285 12 36 9.9"/>
    <path fill="#D4167C" d="M15.646 94l.58 3.706-1.868.294-.584-3.71 1.872-.29"/>
    <path fill="#7D2A79" d="M325.158.596l1.068.808.616-.808h-1.684"/>
    <path fill="#D4167C" d="M351 34.96l8.026-1.96.974 4.04-8.026 1.96-.974-4.04"/>
    <path fill="#82BA41" d="M36.688 239.972l-2.676-2.608 1.304-1.336 2.672 2.608-1.3 1.336"/>
    <path fill="#D4167C" d="M348.838 131.118l4.162 1.68-.838 2.084-4.162-1.68.838-2.084"/>
    <path fill="#31A0CE" d="M265.084 10l1.76 4.074-1.928.926-1.76-4.07 1.928-.93"/>
    <path fill="#7D2A79" d="M423 7.59L419.741 11 418 9.405 421.254 6 423 7.59M497.007 38L504 40.198 502.988 44 496 41.806 497.007 38"/>
    <path fill="#82BA41" d="M139 37.16L134.515 42 132 39.84l4.485-4.84L139 37.16"/>
    <path fill="#D3242D" d="M256.922 87.805L255.454 93l-2.376-.8 1.468-5.2 2.376.805"/>
    <path fill="#7D2A79" d="M243.034 8L249 12.036 246.966 15 241 10.964 243.034 8"/>
    <path fill="#31A0CE" d="M497 19.955L494.89 27l-3.89-.955L493.11 19l3.89.955M129 32.115L124.886 36 123 33.885 127.11 30l1.89 2.115"/>
    <path fill="#987AA9" d="M138.346 262L135 256.674l2.654-1.674 3.346 5.321-2.654 1.679"/>
    <path fill="#82BA41" d="M522.5 39.726l-.488-.096-.512 2.536 1 .204v-2.644"/>
    <path fill="#987AA9" d="M386.27 31.77l4.73.464-.27 1.996-4.73-.468.27-1.992"/>
    <path fill="#FCEC26" d="M8 111.01L3.196 113 2 110.994 6.804 109 8 111.01"/>
    <path fill="#82BA41" d="M492 12.244l5.455-1.008.545 2.524-5.455 1.004-.545-2.52"/>
    <path fill="#7D2A79" d="M143 19.68L139.653 23 138 21.32l3.347-3.32L143 19.68M300 38.735L302.577 32 306 33.26 303.427 40 300 38.735"/>
    <path fill="#987AA9" d="M130.023 161.794L126 160.026l.977-1.82L131 159.97l-.977 1.824M250 175.359L245.671 179 244 176.637l4.333-3.637 1.667 2.359"/>
    <path fill="#D4167C" d="M147.698 31L151 34.365 149.298 36 146 32.631 147.698 31M487.472 332.882L482 331.83l.532-2.712 5.468 1.048-.528 2.716"/>
    <path fill="#82BA41" d="M369.145 138l4.855 2.43-1.145 2.57-4.855-2.425 1.145-2.575M427.594 8.524L428.426 4l1.98.476L429.574 9l-1.98-.476"/>
    <path fill="#D4167C" d="M472.009.738L472 .826l4.942.436.058-.524h-4.991"/>
    <path fill="#31A0CE" d="M80 276.01l3.627-3.01L85 274.986 81.377 278 80 276.01M408.458 33.026l3.244.324-.16 1.624-3.244-.324.16-1.624"/>
    <path fill="#D3242D" d="M374 107.846l2.443-4.846 2.557 1.154-2.439 4.846-2.561-1.154"/>
    <path fill="#FCEC26" d="M401 60.928l4.069-1.604.931 1.748-4.069 1.604-.931-1.748"/>
    <path fill="#31A0CE" d="M384.27 39l6.73 2.582L389.73 45 383 42.414 384.27 39M267.734 39l2.096 3.743L268.27 44l-2.1-3.748L267.734 39"/>
    <path fill="#D4167C" d="M423.082.802l1.748.396.088-.396h-1.836"/>
    <path fill="#FCEC26" d="M203.514 44.362l-.72 4.638-2.308-.358.716-4.642 2.312.362"/>
    <path fill="#7D2A79" d="M169.347 109L164 104.343l2.653-2.343 5.347 4.653-2.653 2.347"/>
    <path fill="#D3242D" d="M374.128 33.244l-.4 3.712-1.856-.2.4-3.712 1.856.2"/>
    <path fill="#FCEC26" d="M321 12.623L314.817 14 314 11.381 320.192 10l.808 2.623"/>
    <path fill="#D3242D" d="M453.935 99L448 96.91l1.07-2.91 5.93 2.09-1.065 2.91M146.754 70L142 67.438 143.246 65 148 67.562 146.754 70"/>
    <path fill="#FCEC26" d="M271.126 94L268 89.767 269.87 88l3.13 4.233L271.126 94"/>
    <path fill="#987AA9" d="M134.973 94.682L131 92.974l1.022-1.656L136 93.022l-1.027 1.66"/>
    <path fill="#7D2A79" d="M181.796 158l.336 3.833-1.928.167-.336-3.833 1.928-.167M26 61.812l-4.662.668L21 60.188l4.658-.668.342 2.292M126.484 51l.88 3.571-1.848.429-.88-3.575 1.848-.425"/>
    <path fill="#FCEC26" d="M344.285 105L340 101.923l1.715-1.923 4.285 3.08-1.715 1.92"/>
    <path fill="#987AA9" d="M490.636 34.274L495 35.546l-.636 2.18L490 36.454l.636-2.18"/>
    <path fill="#FCEC26" d="M344.352 1l-.908 3.456L345.5 5l1.056-4h-2.204"/>
    <path fill="#D4167C" d="M408.591 7.958L405 5.566l1.409-1.524L410 6.43l-1.409 1.528"/>
    <path fill="#31A0CE" d="M444.654 30.214l-3.62-.62.308-1.808 3.624.62-.312 1.808"/>
    <path fill="#7D2A79" d="M492.945 56L487 49.945 490.055 47 496 53.055 492.945 56"/>
    <path fill="#D3242D" d="M295.988 29.868l-1.476-3 1.5-.736 1.476 3-1.5.736"/>
    <path fill="#82BA41" d="M116.11 138l2.89 3.727-2.114 1.273-2.886-3.727 2.11-1.273"/>
    <path fill="#D4167C" d="M214.671 23L218 26.34 216.329 28 213 24.66l1.671-1.66"/>
    <path fill="#82BA41" d="M495.294 133.992l-.464-3.752 1.88-.232.46 3.756-1.876.228"/>
    <path fill="#D3242D" d="M238.826 103l6.174 1.743-.826 3.257-6.174-1.743.826-3.257"/>
    <path fill="#31A0CE" d="M258.049 61L252 59.066l.956-3.066L259 57.934 258.049 61"/>
    <path fill="#82BA41" d="M421 358.864l2.188-5.864 2.812 1.136-2.188 5.864-2.812-1.136"/>
    <path fill="#D3242D" d="M100 129.403L95.28 132 94 129.601 98.72 127l1.28 2.403"/>
    <path fill="#7D2A79" d="M23.316 25l1.54 5.095-2.172.905-1.54-5.095L23.316 25M29.44 54L28 46.735 31.556 46 33 53.265 29.44 54"/>
    <path fill="#987AA9" d="M66 26.94L58.501 28 58 24.055 65.499 23 66 26.94"/>
    <path fill="#FCEC26" d="M487.197 7.67l4.803.372-.193 2.288L487 9.958l.197-2.288"/>
    <path fill="#987AA9" d="M264 1l3.683 5L270 3.904 267.86 1H264"/>
    <path fill="#7D2A79" d="M325 54.31l5.764-2.31L332 54.69 326.24 57 325 54.31"/>
    <path fill="#31A0CE" d="M156.305 19L160 21.932 158.695 24 155 21.068 156.305 19"/>
    <path fill="#82BA41" d="M475.476 62L470 54.798 473.524 52 479 59.202 475.476 62"/>
    <path fill="#FCEC26" d="M320.766 116l5.234 5.434-2.766 2.566-5.234-5.43 2.766-2.57"/>
    <path fill="#D3242D" d="M466 88.45l3.185-7.45L473 82.554 469.819 90 466 88.45"/>
    <path fill="#82BA41" d="M460.034 53.31l2.896-2.068 1.036 1.448-2.896 2.068-1.036-1.448"/>
    <path fill="#FCEC26" d="M367.15 56.934l-.188-3.772 1.884-.096.192 3.772-1.888.096"/>
    <path fill="#82BA41" d="M130 25.944l6.548-.812.452 2.928-6.548.808-.452-2.924"/>
    <path fill="#7D2A79" d="M39.483.762L37 1.466l.491 1.772L41 2.242l-.412-1.48h-1.105M40.453 20L39 12.741 42.547 12 44 19.259 40.453 20"/>
    <path fill="#987AA9" d="M251.57 52L247 47.238 249.43 45l4.57 4.762L251.57 52"/>
    <path fill="#D4167C" d="M158.932 61.736L157.54 67l-2.472-.736L156.456 61l2.476.736"/>
    <path fill="#82BA41" d="M318.225 126l4.775 2.527-1.225 2.473-4.775-2.527 1.225-2.473"/>
    <path fill="#7D2A79" d="M455.668 21l-1.28-4.29 1.944-.71 1.28 4.29-1.944.71"/>
    <path fill="#82BA41" d="M76 34.07L82.34 31 84 33.93 77.665 37 76 34.07"/>
    <path fill="#D4167C" d="M378.59 1L373 2.763 374.15 6 381 3.833 379.998 1h-1.409"/>
    <path fill="#987AA9" d="M434 33.371L438.895 31 440 33.629 435.105 36 434 33.371"/>
    <path fill="#D3242D" d="M339 219.948l4.049-1.852.951 1.956-4.04 1.852-.96-1.956"/>
    <path fill="#D4167C" d="M101 12.435L93.816 14 93 10.565 100.184 9l.816 3.435"/>
    <path fill="#D3242D" d="M369.736 84L372 90.95 368.264 92 366 85.054 369.736 84"/>
    <path fill="#FCEC26" d="M205.274 37.26l6.726.488-.279 2.992-6.721-.488.274-2.992"/>
    <path fill="#D4167C" d="M347.31 157.894l-.408-3.58 1.788-.208.408 3.584-1.788.204M37.002 316l-1.732-4 1.732-1 1.728 3.996L37.002 316"/>
    <path fill="#987AA9" d="M475.773 262l5.227 3.45-1.773 2.55-5.227-3.455 1.773-2.545"/>
    <path fill="#FCEC26" d="M204.342 284l6.658 2.678-1.338 3.322-6.662-2.678 1.342-3.322"/>
    <path fill="#31A0CE" d="M88.278 110.716L84 109.336l.722-2.052L89 108.668l-.722 2.048M369.445 232L366 227.516l2.555-1.516 3.445 4.489-2.555 1.511"/>
    <path fill="#987AA9" d="M391 68.724l-5.478.9-.522-2.352 5.478-.896.522 2.348"/>
    <path fill="#31A0CE" d="M321.131 57.638l4.869.268-.131 2.456-4.869-.268.131-2.456"/>
    <path fill="#D3242D" d="M352 8.02L349.969 14 347 12.976 349.031 7 352 8.02M16.738 72.45L11 72.002l.262-2.452 5.738.452-.262 2.448"/>
    <path fill="#987AA9" d="M243 237.552l-5.305 1.2-.695-2.304 5.314-1.2.686 2.304"/>
    <path fill="#31A0CE" d="M163 117.676l5.101-1.584.899 2.236-5.097 1.58-.903-2.232"/>
    <path fill="#82BA41" d="M175 182.798l6.547-4.798 2.453 3.202-6.547 4.798-2.453-3.202M421 60.252l-5.817.36-.183-2.86 5.817-.364.183 2.864"/>
    <path fill="#FCEC26" d="M221.862 40.954L220.054 45l-1.916-.954L219.946 40l1.916.954"/>
    <path fill="#82BA41" d="M16.505 221L19 224.538 17.495 226 15 222.467 16.505 221"/>
    <path fill="#7D2A79" d="M449 278.941l2.086-5.941 2.914 1.063-2.086 5.937-2.914-1.059"/>
    <path fill="#D3242D" d="M71.618 11.595L70.482 16l-2.1-.6 1.14-4.4 2.096.595"/>
    <path fill="#31A0CE" d="M18.028 121.374l2.856 1.824-.912 1.428-2.856-1.824.912-1.428M393.644 189l6.356 3.553-1.635 3.447-6.365-3.553 1.644-3.447"/>
    <path fill="#7D2A79" d="M13.772 36L10 33.738 11.228 32 15 34.262 13.772 36"/>
    <path fill="#D3242D" d="M196.696 57.57L191 57.018l.304-2.588 5.696.548-.304 2.592"/>
    <path fill="#7D2A79" d="M150.424 13l-1.376-5.281L151.576 7l1.376 5.281-2.528.719"/>
    <path fill="#FCEC26" d="M256 162.027l4.333-3.027 1.667 1.973-4.338 3.027-1.662-1.973"/>
    <path fill="#D3242D" d="M179.427 135l5.573 5.08-2.427 2.92-5.573-5.08 2.427-2.92"/>
    <path fill="#D4167C" d="M308.27 53L303 49.596 304.725 47 310 50.408 308.27 53"/>
    <path fill="#7D2A79" d="M466.758 222l2.2 3.789-1.716 1.211-2.2-3.784 1.716-1.216"/>
    <path fill="#31A0CE" d="M372 71.43l3.234-3.43L377 69.575 373.762 73 372 71.43"/>
    <path fill="#D3242D" d="M265 27.685L267.652 25 269 26.315 266.356 29 265 27.685"/>
    <path fill="#FCEC26" d="M47.67 171.018l2.112 2.908-1.452 1.056-2.112-2.908 1.452-1.056"/>
    <path fill="#D4167C" d="M320 62.934l3.252-1.492.748 1.624-3.256 1.492-.744-1.624"/>
    <path fill="#7D2A79" d="M494.628 158.132l2.088 2.692-1.344 1.044-2.088-2.692 1.344-1.044M505.188 95.668L501 94.208l.817-1.876 4.183 1.46-.813 1.876"/>
    <path fill="#82BA41" d="M480.72 48.79l-.984-3.088 1.54-.492.988 3.088-1.544.492"/>
    <path fill="#D3242D" d="M185.542 63.362L190 64.434l-.542 2.204L185 65.566l.542-2.204"/>
    <path fill="#FCEC26" d="M231.727 45L237 46.423 236.273 49 231 47.577l.727-2.577"/>
    <path fill="#D4167C" d="M510.343 106l6.657 2.674-1.339 3.326-6.661-2.678 1.343-3.322"/>
    <path fill="#987AA9" d="M480.92 18L477 11.929 480.08 10l3.92 6.071L480.92 18"/>
    <path fill="#7D2A79" d="M308 8.472L314.808 6 316 9.524 309.192 12 308 8.472"/>
    <path fill="#FCEC26" d="M362 48.526L358.815 52 357 50.474 360.19 47l1.81 1.526"/>
    <path fill="#31A0CE" d="M147 13.248l-5.845.292-.155-2.784 5.845-.296.155 2.788"/>
    <path fill="#7D2A79" d="M489.45 52L485 46.43l2.553-2.43L492 49.57 489.45 52"/>
    <path fill="#D3242D" d="M434.9 3.112l-3.9-.204.097-2.02 3.903.208-.1 2.016"/>
    <path fill="#82BA41" d="M442 143.026l2.186-5.026 2.814.978-2.181 5.022-2.819-.974"/>
    <path fill="#987AA9" d="M155.807 50L150 45.79l2.193-2.79L158 47.21 155.807 50"/>
    <path fill="#31A0CE" d="M414.416 56l-.976-4.49 2.148-.51.972 4.49-2.144.51"/>
    <path fill="#82BA41" d="M408.174 117l-1.908-3.062 1.564-.938 1.904 3.066-1.56.934"/>
    <path fill="#987AA9" d="M369.52 5.078l.704 3.492-1.748.352-.7-3.492 1.744-.352"/>
    <path fill="#FCEC26" d="M426.45 36.936l-.668-3.54 1.768-.332.668 3.54-1.768.332"/>
    <path fill="#31A0CE" d="M295 46.924L290.83 54 287 52.076 291.17 45l3.83 1.924"/>
    <path fill="#987AA9" d="M299.663 15L296 9.973 298.333 8 302 13.027 299.663 15M307.924 315l5.076 5.58-2.924 2.42-5.076-5.58 2.924-2.42"/>
    <path fill="#31A0CE" d="M396.966 24.489L394.498 28l-1.464-1.484L395.506 23l1.46 1.489M418.576 5.856L412 5.084l.429-2.94 6.571.768-.424 2.944"/>
    <path fill="#82BA41" d="M41 141.25l5.467-.964.533 2.464-5.463.964L41 141.25M226.328 27.26l.868 3.044-1.52.436-.872-3.044 1.524-.436"/>
    <path fill="#987AA9" d="M465.926 189l-.536-5.715 2.688-.285.532 5.72-2.684.28"/>
    <path fill="#7D2A79" d="M431.754 52l.56 4.688-2.068.312-.56-4.683 2.068-.317"/>
    <path fill="#82BA41" d="M503 49.997L498.64 53 497 51.003 501.36 48l1.64 1.997"/>
    <path fill="#FCEC26" d="M43.012 52.2L46 54.272 44.988 55.8 42 53.728l1.012-1.528"/>
    <path fill="#987AA9" d="M340.806 56.326L336 55.954l.198-2.28 4.802.368-.194 2.284M269.71 125l-4.71-4.624 2.29-2.376 4.71 4.624-2.29 2.376"/>
    <path fill="#D4167C" d="M452 3.158L448.155 8 446 5.842 449.841 1 452 3.158"/>
    <path fill="#FCEC26" d="M221.908 92L218 89.892 219.092 88 223 90.112 221.908 92"/>
    <path fill="#D4167C" d="M280.248 122.139l-.256 4.861-2.24-.139.26-4.861 2.236.139"/>
    <path fill="#82BA41" d="M131.39 10.592L132.114 5l2.496.404-.724 5.596-2.496-.408"/>
    <path fill="#31A0CE" d="M358.845 14.364L362 16.052l-.845 1.584L358 15.944l.845-1.58"/>
    <path fill="#FCEC26" d="M174 201.462l5.282-1.268.718 2.34-5.287 1.272-.713-2.344"/>
    <path fill="#31A0CE" d="M234.321 36.526L230 35.346l.679-1.872 4.321 1.18-.679 1.872"/>
    <path fill="#7D2A79" d="M77.716 95.954l-2.708-2.556 1.276-1.352 2.708 2.552-1.276 1.356"/>
    <path fill="#FCEC26" d="M61.784 16L58 13.754 59.212 12 63 14.246 61.784 16M284.904 20L278 17.672 279.092 14 286 16.328 284.904 20"/>
    <path fill="#82BA41" d="M81 191.19l-4.976 1.724-1.024-2.1 4.976-1.728L81 191.19"/>
    <path fill="#FCEC26" d="M390 144.292l-3.428 1.156-.572-1.74 3.432-1.156.568 1.74M284 222.409l5.268-3.409 1.732 2.587-5.263 3.413-1.737-2.591"/>
    <path fill="#987AA9" d="M343.95 48.946l-3.95-2 1.045-1.892 3.955 2-1.05 1.892M151.968 1.07l-.836.084.18 1.776 3.556-.36-.152-1.5h-2.748"/>
    <path fill="#82BA41" d="M520 166.707L518.45 173l-3.45-.711 1.55-6.289 3.45.707M202.972 31.879L201.368 37l-2.34-.879L200.632 31l2.34.879"/>
    <path fill="#31A0CE" d="M364.944 18L360 15.692 361.064 13 366 15.312 364.944 18"/>
    <path fill="#987AA9" d="M519.988 231.82l-3.044 1.876-.932-1.524 3.04-1.868.936 1.516M319.033 40L323 46.031 319.963 48 316 41.969 319.033 40"/>
    <path fill="#7D2A79" d="M59.972 257l-.668-5.651 2.724-.349.668 5.655-2.724.345"/>
    <path fill="#D4167C" d="M57 131.598L51.725 135 50 132.402 55.275 129 57 131.598M166 27.98L159.161 30 158 27.02l6.843-2.02L166 27.98"/>
    <path fill="#987AA9" d="M436 15.514L430.821 21 428 18.486 433.179 13 436 15.514"/>
    <path fill="#D3242D" d="M324 181.464l-4.444.924-.556-1.852 4.449-.924.551 1.852"/>
    <path fill="#7D2A79" d="M310.004 274.25l-.2 3.604-1.808-.096.2-3.612 1.808.104"/>
    <path fill="#82BA41" d="M422 132.28l-6-.004.005-2.556 5.995.004v2.556"/>
    <path fill="#D4167C" d="M164 52.008L162.214 57 160 55.988 161.786 51 164 52.008"/>
    <path fill="#7D2A79" d="M229.853 130l3.147 4.212-1.853 1.788-3.147-4.212 1.853-1.788"/>
    <path fill="#82BA41" d="M319 9.533L321.823 5 324 6.467 321.181 11 319 9.533"/>
    <path fill="#FCEC26" d="M408.75 28.843l.28-4.843 2.22.153-.28 4.847-2.22-.157"/>
    <path fill="#D3242D" d="M3.636 35.08L0 37.276v.224l1.24 1.42L5 36.648 3.636 35.08"/>
    <path fill="#82BA41" d="M71 157.454L78.26 156l.74 3.55-7.26 1.45-.74-3.546M255.138 183.056l3.736.016-.008 1.872-3.74-.02.012-1.868"/>
    <path fill="#FCEC26" d="M108.882 114l2.118 3.9-1.878 1.1-2.122-3.9 1.882-1.1"/>
    <path fill="#987AA9" d="M346.28 28l5.72 4.3-2.276 2.7L344 30.7l2.28-2.7"/>
    <path fill="#7D2A79" d="M297.196 235.33l-2.98-1.172.588-1.488 2.98 1.172-.588 1.488"/>
    <path fill="#D4167C" d="M43 225.948L49.445 223 51 226.044 44.56 229 43 225.948"/>
    <path fill="#987AA9" d="M206.165 23L201 19.477 202.835 17 208 20.518 206.165 23"/>
    <path fill="#82BA41" d="M231 .806l.048 2.388L239 3.062l-.048-2.256H231"/>
    <path fill="#7D2A79" d="M378.704 128.042l-.088 6.958-3.32-.046.088-6.954 3.32.042"/>
    <path fill="#D4167C" d="M135.392 1L134 4.752 141.497 8 143 3.947 136.196 1h-.804"/>
    <path fill="#31A0CE" d="M273.014 243.684l5.986.028-.014 2.604-5.986-.024.014-2.608"/>
    <path fill="#987AA9" d="M331.375 31L336 33.718 334.62 36 330 33.282 331.375 31"/>
    <path fill="#D3242D" d="M309.364 117.523L310.2 112l2.436.477-.84 5.523-2.432-.477"/>
    <path fill="#31A0CE" d="M154.96 18.976l.052-3.976 2.028.027-.056 3.973-2.024-.024"/>
    <path fill="#D3242D" d="M349.18 69.884L345 68.228l.82-2.112 4.18 1.652-.82 2.116"/>
    <path fill="#FCEC26" d="M441.558 6l1.192 5.314-2.316.686-1.184-5.319L441.558 6"/>
    <path fill="#7D2A79" d="M362.25 248l5.75 4.274-2.25 2.726-5.75-4.27 2.25-2.73"/>
    <path fill="#987AA9" d="M34.64 114l-1.484-5.134L35.36 108l1.484 5.138-2.204.862"/>
    <path fill="#31A0CE" d="M128 1.076l2.07 3.848L133 3.708l-1.415-2.632H128"/>
    <path fill="#987AA9" d="M325.87 51.312l4.13 1.544-.865 1.832L325 53.144l.87-1.832"/>
    <path fill="#D3242D" d="M232 164.447l2.912-4.447 2.088 1.553-2.912 4.447-2.088-1.553"/>
    <path fill="#FCEC26" d="M430 238.91l4.868-.26.132 2.436-4.868.264-.132-2.44"/>
    <path fill="#987AA9" d="M404.257 75.674L400 74.298l.743-1.972L405 73.698l-.743 1.976"/>
    <path fill="#D3242D" d="M411.972 1.548l-.28 2.664 2.316.24.3-2.904h-2.336"/>
    <path fill="#D4167C" d="M441.124 129.806l-.044-3.592 1.796-.02.044 3.592-1.796.02"/>
    <path fill="#987AA9" d="M264.73 151l-.084-5.955 2.62-.045.088 5.95-2.624.05"/>
    <path fill="#D3242D" d="M46.72 126L39 123.605 40.28 120l7.72 2.395L46.72 126"/>
    <path fill="#7D2A79" d="M444.002 62.046l3.964-.072.032 1.984-3.964.068-.032-1.98"/>
    <path fill="#82BA41" d="M120.78 325l3.22 6.205-2.776 1.795-3.224-6.205 2.78-1.795"/>
    <path fill="#D3242D" d="M450.103 43L443 39.39l1.892-3.39L452 39.614 450.103 43"/>
    <path fill="#D4167C" d="M362.708 194.317l-.62 5.683-2.796-.317.62-5.683 2.796.317"/>
    <path fill="#82BA41" d="M32.278 140.697l.524-6.697 2.92.298-.528 6.702-2.916-.303"/>
    <path fill="#987AA9" d="M405.873 137L399 132.578l2.122-3.578 6.878 4.422-2.127 3.578"/>
    <path fill="#31A0CE" d="M387 7.248L382.423 12 380 9.752 384.581 5 387 7.248"/>
    <path fill="#D4167C" d="M245.64 53l1.136 5.368-2.416.632-1.136-5.368L245.64 53"/>
    <path fill="#31A0CE" d="M463 11.488L465.896 5 469 6.512 466.1 13l-3.1-1.512"/>
    <path fill="#D3242D" d="M189 33.66l5.103-1.576.897 2.252-5.108 1.58L189 33.66"/>
    <path fill="#D4167C" d="M319 52.76L315.571 56 314 54.24l3.424-3.24L319 52.76"/>
    <path fill="#987AA9" d="M454.132 55l-1.984-3.887L453.872 50l1.98 3.883-1.72 1.117M76 64.884l-5.54.884-.46-2.652 5.54-.884.46 2.652"/>
    <path fill="#31A0CE" d="M304 180.686L302.632 188l-3.632-.686 1.368-7.314 3.632.686"/>
    <path fill="#7D2A79" d="M138 52.884l7.593-.884.407 4.12-7.593.88-.407-4.116"/>
    <path fill="#987AA9" d="M135 130.301L128.36 133l-1.36-3.301 6.64-2.699 1.36 3.301"/>
    <path fill="#FCEC26" d="M506.378 15L510 17.413 508.622 19 505 16.583 506.378 15M139.506 56l1.096 4.424-2.108.576-1.096-4.424 2.108-.576"/>
    <path fill="#31A0CE" d="M129.414 48L125 44.464 126.586 42 131 45.536 129.414 48"/>
    <path fill="#82BA41" d="M203.598 7.282L208 8.49l-.602 2.228L203 9.506l.598-2.224"/>
    <path fill="#D4167C" d="M254.09 1.384l-.464 2.876 2.228.356.52-3.232h-2.284"/>
    <path fill="#FCEC26" d="M262.21 84L261 76.593l3.79-.593 1.21 7.407-3.79.593"/>
    <path fill="#31A0CE" d="M102.08 92L98 88.087 99.92 86l4.08 3.917L102.08 92"/>
    <path fill="#FCEC26" d="M120.274 50.982l1.972-2.952 1.48.984-1.976 2.956-1.476-.988"/>
    <path fill="#7D2A79" d="M332.58 159.422l4.42 1.088-.585 2.068-4.415-1.084.58-2.072"/>
    <path fill="#987AA9" d="M144.874 118L142 114.265l2.126-1.265 2.874 3.74-2.126 1.26"/>
    <path fill="#7D2A79" d="M426.208 26L429 31.747 425.792 33 423 27.253 426.208 26"/>
    <path fill="#987AA9" d="M396.52 3.21l5.48.988-.524 2.592L396 5.806l.52-2.596"/>
    <path fill="#7D2A79" d="M304.088.544l.988.912.836-.912h-1.824"/>
    <path fill="#987AA9" d="M457.836 1L457 2.407 461.658 5 463 2.746 459.855 1h-2.019"/>
    <path fill="#D4167C" d="M240.166 33.644L237 31.96l.83-1.604L241 32.04l-.834 1.604"/>
    <path fill="#FCEC26" d="M122 255.423L119.225 260 117 258.577l2.775-4.577 2.225 1.423M85.346 59L77 57.807 77.654 54 86 55.189 85.346 59M128 47.976l4.899-.184.101 2.232-4.899.184-.101-2.232"/>
    <path fill="#7D2A79" d="M200 153.747l2.568-4.747 2.432 1.253-2.568 4.747-2.432-1.253"/>
    <path fill="#D4167C" d="M464.802 47.226L464.378 54l-3.18-.226.424-6.774 3.18.226"/>
    <path fill="#82BA41" d="M153 23.058L150.69 28 148 26.937 150.31 22l2.69 1.058M324.732 25.406l4.268 1.3-.736 1.888-4.264-1.3.732-1.888"/>
    <path fill="#31A0CE" d="M198.016 100L195 93.617 197.984 92 201 98.383 198.016 100M213 235.707L211.757 242l-2.757-.707 1.243-6.293 2.757.707"/>
    <path fill="#7D2A79" d="M429 129.71l-4-1.708 1-1.712 4 1.712-1 1.708"/>
    <path fill="#D4167C" d="M329.871 21L325 18.589 326.133 16 331 18.416 329.871 21"/>
    <path fill="#987AA9" d="M62.641 34.476L66 35.796l-.641 1.728L62 36.204l.641-1.728"/>
    <path fill="#D3242D" d="M315 241.108l1.842-6.108 3.158.892-1.846 6.108-3.154-.892"/>
    <path fill="#7D2A79" d="M464.979 21L461 14.982 464.017 13 468 19.018 464.979 21"/>
    <path fill="#31A0CE" d="M267 37.48L261.835 41 260 38.52l5.17-3.52 1.83 2.48"/>
    <path fill="#987AA9" d="M474 204.482l3.612-.772.388 1.804-3.612.776-.388-1.808"/>
    <path fill="#7D2A79" d="M306.396 14.556l-1.076 3.428-1.716-.54 1.08-3.428 1.712.54"/>
    <path fill="#D4167C" d="M340.193 142L334 138.767l1.811-2.767 6.189 3.233-1.807 2.767"/>
    <path fill="#987AA9" d="M174 95.515L166.785 99 165 95.48l7.215-3.48L174 95.515M3 44.633L8.86 42 10 45.367 4.145 48 3 44.633"/>
    <path fill="#D4167C" d="M448.102 29.176l-.308 3.8-1.896-.156.308-3.796 1.896.152"/>
    <path fill="#D3242D" d="M216 78.137L211.251 84 208 81.863 212.744 76 216 78.137"/>
    <path fill="#7D2A79" d="M323 19.072L326.926 15 329 16.923 325.074 21 323 19.072"/>
    <path fill="#31A0CE" d="M310 58.044L315.957 54 318 56.956 312.039 61 310 58.044"/>
    <path fill="#987AA9" d="M283.525 272.554l-4.525-.92.471-2.188 4.529.916-.475 2.192"/>
    <path fill="#D4167C" d="M402 100.988L394.48 102l-.48-3.988L401.525 97l.475 3.988"/>
    <path fill="#FCEC26" d="M451.885 5L458 6.836 457.111 10 451 8.164 451.885 5"/>
    <path fill="#D3242D" d="M278.824 141.788l-2.748-2.2 1.1-1.376 2.748 2.2-1.1 1.376"/>
    <path fill="#F1AA49" d="M194.914 340.764l-6.914-.356.086-1.172 6.914.356-.086 1.172"/>
    <path fill="#D2217D" d="M410.698 284L404 278.207l2.306-2.207 6.694 5.793-2.302 2.207"/>
    <path fill="#9C488B" d="M410.058 330.908l-1.012-.72.892-1.096 1.016.72-.896 1.096"/>
    <path fill="#5CB245" d="M275.77 310.652l-.42-3.208.88-.096.42 3.204-.88.1"/>
    <path fill="#8E488B" d="M335.134 286L329 280.728l.875-.728 6.125 5.272-.866.728"/>
    <path fill="#D12168" d="M137.798 324.366l-1.04-2.112 1.444-.62 1.04 2.116-1.444.616"/>
    <path fill="#5AB24B" d="M355.804 319l-.16-3.913 2.552-.087.16 3.913-2.552.087"/>
    <path fill="#B8D137" d="M128.178 294.798l-.1-1.488 1.74-.108.104 1.492-1.744.104"/>
    <path fill="#75BA43" d="M247.619 312.506L240 310.822l.381-1.328 7.619 1.684-.381 1.328"/>
    <path fill="#4075AE" d="M453.044 314.632l-.696-.808.604-.456.7.808-.608.456"/>
    <path fill="#D1224D" d="M123.834 349.872l-1.8-2.3 2.132-1.444 1.8 2.296-2.132 1.448"/>
    <path fill="#59B146" d="M462.105 314L457 307.399l1.895-1.399 5.105 6.601-1.895 1.399"/>
    <path fill="#296AA6" d="M193.03 337.314l-1.44-1.304 1.38-1.324 1.44 1.308-1.38 1.32"/>
    <path fill="#D22263" d="M491.68 319.71l-.508-.684 1.152-.736.504.684-1.148.736"/>
    <path fill="#59B251" d="M106.884 321l-1.532-6.56 1.764-.44 1.532 6.56-1.764.44"/>
    <path fill="#58B146" d="M374.377 331L368 327.106l1.623-2.106 6.377 3.886-1.623 2.114"/>
  </g>
</svg>