<svg width="203" height="188" xmlns="http://www.w3.org/2000/svg">
  <defs>
    <linearGradient x1="50%" y1="100%" x2="50%" y2="0%" id="a">
      <stop stop-color="gray" stop-opacity=".25" offset="0%"/>
      <stop stop-color="gray" stop-opacity=".12" offset="54%"/>
      <stop stop-color="gray" stop-opacity=".1" offset="100%"/>
    </linearGradient>
    <linearGradient x1="50.004%" y1="100%" x2="50.004%" y2="0%" id="b">
      <stop stop-opacity=".12" offset="0%"/>
      <stop stop-opacity=".09" offset="55%"/>
      <stop stop-opacity=".02" offset="100%"/>
    </linearGradient>
  </defs>
  <g fill="none" fill-rule="evenodd">
    <circle fill="#CBE4FF" cx="95" cy="101" r="80"/>
    <path d="M96.368 167.925c37.052 0 67.089-30.04 67.089-67.095S133.42 33.736 96.368 33.736c-37.051 0-67.088 30.039-67.088 67.094 0 37.055 30.037 67.095 67.088 67.095z" stroke="#6C63FF" stroke-width="1.5" opacity=".1" stroke-dasharray="6"/>
    <path d="M96.444 151.925c28.258 0 51.165-22.91 51.165-51.17s-22.907-51.17-51.165-51.17-51.165 22.91-51.165 51.17 22.907 51.17 51.165 51.17z" stroke="#6C63FF" stroke-width="1.5" opacity=".1" stroke-dasharray="6"/>
    <path d="M184.662 109.811a.377.377 0 1 0 0-.754.377.377 0 0 0 0 .754z" fill="#F5F5F5" fill-rule="nonzero"/>
    <g opacity=".5" fill="#3AD29F" fill-rule="nonzero">
      <path d="M110.41 4h1v4.226h-1z"/>
      <path d="M112.895 5.74v.746h-4.226V5.74z"/>
    </g>
    <g opacity=".5" fill="#3AD29F" fill-rule="nonzero">
      <path d="M1.74 58.34h1v4.226h-1z"/>
      <path d="M4.226 60.08v.746H0v-.746z"/>
    </g>
    <g opacity=".5" fill="#3AD29F" fill-rule="nonzero">
      <path d="M141.35 183.774h1V188h-1z"/>
      <path d="M143.836 185.514v.746h-4.226v-.746z"/>
    </g>
    <g opacity=".5" fill="#3AD29F" fill-rule="nonzero">
      <path d="M4.306 127.623h1v4.226h-1z"/>
      <path d="M6.792 129.363v.746H2.566v-.746z"/>
    </g>
    <g opacity=".5" fill="#3AD29F" fill-rule="nonzero">
      <path d="M50.49 133.962h1v4.226h-1z"/>
      <path d="M52.976 135.703v.745H48.75v-.745z"/>
    </g>
    <path d="M36.553 171.13a.914.914 0 0 1-.498-1.106.458.458 0 0 0-.804-.406.44.44 0 0 0-.05.09.914.914 0 0 1-1.105.497.458.458 0 0 0-.316.854c.422.19.635.665.498 1.106a.458.458 0 0 0 .804.406.44.44 0 0 0 .05-.09.914.914 0 0 1 1.105-.498.458.458 0 0 0 .316-.854z" fill="#F55F44" fill-rule="nonzero" opacity=".5"/>
    <path d="M98.434 162.525a.914.914 0 0 1-.498-1.105.458.458 0 0 0-.804-.406.44.44 0 0 0-.05.09.914.914 0 0 1-1.105.498.458.458 0 0 0-.316.854c.422.19.635.664.498 1.105a.458.458 0 0 0 .804.406.44.44 0 0 0 .05-.09.914.914 0 0 1 1.105-.498.458.458 0 0 0 .316-.854z" fill="#3AD29F" fill-rule="nonzero" opacity=".5"/>
    <path d="M122.281 45.997a.914.914 0 0 1-.498-1.105.458.458 0 0 0-.804-.406.44.44 0 0 0-.05.09.914.914 0 0 1-1.105.497.458.458 0 0 0-.316.854c.421.19.635.664.498 1.106a.458.458 0 0 0 .804.406.44.44 0 0 0 .05-.09.914.914 0 0 1 1.105-.498.458.458 0 0 0 .316-.854zM186.124 47.657a.914.914 0 0 1-.498-1.105.458.458 0 0 0-.804-.406.44.44 0 0 0-.05.09.914.914 0 0 1-1.105.498.458.458 0 0 0-.316.854c.422.19.635.664.498 1.105a.458.458 0 0 0 .804.406.44.44 0 0 0 .05-.09.914.914 0 0 1 1.105-.497.458.458 0 0 0 .316-.854zM94.057 116.035a.914.914 0 0 1-.498-1.106.458.458 0 0 0-.804-.406.44.44 0 0 0-.05.09.914.914 0 0 1-1.105.498.458.458 0 0 0-.316.854c.422.19.635.664.498 1.106a.458.458 0 0 0 .804.406.44.44 0 0 0 .05-.09.914.914 0 0 1 1.105-.498.458.458 0 0 0 .316-.854zM202.727 9.922a.914.914 0 0 1-.498-1.106.458.458 0 0 0-.804-.406.44.44 0 0 0-.05.09.914.914 0 0 1-1.106.498.458.458 0 0 0-.316.854c.422.19.636.664.498 1.105a.458.458 0 0 0 .804.406.44.44 0 0 0 .05-.09.914.914 0 0 1 1.105-.497.458.458 0 0 0 .316-.854z" fill="#F55F44" fill-rule="nonzero" opacity=".5"/>
    <g fill="#6C63FF" fill-rule="nonzero">
      <g opacity=".6">
        <path d="M77.337 2.538a.3.3 0 0 0-.489.348c.056.084.118.167.176.245.705.95 1.07 2.102 1.385 3.247.077.281.15.58.063.858a5.342 5.342 0 0 0-.15-2.238c-.206-.724-.47-1.43-.792-2.11a1.836 1.836 0 0 0-.193-.35z" opacity=".5"/>
        <path d="M72.761 4.539c-.476-.015-.536.706-.063.75.125.01.25.013.37.016 1.457.04 2.833.569 4.156 1.135.326.14.667.3.856.6a6.241 6.241 0 0 0-2.217-1.57 16.261 16.261 0 0 0-2.617-.844 2.152 2.152 0 0 0-.485-.087z"/>
        <path d="M72.893 6.31c-.3.013-.232.44.071.442h.233c.92-.037 1.86.216 2.773.494.23.052.444.16.623.314a5.033 5.033 0 0 0-1.62-.832 12.58 12.58 0 0 0-1.761-.393 1.698 1.698 0 0 0-.319-.024z" opacity=".2"/>
        <path d="M79.04 14.243c.086.289.482.117.41-.175-.02-.079-.042-.15-.065-.226-.262-.88-.25-1.854-.207-2.807-.007-.236.044-.47.15-.68a5.003 5.003 0 0 0-.408 1.774c-.023.601-.003 1.204.061 1.802.01.106.03.21.059.312z" opacity=".5"/>
        <path d="M73.442 2.138c-.182-.031-.196.231-.015.272.048.01.094.018.14.025.554.095 1.082.365 1.593.648.132.06.246.151.332.267a3.046 3.046 0 0 0-.862-.703 7.426 7.426 0 0 0-1.003-.45.901.901 0 0 0-.185-.059z" opacity=".2"/>
        <path d="M70.65 9.116c-.459.235-.071.882.4.668.124-.056.244-.119.358-.179 1.403-.727 3.031-.994 4.632-1.201.394-.05.813-.095 1.176.061-1-.26-2.042-.323-3.067-.184a20.044 20.044 0 0 0-2.993.644c-.175.046-.345.11-.507.19z"/>
        <path d="M71.96 11.637c-.33.307.185.67.53.375.091-.077.178-.16.26-.236 1.004-.943 2.332-1.614 3.654-2.232.324-.15 1.652-.3 2.017-.3-.931.082-2.834.373-3.68.758-.83.395-1.634.847-2.403 1.35-.134.084-.26.179-.377.285z" opacity=".5"/>
        <path d="M74.311 15.662c-.096.44.534.45.65 0 .03-.115.056-.231.08-.342.29-1.352 1-2.653 1.737-3.913.18-.308 1.191-1.201 1.49-1.39-.72.6-2.12 1.917-2.596 2.714-.456.795-.857 1.62-1.201 2.47-.067.149-.12.303-.16.461zM79.046.207c-.225-.45-.867-.08-.662.39.052.122.112.242.17.356.69 1.398.929 3.015 1.106 4.606.044.39.081.804-.078 1.163.271-.988.349-2.019.228-3.036-.121-1.005-.318-2-.59-2.976a2.677 2.677 0 0 0-.174-.503zM75.465.986a.086.086 0 0 0 .038.012.07.07 0 0 0 .052-.048c.057-.121.024-.279.111-.382.088.105.158.224.21.35l.34-.101c.03.13.008.266-.063.378.056.025.107.061.15.105.045.046.06.114.04.174a.858.858 0 0 1-.234.023c.013.145.005.29-.024.432a.081.081 0 0 1-.028.056.078.078 0 0 1-.08-.014.75.75 0 0 1-.272-.286l-.121.3a.123.123 0 0 1-.056.072.086.086 0 0 1-.102-.034.255.255 0 0 1-.036-.112l-.047-.279a.063.063 0 0 0-.015-.039.068.068 0 0 0-.048-.013h-.348c-.021-.062.04-.12.1-.15.06-.03.13-.046.16-.104.061-.117-.096-.281-.029-.383.068-.102.204-.006.302.043z"/>
        <path d="M81.828 2.538a.3.3 0 0 1 .49.348 6.407 6.407 0 0 1-.176.245c-.705.95-1.071 2.102-1.385 3.247-.078.281-.15.58-.065.858a5.343 5.343 0 0 1 .15-2.238c.206-.724.47-1.43.792-2.11.052-.124.117-.241.194-.35z" opacity=".5"/>
        <path d="M86.403 4.539c.475-.015.536.706.062.75-.124.01-.25.013-.368.016-1.457.04-2.835.569-4.158 1.135-.325.14-.666.3-.855.6a6.241 6.241 0 0 1 2.217-1.57 16.293 16.293 0 0 1 2.615-.844c.159-.047.322-.076.487-.087z"/>
        <path d="M86.28 6.31c.3.013.231.44-.07.442h-.234c-.919-.037-1.86.216-2.772.494-.23.052-.445.16-.624.314a5.018 5.018 0 0 1 1.621-.832 12.58 12.58 0 0 1 1.763-.387c.104-.02.21-.03.316-.03z" opacity=".5"/>
        <path d="M85.724 2.138c.182-.031.195.231.015.272-.048.01-.095.018-.141.025-.553.095-1.083.365-1.592.648a.855.855 0 0 0-.332.267 3.04 3.04 0 0 1 .86-.703 7.53 7.53 0 0 1 1.005-.45.87.87 0 0 1 .185-.059zM81.023 14.79c-.04.178-.289.09-.256-.092 0-.048.02-.094.03-.14.126-.546.08-1.14.017-1.719a.868.868 0 0 0-.119-.408c.17.333.277.694.316 1.066.037.366.049.733.034 1.1a.92.92 0 0 1-.022.193z" opacity=".2"/>
        <path d="M85.608 13.6c.142.24-.205.223-.357-.016-.04-.063-.077-.126-.113-.186-.43-.731-1.084-1.455-1.744-2.153a2.414 2.414 0 0 0-.539-.467c.515.35.99.757 1.417 1.211.423.442.796.901 1.162 1.364.063.079.122.161.174.248z" opacity=".5"/>
        <path d="M73.045 13.6c-.141.24.206.223.36-.016.038-.063.076-.126.11-.186.43-.731 1.085-1.455 1.744-2.153.156-.182.339-.34.541-.467a8.56 8.56 0 0 0-1.418 1.211c-.422.442-.796.901-1.163 1.364a2.393 2.393 0 0 0-.174.248zM77.64 14.79c.04.178.288.09.257-.092a3.238 3.238 0 0 0-.03-.14c-.126-.546-.081-1.14-.017-1.719a.85.85 0 0 1 .117-.408c-.17.333-.276.694-.315 1.066a7.505 7.505 0 0 0-.033 1.1c0 .065.008.13.021.193zM84.278 3.934c.18-.032.193.233.013.272-.046.01-.095.018-.14.027-.554.093-1.083.365-1.593.647a.876.876 0 0 0-.332.266c.242-.285.534-.523.862-.702a7.435 7.435 0 0 1 1.003-.45.983.983 0 0 1 .187-.06zM82.588.407c.15-.096.267.15.115.246l-.12.077c-.477.3-.868.75-1.236 1.2a.854.854 0 0 0-.207.372c.117-.355.299-.685.536-.973a7.49 7.49 0 0 1 .76-.797.97.97 0 0 1 .152-.125z" opacity=".2"/>
        <path d="M88.516 9.116c.459.235.071.882-.4.668-.124-.056-.244-.119-.36-.179-1.401-.727-3.03-.994-4.63-1.201-.394-.05-.813-.095-1.177.061 1-.26 2.042-.323 3.066-.184 1.013.138 2.015.353 2.995.644.175.046.345.11.506.19z"/>
        <path d="M87.205 11.637c.33.307-.185.67-.53.375-.09-.077-.177-.16-.26-.236-1.005-.943-2.331-1.614-3.654-2.232-.323-.15-1.66-.3-2.016-.3.931.082 2.833.373 3.678.758.831.395 1.634.846 2.404 1.35.134.084.261.179.378.285z" opacity=".5"/>
        <path d="M83.32 16.165c.041.45-.585.376-.645-.075-.015-.117-.026-.236-.036-.348-.119-1.373-.661-2.759-1.233-4.1-.14-.33-1.032-1.336-1.303-1.567.639.683 1.861 2.168 2.235 3.018.355.847.652 1.717.89 2.604.046.153.077.31.093.468zM83.696.986a.092.092 0 0 1-.039.012c-.024 0-.042-.025-.052-.048-.056-.121-.024-.279-.11-.382a1.323 1.323 0 0 0-.21.35l-.33-.101a.486.486 0 0 0 .064.378.485.485 0 0 0-.15.105.171.171 0 0 0-.04.174.87.87 0 0 0 .232.023c-.012.145-.003.29.025.432a.081.081 0 0 0 .029.056c.027.01.058.005.08-.014a.75.75 0 0 0 .271-.286l.122.3c.009.03.028.055.054.072.039.014.082 0 .104-.034a.255.255 0 0 0 .036-.112l.046-.279c0-.014.006-.028.015-.039a.068.068 0 0 1 .049-.013h.348c.021-.062-.042-.12-.1-.15-.06-.03-.131-.046-.161-.104-.06-.117.097-.281.03-.383-.068-.102-.21-.006-.313.043z"/>
        <path d="M84.69 14.55a.092.092 0 0 1-.038.012c-.026 0-.042-.026-.053-.048-.056-.122-.024-.28-.11-.383-.088.105-.159.224-.21.351l-.329-.102a.492.492 0 0 0 .062.378.523.523 0 0 0-.15.105.171.171 0 0 0-.041.175.87.87 0 0 0 .233.022c-.013.145-.004.291.024.434a.08.08 0 0 0 .028.054c.024.015.056 0 .081-.013a.763.763 0 0 0 .27-.287l.124.293a.13.13 0 0 0 .054.073.087.087 0 0 0 .102-.036.257.257 0 0 0 .038-.111l.045-.278a.087.087 0 0 1 .015-.04.07.07 0 0 1 .05-.014h.348c.02-.061-.042-.12-.1-.15-.06-.03-.131-.045-.161-.104-.06-.117.096-.28.03-.383-.067-.102-.21.002-.311.052z" opacity=".2"/>
        <path d="M87.481 5.458a.098.098 0 0 1-.039.012c-.025 0-.042-.026-.052-.048-.057-.122-.024-.28-.111-.383a1.342 1.342 0 0 0-.21.351l-.33-.102a.494.494 0 0 0 .064.379.48.48 0 0 0-.15.105.171.171 0 0 0-.041.174.864.864 0 0 0 .233.022c-.013.146-.005.292.024.434a.08.08 0 0 0 .028.054c.027.011.058.006.08-.013a.75.75 0 0 0 .272-.287l.123.3a.13.13 0 0 0 .054.074.087.087 0 0 0 .102-.036.237.237 0 0 0 .036-.111l.047-.278c0-.015.005-.029.015-.04a.068.068 0 0 1 .048-.014h.35c.02-.062-.042-.12-.102-.15-.06-.03-.13-.045-.16-.104-.061-.117.096-.28.03-.383-.066-.102-.208-.006-.31.044zM76.32 15.91a.1.1 0 0 1-.054.016c-.035 0-.059-.034-.074-.066-.078-.17-.033-.39-.15-.533-.123.147-.22.312-.292.49l-.46-.15a.681.681 0 0 0 .088.525.716.716 0 0 0-.216.15.242.242 0 0 0-.057.244c.106.025.215.036.324.031-.016.201-.004.403.035.6.002.03.017.058.04.077.033.021.077 0 .111-.018.157-.097.286-.232.376-.393l.17.407c.012.042.039.078.076.102a.12.12 0 0 0 .15-.05.344.344 0 0 0 .051-.15l.063-.387c.002-.02.01-.04.023-.056a.104.104 0 0 1 .068-.02h.485c.028-.085-.059-.164-.141-.202-.083-.038-.18-.063-.223-.143-.084-.165.134-.393.04-.534-.115-.168-.29-.01-.433.06zM71.675 5.73a.114.114 0 0 1-.054.016c-.034 0-.058-.036-.073-.067-.078-.17-.033-.39-.15-.533-.123.147-.22.312-.292.49l-.46-.142a.681.681 0 0 0 .088.526.691.691 0 0 0-.217.15.236.236 0 0 0-.055.241c.105.027.214.038.323.033-.017.201-.005.403.034.601.003.03.017.059.04.078.034.021.077 0 .112-.02.158-.098.289-.235.378-.399l.17.407c.013.042.04.078.077.102a.12.12 0 0 0 .142-.05.344.344 0 0 0 .051-.15l.064-.387c.002-.02.01-.04.022-.055a.104.104 0 0 1 .068-.02h.485c.028-.086-.057-.167-.141-.203-.084-.036-.18-.063-.223-.15-.084-.163.134-.392.042-.533-.112-.17-.288-.006-.43.065z"/>
        <path d="M85.768 12.035a.048.048 0 0 1-.029 0c-.018 0-.031-.018-.039-.035-.04-.09-.016-.207-.081-.284a.99.99 0 0 0-.15.26l-.245-.075a.365.365 0 0 0 .046.28.359.359 0 0 0-.114.077.126.126 0 0 0-.03.13c.056.013.114.019.171.017a1.09 1.09 0 0 0 .02.32.06.06 0 0 0 .021.04c.017.013.04 0 .059-.01a.556.556 0 0 0 .2-.211l.091.216c.006.022.02.042.04.054.029.01.06-.001.077-.026a.224.224 0 0 0 .027-.082l.033-.206c.001-.011.005-.021.012-.03a.057.057 0 0 1 .036-.01h.257c.015-.047-.03-.09-.073-.109-.044-.02-.098-.033-.12-.076-.044-.087.072-.209.022-.284-.05-.075-.155.006-.231.044zM79.459 15.682a.048.048 0 0 1-.029 0c-.018 0-.031-.018-.039-.035-.04-.09-.016-.207-.08-.284a.99.99 0 0 0-.15.26l-.246-.075a.365.365 0 0 0 .047.28.359.359 0 0 0-.114.077.126.126 0 0 0-.03.13c.056.013.113.019.17.016-.008.108-.002.216.02.321.002.016.009.03.02.04a.06.06 0 0 0 .06-.01.556.556 0 0 0 .201-.211l.09.216a.1.1 0 0 0 .04.054.07.07 0 0 0 .078-.026.197.197 0 0 0 .025-.082l.035-.206c0-.01.005-.021.012-.03a.05.05 0 0 1 .036-.01h.257c.015-.047-.03-.089-.074-.109-.044-.019-.098-.034-.119-.076-.045-.087.07-.209.021-.284-.05-.075-.156 0-.231.044z" opacity=".2"/>
        <path d="M73.362 2.93a.07.07 0 0 1-.028.01.05.05 0 0 1-.04-.036c-.042-.09-.017-.207-.082-.282a.968.968 0 0 0-.15.26l-.244-.076a.36.36 0 0 0 .045.28.351.351 0 0 0-.114.078.126.126 0 0 0-.03.129c.057.014.115.02.173.016-.009.107-.003.215.018.32a.06.06 0 0 0 .021.042c.018.01.04 0 .059-.01a.56.56 0 0 0 .2-.214l.091.217c.006.022.02.042.04.055.03.01.06-.001.077-.027a.192.192 0 0 0 .027-.082l.033-.206a.04.04 0 0 1 .048-.04h.259c.013-.044-.032-.088-.075-.106-.044-.018-.097-.034-.12-.076-.044-.087.072-.209.023-.284-.048-.075-.163-.005-.23.033zM76.604 10.113a.063.063 0 0 1-.029.009c-.018 0-.032-.02-.039-.036-.042-.09-.018-.208-.081-.283a.935.935 0 0 0-.15.26l-.244-.075a.36.36 0 0 0 .047.28.357.357 0 0 0-.116.077.128.128 0 0 0-.03.128.61.61 0 0 0 .173.018c-.01.107-.003.215.018.32.001.016.009.03.021.04.018.012.042 0 .06-.009a.568.568 0 0 0 .2-.213l.091.216c.006.023.02.042.041.054.028.011.06 0 .075-.025a.179.179 0 0 0 .027-.083l.035-.205c0-.01.004-.02.01-.029a.051.051 0 0 1 .036-.01h.259c.015-.045-.032-.089-.075-.109-.044-.02-.097-.033-.12-.076-.043-.087.073-.207.023-.282-.05-.075-.157-.005-.232.033zM74.245 7.314a.048.048 0 0 1-.028 0c-.018 0-.032-.018-.04-.035-.041-.09-.017-.207-.08-.284a.958.958 0 0 0-.15.26l-.244-.075a.359.359 0 0 0 .047.28.383.383 0 0 0-.116.078.13.13 0 0 0-.03.129c.056.013.115.02.173.016a1.15 1.15 0 0 0 .018.322.045.045 0 0 0 .08.03.563.563 0 0 0 .2-.212l.092.216a.1.1 0 0 0 .04.054c.03.01.06-.002.076-.027a.186.186 0 0 0 .027-.081l.034-.207a.038.038 0 0 1 .047-.04h.258c.015-.044-.031-.086-.075-.106-.043-.02-.096-.034-.118-.076-.045-.088.072-.21.022-.284-.05-.075-.158.001-.233.042zM84.375 7.973a.051.051 0 0 1-.028.007c-.02 0-.032-.018-.04-.034-.041-.09-.017-.207-.082-.284a.99.99 0 0 0-.15.26l-.244-.075a.357.357 0 0 0 .046.28.377.377 0 0 0-.115.077.126.126 0 0 0-.03.13c.057.013.115.019.173.016a1.15 1.15 0 0 0 .018.321.06.06 0 0 0 .021.04c.02.008.043.004.059-.01a.568.568 0 0 0 .201-.212l.09.217a.1.1 0 0 0 .04.054c.03.01.06-.002.077-.027a.186.186 0 0 0 .027-.081l.033-.208a.054.054 0 0 1 .012-.028.05.05 0 0 1 .036-.01h.259c.013-.046-.032-.088-.075-.107-.044-.02-.096-.035-.119-.077-.045-.087.07-.208.023-.284-.049-.075-.157-.003-.232.035z" opacity=".5"/>
        <path d="M79.459 7.423a.048.048 0 0 1-.029 0c-.018 0-.031-.018-.039-.034-.04-.09-.016-.207-.08-.284a.99.99 0 0 0-.15.26l-.246-.075a.365.365 0 0 0 .047.28.359.359 0 0 0-.114.077.126.126 0 0 0-.03.13c.056.013.113.019.17.017a1.09 1.09 0 0 0 .02.32c.002.016.009.03.02.04.018.013.042 0 .06-.01a.556.556 0 0 0 .201-.212l.09.217c.007.022.021.041.04.054a.07.07 0 0 0 .078-.026.197.197 0 0 0 .025-.082l.035-.206c0-.011.005-.022.012-.03a.057.057 0 0 1 .036-.01h.257c.015-.047-.03-.09-.074-.109-.044-.02-.098-.033-.119-.076-.045-.087.07-.209.021-.284-.05-.075-.156.004-.231.043z" opacity=".2"/>
        <path d="M77.918 8.092a.059.059 0 0 1-.03.009c-.018 0-.03-.018-.04-.035-.04-.09-.016-.207-.08-.284a.99.99 0 0 0-.15.26l-.245-.075a.365.365 0 0 0 .046.28.377.377 0 0 0-.114.077.126.126 0 0 0-.03.13c.056.013.114.019.171.016-.008.107-.002.216.02.321a.06.06 0 0 0 .02.04c.02.009.043.005.06-.01a.568.568 0 0 0 .2-.211l.09.216a.1.1 0 0 0 .041.054c.029.01.06-.002.077-.027a.207.207 0 0 0 .027-.081l.033-.207a.04.04 0 0 1 .048-.04h.258c.014-.045-.031-.087-.075-.106-.043-.02-.096-.035-.118-.077-.045-.087.07-.208.02-.283-.049-.076-.154-.003-.23.033z" opacity=".3"/>
        <path d="M76.479 4.033a.063.063 0 0 1-.029.009c-.018 0-.031-.02-.039-.036-.04-.09-.016-.207-.08-.282a.944.944 0 0 0-.151.26l-.245-.077a.365.365 0 0 0 .047.28.385.385 0 0 0-.114.077.128.128 0 0 0-.03.13c.056.013.113.019.17.017a1.09 1.09 0 0 0 .02.32c.001.016.008.03.02.04.018.013.042 0 .06-.008a.57.57 0 0 0 .201-.213l.09.216c.007.022.021.042.04.054.03.01.061 0 .077-.026a.197.197 0 0 0 .026-.082l.035-.206c0-.011.005-.021.012-.03a.048.048 0 0 1 .036-.009h.256c.015-.047-.03-.089-.073-.108-.044-.02-.098-.033-.119-.077-.045-.087.07-.207.021-.282-.05-.075-.156-.005-.231.033z" opacity=".2"/>
        <path d="M79.312 9.33a.051.051 0 0 1-.029.008c-.02 0-.031-.018-.039-.035-.042-.09-.018-.207-.082-.283a.976.976 0 0 0-.15.26l-.244-.076a.363.363 0 0 0 .045.28.395.395 0 0 0-.114.078.126.126 0 0 0-.03.129c.056.013.115.02.173.018-.01.107-.003.214.018.32a.06.06 0 0 0 .02.04c.019.012.041 0 .06-.009a.57.57 0 0 0 .2-.213l.09.216c.007.023.021.042.041.054.029.01.06 0 .077-.025a.198.198 0 0 0 .027-.083l.033-.206a.066.066 0 0 1 .012-.03.057.057 0 0 1 .036-.01h.258c.015-.047-.031-.089-.075-.108-.043-.02-.096-.033-.118-.077-.045-.087.072-.209.022-.284-.05-.075-.156-.001-.231.036z" opacity=".3"/>
      </g>
      <path d="M44.619 6.416c-.548-.75-1.681.061-1.169.833.134.201.28.398.418.584 1.688 2.277 2.562 5.042 3.315 7.775.185.67.363 1.386.15 2.05.3-1.777.105-3.604-.35-5.352-.455-1.747-1.163-3.408-1.894-5.054a4.488 4.488 0 0 0-.47-.836z" opacity=".5"/>
      <path d="M33.673 11.204c-1.138-.034-1.282 1.69-.15 1.781.3.024.6.032.883.039 3.485.095 6.78 1.351 9.947 2.716.776.334 1.592.709 2.047 1.422-1.427-1.651-3.304-2.868-5.307-3.754-2.002-.885-4.129-1.48-6.259-2.025a5.475 5.475 0 0 0-1.16-.179z"/>
      <path d="M33.986 15.446c-.718.027-.556 1.051.168 1.051.19 0 .377 0 .557-.015 2.2-.089 4.45.518 6.635 1.185.536.163 1.1.35 1.491.75-1.137-.914-2.493-1.55-3.876-1.99-1.384-.439-2.805-.696-4.22-.927a3.847 3.847 0 0 0-.755-.054z" opacity=".2"/>
      <path d="M48.694 34.428c.204.69 1.153.28.98-.423-.046-.184-.1-.365-.15-.538-.632-2.102-.6-4.437-.498-6.718.025-.558.066-1.153.357-1.63-.6 1.328-.881 2.798-.966 4.247-.084 1.45.021 2.89.15 4.317.019.252.061.501.127.745z" opacity=".5"/>
      <path d="M35.295 5.458c-.432-.075-.465.556-.033.652.113.024.227.043.335.061 1.325.227 2.591.874 3.811 1.55.3.166.614.35.796.638a7.286 7.286 0 0 0-2.062-1.686 17.948 17.948 0 0 0-2.403-1.09 2.404 2.404 0 0 0-.444-.125z" opacity=".2"/>
      <path d="M28.616 22.155c-1.098.564-.17 2.115.958 1.6.3-.135.583-.285.858-.428 3.354-1.738 7.25-2.38 11.084-2.874.94-.12 1.943-.226 2.813.15-2.372-.668-4.897-.723-7.338-.44-2.44.284-4.815.902-7.166 1.541a6.46 6.46 0 0 0-1.21.45z"/>
      <path d="M31.755 28.19c-.788.735.443 1.604 1.27.9.217-.185.423-.38.62-.564 2.403-2.253 5.581-3.862 8.745-5.341.776-.364 3.971-.735 4.824-.715-2.227.2-6.78.9-8.803 1.815-2.024.915-3.9 2.057-5.746 3.218-.323.2-.628.43-.91.686z" opacity=".5"/>
      <path d="M37.379 37.823c-.23 1.05 1.277 1.067 1.556.016.074-.276.132-.552.19-.816.693-3.223 2.395-6.35 4.155-9.364.433-.74 2.854-2.862 3.565-3.33-1.72 1.43-5.07 4.59-6.211 6.497-1.142 1.907-2.034 3.904-2.893 5.911-.154.35-.275.714-.362 1.086zM48.707.84c-.537-1.095-2.072-.194-1.586.929.128.3.272.582.407.856 1.653 3.345 2.225 7.214 2.65 11.02.104.932.194 1.927-.186 2.784.694-2.34.785-4.842.545-7.264-.24-2.422-.805-4.782-1.403-7.12a6.212 6.212 0 0 0-.427-1.204zM40.149 2.704c.027.018.059.027.091.027.06 0 .102-.06.126-.114.136-.291.058-.67.265-.914.21.252.379.535.501.839l.79-.243c.073.308.019.633-.151.9.139.061.265.147.372.253.108.11.145.271.097.417-.183.045-.37.064-.558.056.03.346.01.695-.058 1.036a.195.195 0 0 1-.068.13c-.059.038-.134 0-.192-.03a1.817 1.817 0 0 1-.65-.689l-.292.7a.314.314 0 0 1-.13.176.212.212 0 0 1-.247-.084.6.6 0 0 1-.087-.266l-.11-.667a.16.16 0 0 0-.036-.094.174.174 0 0 0-.117-.033 23.173 23.173 0 0 0-.834-.01c-.048-.15.1-.285.242-.346.143-.062.311-.11.383-.248.15-.28-.231-.673-.07-.916.186-.28.49 0 .733.12z"/>
      <path d="M55.366 6.416c.548-.75 1.68.061 1.169.833-.134.201-.281.398-.42.584-1.686 2.277-2.553 5.042-3.315 7.775-.184.67-.363 1.386-.15 2.05-.3-1.777-.105-3.604.35-5.352.455-1.747 1.163-3.408 1.894-5.054.127-.295.285-.575.472-.836z" opacity=".5"/>
      <path d="M66.311 11.204c1.139-.034 1.283 1.69.15 1.781-.3.024-.6.032-.883.039-3.484.095-6.78 1.351-9.946 2.716-.778.334-1.594.709-2.047 1.422 1.427-1.651 3.304-2.868 5.306-3.754 2.003-.885 4.128-1.474 6.258-2.02.38-.103.77-.164 1.162-.184z"/>
      <path d="M66.002 15.446c.72.027.557 1.051-.167 1.051-.189 0-.378 0-.558-.015-2.198-.089-4.45.518-6.634 1.185-.536.163-1.102.35-1.491.75 1.137-.914 2.492-1.55 3.877-1.99 1.385-.439 2.804-.696 4.219-.927a3.84 3.84 0 0 1 .754-.054z" opacity=".5"/>
      <path d="M64.688 5.458c.432-.075.465.556.034.652a7.592 7.592 0 0 1-.335.061c-1.324.227-2.592.874-3.812 1.55-.3.166-.613.35-.794.638a7.286 7.286 0 0 1 2.062-1.686 17.948 17.948 0 0 1 2.403-1.09c.143-.056.29-.098.442-.125zM53.425 35.734c-.097.428-.692.215-.614-.219.021-.114.048-.227.072-.333.3-1.31.192-2.729.04-4.113-.038-.34-.086-.701-.283-.98.405.797.66 1.662.75 2.552.091.875.118 1.756.08 2.635 0 .154-.015.307-.045.458z" opacity=".2"/>
      <path d="M64.411 32.887c.338.572-.492.535-.856-.039-.096-.15-.183-.3-.269-.45-1.029-1.75-2.594-3.48-4.17-5.153-.388-.41-.807-.843-1.296-1.116 1.234.839 2.371 1.81 3.392 2.898 1.012 1.051 1.906 2.16 2.782 3.261.152.19.292.39.417.6z" opacity=".5"/>
      <path d="M34.35 32.887c-.339.572.492.535.855-.039.097-.15.185-.3.27-.45 1.028-1.75 2.595-3.48 4.17-5.153.388-.41.807-.843 1.295-1.116a20.364 20.364 0 0 0-3.391 2.898c-1.013 1.051-1.907 2.16-2.782 3.261-.153.19-.292.39-.418.6zM45.343 35.734c.097.428.692.215.614-.219-.02-.114-.048-.227-.072-.333-.3-1.31-.192-2.729-.04-4.113.038-.34.087-.701.282-.98a7.32 7.32 0 0 0-.751 2.552 17.986 17.986 0 0 0-.08 2.635c0 .154.016.307.047.458zM61.226 9.757c.432-.075.465.555.033.651a7.592 7.592 0 0 1-.335.062c-1.325.227-2.591.874-3.811 1.55-.3.166-.614.35-.796.638a7.286 7.286 0 0 1 2.062-1.68 18.14 18.14 0 0 1 2.403-1.09c.144-.058.292-.102.444-.131zM57.185 1.317c.372-.231.638.34.275.59a5.723 5.723 0 0 1-.289.183c-1.143.706-2.077 1.78-2.956 2.862-.214.266-.438.553-.498.889A7.292 7.292 0 0 1 55 3.52c.56-.68 1.168-1.318 1.82-1.91.112-.11.234-.208.364-.293z" opacity=".2"/>
      <path d="M71.369 22.155c1.098.564.17 2.115-.958 1.6-.3-.135-.583-.285-.858-.428-3.354-1.738-7.252-2.38-11.084-2.874-.942-.12-1.943-.226-2.813.15 2.372-.668 4.895-.723 7.337-.44 2.443.284 4.807.902 7.167 1.541.417.11.822.26 1.209.45z"/>
      <path d="M68.233 28.19c.788.735-.451 1.604-1.271.9-.216-.185-.422-.38-.619-.564-2.403-2.253-5.582-3.862-8.745-5.341-.777-.364-3.973-.735-4.826-.715 2.229.2 6.782.9 8.805 1.815 2.023.915 3.896 2.062 5.74 3.221.326.199.633.428.916.683z" opacity=".5"/>
      <path d="M58.942 39.024c.097 1.074-1.401.9-1.545-.179-.04-.282-.062-.564-.086-.833-.285-3.284-1.582-6.607-2.951-9.81-.335-.788-2.47-3.196-3.119-3.755 1.528 1.634 4.454 5.188 5.35 7.221.894 2.033 1.527 4.135 2.128 6.228.108.369.183.746.223 1.128zM59.844 2.704a.173.173 0 0 1-.094.027c-.058 0-.1-.06-.126-.114-.133-.291-.057-.67-.263-.914-.21.251-.38.535-.501.839l-.789-.243c-.073.308-.019.633.15.9a1.24 1.24 0 0 0-.37.253.413.413 0 0 0-.097.417c.182.045.37.064.558.056-.03.346-.01.695.058 1.036a.19.19 0 0 0 .068.13c.058.038.133 0 .192-.03a1.83 1.83 0 0 0 .649-.689l.3.7a.3.3 0 0 0 .13.176.212.212 0 0 0 .247-.084.645.645 0 0 0 .087-.266l.11-.667a.16.16 0 0 1 .036-.094.17.17 0 0 1 .116-.033c.28-.008.557-.01.835-.01.048-.15-.1-.285-.242-.346-.141-.062-.312-.11-.383-.248-.15-.28.23-.673.07-.916-.202-.28-.506 0-.741.12z"/>
      <path d="M62.215 35.16a.213.213 0 0 1-.093.028c-.06 0-.102-.06-.126-.114-.135-.292-.057-.67-.264-.916-.21.253-.379.536-.502.84l-.786-.247c-.073.308-.019.633.15.9-.138.061-.264.147-.372.253a.413.413 0 0 0-.096.417c.182.044.37.063.557.056-.03.346-.01.694.059 1.034a.198.198 0 0 0 .067.133.19.19 0 0 0 .193-.032 1.83 1.83 0 0 0 .649-.688l.3.7a.318.318 0 0 0 .13.176.213.213 0 0 0 .247-.086.6.6 0 0 0 .087-.266l.11-.665a.125.125 0 0 1 .15-.127c.278-.01.556-.011.834-.01.048-.15-.1-.285-.242-.346-.143-.062-.311-.11-.383-.248-.15-.282.231-.674.07-.916-.193-.278-.497.003-.739.125z" opacity=".2"/>
      <path d="M68.895 13.404a.188.188 0 0 1-.092.028.17.17 0 0 1-.126-.114c-.135-.292-.057-.67-.264-.916-.21.253-.38.536-.502.841l-.788-.245a1.18 1.18 0 0 0 .15.901c-.138.06-.264.146-.371.253a.411.411 0 0 0-.096.416c.182.044.37.063.557.055-.03.346-.01.695.059 1.036a.198.198 0 0 0 .067.132.192.192 0 0 0 .192-.033c.273-.168.496-.405.65-.686l.3.7a.31.31 0 0 0 .13.174.21.21 0 0 0 .247-.084.624.624 0 0 0 .087-.266l.11-.667a.16.16 0 0 1 .035-.093.167.167 0 0 1 .118-.034c.278 0 .555-.01.833 0 .048-.15-.099-.285-.242-.349-.142-.063-.31-.108-.383-.246-.15-.282.232-.674.071-.916-.195-.288-.499-.012-.742.113zM42.185 38.416a.267.267 0 0 1-.129.037c-.084 0-.14-.084-.175-.159-.188-.407-.08-.932-.368-1.274a4.363 4.363 0 0 0-.699 1.17l-1.098-.34c-.104.43-.03.885.209 1.258a1.718 1.718 0 0 0-.518.351.576.576 0 0 0-.134.582c.253.061.514.088.775.078-.04.482-.013.968.083 1.443a.203.203 0 0 0 .362.138c.379-.235.69-.565.9-.958l.41.976c.028.1.093.187.181.243a.29.29 0 0 0 .343-.117.854.854 0 0 0 .121-.371l.15-.928a.233.233 0 0 1 .05-.13.228.228 0 0 1 .162-.047c.388-.012.777-.015 1.164-.012.066-.206-.14-.398-.338-.485-.198-.087-.434-.15-.533-.344-.203-.393.322-.938.1-1.276-.256-.395-.68-.003-1.018.165zM31.072 14.054a.267.267 0 0 1-.13.038c-.082 0-.14-.083-.175-.16-.188-.405-.08-.932-.368-1.274a4.386 4.386 0 0 0-.699 1.17l-1.1-.34c-.103.43-.029.884.208 1.258a1.714 1.714 0 0 0-.518.353.575.575 0 0 0-.134.581c.254.062.515.087.775.077-.04.482-.012.968.083 1.443a.27.27 0 0 0 .095.183c.09.036.193.019.267-.044.379-.235.69-.565.901-.958l.409.975c.03.1.094.187.181.245a.3.3 0 0 0 .343-.119.835.835 0 0 0 .122-.37l.15-.929a.224.224 0 0 1 .05-.13.231.231 0 0 1 .163-.047c.388-.01.775-.014 1.163-.012.066-.206-.14-.398-.338-.485-.199-.087-.434-.15-.532-.344-.203-.392.32-.938.098-1.276-.253-.395-.675-.01-1.014.165z"/>
      <path d="M64.8 29.14a.132.132 0 0 1-.069.02c-.045 0-.075-.044-.093-.083-.1-.217-.042-.496-.195-.68a2.299 2.299 0 0 0-.371.624l-.584-.182a.875.875 0 0 0 .11.67.858.858 0 0 0-.274.186.3.3 0 0 0-.072.31c.134.032.273.045.411.04-.02.256-.006.514.045.766.002.038.02.073.05.097.042.027.1 0 .15-.022.201-.125.366-.3.48-.51l.217.519c.015.053.05.1.096.129a.15.15 0 0 0 .182-.063.45.45 0 0 0 .065-.197l.08-.492a.128.128 0 0 1 .028-.07.125.125 0 0 1 .087-.025c.206 0 .411-.007.617 0 .035-.11-.075-.212-.18-.258-.105-.047-.23-.08-.282-.182-.109-.208.17-.498.052-.678-.152-.217-.377-.014-.55.08zM49.697 37.853a.16.16 0 0 1-.069.02c-.043 0-.073-.044-.093-.085-.1-.216-.042-.495-.195-.677-.156.187-.28.396-.371.622l-.583-.18a.865.865 0 0 0 .11.668.901.901 0 0 0-.275.187.3.3 0 0 0-.072.308c.135.033.274.047.413.042-.023.256-.008.514.043.766a.15.15 0 0 0 .05.098c.048.018.103.01.142-.024.203-.125.368-.3.481-.51l.216.519c.016.053.05.1.098.13a.158.158 0 0 0 .182-.063.468.468 0 0 0 .064-.197l.082-.494a.117.117 0 0 1 .027-.069.12.12 0 0 1 .085-.024c.206 0 .412-.009.618-.007.036-.108-.074-.21-.18-.257-.104-.046-.229-.081-.283-.183-.107-.209.171-.499.052-.677-.138-.21-.362-.002-.542.087z" opacity=".2"/>
      <path d="M35.088 7.357a.15.15 0 0 1-.069.021c-.045 0-.075-.045-.093-.084-.1-.216-.042-.495-.195-.678a2.299 2.299 0 0 0-.371.623l-.585-.182a.87.87 0 0 0 .112.67.847.847 0 0 0-.275.186.3.3 0 0 0-.072.308c.134.033.273.047.411.042-.021.256-.006.514.045.766.003.037.02.073.05.097.042.027.099 0 .142-.022.202-.126.367-.301.48-.51l.217.519c.016.053.05.099.097.129a.15.15 0 0 0 .181-.063.45.45 0 0 0 .065-.197l.081-.493a.128.128 0 0 1 .027-.07.125.125 0 0 1 .087-.024c.206 0 .412-.008.618 0 .034-.11-.076-.212-.18-.258-.106-.047-.23-.08-.283-.182-.108-.209.17-.499.052-.679-.138-.216-.363-.003-.542.081zM42.87 24.54a.137.137 0 0 1-.067.022c-.045 0-.075-.045-.095-.085-.099-.216-.042-.495-.194-.678a2.342 2.342 0 0 0-.372.623l-.59-.182a.875.875 0 0 0 .11.67.882.882 0 0 0-.276.186.3.3 0 0 0-.07.3c.134.034.273.048.411.042-.02.256-.006.514.044.766a.137.137 0 0 0 .05.098c.043.027.1 0 .142-.023.202-.125.368-.3.48-.509l.219.518c.015.054.049.1.096.13a.15.15 0 0 0 .181-.064.462.462 0 0 0 .065-.196l.081-.493a.128.128 0 0 1 .027-.07.12.12 0 0 1 .086-.024h.619c.034-.11-.075-.212-.18-.259-.106-.046-.23-.08-.283-.181-.108-.21.17-.499.053-.679-.139-.212-.364.001-.537.089zM37.22 17.844a.135.135 0 0 1-.068.02c-.045 0-.075-.044-.095-.085-.099-.216-.042-.495-.195-.677-.155.187-.28.396-.37.622l-.584-.18a.87.87 0 0 0 .11.668.916.916 0 0 0-.275.186.3.3 0 0 0-.07.31c.134.032.273.046.411.04a2.74 2.74 0 0 0 .044.767.15.15 0 0 0 .05.098c.043.027.098 0 .142-.024.202-.125.368-.3.48-.51l.218.519c.015.053.05.1.096.129a.15.15 0 0 0 .182-.062.476.476 0 0 0 .065-.197l.08-.494a.123.123 0 0 1 .028-.069.122.122 0 0 1 .086-.025c.205 0 .411-.008.617 0 .036-.11-.074-.21-.179-.257-.105-.046-.23-.081-.282-.183-.108-.209.17-.499.05-.679-.136-.214-.361-.007-.541.083zM61.458 19.42a.137.137 0 0 1-.067.021c-.045 0-.075-.045-.093-.085-.101-.215-.044-.496-.196-.677a2.299 2.299 0 0 0-.37.623l-.588-.182a.87.87 0 0 0 .11.668.912.912 0 0 0-.275.188.3.3 0 0 0-.07.308c.134.033.272.047.41.042-.02.256-.005.514.044.766a.141.141 0 0 0 .051.097c.042.027.1 0 .142-.024.202-.124.368-.3.48-.509l.218.518c.015.054.05.1.096.13a.15.15 0 0 0 .182-.062.468.468 0 0 0 .065-.197l.08-.492a.128.128 0 0 1 .028-.071.12.12 0 0 1 .085-.024c.206 0 .413-.008.62 0 .034-.11-.076-.212-.181-.258-.105-.047-.23-.081-.282-.183-.109-.21.17-.499.052-.678-.135-.216-.353-.007-.54.081z" opacity=".5"/>
      <path d="M49.697 18.102a.15.15 0 0 1-.069.021c-.043 0-.073-.045-.093-.084-.1-.216-.042-.495-.195-.679-.156.188-.28.398-.371.623l-.583-.181a.87.87 0 0 0 .11.67.864.864 0 0 0-.275.186.3.3 0 0 0-.072.307c.135.034.274.048.413.043-.023.256-.008.513.043.765.003.038.02.073.05.098a.15.15 0 0 0 .142-.023c.202-.125.368-.3.481-.509l.216.518c.016.054.051.1.098.13a.15.15 0 0 0 .182-.064.462.462 0 0 0 .064-.196l.082-.493a.117.117 0 0 1 .027-.07.12.12 0 0 1 .085-.024c.206 0 .412-.008.618 0 .036-.11-.074-.212-.18-.259-.104-.046-.229-.08-.283-.181-.107-.209.171-.499.052-.679-.138-.216-.362-.007-.542.081z" opacity=".2"/>
      <path d="M46.007 19.707a.15.15 0 0 1-.07.021c-.043 0-.075-.045-.093-.084-.099-.216-.042-.497-.195-.679a2.338 2.338 0 0 0-.375.62l-.585-.181a.87.87 0 0 0 .112.67.864.864 0 0 0-.275.186.3.3 0 0 0-.072.308c.135.033.274.047.413.042-.023.256-.008.514.043.765.003.038.02.073.05.098a.15.15 0 0 0 .142-.023c.202-.125.368-.3.481-.509l.216.518c.016.054.05.1.097.13a.15.15 0 0 0 .183-.063.441.441 0 0 0 .063-.197l.081-.493a.14.14 0 0 1 .027-.07.125.125 0 0 1 .087-.024c.206 0 .412-.008.617 0 .037-.11-.073-.212-.178-.259-.105-.046-.232-.08-.284-.181-.107-.209.171-.499.052-.679-.133-.213-.357-.004-.537.084z" opacity=".3"/>
      <path d="M42.57 9.994a.15.15 0 0 1-.07.021c-.044 0-.074-.045-.092-.086-.1-.214-.042-.495-.196-.677-.155.187-.28.396-.37.622l-.585-.18a.865.865 0 0 0 .111.668.876.876 0 0 0-.275.188.3.3 0 0 0-.072.307c.135.033.273.047.412.042-.021.257-.006.514.045.766.003.038.02.073.05.098.042.027.099 0 .142-.024.202-.125.367-.3.48-.51l.217.519c.016.053.05.1.096.13a.15.15 0 0 0 .182-.063.45.45 0 0 0 .065-.196l.08-.493a.128.128 0 0 1 .028-.07.125.125 0 0 1 .087-.024c.206 0 .411-.01.617-.008.035-.108-.073-.21-.18-.257-.107-.046-.23-.08-.282-.183-.109-.209.17-.498.052-.677-.141-.21-.366-.002-.542.087z" opacity=".2"/>
      <path d="M49.343 22.67a.137.137 0 0 1-.07.02c-.043 0-.073-.044-.092-.085-.1-.216-.043-.495-.196-.677-.155.187-.28.396-.37.622l-.584-.18a.865.865 0 0 0 .11.668.916.916 0 0 0-.275.186.3.3 0 0 0-.07.309c.134.033.273.047.411.04a2.74 2.74 0 0 0 .044.768.15.15 0 0 0 .05.097c.05.022.108.013.15-.024.201-.124.367-.3.48-.509l.216.518c.017.054.051.1.098.131a.158.158 0 0 0 .182-.063.468.468 0 0 0 .064-.197l.082-.494a.128.128 0 0 1 .027-.069.122.122 0 0 1 .085-.025c.206 0 .412-.008.618 0 .036-.11-.074-.21-.18-.257-.104-.047-.229-.081-.282-.183-.108-.209.17-.499.051-.677-.144-.217-.369-.01-.55.08z" opacity=".3"/>
    </g>
    <g>
      <path fill="url(#a)" fill-rule="nonzero" d="M106.757 97.896H82.635l-41.086 3.99-41.406-3.99V.137L41.377 3.13 83.5.137l41.208 5.653-1.057 75.072z" transform="translate(34 50)"/>
      <path fill="#FFF" fill-rule="nonzero" d="M139.972 146.536h-23.595L76.19 150.42l-40.5-3.883V51.42l40.332 2.912 41.202-2.912 40.306 5.5-1.035 73.044z"/>
      <path fill="#6C63FF" fill-rule="nonzero" d="M140.105 143.947h-24.851l-37.906 3.662-38.2-3.662V54.23l38.042 2.748 38.862-2.748 38.02 5.19v70.491z"/>
      <path d="M149.851 145.144H125l-37.907 3.662-38.2-3.662V55.426l38.043 2.746 38.863-2.746 38.018 5.187v70.492z"/>
      <path fill="#FFF" fill-rule="nonzero" d="M188.015 170.882L100.75 122.59l22.165-73.595-7.543-2.99L104.63 81.67 19.048 34.308l-3.468 8.246 86.426 47.828-19.73 65.515 7.542 2.99 8.308-27.586 86.42 47.827z"/>
      <path fill="#000" fill-rule="nonzero" opacity=".1" d="M77.19 147.61l38.041-3.663V54.23L77.19 56.977"/>
      <path fill="url(#b)" fill-rule="nonzero" d="M104.344 96.388l.293-18.518 17.857.72z" transform="translate(34 50)"/>
      <path fill="#FFF" fill-rule="nonzero" d="M139.972 146.388l.266-17.089 16.256.665z"/>
      <path d="M126.331 81.965l-4.39-4.407a2.333 2.333 0 0 0-3.31-.023l-27.568 27.286-11.656-11.726a2.327 2.327 0 0 0-3.287-.024l-4.437 4.382a2.348 2.348 0 0 0-.023 3.305l17.702 17.81a2.359 2.359 0 0 0 3.31.023l33.634-33.322a2.325 2.325 0 0 0 .025-3.304z" fill="#3ACC6C" fill-rule="nonzero"/>
    </g>
  </g>
</svg>