<svg xmlns="http://www.w3.org/2000/svg" width="18" height="18">
  <path d="M0 0h18v18H0z" fill="transparent"/>
  <path d="M2.98 11.77l1.39-1.39-.23-.23a.33.33 0 0 1 0-.46L9.7 4.12a.33.33 0 0 1 .46 0l.23.24 1.4-1.4-.24-.23a2.35 2.35 0 0 0-3.24 0L2.74 8.3a2.28 2.28 0 0 0 0 3.25zm12.05-5.56l-1.4 1.39.24.23c.13.13.13.34 0 .46l-5.56 5.57a.33.33 0 0 1-.47 0l-.23-.24-1.39 1.4.23.23a2.28 2.28 0 0 0 3.25 0l5.56-5.56c.9-.9.9-2.35 0-3.25zm-1.16-3.48l1.4 1.4-4.64 4.63-1.4-1.4zm-6.49 6.5l1.4 1.38-4.64 4.64-1.4-1.4z" fill="#2E3C43"/>
</svg>