<svg xmlns="http://www.w3.org/2000/svg" width="18" height="18">
  <path d="M0-.002h18V18H0z" fill="transparent"/>
  <path d="M12 14.25c0-.828.672-1.5 1.5-1.5s1.5.672 1.5 1.5-.672 1.5-1.5 1.5-1.5-.672-1.5-1.5zM3 14.25c0-.828.672-1.5 1.5-1.5s1.5.672 1.5 1.5-.672 1.5-1.5 1.5-1.5-.672-1.5-1.5z" fill="#2E3C43"/>
  <path d="M16.5 3.75h-15c-.828 0-1.5.672-1.5 1.5v8.25c0 .414.336.75.75.75h1.5c.032-1.22 1.03-2.193 2.25-2.193s2.218.973 2.25 2.193h4.5c.032-1.22 1.03-2.193 2.25-2.193s2.218.973 2.25 2.193h1.5c.414 0 .75-.336.75-.75V5.25c0-.828-.672-1.5-1.5-1.5zM5.25 8.25L1.5 10.5V6h3.75zm3.75 0H6.75V6H9zm3.75 0H10.5V6h2.25zm3.75 0h-2.25V6h2.25z" fill="#2E3C43"/>
</svg>