<svg width="44" height="20" xmlns="http://www.w3.org/2000/svg">
  <g fill="none" fill-rule="evenodd">
    <path fill="#000" d="M.124 16.162h1.182v-.311H.56v-.374h.679v-.312H.56v-.34h.719v-.313H.124v1.65M1.773 16.12a1.7 1.7 0 00.489.07c.364 0 .72-.115.72-.543 0-.596-.774-.416-.774-.683 0-.145.183-.154.293-.154.125 0 .252.023.364.076l.028-.34a1.376 1.376 0 00-.422-.062c-.329 0-.714.108-.714.506 0 .6.775.406.775.714 0 .132-.131.16-.27.16a.955.955 0 01-.452-.108l-.037.364M3.465 16.162H3.9v-.652h.092c.162 0 .218.07.308.355l.094.297h.455l-.16-.449c-.082-.2-.09-.326-.232-.364v-.005c.211-.05.315-.196.315-.416 0-.283-.238-.416-.529-.416h-.78v1.65zm.436-1.338h.116c.167 0 .319.029.319.182 0 .187-.179.192-.32.192h-.115v-.374z"/>
    <path stroke="#000" stroke-width=".95" d="M5.518 16.162v-1.65"/>
    <path d="M14.01 15.972h-2.83v1.376h.912c-.106.44-.64.731-1.061.731-1.043 0-1.323-.82-1.323-1.72 0-1.12.386-1.86 1.2-1.86.535 0 .912.282 1.06.802h1.964c-.254-1.561-1.473-2.355-2.988-2.355-2.042 0-3.305 1.393-3.305 3.422 0 2.215 1.447 3.264 3.06 3.264.99 0 1.559-.37 1.9-.776l.08.627h1.331v-3.511M15.261 19.465h2.069v-6.352H15.26zM23.866 14.957c-.15-1.112-.946-2.011-2.7-2.011-1.577 0-2.733.679-2.733 2.029 0 2.425 3.628 1.764 3.628 2.725 0 .3-.342.468-.859.468-.202 0-.42-.053-.587-.159a.722.722 0 01-.342-.503h-1.98c.043 1.147 1.13 2.126 2.795 2.126 1.735 0 2.953-.714 2.953-2.187 0-2.312-3.627-1.72-3.627-2.674 0-.229.2-.361.657-.361.2 0 .385.035.534.115.149.079.263.212.297.432h1.964" fill="#006BAD"/>
    <path d="M5.297 10.43h-1.16l.568-2.023.592 2.023zM3.576 12.35l.21-.745h1.83l.219.745h1.83l-2.01-5.646h-1.87l-2.008 5.646h1.799zM8.156 12.351h1.62v-1.42c0-.885.335-1.2.997-1.2.109 0 .225.032.334.048V8.148c-.07-.007-.14-.023-.21-.023-.63 0-1.028.306-1.254.948h-.015v-.831H8.156v4.109M15.881 9.81c-.116-1.215-1.145-1.685-2.235-1.685-1.347 0-2.328.807-2.328 2.21 0 1.389 1.012 2.133 2.328 2.133.569 0 1.098-.117 1.503-.384.413-.274.693-.706.763-1.325h-1.635c-.046.321-.21.611-.63.611-.476 0-.71-.407-.71-1.026 0-.487.102-1.122.71-1.122.178 0 .318.055.42.165a.615.615 0 01.17.423h1.644M24.102 13.543v-.597h-.214v-.078h.53v.078h-.213v.597h-.103zm.461 0v-.675h.166l.2.52.198-.52h.166v.675h-.103v-.587h-.003l-.225.587h-.07l-.223-.587h-.004v.587h-.102z" fill="#000"/>
    <path d="M34.982 15.874c-2.092-.322-3.809-1.31-5.141-3.455-1.638-2.638-.643-5.976-.412-6.623-.455.988-.29 3.442.237 5.193 1.277 4.25 6.516 5.23 9.264 4.086 3.149-1.31 3.569-3.45 4.055-5.413.13-.535.51-1.494.312-2.5.924 3.436-1.115 6.997-3.76 8.165-1.325.585-3.086.773-4.555.547" fill="#FFF"/>
    <path d="M29.842 12.413c-1.638-2.639-.642-5.977-.411-6.623-.455.987-.29 3.441.237 5.192 1.276 4.25 6.516 5.23 9.263 4.086 3.148-1.31 3.57-3.451 4.055-5.414.13-.533.508-1.495.31-2.5.925 3.435-1.113 6.998-3.759 8.167-1.324.584-3.085.772-4.554.546-2.091-.323-3.808-1.31-5.14-3.454" fill="#FEFEFE"/>
    <path d="M29.843 12.405c-1.637-2.638-.641-5.976-.41-6.623-.455.987-.29 3.442.235 5.193 1.277 4.25 6.517 5.23 9.264 4.086 3.149-1.31 3.57-3.451 4.056-5.413.13-.535.505-1.498.308-2.503.924 3.435-1.112 7-3.757 8.168-1.324.585-3.085.773-4.555.546-2.09-.322-3.808-1.309-5.14-3.454" fill="#FDFDFC"/>
    <path d="M29.845 12.398c-1.638-2.638-.64-5.976-.41-6.623-.455.987-.292 3.442.234 5.193 1.278 4.25 6.517 5.23 9.265 4.086 3.148-1.311 3.568-3.45 4.054-5.414.131-.533.504-1.498.307-2.504.924 3.436-1.11 7.002-3.755 8.17-1.324.585-3.085.773-4.554.547-2.092-.322-3.81-1.31-5.141-3.455" fill="#FCFAFA"/>
    <path d="M29.846 12.39c-1.638-2.637-.64-5.976-.407-6.623-.457.988-.294 3.443.232 5.195 1.277 4.25 6.516 5.229 9.263 4.085 3.15-1.31 3.57-3.451 4.056-5.413.13-.534.501-1.5.304-2.506.924 3.436-1.107 7.004-3.753 8.172-1.324.584-3.085.772-4.554.546-2.091-.323-3.809-1.31-5.14-3.455" fill="#FBF9F8"/>
    <path d="M29.847 12.384c-1.638-2.638-.639-5.977-.407-6.623-.456.987-.294 3.442.232 5.193 1.277 4.25 6.517 5.23 9.263 4.086 3.15-1.311 3.57-3.451 4.056-5.414.13-.533.5-1.5.303-2.507.923 3.436-1.105 7.005-3.752 8.174-1.324.584-3.085.772-4.554.545-2.091-.321-3.809-1.31-5.14-3.454" fill="#FAF8F7"/>
    <path d="M29.848 12.378c-1.638-2.639-.637-5.978-.406-6.625-.455.988-.295 3.443.231 5.194 1.278 4.25 6.516 5.23 9.264 4.086 3.149-1.31 3.57-3.451 4.055-5.414.13-.533.498-1.502.3-2.508.924 3.436-1.103 7.007-3.749 8.175-1.323.584-3.084.772-4.553.545-2.092-.321-3.81-1.309-5.142-3.453" fill="#F7F6F4"/>
    <path d="M29.85 12.37c-1.639-2.638-.637-5.977-.405-6.624-.456.987-.297 3.443.23 5.194 1.277 4.25 6.516 5.23 9.263 4.086 3.149-1.311 3.57-3.451 4.056-5.414.13-.534.495-1.504.298-2.51.924 3.437-1.101 7.008-3.747 8.176-1.324.585-3.086.773-4.555.547-2.091-.322-3.808-1.31-5.14-3.455" fill="#F6F5F2"/>
    <path d="M29.85 12.363c-1.637-2.638-.635-5.977-.404-6.624-.455.988-.297 3.443.23 5.194 1.277 4.25 6.516 5.23 9.263 4.086 3.15-1.31 3.57-3.451 4.055-5.414.131-.534.494-1.505.297-2.511.924 3.436-1.099 7.01-3.745 8.177-1.324.585-3.085.773-4.554.547-2.092-.323-3.81-1.31-5.141-3.455" fill="#F5F3F1"/>
    <path d="M29.852 12.356c-1.638-2.638-.634-5.977-.403-6.624-.456.987-.299 3.443.228 5.194 1.277 4.25 6.516 5.23 9.264 4.086 3.148-1.31 3.57-3.451 4.055-5.414.131-.534.491-1.507.294-2.512.924 3.435-1.097 7.01-3.743 8.179-1.324.584-3.085.772-4.554.546-2.092-.323-3.81-1.31-5.14-3.455" fill="#F4F2F0"/>
    <path d="M29.853 12.35c-1.638-2.639-.633-5.979-.402-6.625-.455.987-.3 3.443.227 5.194 1.277 4.25 6.517 5.23 9.263 4.086 3.15-1.311 3.57-3.451 4.056-5.413.13-.534.49-1.51.292-2.515.924 3.436-1.095 7.012-3.74 8.18-1.324.585-3.086.773-4.555.547-2.091-.323-3.809-1.31-5.14-3.455" fill="#F3F1ED"/>
    <path d="M29.855 12.342c-1.638-2.638-.633-5.978-.401-6.625-.456.988-.3 3.444.226 5.195 1.276 4.25 6.516 5.23 9.263 4.086 3.149-1.31 3.57-3.45 4.055-5.414.131-.534.488-1.51.29-2.515.925 3.435-1.093 7.013-3.738 8.181-1.324.585-3.086.773-4.554.547-2.092-.322-3.81-1.31-5.141-3.455" fill="#F2EFEC"/>
    <path d="M29.856 12.335c-1.638-2.638-.632-5.978-.4-6.625-.456.988-.302 3.444.225 5.195 1.277 4.25 6.516 5.23 9.264 4.086 3.148-1.31 3.569-3.451 4.054-5.413.131-.534.486-1.512.288-2.518.924 3.436-1.09 7.015-3.736 8.183-1.324.585-3.085.773-4.554.547-2.092-.323-3.809-1.31-5.141-3.455" fill="#F1EEEA"/>
    <path d="M29.857 12.328c-1.638-2.638-.63-5.978-.399-6.625-.455.988-.302 3.444.224 5.195 1.277 4.25 6.516 5.23 9.264 4.086 3.148-1.311 3.569-3.45 4.055-5.414.13-.533.483-1.513.285-2.518.925 3.436-1.088 7.016-3.734 8.184-1.324.585-3.085.773-4.554.546-2.091-.321-3.809-1.31-5.141-3.454" fill="#F0ECE9"/>
    <path d="M29.858 12.321c-1.638-2.638-.629-5.978-.398-6.625-.455.987-.304 3.444.223 5.195 1.277 4.25 6.516 5.23 9.264 4.086 3.149-1.311 3.569-3.451 4.055-5.414.13-.533.48-1.514.284-2.52.924 3.436-1.087 7.018-3.732 8.187-1.324.584-3.086.772-4.555.546-2.091-.322-3.81-1.31-5.141-3.455" fill="#EFEBE8"/>
    <path d="M29.86 12.314c-1.638-2.638-.628-5.979-.397-6.625-.456.988-.305 3.444.221 5.195 1.278 4.25 6.517 5.23 9.264 4.086 3.148-1.31 3.57-3.45 4.055-5.414.13-.534.479-1.515.282-2.521.924 3.436-1.085 7.02-3.73 8.188-1.325.584-3.085.771-4.555.545-2.091-.322-3.808-1.309-5.14-3.454" fill="#EEEAE6"/>
    <path d="M29.86 12.307c-1.637-2.638-.627-5.978-.395-6.625-.456.987-.306 3.444.22 5.195 1.278 4.25 6.517 5.23 9.264 4.086 3.15-1.311 3.57-3.451 4.056-5.414.13-.534.476-1.517.279-2.522.924 3.435-1.082 7.02-3.728 8.188-1.324.585-3.085.773-4.554.547-2.092-.323-3.81-1.31-5.141-3.455" fill="#EDE9E5"/>
    <path d="M29.862 12.3c-1.638-2.638-.626-5.979-.395-6.626-.456.988-.307 3.445.22 5.196 1.277 4.25 6.516 5.23 9.264 4.086 3.148-1.31 3.568-3.451 4.054-5.414.132-.534.475-1.518.278-2.524.924 3.436-1.08 7.022-3.726 8.19-1.324.585-3.085.772-4.554.546-2.092-.322-3.809-1.309-5.14-3.454" fill="#ECE8E4"/>
    <path d="M29.863 12.293c-1.638-2.638-.625-5.979-.394-6.626-.455.988-.307 3.445.219 5.196 1.277 4.25 6.517 5.23 9.263 4.086 3.15-1.31 3.57-3.451 4.056-5.414.13-.533.472-1.52.275-2.525.924 3.435-1.078 7.023-3.724 8.191-1.323.585-3.085.773-4.554.547-2.091-.323-3.809-1.31-5.14-3.455" fill="#EAE5E0"/>
    <path d="M29.865 12.286c-1.639-2.638-.625-5.979-.394-6.626-.455.988-.308 3.445.218 5.196 1.278 4.25 6.517 5.23 9.264 4.086 3.149-1.31 3.57-3.451 4.055-5.414.131-.534.47-1.521.273-2.527.924 3.436-1.076 7.025-3.722 8.193-1.323.585-3.085.772-4.554.546-2.091-.322-3.809-1.309-5.14-3.454" fill="#E9E4DF"/>
    <path d="M29.866 12.28c-1.639-2.639-.623-5.98-.392-6.627-.456.987-.31 3.445.216 5.196 1.278 4.25 6.516 5.23 9.264 4.086 3.148-1.31 3.57-3.451 4.055-5.414.131-.534.47-1.523.272-2.528.924 3.436-1.074 7.026-3.72 8.195-1.324.584-3.085.772-4.555.545-2.091-.321-3.808-1.309-5.14-3.454" fill="#E8E3DD"/>
    <path d="M29.867 12.272c-1.639-2.638-.623-5.98-.39-6.627-.456.988-.312 3.446.215 5.197 1.277 4.25 6.516 5.23 9.263 4.086 3.149-1.311 3.57-3.451 4.055-5.414.131-.534.467-1.524.27-2.53.924 3.436-1.072 7.028-3.718 8.197-1.324.584-3.085.771-4.554.546-2.092-.323-3.81-1.31-5.141-3.455" fill="#E7E2DC"/>
    <path d="M29.868 12.265c-1.638-2.638-.621-5.98-.39-6.627-.456.988-.311 3.446.215 5.197 1.277 4.25 6.516 5.23 9.263 4.086 3.15-1.311 3.57-3.451 4.056-5.414.13-.534.464-1.526.267-2.53.924 3.435-1.07 7.028-3.715 8.196-1.325.585-3.086.773-4.555.546-2.092-.321-3.809-1.31-5.141-3.454" fill="#E6E1DB"/>
    <path d="M29.87 12.258c-1.638-2.638-.621-5.98-.39-6.627-.455.988-.312 3.446.214 5.197 1.277 4.25 6.517 5.23 9.264 4.086 3.149-1.311 3.57-3.451 4.055-5.414.131-.534.463-1.527.265-2.533.924 3.436-1.068 7.031-3.713 8.2-1.324.584-3.086.772-4.555.546-2.091-.322-3.81-1.31-5.14-3.455" fill="#E4DFD9"/>
    <path d="M29.87 12.251c-1.637-2.638-.619-5.98-.387-6.627-.456.987-.314 3.446.212 5.197 1.277 4.25 6.517 5.23 9.264 4.085 3.149-1.31 3.57-3.45 4.055-5.413.13-.534.46-1.528.263-2.534.924 3.436-1.066 7.032-3.71 8.2-1.325.585-3.087.773-4.555.546-2.092-.322-3.81-1.31-5.142-3.454" fill="#E3DDD8"/>
    <path d="M29.872 12.244c-1.639-2.638-.618-5.98-.387-6.627-.456.987-.314 3.446.212 5.197 1.277 4.25 6.516 5.23 9.263 4.086 3.149-1.311 3.57-3.451 4.055-5.414.131-.534.46-1.53.262-2.536.924 3.436-1.064 7.034-3.71 8.202-1.324.585-3.086.773-4.554.547-2.092-.323-3.81-1.31-5.141-3.455" fill="#E2DCD7"/>
    <path d="M29.873 12.237c-1.638-2.638-.617-5.98-.386-6.627-.455.987-.316 3.446.21 5.197 1.278 4.25 6.517 5.23 9.265 4.086 3.148-1.31 3.569-3.451 4.054-5.414.132-.534.457-1.531.26-2.537.924 3.436-1.062 7.035-3.708 8.203-1.324.585-3.085.773-4.554.547-2.092-.322-3.81-1.31-5.141-3.455" fill="#E1DBD5"/>
    <path d="M29.875 12.23c-1.639-2.638-.617-5.98-.385-6.627-.456.987-.317 3.446.209 5.197 1.278 4.25 6.516 5.23 9.264 4.086 3.148-1.311 3.569-3.451 4.055-5.414.13-.534.454-1.533.257-2.539.924 3.436-1.06 7.037-3.706 8.205-1.324.585-3.085.773-4.554.547-2.092-.323-3.808-1.31-5.14-3.455" fill="#E0DAD4"/>
    <path d="M29.875 12.223c-1.638-2.638-.615-5.98-.383-6.628-.456.988-.318 3.447.208 5.198 1.278 4.25 6.517 5.23 9.264 4.086 3.149-1.31 3.57-3.451 4.055-5.414.13-.534.452-1.534.255-2.54.924 3.436-1.057 7.038-3.703 8.206-1.325.585-3.086.772-4.555.546-2.091-.322-3.809-1.31-5.14-3.454" fill="#DFD8D1"/>
    <path d="M29.877 12.216c-1.638-2.638-.614-5.981-.383-6.628-.456.988-.319 3.447.207 5.198 1.278 4.25 6.517 5.23 9.264 4.086 3.149-1.311 3.57-3.451 4.055-5.414.131-.533.45-1.536.253-2.541.924 3.435-1.056 7.04-3.701 8.207-1.324.585-3.085.773-4.555.547-2.09-.323-3.808-1.31-5.14-3.455" fill="#DED7D0"/>
    <path d="M29.878 12.209c-1.638-2.638-.613-5.981-.382-6.628-.456.988-.32 3.447.207 5.198 1.277 4.25 6.516 5.23 9.263 4.086 3.149-1.31 3.57-3.451 4.055-5.414.131-.534.448-1.537.25-2.543.925 3.437-1.052 7.041-3.698 8.209-1.324.585-3.085.772-4.554.546-2.092-.322-3.81-1.309-5.14-3.454" fill="#DCD5CF"/>
    <path d="M29.88 12.202c-1.639-2.638-.613-5.981-.382-6.628-.455.987-.32 3.447.206 5.198 1.277 4.25 6.516 5.23 9.263 4.086 3.15-1.311 3.57-3.451 4.056-5.414.131-.534.446-1.539.248-2.544.925 3.435-1.05 7.042-3.697 8.21-1.324.585-3.085.773-4.554.546-2.092-.322-3.809-1.31-5.14-3.454" fill="#DBD4CD"/>
    <path d="M29.88 12.195c-1.638-2.638-.61-5.982-.38-6.628-.455.987-.322 3.447.205 5.198 1.277 4.25 6.516 5.23 9.264 4.086 3.149-1.31 3.57-3.451 4.055-5.414.13-.534.444-1.54.247-2.546.924 3.436-1.05 7.044-3.695 8.212-1.324.585-3.086.773-4.555.546-2.092-.322-3.809-1.309-5.14-3.454" fill="#DAD3CC"/>
    <path d="M29.882 12.188c-1.639-2.638-.611-5.982-.38-6.629-.455.988-.322 3.448.204 5.199 1.278 4.25 6.517 5.23 9.264 4.086 3.149-1.311 3.57-3.452 4.055-5.414.131-.534.442-1.541.245-2.547.923 3.435-1.047 7.045-3.694 8.213-1.323.585-3.085.773-4.553.547-2.092-.323-3.81-1.31-5.141-3.455" fill="#D9D1CA"/>
    <path d="M29.883 12.181c-1.638-2.638-.609-5.982-.378-6.629-.456.988-.324 3.448.202 5.199 1.278 4.25 6.517 5.23 9.264 4.086 3.149-1.311 3.57-3.451 4.056-5.414.13-.534.44-1.543.242-2.549.924 3.437-1.046 7.047-3.691 8.215-1.324.585-3.085.773-4.554.546-2.092-.322-3.81-1.309-5.141-3.454" fill="#D8D0C9"/>
    <path d="M29.884 12.174c-1.638-2.638-.608-5.982-.377-6.629-.455.987-.324 3.448.201 5.199 1.278 4.25 6.517 5.23 9.264 4.085 3.149-1.31 3.57-3.45 4.055-5.413.131-.534.438-1.544.241-2.55.924 3.436-1.043 7.048-3.689 8.216-1.324.585-3.086.772-4.554.546-2.092-.322-3.81-1.309-5.141-3.454" fill="#D7CFC8"/>
    <path d="M29.885 12.167c-1.638-2.638-.607-5.982-.376-6.629-.455.987-.326 3.448.201 5.199 1.277 4.25 6.517 5.23 9.264 4.086 3.148-1.311 3.569-3.451 4.055-5.414.13-.534.435-1.546.238-2.552.924 3.436-1.04 7.05-3.687 8.218-1.324.585-3.085.773-4.554.547-2.092-.323-3.81-1.31-5.14-3.455" fill="#D6CEC6"/>
    <path d="M29.886 12.16c-1.637-2.638-.606-5.982-.374-6.63-.456.988-.327 3.449.2 5.2 1.276 4.25 6.516 5.23 9.263 4.086 3.149-1.311 3.569-3.451 4.055-5.414.13-.534.433-1.547.236-2.553.924 3.436-1.039 7.05-3.684 8.22-1.324.584-3.086.772-4.555.545-2.091-.321-3.809-1.31-5.14-3.454" fill="#D5CDC5"/>
    <path d="M29.888 12.153c-1.638-2.638-.605-5.983-.374-6.63-.456.988-.328 3.449.198 5.2 1.278 4.25 6.517 5.23 9.264 4.085 3.149-1.31 3.569-3.45 4.056-5.413.13-.533.43-1.549.234-2.554.923 3.435-1.038 7.052-3.683 8.22-1.324.585-3.086.773-4.554.547-2.092-.323-3.81-1.31-5.141-3.455" fill="#D3CBC4"/>
    <path d="M29.889 12.146c-1.638-2.638-.604-5.983-.373-6.63-.455.988-.328 3.448.198 5.2 1.276 4.25 6.516 5.23 9.263 4.086 3.149-1.311 3.57-3.452 4.056-5.414.13-.534.429-1.55.231-2.556.925 3.436-1.034 7.054-3.68 8.222-1.324.585-3.086.772-4.554.546-2.092-.322-3.809-1.31-5.141-3.454" fill="#D2CAC2"/>
    <path d="M29.89 12.14c-1.638-2.64-.602-5.984-.371-6.63-.456.987-.33 3.448.196 5.2 1.277 4.249 6.516 5.229 9.264 4.085 3.149-1.311 3.569-3.451 4.055-5.414.13-.534.427-1.552.23-2.558.924 3.436-1.033 7.056-3.679 8.224-1.324.584-3.085.773-4.554.547-2.092-.323-3.809-1.31-5.14-3.455" fill="#D1C9C1"/>
    <path d="M29.892 12.132c-1.639-2.638-.602-5.983-.371-6.63-.456.987-.331 3.449.195 5.2 1.277 4.25 6.517 5.23 9.264 4.085 3.148-1.31 3.57-3.45 4.055-5.413.13-.534.425-1.553.228-2.558.924 3.435-1.03 7.056-3.677 8.224-1.324.585-3.085.772-4.554.546-2.091-.322-3.809-1.31-5.14-3.454" fill="#D0C8BF"/>
    <path d="M29.893 12.125c-1.638-2.638-.601-5.984-.37-6.63-.455.987-.332 3.449.194 5.2 1.278 4.25 6.517 5.23 9.264 4.086 3.149-1.311 3.57-3.451 4.055-5.414.131-.534.423-1.554.226-2.56.924 3.436-1.029 7.058-3.674 8.226-1.324.584-3.085.773-4.555.546-2.091-.322-3.809-1.31-5.14-3.454" fill="#CEC6BE"/>
    <path d="M29.894 12.117c-1.639-2.637-.6-5.982-.369-6.63-.455.988-.333 3.45.193 5.201 1.278 4.25 6.517 5.23 9.264 4.086 3.149-1.311 3.57-3.451 4.056-5.414.13-.534.42-1.556.223-2.562.925 3.437-1.026 7.06-3.672 8.228-1.324.585-3.086.772-4.554.546-2.092-.322-3.81-1.309-5.141-3.455" fill="#CDC4BC"/>
    <path d="M29.895 12.11c-1.638-2.637-.6-5.983-.368-6.63-.455.988-.334 3.45.193 5.2 1.277 4.25 6.516 5.23 9.263 4.087 3.15-1.311 3.57-3.452 4.055-5.414.132-.534.42-1.557.223-2.563.924 3.436-1.025 7.06-3.671 8.23-1.324.584-3.085.771-4.555.545-2.09-.322-3.808-1.31-5.14-3.454" fill="#CCC3BB"/>
    <path d="M29.896 12.104c-1.638-2.638-.597-5.984-.366-6.63-.456.987-.335 3.449.19 5.2 1.278 4.25 6.517 5.23 9.265 4.086 3.149-1.311 3.569-3.451 4.055-5.414.13-.534.417-1.559.22-2.565.924 3.436-1.023 7.063-3.669 8.231-1.324.585-3.085.772-4.554.546-2.092-.322-3.81-1.31-5.14-3.454" fill="#CBC2BA"/>
    <path d="M29.897 12.097c-1.638-2.638-.596-5.984-.364-6.631-.457.988-.338 3.45.19 5.2 1.277 4.251 6.515 5.23 9.263 4.086 3.149-1.31 3.569-3.45 4.055-5.413.131-.534.415-1.56.217-2.566.925 3.436-1.02 7.064-3.665 8.232-1.324.585-3.086.772-4.555.546-2.091-.322-3.809-1.31-5.14-3.454" fill="#CAC1B9"/>
    <path d="M29.899 12.09c-1.639-2.638-.596-5.984-.365-6.631-.455.987-.337 3.45.19 5.2 1.276 4.25 6.516 5.23 9.263 4.087 3.149-1.311 3.57-3.451 4.055-5.414.131-.534.413-1.562.216-2.567.924 3.435-1.018 7.065-3.664 8.233-1.324.585-3.086.772-4.554.546-2.092-.322-3.81-1.309-5.141-3.454" fill="#C9C0B7"/>
    <path d="M29.9 12.083c-1.638-2.638-.595-5.984-.364-6.631-.455.987-.338 3.45.189 5.2 1.277 4.25 6.516 5.23 9.264 4.087 3.148-1.311 3.569-3.452 4.055-5.414.13-.534.41-1.563.212-2.57.925 3.437-1.015 7.068-3.66 8.236-1.325.585-3.086.772-4.555.546-2.092-.322-3.81-1.31-5.141-3.454" fill="#C8BFB6"/>
    <path d="M29.901 12.076c-1.638-2.638-.593-5.985-.362-6.631-.456.987-.34 3.45.187 5.2 1.277 4.25 6.516 5.23 9.264 4.087 3.148-1.311 3.569-3.452 4.054-5.414.132-.534.41-1.565.212-2.57.925 3.435-1.014 7.068-3.66 8.236-1.324.585-3.085.773-4.554.546-2.092-.322-3.809-1.309-5.141-3.454" fill="#C7BEB4"/>
    <path d="M29.902 12.069c-1.638-2.638-.592-5.985-.361-6.631-.456.987-.34 3.45.186 5.2 1.277 4.25 6.516 5.23 9.264 4.086 3.149-1.31 3.57-3.45 4.055-5.413.13-.534.407-1.566.21-2.572.923 3.436-1.013 7.07-3.658 8.238-1.324.585-3.086.772-4.555.546-2.09-.322-3.809-1.31-5.14-3.454" fill="#C6BDB4"/>
    <path d="M29.903 12.062c-1.637-2.638-.591-5.985-.36-6.632-.455.988-.341 3.45.185 5.202 1.278 4.25 6.517 5.23 9.264 4.086 3.149-1.311 3.569-3.451 4.055-5.414.131-.534.404-1.567.207-2.573.924 3.436-1.01 7.07-3.655 8.239-1.325.585-3.086.773-4.554.546-2.092-.322-3.81-1.31-5.142-3.454" fill="#C5BCB3"/>
    <path d="M29.905 12.054c-1.638-2.637-.59-5.984-.36-6.631-.455.987-.342 3.45.185 5.202 1.277 4.25 6.516 5.23 9.263 4.085 3.149-1.31 3.57-3.45 4.056-5.413.13-.534.402-1.57.204-2.575.925 3.436-1.008 7.073-3.653 8.24-1.324.586-3.086.773-4.555.547-2.09-.322-3.808-1.31-5.14-3.455" fill="#C4BAB1"/>
    <path d="M29.906 12.048c-1.638-2.638-.59-5.985-.358-6.632-.456.987-.343 3.45.183 5.202 1.277 4.25 6.516 5.23 9.264 4.086 3.148-1.311 3.569-3.452 4.055-5.414.13-.534.4-1.57.203-2.576.924 3.436-1.006 7.074-3.652 8.242-1.324.585-3.085.773-4.554.546-2.092-.322-3.81-1.31-5.141-3.454" fill="#C2B9AF"/>
    <path d="M29.908 12.04c-1.639-2.637-.59-5.984-.358-6.631-.455.987-.345 3.45.182 5.202 1.277 4.25 6.516 5.23 9.264 4.086 3.149-1.311 3.569-3.451 4.055-5.414.131-.534.398-1.572.2-2.578.925 3.436-1.003 7.076-3.648 8.244-1.325.585-3.086.772-4.555.546-2.092-.322-3.81-1.31-5.14-3.454" fill="#C1B8AE"/>
    <path d="M29.909 12.034c-1.639-2.638-.588-5.986-.357-6.633-.455.988-.345 3.452.181 5.203 1.277 4.25 6.517 5.23 9.264 4.085 3.148-1.31 3.57-3.45 4.055-5.413.13-.534.396-1.573.2-2.579.923 3.436-1.002 7.077-3.648 8.245-1.324.585-3.086.772-4.555.546-2.091-.322-3.809-1.31-5.14-3.454" fill="#C0B7AD"/>
    <path d="M29.91 12.027c-1.638-2.639-.587-5.986-.355-6.632-.457.987-.347 3.45.18 5.202 1.277 4.25 6.516 5.229 9.263 4.086 3.149-1.311 3.57-3.451 4.056-5.414.13-.534.394-1.575.196-2.58.924 3.435-1 7.078-3.645 8.246-1.324.584-3.085.772-4.554.546-2.092-.322-3.81-1.31-5.141-3.454" fill="#BFB6AC"/>
    <path d="M29.911 12.02c-1.639-2.638-.585-5.986-.354-6.633-.456.988-.348 3.452.179 5.203 1.277 4.25 6.516 5.23 9.263 4.086 3.149-1.311 3.57-3.452 4.055-5.414.132-.534.393-1.576.195-2.582.924 3.436-.997 7.08-3.643 8.248-1.324.584-3.086.772-4.554.546-2.092-.322-3.809-1.31-5.14-3.454" fill="#BEB4AA"/>
    <path d="M29.912 12.013c-1.638-2.638-.585-5.986-.353-6.633-.456.987-.349 3.452.178 5.203 1.277 4.25 6.516 5.23 9.263 4.086 3.15-1.311 3.57-3.451 4.056-5.414.13-.534.39-1.578.193-2.584.924 3.437-.996 7.082-3.642 8.25-1.324.585-3.085.772-4.554.546-2.091-.322-3.809-1.31-5.14-3.454" fill="#BDB3A9"/>
    <path d="M29.914 12.006c-1.639-2.638-.584-5.987-.353-6.633-.455.987-.349 3.452.177 5.203 1.277 4.25 6.516 5.23 9.264 4.086 3.148-1.312 3.57-3.452 4.055-5.414.13-.534.388-1.58.191-2.585.924 3.436-.994 7.083-3.64 8.251-1.323.584-3.085.772-4.554.546-2.092-.322-3.81-1.31-5.14-3.454" fill="#BCB2A8"/>
    <path d="M29.914 11.998c-1.637-2.637-.582-5.985-.35-6.632-.456.987-.35 3.452.176 5.203 1.277 4.25 6.516 5.23 9.263 4.085 3.149-1.31 3.57-3.45 4.056-5.413.13-.534.385-1.58.188-2.586.924 3.436-.991 7.084-3.637 8.252-1.325.585-3.086.773-4.555.546-2.091-.322-3.809-1.309-5.14-3.455" fill="#BBB1A7"/>
    <path d="M29.916 11.992c-1.638-2.639-.581-5.987-.35-6.634-.456.988-.352 3.453.175 5.203 1.277 4.25 6.516 5.23 9.263 4.087 3.149-1.312 3.57-3.452 4.055-5.414.131-.534.384-1.582.187-2.588.924 3.436-.99 7.086-3.635 8.254-1.324.584-3.086.772-4.554.546-2.092-.322-3.81-1.31-5.141-3.454" fill="#BAB1A6"/>
    <path d="M29.917 11.985c-1.638-2.638-.58-5.987-.35-6.634-.455.988-.352 3.453.175 5.204 1.277 4.25 6.516 5.23 9.264 4.086 3.148-1.311 3.568-3.451 4.054-5.414.132-.534.383-1.583.185-2.59.924 3.437-.987 7.088-3.633 8.256-1.324.585-3.086.772-4.554.546-2.092-.322-3.81-1.31-5.141-3.454" fill="#B9AFA5"/>
    <path d="M29.918 11.978c-1.638-2.638-.58-5.987-.348-6.634-.455.987-.353 3.452.173 5.204 1.277 4.25 6.517 5.23 9.264 4.086 3.148-1.311 3.569-3.452 4.055-5.414.13-.534.38-1.585.182-2.59.925 3.435-.985 7.087-3.63 8.256-1.324.585-3.086.772-4.555.546-2.092-.322-3.809-1.31-5.141-3.454" fill="#B9AEA4"/>
    <path d="M29.92 11.97c-1.638-2.637-.579-5.986-.347-6.633-.456.987-.355 3.453.17 5.204 1.278 4.25 6.518 5.23 9.265 4.085 3.149-1.31 3.569-3.45 4.055-5.413.13-.534.378-1.586.18-2.592.925 3.436-.983 7.09-3.628 8.258-1.324.585-3.086.773-4.555.546-2.091-.322-3.809-1.31-5.14-3.454" fill="#B7ADA3"/>
    <path d="M29.92 11.964c-1.638-2.638-.576-5.988-.346-6.634-.455.987-.355 3.452.171 5.204 1.278 4.25 6.517 5.23 9.264 4.086 3.149-1.311 3.57-3.452 4.055-5.414.131-.534.376-1.588.18-2.594.923 3.436-.982 7.092-3.628 8.26-1.324.585-3.086.772-4.554.546-2.092-.322-3.81-1.31-5.141-3.454" fill="#B6ABA1"/>
    <path d="M29.922 11.957c-1.638-2.638-.576-5.988-.345-6.634-.456.987-.357 3.453.17 5.204 1.277 4.25 6.516 5.23 9.264 4.085 3.148-1.31 3.569-3.45 4.055-5.413.13-.534.373-1.589.175-2.595.925 3.436-.979 7.093-3.624 8.26-1.324.586-3.085.773-4.554.547-2.091-.322-3.81-1.31-5.14-3.454" fill="#B5ABA0"/>
    <path d="M29.923 11.95c-1.638-2.639-.575-5.988-.344-6.634-.455.987-.358 3.453.169 5.204 1.277 4.25 6.516 5.23 9.263 4.085 3.15-1.31 3.57-3.45 4.056-5.414.13-.533.371-1.59.174-2.596.924 3.436-.977 7.095-3.623 8.263-1.324.585-3.085.772-4.554.546-2.092-.322-3.809-1.31-5.14-3.455" fill="#B4A99F"/>
    <path d="M29.924 11.943c-1.638-2.638-.574-5.988-.342-6.635-.456.987-.36 3.454.167 5.205 1.277 4.25 6.517 5.23 9.263 4.086 3.15-1.311 3.57-3.451 4.056-5.414.131-.534.37-1.592.172-2.598.924 3.436-.975 7.096-3.62 8.264-1.325.584-3.086.773-4.555.546-2.092-.322-3.81-1.31-5.14-3.454" fill="#B3A89D"/>
    <path d="M29.925 11.936c-1.637-2.639-.573-5.989-.342-6.635-.455.987-.36 3.453.167 5.205 1.278 4.25 6.517 5.23 9.264 4.085 3.149-1.31 3.57-3.45 4.055-5.413.131-.534.367-1.593.17-2.6.924 3.437-.972 7.098-3.618 8.266-1.324.585-3.085.772-4.554.546-2.092-.322-3.81-1.31-5.142-3.454" fill="#B2A79D"/>
    <path d="M29.927 11.929c-1.639-2.639-.572-5.989-.342-6.635-.455.987-.36 3.454.166 5.204 1.278 4.25 6.517 5.23 9.264 4.086 3.15-1.31 3.57-3.45 4.055-5.413.131-.534.366-1.595.168-2.6.924 3.435-.97 7.098-3.616 8.266-1.324.585-3.086.772-4.554.546-2.092-.322-3.81-1.31-5.141-3.454" fill="#B1A79B"/>
    <path d="M29.928 11.922c-1.638-2.638-.571-5.989-.34-6.635-.456.987-.361 3.454.165 5.205 1.277 4.25 6.516 5.229 9.263 4.085 3.15-1.31 3.57-3.45 4.056-5.413.13-.534.363-1.596.165-2.602.925 3.436-.968 7.1-3.614 8.268-1.324.585-3.085.772-4.554.546-2.092-.322-3.81-1.31-5.141-3.454" fill="#B0A69B"/>
    <path d="M29.929 11.915c-1.638-2.638-.57-5.989-.338-6.636-.456.988-.363 3.454.162 5.205 1.278 4.25 6.517 5.23 9.264 4.086 3.15-1.31 3.57-3.45 4.056-5.413.13-.534.361-1.598.163-2.604.925 3.436-.966 7.101-3.611 8.27-1.325.584-3.086.772-4.555.546-2.092-.322-3.81-1.31-5.141-3.454" fill="#AFA499"/>
    <path d="M29.93 11.907c-1.638-2.637-.569-5.988-.338-6.635-.455.988-.363 3.455.163 5.206 1.277 4.25 6.517 5.229 9.264 4.085 3.148-1.31 3.57-3.45 4.055-5.413.131-.534.36-1.599.162-2.605.924 3.436-.965 7.103-3.61 8.271-1.325.584-3.086.772-4.555.546-2.092-.322-3.809-1.31-5.14-3.455" fill="#AFA398"/>
    <path d="M29.932 11.9c-1.638-2.637-.569-5.988-.337-6.635-.456.988-.365 3.454.161 5.206 1.278 4.25 6.516 5.23 9.264 4.086 3.149-1.311 3.57-3.452 4.055-5.414.131-.534.357-1.6.16-2.607.924 3.436-.963 7.105-3.608 8.273-1.324.584-3.085.772-4.555.546-2.09-.322-3.808-1.31-5.14-3.454" fill="#AEA398"/>
    <path d="M29.933 11.893c-1.638-2.637-.567-5.988-.336-6.635-.455.987-.365 3.455.16 5.205 1.278 4.25 6.517 5.23 9.264 4.086 3.149-1.31 3.57-3.45 4.056-5.413.13-.534.354-1.602.157-2.608.924 3.436-.96 7.106-3.606 8.274-1.324.585-3.086.772-4.554.546-2.091-.322-3.81-1.31-5.141-3.455" fill="#ADA297"/>
    <path d="M29.934 11.887c-1.638-2.639-.566-5.99-.335-6.637-.455.988-.366 3.455.16 5.207 1.277 4.25 6.516 5.23 9.264 4.085 3.148-1.31 3.569-3.45 4.055-5.413.13-.534.353-1.604.155-2.61.925 3.436-.958 7.108-3.604 8.276-1.324.584-3.085.772-4.554.546-2.092-.322-3.809-1.31-5.141-3.454" fill="#ABA095"/>
    <path d="M29.936 11.88c-1.639-2.638-.566-5.99-.334-6.636-.456.987-.368 3.454.158 5.206 1.277 4.249 6.517 5.23 9.264 4.085 3.149-1.31 3.57-3.45 4.055-5.413.13-.534.351-1.605.154-2.61.924 3.435-.957 7.108-3.602 8.275-1.325.586-3.086.773-4.555.547-2.091-.323-3.809-1.31-5.14-3.454" fill="#AA9F94"/>
    <path d="M29.937 11.872c-1.639-2.638-.564-5.989-.333-6.636-.456.988-.37 3.455.158 5.206 1.277 4.25 6.516 5.23 9.263 4.086 3.15-1.31 3.57-3.45 4.056-5.413.13-.534.348-1.607.15-2.612.925 3.435-.953 7.11-3.6 8.278-1.323.585-3.084.772-4.554.546-2.091-.322-3.809-1.31-5.14-3.455" fill="#A99E92"/>
    <path d="M29.938 11.866c-1.638-2.638-.563-5.99-.332-6.637-.456.988-.37 3.455.156 5.207 1.278 4.25 6.517 5.229 9.264 4.085 3.149-1.31 3.57-3.45 4.056-5.413.13-.534.347-1.608.15-2.614.923 3.436-.953 7.112-3.6 8.28-1.323.585-3.084.772-4.553.546-2.092-.322-3.81-1.31-5.141-3.454" fill="#A89D92"/>
    <path d="M29.939 11.858c-1.638-2.637-.562-5.99-.33-6.636-.456.988-.372 3.455.154 5.206 1.278 4.25 6.517 5.23 9.265 4.086 3.148-1.31 3.569-3.451 4.054-5.414.131-.533.345-1.608.148-2.614.924 3.436-.95 7.112-3.596 8.28-1.324.586-3.085.773-4.554.547-2.092-.322-3.81-1.31-5.141-3.455" fill="#A89C91"/>
    <path d="M29.94 11.852c-1.638-2.639-.56-5.99-.33-6.637-.455.987-.372 3.456.155 5.206 1.277 4.25 6.516 5.23 9.263 4.086 3.15-1.31 3.57-3.45 4.056-5.414.131-.533.342-1.61.145-2.615.924 3.435-.948 7.114-3.594 8.282-1.323.584-3.085.772-4.554.546-2.092-.322-3.809-1.31-5.14-3.454" fill="#A79C90"/>
    <path d="M29.941 11.845c-1.638-2.639-.56-5.99-.328-6.638-.455.988-.373 3.456.153 5.208 1.277 4.25 6.516 5.229 9.264 4.085 3.15-1.31 3.57-3.45 4.055-5.414.13-.533.34-1.61.143-2.617.924 3.436-.946 7.116-3.591 8.284-1.324.584-3.086.772-4.555.546-2.091-.322-3.809-1.31-5.14-3.454" fill="#A69A8F"/>
    <path d="M29.943 11.837c-1.639-2.637-.56-5.99-.328-6.636-.456.987-.374 3.456.152 5.207 1.277 4.25 6.517 5.23 9.264 4.085 3.149-1.31 3.57-3.45 4.055-5.413.131-.534.338-1.614.141-2.62.925 3.436-.944 7.118-3.59 8.286-1.323.584-3.085.772-4.553.546-2.092-.322-3.81-1.31-5.141-3.455" fill="#A59A8E"/>
    <path d="M29.944 11.83c-1.638-2.638-.559-5.99-.327-6.637-.455.988-.374 3.456.152 5.208 1.277 4.25 6.516 5.229 9.263 4.085 3.149-1.31 3.57-3.45 4.055-5.413.132-.534.337-1.615.14-2.62.924 3.435-.942 7.117-3.588 8.286-1.324.584-3.085.772-4.554.546-2.092-.322-3.81-1.31-5.141-3.455" fill="#A4998D"/>
    <path d="M29.945 11.824c-1.638-2.639-.557-5.991-.325-6.638-.456.987-.376 3.456.15 5.207 1.277 4.25 6.516 5.23 9.264 4.087 3.148-1.312 3.569-3.452 4.055-5.414.13-.534.334-1.617.136-2.623.925 3.436-.94 7.12-3.585 8.29-1.324.583-3.085.771-4.554.545-2.092-.322-3.809-1.31-5.141-3.454" fill="#A3988C"/>
    <path d="M29.946 11.816c-1.638-2.637-.556-5.99-.324-6.637-.456.987-.378 3.456.15 5.207 1.276 4.25 6.516 5.23 9.263 4.086 3.149-1.31 3.569-3.45 4.055-5.413.131-.534.332-1.618.135-2.624.924 3.436-.938 7.122-3.584 8.29-1.324.584-3.085.772-4.554.546-2.092-.322-3.81-1.31-5.14-3.455" fill="#A2978B"/>
    <path d="M29.947 11.81c-1.638-2.639-.554-5.991-.323-6.638-.456.987-.378 3.456.148 5.207 1.277 4.25 6.517 5.23 9.264 4.086 3.148-1.31 3.57-3.45 4.056-5.413.13-.534.33-1.62.132-2.626.924 3.437-.935 7.123-3.58 8.292-1.325.584-3.087.772-4.556.546-2.09-.322-3.808-1.31-5.14-3.454" fill="#A2968A"/>
    <path d="M29.949 11.802c-1.638-2.637-.554-5.991-.323-6.637-.455.987-.379 3.456.147 5.208 1.278 4.25 6.517 5.229 9.264 4.085 3.15-1.31 3.57-3.45 4.055-5.413.131-.534.328-1.62.131-2.627.924 3.436-.934 7.125-3.58 8.293-1.323.584-3.085.772-4.553.546-2.092-.322-3.81-1.31-5.141-3.455" fill="#A09489"/>
    <path d="M29.95 11.796c-1.638-2.639-.553-5.992-.321-6.638-.456.986-.38 3.456.146 5.207 1.277 4.25 6.516 5.23 9.264 4.086 3.148-1.31 3.569-3.45 4.055-5.413.13-.534.326-1.623.128-2.628.925 3.436-.931 7.125-3.577 8.294-1.324.584-3.085.772-4.554.546-2.092-.322-3.809-1.31-5.14-3.454" fill="#9F9487"/>
    <path d="M29.951 11.789c-1.638-2.639-.551-5.992-.32-6.639-.456.987-.381 3.458.145 5.209 1.277 4.25 6.517 5.229 9.263 4.086 3.15-1.312 3.57-3.452 4.056-5.414.13-.534.324-1.624.127-2.63.923 3.436-.93 7.128-3.576 8.296-1.324.584-3.085.772-4.554.546-2.091-.322-3.809-1.31-5.14-3.454" fill="#9E9387"/>
    <path d="M29.953 11.781c-1.639-2.637-.551-5.991-.32-6.638-.456.988-.382 3.457.144 5.209 1.278 4.25 6.517 5.23 9.264 4.085 3.149-1.31 3.57-3.45 4.055-5.414.131-.533.322-1.624.125-2.63.924 3.436-.928 7.128-3.574 8.297-1.323.585-3.085.772-4.554.546-2.091-.322-3.809-1.31-5.14-3.455" fill="#9D9286"/>
    <path d="M29.954 11.774c-1.638-2.638-.55-5.992-.319-6.638-.455.987-.383 3.457.143 5.209 1.278 4.249 6.517 5.229 9.264 4.085 3.149-1.31 3.57-3.45 4.056-5.414.13-.533.319-1.626.122-2.632.924 3.436-.925 7.13-3.571 8.299-1.324.584-3.086.772-4.555.546-2.091-.323-3.808-1.31-5.14-3.455" fill="#9D9184"/>
    <path d="M29.955 11.767c-1.638-2.638-.549-5.992-.317-6.639-.456.988-.385 3.458.142 5.21 1.277 4.25 6.516 5.23 9.263 4.085 3.15-1.31 3.57-3.45 4.056-5.414.13-.533.317-1.627.12-2.633.924 3.436-.923 7.131-3.57 8.3-1.323.585-3.084.772-4.553.546-2.092-.322-3.81-1.31-5.141-3.455" fill="#9C9084"/>
    <path d="M29.956 11.76c-1.638-2.638-.547-5.992-.316-6.639-.455.988-.386 3.458.141 5.21 1.277 4.25 6.516 5.229 9.264 4.085 3.148-1.31 3.569-3.45 4.055-5.413.131-.534.315-1.63.118-2.636.924 3.436-.921 7.134-3.566 8.302-1.325.584-3.086.772-4.555.546-2.092-.323-3.81-1.31-5.14-3.455" fill="#9B8F83"/>
    <path d="M29.957 11.753c-1.638-2.638-.546-5.992-.315-6.639-.456.988-.386 3.458.14 5.21 1.277 4.25 6.517 5.23 9.264 4.085 3.148-1.31 3.57-3.451 4.055-5.414.131-.533.314-1.63.116-2.636.924 3.436-.919 7.134-3.564 8.303-1.324.585-3.086.772-4.555.546-2.092-.322-3.809-1.31-5.14-3.455" fill="#9A8F82"/>
    <path d="M29.958 11.747c-1.637-2.639-.545-5.993-.314-6.64-.455.987-.387 3.458.14 5.21 1.277 4.25 6.515 5.23 9.263 4.085 3.149-1.31 3.57-3.45 4.055-5.414.131-.533.312-1.631.114-2.637.924 3.436-.917 7.135-3.562 8.304-1.324.584-3.085.772-4.555.546-2.091-.322-3.809-1.31-5.14-3.454" fill="#998E81"/>
    <path d="M29.96 11.74c-1.638-2.639-.545-5.993-.314-6.64-.455.987-.387 3.458.139 5.21 1.277 4.25 6.516 5.229 9.263 4.085 3.149-1.31 3.57-3.45 4.055-5.414.131-.533.31-1.633.113-2.639.924 3.436-.915 7.138-3.56 8.306-1.325.584-3.087.772-4.555.546-2.092-.322-3.81-1.31-5.141-3.455" fill="#998C80"/>
    <path d="M29.96 11.733c-1.637-2.639-.543-5.993-.311-6.64-.456.987-.39 3.458.137 5.21 1.277 4.25 6.516 5.229 9.264 4.085 3.148-1.31 3.569-3.451 4.055-5.414.13-.533.307-1.634.11-2.64.924 3.436-.913 7.138-3.559 8.307-1.324.584-3.085.772-4.554.546-2.091-.322-3.81-1.31-5.141-3.454" fill="#988C7F"/>
    <path d="M29.962 11.725c-1.638-2.638-.542-5.993-.311-6.64-.456.988-.39 3.46.136 5.21 1.277 4.25 6.516 5.23 9.264 4.086 3.148-1.31 3.569-3.45 4.055-5.413.13-.534.305-1.637.108-2.643.924 3.436-.91 7.14-3.557 8.309-1.324.584-3.085.772-4.554.546-2.092-.322-3.809-1.31-5.141-3.455" fill="#978B7F"/>
    <path d="M29.963 11.718c-1.638-2.638-.541-5.993-.31-6.64-.455.988-.391 3.46.135 5.21 1.277 4.25 6.517 5.23 9.264 4.086 3.148-1.31 3.57-3.451 4.055-5.413.13-.534.304-1.638.106-2.644.924 3.436-.908 7.141-3.554 8.31-1.325.584-3.085.772-4.555.546-2.091-.322-3.809-1.31-5.14-3.455" fill="#95897D"/>
    <path d="M35.105 15.166c-2.09-.322-3.808-1.31-5.14-3.455-1.638-2.638-.54-5.993-.31-6.64-.455.988-.392 3.46.134 5.21 1.277 4.25 6.517 5.23 9.264 4.086 3.149-1.31 3.57-3.45 4.056-5.413.13-.535.3-1.64.103-2.646.925 3.436-.907 7.144-3.552 8.312-1.324.584-3.085.772-4.555.546" fill="#94897C"/>
    <path d="M42.557 9.18c-.497 1.566-1.52 3.013-2.896 3.942-.84.568-3.17 1.245-5.529.526-1.24-.377-2.074-1.182-2.967-2.05-.558-.541-.837-1.128-1.116-1.984-.438-1.361-.138-4.328.134-4.688.035-.045.074-.112.123-.205l.165-.324C31.598 2.2 33.587 1.24 36.02 1.344c1.585.068 2.509.48 3.301.926 1.52.837 2.082 1.737 2.777 3.086.397.77.755 2.892.46 3.823" fill="#006BAD"/>
    <path d="M36.756 2.718c.263.616 2.901 5.449 3.12 6.196-3.384.351-6.285 1.494-7.164 2.636-.134.174-2.373-4.833-2.68-5.976 1.186-1.538 6.724-2.856 6.724-2.856" fill="#006BAD"/>
    <path d="M36.733 2.756c.263.61 2.875 5.396 3.093 6.137-3.351.35-6.225 1.482-7.097 2.613-.134.172-2.353-4.787-2.658-5.92 1.175-1.524 6.66-2.83 6.662-2.83" fill="#006CAE"/>
    <path d="M36.709 2.794c.262.603 2.85 5.344 3.066 6.079-3.318.347-6.164 1.47-7.03 2.59-.134.17-2.332-4.741-2.634-5.864 1.163-1.51 6.595-2.805 6.598-2.805" fill="#006DAF"/>
    <path d="M36.686 2.833c.261.597 2.824 5.29 3.037 6.02-3.283.345-6.102 1.456-6.96 2.565-.136.169-2.313-4.693-2.612-5.806 1.152-1.497 6.53-2.78 6.535-2.78" fill="#006EAF"/>
    <path d="M36.662 2.87c.26.592 2.8 5.238 3.01 5.962-3.25.343-6.042 1.445-6.893 2.542-.136.167-2.292-4.647-2.588-5.75 1.14-1.482 6.465-2.753 6.471-2.753" fill="#006FB0"/>
    <path d="M36.64 2.909c.259.585 2.773 5.185 2.982 5.902-3.218.341-5.982 1.433-6.826 2.52-.136.164-2.272-4.601-2.565-5.694 1.128-1.47 6.4-2.728 6.409-2.728" fill="#006FB1"/>
    <path d="M36.616 2.947c.258.579 2.747 5.132 2.954 5.843-3.183.34-5.92 1.421-6.757 2.496-.138.164-2.252-4.554-2.541-5.637 1.116-1.455 6.333-2.702 6.344-2.702" fill="#0070B1"/>
    <path d="M36.593 2.985c.257.573 2.722 5.08 2.926 5.785-3.15.337-5.86 1.409-6.69 2.471-.137.163-2.231-4.505-2.517-5.58 1.104-1.44 6.268-2.676 6.28-2.676" fill="#0071B2"/>
    <path d="M36.57 3.023c.256.566 2.696 5.027 2.898 5.726-3.116.335-5.799 1.397-6.622 2.449-.138.16-2.21-4.46-2.494-5.524 1.093-1.428 6.203-2.65 6.217-2.65" fill="#0072B2"/>
    <path d="M36.546 3.061c.256.56 2.671 4.974 2.871 5.668-3.082.333-5.738 1.384-6.554 2.424-.138.16-2.191-4.413-2.471-5.467 1.08-1.413 6.138-2.625 6.154-2.625" fill="#0073B3"/>
    <path d="M36.523 3.1c.255.553 2.645 4.92 2.843 5.608-3.05.331-5.677 1.372-6.486 2.402-.139.157-2.17-4.367-2.448-5.41 1.069-1.401 6.073-2.6 6.09-2.6" fill="#0073B3"/>
    <path d="M36.499 3.138c.254.548 2.62 4.868 2.816 5.55-3.016.329-5.616 1.36-6.419 2.378-.138.155-2.15-4.32-2.424-5.354 1.057-1.387 6.008-2.574 6.027-2.574" fill="#0074B4"/>
    <path d="M36.476 3.176c.254.542 2.594 4.815 2.788 5.491-2.982.327-5.556 1.348-6.351 2.355-.14.153-2.13-4.274-2.4-5.297 1.045-1.373 5.942-2.55 5.963-2.55" fill="#0075B4"/>
    <path d="M36.452 3.214c.253.536 2.57 4.762 2.76 5.432-2.948.325-5.494 1.336-6.283 2.332-.14.151-2.109-4.227-2.377-5.242 1.034-1.358 5.878-2.522 5.9-2.522" fill="#0076B5"/>
    <path d="M36.43 3.252c.251.53 2.542 4.71 2.732 5.373-2.915.324-5.434 1.325-6.216 2.309-.14.15-2.089-4.18-2.354-5.185 1.023-1.345 5.812-2.497 5.837-2.497" fill="#0077B6"/>
    <path d="M36.406 3.29c.25.524 2.517 4.657 2.705 5.315-2.882.321-5.373 1.311-6.149 2.285-.14.148-2.068-4.134-2.33-5.128 1.01-1.332 5.748-2.472 5.774-2.472" fill="#0378B6"/>
    <path d="M36.383 3.329c.25.517 2.492 4.604 2.677 5.255-2.849.32-5.313 1.3-6.081 2.262-.14.146-2.048-4.087-2.306-5.072.998-1.318 5.682-2.445 5.71-2.445" fill="#0B79B7"/>
    <path d="M36.359 3.366c.25.512 2.467 4.552 2.65 5.198-2.815.317-5.252 1.287-6.013 2.237-.14.145-2.028-4.04-2.284-5.014.987-1.304 5.618-2.42 5.647-2.42" fill="#167AB7"/>
    <path d="M36.336 3.404c.248.506 2.44 4.5 2.621 5.14-2.78.314-5.19 1.275-5.944 2.214-.142.142-2.007-3.993-2.26-4.959.975-1.29 5.551-2.395 5.583-2.395" fill="#1A7AB8"/>
    <path d="M36.313 3.443c.247.5 2.415 4.446 2.593 5.08-2.747.313-5.13 1.263-5.876 2.19-.143.142-1.987-3.946-2.238-4.902.964-1.276 5.487-2.368 5.52-2.368" fill="#207BB9"/>
    <path d="M36.29 3.48c.246.494 2.389 4.394 2.565 5.022-2.714.311-5.068 1.251-5.809 2.167-.142.14-1.967-3.9-2.213-4.845.951-1.262 5.421-2.343 5.456-2.343" fill="#247CB9"/>
    <path d="M36.266 3.519c.245.487 2.364 4.34 2.538 4.963-2.68.309-5.008 1.238-5.741 2.143-.143.138-1.947-3.853-2.19-4.788.94-1.25 5.356-2.318 5.393-2.318" fill="#287DBA"/>
    <path d="M36.243 3.557c.244.481 2.338 4.288 2.51 4.904-2.647.307-4.948 1.227-5.674 2.12-.143.136-1.926-3.806-2.166-4.732.928-1.235 5.291-2.292 5.33-2.292" fill="#2D7EBA"/>
    <path d="M36.22 3.595c.243.475 2.312 4.235 2.482 4.846-2.613.305-4.887 1.214-5.606 2.096-.143.134-1.905-3.76-2.143-4.675.916-1.222 5.226-2.267 5.266-2.267" fill="#2F7FBB"/>
    <path d="M36.196 3.633c.243.47 2.287 4.182 2.455 4.787-2.58.303-4.826 1.202-5.538 2.073-.144.133-1.885-3.713-2.12-4.619.905-1.207 5.161-2.24 5.203-2.24" fill="#3480BC"/>
    <path d="M36.173 3.672c.242.462 2.261 4.129 2.427 4.727-2.547.301-4.765 1.19-5.47 2.05-.145.13-1.865-3.666-2.097-4.563.893-1.193 5.096-2.214 5.14-2.214" fill="#3681BC"/>
    <path d="M36.15 3.71c.24.456 2.236 4.076 2.399 4.669-2.513.299-4.704 1.178-5.403 2.026-.144.13-1.844-3.62-2.073-4.506.881-1.18 5.03-2.19 5.076-2.19" fill="#3982BD"/>
    <path d="M36.126 3.748c.24.45 2.211 4.024 2.372 4.61-2.48.297-4.644 1.166-5.335 2.003-.145.127-1.824-3.573-2.05-4.45.87-1.165 4.966-2.163 5.013-2.163" fill="#3B83BE"/>
    <path d="M36.102 3.786c.24.445 2.186 3.97 2.345 4.551-2.447.296-4.583 1.154-5.267 1.98-.146.126-1.804-3.527-2.027-4.393.858-1.153 4.9-2.138 4.95-2.138" fill="#3F84BE"/>
    <path d="M36.08 3.824c.238.438 2.16 3.918 2.315 4.493-2.412.293-4.52 1.141-5.198 1.956-.147.124-1.784-3.48-2.003-4.336.846-1.14 4.834-2.113 4.885-2.113" fill="#4185BF"/>
    <path d="M36.056 3.862c.238.433 2.134 3.865 2.289 4.435-2.38.29-4.461 1.13-5.132 1.932-.146.122-1.763-3.433-1.98-4.28.835-1.125 4.77-2.087 4.823-2.087" fill="#4486C0"/>
    <path d="M36.033 3.9c.236.426 2.108 3.813 2.26 4.376-2.345.289-4.4 1.117-5.063 1.909-.147.12-1.743-3.387-1.956-4.224.822-1.11 4.704-2.06 4.76-2.06" fill="#4687C0"/>
    <path d="M36.01 3.938c.235.42 2.082 3.76 2.232 4.317-2.311.287-4.339 1.106-4.995 1.886-.148.119-1.723-3.34-1.933-4.167.81-1.098 4.639-2.036 4.695-2.036" fill="#4988C1"/>
    <path d="M35.986 3.977c.235.414 2.058 3.706 2.205 4.257-2.278.286-4.278 1.093-4.927 1.863-.148.117-1.703-3.293-1.91-4.11.799-1.084 4.574-2.01 4.632-2.01" fill="#4B89C1"/>
    <path d="M35.963 4.015c.234.408 2.032 3.654 2.177 4.2-2.245.282-4.217 1.08-4.86 1.837-.148.116-1.682-3.246-1.886-4.053.787-1.07 4.509-1.984 4.569-1.984" fill="#4F8AC2"/>
    <path d="M35.94 4.053c.233.401 2.006 3.601 2.15 4.14-2.212.281-4.158 1.07-4.794 1.816-.148.114-1.661-3.2-1.862-3.997.775-1.056 4.444-1.96 4.506-1.96" fill="#508BC3"/>
    <path d="M35.916 4.09c.232.397 1.98 3.55 2.122 4.083-2.178.279-4.096 1.056-4.724 1.792-.15.112-1.642-3.153-1.84-3.941.763-1.043 4.379-1.933 4.442-1.933" fill="#538CC3"/>
    <path d="M35.892 4.13c.232.389 1.956 3.495 2.095 4.023-2.144.276-4.035 1.044-4.657 1.768-.15.11-1.621-3.107-1.816-3.885.752-1.028 4.314-1.907 4.378-1.907" fill="#558EC5"/>
    <path d="M35.87 4.167c.23.384 1.93 3.444 2.066 3.965-2.11.274-3.975 1.032-4.589 1.745-.15.108-1.601-3.06-1.793-3.828.74-1.015 4.249-1.882 4.315-1.882" fill="#588FC5"/>
    <path d="M35.846 4.205c.23.378 1.904 3.39 2.039 3.907-2.077.272-3.914 1.019-4.521 1.72-.15.107-1.58-3.013-1.77-3.77.729-1.002 4.184-1.857 4.252-1.857" fill="#5A90C6"/>
    <path d="M35.823 4.243c.23.372 1.878 3.338 2.01 3.848-2.043.27-3.852 1.007-4.453 1.698-.15.105-1.56-2.967-1.746-3.715.717-.987 4.118-1.83 4.189-1.83" fill="#5C91C7"/>
    <path d="M35.799 4.281c.229.366 1.854 3.286 1.984 3.79-2.01.268-3.792.995-4.386 1.674-.15.103-1.54-2.92-1.722-3.659.704-.973 4.052-1.805 4.124-1.805" fill="#5F92C7"/>
    <path d="M35.776 4.32c.228.359 1.828 3.232 1.956 3.73-1.977.266-3.731.983-4.318 1.65-.152.102-1.52-2.873-1.7-3.601.693-.96 3.988-1.78 4.062-1.78" fill="#6193C8"/>
    <path d="M35.752 4.358c.227.353 1.803 3.18 1.929 3.67-1.944.266-3.67.972-4.25 1.628-.153.1-1.5-2.826-1.676-3.545.681-.945 3.922-1.753 3.997-1.753" fill="#6495C9"/>
    <path d="M35.73 4.396c.225.347 1.776 3.127 1.9 3.613-1.91.262-3.61.959-4.183 1.603-.152.099-1.479-2.78-1.653-3.488.67-.932 3.858-1.728 3.935-1.728" fill="#6696C9"/>
    <path d="M35.706 4.434c.225.341 1.75 3.074 1.873 3.554-1.877.26-3.55.947-4.115 1.58-.153.097-1.459-2.733-1.63-3.431.658-.919 3.793-1.703 3.872-1.703" fill="#6997CA"/>
    <path d="M35.683 4.472c.224.335 1.725 3.021 1.845 3.495-1.843.259-3.488.935-4.047 1.557-.154.095-1.439-2.686-1.606-3.375.646-.904 3.727-1.677 3.808-1.677" fill="#6A98CB"/>
    <path d="M35.659 4.51c.224.33 1.7 2.969 1.817 3.437-1.809.256-3.426.922-3.979 1.533-.154.093-1.417-2.64-1.582-3.319.634-.89 3.662-1.65 3.744-1.65" fill="#6D99CB"/>
    <path d="M35.636 4.549c.222.322 1.674 2.915 1.79 3.377-1.777.254-3.367.91-3.912 1.51-.154.092-1.398-2.593-1.56-3.263.624-.877 3.598-1.624 3.682-1.624" fill="#6F9ACC"/>
    <path d="M35.612 4.586c.222.317 1.65 2.863 1.763 3.32-1.743.252-3.306.898-3.844 1.486-.155.09-1.378-2.546-1.536-3.206.61-.863 3.532-1.6 3.617-1.6" fill="#719CCE"/>
    <path d="M35.59 4.624c.22.311 1.622 2.811 1.733 3.261-1.709.25-3.244.886-3.775 1.463-.156.088-1.357-2.5-1.513-3.15.6-.848 3.466-1.574 3.554-1.574" fill="#739DCE"/>
    <path d="M35.566 4.662c.22.305 1.598 2.758 1.706 3.202-1.675.249-3.183.874-3.708 1.44-.156.087-1.336-2.453-1.49-3.093.589-.836 3.403-1.549 3.492-1.549" fill="#769FCF"/>
    <path d="M35.542 4.7c.22.3 1.573 2.705 1.68 3.144-1.642.246-3.124.862-3.641 1.416-.156.085-1.316-2.406-1.466-3.036C32.69 5.4 35.45 4.7 35.542 4.7" fill="#78A0D0"/>
    <path d="M35.519 4.739c.218.292 1.547 2.652 1.651 3.084-1.609.245-3.062.85-3.572 1.393-.157.083-1.297-2.36-1.442-2.98.563-.808 3.271-1.497 3.363-1.497" fill="#7AA1D1"/>
    <path d="M35.496 4.777c.217.286 1.521 2.6 1.623 3.025-1.575.243-3.001.838-3.505 1.37-.157.081-1.275-2.313-1.419-2.923.553-.795 3.206-1.472 3.3-1.472" fill="#7CA3D1"/>
    <path d="M35.473 4.815c.216.28 1.495 2.547 1.595 2.967-1.541.24-2.94.826-3.437 1.346-.157.079-1.255-2.266-1.395-2.867.54-.78 3.14-1.446 3.237-1.446" fill="#7FA4D2"/>
    <path d="M35.45 4.853c.215.275 1.47 2.494 1.567 2.909-1.508.238-2.88.813-3.37 1.322-.157.077-1.234-2.22-1.371-2.81.528-.767 3.075-1.42 3.173-1.42" fill="#80A5D3"/>
    <path d="M35.426 4.891c.215.268 1.444 2.441 1.54 2.85-1.474.236-2.819.801-3.302 1.299-.158.075-1.214-2.173-1.349-2.754.517-.753 3.012-1.395 3.11-1.395" fill="#83A7D4"/>
    <path d="M35.402 4.93c.214.262 1.42 2.388 1.513 2.79-1.44.234-2.759.79-3.234 1.276-.159.074-1.194-2.126-1.325-2.697.505-.74 2.945-1.37 3.046-1.37" fill="#85A8D5"/>
    <path d="M35.379 4.968c.213.255 1.394 2.335 1.485 2.732-1.408.232-2.698.777-3.166 1.252-.16.072-1.174-2.08-1.302-2.641.493-.726 2.88-1.343 2.983-1.343" fill="#88AAD5"/>
    <path d="M35.356 5.006c.212.25 1.368 2.282 1.456 2.673-1.373.23-2.636.765-3.098 1.229-.16.07-1.153-2.033-1.278-2.584.482-.712 2.815-1.318 2.92-1.318" fill="#89ACD7"/>
    <path d="M35.332 5.044c.212.244 1.343 2.23 1.43 2.615-1.34.228-2.576.752-3.03 1.205-.16.068-1.134-1.987-1.256-2.528.47-.698 2.75-1.292 2.856-1.292" fill="#8CADD8"/>
    <path d="M35.31 5.082c.21.238 1.316 2.177 1.4 2.556-1.306.226-2.514.74-2.962 1.182-.16.067-1.113-1.94-1.232-2.472.458-.683 2.684-1.266 2.793-1.266" fill="#8FAFD9"/>
    <path d="M35.286 5.12c.21.232 1.291 2.125 1.374 2.497-1.274.225-2.455.729-2.896 1.159-.16.065-1.092-1.893-1.208-2.415.447-.67 2.62-1.24 2.73-1.24" fill="#90B0D9"/>
    <path d="M35.263 5.158c.208.226 1.265 2.072 1.346 2.44-1.24.22-2.394.715-2.828 1.134-.16.064-1.072-1.847-1.185-2.358.435-.657 2.555-1.216 2.667-1.216" fill="#93B2DA"/>
    <path d="M35.24 5.196c.207.22 1.24 2.019 1.317 2.38-1.206.22-2.332.704-2.76 1.112-.16.061-1.05-1.8-1.16-2.302.423-.643 2.488-1.19 2.602-1.19" fill="#95B3DB"/>
    <path d="M35.216 5.235c.207.212 1.215 1.966 1.29 2.32-1.173.218-2.271.693-2.691 1.088-.162.06-1.032-1.752-1.139-2.244.412-.63 2.424-1.164 2.54-1.164" fill="#98B5DC"/>
    <path d="M35.193 5.273c.206.207 1.189 1.913 1.263 2.262-1.14.216-2.211.68-2.624 1.064-.163.059-1.012-1.706-1.116-2.188.4-.616 2.36-1.138 2.477-1.138" fill="#99B6DD"/>
    <path d="M35.169 5.31c.205.202 1.164 1.862 1.235 2.205-1.106.214-2.15.667-2.556 1.04-.163.057-.991-1.66-1.091-2.131.387-.602 2.294-1.113 2.412-1.113" fill="#9CB8DD"/>
    <path d="M35.146 5.35c.204.194 1.137 1.807 1.207 2.144-1.072.212-2.09.655-2.488 1.017-.163.056-.97-1.612-1.069-2.075.377-.588 2.229-1.087 2.35-1.087" fill="#9EB9DE"/>
    <path d="M35.122 5.387c.204.19 1.112 1.755 1.18 2.087-1.038.21-2.028.643-2.42.993-.165.054-.95-1.566-1.045-2.019.364-.573 2.163-1.061 2.285-1.061" fill="#A1BBDF"/>
    <path d="M35.1 5.425c.202.183 1.086 1.703 1.151 2.028-1.005.208-1.968.63-2.353.97-.164.052-.93-1.52-1.021-1.962.352-.56 2.098-1.036 2.222-1.036" fill="#A3BCE0"/>
    <path d="M35.076 5.463c.201.177 1.061 1.65 1.124 1.97-.972.205-1.907.618-2.285.946-.165.05-.91-1.473-.998-1.906.34-.546 2.033-1.01 2.159-1.01" fill="#A6BFE2"/>
    <path d="M35.052 5.502c.201.17 1.036 1.596 1.097 1.91-.938.204-1.846.607-2.218.923-.164.049-.889-1.426-.974-1.85.329-.532 1.968-.983 2.095-.983" fill="#A8C1E2"/>
    <path d="M35.03 5.54c.2.164 1.01 1.544 1.068 1.851-.905.202-1.785.595-2.15.9-.165.047-.869-1.38-.95-1.792.316-.52 1.902-.96 2.031-.96" fill="#ABC2E3"/>
    <path d="M35.006 5.578c.199.158.984 1.491 1.041 1.793-.871.2-1.725.582-2.082.876-.166.045-.849-1.333-.928-1.736.305-.506 1.837-.933 1.969-.933" fill="#ADC4E4"/>
    <path d="M34.983 5.616c.198.152.959 1.439 1.013 1.734-.838.198-1.663.57-2.014.853-.167.043-.828-1.286-.905-1.68.294-.491 1.772-.907 1.906-.907" fill="#B0C6E5"/>
    <path d="M34.96 5.654c.197.147.932 1.386.985 1.675-.805.196-1.603.559-1.947.83-.166.042-.808-1.24-.88-1.623.281-.478 1.706-.882 1.841-.882" fill="#B2C7E6"/>
    <path d="M34.936 5.692c.196.14.908 1.333.958 1.617-.772.194-1.542.546-1.88.806-.166.04-.786-1.193-.857-1.567.27-.464 1.642-.856 1.779-.856" fill="#B5CAE7"/>
    <path d="M34.912 5.73c.196.134.883 1.28.93 1.558-.737.192-1.48.534-1.81.783-.168.038-.768-1.146-.834-1.51.258-.45 1.576-.83 1.714-.83" fill="#B7CBE8"/>
    <path d="M34.89 5.769c.194.127.856 1.227.902 1.499-.704.19-1.42.521-1.743.759-.168.036-.747-1.1-.812-1.454.247-.436 1.512-.804 1.652-.804" fill="#BBCDE9"/>
    <path d="M34.865 5.806c.195.122.832 1.175.876 1.441-.67.188-1.36.51-1.676.736-.168.034-.726-1.053-.788-1.397.236-.423 1.447-.78 1.588-.78" fill="#BECFEA"/>
    <path d="M34.843 5.845c.192.115.805 1.122.847 1.381-.637.186-1.3.498-1.609.713-.168.033-.705-1.006-.763-1.34.223-.41 1.381-.754 1.525-.754" fill="#C0D1EB"/>
    <path d="M34.819 5.883c.193.11.78 1.069.82 1.323-.604.184-1.238.485-1.54.689-.17.031-.687-.96-.741-1.284.211-.395 1.316-.728 1.46-.728" fill="#C4D3EC"/>
    <path d="M34.796 5.921c.191.104.754 1.016.792 1.264-.57.182-1.178.474-1.473.666-.17.029-.665-.913-.717-1.228.2-.38 1.25-.702 1.398-.702" fill="#C6D6ED"/>
    <path d="M34.772 5.959c.19.097.729.964.764 1.206a7.513 7.513 0 00-1.404.642c-.17.027-.645-.866-.694-1.171.188-.368 1.186-.677 1.334-.677" fill="#CAD8EE"/>
    <path d="M34.75 5.998c.189.09.702.91.735 1.146a8.239 8.239 0 00-1.336.619c-.17.025-.626-.82-.671-1.115.176-.353 1.12-.65 1.271-.65" fill="#CCDAEF"/>
    <path d="M34.726 6.035c.188.085.677.858.708 1.088a9.678 9.678 0 00-1.269.596c-.17.024-.604-.773-.647-1.058.165-.34 1.055-.626 1.208-.626" fill="#D0DCF0"/>
    <path d="M34.703 6.074c.187.079.652.805.68 1.029-.436.173-.934.425-1.201.572-.171.022-.584-.726-.624-1.001.153-.327.99-.6 1.145-.6" fill="#D2DEF1"/>
    <path d="M34.679 6.111c.187.073.627.753.653.971a17.73 17.73 0 00-1.133.549c-.172.02-.564-.68-.601-.945.141-.313.925-.575 1.081-.575" fill="#D6E0F2"/>
    <path d="M34.656 6.15c.186.067.6.7.625.912-.369.17-.813.4-1.066.525-.172.018-.543-.633-.577-.89.13-.297.86-.548 1.018-.548" fill="#D9E2F3"/>
    <path d="M34.633 6.188c.185.06.575.647.597.853-.335.167-.751.389-.998.502-.172.017-.523-.586-.554-.832.118-.285.795-.523.955-.523" fill="#DDE5F4"/>
    <path d="M34.609 6.226c.185.055.55.594.57.795-.302.165-.69.375-.93.477-.173.016-.503-.54-.53-.775.105-.27.73-.497.89-.497" fill="#DFE7F5"/>
    <path d="M34.586 6.264c.183.049.524.541.542.736-.269.164-.63.364-.863.454-.173.014-.482-.492-.506-.718.093-.258.664-.472.827-.472" fill="#E3E9F6"/>
    <path d="M34.562 6.302c.183.043.5.489.514.677-.234.162-.569.352-.794.431-.174.012-.462-.446-.483-.662.082-.244.599-.446.763-.446" fill="#E5EBF7"/>
    <path d="M34.539 6.34c.182.037.473.436.486.619-.2.16-.508.34-.726.407-.174.01-.442-.399-.46-.605.07-.23.534-.42.7-.42" fill="#E9EEF8"/>
    <path d="M34.516 6.378c.18.03.447.383.458.56a1.798 1.798 0 01-.658.385c-.175.008-.422-.353-.437-.55.059-.216.469-.395.637-.395" fill="#ECF1FA"/>
    <path d="M34.492 6.416c.18.025.422.33.431.502a1.249 1.249 0 01-.59.36c-.176.007-.402-.306-.414-.492.047-.203.404-.37.573-.37" fill="#F0F4FB"/>
    <path d="M34.47 6.455c.178.018.395.277.402.442a.874.874 0 01-.523.337c-.176.006-.381-.259-.39-.436.035-.189.338-.343.51-.343" fill="#F3F6FC"/>
    <path d="M34.446 6.493c.178.012.37.224.375.384-.067.151-.265.29-.455.313-.176.004-.361-.212-.367-.38.023-.174.273-.317.447-.317" fill="#F7F9FD"/>
    <path d="M34.422 6.53c.178.007.346.173.348.326-.033.15-.204.28-.388.29-.176.002-.34-.166-.343-.323.012-.16.208-.292.383-.292" fill="#FAFCFE"/>
    <path d="M34.399 6.57c.177 0 .32.118.32.266 0 .147-.143.266-.32.266-.176 0-.32-.12-.32-.266 0-.148.144-.267.32-.267" fill="#FFF"/>
    <path d="M37.75 3.685a.64.64 0 01-.087-.342l-.001-.17c.509-.02 1.032-.11 1.533.023.997.262 1.255 1.116 1.701 1.898.075.131.145.263.284.609l-.282.21c-.25-.244-1.048-.49-1.546-.49-.274 0-.532.127-.8.126-.12 0-.234-.054-.276-.176a4.014 4.014 0 01-.219-1.227.276.276 0 00-.076-.206l-.063-.061a.895.895 0 01-.167-.194M38.578 1.887a.92.92 0 01.113.027l.093.033c.027.078.097.297.097.297l-.167.066.12.171H37.35c.29-.423.596-.955 1.185-.618l.043.024M35.039 2.097c-.466.08-.66-.091-1.023-.334.73-.35 1.184-.383 2.006-.293.42.049.905.227 1.288.407.043.455.075.397-.273.643-.674.492-.898-.555-1.73-.472-.096.01-.186.035-.268.05M33.304 1.79l.082-.031c.284-.1.402.081.474.332.089.313 0 .426-.14.52-.11.071-.12.154-.122.288l-.324.027c-.074-.359-.199-.683-.3-1.034.122-.023.217-.056.33-.102M32.49 2.706c.204.204.263.227.296.571-.09.086-.135.136-.27.121-.102-.01-.442.082-.531.106.113-.348.177-.435.106-.827l-.024-.143a.847.847 0 01.083-.52l.272.097c-.071.455.016.544.068.595M35.722 3.828c.21-.228.38-.48.56-.734.153.595.326 1.115.666 1.633.362.553.41.633.484 1.3-.15-.07-.234-.134-.374-.162l-.147-.027c-.144-.029-.322-.09-.322-.274-.002-.383-.078-.416-.403-.306l-.136.046c-.325.104-.723.122-.934-.198.074-.696.182-.818.606-1.278M32.975 5.28c.12.169.278.316.42.467.308.33.24.74-.48.503-.124.128-.227.445-.462.627-.825.641-1.363.109-1.552-.716-.055-.237-.295-.557-.02-.76.895-.658 1.053-.994 2.288-.984.097 0 .183.086.183.183 0 .296-.103.44-.23.543l-.069.055-.047.039a.186.186 0 00-.031.042M29.736 6.796a.975.975 0 00.172-.288l.355.035c.024.194.017.581.087.773l.156.331c-.235-.026-.802-.05-.965-.25-.133-.165-.024-.337.087-.47l.108-.131M30.85 9.549l.164-.216c.159.232.227.383.315.652l.072.215c.07.196.16.393.256.579-.632-.235-1.462-.383-.807-1.23M34.828 9.77l-1.596.95c-.437-.875-.773-.506-.968-.859-.24-.432-.414-.814-.168-1.265l.048-.095a.478.478 0 00.032-.085c.073-.299-.109-.465.3-.636.239-.099.74-.195 1.32.012.424.15 1.008.3.907.767-.06.275-.274.638-.274.88 0 .163.274.27.399.331M35.506 8.518c-.047.064-.177.097-.25.063-.205-.095-.29-.24-.33-.45l-.023-.15c-.028-.167.082-.27.247-.233.466.105.66.362.356.77M36.765 7.018c.33-.302.724-.509 1.153-.622l.602 1.08.362 1.097c-.163.273-.59.317-1.119.225-.536-.092-1.172-.324-1.33-.589-.288-.471.018-.902.332-1.19M39.247 6.726c-.032-.253.139-.376.387-.376.44 0 1.33.038 1.675.33.446.364.282 1.106.513 1.562l.124.245h-.274c-.162 0-.17-.012-.246.098-.233.305-.619.162-.9.033l-.269-.125a1.606 1.606 0 00-.228-.086c-.327-.08-.4-.637-.445-.897-.05-.282-.33-.48-.33-.735 0-.013-.005-.03-.007-.049M42.851 7.433c.041.05.059.189.04.14l-.114.668c-.035.172-.101.202-.185.206-.892.036-.21-1.574.26-1.014M42.141 5.363c.164.363.265.581-.235.651l-.121.018c-.416-.551-.626-1.223-.735-1.896l.278.043c.766.092 1.235.74.813 1.184M40.528 10.427c.02-.554-.179-.694-.543-1.047l.43.023c.484 0 .805.196 1.175.462-.088.144-.135.174-.112.345l.01.083c.02.252-.21.687-.35.892-.236.347-.465.39-.844.452.1-.391.219-.803.234-1.21M38.934 9.527a.871.871 0 00.129-.04l.06-.022a.292.292 0 01.093-.017c.201 0 .223.265.232.41l.013.175.008.056c.288.453.176.818.176 1.309l-.003.13c-.32.175-.563-.038-.777-.297-.173-.21-.321-.49-.353-.766l-.053-.111-.131-.273a2.099 2.099 0 01-.11-.27c-.153-.525.419-.219.716-.284M39.457 12.317c.255-.148.641-.087.609.385-.019.342-.123.563-.492.545l-.1-.005c-.162-.006-.31.029-.468.075l.02-.253c0-.339.215-.623.431-.747M35.632 13.264a.82.82 0 01.472-.174c.252 0 .435.208.63.337l.049.028c.46.043.768-.023 1.512-.023l.012.41c-.592.034-2.459.432-2.959-.054l-.174-.168c.157-.115.302-.244.458-.356M32.678 12.962l1.919-.004-.177.3c-.393.765-1.376-.034-1.742-.296" fill="#1C9536"/>
    <g>
      <path d="M35.142 11.524c-.009.334.01.619.087.94l-.22-.013c-.49.005-1.684-.794-1.267-1.197.264-.255 1.065-.65 1.429-.768v.273c0 .22-.021.493-.029.765" fill="#1C9536"/>
      <path d="M34.38 6.563c.845-.244 2.109-.5 3.386-.628a23.47 23.47 0 01-.78-1.452 55.518 55.518 0 01-.611-1.294c-.897.167-2.037.343-2.772.691.144.64.469 1.679.777 2.683zm5.024 2.65c-1.052.16-2.355.425-3.538.828l.265.52c.367.606.723 1.148 1.001 1.587.124-.02.228-.047.315-.066.788-.17 1.53-.304 2.283-.344l.005-.329c.006-.247.007-.485.004-.718a7.15 7.15 0 00-.335-1.478zm-3.784.334a11.46 11.46 0 013.62-.78c-.341-.862-.806-1.672-1.273-2.483-.157.024-.32.051-.492.081-.21.037-.853.14-1.508.26-.592.108-1.18.228-1.469.324l.04.13c.148.491.595 1.475 1.082 2.468zm4.714-6.462c.668 1.127 1.03 1.7 1.263 2.214.084.187.153.367.21.558.076.177.146.356.207.537.246.078.65.214.708.285.047.057.048.158-.1.156a2.293 2.293 0 01-.497-.084c.133.478.21.968.21 1.465 0 .371.08.75.142 1.116l.02.123c.07.01.146.017.227.022.101-.335.18-.671.263-1.002.331-1.351-.293-2.93-.972-4.193-.194-.358-.502-.736-.894-1.104-.27.01-.671-.055-.775-.088l-.012-.005zm1.312 2.832c-.466-1.08-1.187-2.08-1.911-2.936a13.12 13.12 0 00-2.633.072c.51.824 1.043 1.871 1.328 2.336.099.163.194.321.284.476 1.213-.054 2.343.045 3.025.42a4.976 4.976 0 00-.093-.368zm.624 3.497l-.013-.123c-.144-1.051-.259-1.223-.375-2.127-.025-.19-.05-.361-.075-.516a1.392 1.392 0 01-.12-.056c-.296-.159-.515-.287-.858-.368-.405-.096-1-.145-1.94-.056.51.907.857 1.702 1.056 2.597.6.028.982.135 1.301.262.417.166.665.307 1.024.387zM40.722 2.83C39.347 1.713 37.257.802 35.45 1.062c.24.222.556.62.705.8.036.04.067.076.099.115.147.098.321.3.507.56.066-.006.124-.01.172-.012.805-.025 1.666.029 2.51.126a1.616 1.616 0 01-.198-.267c-.074-.157.103-.19.244-.1.179.113.354.271.518.438.241.033.48.069.714.107zm1.854 7.182l.015-.048.07-.228-.12.007c.014.09.025.18.035.269zm-.906 1.853c.185-.245.393-.61.55-.945-.008-.102.004-.216.006-.26.014-.311.053-.649.055-.974-.778-.3-1.48-.546-2.26-.533.078.463.12.959.128 1.514.03.284.033.54-.001.751l.002.299a4.497 4.497 0 011.514.146l.006.002zm-1.559 1.413c.57-.352 1.01-.722 1.397-1.21a7.682 7.682 0 00-1.318-.132h-.053c-.009.462-.004.907-.026 1.342zm-2.09.874c.333-.072.647-.168.933-.287a8.93 8.93 0 00.7-.326l.005-.08.02-.353c.015-.296.04-.71.052-1.157-.704.025-1.402.177-2.075.402a6.674 6.674 0 00-.352.075c.189.308.326.557.372.72l.036.131c.027.06.262.57.31.875zm-2.87-.64c.35.25.65.494.967.741l.056.044a7.511 7.511 0 001.606-.098c-.106-.268-.212-.792-.23-.863-.142-.31-.321-.622-.52-.839a4.645 4.645 0 00-1.88 1.015zm-2.055-1.993c.373.701 1.03 1.224 1.684 1.712.607-.4 1.434-.757 2.081-.978a27.64 27.64 0 01-.883-1.612 28.904 28.904 0 01-.313-.529c-.783.28-1.502.624-2.046 1.037-.158.12-.335.249-.523.37zm-1.703-3.342a69.958 69.958 0 001.479 2.907c.318-.21.673-.44 1.114-.715.47-.293.947-.533 1.414-.73a14.735 14.735 0 01-.888-1.908 59.064 59.064 0 01-.25-.687c-.879.348-1.001.214-2.842 1.12l-.027.013zm-.748-2.614c.133.86.344 1.763.604 2.312l.022.046c.892-.55 2.174-1.06 2.85-1.279-.3-.859-.658-1.951-.795-2.63-.452.197-.894.312-1.327.5-.46.201-.909.484-1.354 1.05zm-.144-2.067c-.035.28-.013.817.059 1.435.286-.24.633-.488 1.054-.761.478-.31 1.024-.47 1.559-.653a2.577 2.577 0 00-.08-.15l-.146-.247c-.34-.592-.272-1.133-.053-1.725a7.086 7.086 0 00-2.393 2.1zm-.392-.085a.162.162 0 01.071-.093 8.695 8.695 0 012.896-2.39l.046-.146a.879.879 0 00-.004-.14l-.016-.137c-.01-.104.01-.22.15-.215.068-.004.107.046.119.091.026.104-.052.343-.08.434C34.394.31 35.67.037 37.052.228c.027.004.07.085-.013.086l-.195.005c-.874.034-1.78.21-2.605.489-.354.12-.721.268-1.09.453-.127.397-.247.807-.222 1.023.046.416.286.776.482 1.15.14-.05.277-.104.413-.164a23.371 23.371 0 012.322-.626.612.612 0 01-.03-.104c-.041-.26-.682-.81-.832-.94l-.225-.194-.06-.054c-.083-.078-.091-.127-.091-.133-.003-.298.21-.329.323-.3.268-.078.724-.145 1.361-.127 2.693-.117 5.18 1.39 6.119 3.12 2.38 3.743 0 8.908-3.114 10.283-1.332.589-2.474.843-4.58.55-2.11-.293-3.835-1.32-5.175-3.477-1.65-2.658-.718-5.88-.486-6.53.14-.389.397-.85.755-1.328zm-.118 2.073c.004-.32.038-.642.053-.949l.016-.34c-.087.158-.17.322-.25.492-.166.361-.29.915-.354 1.558a.65.65 0 01.077-.064c.115-.242.263-.47.458-.697zm4.404 8.043c-.725-.556-1.395-1.16-1.502-1.255a3.16 3.16 0 01-.344-.438c-.244.12-.494.215-.738.26-.096.019-.163.023-.204.032-.111.021-.158-.094-.063-.157.27-.177.513-.34.759-.505-.462-.72-1.069-1.807-1.454-2.864-.215.213-.415.453-.597.647-.055.059-.19.217-.281.114-.136-.154.458-.76.514-.815a2.07 2.07 0 01.259-.253 7.146 7.146 0 01-.093-.31c-.255-.928-.392-1.24-.478-1.428a1.984 1.984 0 01-.149-.518c-.158.092-.313.227-.385.276-.101.028-.16-.01-.188-.015-.102 1.089-.034 2.422.292 3.505.663 2.21 2.406 3.53 4.31 4.125a.531.531 0 01.074-.143c.073-.104.138-.152.268-.258zm1.037.705c-.198-.154-.408-.257-.607-.409-.089.095-.163.145-.245.25.284.068.568.12.852.159z" fill="#000"/>
    </g>
    <path fill="#000" d="M29.007 19.653h14.47v-3.328h-14.47z"/>
    <path fill="#FFF" d="M34.415 19.04l.086-.488h-1.06l.058-.328h.863l.086-.488h-.863l.052-.3h1.02l.086-.488h-1.705l-.369 2.093h1.746M36.752 17.555c.015-.366-.197-.662-.778-.662-.523 0-.946.224-1.024.668-.141.8 1.1.582 1.044.899-.017.098-.14.154-.312.154a.328.328 0 01-.185-.053.194.194 0 01-.085-.166h-.656c-.052.378.251.701.803.701.575 0 1.021-.235 1.106-.72.135-.762-1.102-.568-1.047-.881.013-.076.088-.12.239-.12a.34.34 0 01.17.038c.045.026.075.07.074.142h.65M37.79 17.436h.32c.16 0 .263.07.237.218-.026.146-.148.198-.36.198h-.27l.073-.416zm.055.875c.32 0 .35.09.302.364a1.36 1.36 0 00-.03.366h.695l.011-.064c-.081 0-.056-.093-.008-.367.074-.42-.05-.473-.257-.554.256-.067.4-.271.442-.512.072-.407-.124-.596-.821-.596h-.989l-.368 2.093h.685l.13-.73h.208zM39.812 19.04l.368-2.092h-.686l-.368 2.093h.686"/>
    <path d="M42.464 14.445a.482.482 0 00-.146.354c0 .139.048.258.145.356a.48.48 0 00.354.147.48.48 0 00.354-.147.492.492 0 00.146-.356.485.485 0 00-.146-.354.48.48 0 00-.354-.148.478.478 0 00-.353.148m.765.766a.561.561 0 01-.412.171.558.558 0 01-.411-.17.563.563 0 01-.169-.413.56.56 0 01.17-.41.558.558 0 01.41-.17c.16 0 .298.056.412.17a.56.56 0 01.17.41.565.565 0 01-.17.412m-.303-.633a.293.293 0 00-.136-.024h-.095v.232h.101a.303.303 0 00.107-.015c.044-.017.066-.05.066-.1 0-.045-.015-.077-.043-.093m-.12-.1c.08 0 .137.007.174.023.065.027.099.081.1.161 0 .057-.022.1-.064.126a.246.246 0 01-.093.031c.05.008.087.029.11.063a.174.174 0 01.035.099v.046c0 .015 0 .031.002.048a.113.113 0 00.006.033l.004.008h-.105l-.002-.006a.016.016 0 01-.002-.007l-.002-.021v-.05c0-.074-.02-.123-.06-.147a.263.263 0 00-.126-.02h-.088v.251h-.113v-.638h.224" fill="#000"/>
  </g>
</svg>
