<svg width="32" height="18" xmlns="http://www.w3.org/2000/svg" xmlns:xlink="http://www.w3.org/1999/xlink">
  <defs>
    <path id="a" d="M0 0h33v20H0z"/>
  </defs>
  <g transform="translate(-1 -1)" fill="none" fill-rule="evenodd">
    <mask id="b" fill="#fff">
      <use xlink:href="#a"/>
    </mask>
    <g mask="url(#b)" fill="#0061D5">
      <path d="M16.821 6.055c3.158 0 5.719 2.698 5.719 6.027 0 3.331-2.561 6.03-5.719 6.03-2.188 0-4.092-1.299-5.051-3.202-.96 1.903-2.863 3.202-5.052 3.202-3.128 0-5.666-2.645-5.717-5.93H1v-10C1.014 1.525 1.517 1 2.142 1c.624 0 1.132.525 1.143 1.182V7.26a5.514 5.514 0 013.433-1.206c2.19 0 4.093 1.297 5.052 3.203.959-1.906 2.863-3.203 5.051-3.203zM6.718 15.698c1.894 0 3.428-1.618 3.428-3.616 0-1.996-1.534-3.614-3.428-3.614-1.895 0-3.433 1.618-3.433 3.615s1.538 3.615 3.433 3.615zm10.103 0c1.895 0 3.43-1.618 3.43-3.616 0-1.996-1.535-3.614-3.43-3.614-1.895 0-3.431 1.618-3.431 3.614 0 1.998 1.536 3.616 3.431 3.616zm15.06.447a1.26 1.26 0 01-.257 1.718 1.199 1.199 0 01-1.688-.228l-2.612-3.558-2.614 3.558a1.197 1.197 0 01-1.686.228 1.259 1.259 0 01-.254-1.718h-.002l3.036-4.14-3.036-4.148h.002a1.257 1.257 0 01.254-1.718c.53-.409 1.28-.304 1.686.227l2.614 3.562 2.616-3.563a1.197 1.197 0 011.688-.226c.53.406.64 1.17.256 1.718l-3.04 4.148 3.036 4.14z"/>
    </g>
  </g>
</svg>
