<svg xmlns="http://www.w3.org/2000/svg" width="82" height="32" viewBox="0 0 82 32">
    <g fill="none" fill-rule="evenodd">
        <g>
            <g>
                <g>
                    <g>
                        <g>
                            <path d="M0 0L32 0 32 32 0 32z" transform="translate(-679 -694) translate(357 310) translate(322) translate(0 384) translate(25)"/>
                            <g fill="#2E3C43" fill-rule="nonzero">
                                <path d="M3 2.667h13.333V8h5.334v1.333h2.666V6.115L18.22 0H3C1.53 0 .333 1.195.333 2.667v6.666H3V2.667zM5.52 21.835c.551 0 1.055-.1 1.513-.301.457-.201.85-.5 1.176-.896.326-.397.58-.892.763-1.484.182-.593.273-1.286.273-2.08 0-.765-.091-1.439-.273-2.022-.182-.584-.437-1.071-.763-1.463-.327-.392-.719-.689-1.176-.89-.458-.2-.962-.3-1.512-.3s-1.055.1-1.512.3c-.458.201-.85.498-1.176.89-.327.392-.581.88-.763 1.463-.182.583-.273 1.257-.273 2.023 0 .793.09 1.486.273 2.079.182.592.436 1.087.763 1.484.326.396.718.695 1.176.896.457.2.961.3 1.512.3zm0-2.072c-.391 0-.7-.22-.923-.658-.224-.439-.336-1.116-.336-2.03 0-.878.112-1.531.336-1.96.224-.43.532-.644.924-.644s.7.214.924.644c.224.429.336 1.082.336 1.96 0 .914-.112 1.591-.336 2.03-.224.438-.532.658-.924.658zm7.286 2.072c.588 0 1.109-.08 1.561-.238.453-.159.833-.371 1.141-.637.308-.266.542-.577.7-.931.16-.355.238-.724.238-1.106 0-.635-.165-1.153-.497-1.554-.33-.402-.805-.714-1.42-.938l-1.05-.434c-.225-.084-.425-.159-.603-.224-.177-.066-.326-.131-.448-.196-.12-.066-.214-.138-.28-.217-.065-.08-.098-.17-.098-.273 0-.215.082-.371.245-.47.164-.097.38-.146.651-.146.43 0 .796.056 1.1.168.303.112.618.275.944.49l1.204-1.512c-.448-.42-.942-.728-1.484-.924-.54-.196-1.082-.294-1.624-.294-.522 0-.996.074-1.42.224-.425.149-.79.352-1.093.609-.303.256-.539.555-.707.896-.168.34-.252.707-.252 1.099 0 .326.052.625.154.896.103.27.24.51.413.72.173.21.376.393.61.547.233.154.48.277.741.37l1.134.477.553.224c.164.065.301.133.413.203.112.07.199.149.26.238.06.088.09.198.09.329 0 .149-.077.275-.23.378-.155.102-.414.154-.778.154-.42 0-.826-.082-1.218-.245-.392-.164-.76-.376-1.106-.637l-1.372 1.652c.514.448 1.08.777 1.701.987.621.21 1.23.315 1.827.315zm5.886-.168v-2.142c0-.271-.011-.614-.035-1.03-.023-.415-.049-.844-.077-1.287-.028-.444-.06-.87-.098-1.281-.037-.411-.07-.752-.098-1.022h.056l.7 2.702.504 1.652h1.064l.476-1.652.77-2.702h.042c-.028.27-.06.611-.098 1.022-.037.41-.07.837-.098 1.28-.028.444-.053.873-.077 1.289-.023.415-.035.758-.035 1.029v2.142h1.988v-9.1h-2.45l-.742 2.968-.252 1.176h-.056l-.252-1.176-.742-2.968h-2.45v9.1h1.96zM21.667 26.667H3v-1.334H.333v1.334c0 1.472 1.196 2.666 2.667 2.666h18.667c1.47 0 2.666-1.194 2.666-2.666v-1.334h-2.666v1.334z" transform="translate(-679 -694) translate(357 310) translate(322) translate(0 384) translate(25) translate(3.667 1.333)"/>
                            </g>
                        </g>
                    </g>
                </g>
            </g>
        </g>
    </g>
</svg>
