<svg xmlns="http://www.w3.org/2000/svg" width="82" height="32" viewBox="0 0 82 32">
    <g fill="none" fill-rule="evenodd">
        <g>
            <g>
                <g>
                    <g>
                        <path d="M11 0L43 0 43 32 11 32z" transform="translate(-357 -438) translate(357 310) translate(0 128) translate(14)"/>
                        <g fill="#2E3C43" fill-rule="nonzero">
                            <path d="M17 2.667h13.333V8h5.334v1.333h2.666V6.115L32.22 0H17c-1.47 0-2.667 1.195-2.667 2.667v6.666H17V2.667zM5.467 21.835c.29 0 .574-.033.854-.098.28-.066.546-.15.798-.252.252-.103.483-.222.693-.357.21-.136.395-.273.553-.413v-4.34H5.09v1.96h1.134v1.26c-.074.056-.168.098-.28.126-.112.028-.224.042-.336.042-.653 0-1.138-.229-1.456-.686-.317-.458-.476-1.116-.476-1.974 0-.411.047-.78.14-1.106.094-.327.222-.602.385-.826.164-.224.355-.397.574-.518.22-.122.455-.182.707-.182.327 0 .595.051.805.154.21.102.409.247.595.434l1.316-1.484c-.298-.308-.672-.581-1.12-.82-.448-.237-.98-.356-1.596-.356-.588 0-1.143.105-1.666.315-.522.21-.977.518-1.365.924-.387.406-.693.907-.917 1.505-.224.597-.336 1.278-.336 2.044 0 .774.112 1.453.336 2.037.224.583.53 1.068.917 1.456.388.387.84.676 1.358.868.518.191 1.071.287 1.66.287zm10.016-.168V19.65h-3.92v-1.624h3.22V16.01h-3.22v-1.428h3.78v-2.016H9.155v9.1h6.328zm4.038.168c.55 0 1.054-.1 1.512-.301.457-.201.85-.5 1.176-.896.326-.397.58-.892.763-1.484.182-.593.273-1.286.273-2.08 0-.765-.091-1.439-.273-2.022-.182-.584-.437-1.071-.763-1.463-.327-.392-.719-.689-1.176-.89-.458-.2-.962-.3-1.512-.3s-1.055.1-1.512.3c-.458.201-.85.498-1.176.89-.327.392-.581.88-.763 1.463-.182.583-.273 1.257-.273 2.023 0 .793.09 1.486.273 2.079.182.592.436 1.087.763 1.484.326.396.718.695 1.176.896.457.2.961.3 1.512.3zm0-2.072c-.392 0-.7-.22-.924-.658-.224-.439-.336-1.116-.336-2.03 0-.878.112-1.531.336-1.96.224-.43.532-.644.924-.644s.7.214.924.644c.224.429.336 1.082.336 1.96 0 .914-.112 1.591-.336 2.03-.224.438-.532.658-.924.658zm6.95 2.072c.653 0 1.206-.089 1.658-.266.453-.178.82-.418 1.1-.721.28-.304.48-.656.601-1.057.122-.402.182-.831.182-1.288v-5.936h-5.866v2.016h3.458v3.724c0 .289-.025.527-.077.714-.05.186-.13.336-.238.448-.107.112-.235.189-.385.23-.149.043-.322.064-.518.064-.28 0-.56-.08-.84-.238-.28-.159-.55-.388-.812-.686l-1.358 1.498c.215.28.448.515.7.707.252.191.514.345.784.462.271.116.544.2.82.252.275.051.538.077.79.077zm7.677 0c.588 0 1.109-.08 1.561-.238.453-.159.833-.371 1.141-.637.308-.266.542-.577.7-.931.159-.355.238-.724.238-1.106 0-.635-.165-1.153-.497-1.554-.331-.402-.805-.714-1.42-.938l-1.05-.434c-.225-.084-.425-.159-.603-.224-.177-.066-.326-.131-.448-.196-.121-.066-.214-.138-.28-.217-.065-.08-.098-.17-.098-.273 0-.215.082-.371.245-.47.164-.097.38-.146.651-.146.43 0 .796.056 1.1.168.303.112.618.275.944.49l1.204-1.512c-.448-.42-.942-.728-1.484-.924-.541-.196-1.082-.294-1.624-.294-.522 0-.996.074-1.42.224-.425.149-.79.352-1.093.609-.303.256-.539.555-.707.896-.168.34-.252.707-.252 1.099 0 .326.052.625.154.896.103.27.24.51.413.72.173.21.376.393.61.547.233.154.48.277.741.37l1.134.477.553.224c.164.065.301.133.413.203.112.07.199.149.26.238.06.088.09.198.09.329 0 .149-.077.275-.23.378-.155.102-.414.154-.778.154-.42 0-.826-.082-1.218-.245-.392-.164-.76-.376-1.106-.637l-1.372 1.652c.514.448 1.08.777 1.701.987.62.21 1.23.315 1.827.315zm7.398 0c.55 0 1.055-.1 1.512-.301.457-.201.85-.5 1.176-.896.327-.397.58-.892.763-1.484.182-.593.273-1.286.273-2.08 0-.765-.091-1.439-.273-2.022-.182-.584-.436-1.071-.763-1.463-.327-.392-.719-.689-1.176-.89-.457-.2-.961-.3-1.512-.3-.55 0-1.055.1-1.512.3-.457.201-.85.498-1.176.89-.327.392-.581.88-.763 1.463-.182.583-.273 1.257-.273 2.023 0 .793.09 1.486.273 2.079.182.592.436 1.087.763 1.484.327.396.719.695 1.176.896.457.2.961.3 1.512.3zm0-2.072c-.392 0-.7-.22-.924-.658-.224-.439-.336-1.116-.336-2.03 0-.878.112-1.531.336-1.96.224-.43.532-.644.924-.644s.7.214.924.644c.224.429.336 1.082.336 1.96 0 .914-.112 1.591-.336 2.03-.224.438-.532.658-.924.658zm6.278 1.904v-2.632c0-.56-.042-1.148-.126-1.764-.084-.616-.154-1.186-.21-1.708h.056l.742 2.03 1.526 4.074h2.436v-9.1h-2.296v2.632c0 .28.011.571.035.875.023.303.053.606.09.91.038.303.075.6.113.889.037.289.07.555.098.798h-.056l-.742-2.044-1.526-4.06h-2.436v9.1h2.296zM35.667 26.667H17v-1.334h-2.667v1.334c0 1.472 1.196 2.666 2.667 2.666h18.667c1.47 0 2.666-1.194 2.666-2.666v-1.334h-2.666v1.334z" transform="translate(-357 -438) translate(357 310) translate(0 128) translate(14) translate(.667 1.333)"/>
                        </g>
                    </g>
                </g>
            </g>
        </g>
    </g>
</svg>
