<svg xmlns="http://www.w3.org/2000/svg" width="40" height="32" viewBox="0 0 40 32">
    <g fill="none" fill-rule="evenodd">
        <g>
            <g>
                <g>
                    <g>
                        <g>
                            <path d="M3 0L35 0 35 32 3 32z" transform="translate(-701 -438) translate(357 310) translate(322) translate(0 128) translate(22)"/>
                            <g fill="#2E3C43" fill-rule="nonzero">
                                <path d="M9 2.667h13.333V8h5.334v1.333h2.666V6.115L24.22 0H9C7.53 0 6.333 1.195 6.333 2.667v6.666H9V2.667zM27.667 26.667H9v-1.334H6.333v1.334c0 1.472 1.196 2.666 2.667 2.666h18.667c1.47 0 2.666-1.194 2.666-2.666v-1.334h-2.666v1.334zM7.777 22.397V20.38h-3.92v-1.624h3.22V16.74h-3.22v-1.428h3.78v-2.016H1.45v9.1h6.328zm2.82 0l.783-1.624c.112-.243.222-.486.33-.728.106-.243.211-.504.314-.784h.056c.121.28.236.541.343.784.107.242.226.485.357.728l.84 1.624h2.688l-2.632-4.564 2.478-4.536h-2.576l-.644 1.484c-.093.214-.191.445-.294.693-.103.247-.205.52-.308.819h-.056c-.13-.299-.252-.572-.364-.82-.112-.247-.22-.478-.322-.692l-.728-1.484H8.174l2.478 4.424-2.632 4.676h2.576zm10.07.168c.616 0 1.183-.112 1.7-.336.519-.224.969-.56 1.352-1.008l-1.316-1.456c-.196.214-.418.39-.665.525-.248.135-.52.203-.82.203-.615 0-1.12-.229-1.511-.686-.392-.458-.588-1.116-.588-1.974 0-.411.051-.78.154-1.106.102-.327.242-.602.42-.826.177-.224.387-.397.63-.518.242-.122.504-.182.784-.182.308 0 .578.051.812.154.233.102.457.247.672.434l1.316-1.484c-.327-.308-.728-.581-1.204-.82-.476-.237-1.008-.356-1.596-.356-.616 0-1.195.107-1.736.322-.542.214-1.013.525-1.414.93-.402.407-.719.906-.952 1.499-.234.592-.35 1.271-.35 2.037 0 .774.119 1.453.357 2.037.238.583.555 1.068.952 1.456.396.387.854.676 1.372.868.518.191 1.061.287 1.63.287zm10.182-.168V20.38h-3.92v-1.624h3.22V16.74h-3.22v-1.428h3.78v-2.016h-6.188v9.1h6.328zm7.817 0V20.38h-3.878v-7.084H32.38v9.1h6.286z" transform="translate(-701 -438) translate(357 310) translate(322) translate(0 128) translate(22) translate(.667 1.333)"/>
                            </g>
                        </g>
                    </g>
                </g>
            </g>
        </g>
    </g>
</svg>
