<svg xmlns="http://www.w3.org/2000/svg" width="40" height="32" viewBox="0 0 40 32">
    <g fill="none" fill-rule="evenodd">
        <g>
            <g>
                <g>
                    <g>
                        <g>
                            <path d="M3 0L35 0 35 32 3 32z" transform="translate(-701 -566) translate(357 310) translate(322) translate(0 256) translate(22)"/>
                            <g fill="#2E3C43" fill-rule="nonzero">
                                <path d="M9 2.667h13.333V8h5.334v1.333h2.666V6.115L24.22 0H9C7.53 0 6.333 1.195 6.333 2.667v6.666H9V2.667zM4.991 21.835c.616 0 1.183-.112 1.701-.336.518-.224.968-.56 1.351-1.008l-1.316-1.456c-.196.214-.418.39-.665.525-.247.135-.52.203-.819.203-.616 0-1.12-.229-1.512-.686-.392-.458-.588-1.116-.588-1.974 0-.411.051-.78.154-1.106.103-.327.243-.602.42-.826.177-.224.387-.397.63-.518.243-.122.504-.182.784-.182.308 0 .579.051.812.154.233.102.457.247.672.434l1.316-1.484c-.327-.308-.728-.581-1.204-.82-.476-.237-1.008-.356-1.596-.356-.616 0-1.195.107-1.736.322-.541.214-1.013.525-1.414.93-.401.407-.719.906-.952 1.499-.233.592-.35 1.271-.35 2.037 0 .774.12 1.453.357 2.037.238.583.555 1.068.952 1.456.397.387.854.676 1.372.868.518.191 1.062.287 1.631.287zm4.994-.168l.448-1.932h2.492l.448 1.932h2.548l-2.744-9.1h-2.912l-2.744 9.1h2.464zm2.506-3.794h-1.624l.14-.63c.102-.439.207-.913.315-1.421.107-.509.212-.997.315-1.463h.056c.102.466.212.954.329 1.463.116.508.226.982.329 1.42l.14.63zm5.791 3.794v-3.052h.868l1.568 3.052h2.688l-1.974-3.528c.448-.243.805-.579 1.071-1.008.266-.43.4-.971.4-1.624 0-.57-.099-1.043-.295-1.421-.196-.378-.46-.68-.79-.903-.332-.224-.72-.383-1.163-.476-.443-.094-.907-.14-1.393-.14h-3.388v9.1h2.408zm.812-4.956h-.812v-2.24h.812c.476 0 .838.074 1.085.224.248.149.371.42.371.812 0 .802-.485 1.204-1.456 1.204zm8.914 4.956v-7.084h2.618v-2.016h-7.644v2.016H25.6v7.084h2.408zm6.338.168c.55 0 1.055-.1 1.512-.301.457-.201.85-.5 1.176-.896.327-.397.58-.892.763-1.484.182-.593.273-1.286.273-2.08 0-.765-.091-1.439-.273-2.022-.182-.584-.436-1.071-.763-1.463-.327-.392-.719-.689-1.176-.89-.457-.2-.961-.3-1.512-.3-.55 0-1.055.1-1.512.3-.457.201-.85.498-1.176.89-.327.392-.581.88-.763 1.463-.182.583-.273 1.257-.273 2.023 0 .793.09 1.486.273 2.079.182.592.436 1.087.763 1.484.327.396.719.695 1.176.896.457.2.961.3 1.512.3zm0-2.072c-.392 0-.7-.22-.924-.658-.224-.439-.336-1.116-.336-2.03 0-.878.112-1.531.336-1.96.224-.43.532-.644.924-.644s.7.214.924.644c.224.429.336 1.082.336 1.96 0 .914-.112 1.591-.336 2.03-.224.438-.532.658-.924.658zM27.667 26.667H9v-1.334H6.333v1.334c0 1.472 1.196 2.666 2.667 2.666h18.667c1.47 0 2.666-1.194 2.666-2.666v-1.334h-2.666v1.334z" transform="translate(-701 -566) translate(357 310) translate(322) translate(0 256) translate(22) translate(.667 1.333)"/>
                            </g>
                        </g>
                    </g>
                </g>
            </g>
        </g>
    </g>
</svg>
