<svg xmlns="http://www.w3.org/2000/svg" width="82" height="32" viewBox="0 0 82 32">
    <g fill="none" fill-rule="evenodd">
        <g>
            <g>
                <g>
                    <g>
                        <path d="M23 0L55 0 55 32 23 32z" transform="translate(-357 -694) translate(357 310) translate(0 384) translate(2)"/>
                        <g fill="#2E3C43" fill-rule="nonzero">
                            <path d="M29 2.667h13.333V8h5.334v1.333h2.666V6.115L44.22 0H29c-1.47 0-2.667 1.195-2.667 2.667v6.666H29V2.667zM47.667 26.667H29v-1.334h-2.667v1.334c0 1.472 1.196 2.666 2.667 2.666h18.667c1.47 0 2.666-1.194 2.666-2.666v-1.334h-2.666v1.334zM4.27 21.833c.29 0 .574-.033.854-.098.28-.066.546-.15.798-.252.252-.103.483-.222.693-.357.21-.136.394-.273.553-.413v-4.34H3.892v1.96h1.134v1.26c-.075.056-.168.098-.28.126-.112.028-.224.042-.336.042-.653 0-1.139-.229-1.456-.686-.317-.458-.476-1.116-.476-1.974 0-.411.047-.78.14-1.106.093-.327.222-.602.385-.826.163-.224.355-.397.574-.518.22-.122.455-.182.707-.182.327 0 .595.051.805.154.21.102.408.247.595.434L7 13.573c-.299-.308-.672-.581-1.12-.82-.448-.237-.98-.356-1.596-.356-.588 0-1.143.105-1.666.315-.523.21-.978.518-1.365.924s-.693.907-.917 1.505C.112 15.738 0 16.419 0 17.185c0 .774.112 1.453.336 2.037.224.583.53 1.068.917 1.456.387.387.84.676 1.358.868.518.191 1.071.287 1.659.287zm10.265-.168v-2.016h-3.92v-1.624h3.22v-2.016h-3.22V14.58h3.78v-2.016H8.207v9.1h6.328zm4.286.168c.55 0 1.055-.1 1.512-.301.458-.201.85-.5 1.176-.896.327-.397.581-.892.763-1.484.182-.593.273-1.286.273-2.08 0-.765-.09-1.439-.273-2.022-.182-.584-.436-1.071-.763-1.463-.326-.392-.718-.689-1.176-.89-.457-.2-.961-.3-1.512-.3-.55 0-1.054.1-1.512.3-.457.201-.85.498-1.176.89-.326.392-.58.88-.763 1.463-.182.583-.273 1.257-.273 2.023 0 .793.091 1.486.273 2.079.182.592.437 1.087.763 1.484.327.396.719.695 1.176.896.458.2.962.3 1.512.3zm0-2.072c-.392 0-.7-.22-.924-.658-.224-.439-.336-1.116-.336-2.03 0-.878.112-1.531.336-1.96.224-.43.532-.644.924-.644s.7.214.924.644c.224.429.336 1.082.336 1.96 0 .914-.112 1.591-.336 2.03-.224.438-.532.658-.924.658zm6.695 1.904V18.78h1.008c.476 0 .933-.063 1.372-.19.439-.125.826-.317 1.162-.573.336-.257.604-.586.805-.987.2-.402.3-.882.3-1.442 0-.57-.097-1.048-.293-1.435-.196-.388-.46-.7-.791-.938s-.719-.406-1.162-.504c-.443-.098-.908-.147-1.393-.147h-3.416v9.1h2.408zm.896-4.788h-.896v-2.408h.896c.448 0 .793.084 1.036.252.243.168.364.457.364.868 0 .41-.114.728-.343.952-.229.224-.581.336-1.057.336zm5.855 4.788l.447-1.932h2.492l.448 1.932h2.548l-2.743-9.1h-2.913l-2.744 9.1h2.465zm2.505-3.794H33.15l.14-.63c.102-.439.207-.913.314-1.421.108-.509.213-.997.316-1.463h.056c.102.466.212.954.328 1.463.117.508.227.982.33 1.42l.14.63zm7.633 3.962c.616 0 1.183-.112 1.701-.336.518-.224.968-.56 1.351-1.008l-1.316-1.456c-.196.214-.418.39-.665.525-.247.135-.52.203-.819.203-.616 0-1.12-.229-1.512-.686-.392-.458-.588-1.116-.588-1.974 0-.411.051-.78.154-1.106.103-.327.243-.602.42-.826.177-.224.387-.397.63-.518.243-.122.504-.182.784-.182.308 0 .579.051.812.154.233.102.457.247.672.434l1.316-1.484c-.327-.308-.728-.581-1.204-.82-.476-.237-1.008-.356-1.596-.356-.616 0-1.195.107-1.736.322-.541.214-1.013.525-1.414.93-.401.407-.719.906-.952 1.499-.233.592-.35 1.271-.35 2.037 0 .774.12 1.453.357 2.037.238.583.555 1.068.952 1.456.397.387.854.676 1.372.868.518.191 1.062.287 1.631.287zm5.799-.168V19.34l.854-1.176 1.666 3.5h2.66l-2.912-5.418 2.688-3.682H50.5l-2.24 3.388h-.056v-3.388h-2.436v9.1h2.436zm7.834 0l.448-1.932h2.492l.448 1.932h2.548l-2.744-9.1h-2.912l-2.744 9.1h2.464zm2.506-3.794H56.92l.14-.63c.103-.439.208-.913.315-1.421.108-.509.213-.997.315-1.463h.056c.103.466.213.954.33 1.463.116.508.226.982.328 1.42l.14.63zm7.451 3.962c.29 0 .574-.033.854-.098.28-.066.546-.15.798-.252.252-.103.483-.222.693-.357.21-.136.394-.273.553-.413v-4.34h-3.276v1.96h1.134v1.26c-.075.056-.168.098-.28.126-.112.028-.224.042-.336.042-.653 0-1.139-.229-1.456-.686-.317-.458-.476-1.116-.476-1.974 0-.411.047-.78.14-1.106.093-.327.222-.602.385-.826.163-.224.355-.397.574-.518.22-.122.455-.182.707-.182.327 0 .595.051.805.154.21.102.408.247.595.434l1.316-1.484c-.299-.308-.672-.581-1.12-.82-.448-.237-.98-.356-1.596-.356-.588 0-1.143.105-1.666.315-.523.21-.978.518-1.365.924s-.693.907-.917 1.505c-.224.597-.336 1.278-.336 2.044 0 .774.112 1.453.336 2.037.224.583.53 1.068.917 1.456.387.387.84.676 1.358.868.518.191 1.071.287 1.659.287zm10.265-.168v-2.016h-3.92v-1.624h3.22v-2.016h-3.22V14.58h3.78v-2.016h-6.188v9.1h6.328z" transform="translate(-357 -694) translate(357 310) translate(0 384) translate(2) translate(.667 1.333)"/>
                        </g>
                    </g>
                </g>
            </g>
        </g>
    </g>
</svg>
