<svg xmlns="http://www.w3.org/2000/svg" width="82" height="32" viewBox="0 0 82 32">
    <g fill="none" fill-rule="evenodd">
        <g>
            <g>
                <g>
                    <g>
                        <path d="M0 0L32 0 32 32 0 32z" transform="translate(-679 -310) translate(357 310) translate(322) translate(25)"/>
                        <g fill="#2E3C43" fill-rule="nonzero">
                            <path d="M3 2.667h13.333V8h5.334v1.333h2.666V6.115L18.22 0H3C1.53 0 .333 1.195.333 2.667v6.666H3V2.667zM4.54 21.667v-2.324l.855-1.176 1.666 3.5h2.66l-2.912-5.418 2.688-3.682h-2.66l-2.24 3.388H4.54v-3.388H2.105v9.1H4.54zm6.81 0v-2.142c0-.271-.011-.614-.035-1.03-.023-.415-.049-.844-.077-1.287-.028-.444-.06-.87-.098-1.281-.037-.411-.07-.752-.098-1.022h.056l.7 2.702.504 1.652h1.064l.476-1.652.77-2.702h.042c-.028.27-.06.611-.098 1.022-.037.41-.07.837-.098 1.28-.028.444-.053.873-.077 1.289-.023.415-.035.758-.035 1.029v2.142h1.988v-9.1h-2.45l-.742 2.968-.252 1.176h-.056l-.252-1.176-.742-2.968H9.39v9.1h1.96zm12.284 0V19.65h-3.878v-7.084h-2.408v9.1h6.286zM21.667 26.667H3v-1.334H.333v1.334c0 1.472 1.196 2.666 2.667 2.666h18.667c1.47 0 2.666-1.194 2.666-2.666v-1.334h-2.666v1.334z" transform="translate(-679 -310) translate(357 310) translate(322) translate(25) translate(3.667 1.333)"/>
                        </g>
                    </g>
                </g>
            </g>
        </g>
    </g>
</svg>
