<svg xmlns="http://www.w3.org/2000/svg" width="32" height="32" viewBox="0 0 32 32">
    <g fill="none" fill-rule="evenodd">
        <g>
            <g>
                <g>
                    <g>
                        <g>
                            <path d="M0 0L32 0 32 32 0 32z" transform="translate(-1026 -438) translate(353 310) translate(648) translate(0 128) translate(25)"/>
                            <g fill-rule="nonzero">
                                <path fill="#047AE6" d="M5.333 12L9.333 12 9.333 14.667 5.333 14.667zM10.667 12L18.667 12 18.667 14.667 10.667 14.667zM5.333 16L9.333 16 9.333 18.667 5.333 18.667zM5.333 20L9.333 20 9.333 22.667 5.333 22.667zM10.667 16L18.667 16 18.667 18.667 10.667 18.667zM10.667 20L18.667 20 18.667 22.667 10.667 22.667z" transform="translate(-1026 -438) translate(353 310) translate(648) translate(0 128) translate(25) translate(4 1.333)"/>
                                <path fill="#2E3C43" d="M2.667 0C1.196 0 0 1.197 0 2.667v24c0 1.47 1.196 2.666 2.667 2.666h18.666c1.471 0 2.667-1.196 2.667-2.666V6.115L17.885 0H2.667zm18.668 26.667H2.667v-24H16V8h5.333l.002 18.667z" transform="translate(-1026 -438) translate(353 310) translate(648) translate(0 128) translate(25) translate(4 1.333)"/>
                            </g>
                        </g>
                    </g>
                </g>
            </g>
        </g>
    </g>
</svg>
