<svg xmlns="http://www.w3.org/2000/svg" width="32" height="32" viewBox="0 0 32 32">
    <g fill="none" fill-rule="evenodd">
        <g>
            <g>
                <g>
                    <path d="M0 0L32 0 32 32 0 32z" transform="translate(-382 -310) translate(357 310) translate(25)"/>
                    <g fill="#2E3C43" fill-rule="nonzero">
                        <path d="M3 2.667h13.333V8h5.334v1.333h2.666V6.115L18.22 0H3C1.53 0 .333 1.195.333 2.667v6.666H3V2.667zM6.333 21.835c.616 0 1.183-.112 1.7-.336.519-.224.97-.56 1.352-1.008l-1.316-1.456c-.196.214-.418.39-.665.525-.248.135-.52.203-.82.203-.615 0-1.12-.229-1.511-.686-.392-.458-.588-1.116-.588-1.974 0-.411.051-.78.154-1.106.102-.327.242-.602.42-.826.177-.224.387-.397.63-.518.242-.122.504-.182.784-.182.308 0 .578.051.812.154.233.102.457.247.672.434l1.316-1.484c-.327-.308-.728-.581-1.204-.82-.476-.237-1.008-.356-1.596-.356-.616 0-1.195.107-1.736.322-.542.214-1.013.525-1.414.93-.402.407-.719.906-.952 1.499-.234.592-.35 1.271-.35 2.037 0 .774.119 1.453.357 2.037.238.583.555 1.068.952 1.456.396.387.854.676 1.372.868.518.191 1.061.287 1.63.287zm6.473 0c.588 0 1.109-.08 1.561-.238.453-.159.833-.371 1.141-.637.308-.266.542-.577.7-.931.16-.355.238-.724.238-1.106 0-.635-.165-1.153-.497-1.554-.33-.402-.805-.714-1.42-.938l-1.05-.434c-.225-.084-.425-.159-.603-.224-.177-.066-.326-.131-.448-.196-.12-.066-.214-.138-.28-.217-.065-.08-.098-.17-.098-.273 0-.215.082-.371.245-.47.164-.097.38-.146.651-.146.43 0 .796.056 1.1.168.303.112.618.275.944.49l1.204-1.512c-.448-.42-.942-.728-1.484-.924-.54-.196-1.082-.294-1.624-.294-.522 0-.996.074-1.42.224-.425.149-.79.352-1.093.609-.303.256-.539.555-.707.896-.168.34-.252.707-.252 1.099 0 .326.052.625.154.896.103.27.24.51.413.72.173.21.376.393.61.547.233.154.48.277.741.37l1.134.477.553.224c.164.065.301.133.413.203.112.07.199.149.26.238.06.088.09.198.09.329 0 .149-.077.275-.23.378-.155.102-.414.154-.778.154-.42 0-.826-.082-1.218-.245-.392-.164-.76-.376-1.106-.637l-1.372 1.652c.514.448 1.08.777 1.701.987.621.21 1.23.315 1.827.315zm8.854-.168l2.688-9.1h-2.464l-.924 3.976c-.121.485-.23.963-.329 1.435-.098.471-.212.954-.343 1.449h-.056c-.13-.495-.242-.978-.336-1.45-.093-.47-.205-.949-.336-1.434l-.952-3.976H16.06l2.688 9.1h2.912zM21.667 26.667H3v-1.334H.333v1.334c0 1.472 1.196 2.666 2.667 2.666h18.667c1.47 0 2.666-1.194 2.666-2.666v-1.334h-2.666v1.334z" transform="translate(-382 -310) translate(357 310) translate(25) translate(3.667 1.333)"/>
                    </g>
                </g>
            </g>
        </g>
    </g>
</svg>
