<svg width="21" height="19" xmlns="http://www.w3.org/2000/svg">
  <g fill="none" fill-rule="evenodd">
    <g fill-rule="nonzero">
      <path fill="#FDEE21" d="M13.562 17.01v1.856h-1.099V14.72h1.099v1.498h.097V14.72h1.11v4.146h-1.11v-1.853z"/>
      <path fill="#000" d="M12.57 14.828v3.93h.885v-1.857l.311.006v1.851h.896v-3.93h-.896v1.498h-.311v-1.498z"/>
      <path fill="#FDEE21" d="M16.003 18.865H14.93V14.72h1.073z"/>
      <path fill="#000" d="M15.895 14.828h-.858v3.93h.858z"/>
      <path fill="#FDEE21" d="M17.713 14.72h1.136l-.783 4.145h-1.24l-.784-4.145h1.153l.259 1.769z"/>
      <path d="M17.103 14.827h-.931l.742 3.931h1.063l.742-3.93h-.914l-.246 1.686-.003.009c-.04.112-.184.11-.207-.011v-.003l-.246-1.682z" fill="#000"/>
      <path fill="#FDEE21" d="M20.96 17.7v1.165h-2.025V14.72h2.024v1.166h-1.065v.3h.507v1.158h-.507v.347z"/>
      <path fill="#000" d="M19.043 14.828v3.93h1.809v-.952l-1.066-.009v-.56h.508v-.945h-.508v-.513h1.066v-.951z"/>
    </g>
    <path d="M10.556 2.528C10.394 2.086 4.84-.072 4.77.164 3.75.43 3.335 1.606 2.634 2.35l-1.558-.09C.39 3.144.03 4.046.276 4.983c.879 1.191 1.9 2.205 2.536 3.702.05.705 3.053.074 3.697-.066-.88.63-1.645 1.605-1.316 4.415.3 1.32.506 2.792 3.17 4.285.35.196 1.076.423 1.525.588.43.197.931.278 2.347-.155.819-.353 1.703-.566 2.505-.918l-.964.045c-1.326.029-2.35.128-2.667-.243l-1.22-2.108.711-1.383c.985.101 1.312.9 2.18 1.204l1.024-.758c2.973 1.755 4.156-1.112 4.495-3.345-.036-.909-1.967.285-1.85-.14.045-.977-.75-2.254-1.265-3.25l.595-2.303c.27-.241-1.25-2.803-2.492-3.123-1.09-.28-2.731 1.1-2.731 1.1z" fill="#FDEE21"/>
    <g fill-rule="nonzero">
      <g fill="#C8C037">
        <path d="M15.44 7.424c.01.247.01.548.033.736-.004.143-.111.148-.2.178l.578.212c.115.193.207.387.3.58.109.475.028.489-.044.524-.21.002-.42.002-.615-.04.088.047.107.08.117.14.017.11-.054.258-.17.402.172.095.484.188.715.276l.265-.589c-.12-.864-.483-1.66-.98-2.42zM16.52 10.322c.32.134.764.095 1.378-.222.092-.065.177-.026.013.08-.806.724-1.192.362-1.392.142z"/>
        <path d="M17.96 10.005c.095.183.037.331.005.485a4.115 4.115 0 01-.823 2.052c-1.56 2.507-3.134.938-4.39-.083l-.518 1.301c-.028.115-.142.203.668.56l.826-.583c3.15 2.397 5.383-3.355 4.232-3.732zM13.133 12.246c-.213.015-.845.23-.873.354l.29-.433.583.079zM12.72 9.587c.038 0 .225.05.205.039-.028-.016-.003.262.056.407l-.228.496c.437-.504 1.128-.47 1.769-.535l-.306-.19c.053-.177-.01-.317-.039-.468l-1.457.251zM13.793 8.093c-.469.144-.917.378-1.219.879.23-.825.277-.794.351-.835.322-.143.585-.054.868-.044z"/>
      </g>
      <g fill="#FCF6A0">
        <path d="M11.29 17.76c-.567.626-1.832-.046-2.882-.39-2.669-1.696-3.19-3.294-3.226-4.861-.137-2.245.552-3.55 1.424-3.859-.577 1.113-.846 3.11-.579 4.595.216.826.22 2.22 1.603 2.965.677.381.494.678.951 1.035.502.39 1.9.763 2.709.516zM12.137 7.386c-.96-1.361-2.31-1.872-3.832-1.928.305-.1.61-.15.915-.298.075-.078.05-.217.023-.357-1.465-.382-2.39-.855-3.56-1.293l3.16.758c2.133.081 1.95.608 3.294 3.118z"/>
        <path d="M13.164 6.73c-.71-1.013-1.397-2.241-2.33-3.023C8.58 2.69 6.35 1.934 3.736 1.247L4.571.175c2.773.632 5.377 1.691 7.71 3.437.394.998.658 1.998.883 3.117zM14.594 4.94s-.398-.891-.591-1.232c-.45-.498-.677-1.425-1.596-1.862.29.079.49-.015 1.084.523l.935 1.775.168.797z"/>
        <path d="M15.088 6.486c.092-.773.266-2.013.066-2.502-.556-.746-1.116-1.517-1.676-2.233-.092-.086-.16-.203-.232-.295.787.204 1.61.752 2.717 2.913l-.875 2.117z"/>
      </g>
      <g fill="#000">
        <path d="M11.778 6.577c-.314-.247-.594-1.12-1.069-1.301-.44-.037-.601-.176-1.18-.058.21-.105.408-.24.631-.311.151-.036.293.003.437.023.036-.016.06-.037.05-.069-.582-.36-1.777-.365-2.583-.57.936.03 1.971-.021 2.675.205.565.502.75 1.447 1.039 2.081zM13.493 2.367c.13.011.828 1.117.861 1.3.058.403.201.853.24 1.274-.115-.403-.24-.807-.397-1.21-.046-.111-.162-.363-.484-.718-.15-.25-.182-.447-.22-.646zM15.86 8.387h-.298l.33.117zM13.82 8.088a2.7 2.7 0 00-.909.024c-.123.165-.131.332-.185.487.366-.403.51-.427 1.095-.51zM17.92 10.167c-.166.134-.183.26-.678.41-.36.085-.564-.06-.734-.254.257.074.298.268.989.05l.424-.206zM16.422 10.25c-.12.332-.25.666-.381.976-.312.366-.18.157-.646.725.15-.23.344-.451.445-.691.072-.158.16-.326.2-.466-.124-.062-.377-.067-.411-.045-.415.245-.49.504-.734.756.177-.283.328-.592.534-.847.023-.034.175-.04.269-.06-.146-.024-.415-.077-.436-.074-.27.065-.422.3-.623.457.146-.211.281-.432.467-.613.018-.022.521.022.781.126l.006.104.148.06.11-.28.27-.127zM13.14 12.247c-.067-.023-.657-.099-.657-.081-.226.16-.26.315-.256.449.377-.371.363-.372.913-.368zM12.692 9.582s.425-.062.417-.023c-.03.148.052.508.061.457l-.24.196c.502-.252 1.03-.202 1.564-.24 0 0-.45-.124-.423-.128.1-.015-.026-.47-.06-.48.085-.029.168-.05.255-.072-.644-.169-1.016-.07-1.574.29z"/>
        <path d="M16.374 9.9l-.094.047c-.014-.277-.311-.257-.562-.26l-.206-.05c.063.058.256.054.178.179-.066.035-.096.185-.133.312l-.112.005c.197.077.38.145.596.235l.127.02.306-.165-.1-.324z"/>
      </g>
      <g fill="#FFF">
        <path d="M13.554 9.712c-.048-.094-.289-.08-.34-.02-.043.05-.003.37.05.316a.413.413 0 01.304-.092.371.371 0 00-.014-.204zM15.864 10.189a.408.408 0 00.056-.225c-.032-.113-.256-.09-.256-.09-.055.033-.103.21-.083.267.01.05.248.065.283.048z"/>
      </g>
      <g fill="#000">
        <path d="M6.284 15.717l.141.014c.84.412 2.22 1.023 4.22.695l.315.493c-.881.428-1.829.33-2.716.36l-1.96-1.562zM5.08 12.46l.42 1.765c1.125.703 3.047 1.509 4.649 1.444l-.354-.813c-3.345-.71-3.627-1.608-4.716-2.396zM6.125 8.846c.205 1.368.48 2.404 1.669 3.272.728.525 1.452 1.046 2.331 1.477 0 0-.077.402-.141.394-2.618-.29-4.535-2.462-4.768-3.453.225-.76.548-1.236.909-1.69zM7.384 8.072c.349 1.515 1.18 3.05 2.007 4.442.304.385.383.555.85.789.632.2 1.078.149 1.536.119-.125-.233-.237-.476-.381-.694-1.026-.812-.552-1.551-.28-2.019-.57-.144-1.326-.45-1.43-.854-.168-1.304-.083-1.717.085-2.387-.773.163-1.556.324-2.387.604z"/>
        <path d="M4.549.022c-.254.166-.5.403-.762.673-.437.452-.727.892-1.171 1.22-.089.076-.338.2-.652.217-.147.008-.244.032-.515-.002-.24-.13-.467-.045-.688.22C.517 2.7.209 3.364.08 3.783c-.264 1.066.41 1.945 1.055 2.622.574.561.905.912 1.141 1.426.179.334.31.792.454 1.113.052.101.041.1.18.132.3.064.716.064 1.087.096.16.002.38-.004.59-.026.287-.054.624-.107.908-.205.276-.068.523-.162.745-.25-.029.098-.24.192-.32.315-.753 1.078-.96 2.037-.828 3.551.074.67.228 1.227.46 1.863.107.292.333.753.55 1.06.644.91 2.087 2.08 4.094 2.53.35.048.748.023 1.122-.077.991-.3 3.01-1.01 3.01-1.01s-1.792.147-2.613.066c-.19-.03-.4-.04-.532-.169-.022-.029-.103-.191-.05-.193.07-.002.274-.086.59-.114-.673-.073-.664-.072-.713-.195a7.644 7.644 0 00-.313-.677c.295.025.95.061 1.172-.168 0 0-.388.045-.73.005a2.116 2.116 0 01-.37-.106c-.154-.06-.28-.078-.31-.117-.054-.136-.09-.182-.154-.363-.087-.241-.094-.51-.11-.756.223.276.508.508.886.627.005-.01.49.21.842.097l.073-.023c0 .006-.233.02-.319-.022-.716-.305-.824-.571-.94-.704l-.31-.463c.095-.188.148-.195.273-.197.377.042.541.074.77.019.156.32.197.64.55.872 1.176.35 1.432-.103 1.717-.503.846.62 2.223.812 3.18.01 1.216-1.407 1.601-3.626 1.494-3.752-.152-.258-.352-.524-.523-.487-.61.167-.835.476-1.439.405.072-.004.193-.006.194-.012.047-.512-.004-.76-.026-.802-.184-.405-.424-.83-.592-1.15-.044-.066-.17-.568-.384-.767a17.948 17.948 0 01-.315-.283l-.019.218s.088.013.121.149c.126.513.768 1.727.815 1.785.228.367.024.825.197 1.082.016.032.353-.003.613.013.429-.092.41-.281.781-.31.25-.019.275.45.271.486a5.559 5.559 0 01-.444 1.668c-.501.965-1.062 1.831-1.857 1.952-.97.17-1.474-.255-2-.525l-.201.172c-.683.68-1.495.62-1.827-.27-.165-.344-.38-.556-.564-.852l-.978.705c-.081.166-.181.43-.303.724a2.405 2.405 0 00-.15.847c-.126.213.433 1.079.787 1.605.104.156.299.427.305.444.07.182.224.343.233.362.656.856-.828.659-1.134.607-.605-.096-1.196-.349-1.752-.686a7.103 7.103 0 01-.096-.06c-.661-.416-1.269-.948-1.786-1.475-.308-.349-.601-1.064-.818-1.57-.325-1.22-.791-3.333.472-4.935.08-.091.166-.244.24-.274a3.494 3.494 0 011.22-.522l-.044-.284c-.219.05-.955.319-1.164.432-.473.137-.866.28-1.47.431a2.25 2.25 0 01-.577 0c-.435-.06-1.175-.007-1.222-.05-.294-.411-.375-1.146-.643-1.539l-.003-.004-.003-.004c-.157-.21-.34-.381-.519-.56C1.165 6.124.615 5.507.461 4.853c-.039-.194-.139-.394-.086-.966l.001-.003.001-.003c.155-.534.407-.97.834-1.406.444.007.884.017 1.227.083.157.026.484.069.822.195.855.318 1.984.841 1.984.841-.848-.465-1.796-1.07-2.394-1.192-.09-.012-.144-.053-.17-.124.9-.529 1.064-1.152 1.657-1.71.27-.118.376-.178.606-.203C7.069.7 8.408 1.548 9.467 2.115c.43.233.82.41 1.194.623.327.107 1.314.853 1.603 1.255.294.62.508 1.289.703 1.934.14.657.264.924.264.924s-.12-.55-.1-.648c.124.046.416.137.537.123 0 0-.54-.28-.612-.527-.227-.792-.455-2.026-.516-2.09-.174-.218-.896-.77-1.34-1.027-.167-.096-.257-.156-.265-.199.142-.143.317-.332.474-.452.15-.116.287-.245.496-.323.92-.415 1.447.16 1.572.043 0 0-.198-.227-.11-.19.09.05.383.107.416.137.335.262 1.212 1.221 1.74 2.233.128.248.18.412.12.71a5.19 5.19 0 01-.169.663c-.058.133-.387 1.046-.386 1.17-.066.5.215 1.127.215 1.127.003-.17-.01-.26.005-.382l.02-.218s-.013-.058-.01-.08c.014-.151.05-.278.061-.364.106-.654.29-1.125.498-1.7.062-.145.143-.225.14-.336.002-.195-.173-.458-.3-.715a7.778 7.778 0 00-.48-.853c-.457-.657-.846-1.171-1.56-1.493-.2-.088-.984-.173-1.255-.122-.33.068-.612.136-.838.28-.355.227-.634.58-.96.787-.724-.362-1.073-.633-1.139-.67-.43-.23-.946-.498-1.502-.752C7.717.735 6.063.141 4.55.023zm9.256 13.497c-.446-.349-.821-.708-1.069-1.077-.08.434-.374.744-.6 1.048-.046.072-.078.17.144.48.06.082.276.096.423.089-.15-.113-.375-.232-.412-.335.262.178.504.23.723.2.05-.005.112-.058.16-.14.098-.21.175-.26.252-.316l.178.223.201-.172z"/>
      </g>
    </g>
  </g>
</svg>
