<svg width="9" height="11" xmlns="http://www.w3.org/2000/svg">
  <g fill="#636D72" fill-rule="evenodd">
    <path d="M4.921 7.816a.869.869 0 11-1.737 0 .869.869 0 011.737 0"/>
    <path d="M1.158 9.842V5.79h5.79v4.053h-5.79zm1.158-5.21V2.895c0-.958.78-1.737 1.737-1.737.957 0 1.736.78 1.736 1.737v1.737h1.158V2.895A2.898 2.898 0 004.053 0a2.898 2.898 0 00-2.895 2.895v1.737A1.16 1.16 0 000 5.789v4.053C0 10.481.52 11 1.158 11h5.79a1.16 1.16 0 001.157-1.158V5.79a1.16 1.16 0 00-1.158-1.157H2.316z"/>
  </g>
</svg>
