<svg width="12" height="16" xmlns="http://www.w3.org/2000/svg">
  <g fill="#979EA1" fill-rule="evenodd">
    <path d="M7.158 11.368a1.264 1.264 0 11-2.527 0 1.264 1.264 0 012.527 0"/>
    <path d="M1.684 14.316V8.42h8.421l.001 5.895H1.684zm1.684-7.58V4.212a2.53 2.53 0 012.527-2.527A2.53 2.53 0 018.42 4.211v2.526h1.684V4.21A4.215 4.215 0 005.895 0a4.215 4.215 0 00-4.21 4.21v2.527C.754 6.737 0 7.493 0 8.42v5.895C0 15.245.755 16 1.684 16h8.421c.93 0 1.684-.755 1.684-1.684V8.42c0-.928-.755-1.684-1.684-1.684H3.368z"/>
  </g>
</svg>
