<svg width="27" height="19" xmlns="http://www.w3.org/2000/svg">
  <g fill="none" fill-rule="evenodd">
    <path d="M.176-.97h26.25v19.355H.176z"/>
    <path d="M6.309 16.597H5.307a55.875 55.875 0 00-.292-4.77h-.01l-1.524 4.77h-.763l-1.516-4.77h-.008a77.993 77.993 0 00-.213 4.77H.068c.059-2.128.207-4.123.443-5.985h1.242l1.444 4.398h.01l1.453-4.398h1.188c.26 2.181.414 4.176.46 5.985m4.345-4.416c-.408 2.214-.946 3.822-1.614 4.825-.52.773-1.09 1.16-1.71 1.16-.166 0-.37-.05-.613-.15v-.533c.119.017.257.027.417.027.29 0 .523-.08.7-.24.213-.195.32-.414.32-.656 0-.166-.083-.505-.249-1.02l-1.099-3.413h.984l.789 2.553c.177.58.251.985.222 1.215.431-1.152.732-2.408.904-3.768h.949z" fill="#0074A3" fill-rule="nonzero"/>
    <path d="M23.985 16.597H21.14v-5.985h.957v5.248h1.888v.737zm-3.59.144l-1.1-.543c.098-.08.191-.166.275-.267.468-.55.7-1.362.7-2.437 0-1.98-.776-2.97-2.33-2.97-.763 0-1.357.25-1.782.753-.468.55-.7 1.36-.7 2.43 0 1.051.206 1.823.62 2.313.378.443.948.665 1.711.665.284 0 .546-.035.783-.105l1.433.834.39-.673zM16.831 15.4c-.242-.39-.363-1.016-.363-1.879 0-1.506.458-2.26 1.374-2.26.48 0 .83.18 1.055.54.242.39.364 1.01.364 1.862 0 1.519-.459 2.278-1.374 2.278-.48 0-.83-.18-1.056-.54m-1.791-.462c0 .507-.186.924-.558 1.25-.373.325-.872.487-1.498.487-.585 0-1.152-.186-1.702-.558l.257-.514c.473.236.901.354 1.285.354.36 0 .643-.08.847-.238a.813.813 0 00.326-.665c0-.355-.248-.66-.703-.914-.42-.23-1.258-.712-1.258-.712-.455-.331-.682-.687-.682-1.273 0-.485.17-.876.51-1.174.34-.3.778-.448 1.316-.448.555 0 1.06.148 1.515.443l-.23.514a2.93 2.93 0 00-1.152-.248c-.307 0-.544.074-.709.222a.741.741 0 00-.268.568c0 .353.253.661.72.92.425.231 1.285.721 1.285.721.466.331.699.684.699 1.265" fill="#F8981D" fill-rule="nonzero"/>
    <path d="M25.187 8.608c-.579-.015-1.027.044-1.403.203-.109.043-.281.043-.296.18.058.058.065.152.116.232.087.145.238.34.376.44.151.117.303.232.463.333.281.174.6.275.874.449.16.1.318.23.478.34.079.057.13.151.231.187v-.022c-.05-.065-.065-.159-.116-.231l-.217-.21a3.441 3.441 0 00-.751-.73c-.232-.159-.738-.376-.832-.642l-.015-.015c.16-.015.348-.073.5-.117.245-.065.47-.05.722-.115.116-.029.231-.065.348-.101v-.065c-.131-.13-.224-.304-.362-.427a9.627 9.627 0 00-1.193-.89c-.225-.144-.513-.237-.752-.36-.087-.044-.232-.066-.282-.138-.13-.16-.203-.369-.297-.557a18.099 18.099 0 01-.593-1.258c-.13-.282-.21-.564-.369-.824-.745-1.23-1.554-1.974-2.798-2.704-.267-.153-.585-.217-.925-.297l-.542-.029c-.116-.05-.232-.188-.333-.253-.412-.26-1.475-.824-1.778-.08-.196.47.289.933.455 1.172.123.166.282.354.368.542.051.123.066.254.117.384.115.318.223.672.376.969.079.151.165.31.267.447.058.08.159.116.181.246-.1.144-.109.362-.167.542-.26.817-.158 1.83.21 2.43.116.18.391.579.76.426.325-.13.253-.542.347-.903.021-.088.007-.145.05-.202v.014c.101.202.203.397.297.6.224.354.614.723.94.968.173.13.31.355.527.435v-.022h-.014c-.044-.065-.108-.094-.166-.144a3.51 3.51 0 01-.376-.434 9.313 9.313 0 01-.81-1.316c-.116-.225-.216-.47-.31-.694-.044-.087-.044-.217-.117-.261-.108.159-.267.297-.346.491-.138.312-.152.695-.203 1.093l-.029.014c-.23-.058-.31-.296-.398-.498-.216-.514-.253-1.339-.065-1.931.05-.152.268-.63.181-.774-.043-.138-.188-.217-.267-.326a2.94 2.94 0 01-.26-.462c-.174-.405-.261-.853-.448-1.258-.088-.188-.24-.384-.362-.557-.138-.195-.29-.333-.398-.564-.036-.08-.087-.21-.029-.296.014-.058.044-.08.101-.094.094-.08.362.021.456.065.268.108.492.21.716.361.1.073.21.21.34.246h.151c.231.05.492.014.709.08.383.123.73.303 1.041.498a6.416 6.416 0 012.256 2.473c.086.166.123.319.202.492.152.354.34.716.492 1.063.152.34.296.686.513.969.108.151.543.23.738.31.144.065.369.123.499.203.246.151.49.325.722.492.115.086.477.267.499.412M17.81 2.325c-.1-.001-.199.01-.296.036v.015h.014c.059.115.16.195.232.296.058.116.109.231.166.347l.014-.015c.102-.072.153-.188.153-.361-.044-.051-.051-.101-.088-.152-.042-.072-.136-.108-.195-.166" fill="#0074A3" fill-rule="nonzero"/>
    <path d="M25.875 16.596h.15v-.733h-.224l-.184.5-.199-.5h-.216v.733h.141v-.558h.008l.209.558h.108l.207-.558v.558zm-1.206 0h.158v-.61h.208v-.124h-.583v.125h.216v.609z" fill="#F8981D" fill-rule="nonzero"/>
  </g>
</svg>
