<svg width="19" height="20" xmlns="http://www.w3.org/2000/svg">
  <g fill="none" fill-rule="evenodd">
    <path d="M18.926 11.976a.966.966 0 00-.798-.656 1.791 1.791 0 00-.637.036c-.43.09-.749.125-.981.132.878-1.514 1.592-3.241 2.004-4.866.665-2.628.31-3.825-.106-4.367C17.309.822 15.706.052 13.771.028a8.064 8.064 0 00-2.41.345A8.806 8.806 0 009.951.24C9.022.226 8.2.433 7.498.86A11.023 11.023 0 005.763.414C4.067.13 2.7.352 1.702 1.072.492 1.945-.07 3.461.034 5.578c.033.673.402 2.718.982 4.658.333 1.115.689 2.04 1.056 2.752.522 1.009 1.08 1.603 1.706 1.816.352.12.99.203 1.66-.367.086.105.199.21.35.306.19.124.425.224.658.284.842.215 1.63.16 2.303-.14l.01.34c.005.163.009.323.015.473.04 1.013.107 1.8.307 2.352a4.1 4.1 0 01.042.126c.1.312.267.834.691 1.243.44.424.972.554 1.459.553.244 0 .477-.032.682-.077.729-.16 1.557-.402 2.155-1.273.566-.822.842-2.061.891-4.014l.019-.158.011-.103.134.012.034.002c.743.035 1.65-.126 2.208-.39.44-.21 1.852-.97 1.52-1.997" fill="#000"/>
    <path d="M17.657 12.176c-2.207.465-2.359-.298-2.359-.298 2.33-3.53 3.305-8.01 2.464-9.107-2.294-2.991-6.264-1.577-6.33-1.54l-.021.004a7.718 7.718 0 00-1.473-.157c-.999-.016-1.756.268-2.331.713 0 0-7.083-2.979-6.754 3.745.07 1.43 2.01 10.824 4.321 7.987.845-1.038 1.662-1.915 1.662-1.915a2.11 2.11 0 001.4.365l.04-.034c-.013.129-.007.255.016.404-.596.68-.421.798-1.612 1.049-1.205.253-.497.704-.035.822.56.143 1.857.346 2.732-.906l-.035.143c.234.191.398 1.241.37 2.194-.027.952-.046 1.605.138 2.116.184.51.368 1.66 1.933 1.317 1.308-.286 1.986-1.027 2.08-2.264.067-.88.218-.75.228-1.536l.121-.372c.14-1.192.023-1.576.829-1.397l.195.017c.594.028 1.37-.097 1.825-.313.981-.465 1.563-1.24.596-1.037" fill="#336791"/>
    <path d="M8.021 6.176c-.199-.028-.379-.002-.47.068a.176.176 0 00-.071.118c-.012.083.046.176.081.224.1.135.246.228.39.248.021.003.042.004.063.004.24 0 .46-.19.479-.332.024-.177-.228-.295-.472-.33M14.61 6.182c-.018-.139-.26-.179-.49-.146-.229.033-.451.138-.432.277.014.108.206.293.432.293.02 0 .038-.001.058-.004a.554.554 0 00.315-.176c.08-.086.126-.182.118-.244" fill="#FFF"/>
    <path d="M18.392 12.123c-.085-.26-.355-.343-.806-.248-1.336.281-1.814.086-1.972-.032 1.04-1.615 1.894-3.568 2.355-5.39.218-.862.339-1.663.348-2.316.011-.717-.108-1.244-.355-1.566C16.967 1.274 15.507.578 13.74.559 12.525.545 11.5.862 11.3.95a5.967 5.967 0 00-1.373-.18c-.912-.015-1.7.208-2.353.662A10.34 10.34 0 005.662.922c-1.55-.255-2.78-.062-3.66.573C.956 2.253.472 3.608.566 5.522c.031.644.39 2.626.958 4.523.747 2.497 1.559 3.91 2.413 4.202.1.034.215.058.342.058.312 0 .694-.144 1.091-.632.66-.81 1.277-1.49 1.504-1.736.336.184.704.286 1.082.297l.002.03a8.883 8.883 0 00-.19.24c-.262.339-.316.41-1.158.586-.239.05-.875.185-.884.64-.01.496.751.705.838.727.303.077.594.116.872.116.675 0 1.27-.227 1.745-.666-.015 1.772.058 3.518.266 4.05.17.435.588 1.5 1.905 1.5.193 0 .406-.024.64-.075 1.374-.3 1.971-.92 2.202-2.288.124-.73.336-2.476.436-3.411.21.067.481.097.774.097.611 0 1.316-.132 1.758-.342.497-.235 1.393-.813 1.23-1.315zM15.118 5.8a5.794 5.794 0 01-.081.789c-.043.281-.087.573-.098.926-.01.344.031.702.072 1.047.082.699.167 1.418-.16 2.127a2.79 2.79 0 01-.145-.303c-.04-.1-.128-.262-.25-.485-.475-.87-1.588-2.906-1.018-3.736.17-.248.6-.502 1.68-.365zm-1.31-4.681c1.584.036 2.836.64 3.723 1.797.68.887-.069 4.924-2.237 8.407a12.937 12.937 0 00-.066-.085l-.027-.035c.56-.944.45-1.879.353-2.707-.04-.34-.078-.661-.068-.963.01-.32.051-.594.091-.86.05-.326.1-.664.086-1.063a.45.45 0 00.009-.15c-.035-.382-.463-1.525-1.334-2.56a6.024 6.024 0 00-2.12-1.628 7.01 7.01 0 011.59-.153zm-8.86 12.199c-.437.537-.74.434-.84.4-.647-.22-1.399-1.618-2.062-3.835-.573-1.918-.909-3.847-.935-4.388-.084-1.71.322-2.902 1.207-3.543 1.44-1.042 3.808-.418 4.76-.102l-.042.04C5.475 3.5 5.512 6.25 5.516 6.418c0 .065.005.157.012.283.027.463.077 1.323-.056 2.298-.125.906.149 1.793.75 2.433.062.066.127.128.194.187-.267.292-.849.939-1.468 1.699zm1.669-2.273c-.485-.516-.705-1.233-.604-1.969.141-1.03.09-1.926.061-2.408l-.01-.173c.229-.206 1.286-.785 2.04-.608.344.08.553.32.64.73.451 2.13.06 3.017-.254 3.73a6.99 6.99 0 00-.179.43l-.04.11c-.103.281-.198.542-.257.79a1.929 1.929 0 01-1.397-.632zm.079 2.872a1.197 1.197 0 01-.365-.16c.066-.032.184-.076.389-.119.99-.208 1.142-.355 1.476-.787.077-.1.164-.212.284-.349.179-.205.26-.17.41-.107.12.05.237.205.284.374.023.08.048.232-.035.35-.697.997-1.713.984-2.443.798zm5.18 4.92c-1.21.265-1.64-.366-1.922-1.087-.182-.465-.272-2.564-.208-4.882 0-.03-.004-.06-.012-.089a1.191 1.191 0 00-.034-.163c-.095-.338-.325-.62-.602-.737-.11-.046-.311-.131-.553-.068.051-.218.141-.463.238-.729l.04-.111c.047-.126.104-.257.165-.395.33-.746.78-1.768.29-4.077-.182-.864-.794-1.286-1.721-1.188-.556.058-1.065.287-1.319.419a4.215 4.215 0 00-.15.082c.07-.872.338-2.5 1.338-3.53.63-.649 1.47-.969 2.492-.952 2.014.034 3.306 1.09 4.035 1.969.628.757.968 1.52 1.104 1.932-1.021-.106-1.715.1-2.067.613-.766 1.118.419 3.286.988 4.328.104.191.194.357.223.427.185.458.425.764.6.988.054.069.106.135.146.193-.31.09-.865.301-.814 1.352-.04.527-.331 2.996-.479 3.868-.194 1.152-.61 1.582-1.778 1.837zm5.055-5.904c-.316.15-.845.262-1.348.286-.555.027-.838-.063-.904-.119-.032-.654.207-.723.46-.795.04-.012.078-.023.116-.036.023.02.049.038.076.057.447.3 1.243.333 2.366.096l.012-.002c-.151.144-.41.339-.778.513z" fill="#FFF"/>
  </g>
</svg>
