<svg xmlns="http://www.w3.org/2000/svg" width="22" height="22">
  <g fill="#29b5e8" fill-rule="nonzero">
    <path d="M18.54711619 16.51845829l-4.44390105-2.56720858c-.62430302-.35944681-1.4226536-.14567053-1.7839926.478632-.13999542.2459377-.19485827.51646855-.16837245.77943257v5.01712415c0 .7170024.5826821 1.299685 1.3015767 1.299685.71700192 0 1.29968451-.5826826 1.29968451-1.299685v-2.88503545l2.4896438 1.43778822c.62430351.361339 1.42454532.14567052 1.78399261-.47863201.36133949-.62430302.1475632-1.4226536-.47863152-1.7821009M7.49506446 11.01702653c.00756972-.4634974-.23647772-.89483386-.63754496-1.12752866L2.41361869 7.324181c-.19296656-.11161789-.41431015-.17026415-.63565374-.17026415-.45593057 0-.87969973.24404551-1.10671892.63754544-.35187951.60916841-.14188664 1.39049268.46728129 1.74237218l2.56153346 1.47751646-2.56153346 1.47940864c-.29512496.17026416-.50700953.44457938-.59403332.77375696-.08891596.32917807-.04351213.67349027.12675203.96861522.22701919.39349994.65078835.63754545 1.10482673.63754545.22323578 0 .44457937-.05864627.63754593-.17026416l4.4439008-2.56531687c.39728335-.23080309.64132935-.65835566.63754497-1.11806964M3.42196215 5.50613576l4.44390032 2.56531687c.51836073.30080055 1.15779788.20242557 1.56643243-.19674996.25918012-.2383704.41998574-.5788987.41998574-.95726402V1.7754537c0-.7188941-.58268259-1.3015767-1.299685-1.3015767-.71889362 0-1.30157621.5826826-1.30157621 1.3015767v2.92665588L4.72732226 3.24540285c-.62430254-.361339-1.4226536-.14756223-1.78399212.4767403-.361339.62430302-.14567053 1.4226536.478632 1.78399261M13.41458977 11.2251277c0 .09837498-.05675455.2345865-.12675202.30647567l-1.76129068 1.76129068c-.06999747.06999747-.20810069.1267525-.30647616.1267525h-.44836278c-.09837498 0-.2364782-.05675503-.30647567-.1267525l-1.76318239-1.76129068c-.06999795-.07188917-.1267525-.20810069-.1267525-.30647567v-.44836279c0-.10026717.05675455-.23647868.1267525-.30647615l1.7631824-1.76318239c.06999746-.06999746.20810068-.1267525.30647566-.1267525h.44836278c.09837547 0 .2364787.05675504.30647616.1267525l1.76129068 1.7631824c.06999747.06999746.12675202.20620897.12675202.30647614v.44836279zm-1.57210754-.21566848v-.01891705c0-.07188966-.0416214-.17215634-.09269987-.22512749l-.52025195-.51836025c-.05107944-.05297162-.15134613-.09459157-.22512749-.09459157h-.01891705c-.07188965 0-.17215634.0416214-.22512749.09459157l-.5183617.51835928c-.05107944.05107944-.09269938.15134613-.09269938.22512749v.01891705c0 .07378136.0416214.17404805.09269938.2251275l.51836073.52025243c.05297115.05107944.15323784.09269938.22512749.09269938h.01891705c.07378136 0 .17404805-.0416214.2251275-.09269938l.52025194-.52025244c.05107944-.05107944.09269987-.15134613.09269987-.22512749zM14.10321514 8.07145263l4.44390105-2.56531687c.62430205-.35944681.83997101-1.15968959.47863152-1.7839926-.361339-.62430254-1.1596891-.83807931-1.7839926-.47674031L14.7521113 4.68319107V1.7754537c0-.7188941-.5826826-1.3015767-1.29968451-1.3015767-.7188946 0-1.3015767.5826826-1.3015767 1.3015767v5.03982607c-.02459314.26107183.02648678.53349486.16837244.77943256.361339.62430302 1.15968959.8380793 1.7839926.4767403M8.75691292 13.79990358c-.29512495-.05675455-.61106011-.00945853-.89105045.15134613l-4.44390032 2.56720858c-.62430254.3594473-.83997101 1.15779788-.47863201 1.7821009.36133852.62619424 1.15968958.839971 1.78399212.478632l2.52369717-1.45670672v2.90395396c0 .7170024.5826826 1.299685 1.30157622 1.299685.7170024 0 1.299685-.5826826 1.299685-1.299685v-5.14198447c0-.64889664-.4748486-1.1861754-1.09536773-1.28455038M21.32431764 7.77632768c-.35944778-.62619472-1.15969055-.839971-1.78399309-.478632l-4.44390057 2.56531686c-.42566134.24593722-.66024736.6961922-.65268054 1.15401399-.0037776.45593057.23080309.90050946.65268054 1.14266327l4.44390057 2.56720906c.62430254.35944681 1.4226536.14567053 1.78399309-.4786325.361339-.62430253.14567004-1.4226536-.47863298-1.7839926l-2.51612914-1.45292283 2.51612914-1.45292283c.62619473-.35944681.83997198-1.1577974.47863298-1.78210042"/>
  </g>
</svg>