<svg width="18" height="20" xmlns="http://www.w3.org/2000/svg">
  <defs>
    <linearGradient x1="32.437%" y1="85.15%" x2="100%" y2="50%" id="a">
      <stop stop-color="#909CA9" offset="0%"/>
      <stop stop-color="#EDEDEE" offset="100%"/>
    </linearGradient>
    <linearGradient x1="0%" y1="50%" x2="100%" y2="50%" id="b">
      <stop stop-color="#939FAB" offset="0%"/>
      <stop stop-color="#DCDEE1" offset="100%"/>
    </linearGradient>
    <radialGradient cx="44.815%" cy="44.062%" fx="44.815%" fy="44.062%" r="109.026%" gradientTransform="matrix(.68471 0 0 1 .141 0)" id="c">
      <stop stop-color="#EE352C" offset="0%"/>
      <stop stop-color="#A91D22" offset="100%"/>
    </radialGradient>
  </defs>
  <g fill="none" fill-rule="evenodd">
    <path d="M11.223 8.894l-3.888 1.243-3.38 1.463-.947.246A25.223 25.223 0 011.45 13.18c-.237.185-.59.528-.77.748-.27.328-.48.677-.57.946-.162.483-.083.973.23 1.425.4.577 1.197 1.163 2.123 1.562.473.204 1.27.467 1.868.615.997.246 2.923.514 3.983.554.216.008.502.007.515-.001.023-.015.188-.322.38-.705.652-1.306 1.123-2.53 1.377-3.574.154-.633.274-1.477.351-2.477.022-.28.03-1.215.013-1.533a10.545 10.545 0 00-.148-1.351.338.338 0 01-.01-.12c.012-.008.048-.02.526-.156l-.095-.219zm-.889.511c.036 0 .13.884.154 1.444.005.119.004.195-.003.195-.023 0-.498-.273-.835-.48-.293-.181-.851-.544-.94-.613-.028-.021-.025-.022.216-.103a37.824 37.824 0 011.408-.443zm-1.98.637c.025 0 .093.037.255.137.606.372 1.427.82 1.78.97.108.047.12.03-.13.196-.536.357-1.202.708-2.02 1.064a6.199 6.199 0 01-.268.112.77.77 0 01.035-.158c.198-.718.31-1.443.313-2.024.002-.288.002-.289.03-.296h.005zm-.408.153c.018.017.005.661-.016.837a7.172 7.172 0 01-.337 1.456c-.012.013-.414-.37-.548-.522a3.896 3.896 0 01-.54-.772c-.067-.129-.174-.384-.164-.391a34.9 34.9 0 011.605-.608zm-1.92.742c.004 0 .006.001.008.003a.691.691 0 01.045.104c.094.25.305.62.487.856a4.992 4.992 0 00.822.84c.02.016.025.013-.454.191-.555.207-1.16.413-1.855.633l-.497.158c-.027.01-.019-.006.059-.124.345-.529.868-1.562 1.16-2.292a6.68 6.68 0 00.108-.282c.012-.042.025-.056.065-.074a.122.122 0 01.052-.013zm-.588.238c.007.007-.142.315-.288.595a22.843 22.843 0 01-1.161 1.96c-.015.021-.02.014-.066-.075-.1-.194-.184-.439-.227-.667a2.634 2.634 0 01.016-.858c.038-.18.037-.176.123-.22.374-.187 1.59-.746 1.603-.735zm5.068.202v.122a15.627 15.627 0 01-.207 2.371 7.652 7.652 0 01-1.535-.62c-.285-.153-.698-.402-.687-.413.003-.003.125-.066.27-.14.578-.294 1.129-.61 1.608-.924.18-.118.449-.309.508-.36l.043-.036zm-7.287.851c.012 0 .008.022-.01.128a3.216 3.216 0 00-.034.31c-.023.42.047.731.26 1.156a2.6 2.6 0 01.103.22 106.428 106.428 0 01-2.928.833c-.02.006-.023.002-.015-.047.067-.422.396-.977.855-1.443.306-.31.55-.492.966-.725a25.07 25.07 0 01.803-.432zm4.583.805c.002-.002.074.036.16.084.628.356 1.504.69 2.25.857l.068.015-.093.05c-.39.213-1.675.737-2.987 1.22l-.415.153a.258.258 0 01-.066.021c0-.003.054-.105.12-.226.369-.675.736-1.496.925-2.065a1.89 1.89 0 01.038-.11zm-.467.15c.002.002-.021.062-.051.134-.256.607-.592 1.269-1.02 2.013-.108.189-.2.343-.204.343-.003 0-.092-.051-.196-.114-.624-.374-1.175-.835-1.537-1.282l-.052-.063.27-.073a19.358 19.358 0 002.578-.874c.115-.048.21-.086.212-.084zm2.903.993c.001 0 .002.001.002.003 0 .064-.149.656-.272 1.085a33.557 33.557 0 01-.488 1.539l-.038-.008a12.322 12.322 0 01-2.387-.659c-.205-.08-.501-.21-.517-.224a3.759 3.759 0 01.393-.182c1.338-.572 2.724-1.223 3.198-1.503a.353.353 0 01.109-.05zm-6.701.225c.007.007-.367.532-.89 1.249l-.474.652c-.079.11-.198.284-.266.387l-.124.186-.131-.108a5.18 5.18 0 01-.547-.547c-.253-.308-.424-.632-.491-.93-.031-.138-.032-.208-.002-.216.042-.013.827-.194 1.563-.361.409-.093.882-.202 1.05-.242.17-.04.31-.072.312-.07zm.376.141l.095.104c.423.462.854.807 1.38 1.104a.754.754 0 01.157.102 231.046 231.046 0 01-3.501 1.212.698.698 0 01-.059-.038l-.054-.038.085-.12c.275-.39.621-.82 1.378-1.714l.52-.612zm2.345 1.643c.002-.003.134.043.292.101.383.14.684.232 1.09.332.5.122 1.22.244 1.648.28.065.005.099.013.088.02-.02.011-.452.153-.77.251a212.147 212.147 0 01-3.749 1.08c-.028.006-.127-.019-.127-.032 0-.006.071-.094.157-.194.422-.496.842-1.05 1.193-1.573l.178-.265zm-.52.014c.005.004-.204.331-.57.897l-.39.605c-.061.093-.15.235-.196.316l-.086.147-.044-.011a25.34 25.34 0 01-1.045-.362 6.897 6.897 0 01-.683-.308c-.234-.124-.53-.307-.507-.315l.893-.239a80.4 80.4 0 002.467-.685 1.86 1.86 0 01.162-.045zm3.659.841H9.4c.012.03-.465 1.324-.639 1.734-.039.092-.053.115-.074.114a54.095 54.095 0 01-3.428-.547l-.071-.016.439-.097c.94-.208 1.392-.32 1.85-.457.579-.173 1.152-.39 1.73-.653.091-.042.17-.074.189-.078z" fill="url(#a)"/>
    <path d="M7.216.014c-.065-.008-1.108.36-1.779.628-.908.361-1.613.708-2.048 1.007-.162.112-.366.312-.396.389a.277.277 0 00-.016.097l.394.365.937.293 2.23.39 2.55.43.026-.214-.023-.004-.335-.052-.069-.117c-.346-.6-.73-1.341-.951-1.843a9.594 9.594 0 01-.43-1.16c-.054-.193-.06-.206-.09-.21zm-.05.148h.005c.002.002.014.083.026.178.05.403.142.793.286 1.213.108.317.11.299-.02.263-.299-.082-1.642-.308-2.614-.44a7.239 7.239 0 01-.29-.042c-.011-.012.702-.378 1.018-.522.405-.185 1.51-.636 1.59-.65zM4.337 1.45l.113.038c.624.208 2.188.501 3.052.571.098.008.18.017.182.019a1.91 1.91 0 01-.184.096c-.416.205-.875.455-1.193.65a1.123 1.123 0 01-.19.102c-.011 0-.073-.01-.137-.021l-.117-.019-.296-.28c-.518-.492-.922-.872-1.079-1.016l-.152-.14zm-.116.09l.413.506c.228.278.455.554.506.614.05.059.09.11.087.111-.011.008-.598-.104-.91-.173a7.012 7.012 0 01-.649-.169l-.161-.05v-.04c.003-.194.252-.48.676-.773l.038-.026zm3.519.69c.012 0 .025.025.062.104.1.215.412.798.487.91.025.038.065.04-.35-.025-.995-.158-1.317-.21-1.317-.216 0-.004.03-.023.067-.043.308-.168.619-.38.896-.608l.141-.117c.005-.004.01-.006.014-.006z" fill="url(#b)"/>
    <path d="M3.01 2s-.064.1-.003.249c.038.092.151.203.276.32 0 0 1.305 1.249 1.465 1.43.724.818 1.038 1.624 1.067 2.736.019.714-.122 1.342-.463 2.071-.611 1.307-1.9 2.75-3.89 4.352l.293-.095c.187-.137.442-.285 1.044-.607 1.385-.743 2.94-1.426 4.85-2.13 2.749-1.012 7.27-2.2 9.843-2.586l.268-.04-.041-.064a8.6 8.6 0 00-.59-.813 7.026 7.026 0 00-2.084-1.701c-1.15-.632-2.642-1.122-4.527-1.49-.357-.07-1.138-.2-1.773-.297a172.323 172.323 0 01-3.173-.508c-.343-.059-.857-.143-1.197-.216a7.729 7.729 0 01-.778-.204c-.216-.083-.52-.164-.586-.408zm.758.72a.94.94 0 01.11.032c.11.037.256.08.425.126.119.033.25.067.388.102.176.044.322.082.324.084.02.022.317.95.418 1.306.038.136.068.25.065.252a.625.625 0 01-.073-.111c-.343-.592-.887-1.193-1.515-1.678a2.498 2.498 0 01-.142-.114zm1.447.391c.015-.001.08.01.158.027.5.108 1.394.277 1.969.372a.897.897 0 01.175.038.282.282 0 01-.08.049c-.096.047-.487.276-.617.362-.326.214-.62.443-.833.65a4.322 4.322 0 01-.16.153.802.802 0 01-.033-.109 9.46 9.46 0 00-.525-1.41 1.414 1.414 0 01-.058-.13c0-.001.001-.002.004-.002zm2.544.474c.017.006.049.103.105.32a4.704 4.704 0 01.124 1.567l-.01.03-.152-.048a38.856 38.856 0 00-1.262-.364 5.439 5.439 0 01-.454-.134c0-.018.364-.374.52-.51.298-.258 1.1-.87 1.13-.86zm.203.029c.009-.009 1.216.196 1.764.3.41.076 1 .197 1.036.212.018.007-.044.04-.24.127-.777.343-1.352.65-1.925 1.025-.15.098-.275.18-.278.18a1.78 1.78 0 01-.005-.184c0-.547-.112-1.099-.316-1.565a.538.538 0 01-.036-.095zm3.12.605c.01.009-.03.242-.064.38-.107.429-.39 1.066-.739 1.664a1.787 1.787 0 01-.123.195 1.22 1.22 0 01-.176-.09 9.436 9.436 0 00-1.153-.553 3.754 3.754 0 01-.225-.096c-.019-.017.925-.63 1.425-.924.4-.235 1.044-.587 1.056-.576zm.224.034a17.79 17.79 0 012.84.94l.214.096-.15.034a22.131 22.131 0 00-3.387 1.027 2.462 2.462 0 01-.168.063.714.714 0 01.061-.146c.313-.652.516-1.337.568-1.918.005-.053.015-.096.022-.096zM5.985 5.452a6.72 6.72 0 01.638.146c.334.092 1.045.325 1.045.343 0 .004-.078.07-.174.149-.384.315-.755.645-1.199 1.065a4.234 4.234 0 01-.249.226c-.005 0-.008-.018-.005-.04.067-.484.053-1.106-.04-1.738a1.002 1.002 0 01-.016-.151zm8.58.008c.006.006-.19.305-.31.475-.178.249-.435.576-1.02 1.297-.308.379-.655.808-.771.953a7.51 7.51 0 01-.218.264c-.003 0-.04-.052-.084-.115a6.055 6.055 0 00-1.188-1.289 7.73 7.73 0 00-.218-.173.343.343 0 01-.06-.05c0-.007.498-.217.88-.369.662-.264 1.568-.58 2.246-.784.357-.108.737-.215.743-.21zm.225.057a.76.76 0 01.167.08 9.911 9.911 0 012.497 1.99l-.294.022c-1.237.092-2.819.35-4.342.708a5.004 5.004 0 01-.198.045 4.14 4.14 0 01.251-.247c.895-.843 1.303-1.375 1.783-2.326.071-.141.132-.263.134-.27l.002-.002zm-6.54.657c.04.01.422.183.71.325.263.129.662.337.682.355.003.003-.138.074-.312.16-.552.27-1.025.526-1.519.822-.14.084-.259.154-.263.154-.012 0-.007-.01.072-.152a6.029 6.029 0 00.597-1.586c.01-.05.024-.08.033-.078zm-.384.068c.008.008-.091.364-.154.554a7.133 7.133 0 01-.675 1.433l-.073.117L6.8 8.19a2.158 2.158 0 00-.547-.396.82.82 0 01-.142-.081c0-.024.5-.47.888-.791.277-.23.86-.687.867-.68zm2.335.941l.143.091c.329.21.718.49 1.015.733.166.136.49.42.556.488l.035.037-.238.065a44.14 44.14 0 00-3.598 1.129c-.135.048-.251.088-.26.088-.016 0-.033.016.27-.257.776-.7 1.461-1.472 1.974-2.222l.103-.152zm-.614.15c.007.008-.397.563-.638.877-.288.376-.8 1.003-1.153 1.412-.147.17-.273.312-.28.314-.008.003-.012-.04-.012-.105-.001-.349-.091-.721-.25-1.037-.067-.133-.078-.165-.065-.178.056-.049.912-.527 1.451-.81.371-.196.94-.479.947-.472zm-3.71.892a3.228 3.228 0 01.657.41.909.909 0 01-.172.137c-.279.197-.703.511-.948.703-.26.202-.268.208-.239.164a5.14 5.14 0 00.394-.666c.09-.187.18-.409.245-.602a.53.53 0 01.062-.146zm.988.76c.013 0 .032.024.112.14.167.245.295.573.329.839l.006.057-.401.153c-.72.274-1.384.544-1.832.745-.126.056-.347.16-.492.231-.144.07-.262.127-.262.124 0-.004.09-.07.202-.15.879-.625 1.637-1.31 2.209-1.995.06-.074.116-.137.123-.141a.013.013 0 01.006-.002zm-.456.112c.011.011-.325.384-.551.61a9.766 9.766 0 01-1.825 1.444l-.177.11c-.019.01.006-.018.312-.344.193-.206.34-.377.507-.59a1 1 0 01.293-.274c.435-.307 1.429-.968 1.44-.956z" fill="url(#c)"/>
  </g>
</svg>
