<?xml version="1.0" encoding="UTF-8"?>
<svg xmlns="http://www.w3.org/2000/svg" xmlns:xlink="http://www.w3.org/1999/xlink" width="24px" height="24px" viewBox="0 0 20 20" version="1.1">
<g id="surface1">
<path style=" stroke:none;fill-rule:nonzero;fill:rgb(11.372549%,63.137255%,94.901961%);fill-opacity:1;" d="M 8.449219 15.078125 C 13.636719 15.078125 16.476562 11.171875 16.476562 7.78125 C 16.476562 7.671875 16.476562 7.5625 16.46875 7.449219 C 17.019531 7.089844 17.496094 6.636719 17.875 6.125 C 17.359375 6.332031 16.8125 6.46875 16.253906 6.527344 C 16.84375 6.207031 17.285156 5.703125 17.496094 5.109375 C 16.941406 5.40625 16.335938 5.617188 15.703125 5.730469 C 14.828125 4.886719 13.441406 4.679688 12.3125 5.226562 C 11.1875 5.773438 10.609375 6.941406 10.894531 8.070312 C 8.628906 7.964844 6.515625 6.992188 5.082031 5.390625 C 4.332031 6.5625 4.714844 8.0625 5.957031 8.8125 C 5.507812 8.800781 5.066406 8.691406 4.675781 8.492188 C 4.675781 8.503906 4.675781 8.515625 4.675781 8.527344 C 4.675781 9.746094 5.621094 10.796875 6.9375 11.039062 C 6.523438 11.140625 6.085938 11.15625 5.664062 11.082031 C 6.035156 12.128906 7.09375 12.84375 8.300781 12.863281 C 7.300781 13.578125 6.066406 13.964844 4.796875 13.964844 C 4.570312 13.964844 4.347656 13.953125 4.125 13.925781 C 5.414062 14.679688 6.917969 15.078125 8.449219 15.078125 "/>
</g>
</svg>
