<?xml version="1.0" encoding="UTF-8"?>
<svg width="32px" height="32px" viewBox="0 0 32 32" version="1.1" xmlns="http://www.w3.org/2000/svg" xmlns:xlink="http://www.w3.org/1999/xlink">
    <title>world-wide-web</title>
    <g id="Symbols" stroke="none" stroke-width="1" fill="none" fill-rule="evenodd">
        <g id="world-wide-web" transform="translate(-25.000000, -1.000000)" >
            <g transform="translate(25.000000, 1.000000)">
                <polygon id="Frame_-_24px" points="0 0 32 0 32 32 0 32"></polygon>
                <g id="Line_Icons" transform="translate(0.000000, 2.666667)" fill="#2E3C43" fill-rule="nonzero">
                    <path d="M30.6666667,5.33333333 L26.6373333,5.33333333 C24.2026667,2.10266667 20.3493333,0 16,0 C11.652,0 7.79733333,2.10266667 5.36266667,5.33333333 L1.33333333,5.33333333 C0.596953667,5.33333333 0,5.930287 0,6.66666667 L0,20 C0,20.7363797 0.596953667,21.3333333 1.33333333,21.3333333 L5.36266667,21.3333333 C7.796,24.5653333 11.652,26.6666667 16,26.6666667 C20.3493333,26.6666667 24.2026667,24.5653333 26.6373333,21.3333333 L30.6666667,21.3333333 C31.4030463,21.3333333 32,20.7363797 32,20 L32,6.66666667 C32,5.930287 31.4030463,5.33333333 30.6666667,5.33333333 Z M23.0173333,5.33333333 L21.3333333,5.33333333 L21.3333333,4.12 C21.9316544,4.47046332 22.4954971,4.87671578 23.0173333,5.33333333 L23.0173333,5.33333333 Z M18.6666667,3.01733333 L18.6666667,5.33333333 L13.3333333,5.33333333 L13.3333333,3.01733333 C14.188,2.796 15.0786667,2.66666667 16,2.66666667 C16.9213333,2.66666667 17.8133333,2.796 18.6666667,3.01733333 Z M10.6666667,4.12 L10.6666667,5.33333333 L8.98266667,5.33333333 C9.50474453,4.87701986 10.0685576,4.47078878 10.6666667,4.12 L10.6666667,4.12 Z M8.98266667,21.3333333 L10.6666667,21.3333333 L10.6666667,22.548 C10.0673472,22.1985625 9.50336846,21.7917654 8.98266667,21.3333333 L8.98266667,21.3333333 Z M13.3333333,23.6506667 L13.3333333,21.3333333 L18.6666667,21.3333333 L18.6666667,23.6506667 C17.8133333,23.872 16.9213333,24 16,24 C15.0786667,24 14.188,23.872 13.3333333,23.6506667 Z M21.3333333,22.548 L21.3333333,21.3333333 L23.0173333,21.3333333 C22.4973333,21.792 21.9346667,22.1973333 21.3333333,22.548 L21.3333333,22.548 Z M29.3333333,18.6666667 L2.66666667,18.6666667 L2.66666667,8 L29.3333333,8 L29.3333333,18.6666667 Z" id="Shape"></path>
                    <polygon fill="#047AE6" id="Path" points="6.98666667 16 8.34933333 16 8.33466667 15.944 8.992 13.344 9.64266667 16 11.016 16 11.0013333 15.944 12.3346667 10.6666667 10.964 10.6666667 10.3253333 13.268 9.668 10.6666667 8.29733333 10.6666667 7.65866667 13.268 7.00133333 10.6666667 5.668 10.6666667 6.976 16"></polygon>
                    <polygon fill="#047AE6" id="Path" points="13.6533333 16 15.0146667 16 15.0013333 15.9466667 15.6573333 13.344 16.3093333 16 17.6813333 16 17.668 15.9466667 19 10.6666667 17.6293333 10.6666667 16.9906667 13.268 16.3333333 10.6666667 14.9626667 10.6666667 14.324 13.268 13.668 10.6666667 12.3346667 10.6666667 13.6426667 16"></polygon>
                    <polygon fill="#047AE6" id="Path" points="20.32 16 21.6813333 16 21.668 15.9466667 22.324 13.344 22.976 16 24.348 16 24.3346667 15.9466667 25.6666667 10.6666667 24.296 10.6666667 23.6573333 13.268 23 10.6666667 21.6293333 10.6666667 20.9906667 13.268 20.3333333 10.6666667 19 10.6666667 20.3093333 16"></polygon>
                </g>
            </g>
        </g>
    </g>
</svg>