<?xml version="1.0" encoding="UTF-8" standalone="no"?>
<svg width="471px" height="471px" viewBox="0 0 471 471" version="1.1" xmlns="http://www.w3.org/2000/svg" xmlns:xlink="http://www.w3.org/1999/xlink" xmlns:sketch="http://www.bohemiancoding.com/sketch/ns">
    <!-- Generator: Sketch 3.4.2 (15855) - http://www.bohemiancoding.com/sketch -->
    <title>icon-font_05_Lens</title>
    <desc>Created with Sketch.</desc>
    <defs></defs>
    <g id="Page-1" stroke="none" stroke-width="1" fill="none" fill-rule="evenodd" sketch:type="MSPage">
        <g id="icons" sketch:type="MSArtboardGroup" transform="translate(-2012.000000, -12.000000)" fill="#000000">
            <g id="icon-font_05_Lens" sketch:type="MSLayerGroup" transform="translate(2012.000000, 12.000000)">
                <path d="M335.278142,263.210579 L471,398.932437 L398.932437,471 L263.210579,335.278142 C237.977078,348.951638 209.074358,356.716236 178.358118,356.716236 C79.8536495,356.716236 0,276.862587 0,178.358118 C0,79.8536495 79.8536495,0 178.358118,0 C276.862587,0 356.716236,79.8536495 356.716236,178.358118 C356.716236,209.074358 348.951638,237.977078 335.278142,263.210579 Z M180,284 C239.094468,284 287,236.094468 287,177 C287,117.905532 239.094468,70 180,70 C120.905532,70 73,117.905532 73,177 C73,236.094468 120.905532,284 180,284 Z" id="Rectangle-2689" sketch:type="MSShapeGroup"></path>
            </g>
        </g>
    </g>
</svg>