<?xml version="1.0" encoding="UTF-8" standalone="no"?>
<svg width="370px" height="499px" viewBox="0 0 370 499" version="1.1" xmlns="http://www.w3.org/2000/svg" xmlns:xlink="http://www.w3.org/1999/xlink" xmlns:sketch="http://www.bohemiancoding.com/sketch/ns">
    <!-- Generator: Sketch 3.4.2 (15857) - http://www.bohemiancoding.com/sketch -->
    <title>icon-font_01_Cartofante</title>
    <desc>Created with Sketch.</desc>
    <defs></defs>
    <g id="Page-1" stroke="none" stroke-width="1" fill="none" fill-rule="evenodd" sketch:type="MSPage">
        <g id="icons" sketch:type="MSArtboardGroup" transform="translate(0.000000, -1.000000)" fill="#000000">
            <g id="icon-font_01_Cartofante" sketch:type="MSLayerGroup" transform="translate(0.000000, 1.000000)">
                <path d="M160.686722,451.903138 C135.305102,451.903138 133.582949,455.177006 133.582949,455.177006 L139.817196,495.164207 C139.817196,495.164207 145.366877,499 159.864236,499 C174.361595,499 179.089461,495.164207 179.089461,495.164207 L187.629755,455.395513 C187.629755,455.395513 186.069012,451.903138 160.686722,451.903138" id="Path" sketch:type="MSShapeGroup"></path>
                <path d="M335.641271,155.433472 L334.249992,154.317791 C334.249992,154.317791 336.724831,153.133018 338.070137,151.807678 C340.69934,149.212137 342.228875,145.96822 341.70639,146.326953 C337.19396,149.413967 328.37682,147.910282 328.37682,147.910282 C328.37682,147.910282 331.428507,147.333041 333.234888,146.140439 C335.994963,144.323628 336.794295,141.812495 336.455703,142.054146 C334.249992,143.597653 331.859045,144.051005 330.199308,144.051005 C319.775452,144.082317 318.084507,134.905345 308.429445,134.905345 C304.463326,134.905345 296.122697,139.06073 293.532085,134.936658 C279.327009,100.413844 257.933992,50.5090596 237.079567,0.0266940452 C150.962867,17.8803173 112.674498,166.270352 196.408305,192.630109 C150.878639,179.337233 128.839982,133.774348 135.743023,94.1761713 C104.57246,105.036536 63.9703253,121.994346 32.2618413,161.155848 C13.2594356,184.623275 13.3369526,209.720318 13.3369526,259.375622 C12.3986948,274.642213 0,280.449337 0,280.449337 C0,280.449337 14.7742052,281.073887 19.4936824,273.36214 C39.8410586,308.571449 138.071889,399.15061 138.071889,419.859125 C138.071889,419.859125 134.551073,429.581004 135.627251,429.713402 C144.567881,430.773946 186.184449,432.871889 186.184449,432.871889 C187.998548,425.831661 183.808603,420.886995 183.808603,415.945391 C183.808603,365.56343 254.33633,318.831428 262.623268,313.101564 C265.582672,314.878894 270.740406,316.438057 273.269273,317.553398 C297.01431,328.023716 269.510537,387.347464 244.89704,387.347464 C216.540244,387.347464 260.893397,339.687316 261.785346,338.549172 C264.737032,334.783832 256.689022,338.268039 254.144383,335.757926 C252.591694,334.221908 254.33633,330.113491 250.469876,333.30193 C250.469876,333.30193 191.57272,384.868324 233.220495,400.038934 C312.157979,428.800912 427.630136,243.798629 335.641271,155.433472" id="Fill-2" sketch:type="MSShapeGroup"></path>
            </g>
        </g>
    </g>
</svg>