<?xml version="1.0" encoding="UTF-8" standalone="no"?>
<svg width="324px" height="482px" viewBox="0 0 324 482" version="1.1" xmlns="http://www.w3.org/2000/svg" xmlns:xlink="http://www.w3.org/1999/xlink" xmlns:sketch="http://www.bohemiancoding.com/sketch/ns">
    <!-- Generator: Sketch 3.4.2 (15857) - http://www.bohemiancoding.com/sketch -->
    <title>icon-font_06_Lock</title>
    <desc>Created with Sketch.</desc>
    <defs></defs>
    <g id="Page-1" stroke="none" stroke-width="1" fill="none" fill-rule="evenodd" sketch:type="MSPage">
        <g id="icons" sketch:type="MSArtboardGroup" transform="translate(-2588.000000, -9.000000)" fill="#000000">
            <g id="icon-font_06_Lock" sketch:type="MSLayerGroup" transform="translate(2587.390144, 9.000000)">
                <path d="M54.6098563,214 L54.6098563,214 L54.6098563,429 C54.6113196,429.001194 54.6087278,428.998608 54.6098563,429 L271.609856,429 C271.61275,428.998608 271.608393,429.002956 271.609856,429 L271.609856,214 C271.608393,213.998806 271.610985,214.001392 271.609856,214 L54.6098563,214 C54.6069622,214.001392 54.6113196,213.997044 54.6098563,214 L54.6098563,214 L54.6098563,214 L54.6098563,214 Z M0.609856263,214 C0.609856263,184.028424 24.6648147,160 54.6098563,160 L270.609856,160 C300.544283,160 324.609856,184.021345 324.609856,214 L324.609856,428 C324.609856,457.971576 300.554898,482 270.609856,482 L54.6098563,482 C24.6754292,482 0.609856263,457.978655 0.609856263,428 L0.609856263,214 L0.609856263,214 L0.609856263,214 Z M269.609856,160 L269.609856,107 C269.609856,48.0216362 221.48205,0 162.609856,0 C102.732284,0 54.6098563,48.0200116 54.6098563,107 L54.6098563,160 L108.609856,160 L108.609856,107 C108.235146,77.5663986 132.349133,53.4992224 162.609856,53 C191.864037,53.4992224 215.984566,77.5668616 215.609856,107 L215.609856,160 L269.609856,160 L269.609856,160 L269.609856,160 L269.609856,160 Z M108.609856,295 C108.609856,280.088312 120.632381,268 135.609856,268 L189.609856,268 C204.579695,268 216.609856,280.085033 216.609856,295 C216.609856,309.911688 204.587331,322 189.609856,322 L135.609856,322 C120.640018,322 108.609856,309.914967 108.609856,295 L108.609856,295 L108.609856,295 Z" id="Shape" sketch:type="MSShapeGroup"></path>
            </g>
        </g>
    </g>
</svg>