<?xml version="1.0" encoding="UTF-8" standalone="no"?>
<svg width="325px" height="484px" viewBox="0 0 325 484" version="1.1" xmlns="http://www.w3.org/2000/svg" xmlns:xlink="http://www.w3.org/1999/xlink" xmlns:sketch="http://www.bohemiancoding.com/sketch/ns">
    <!-- Generator: Sketch 3.4.2 (15857) - http://www.bohemiancoding.com/sketch -->
    <title>icon-font_06_Lock</title>
    <desc>Created with Sketch.</desc>
    <defs></defs>
    <g id="Page-1" stroke="none" stroke-width="1" fill="none" fill-rule="evenodd" sketch:type="MSPage">
        <g id="icons" sketch:type="MSArtboardGroup" transform="translate(-2588.000000, -8.000000)">
            <g id="icon-font_06_Lock" sketch:type="MSLayerGroup" transform="translate(2588.390144, 8.000000)">
                <path d="M108,108.007522 L108,108.007522 L108,376.242478 C108,406.069544 132.176624,430.25 162,430.25 L162,430.25 C191.829934,430.25 216,406.070009 216,376.242478 L216,108.007522 C216,78.1804563 191.823376,54 162,54 L162,54 C132.170066,54 108,78.1799911 108,108.007522 L108,108.007522 L108,108.007522 Z M54.25,108.007522 L54.25,108.007522 C54.25,48.4951055 102.48434,0.25 162,0.25 C221.510269,0.25 269.75,48.4967376 269.75,108.007522 L269.75,376.242478 C269.75,435.754895 221.51566,484 162,484 C102.489731,484 54.25,435.753262 54.25,376.242478 L54.25,108.007522 L54.25,108.007522 Z" id="Shape" fill="#000000" sketch:type="MSShapeGroup"></path>
                <path d="M53.75,215.252325 L53.75,215.252325 L53.75,430.247675 C53.75,430.252586 53.7474141,430.25 53.7519615,430.25 L270.248038,430.25 C270.254347,430.25 270.25,430.254348 270.25,430.247675 L270.25,215.252325 C270.25,215.247414 270.252586,215.25 270.248038,215.25 L53.7519615,215.25 C53.7456526,215.25 53.75,215.245652 53.75,215.252325 L53.75,215.252325 Z M0,215.252325 C0,185.565736 24.0549585,161.5 53.7519615,161.5 L270.248038,161.5 C299.934427,161.5 324,185.558645 324,215.252325 L324,430.247675 C324,459.934264 299.945042,484 270.248038,484 L53.7519615,484 C24.0655729,484 0,459.941355 0,430.247675 L0,215.252325 L0,215.252325 Z" id="Shape" fill="#000000" sketch:type="MSShapeGroup"></path>
                <path d="M54,213 L270,213 L270,430 L54,430 L54,213 L54,213 Z" id="Path" fill="#FFFFFF" sketch:type="MSShapeGroup"></path>
                <path d="M108,295.875 C108,281.032347 120.022525,269 134.870117,269 L189.129883,269 C203.969839,269 216,281.029084 216,295.875 C216,310.717653 203.977475,322.75 189.129883,322.75 L134.870117,322.75 C120.030161,322.75 108,310.720916 108,295.875 L108,295.875 Z" id="Shape" fill="#000000" sketch:type="MSShapeGroup"></path>
            </g>
        </g>
    </g>
</svg>