<?xml version="1.0" encoding="UTF-8" standalone="no"?>
<svg width="299px" height="500px" viewBox="0 0 299 500" version="1.1" xmlns="http://www.w3.org/2000/svg" xmlns:xlink="http://www.w3.org/1999/xlink" xmlns:sketch="http://www.bohemiancoding.com/sketch/ns">
    <!-- Generator: Sketch 3.4.2 (15857) - http://www.bohemiancoding.com/sketch -->
    <title>icon-font_04_Syringe</title>
    <desc>Created with Sketch.</desc>
    <defs></defs>
    <g id="Page-1" stroke="none" stroke-width="1" fill="none" fill-rule="evenodd" sketch:type="MSPage">
        <g id="icons" sketch:type="MSArtboardGroup" transform="translate(-1602.000000, -1.000000)" fill="#000000">
            <g id="icon-font_04_Syringe" sketch:type="MSLayerGroup" transform="translate(1602.000000, 1.000000)">
                <path d="M99.6666667,99.8327764 L99.6666667,99.8327764 L99.6666667,350.167224 C99.6666667,377.690442 121.97781,400 149.5,400 L149.5,400 C177.028241,400 199.333333,377.689106 199.333333,350.167224 L199.333333,99.8327764 C199.333333,72.3095585 177.02219,50 149.5,50 L149.5,50 C121.971759,50 99.6666667,72.310894 99.6666667,99.8327764 L99.6666667,99.8327764 L99.6666667,99.8327764 Z M49.6666667,99.8327764 L49.6666667,99.8327764 C49.6666667,44.6953801 94.3587973,0 149.5,0 C204.636556,0 249.333333,44.6954499 249.333333,99.8327764 L249.333333,350.167224 C249.333333,405.30462 204.641203,450 149.5,450 C94.3634435,450 49.6666667,405.30455 49.6666667,350.167224 L49.6666667,99.8327764 L49.6666667,99.8327764 Z" id="Shape" sketch:type="MSShapeGroup"></path>
                <path d="M99.6666667,475 C99.6666667,461.192881 110.857734,450 124.672062,450 L174.327938,450 C188.138037,450 199.333333,461.189845 199.333333,475 C199.333333,488.807119 188.142266,500 174.327938,500 L124.672062,500 C110.861963,500 99.6666667,488.810155 99.6666667,475 L99.6666667,475 Z" id="Shape" sketch:type="MSShapeGroup"></path>
                <path d="M0,175 C0,161.192881 11.197954,150 24.9942975,150 L274.005702,150 C287.809672,150 299,161.189845 299,175 C299,188.807119 287.802046,200 274.005702,200 L24.9942975,200 C11.1903282,200 0,188.810155 0,175 L0,175 Z" id="Shape" sketch:type="MSShapeGroup"></path>
            </g>
        </g>
    </g>
</svg>