<?xml version="1.0" encoding="UTF-8" standalone="no"?>
<svg width="324px" height="484px" viewBox="0 0 324 484" version="1.1" xmlns="http://www.w3.org/2000/svg" xmlns:xlink="http://www.w3.org/1999/xlink" xmlns:sketch="http://www.bohemiancoding.com/sketch/ns">
    <!-- Generator: Sketch 3.4.2 (15857) - http://www.bohemiancoding.com/sketch -->
    <title>icon-font_07_Unlock</title>
    <desc>Created with Sketch.</desc>
    <defs></defs>
    <g id="Page-1" stroke="none" stroke-width="1" fill="none" fill-rule="evenodd" sketch:type="MSPage">
        <g id="icons" sketch:type="MSArtboardGroup" transform="translate(-3088.000000, -8.000000)" fill="#000000">
            <g id="icon-font_07_Unlock" sketch:type="MSLayerGroup" transform="translate(3088.000000, 8.000000)">
                <path d="M213,162 L54,162 C24.0549585,161.5 0,185.565736 0,215 L0,430 C0,459.941355 24.0655729,484 54,484 L270,484 C299.945042,484 324,459.934264 324,430 L324,215 C324,185.558645 299.934427,161.5 270,162 L267,162 L267,107 C266.609856,48.1368438 218.480467,0 159,0 C99.7429178,0 51.6098563,48.1251651 52,107 L106,107 C105.609856,77.9511561 129.56368,54 159,54 C188.653211,54 212.609856,77.9563407 213,107 L213,162 L213,162 L213,162 L213,162 Z M54,215 L271,215 L271,430 L54,430 L54,215 L54,215 L54,215 L54,215 Z M108,296 C108,281.088312 120.022525,269 134.870117,269 L189.129883,269 C203.969839,269 216,281.085033 216,296 C216,310.911688 203.977475,323 189.129883,323 L134.870117,323 C120.030161,323 108,310.914967 108,296 L108,296 L108,296 Z" id="Shape" sketch:type="MSShapeGroup"></path>
            </g>
        </g>
    </g>
</svg>