<?xml version="1.0" encoding="UTF-8" standalone="no"?>
<svg width="483px" height="488px" viewBox="0 0 483 488" version="1.1" xmlns="http://www.w3.org/2000/svg" xmlns:xlink="http://www.w3.org/1999/xlink" xmlns:sketch="http://www.bohemiancoding.com/sketch/ns">
    <!-- Generator: Sketch 3.4.2 (15857) - http://www.bohemiancoding.com/sketch -->
    <title>icon-font_05_Lens</title>
    <desc>Created with Sketch.</desc>
    <defs></defs>
    <g id="Page-1" stroke="none" stroke-width="1" fill="none" fill-rule="evenodd" sketch:type="MSPage">
        <g id="icons" sketch:type="MSArtboardGroup" transform="translate(-2012.000000, -12.000000)" fill="#000000">
            <g id="icon-font_05_Lens" sketch:type="MSLayerGroup" transform="translate(2012.000000, 12.000000)">
                <path d="M291.838835,296.338835 C298.087223,290.090446 308.211019,290.083602 314.463099,296.335682 L478.253153,460.125736 C484.4998,466.372383 484.499763,476.500237 478.25,482.75 C472.001611,488.998389 461.877815,489.005232 455.625736,482.753153 L291.835682,318.963099 C285.589035,312.716452 285.589072,302.588597 291.838835,296.338835 Z M178.5,325 C259.409716,325 325,259.409716 325,178.5 C325,97.5902842 259.409716,32 178.5,32 C97.5902842,32 32,97.5902842 32,178.5 C32,259.409716 97.5902842,325 178.5,325 Z M0,178.5 C0,79.9171722 79.9171722,0 178.5,0 C277.082828,0 357,79.9171722 357,178.5 C357,277.082828 277.082828,357 178.5,357 C79.9171722,357 0,277.082828 0,178.5 Z" id="Shape" sketch:type="MSShapeGroup"></path>
            </g>
        </g>
    </g>
</svg>