<?xml version="1.0" encoding="UTF-8" standalone="no"?>
<svg width="269px" height="373px" viewBox="0 0 269 373" version="1.1" xmlns="http://www.w3.org/2000/svg" xmlns:xlink="http://www.w3.org/1999/xlink" xmlns:sketch="http://www.bohemiancoding.com/sketch/ns">
    <!-- Generator: Sketch 3.4.2 (15855) - http://www.bohemiancoding.com/sketch -->
    <title>icon-font_04_Syringe</title>
    <desc>Created with Sketch.</desc>
    <defs></defs>
    <g id="Page-1" stroke="none" stroke-width="1" fill="none" fill-rule="evenodd" sketch:type="MSPage">
        <g id="icons" sketch:type="MSArtboardGroup" transform="translate(-1606.000000, 0.000000)" fill="#000000">
            <g id="icon-font_04_Syringe" sketch:type="MSLayerGroup" transform="translate(1606.000000, 0.000000)">
                <path d="M134.333333,313 C92.8508325,313 60,282.202345 60,245.1875 C60,232.386133 72.2701659,200.696653 93.2691446,160.081141 C97.9582888,151.011557 103.021535,141.58606 108.403599,131.879172 C119.582984,111.716452 131.593704,91.2983774 143.60654,71.7061927 C147.811298,64.8484962 151.712368,58.5896977 155.207074,53.0624149 C156.424352,51.1371478 157.501891,49.4438912 158.426884,47.9991564 C158.747077,47.49905 159.024363,47.0672163 159.257142,46.7057164 C159.391798,46.4965977 159.478766,46.3619079 159.516446,46.3037064 L134.333333,30 L109.150221,46.3037064 C109.251703,46.4604588 109.46939,46.7981023 109.797337,47.3089768 C110.356535,48.1800954 111.014162,49.209217 111.764267,50.3886716 C113.921843,53.7812127 116.37838,57.6837283 119.086205,62.0346996 C126.837951,74.4903127 135.028105,88.0093004 143.273319,102.094735 C161.021502,132.414246 176.495036,161.027794 188.133757,185.829273 C201.396663,214.091799 208.666667,235.728808 208.666667,245.1875 C208.666667,282.202345 175.815834,313 134.333333,313 L134.333333,313 Z M134.333333,373 C208.118299,373 268.666667,316.235905 268.666667,245.1875 C268.666667,224.077242 259.353773,196.360178 242.450323,160.33985 C229.921571,133.641764 213.643057,103.539655 195.054057,71.7837596 C186.51779,57.2011148 178.050529,43.2247249 170.02669,30.3319082 C167.21306,25.8109291 164.652761,21.7435735 162.392838,18.1901034 C161.596819,16.938454 160.893676,15.8381045 160.2893,14.8966074 C159.919101,14.3199124 159.659518,13.917287 159.516446,13.6962936 C147.69369,-4.56543119 120.972977,-4.56543119 109.150221,13.6962936 C108.919332,14.0529302 108.497151,14.7085673 107.896358,15.6469382 C106.910951,17.186034 105.772425,18.9751268 104.493447,20.9979791 C100.855991,26.7510375 96.809796,33.2426715 92.4559596,40.3435066 C80.0156706,60.6328403 67.5732658,81.784773 55.9297348,102.784609 C50.2764341,112.98069 44.9398521,122.915015 39.9712432,132.52513 C14.3574093,182.06654 0,219.146627 0,245.1875 C0,316.235905 60.5483675,373 134.333333,373 L134.333333,373 Z" id="Shape" sketch:type="MSShapeGroup"></path>
            </g>
        </g>
    </g>
</svg>