<?xml version="1.0" encoding="UTF-8" standalone="no"?>
<svg width="325px" height="484px" viewBox="0 0 325 484" version="1.1" xmlns="http://www.w3.org/2000/svg" xmlns:xlink="http://www.w3.org/1999/xlink" xmlns:sketch="http://www.bohemiancoding.com/sketch/ns">
    <!-- Generator: Sketch 3.4.2 (15857) - http://www.bohemiancoding.com/sketch -->
    <title>icon-font_07_Unlock</title>
    <desc>Created with Sketch.</desc>
    <defs></defs>
    <g id="Page-1" stroke="none" stroke-width="1" fill="none" fill-rule="evenodd" sketch:type="MSPage">
        <g id="icons" sketch:type="MSArtboardGroup" transform="translate(-3088.000000, -8.000000)">
            <g id="icon-font_07_Unlock" sketch:type="MSLayerGroup" transform="translate(3088.390144, 8.000000)">
                <path d="M51.6098563,162.037209 L51.6098563,163.037209 L51.6098563,185.508067 C51.6098563,244.873763 99.7392457,293 159.109856,293 C218.476795,293 266.609856,244.874835 266.609856,185.509435 L266.609856,107.490565 C266.609856,48.1368438 218.480467,0 159.109856,0 C99.7429178,0 51.6098563,48.1251651 51.6098563,107.490565 L105.609856,107.490565 C105.609856,77.9511561 129.56368,54 159.109856,54 C188.653211,54 212.609856,77.9563407 212.609856,107.490565 L212.609856,185.509435 C212.609856,215.048844 188.656033,239 159.109856,239 C129.561909,239 105.609856,215.049674 105.609856,185.508067 L105.609856,162.037209 L51.6098563,162.037209 Z" id="Shape" fill="#000000" sketch:type="MSShapeGroup"></path>
                <path d="M53.75,215.252325 L53.75,215.252325 L53.75,430.247675 C53.75,430.252586 53.7474141,430.25 53.7519615,430.25 L270.248038,430.25 C270.254347,430.25 270.25,430.254348 270.25,430.247675 L270.25,215.252325 C270.25,215.247414 270.252586,215.25 270.248038,215.25 L53.7519615,215.25 C53.7456526,215.25 53.75,215.245652 53.75,215.252325 L53.75,215.252325 Z M0,215.252325 C0,185.565736 24.0549585,161.5 53.7519615,161.5 L270.248038,161.5 C299.934427,161.5 324,185.558645 324,215.252325 L324,430.247675 C324,459.934264 299.945042,484 270.248038,484 L53.7519615,484 C24.0655729,484 0,459.941355 0,430.247675 L0,215.252325 L0,215.252325 Z" id="Shape" fill="#000000" sketch:type="MSShapeGroup"></path>
                <path d="M54,213 L270,213 L270,430 L54,430 L54,213 L54,213 Z" id="Path" fill="#FFFFFF" sketch:type="MSShapeGroup"></path>
                <path d="M108,295.875 C108,281.032347 120.022525,269 134.870117,269 L189.129883,269 C203.969839,269 216,281.029084 216,295.875 C216,310.717653 203.977475,322.75 189.129883,322.75 L134.870117,322.75 C120.030161,322.75 108,310.720916 108,295.875 L108,295.875 Z" id="Shape-Copy-2" fill="#000000" sketch:type="MSShapeGroup"></path>
            </g>
        </g>
    </g>
</svg>