<svg width="56" height="56" viewBox="0 0 56 56" xmlns="http://www.w3.org/2000/svg">
  <g fill="none" fill-rule="evenodd">
    <path fill="#F2F6F9" d="M0 0h56v56H0z"/>
    <path d="M16 16h24v24H16z"/>
    <path d="M37.41 34.59l-3.95-3.96a9.42 9.42 0 0 0-1.26-11.85A9.42 9.42 0 0 0 25.48 16c-2.54 0-4.92.99-6.71 2.78a9.43 9.43 0 0 0-2.78 6.7c0 2.54.99 4.92 2.78 6.71a9.42 9.42 0 0 0 11.85 1.27l3.96 3.95a1.99 1.99 0 0 0 2.82 0 1.98 1.98 0 0 0 0-2.82zM20.2 30.78a7.43 7.43 0 0 1-2.19-5.3c0-2 .78-3.87 2.2-5.29A7.43 7.43 0 0 1 25.48 18c2 0 3.87.78 5.29 2.2a7.43 7.43 0 0 1 2.2 5.29c0 2-.79 3.87-2.2 5.29a7.43 7.43 0 0 1-5.3 2.2c-2 0-3.87-.79-5.29-2.2z" fill="#888D92" fill-rule="nonzero"/>
  </g>
</svg>