<svg width="14" height="16" xmlns="http://www.w3.org/2000/svg">
  <path d="M7 .5C3.645.5.25 1.53.25 3.5v9c0 1.97 3.395 3 6.75 3s6.75-1.03 6.75-3v-9c0-1.97-3.395-3-6.75-3zM7 2c3.41 0 5.25 1.065 5.25 1.5C12.25 3.935 10.41 5 7 5S1.75 3.935 1.75 3.5C1.75 3.065 3.59 2 7 2zm0 12c-3.41 0-5.25-1.065-5.25-1.5v-1.05c1.302.692 3.28 1.05 5.25 1.05 1.97 0 3.948-.359 5.25-1.05v1.05c0 .435-1.84 1.5-5.25 1.5zm0-3c-3.41 0-5.25-1.065-5.25-1.5V8.45C3.052 9.142 5.03 9.5 7 9.5c1.97 0 3.948-.359 5.25-1.05V9.5c0 .435-1.84 1.5-5.25 1.5zm0-3C3.59 8 1.75 6.935 1.75 6.5V5.45C3.052 6.141 5.03 6.5 7 6.5c1.97 0 3.948-.359 5.25-1.05V6.5C12.25 6.935 10.41 8 7 8z" fill="#2E3C43" fill-rule="nonzero"/>
</svg>
