<svg class="Guide-listMedia" xmlns="http://www.w3.org/2000/svg" width="34" height="48" viewBox="0 0 34 48">
    <path fill="#dfdfdf" fill-rule="evenodd" d="M33.888 18.542c-.17-.334-.512-.542-.888-.542H18.248l3.73-16.784c.102-.464-.134-.936-.57-1.128-.432-.194-.944-.056-1.22.332l-20 28c-.218.304-.248.706-.076 1.038.17.334.514.542.888.542h14.752l-3.73 16.784c-.102.464.134.938.57 1.13.132.058.27.086.408.086.314 0 .622-.15.814-.418l20-28c.218-.304.246-.706.074-1.04zM15.042 42.42l2.934-13.204c.066-.296-.006-.606-.196-.844-.19-.234-.476-.372-.78-.372H2.944L18.958 5.58l-2.934 13.204c-.066.296.006.606.196.842s.476.374.78.374h14.056L15.042 42.42z"/>
</svg>