<svg class="Guide-listMedia" width="45px" height="46px" viewBox="0 0 45 46" version="1.1" xmlns="http://www.w3.org/2000/svg" xmlns:xlink="http://www.w3.org/1999/xlink">
  <defs>
    <path d="M22.0110403,23.4218182 C22.2325915,27.6440119 25.7608312,31 30.0808229,31 C33.9902569,31 37.2512789,28.2515845 38,24.6 L38,23.4218182 L44,23.4218182 L44,21.24 L37.9654593,21.24 C37.1555315,17.6684269 33.9329477,15 30.0808229,15 C26.228698,15 23.0061142,17.6684269 22.1961865,21.24 L0,21.24 L0,23.4218182 L22.0110403,23.4218182 Z M20.9759508,38.6218182 C20.6554221,42.7494997 17.1707321,46 12.9191771,46 C9.00974305,46 5.7487211,43.2515845 5,39.6 L5,38.6218182 L0,38.6218182 L0,36.44 L5,36.44 L5,36.4 C5.7487211,32.7484155 9.00974305,30 12.9191771,30 C16.8428732,30 20.1134176,32.768505 20.8464481,36.44 L42.9,36.44 L42.9,38.6218182 L20.9759508,38.6218182 Z M20.8917352,9.31272727 C20.2591482,13.1064785 16.9304856,16 12.9191771,16 C9.00974305,16 5.7487211,13.2515845 5,9.6 L5,9.31272727 L0,9.31272727 L0,7.13090909 L5,7.13090909 L5,6.4 C5.7487211,2.74841549 9.00974305,0 12.9191771,0 C17.0854643,0 20.515338,3.12142573 20.9528667,7.13090909 L44,7.13090909 L44,9.31272727 L20.8917352,9.31272727 Z" id="path-1"></path>
    <mask id="mask-2" maskContentUnits="userSpaceOnUse" maskUnits="objectBoundingBox" x="0" y="0" width="44" height="46" fill="white">
        <use xlink:href="#path-1"></use>
    </mask>
  </defs>
  <use id="Combined-Shape" stroke="#dfdfdf" mask="url(#mask-2)" stroke-width="4.36363636" fill="none" xlink:href="#path-1"></use>
</svg>