<?xml version="1.0" encoding="UTF-8" standalone="no"?>
<svg
   xmlns:dc="http://purl.org/dc/elements/1.1/"
   xmlns:cc="http://creativecommons.org/ns#"
   xmlns:rdf="http://www.w3.org/1999/02/22-rdf-syntax-ns#"
   xmlns:svg="http://www.w3.org/2000/svg"
   xmlns="http://www.w3.org/2000/svg"
   id="svg2"
   version="1.1"
   viewBox="0 0 20 19"
   height="19"
   width="20">
  <metadata
     id="metadata16">
    <rdf:RDF>
      <cc:Work
         rdf:about="">
        <dc:format>image/svg+xml</dc:format>
        <dc:type
           rdf:resource="http://purl.org/dc/dcmitype/StillImage" />
        <dc:title>Group 4</dc:title>
      </cc:Work>
    </rdf:RDF>
  </metadata>
  <defs
     id="defs14" />
  <title
     id="title4">Group 4</title>
  <g
     transform="translate(-2,-3)"
     style="fill:none;fill-rule:evenodd;stroke:none;stroke-width:1"
     id="Integration-in-website-and-dashboard">
    <path
       d="M 21.956,16.706 18.331,4.925 C 17.976,3.774 16.929,3 15.726,3 14.223,3 13,4.223 13,5.726 L 13,7 11,7 11,5.726 C 11,4.223 9.777,3 8.274,3 7.07,3 6.024,3.774 5.669,4.925 L 2.044,16.706 C 2.015,16.801 2,16.9 2,17 l 0,0.5 C 2,19.982 4.019,22 6.5,22 8.981,22 11,19.982 11,17.5 l 0,-4.5 2,0 0,4.5 c 0,2.482 2.019,4.5 4.5,4.5 2.481,0 4.5,-2.018 4.5,-4.5 L 22,17 c 0,-0.1 -0.015,-0.199 -0.044,-0.294 z M 6.5,20 C 5.122,20 4,18.878 4,17.5 4,16.122 5.122,15 6.5,15 7.878,15 9,16.122 9,17.5 9,18.878 7.878,20 6.5,20 Z M 9,13.762 C 8.284,13.282 7.425,13 6.5,13 6.049,13 5.623,13.086 5.212,13.21 L 7.58,5.512 C 7.675,5.206 7.954,5 8.274,5 8.674,5 9,5.325 9,5.726 L 9,7 9,13 9,13.762 Z M 11,11 l 0,-2 2,0 0,2 -2,0 z M 15,7 15,5.726 C 15,5.325 15.326,5 15.726,5 c 0.32,0 0.599,0.206 0.694,0.513 l 2.368,7.698 C 18.377,13.086 17.951,13 17.5,13 16.575,13 15.716,13.282 15,13.762 L 15,13 15,7 Z m 2.5,13 C 16.122,20 15,18.878 15,17.5 15,16.122 16.122,15 17.5,15 c 1.378,0 2.5,1.122 2.5,2.5 0,1.378 -1.122,2.5 -2.5,2.5 z"
       id="Shape"
       style="fill:#047AE6;fill-rule:nonzero" />
    <rect
       id="Rectangle"
       x="0"
       y="-1.2434498e-14"
       width="24"
       height="24.000999" />
  </g>
</svg>
