<svg xmlns="http://www.w3.org/2000/svg" fill="transparent">
  <path d="M9 0c4.473 0 9 1.374 9 4v12c0 2.626-4.527 4-9 4s-9-1.374-9-4V4c0-2.626 4.527-4 9-4zm0 2C4.453 2 2 3.42 2 4c0 .58 2.453 2 7 2 4.547 0 7-1.42 7-2 0-.58-2.453-2-7-2zm0 16c4.547 0 7-1.42 7-2v-1.4c-1.736.922-4.374 1.4-7 1.4-2.626 0-5.264-.477-7-1.4V16c0 .58 2.453 2 7 2zm0-4c4.547 0 7-1.42 7-2v-1.4c-1.736.922-4.374 1.4-7 1.4-2.626 0-5.264-.477-7-1.4V12c0 .58 2.453 2 7 2zm0-4c4.547 0 7-1.42 7-2V6.6C14.264 7.522 11.626 8 9 8c-2.626 0-5.264-.478-7-1.4V8c0 .58 2.453 2 7 2z" fill="#2E3C43"/>
  <path d="M9 7c-4.2 0-7.2-.8-9-2v2c0 .8 2.2 3 9 3s9-2.2 9-3V5c-1.8 1.2-4.8 2-9 2zM9 15c6.8 0 9-2.2 9-3v-2c-1.8 1.2-4.8 2-9 2s-7.2-.8-9-2v2c0 .8 2.2 3 9 3zM9 5c5.2 0 7.7-1.3 8.6-2.3C16.4 1 12.6 0 9 0 5.3 0 1.6 1 .4 2.7 1.3 3.7 3.8 5 9 5zM9 17c-4.2 0-7.2-.8-9-2v1c0 2.6 4.5 4 9 4s9-1.4 9-4v-1c-1.8 1.2-4.8 2-9 2z" fill="transparent"/>
</svg>
