<svg width="20" height="20" xmlns="http://www.w3.org/2000/svg">
  <g fill="none" fill-rule="evenodd">
    <path d="M-2-2h24v24H-2z"/>
    <g fill="#2E3C43">
      <path d="M10 0C4.487 0 0 4.487 0 10s4.487 10 10 10 10-4.487 10-10S15.513 0 10 0zm0 17.778c-4.289 0-7.778-3.49-7.778-7.778 0-4.289 3.49-7.778 7.778-7.778 4.288 0 7.778 3.49 7.778 7.778 0 4.289-3.49 7.778-7.778 7.778z" fill-rule="nonzero"/>
      <path d="M10.986 4.348h-2.29v6.145l3.946 2.55 1.271-1.847-2.927-1.89z"/>
    </g>
  </g>
</svg>
