<?xml version="1.0" encoding="UTF-8"?>
<svg width="20px" height="20px" viewBox="0 0 20 20" version="1.1" xmlns="http://www.w3.org/2000/svg" xmlns:xlink="http://www.w3.org/1999/xlink">
    <!-- Generator: Sketch 51.3 (57544) - http://www.bohemiancoding.com/sketch -->
    <title>Line_Icons</title>
    <desc>Created with Sketch.</desc>
    <defs></defs>
    <g id="Active-Development-Cycle" stroke="none" stroke-width="1" fill="none" fill-rule="evenodd">
        <g id="04-Home-/-Tags-/-One" transform="translate(-214.000000, -215.000000)" fill="#2E3C43">
            <g id="tag-1" transform="translate(212.000000, 213.000000)">
                <g id="Line_Icons" transform="translate(2.000000, 2.000000)">
                    <g id="Group">
                        <path d="M12,20 C11.744,20 11.488,19.902 11.293,19.707 L0.293,8.707 C0.105,8.52 0,8.266 0,8 L0,1 C0,0.447 0.447,0 1,0 L8,0 C8.266,0 8.52,0.105 8.707,0.293 L19.707,11.293 C20.098,11.684 20.098,12.316 19.707,12.707 L12.707,19.707 C12.512,19.902 12.256,20 12,20 Z M2,7.586 L12,17.586 L17.586,12 L7.586,2 L2,2 L2,7.586 Z" id="Shape" fill-rule="nonzero"></path>
                        <circle id="Oval" cx="5" cy="5" r="2"></circle>
                    </g>
                </g>
            </g>
        </g>
    </g>
</svg>