<svg xmlns="http://www.w3.org/2000/svg" width="24" height="24" viewBox="0 0 24 24">
    <g fill="none" fill-rule="evenodd">
        <g fill="#2E3C43">
            <g>
                <g>
                    <g>
                        <path d="M16.08 9.25l1.926 1.138.003.001 5.5 3.25c.655.387.655 1.335 0 1.722l-1.457.859v.002l-9.035 5.338-.014.008-.494.293c-.275.162-.608.182-.897.06l-.12-.06-.496-.293-.013-.008-9.035-5.338-.001-.002-1.456-.86c-.616-.363-.652-1.224-.109-1.647l.11-.074L2.57 12.41l5.347-3.16 1.966 1.161-1.419.839 3.534 2.089 3.535-2.089-1.42-.839L16.08 9.25zM12 15.66l-3.534 2.089L12 19.839l3.534-2.09-3.535-2.089zm-5.498-3.25L2.966 14.5 6.5 16.588l2.046-1.209 1.488-.879-3.533-2.09zm10.997.001l-3.534 2.088 3.535 2.09 3.535-2.089-3.536-2.089zm-6.007-9.272c.314-.185.704-.185 1.018 0l5.5 3.25c.655.387.655 1.335 0 1.722l-5.5 3.25c-.314.185-.704.185-1.018 0l-5.5-3.25c-.655-.387-.655-1.335 0-1.722zM12 5.16L8.464 7.249l3.535 2.09 3.536-2.09-3.536-2.089z" transform="translate(-210 -199) translate(0 129) translate(210 64) translate(0 6)"/>
                    </g>
                </g>
            </g>
        </g>
    </g>
</svg>
