<?xml version="1.0" encoding="utf-8"?>
<!-- Generator: Adobe Illustrator 21.1.0, SVG Export Plug-In . SVG Version: 6.00 Build 0)  -->
<svg version="1.1" id="Layer_1" xmlns="http://www.w3.org/2000/svg" xmlns:xlink="http://www.w3.org/1999/xlink" x="0px" y="0px"
	 viewBox="0 0 175.5 52" style="enable-background:new 0 0 175.5 52;" xml:space="preserve">
<style type="text/css">
	.st0{fill:#FFFFFF;}
	.st1{fill:#F16B46;}
</style>
<g>
	<g>
		<path class="st0" d="M162.9,8.4c-0.4,0-0.8,0-1,0c-2.5,0-4.5,0.8-6.2,2.1c-1.8-1.4-4.8-2.1-9.1-2.1c-4.6,0-7.7,1-9.9,2.4
			c-0.2,0.2-0.3,0.4-0.1,0.7l2.1,3.4c0.2,0.3,0.5,0.3,0.8,0.1c1.3-0.9,3.2-1.7,6.4-1.7c4.7,0,6.2,1.3,6.2,4.1v1.2
			c0,0.2-0.1,0.3-0.3,0.3h-5.7c-6.9,0-11.2,2.5-11.2,7.9c0,5.2,4.3,7.6,9.4,7.6c0.1,0,3.6,0,3.6,0c7.5,0,9.9-4.3,9.9-8.3
			c0-2.4,0-6.4,0-6.4c0-3.2,1.2-5.9,4.5-5.9c3.3,0,5,2,5,5.2v14.2c0,0.3,0.2,0.5,0.6,0.5h5.1c0.3,0,0.6-0.2,0.6-0.5V17.6
			C173.4,12.3,168.6,8.4,162.9,8.4z M152.1,25.4c0,2.8-2.2,4.2-6.2,4.2c-3.1,0-4.8-1-4.8-3.1c0-2.3,1.9-3.3,6-3.3h4.6
			c0.2,0,0.3,0.1,0.3,0.3V25.4z"/>
		<path class="st0" d="M97.8,13.5c2.3,0,3.8,0.8,5.2,2.2c0.2,0.3,0.5,0.3,0.8,0.1l3.7-2.8c0.3-0.2,0.2-0.5,0.1-0.7
			c-2.2-2.4-5.5-3.9-9.7-3.9c-3.8,0-6.9,1.1-9.1,3.1c-2.2-2.1-5.3-3.2-9.1-3.2c-5.7,0-10,2.5-11.5,6.8c-0.6,1.7-0.9,3.4-0.9,6.1
			s0.3,4.4,0.9,6.1c1.6,4.3,5.9,6.8,11.5,6.8c3.7,0,6.9-1.1,9-3.1c2.2,2.1,5.4,3.2,9.2,3.2c4.2,0,7.5-1.5,9.7-3.8
			c0.2-0.3,0.2-0.5-0.1-0.7l-3.7-2.8c-0.3-0.2-0.6-0.2-0.8,0.1c-1.4,1.4-2.8,2.2-5.2,2.2c-2.5,0-4.4-1.1-5.2-3.2
			c-0.5-1.2-0.6-2.7-0.6-4.6c0-1.9,0.1-3.3,0.6-4.6C93.4,14.6,95.4,13.5,97.8,13.5z M84.8,25.9c-0.8,2.1-2.6,3.2-5.2,3.2
			c-2.6,0-4.5-1.2-5.3-3.2c-0.5-1.3-0.6-2.5-0.6-4.6c0-2.1,0.1-3.2,0.6-4.6c0.8-2.1,2.7-3.2,5.3-3.2c2.6,0,4.4,1.2,5.2,3.2
			c0.5,1.3,0.6,2.5,0.6,4.6C85.4,23.4,85.3,24.6,84.8,25.9z"/>
		<path class="st0" d="M120.5,8.4c-5.4,0-9.6,2.5-11.1,6.8c-0.6,1.6-0.9,3.5-0.9,6.1c0,2.6,0.4,4.5,1,6.1c1.5,4.3,5.6,6.9,11.4,6.9
			c5,0,8.9-1.7,11.2-4.2c0.2-0.3,0.2-0.5-0.1-0.7l-3.3-2.7c-0.3-0.2-0.6-0.2-0.8,0.1c-1.4,1.3-3.3,2.4-6.4,2.4
			c-3.1,0-5.2-1.3-6.1-3.8c-0.2-0.6-0.4-1.2-0.4-1.9c0-0.2,0.1-0.3,0.3-0.3H132c0.4,0,0.6-0.2,0.6-0.5c0-4-0.3-5.7-0.9-7.5
			C130.2,11,126.1,8.4,120.5,8.4z M125.9,18.9h-10.7c-0.2,0-0.3-0.1-0.3-0.3c0-0.9,0.1-1.5,0.3-2.1c0.7-2,2.8-3.2,5.4-3.2
			c2.5,0,4.6,1.2,5.3,3.2c0.2,0.6,0.3,1.2,0.3,2.1C126.2,18.8,126.1,18.9,125.9,18.9z"/>
	</g>
	<path class="st1" d="M47.5,4.2c-0.6-0.4-1.6-0.4-2.1,0.1l-3.6,3.3c-0.6,0.5-0.5,1.3,0.1,1.7c0,0,5.5,4,5.5,12.7
		c0,8.2-5.8,12.9-5.8,12.9c-0.6,0.5-0.6,1.3,0,1.8l3.5,3.2c0.6,0.5,1.5,0.6,2.1,0.2c0,0,8.3-5.6,8.3-18C55.6,9.7,47.5,4.2,47.5,4.2"
		/>
	<path class="st0" d="M26.9,13.8c-1.1-2.3-3.4-4.1-6.9-4.1c-3.5,0-5.8,1.7-6.9,4.1c-0.6,1.4-0.9,2.5-1,4.2h15.7
		C27.8,16.3,27.5,15.2,26.9,13.8 M13.3,24.7c0,0-1-0.1-1,0.7c0,4.7,3.5,8,9,8c4.1,0,5.8-1,8.3-2.8c0.6-0.4,1.2-0.8,1.7-0.3
		c0.3,0.3,4.6,4.3,4.6,4.3c0.5,0.5,0.4,1.1-0.2,1.6c-0.6,0.5-7,5.5-14.5,5.5c-9.7,0-19-4.2-19-20.2C2.1,8.8,9.4,1.6,20,1.6
		c11.5,0,17.9,8,17.9,18.8v2.7c0,1.1-0.9,1.6-1.6,1.6H13.3z"/>
	<g>
		<path class="st0" d="M102.2,48.8C102.2,48.8,102.1,48.8,102.2,48.8l-0.1-0.4h0c-0.2,0.3-0.6,0.5-1.2,0.5c-0.8,0-1.4-0.3-1.6-1
			c-0.1-0.3-0.2-0.6-0.2-1.2s0-0.8,0.2-1.2c0.2-0.7,0.8-1,1.6-1c0.6,0,1,0.2,1.2,0.5h0v-2c0-0.1,0-0.1,0.1-0.1h0.9
			c0.1,0,0.1,0,0.1,0.1v5.6c0,0.1,0,0.1-0.1,0.1H102.2z M102,47.5c0.1-0.2,0.1-0.4,0.1-0.8c0-0.4,0-0.6-0.1-0.8
			c-0.1-0.3-0.4-0.5-0.9-0.5c-0.4,0-0.7,0.2-0.9,0.5c-0.1,0.2-0.1,0.4-0.1,0.8c0,0.4,0,0.6,0.1,0.8c0.1,0.3,0.4,0.5,0.9,0.5
			C101.6,48.1,101.9,47.9,102,47.5z"/>
		<path class="st0" d="M105.7,43.9C105.6,43.9,105.6,43.9,105.7,43.9l-0.1-0.8c0-0.1,0-0.1,0.1-0.1h0.9c0.1,0,0.1,0,0.1,0.1v0.7
			c0,0.1,0,0.1-0.1,0.1H105.7z M105.7,48.8C105.6,48.8,105.6,48.8,105.7,48.8l-0.1-4c0-0.1,0-0.1,0.1-0.1h0.9c0.1,0,0.1,0,0.1,0.1
			v3.9c0,0.1,0,0.1-0.1,0.1H105.7z"/>
		<path class="st0" d="M108.9,49.8c0,0,0-0.1,0-0.1l0.6-0.5c0,0,0.1,0,0.1,0c0.3,0.2,0.6,0.4,1,0.4c0.7,0,1-0.3,1-1v-0.4h0
			c-0.2,0.3-0.6,0.5-1.2,0.5c-0.8,0-1.3-0.3-1.6-1c-0.1-0.3-0.2-0.6-0.2-1c0-0.5,0-0.7,0.2-1c0.2-0.7,0.8-1,1.6-1
			c0.6,0,1,0.2,1.2,0.5h0v-0.3c0-0.1,0-0.1,0.1-0.1h0.9c0.1,0,0.1,0,0.1,0.1v3.8c0,1.2-0.7,1.9-2.2,1.9
			C109.9,50.4,109.2,50.2,108.9,49.8z M111.5,47.3c0.1-0.2,0.1-0.4,0.1-0.7c0-0.3,0-0.5-0.1-0.7c-0.1-0.3-0.4-0.5-0.8-0.5
			c-0.4,0-0.7,0.2-0.8,0.5c-0.1,0.2-0.1,0.4-0.1,0.7c0,0.3,0,0.5,0.1,0.7c0.1,0.3,0.4,0.5,0.8,0.5C111.2,47.9,111.4,47.7,111.5,47.3
			z"/>
		<path class="st0" d="M115.2,43.9C115.1,43.9,115.1,43.9,115.2,43.9l-0.1-0.8c0-0.1,0-0.1,0.1-0.1h0.9c0.1,0,0.1,0,0.1,0.1v0.7
			c0,0.1,0,0.1-0.1,0.1H115.2z M115.2,48.8C115.1,48.8,115.1,48.8,115.2,48.8l-0.1-4c0-0.1,0-0.1,0.1-0.1h0.9c0.1,0,0.1,0,0.1,0.1
			v3.9c0,0.1,0,0.1-0.1,0.1H115.2z"/>
		<path class="st0" d="M119.9,48.9c-0.9,0-1.3-0.4-1.3-1.2v-2.2c0,0,0-0.1-0.1-0.1h-0.3c-0.1,0-0.1,0-0.1-0.1v-0.6
			c0-0.1,0-0.1,0.1-0.1h0.3c0,0,0.1,0,0.1-0.1v-1.1c0-0.1,0-0.1,0.1-0.1h0.9c0.1,0,0.1,0,0.1,0.1v1.1c0,0,0,0.1,0.1,0.1h0.6
			c0.1,0,0.1,0,0.1,0.1v0.6c0,0.1,0,0.1-0.1,0.1h-0.6c0,0-0.1,0-0.1,0.1v2.1c0,0.3,0.1,0.4,0.4,0.4h0.2c0.1,0,0.1,0,0.1,0.1v0.7
			c0,0.1,0,0.1-0.1,0.1H119.9z"/>
		<path class="st0" d="M125.3,48.8C125.2,48.8,125.2,48.8,125.3,48.8l-0.1-0.4h0c-0.2,0.3-0.7,0.5-1.3,0.5c-0.8,0-1.6-0.4-1.6-1.2
			c0-0.9,0.7-1.3,1.8-1.3h0.9c0,0,0.1,0,0.1-0.1v-0.2c0-0.5-0.2-0.7-1-0.7c-0.5,0-0.8,0.1-1.1,0.3c0,0-0.1,0-0.1,0l-0.4-0.6
			c0,0,0-0.1,0-0.1c0.4-0.2,0.9-0.4,1.6-0.4c1.4,0,1.9,0.4,1.9,1.4v2.7c0,0.1,0,0.1-0.1,0.1H125.3z M125.2,47.4v-0.3
			c0,0,0-0.1-0.1-0.1h-0.8c-0.7,0-1,0.2-1,0.6c0,0.3,0.3,0.5,0.8,0.5C124.8,48.1,125.2,47.9,125.2,47.4z"/>
		<path class="st0" d="M129.8,48.9c-0.9,0-1.3-0.4-1.3-1.2v-4.6c0-0.1,0-0.1,0.1-0.1h0.9c0.1,0,0.1,0,0.1,0.1v4.5
			c0,0.3,0.1,0.4,0.4,0.4h0.2c0.1,0,0.1,0,0.1,0.1v0.7c0,0.1,0,0.1-0.1,0.1H129.8z"/>
		<path class="st0" d="M134.7,50.3C134.7,50.3,134.6,50.3,134.7,50.3l-0.1-0.8c0-0.1,0-0.1,0.1-0.1h0.2c0.4,0,0.5-0.1,0.5-0.5v-4.2
			c0-0.1,0-0.1,0.1-0.1h0.9c0.1,0,0.1,0,0.1,0.1V49c0,0.9-0.5,1.4-1.6,1.4H134.7z M135.6,43.9C135.5,43.9,135.5,43.9,135.6,43.9
			l-0.1-0.8c0-0.1,0-0.1,0.1-0.1h0.9c0.1,0,0.1,0,0.1,0.1v0.7c0,0.1,0,0.1-0.1,0.1H135.6z"/>
		<path class="st0" d="M138.8,47.8c-0.1-0.3-0.2-0.6-0.2-1c0-0.5,0-0.7,0.2-1c0.3-0.7,1-1.1,1.9-1.1c0.9,0,1.6,0.4,1.9,1.1
			c0.1,0.3,0.2,0.6,0.2,1c0,0.5,0,0.7-0.2,1c-0.3,0.7-1,1.1-1.9,1.1C139.8,48.9,139.1,48.5,138.8,47.8z M141.6,47.5
			c0.1-0.2,0.1-0.4,0.1-0.8c0-0.3,0-0.5-0.1-0.8c-0.1-0.3-0.4-0.5-0.9-0.5c-0.4,0-0.7,0.2-0.9,0.5c-0.1,0.2-0.1,0.4-0.1,0.8
			c0,0.3,0,0.5,0.1,0.8c0.1,0.3,0.4,0.5,0.9,0.5C141.2,48.1,141.5,47.9,141.6,47.5z"/>
		<path class="st0" d="M147.7,48.8C147.7,48.8,147.6,48.8,147.7,48.8l-0.1-0.4h0c-0.2,0.3-0.6,0.5-1.2,0.5c-1,0-1.6-0.6-1.6-1.5
			v-2.6c0-0.1,0-0.1,0.1-0.1h0.9c0.1,0,0.1,0,0.1,0.1v2.4c0,0.5,0.3,0.9,0.9,0.9c0.5,0,0.9-0.4,0.9-0.9v-2.4c0-0.1,0-0.1,0.1-0.1
			h0.9c0.1,0,0.1,0,0.1,0.1v3.9c0,0.1,0,0.1-0.1,0.1H147.7z"/>
		<path class="st0" d="M151.2,48.8C151.1,48.8,151.1,48.8,151.2,48.8l-0.1-4c0-0.1,0-0.1,0.1-0.1h0.9c0.1,0,0.1,0,0.1,0.1v0.3h0
			c0.2-0.3,0.6-0.5,1.2-0.5c0.4,0,0.7,0.1,1,0.3c0,0,0.1,0.1,0,0.1l-0.5,0.6c0,0-0.1,0.1-0.1,0c-0.2-0.1-0.4-0.2-0.7-0.2
			c-0.6,0-0.9,0.4-0.9,1v2.2c0,0.1,0,0.1-0.1,0.1H151.2z"/>
		<path class="st0" d="M159,48.8C158.9,48.8,158.9,48.8,159,48.8l-0.1-2.4c0-0.5-0.3-0.9-0.9-0.9c-0.6,0-0.9,0.4-0.9,0.9v2.4
			c0,0.1,0,0.1-0.1,0.1h-0.9c-0.1,0-0.1,0-0.1-0.1v-3.9c0-0.1,0-0.1,0.1-0.1h0.9c0.1,0,0.1,0,0.1,0.1v0.3h0c0.2-0.3,0.6-0.5,1.2-0.5
			c1,0,1.6,0.6,1.6,1.5v2.6c0,0.1,0,0.1-0.1,0.1H159z"/>
		<path class="st0" d="M162.2,47.8c-0.1-0.3-0.2-0.6-0.2-1c0-0.4,0.1-0.7,0.2-1c0.3-0.7,1-1.1,1.9-1.1c0.9,0,1.6,0.4,1.9,1.1
			c0.1,0.3,0.2,0.6,0.2,1.2c0,0.1,0,0.1-0.1,0.1h-2.8c0,0-0.1,0-0.1,0.1c0,0.1,0,0.2,0.1,0.3c0.2,0.4,0.5,0.6,1,0.6
			c0.5,0,0.9-0.2,1.1-0.4c0,0,0.1-0.1,0.1,0l0.6,0.4c0,0,0,0.1,0,0.1c-0.4,0.4-1,0.7-1.9,0.7C163.1,48.9,162.4,48.5,162.2,47.8z
			 M165,46c-0.1-0.3-0.5-0.5-0.9-0.5c-0.4,0-0.8,0.2-0.9,0.5c0,0.1-0.1,0.2-0.1,0.3c0,0,0,0.1,0.1,0.1h1.8c0,0,0.1,0,0.1-0.1
			C165,46.2,165,46.1,165,46z"/>
		<path class="st0" d="M168.3,50.3C168.3,50.3,168.2,50.3,168.3,50.3l-0.1-0.8c0-0.1,0-0.1,0.1-0.1h0.2c0.4,0,0.5-0.1,0.7-0.5
			l0.1-0.3l-1.7-3.9c0-0.1,0-0.1,0.1-0.1h0.9c0.1,0,0.1,0,0.1,0.1l1,2.7h0l1-2.7c0-0.1,0.1-0.1,0.1-0.1h0.9c0.1,0,0.1,0,0.1,0.1
			l-1.8,4.3c-0.4,1-0.8,1.3-1.6,1.3H168.3z"/>
	</g>
</g>
</svg>
