<svg width="92px" height="36px" viewBox="0 0 123 48" version="1.1" xmlns="http://www.w3.org/2000/svg" xmlns:xlink="http://www.w3.org/1999/xlink">
  <g id="Carto-Framework" stroke="none" stroke-width="1" fill="none" fill-rule="evenodd">
    <g id="Payment-info" transform="translate(-660.000000, -167.000000)">
      <g id="ALL-THE-THING" transform="translate(460.000000, 167.000000)">
        <g id="Logo" transform="translate(200.000000, 0.000000)">
          <circle id="Halo" fill="#647083" opacity="0.2" cx="98.6666667" cy="24" r="24"></circle>
          <path d="M7.89386667,31.9754693 C11.2613333,31.9754693 13.2074667,30.5104026 14.6506667,28.5205359 L11.4581333,26.2464026 C10.5397333,27.3616026 9.59946667,28.1050693 8.0032,28.1050693 C5.86026667,28.1050693 4.35146667,26.3120026 4.35146667,24.0160026 L4.35146667,23.9722693 C4.35146667,21.7418693 5.86026667,19.9050693 8.0032,19.9050693 C9.46826667,19.9050693 10.4741333,20.6266693 11.3488,21.6981359 L14.5413333,19.2272026 C13.1856,17.3685359 11.1738667,16.0565359 8.04693333,16.0565359 C3.4112,16.0565359 0,19.5552026 0,24.0160026 L0,24.0597359 C0,28.6298693 3.52053333,31.9754693 7.89386667,31.9754693 L7.89386667,31.9754693 Z M21.8730601,31.6693359 L26.3119934,31.6693359 L27.4053267,28.9141359 L33.3311934,28.9141359 L34.4245267,31.6693359 L38.9727934,31.6693359 L32.4565267,16.2533359 L28.3674601,16.2533359 L21.8730601,31.6693359 Z M28.6517267,25.6122693 L30.3791934,21.2826693 L32.0847934,25.6122693 L28.6517267,25.6122693 Z M47.23306,31.6693359 L51.4751933,31.6693359 L51.4751933,27.0336026 L53.3557266,27.0336026 L56.4389266,31.6693359 L61.3151933,31.6693359 L57.66346,26.3338693 C59.56586,25.5248026 60.81226,23.9722693 60.81226,21.6106693 L60.81226,21.5669359 C60.81226,20.0581359 60.35306,18.8992026 59.4565266,18.0026693 C58.4287933,16.9749359 56.81066,16.3626693 54.4709266,16.3626693 L47.23306,16.3626693 L47.23306,31.6693359 Z M51.4751933,23.7098693 L51.4751933,20.0144026 L54.2741266,20.0144026 C55.6735933,20.0144026 56.5701266,20.6266693 56.5701266,21.8512026 L56.5701266,21.8949359 C56.5701266,23.0101359 55.7173266,23.7098693 54.2959933,23.7098693 L51.4751933,23.7098693 Z M73.4677265,31.6693359 L77.7098599,31.6693359 L77.7098599,20.0800026 L82.3018599,20.0800026 L82.3018599,16.3626693 L68.8975932,16.3626693 L68.8975932,20.0800026 L73.4677265,20.0800026 L73.4677265,31.6693359 Z M98.6666667,32 C103.084945,32 106.666667,28.418278 106.666667,24 C106.666667,19.581722 103.084945,16 98.6666667,16 C94.2483887,16 90.6666667,19.581722 90.6666667,24 C90.6666667,28.418278 94.2483887,32 98.6666667,32 Z" fill="#162945"></path>
        </g>
      </g>
    </g>
  </g>
</svg>
