<svg width="92px" height="36px" viewBox="0 0 92 36" version="1.1" xmlns="http://www.w3.org/2000/svg" xmlns:xlink="http://www.w3.org/1999/xlink">
  <g id="Page-1" stroke="none" stroke-width="1" fill="none" fill-rule="evenodd">
    <g transform="translate(-285.000000, -255.000000)" fill="#B1B8C1">
      <g transform="translate(285.000000, 255.000000)">
        <circle id="Halo" fill-opacity="0.199999988" cx="74" cy="18" r="18"></circle>
        <path d="M5.9204,23.981602 C8.446,23.981602 9.9056,22.882802 10.988,21.390402 L8.5936,19.684802 C7.9048,20.521202 7.1996,21.078802 6.0024,21.078802 C4.3952,21.078802 3.2636,19.734002 3.2636,18.012002 L3.2636,17.979202 C3.2636,16.306402 4.3952,14.928802 6.0024,14.928802 C7.1012,14.928802 7.8556,15.470002 8.5116,16.273602 L10.906,14.420402 C9.8892,13.026402 8.3804,12.042402 6.0352,12.042402 C2.5584,12.042402 0,14.666402 0,18.012002 L0,18.044802 C0,21.472402 2.6404,23.981602 5.9204,23.981602 L5.9204,23.981602 Z M16.404795,23.752002 L19.733995,23.752002 L20.553995,21.685602 L24.998395,21.685602 L25.818395,23.752002 L29.229595,23.752002 L24.342395,12.190002 L21.275595,12.190002 L16.404795,23.752002 Z M21.488795,19.209202 L22.784395,15.962002 L24.063595,19.209202 L21.488795,19.209202 Z M35.424795,23.752002 L38.606395,23.752002 L38.606395,20.275202 L40.016795,20.275202 L42.329195,23.752002 L45.986395,23.752002 L43.247595,19.750402 C44.674395,19.143602 45.609195,17.979202 45.609195,16.208002 L45.609195,16.175202 C45.609195,15.043602 45.264795,14.174402 44.592395,13.502002 C43.821595,12.731202 42.607995,12.272002 40.853195,12.272002 L35.424795,12.272002 L35.424795,23.752002 Z M38.606395,17.782402 L38.606395,15.010802 L40.705595,15.010802 C41.755195,15.010802 42.427595,15.470002 42.427595,16.388402 L42.427595,16.421202 C42.427595,17.257602 41.787995,17.782402 40.721995,17.782402 L38.606395,17.782402 Z M55.1007949,23.752002 L58.2823949,23.752002 L58.2823949,15.060002 L61.7263949,15.060002 L61.7263949,12.272002 L51.6731949,12.272002 L51.6731949,15.060002 L55.1007949,15.060002 L55.1007949,23.752002 Z M74,24 C77.3137085,24 80,21.3137085 80,18 C80,14.6862915 77.3137085,12 74,12 C70.6862915,12 68,14.6862915 68,18 C68,21.3137085 70.6862915,24 74,24 Z" id="Logotype"></path>
      </g>
    </g>
  </g>
</svg>
