<svg width="20" height="20" xmlns="http://www.w3.org/2000/svg">
  <path d="M12 2c-1.654 0-3 1.346-3 3v4H6.837C6.403 7.56 5.08 6.5 3.5 6.5 1.57 6.5 0 8.07 0 10s1.57 3.5 3.5 3.5c1.58 0 2.903-1.06 3.337-2.5H9v4c0 1.654 1.346 3 3 3h2.184A2.995 2.995 0 0 0 17 20c1.654 0 3-1.346 3-3s-1.346-3-3-3a2.995 2.995 0 0 0-2.816 2H12c-.551 0-1-.449-1-1v-4h3.184A2.995 2.995 0 0 0 17 13c1.654 0 3-1.346 3-3s-1.346-3-3-3a2.995 2.995 0 0 0-2.816 2H11V5c0-.551.449-1 1-1h2.184A2.995 2.995 0 0 0 17 6c1.654 0 3-1.346 3-3s-1.346-3-3-3a2.995 2.995 0 0 0-2.816 2H12z" fill="#036FE2" fill-rule="evenodd"/>
</svg>