<?xml version="1.0" encoding="UTF-8"?>
<svg width="48px" height="48px" viewBox="0 0 48 48" version="1.1" xmlns="http://www.w3.org/2000/svg" xmlns:xlink="http://www.w3.org/1999/xlink">
    <!-- Generator: Sketch 60 (88103) - https://sketch.com -->
    <title>Group 8 Copy 5</title>
    <desc>Created with Sketch.</desc>
    <g id="Page-1" stroke="none" stroke-width="1" fill="none" fill-rule="evenodd">
        <g id="Group-8-Copy-5">
            <rect id="Type" fill="#3D33CC" fill-rule="nonzero" x="0" y="0" width="48" height="48" rx="2"></rect>
            <g id="location-map" transform="translate(12.000000, 12.000000)">
                <g id="Frame_-_24px">
                    <rect id="Rectangle" x="0" y="0" width="23.5102041" height="23.5111837"></rect>
                </g>
                <g id="Line_Icons" transform="translate(1.959184, 1.959184)" fill="#FFFFFF" fill-rule="nonzero">
                    <path d="M18.1763265,15.508898 C18.4486531,15.3276735 18.6122449,15.0210612 18.6122449,14.6938776 L18.6122449,0.979591837 C18.6122449,0.618122449 18.4133878,0.286040816 18.0950204,0.116571429 C17.7766531,-0.0548571429 17.3897143,-0.036244898 17.0899592,0.164571429 L11.808,3.68620408 L7.46938776,0.214530612 C7.32244898,0.0999183673 7.10204082,0.0156734694 6.89142857,0.00783673469 C6.68963265,-0.000137215541 6.46530612,0.0646530612 6.31346939,0.164571429 L0.435918367,4.08293878 C0.163591837,4.26514286 0,4.5717551 0,4.89795918 L0,18.6122449 C0,18.9737143 0.198857143,19.3057959 0.51722449,19.4762449 C0.662204082,19.5546122 0.820897959,19.5918367 0.979591837,19.5918367 C1.16963265,19.5918367 1.35869388,19.5369796 1.52326531,19.4272653 L6.80522449,15.9066122 L11.1438367,19.3773061 C11.3201633,19.5193469 11.5366531,19.5918367 11.755102,19.5918367 C12.0156735,19.5918367 12.1420408,19.5203265 12.292898,19.4194286 L18.1763265,15.508898 Z M1.95918367,5.42204082 L5.87755102,2.81044898 L5.87755102,14.1697959 L1.95918367,16.7823673 L1.95918367,5.42204082 Z M10.7755102,16.5746939 L7.83673469,14.2236735 L7.83673469,3.01910204 L10.7755102,5.36914286 L10.7755102,16.5746939 Z M16.6530612,14.1697959 L12.7346939,16.7823673 L12.7346939,5.42204082 L16.6530612,2.81044898 L16.6530612,14.1697959 Z" id="Shape"></path>
                </g>
            </g>
        </g>
    </g>
</svg>