<svg xmlns="http://www.w3.org/2000/svg" width="64" height="65" viewBox="0 0 64 65">
    <defs>
        <filter id="cj14gtknoa">
            <feColorMatrix in="SourceGraphic" values="0 0 0 0 0.866667 0 0 0 0 0.866667 0 0 0 0 0.866667 0 0 0 1.000000 0"/>
        </filter>
    </defs>
    <g fill="none" fill-rule="evenodd">
        <g>
            <g>
                <g filter="url(#cj14gtknoa)" transform="translate(-282 -482) translate(250 421) translate(32 62)">
                    <g>
                        <path fill="#2E3C43" fill-rule="nonzero" d="M47.3 21.944l9.846 5.817 5.544 3.277c1.692 1 1.745 3.402.159 4.49l-.16.101-14.661 8.663-.005.004-14.666 8.666c-.781.462-1.74.493-2.544.093l-.17-.093-9.027-5.334 3.894-3.894L32 47.569 41.425 42l-8.915-5.266 14.79-14.79zM30.643 3.926c.837-.494 1.877-.494 2.714 0l9.027 5.335-3.892 3.893L32 9.316l-9.43 5.57 8.918 5.27-3.893 3.894-1.989-1.175-3.031 1.791 2.768 1.636-3.893 3.892-4.113-2.433-9.429 5.572 6.539 3.864-3.894 3.894-9.243-5.462c-1.692-1-1.745-3.403-.159-4.49l.16-.101 14.666-8.667.005-.003 4.382-2.59-4.387-2.593c-1.692-1-1.745-3.403-.159-4.49l.159-.102zm16.018 23.836l-9.424 5.569 3.908 2.31 5.52 3.261 9.423-5.569-9.427-5.57zM55.892.781c1.042-1.041 2.73-1.041 3.771 0 .977.976 1.038 2.521.183 3.569l-.183.202L8.108 56.108c-1.042 1.041-2.73 1.041-3.771 0-.977-.976-1.038-2.521-.183-3.569l.183-.202L55.892.78z" transform="translate(0 3.556)"/>
                    </g>
                </g>
            </g>
        </g>
    </g>
</svg>
