<svg xmlns="http://www.w3.org/2000/svg" width="64" height="66" viewBox="0 0 64 66">
    <defs>
        <filter id="mi57o1uooa">
            <feColorMatrix in="SourceGraphic" values="0 0 0 0 0.866667 0 0 0 0 0.866667 0 0 0 0 0.866667 0 0 0 1.000000 0"/>
        </filter>
        <filter id="dfkt5yy4bb">
            <feColorMatrix in="SourceGraphic" values="0 0 0 0 0.180392 0 0 0 0 0.235294 0 0 0 0 0.262745 0 0 0 1.000000 0"/>
        </filter>
    </defs>
    <g fill="none" fill-rule="evenodd">
        <g>
            <g>
                <g>
                    <g filter="url(#mi57o1uooa)" transform="translate(-282 -409) translate(250 361) translate(32 48)">
                        <g filter="url(#dfkt5yy4bb)" transform="translate(0 4.2)">
                            <g fill="#FFF" fill-rule="nonzero" transform="translate(1.597 1.597)">
                                <circle cx="23.957" cy="31.444" r="4.492"/>
                                <path d="M17.968 0v8.984l10.27-.001c.038 2.11.435 4.123 1.131 5.99H5.99v2.995h24.825c1.462 2.426 3.477 4.481 5.87 5.99H5.99c0 9.909 8.059 17.967 17.968 17.967 9.164 0 16.744-6.89 17.834-15.764 1.442.37 2.956.568 4.515.568.49 0 .975-.02 1.455-.057-1.24 10.95-9.898 19.665-20.81 21.036v9.19h-5.988v-9.19C9.163 46.225 0 36.15 0 23.958v-8.985c0-3.306 2.686-5.989 5.99-5.989h5.989V0h5.989zm11.978.974V0h.495c-.174.319-.34.644-.495.974z"/>
                            </g>
                        </g>
                    </g>
                    <g fill="#EB1510">
                        <path d="M12.51 4.17c-4.598 0-8.34 3.742-8.34 8.34 0 4.599 3.742 8.34 8.34 8.34 4.599 0 8.34-3.741 8.34-8.34 0-4.598-3.741-8.34-8.34-8.34m0 18.766c-5.748 0-10.425-4.676-10.425-10.426 0-5.748 4.677-10.425 10.425-10.425 5.749 0 10.426 4.677 10.426 10.425 0 5.75-4.677 10.426-10.426 10.426M9.106 7.643l.098.087 3.306 3.305 3.307-3.305c.407-.408 1.067-.408 1.474 0 .376.375.405.967.087 1.376l-.087.098-3.305 3.306 3.305 3.307c.407.407.407 1.067 0 1.474-.376.376-.967.405-1.376.087l-.098-.087-3.307-3.305-3.306 3.305c-.407.407-1.067.407-1.474 0-.376-.376-.405-.967-.087-1.376l.087-.098 3.305-3.307L7.73 9.204c-.408-.407-.408-1.067 0-1.474.344-.345.87-.398 1.27-.16l.106.073z" transform="translate(-282 -409) translate(250 361) translate(32 48) translate(37.531)"/>
                    </g>
                </g>
            </g>
        </g>
    </g>
</svg>
