<svg xmlns="http://www.w3.org/2000/svg" width="64" height="64" viewBox="0 0 64 64">
    <defs>
        <filter id="fatmusqena">
            <feColorMatrix in="SourceGraphic" values="0 0 0 0 0.866667 0 0 0 0 0.866667 0 0 0 0 0.866667 0 0 0 1.000000 0"/>
        </filter>
    </defs>
    <g fill="none" fill-rule="evenodd">
        <g>
            <g>
                <g filter="url(#fatmusqena)" transform="translate(-282 -413) translate(250 365) translate(32 48)">
                    <g>
                        <path fill="#2E3C43" fill-rule="nonzero" d="M30.643.37c.837-.494 1.877-.494 2.714 0l14.666 8.668c1.747 1.032 1.747 3.559 0 4.591l-4.389 2.593 13.512 7.984 5.544 3.276c1.692 1 1.745 3.403.159 4.49l-.16.102-14.661 8.663-.005.003-14.666 8.667c-.781.461-1.74.492-2.544.092l-.17-.092-14.666-8.667c-.002 0-.004-.002-.005-.003L1.31 32.074c-1.692-1-1.745-3.403-.159-4.491l.16-.101 14.666-8.667.005-.003 4.382-2.59-4.387-2.593c-1.692-1-1.745-3.403-.159-4.49l.159-.101zM32 32.877l-9.426 5.568L32 44.014l9.425-5.57L32 32.876zm-14.663-8.67l-9.429 5.572 9.425 5.569 9.425-5.57-9.421-5.571zm29.324 0l-9.424 5.57 3.908 2.309 5.52 3.262 9.423-5.57-9.427-5.57zm-8.269-4.887l-5.035 2.977c-.837.494-1.877.494-2.714 0l-5.037-2.977-3.031 1.792L32 26.68l9.424-5.568-3.032-1.793zM32 5.76l-9.43 5.57L32 16.905l9.427-5.57L32 5.76z" transform="translate(0 7.111)"/>
                    </g>
                </g>
            </g>
        </g>
    </g>
</svg>
