<svg xmlns="http://www.w3.org/2000/svg" viewBox="0 0 20 19">
  <g fill="none" fill-rule="evenodd">
    <path d="M-2.999-2.999h23.04v23.041h-23.04z"/>
    <path d="M16.074 7.59c1.973 0 3.573 1.586 3.573 3.544 0 2.658-3.573 7.09-3.573 7.09s-3.572-4.432-3.572-7.09c0-1.958 1.6-3.545 3.572-3.545zm0 5.316a1.78 1.78 0 001.786-1.772c0-.978-.8-1.772-1.786-1.772a1.78 1.78 0 00-1.786 1.772c0 .978.8 1.772 1.786 1.772zM6.037 2.272l-3.97 14.179h11.328v1.772H.893a.897.897 0 01-.71-.35.883.883 0 01-.15-.774L4.498 1.15A.892.892 0 015.358.5h7.144c.401 0 .753.266.86.649l1.244 4.443-1.72.474-1.062-3.794h-2v2.659H8.036V2.272h-2zm2 9.748h1.786v3.545H8.037V12.02zm0-5.317h1.786v3.545H8.037V6.703z" fill="#2E3C43" fill-rule="nonzero"/>
  </g>
</svg>
