<?xml version="1.0" encoding="UTF-8" standalone="no"?>
<svg width="500px" height="274px" viewBox="0 0 500 274" version="1.1" xmlns="http://www.w3.org/2000/svg" xmlns:xlink="http://www.w3.org/1999/xlink" xmlns:sketch="http://www.bohemiancoding.com/sketch/ns">
    <!-- Generator: Sketch Beta 3.3 (11970) - http://www.bohemiancoding.com/sketch -->
    <title>icon-font_42_Key</title>
    <desc>Created with Sketch Beta.</desc>
    <defs></defs>
    <g id="Page-1" stroke="none" stroke-width="1" fill="none" fill-rule="evenodd" sketch:type="MSPage">
        <path d="M386.363636,159.727273 L270.841855,159.727273 C260.021898,224.220757 203.931734,273.363636 136.363636,273.363636 C61.0520795,273.363636 0,212.311557 0,137 C0,61.6884432 61.0520795,0.636363636 136.363636,0.636363636 C195.73722,0.636363636 246.248086,38.5821659 264.967923,91.5454545 L500,91.5454545 L500,148.363636 L500,205.181818 L454.545455,205.181818 L454.545455,159.727273 L431.818182,159.727273 L431.818182,205.181818 L386.363636,205.181818 L386.363636,159.727273 L386.363636,159.727273 Z M136.363636,227.909091 C186.571341,227.909091 227.272727,187.207705 227.272727,137 C227.272727,86.7922955 186.571341,46.0909091 136.363636,46.0909091 C86.1559318,46.0909091 45.4545455,86.7922955 45.4545455,137 C45.4545455,187.207705 86.1559318,227.909091 136.363636,227.909091 L136.363636,227.909091 Z" id="icon-font_42_Key" fill="#000000" sketch:type="MSShapeGroup"></path>
    </g>
</svg>