<?xml version="1.0" encoding="UTF-8" standalone="no"?>
<svg width="500px" height="500px" viewBox="0 0 500 500" version="1.1" xmlns="http://www.w3.org/2000/svg" xmlns:xlink="http://www.w3.org/1999/xlink" xmlns:sketch="http://www.bohemiancoding.com/sketch/ns">
    <!-- Generator: Sketch Beta 3.3 (11970) - http://www.bohemiancoding.com/sketch -->
    <title>icon-font_34_Unlock</title>
    <desc>Created with Sketch Beta.</desc>
    <defs></defs>
    <g id="Page-1" stroke="none" stroke-width="1" fill="none" fill-rule="evenodd" sketch:type="MSPage">
        <path d="M370.338724,0.00919823022 C369.623208,-0.00418101374 368.727076,0.0359567181 367.997666,0.0359567181 C297.696454,0.0359567181 240.719129,54.9243051 240.719129,122.629969 L240.719129,218.463327 L0,218.463327 L0,500 L350.582153,500 L350.582138,218.463327 L304.407025,218.463327 L304.407025,122.629969 C304.407025,88.8540678 332.937368,61.3931695 367.997666,61.3931695 C369.004946,61.3931695 371.109814,61.3396525 371.109814,61.3396525 C371.109814,61.3396525 372.179615,61.3797903 372.707569,61.3797903 C407.781761,61.3797903 436.312104,88.8406885 436.312104,122.61659 C436.312104,122.61659 436.305157,135.567698 436.305157,152.251615 L457.596977,152.251615 L457.596977,160.085163 L436.305157,179.351274 L436.305157,218.463327 L500,218.463327 L500,122.61659 C500,54.9109258 443.008781,0.0225774742 372.707569,0.0225774742 C371.839224,0.0225774742 371.200122,-0.0175602577 370.338724,0.00919823022 Z" id="icon-font_34_Unlock" fill="#000000" sketch:type="MSShapeGroup"></path>
    </g>
</svg>