<?xml version="1.0" encoding="UTF-8" standalone="no"?>
<svg width="431px" height="500px" viewBox="0 0 431 500" version="1.1" xmlns="http://www.w3.org/2000/svg" xmlns:xlink="http://www.w3.org/1999/xlink" xmlns:sketch="http://www.bohemiancoding.com/sketch/ns">
    <!-- Generator: Sketch Beta 3.3 (11654) - http://www.bohemiancoding.com/sketch -->
    <title>icon-font_09_AddDocument</title>
    <desc>Created with Sketch Beta.</desc>
    <defs></defs>
    <g id="Page-1" stroke="none" stroke-width="1" fill="none" fill-rule="evenodd" sketch:type="MSPage">
        <g id="icon-font_09_AddDocument" sketch:type="MSLayerGroup" fill="#000000" opacity="0.9">
            <path d="M356.469405,0 L0,0 L0,500 L431,500 L431,74.5305953 L356.469405,2.48689958e-14 L356.469405,0 Z M232.076923,241.666667 L232.076923,179.111944 C232.076923,172.291026 226.510617,166.666667 219.644231,166.666667 C212.729973,166.666667 207.211538,172.238607 207.211538,179.111944 L207.211538,241.666667 L144.993649,241.666667 C138.209459,241.666667 132.615385,247.263107 132.615385,254.166667 C132.615385,261.118356 138.157322,266.666667 144.993649,266.666667 L207.211538,266.666667 L207.211538,329.22139 C207.211538,336.042307 212.777844,341.666667 219.644231,341.666667 C226.558488,341.666667 232.076923,336.094726 232.076923,329.22139 L232.076923,266.666667 L294.294813,266.666667 C301.079002,266.666667 306.673077,261.070226 306.673077,254.166667 C306.673077,247.214977 301.131139,241.666667 294.294813,241.666667 L232.076923,241.666667 Z" id="Rectangle-114" sketch:type="MSShapeGroup"></path>
        </g>
    </g>
</svg>