<?xml version="1.0" encoding="UTF-8" standalone="no"?>
<svg width="319px" height="500px" viewBox="0 0 319 500" version="1.1" xmlns="http://www.w3.org/2000/svg" xmlns:xlink="http://www.w3.org/1999/xlink" xmlns:sketch="http://www.bohemiancoding.com/sketch/ns">
    <!-- Generator: Sketch Beta 3.3 (11970) - http://www.bohemiancoding.com/sketch -->
    <title>icon-font_55_Rocket</title>
    <desc>Created with Sketch Beta.</desc>
    <defs></defs>
    <g id="Page-1" stroke="none" stroke-width="1" fill="none" fill-rule="evenodd" sketch:type="MSPage">
        <g id="icon-font_55_Rocket" sketch:type="MSLayerGroup" fill="#000000">
            <g id="Page-1" sketch:type="MSShapeGroup">
                <path d="M159.094348,175.212893 C137.63508,175.212893 120.233811,157.622075 120.233811,135.92905 C120.233811,114.236025 137.63508,96.6452068 159.094348,96.6452068 C180.553618,96.6452068 197.948007,114.236025 197.948007,135.92905 C197.948007,157.622075 180.553618,175.212893 159.094348,175.212893 L159.094348,175.212893 L159.094348,175.212893 Z M236.155136,134.05177 C236.155136,65.9134227 159.025568,0 159.025568,0 C159.025568,0 82.0266818,65.079075 82.0266818,134.05177 L82.0266818,217.069307 L0,288.962218 L0,358.213027 L82.0266818,330.401457 L82.0266818,368.503309 C82.0266818,368.503309 81.4145432,388.458111 158.888009,388.458111 C236.382109,388.458111 236.155136,368.503309 236.155136,368.503309 L236.155136,330.401457 L318.181818,358.213027 L318.181818,288.962218 L236.155136,217.069307 L236.155136,134.05177 L236.155136,134.05177 Z M149.692161,414.670516 C140.193684,418.981309 129.952384,437.476004 137.552543,453.050484 C148.887439,476.342673 172.925948,469.876484 162.498943,493.863964 C152.071939,517.92097 203.354091,465.287575 193.649275,438.657995 C183.387341,410.498779 159.197518,410.290193 149.692161,414.670516 L149.692161,414.670516 L149.692161,414.670516 Z" id="icon-font_55_Rocket"></path>
            </g>
        </g>
    </g>
</svg>