<?xml version="1.0" encoding="UTF-8" standalone="no"?>
<svg width="500px" height="474px" viewBox="0 0 500 474" version="1.1" xmlns="http://www.w3.org/2000/svg" xmlns:xlink="http://www.w3.org/1999/xlink" xmlns:sketch="http://www.bohemiancoding.com/sketch/ns">
    <!-- Generator: Sketch Beta 3.3 (11970) - http://www.bohemiancoding.com/sketch -->
    <title>icon-font_01_Clock</title>
    <desc>Created with Sketch Beta.</desc>
    <defs></defs>
    <g id="Page-1" stroke="none" stroke-width="1" fill="none" fill-rule="evenodd" sketch:type="MSPage">
        <g id="icon-font_01_Clock" sketch:type="MSLayerGroup" transform="translate(0.000000, -1.000000)" fill="#000000">
            <g id="Fill-556-+-Fill-557" sketch:type="MSShapeGroup">
                <path d="M250,0.986842105 C111.930556,0.986842105 0,107.019737 0,237.828947 C0,368.638158 111.930556,474.671053 250,474.671053 C388.069444,474.671053 500,368.638158 500,237.828947 C500,107.019737 388.069444,0.986842105 250,0.986842105 L250,0.986842105 Z M250,422.039474 C142.781893,422.039474 55.5555556,339.410819 55.5555556,237.828947 C55.5555556,136.253899 142.781893,53.6184211 250,53.6184211 C357.218107,53.6184211 444.444444,136.253899 444.444444,237.828947 C444.444444,339.410819 357.218107,422.039474 250,422.039474 L250,422.039474 Z" id="Fill-556"></path>
                <path d="M266.34824,218.855794 L266.34824,115.616148 C266.34824,113.146778 265.32442,110.739765 263.556581,108.987509 C261.782383,107.247725 259.321399,106.25 256.803183,106.25 L231.76092,106.25 C229.236345,106.25 226.794438,107.247725 225.013881,108.987509 C223.239683,110.739765 222.222222,113.146778 222.222222,115.616148 L222.222222,237.531968 C222.222222,240.001339 223.239683,242.414587 225.013881,244.154371 C225.738822,244.859015 226.571869,245.445178 227.474865,245.887919 L332.985586,315.198662 C334.575369,316.227567 336.413159,316.776316 338.276384,316.776316 C338.950452,316.776316 339.630879,316.701486 340.298588,316.558063 C342.829523,316.034257 345.010705,314.525198 346.384278,312.367616 L359.662146,291.546332 C362.383854,287.281056 361.162901,281.656378 356.908642,278.837804 L266.34824,218.855794 Z" id="Fill-557"></path>
            </g>
        </g>
    </g>
</svg>