<?xml version="1.0" encoding="UTF-8" standalone="no"?>
<svg width="401px" height="500px" viewBox="0 0 401 500" version="1.1" xmlns="http://www.w3.org/2000/svg" xmlns:xlink="http://www.w3.org/1999/xlink" xmlns:sketch="http://www.bohemiancoding.com/sketch/ns">
    <!-- Generator: Sketch Beta 3.3 (11970) - http://www.bohemiancoding.com/sketch -->
    <title>icon-font_25_Lock</title>
    <desc>Created with Sketch Beta.</desc>
    <defs></defs>
    <g id="Page-1" stroke="none" stroke-width="1" fill="none" fill-rule="evenodd" sketch:type="MSPage">
        <path d="M348.102033,136.241126 C348.102033,61.0197055 282.909465,0.0355584595 202.504555,0.0355584595 C201.502277,0.0355584595 200.774698,-0.0200016335 199.787269,0.00777841302 C198.978023,-0.00611161023 197.946049,0.0494484827 197.121954,0.0494484827 C116.702196,0.0494484827 51.5393246,61.0405405 51.5393246,136.255016 L51.5393246,218.289494 L0,218.289494 L0,500 L401,500 L401,218.289494 L348.102033,218.289494 L348.102033,136.241126 Z M124.371473,136.255016 C124.371473,98.7311186 157.016015,68.2147375 197.121954,68.2147375 C198.265293,68.2147375 200.678183,68.1591774 200.678183,68.1591774 C200.678183,68.1591774 201.895764,68.2008475 202.504555,68.2008475 C242.610494,68.2008475 275.255036,98.7172286 275.255036,136.241126 L275.255036,218.289494 L124.371473,218.289494 L124.371473,136.255016 L124.371473,136.255016 Z" id="icon-font_25_Lock" fill="#000000" sketch:type="MSShapeGroup"></path>
    </g>
</svg>