<?xml version="1.0" encoding="UTF-8" standalone="no"?>
<svg width="451px" height="482px" viewBox="0 0 451 482" version="1.1" xmlns="http://www.w3.org/2000/svg" xmlns:xlink="http://www.w3.org/1999/xlink" xmlns:sketch="http://www.bohemiancoding.com/sketch/ns">
    <!-- Generator: Sketch Beta 3.3 (11970) - http://www.bohemiancoding.com/sketch -->
    <title>icon-font_27_Lens</title>
    <desc>Created with Sketch Beta.</desc>
    <defs></defs>
    <g id="Page-1" stroke="none" stroke-width="1" fill="none" fill-rule="evenodd" sketch:type="MSPage">
        <path d="M249.862657,325.147068 C226.476872,337.04317 200.005419,343.75 171.966667,343.75 C76.9920992,343.75 0,266.798941 0,171.875 C0,76.9510586 76.9920992,0 171.966667,0 C266.941234,0 343.933333,76.9510586 343.933333,171.875 C343.933333,216.031715 327.272829,256.299235 299.891812,286.740734 L447.364217,434.213139 C451.266846,438.115769 451.268267,444.441762 447.362983,448.347045 L417.280379,478.42965 C413.377068,482.332961 407.050602,482.335013 403.146473,478.430883 L249.862657,325.147068 Z M171.966667,304.6875 C245.356105,304.6875 304.85,245.225318 304.85,171.875 C304.85,98.5246817 245.356105,39.0625 171.966667,39.0625 C98.5772282,39.0625 39.0833333,98.5246817 39.0833333,171.875 C39.0833333,245.225318 98.5772282,304.6875 171.966667,304.6875 Z" id="icon-font_27_Lens" fill="#000000" sketch:type="MSShapeGroup"></path>
    </g>
</svg>