<?xml version="1.0" encoding="UTF-8" standalone="no"?>
<svg width="334px" height="500px" viewBox="0 0 334 500" version="1.1" xmlns="http://www.w3.org/2000/svg" xmlns:xlink="http://www.w3.org/1999/xlink" xmlns:sketch="http://www.bohemiancoding.com/sketch/ns">
    <!-- Generator: Sketch Beta 3.3 (11970) - http://www.bohemiancoding.com/sketch -->
    <title>icon-font_48_Book</title>
    <desc>Created with Sketch Beta.</desc>
    <defs></defs>
    <g id="Page-1" stroke="none" stroke-width="1" fill="none" fill-rule="evenodd" sketch:type="MSPage">
        <path d="M250.333333,170.329509 L292,125 L292,414.416005 L251.605598,458.333333 L251.605598,177.360989 C251.605598,174.882318 251.160305,172.50662 250.333333,170.329509 L250.333333,170.329509 Z M44.1224473,77.1687707 C42.8933025,75.4337348 42.0738725,72.7375638 42.0153418,69.6169956 C41.781219,63.2011074 44.2395088,56.6104674 48.5122505,52.4101826 C67.0079546,34.1923054 92.059098,44.5650741 93.0541201,44.9832303 C93.2297122,45.0581239 93.3467736,45.1205353 93.5223657,45.1829466 L292,124.058428 L249.506705,166.666667 C249.155521,166.46695 248.804337,166.254752 248.394622,166.086241 L44.1224473,77.1687707 L44.1224473,77.1687707 Z M323.847037,98.718816 L96.9819259,6.01556324 C92.4205498,4.03620851 50.2278203,-12.902901 17.0944907,20.6905687 C6.00781252,31.8999671 -0.200727251,48.6029431 0.369444769,65.3753701 C0.432797215,68.2020276 0.749559449,70.959234 1.25637902,73.626154 L1.25637902,383.343082 C1.25637902,390.135394 4.99417338,396.240141 10.8225985,398.726488 L242.692553,498.854058 C244.466422,499.624964 246.366995,500 248.204216,500 C251.181781,500 254.159346,499.03463 256.693444,497.138617 C260.811353,494.054991 263.282098,488.943394 263.282098,483.470652 L263.282098,467.219107 L305.854943,423.346883 C308.515745,427.993158 313.203826,431.11151 318.588784,431.11151 C326.951307,431.11151 333.666667,423.708029 333.666667,414.582162 L333.666667,114.213344 C333.666667,107.302965 329.802167,101.128767 323.847037,98.718816 L323.847037,98.718816 Z" id="icon-font_48_Book" fill="#000000" sketch:type="MSShapeGroup"></path>
    </g>
</svg>