<?xml version="1.0" encoding="UTF-8" standalone="no"?>
<svg width="500px" height="500px" viewBox="0 0 500 500" version="1.1" xmlns="http://www.w3.org/2000/svg" xmlns:xlink="http://www.w3.org/1999/xlink" xmlns:sketch="http://www.bohemiancoding.com/sketch/ns">
    <!-- Generator: Sketch Beta 3.3 (11970) - http://www.bohemiancoding.com/sketch -->
    <title>icon-font_35_Unlock--withEllipsis</title>
    <desc>Created with Sketch Beta.</desc>
    <defs></defs>
    <g id="Page-1" stroke="none" stroke-width="1" fill="none" fill-rule="evenodd" sketch:type="MSPage">
        <path d="M370.338724,0.0102202558 C369.623208,-0.00464557082 368.727076,0.0399519091 367.997666,0.0399519091 C297.696454,0.0399519091 240.719129,61.0270056 240.719129,136.255521 L240.719129,218.292585 L0,218.292585 L0,500 L350.582138,500 L350.582138,218.292585 L304.407025,218.292585 L304.407025,136.255521 C304.407025,98.7267419 332.937368,68.2146328 367.997666,68.2146328 C369.004946,68.2146328 371.109814,68.1551695 371.109814,68.1551695 C371.109814,68.1551695 372.179615,68.199767 372.707569,68.199767 C407.781761,68.199767 436.312104,98.7118761 436.312104,136.240655 C436.312104,136.240655 436.305157,150.630776 436.305157,169.168461 L457.596977,169.168461 L457.596977,177.872403 L436.305157,199.279193 L436.305157,218.292585 L500,218.292585 L500,136.240655 C500,61.0121398 443.008781,0.0250860824 372.707569,0.0250860824 C371.839224,0.0250860824 371.200122,-0.0195113974 370.338724,0.0102202558 Z M100,388.888889 C113.807119,388.888889 125,376.452354 125,361.111111 C125,345.769868 113.807119,333.333333 100,333.333333 C86.1928813,333.333333 75,345.769868 75,361.111111 C75,376.452354 86.1928813,388.888889 100,388.888889 Z M175,388.888889 C188.807119,388.888889 200,376.452354 200,361.111111 C200,345.769868 188.807119,333.333333 175,333.333333 C161.192881,333.333333 150,345.769868 150,361.111111 C150,376.452354 161.192881,388.888889 175,388.888889 Z M250,388.888889 C263.807119,388.888889 275,376.452354 275,361.111111 C275,345.769868 263.807119,333.333333 250,333.333333 C236.192881,333.333333 225,345.769868 225,361.111111 C225,376.452354 236.192881,388.888889 250,388.888889 Z" id="icon-font_35_Unlock--withEllipsis" fill="#000000" sketch:type="MSShapeGroup"></path>
    </g>
</svg>