<?xml version="1.0" encoding="UTF-8" standalone="no"?>
<svg width="500px" height="500px" viewBox="0 0 500 500" version="1.1" xmlns="http://www.w3.org/2000/svg" xmlns:xlink="http://www.w3.org/1999/xlink" xmlns:sketch="http://www.bohemiancoding.com/sketch/ns">
    <!-- Generator: Sketch Beta 3.3 (11970) - http://www.bohemiancoding.com/sketch -->
    <title>icon-font_10_Wizard</title>
    <desc>Created with Sketch Beta.</desc>
    <defs></defs>
    <g id="Page-1" stroke="none" stroke-width="1" fill="none" fill-rule="evenodd" sketch:type="MSPage">
        <path d="M284.880002,142.799437 L0,428.16152 L71.7136183,500 L356.579716,214.637917 L284.880002,142.799437 L284.880002,142.799437 Z M217.497706,242.050061 L284.866097,174.557408 L324.883896,214.644882 L257.508551,282.13057 L217.497706,242.050061 Z M439.625685,83.2741354 L415.86251,59.4626217 L344.538224,130.931985 L368.301399,154.72957 L439.625685,83.2741354 Z M344.545176,297.633474 L415.855558,369.081944 L439.625685,345.277395 L368.308351,273.835889 L344.545176,297.633474 Z M225.659779,130.931985 L154.314636,59.4626217 L130.551461,83.2741354 L201.8827,154.72957 L225.659779,130.931985 Z M301.920242,0.00696446729 L268.291666,0 L268.291666,101.040491 L301.91329,101.05442 L301.920242,0.00696446729 Z M399.121221,232.097837 L500,232.111766 L499.986095,198.431602 L399.107317,198.424637 L399.121221,232.097837 Z" id="icon-font_10_Wizard" fill="#191919" sketch:type="MSShapeGroup"></path>
    </g>
</svg>