<?xml version="1.0" encoding="UTF-8" standalone="no"?>
<svg width="500px" height="500px" viewBox="0 0 500 500" version="1.1" xmlns="http://www.w3.org/2000/svg" xmlns:xlink="http://www.w3.org/1999/xlink" xmlns:sketch="http://www.bohemiancoding.com/sketch/ns">
    <!-- Generator: Sketch Beta 3.3 (11970) - http://www.bohemiancoding.com/sketch -->
    <title>icon-font_41_Anchor</title>
    <desc>Created with Sketch Beta.</desc>
    <defs></defs>
    <g id="Page-1" stroke="none" stroke-width="1" fill="none" fill-rule="evenodd" sketch:type="MSPage">
        <path d="M171.357392,239.916539 C164.234439,243.196617 155.534013,241.980486 149.66887,236.115261 L63.4707195,149.922863 C55.9655597,142.4037 55.9655597,130.172899 63.4707195,122.653736 L122.664193,63.4733389 C130.176302,55.9611255 142.406933,55.9611255 149.912092,63.4733389 L236.117192,149.665738 C242.142167,155.676898 243.240144,164.683215 239.647396,171.903557 L281.050861,213.321496 C306.978409,183.029416 305.665006,137.441886 277.006414,108.775947 L190.808264,22.5835482 C160.690336,-7.52784939 111.885949,-7.52784939 81.7819195,22.5835482 L22.5884462,81.7778442 C-7.52948207,111.882292 -7.52948207,160.694306 22.5884462,190.805704 L108.772698,277.005052 C137.306204,305.532005 182.601233,306.977463 212.892892,281.452616 L171.357392,239.916539 Z M418.221555,477.416452 L477.421978,418.236054 C507.526007,388.117708 507.526007,339.305694 477.421978,309.201245 L391.223827,223.001897 C362.558287,194.335958 316.964441,193.022537 286.672782,218.943495 L328.097095,260.375333 C335.317336,256.754738 344.316579,257.866629 350.341554,263.891688 L436.525806,350.084087 C444.051813,357.60325 444.051813,369.83405 436.525806,377.339314 L377.339282,436.526661 C369.820224,444.045824 357.589593,444.045824 350.084433,436.526661 L263.886283,350.341212 C258.02114,344.475987 256.798076,335.76849 260.085058,328.645439 L218.549558,287.109361 C193.025066,317.401441 194.477453,362.690151 223.00401,391.224053 L309.20216,477.416452 C339.292291,507.527849 388.117525,507.527849 418.221555,477.416452 Z M140.071994,140.478739 C128.779508,151.771381 128.779508,170.075887 140.058095,181.375479 L316.4363,357.749185 C327.742684,369.034879 346.053884,369.055727 357.34637,357.763084 C368.638856,346.470441 368.624957,328.158987 357.332472,316.866344 L180.954267,140.478739 C169.661781,129.186096 151.36448,129.193045 140.071994,140.478739 Z" id="icon-font_41_Anchor" fill="#000000" sketch:type="MSShapeGroup" transform="translate(250.000000, 250.000000) scale(-1, 1) translate(-250.000000, -250.000000) "></path>
    </g>
</svg>