<?xml version="1.0" encoding="UTF-8" standalone="no"?>
<svg width="494px" height="297px" viewBox="0 0 494 297" version="1.1" xmlns="http://www.w3.org/2000/svg" xmlns:xlink="http://www.w3.org/1999/xlink" xmlns:sketch="http://www.bohemiancoding.com/sketch/ns">
    <!-- Generator: Sketch Beta 3.3 (11970) - http://www.bohemiancoding.com/sketch -->
    <title>icon-font_02_Stats</title>
    <desc>Created with Sketch Beta.</desc>
    <defs></defs>
    <g id="Page-1" stroke="none" stroke-width="1" fill="none" fill-rule="evenodd" sketch:type="MSPage">
        <g id="icon-font_02_Stats" sketch:type="MSLayerGroup" fill="#000000">
            <g id="Fill-796-+-Fill-797" sketch:type="MSShapeGroup">
                <path d="M52.2759488,228.685486 L82.2817428,196.667806 L130.061482,252.660529 C136.398109,260.108674 146.952616,263.989862 157.585594,262.766906 C168.189145,261.586413 177.203635,255.446152 181.107625,246.809022 L226.523391,146.52659 L292.351728,280.771543 C296.961967,290.257949 307.634182,296.296296 319.434434,296.296296 C319.983739,296.296296 320.533044,296.296296 321.082349,296.270818 C333.500569,295.642354 344.084502,288.389543 347.625559,278.087833 L410.295391,95.5191125 L437.927402,144.666677 C445.019324,157.320879 462.636325,162.577894 477.251766,156.420647 C491.867207,150.280387 497.978226,135.001923 490.847068,122.373199 L430.13904,14.3283897 C424.812742,4.84198414 413.375424,-0.771725881 401.261283,0.0860422154 C389.117716,0.943810312 378.926143,8.10320145 375.45375,18.209578 L314.510305,195.640183 L252.517295,69.1406203 C247.848201,59.57778 237.019043,53.4629975 225.002992,53.6073743 C213.035987,53.7517511 202.403009,60.1213162 198.037995,69.8030551 L145.746106,185.321487 L107.029902,139.92772 C101.585895,133.575141 93.1599466,129.795865 84.0375575,129.609025 C74.8857413,129.413691 66.2636122,132.861749 60.5155261,139.027488 L6.58553089,196.540415 C-3.66489562,207.470588 -1.73251857,223.521892 10.8720729,232.396819 C23.4864734,241.263254 42.0255223,239.607167 52.2759488,228.685486 Z" id="Fill-797"></path>
            </g>
        </g>
    </g>
</svg>