<?xml version="1.0" encoding="UTF-8" standalone="no"?>
<svg width="500px" height="363px" viewBox="0 0 500 363" version="1.1" xmlns="http://www.w3.org/2000/svg" xmlns:xlink="http://www.w3.org/1999/xlink" xmlns:sketch="http://www.bohemiancoding.com/sketch/ns">
    <!-- Generator: Sketch Beta 3.3 (11970) - http://www.bohemiancoding.com/sketch -->
    <title>icon-font_07_Check</title>
    <desc>Created with Sketch Beta.</desc>
    <defs></defs>
    <g id="Page-1" stroke="none" stroke-width="1" fill="none" fill-rule="evenodd" sketch:type="MSPage">
        <g id="icon-font_07_Check" sketch:type="MSLayerGroup" fill="#000000">
            <path d="M5.84567628,195.19364 L55.8332543,145.881941 C63.6112604,138.203318 76.3477452,138.203318 84.1326959,145.868242 L165.315634,225.76429 C173.100585,233.429214 185.82318,233.415515 193.594242,225.736891 L416.072993,5.78301572 C423.844054,-1.89560824 436.580539,-1.93670703 444.386323,5.71451773 L494.123894,54.4234338 C501.929679,62.0746586 501.964402,74.6097896 494.193341,82.2952634 L224.400701,349.033261 C216.62964,356.711885 201.275022,363 190.2747,363 L166.96846,363 C155.968137,363 140.627409,356.698186 132.863293,349.019562 L5.81095304,223.113418 C-1.9531637,215.434794 -1.93232976,202.858564 5.84567628,195.19364 Z" id="Fill-461" sketch:type="MSShapeGroup"></path>
        </g>
    </g>
</svg>