<?xml version="1.0" encoding="UTF-8" standalone="no"?>
<svg width="500px" height="271px" viewBox="0 0 500 271" version="1.1" xmlns="http://www.w3.org/2000/svg" xmlns:xlink="http://www.w3.org/1999/xlink" xmlns:sketch="http://www.bohemiancoding.com/sketch/ns">
    <!-- Generator: Sketch Beta 3.3 (11970) - http://www.bohemiancoding.com/sketch -->
    <title>icon-font_45_Eye</title>
    <desc>Created with Sketch Beta.</desc>
    <defs></defs>
    <g id="Page-1" stroke="none" stroke-width="1" fill="none" fill-rule="evenodd" sketch:type="MSPage">
        <path d="M250.216251,0.166666667 C114.912942,0.166666667 0,132.672358 0,132.672358 L0,137.668452 C0,137.668452 114.473464,271 249.783749,271 C385.073107,271 500,138.501134 500,138.501134 L500,133.50504 C500,133.50504 385.512584,0.166666667 250.216251,0.166666667 Z M249.351247,218.459111 C203.568838,218.459111 166.464367,182.141877 166.464367,137.35449 C166.464367,92.5602765 203.568838,56.2498677 249.351247,56.2498677 C295.140633,56.2498677 332.252079,92.5602765 332.252079,137.35449 C332.252079,182.141877 295.140633,218.459111 249.351247,218.459111 Z M249.351247,99.7336299 C228.388861,99.7336299 211.402701,116.359975 211.402701,136.86307 C211.402701,157.366166 228.388861,173.992511 249.351247,173.992511 C270.313634,173.992511 287.306769,157.366166 287.306769,136.86307 C287.306769,116.359975 270.313634,99.7336299 249.351247,99.7336299 Z" id="icon-font_45_Eye" opacity="0.9" fill="#000000" sketch:type="MSShapeGroup"></path>
    </g>
</svg>