<?xml version="1.0" encoding="UTF-8" standalone="no"?>
<svg width="500px" height="240px" viewBox="0 0 500 240" version="1.1" xmlns="http://www.w3.org/2000/svg" xmlns:xlink="http://www.w3.org/1999/xlink" xmlns:sketch="http://www.bohemiancoding.com/sketch/ns">
    <!-- Generator: Sketch Beta 3.3 (11970) - http://www.bohemiancoding.com/sketch -->
    <title>icon-font_37_People</title>
    <desc>Created with Sketch Beta.</desc>
    <defs></defs>
    <g id="Page-1" stroke="none" stroke-width="1" fill="none" fill-rule="evenodd" sketch:type="MSPage">
        <path d="M500,219.426794 C500,219.426794 499.881892,207.266757 474.849933,196.19898 C462.72649,190.834462 444.725434,177.015295 418.0747,172.266037 C424.883281,165.014258 430.045298,153.656134 435.353213,140.210272 C438.424022,132.419276 437.902957,125.775845 437.902957,116.325719 C437.902957,109.329723 439.222988,98.1167728 437.486105,91.9503413 C431.601545,71.1282657 416.747721,65.3835297 399.344153,65.3835297 C381.940585,65.3835297 367.065918,71.1559179 361.195253,92.0194717 C359.465318,98.165164 360.799244,109.350462 360.799244,116.325719 C360.799244,125.796584 360.271232,132.467667 363.362884,140.265576 C367.739829,151.333353 371.950033,160.894086 377.05647,167.966126 C406.569586,185.684247 409.334704,205.296541 409.397232,211.511363 L409.397232,239.986174 L500,239.979261 L500,219.426794 Z M90.3804469,211.608146 L90.3804469,211.497537 C90.4499222,205.338019 93.1803024,185.981508 122.088984,168.373995 C127.383004,161.225912 131.739106,151.471613 136.185527,140.210272 C139.256336,132.419276 138.735271,125.775845 138.735271,116.325719 C138.735271,109.329723 140.055302,98.1167728 138.311472,91.9503413 C132.426912,71.1282657 117.580036,65.3835297 100.176467,65.3835297 C82.759004,65.3835297 67.891285,71.1559179 62.0275678,92.0194717 C60.2976323,98.165164 61.6246109,109.350462 61.6246109,116.325719 C61.6246109,125.796584 61.1104936,132.467667 64.1882503,140.265576 C69.5378502,153.787482 74.6164962,165.117954 81.4111827,172.34208 C54.9758226,177.174295 37.1137172,190.896679 25.0528012,196.247372 C0.118108048,207.308235 0,219.426794 0,219.426794 L0,240 L90.3804469,239.986174 L90.3804469,211.608146 Z M353.330647,179.794337 C336.663517,172.425037 311.923355,153.434917 275.302912,146.902094 C284.668186,136.926578 291.754669,121.33076 299.049578,102.845292 C303.273677,92.1369934 302.551134,83.0048679 302.551134,70.0014402 C302.551134,60.399228 304.371387,44.9900625 301.974489,36.5285019 C293.894509,7.9016044 273.482659,0 249.562305,0 C225.628057,0 205.188417,7.9361696 197.12928,36.6045453 C194.746276,45.0522799 196.573477,60.4337932 196.573477,70.0014402 C196.573477,83.0394331 195.857881,92.1922977 200.102823,102.921335 C207.446365,121.503586 214.428635,137.078665 223.766118,147.012703 C187.430525,153.656134 162.877946,172.507993 146.321976,179.856554 C112.042852,195.065242 111.876112,211.711841 111.876112,211.711841 L111.876112,240 L387.901567,239.965435 L387.901567,211.711841 C387.901567,211.711841 387.741774,195.009937 353.330647,179.794337 Z" id="icon-font_37_People" fill="#000000" sketch:type="MSShapeGroup"></path>
    </g>
</svg>