<?xml version="1.0" encoding="UTF-8" standalone="no"?>
<svg width="366px" height="489px" viewBox="0 0 366 489" version="1.1" xmlns="http://www.w3.org/2000/svg" xmlns:xlink="http://www.w3.org/1999/xlink" xmlns:sketch="http://www.bohemiancoding.com/sketch/ns">
    <!-- Generator: Sketch Beta 3.3 (11970) - http://www.bohemiancoding.com/sketch -->
    <title>icon-font_24_CartoFante</title>
    <desc>Created with Sketch Beta.</desc>
    <defs>
        <path d="M159.148401,450.189861 C134.009771,450.189861 132.304105,453.386821 132.304105,453.386821 L138.478668,492.434672 C138.478668,492.434672 143.97522,496.180357 158.33379,496.180357 C172.692359,496.180357 177.374964,492.434672 177.374964,492.434672 L185.833498,453.600196 C185.833498,453.600196 184.287697,450.189861 159.148401,450.189861 M332.428039,160.684646 L331.050079,159.595173 C331.050079,159.595173 333.501226,158.438232 334.833652,157.144026 C337.437684,154.609457 338.952576,151.441745 338.435093,151.792051 C333.965863,154.806546 325.233133,153.338185 325.233133,153.338185 C325.233133,153.338185 328.255605,152.774504 330.044693,151.609918 C332.778345,149.835786 333.570024,147.383642 333.234674,147.619617 C331.050079,149.126865 328.682021,149.569567 327.038174,149.569567 C316.714109,149.600144 315.039353,140.638751 305.476722,140.638751 C301.548572,140.638751 293.287792,144.696521 290.721981,140.669328 C276.652896,106.957499 255.464683,58.2250417 234.809907,8.92857143 C149.517637,26.3627903 111.595818,171.266953 194.528007,197.007486 C149.434215,184.026877 127.606544,139.534322 134.443499,100.866357 C103.571345,111.471598 63.357911,128.031048 31.9529854,166.272596 C13.1324975,189.188743 13.2092724,213.696224 13.2092724,262.185062 C12.2799969,277.093021 0,282.763729 0,282.763729 C0,282.763729 14.6327656,283.373607 19.3070613,275.843019 C39.4596437,310.225216 136.75007,398.676557 136.75007,418.898602 C136.75007,418.898602 133.26296,428.392102 134.328835,428.52139 C143.183873,429.55702 184.402028,431.60568 184.402028,431.60568 C186.19876,424.730836 182.048927,419.902326 182.048927,415.076807 C182.048927,365.878383 251.901464,320.244175 260.109067,314.648913 C263.04014,316.384491 268.148496,317.907027 270.653153,318.996167 C294.170869,329.220524 266.930401,387.150682 242.55254,387.150682 C214.467215,387.150682 258.395757,340.610132 259.279167,339.498724 C262.202595,335.821837 254.231632,339.224195 251.711354,336.773048 C250.17353,335.273113 251.901464,331.261208 248.072024,334.374746 C248.072024,334.374746 189.738715,384.72978 230.987779,399.544013 C309.169562,427.630335 423.536257,246.973992 332.428039,160.684646" id="path-1"></path>
    </defs>
    <g id="Page-1" stroke="none" stroke-width="1" fill="none" fill-rule="evenodd" sketch:type="MSPage">
        <g id="icon-font_24_CartoFante" sketch:type="MSLayerGroup" transform="translate(0.000000, -8.000000)">
            <mask id="mask-2" sketch:name="Rectangle 1476" fill="white">
                <use xlink:href="#path-1"></use>
            </mask>
            <use id="Rectangle-1476" fill="#000000" sketch:type="MSShapeGroup" xlink:href="#path-1"></use>
        </g>
    </g>
</svg>