<?xml version="1.0" encoding="UTF-8" standalone="no"?>
<svg width="501px" height="435px" viewBox="0 0 501 435" version="1.1" xmlns="http://www.w3.org/2000/svg" xmlns:xlink="http://www.w3.org/1999/xlink" xmlns:sketch="http://www.bohemiancoding.com/sketch/ns">
    <!-- Generator: Sketch Beta 3.3 (11970) - http://www.bohemiancoding.com/sketch -->
    <title>icon-font_30_Cockroach</title>
    <desc>Created with Sketch Beta.</desc>
    <defs></defs>
    <g id="Page-1" stroke="none" stroke-width="1" fill="none" fill-rule="evenodd" sketch:type="MSPage">
        <path d="M481.393452,202.557715 L399.762923,202.557715 C397.236479,187.322443 392.787438,172.814585 386.67261,159.350701 L450.895659,105.481691 C455.108713,101.972594 457.551868,96.7931408 457.551868,91.4048928 L457.551868,29.3390106 C457.551868,19.0474568 448.95224,10.7158783 438.37449,10.7158783 C427.768976,10.7158783 419.183229,19.0474568 419.183229,29.3390106 L419.169348,82.8779902 L367.03714,126.596888 C357.556033,114.291476 346.443842,103.51498 334.061488,94.6378416 C335.671749,88.8117984 336.615696,82.7500194 336.615696,76.4794457 C336.615696,34.2423163 297.92084,0 250.161324,0 C202.429572,0 163.727775,34.2423163 163.727775,76.4794457 C163.727775,82.938608 164.741129,89.1822405 166.441621,95.1699311 C154.142556,104.094217 143.106714,114.90439 133.708896,127.243478 L80.8132024,82.8914609 L80.8132024,29.3524812 C80.8132024,19.0474568 72.2135745,10.7226136 61.6219423,10.7226136 C51.0233693,10.7226136 42.4445637,19.0474568 42.4445637,29.3524812 L42.4306821,91.4183634 C42.4306821,96.7931408 44.8668963,101.945653 49.0868913,105.501897 L114.226123,160.125261 C108.291755,173.366881 103.974589,187.612062 101.496731,202.557715 L19.7620905,202.557715 C9.15657676,202.557715 0.577771133,210.875823 0.577771133,221.167376 C0.577771133,231.445459 9.15657676,239.783773 19.7620905,239.783773 L99.2340359,239.783773 C100.011403,257.42355 103.363801,274.322443 108.86784,290.076334 L49.0730098,340.220717 C44.8668963,343.743284 42.4376229,348.916002 42.4376229,354.310986 L42.4376229,416.370132 C42.4376229,426.648216 51.0233693,435 61.6150015,435 C72.227456,435 80.8132024,426.648216 80.8132024,416.370132 L80.8132024,362.817682 L125.810287,325.07974 C153.156965,368.044283 198.855069,396.218085 250.633297,396.218085 C302.126954,396.218085 347.602952,368.340636 374.998216,325.773477 L419.169348,362.817682 L419.169348,416.370132 C419.169348,426.648216 427.762035,435 438.37449,435 C448.959181,435 457.558809,426.648216 457.558809,416.370132 L457.544927,354.310986 C457.544927,348.916002 455.108713,343.743284 450.90954,340.220717 L392.100301,290.898041 C397.770919,274.908415 401.24131,257.733375 402.025618,239.783773 L481.393452,239.783773 C491.998966,239.783773 500.577771,231.445459 500.577771,221.167376 C500.577771,210.875823 491.998966,202.557715 481.393452,202.557715" id="icon-font_30_Cockroach" fill="#000000" sketch:type="MSShapeGroup"></path>
    </g>
</svg>