<?xml version="1.0" encoding="UTF-8" standalone="no"?>
<svg width="494px" height="452px" viewBox="0 0 494 452" version="1.1" xmlns="http://www.w3.org/2000/svg" xmlns:xlink="http://www.w3.org/1999/xlink" xmlns:sketch="http://www.bohemiancoding.com/sketch/ns">
    <!-- Generator: Sketch Beta 3.3 (11970) - http://www.bohemiancoding.com/sketch -->
    <title>icon-font_15_Dropbox</title>
    <desc>Created with Sketch Beta.</desc>
    <defs></defs>
    <g id="Page-1" stroke="none" stroke-width="1" fill="none" fill-rule="evenodd" sketch:type="MSPage">
        <g id="icon-font_15_Dropbox" sketch:type="MSLayerGroup" transform="translate(-3.000000, -2.000000)" fill="#191919">
            <path d="M249.998203,85.6334195 L104.02783,174.543306 L3.92877358,95.4691837 L148.697642,2.2264898 L249.999528,85.6326122 L351.304245,2.2269551 L496.073113,95.469649 L395.96934,174.543771 L249.998203,85.6334195 L249.998203,85.6334195 Z M3.92688679,253.623478 L148.695755,346.866171 L249.997642,263.455396 L104.03066,174.544702 L3.92688679,253.623478 Z M249.997642,263.456792 L351.304245,346.867567 L496.073113,253.624873 L395.96934,174.546098 L249.997642,263.456792 Z M250.29717,281.401322 L148.698113,364.565486 L105.221698,336.563363 L105.221698,367.957567 L250.29717,453.773976 L395.372642,367.957567 L395.372642,336.563363 L351.896226,364.565486 L250.29717,281.401322 Z" id="Fill-1" sketch:type="MSShapeGroup"></path>
        </g>
    </g>
</svg>