<?xml version="1.0" encoding="UTF-8" standalone="no"?>
<svg width="500px" height="264px" viewBox="0 0 500 264" version="1.1" xmlns="http://www.w3.org/2000/svg" xmlns:xlink="http://www.w3.org/1999/xlink" xmlns:sketch="http://www.bohemiancoding.com/sketch/ns">
    <!-- Generator: Sketch Beta 3.3 (11970) - http://www.bohemiancoding.com/sketch -->
    <title>icon-font_52_Points</title>
    <desc>Created with Sketch Beta.</desc>
    <defs></defs>
    <g id="Page-1" stroke="none" stroke-width="1" fill="none" fill-rule="evenodd" sketch:type="MSPage">
        <path d="M368.421053,263.953947 C441.090099,263.953947 500,205.044046 500,132.375 C500,59.705954 441.090099,0.796052632 368.421053,0.796052632 C295.752007,0.796052632 236.842105,59.705954 236.842105,132.375 C236.842105,205.044046 295.752007,263.953947 368.421053,263.953947 L368.421053,263.953947 Z M127.63317,1.705125 C55.7582023,9.39752206 0,64.9667038 0,132.375 C0,199.783296 55.7582023,255.352478 127.63317,263.044875 C82.3654366,234.637206 52.6315789,186.711356 52.6315789,132.375 C52.6315789,78.038644 82.3654366,30.1127937 127.63317,1.705125 L127.63317,1.705125 L127.63317,1.705125 Z M260.159035,263.634862 C256.8029,263.846412 253.415264,263.953947 250,263.953947 C170.064049,263.953947 105.263158,205.044046 105.263158,132.375 C105.263158,59.705954 170.064049,0.796052632 250,0.796052632 C253.415264,0.796052632 256.8029,0.903588319 260.159035,1.11513832 C214.359489,29.4463446 184.210526,77.6606719 184.210526,132.375 C184.210526,187.089328 214.359489,235.303655 260.159035,263.634862 L260.159035,263.634862 L260.159035,263.634862 Z" id="icon-font_52_Points" fill="#000000" sketch:type="MSShapeGroup"></path>
    </g>
</svg>