<?xml version="1.0" encoding="UTF-8" standalone="no"?>
<svg width="194px" height="500px" viewBox="0 0 194 500" version="1.1" xmlns="http://www.w3.org/2000/svg" xmlns:xlink="http://www.w3.org/1999/xlink" xmlns:sketch="http://www.bohemiancoding.com/sketch/ns">
    <!-- Generator: Sketch Beta 3.3 (11970) - http://www.bohemiancoding.com/sketch -->
    <title>icon-font_11_Info</title>
    <desc>Created with Sketch Beta.</desc>
    <defs></defs>
    <g id="Page-1" stroke="none" stroke-width="1" fill="none" fill-rule="evenodd" sketch:type="MSPage">
        <path d="M90.1840513,104.353268 C121.251768,104.353268 144.739923,80.5006954 144.739923,52.1835883 C144.739923,22.3574409 121.251768,0 90.9405933,0 C62.1354326,0 37.127123,22.3574409 37.127123,52.1835883 C37.127123,80.5006954 62.1354326,104.353268 90.1840513,104.353268 Z M144.739923,404.721836 L144.739923,140.994437 C102.317006,152.906815 52.2933158,162.607789 6.82301917,167.823366 L6.82301917,199.756606 C43.2006706,205.716273 48.5035352,207.941586 48.5035352,257.148818 L48.5035352,404.721836 C48.5035352,457.635605 43.9501421,460.625869 0,465.827538 L0,500 L194,500 L194,465.827538 C148.543844,459.88178 144.739923,456.154381 144.739923,404.721836 Z" id="icon-font_11_Info" fill="#000000" sketch:type="MSShapeGroup"></path>
    </g>
</svg>