<?xml version="1.0" encoding="UTF-8" standalone="no"?>
<svg width="500px" height="445px" viewBox="0 0 500 445" version="1.1" xmlns="http://www.w3.org/2000/svg" xmlns:xlink="http://www.w3.org/1999/xlink" xmlns:sketch="http://www.bohemiancoding.com/sketch/ns">
    <!-- Generator: Sketch Beta 3.3 (11970) - http://www.bohemiancoding.com/sketch -->
    <title>icon-font_03_Heart--empty</title>
    <desc>Created with Sketch Beta.</desc>
    <defs></defs>
    <g id="Page-1" stroke="none" stroke-width="1" fill="none" fill-rule="evenodd" sketch:type="MSPage">
        <path d="M249.995,60.3321076 C219.273156,21.4118608 178.380703,0.062455598 134.388063,0.062455598 C69.234154,0.062455598 0,50.9741772 0,145.365404 C0,242.452631 82.7249635,310.216955 143.118587,359.692198 C165.989959,378.460105 182.770966,391.773557 196.411785,402.599194 C217.983079,419.691209 228.803728,428.268445 240.474428,440.353603 C243.00458,442.987147 246.394784,444.444444 249.995,444.444444 C253.595216,444.444444 256.975419,442.997556 259.515571,440.364012 C274.946497,424.385788 288.967338,413.331147 326.509591,383.706375 L356.691401,359.837928 C406.774406,320.22026 500,246.481017 500,144.397343 C500,50.5994436 430.845851,0 365.781947,0 C321.719303,0 280.746845,21.3910423 249.995,60.3321076 Z M335.449209,62.5535757 C286.352693,84.3770831 250.05188,148.854234 250.05188,148.854234 C250.05188,148.854234 161.166382,-14.6253775 72.4273686,88.1181516 C-16.3116451,190.861681 188.54065,324.913196 188.54065,324.913196 L248.968506,373.039415 L327.261345,312.306376 C327.261345,312.306376 507.843006,191.038684 425.22583,83.6961534 C394.32952,52.9330167 362.790298,50.4004024 335.449209,62.5535757 Z" id="icon-font_03_Heart--empty" stroke="#000000" stroke-width="55.5555556" sketch:type="MSShapeGroup"></path>
    </g>
</svg>