<?xml version="1.0" encoding="UTF-8" standalone="no"?>
<svg width="376px" height="500px" viewBox="0 0 376 500" version="1.1" xmlns="http://www.w3.org/2000/svg" xmlns:xlink="http://www.w3.org/1999/xlink" xmlns:sketch="http://www.bohemiancoding.com/sketch/ns">
    <!-- Generator: Sketch Beta 3.3 (11970) - http://www.bohemiancoding.com/sketch -->
    <title>icon-font_49_Notes</title>
    <desc>Created with Sketch Beta.</desc>
    <defs></defs>
    <g id="Page-1" stroke="none" stroke-width="1" fill="none" fill-rule="evenodd" sketch:type="MSPage">
        <path d="M334.77837,33.9082848 L311.980438,33.9082848 L311.980438,19.3751732 C311.980438,8.67276254 303.18715,0 292.343032,0 C281.49189,0 272.698603,8.67276254 272.698603,19.3751732 L272.698603,33.9082848 L207.240584,33.9082848 L207.240584,19.3751732 C207.240584,8.67276254 198.447296,0 187.596155,0 C176.745013,0 167.951726,8.67276254 167.951726,19.3751732 L167.951726,33.9082848 L102.89404,33.9082848 L102.89404,19.3751732 C102.89404,8.67276254 94.0937295,0 83.2496114,0 C72.3984698,0 63.6051823,8.67276254 63.6051823,19.3751732 L63.6051823,33.9082848 L41.2286536,33.9082848 C18.7327271,33.9082848 0.5,51.8911056 0.5,74.071765 L0.5,459.83652 C0.5,482.017179 18.7327271,500 41.2286536,500 L334.77837,500 C357.267273,500 375.5,482.017179 375.5,459.83652 L375.5,74.071765 C375.5,51.8911056 357.267273,33.9082848 334.77837,33.9082848 L334.77837,33.9082848 L334.77837,33.9082848 Z M333.833333,458.333333 L42.1666667,458.333333 L42.1666667,83.3333333 L64.8480662,83.3333333 L64.8480662,96.5007182 C64.8480662,107.066124 73.5534961,115.652656 84.296219,115.652656 C95.0319888,115.652656 103.744372,107.066124 103.744372,96.5007182 L103.744372,83.3333333 L168.152037,83.3333333 L168.152037,96.5007182 C168.152037,107.066124 176.857467,115.652656 187.60019,115.652656 C198.342913,115.652656 207.048343,107.066124 207.048343,96.5007182 L207.048343,83.3333333 L271.852341,83.3333333 L271.852341,96.5007182 C271.852341,107.066124 280.557771,115.652656 291.300494,115.652656 C302.036264,115.652656 310.741694,107.066124 310.741694,96.5007182 L310.741694,83.3333333 L333.833333,83.3333333 L333.833333,458.333333 L333.833333,458.333333 Z M83.8333333,166.666667 L292.166667,166.666667 L292.166667,187.5 L83.8333333,187.5 L83.8333333,166.666667 L83.8333333,166.666667 Z M83.8333333,229.166667 L292.166667,229.166667 L292.166667,250 L83.8333333,250 L83.8333333,229.166667 L83.8333333,229.166667 Z M83.8333333,291.666667 L292.166667,291.666667 L292.166667,312.5 L83.8333333,312.5 L83.8333333,291.666667 L83.8333333,291.666667 Z M83.8333333,375 L292.166667,375 L292.166667,395.833333 L83.8333333,395.833333 L83.8333333,375 L83.8333333,375 Z" id="icon-font_49_Notes" fill="#000000" sketch:type="MSShapeGroup"></path>
    </g>
</svg>