<?xml version="1.0" encoding="UTF-8" standalone="no"?>
<svg width="478px" height="500px" viewBox="0 0 478 500" version="1.1" xmlns="http://www.w3.org/2000/svg" xmlns:xlink="http://www.w3.org/1999/xlink" xmlns:sketch="http://www.bohemiancoding.com/sketch/ns">
    <!-- Generator: Sketch Beta 3.3 (11970) - http://www.bohemiancoding.com/sketch -->
    <title>icon-font_36_Gift</title>
    <desc>Created with Sketch Beta.</desc>
    <defs></defs>
    <g id="Page-1" stroke="none" stroke-width="1" fill="none" fill-rule="evenodd" sketch:type="MSPage">
        <path d="M85.7996374,62.7353566 C86.2147208,52.9989611 92.6485134,44.9395817 95.6924583,42.5626538 C102.887237,36.928711 110.704641,34.1914326 119.559753,34.1914326 C131.112908,34.1914326 144.257215,38.8621305 158.715954,48.0787897 C187.63343,66.5814061 205.620377,104.563744 214.821392,129.448723 C178.709137,124.417675 124.402393,112.373649 99.2206672,88.9023529 C89.9504714,80.2331494 85.4537346,71.4322794 85.7996374,62.7353566 L85.7996374,62.7353566 Z M307.039086,71.293683 C329.038506,56.942028 350.000218,55.3966784 357.955983,55.3966784 C363.490428,55.3966784 367.295359,56.061941 369.370776,56.5886073 C371.446193,62.187901 372.34554,78.8056067 355.603843,94.3769098 C336.925091,111.819264 295.347571,122.67136 264.838941,128.194426 C273.071429,109.206722 286.976722,84.3979706 307.039086,71.293683 L307.039086,71.293683 Z M211.777447,273.46422 L211.777447,459.030911 C211.777447,462.821522 208.733503,465.891431 204.928571,465.891431 L65.9448151,465.891431 C62.139884,465.891431 59.0959391,462.821522 59.0959391,459.030911 L59.0959391,273.46422 C59.0959391,269.673609 62.139884,266.610629 65.9448151,266.610629 L204.928571,266.610629 C208.733503,266.610629 211.777447,269.673609 211.777447,273.46422 L211.777447,273.46422 Z M418.904061,273.46422 L418.904061,459.030911 C418.904061,462.821522 415.860116,465.891431 412.055185,465.891431 L273.071429,465.891431 C269.266497,465.891431 266.222553,462.821522 266.222553,459.030911 L266.222553,273.46422 C266.222553,269.673609 269.266497,266.610629 273.071429,266.610629 L412.055185,266.610629 C415.860116,266.610629 418.904061,269.673609 418.904061,273.46422 L418.904061,273.46422 Z M211.777447,182.0114 L211.777447,214.782513 C211.777447,218.566194 208.733503,221.636104 204.928571,221.636104 L41.3857143,221.636104 C37.6499637,221.636104 34.5368383,218.566194 34.5368383,214.782513 L34.5368383,182.0114 C34.5368383,178.220789 37.6499637,175.157809 41.3857143,175.157809 L204.928571,175.157809 C208.733503,175.157809 211.777447,178.220789 211.777447,182.0114 L211.777447,182.0114 Z M273.071429,175.157809 L436.614286,175.157809 C440.419217,175.157809 443.463162,178.220789 443.463162,182.0114 L443.463162,214.782513 C443.463162,218.566194 440.419217,221.636104 436.614286,221.636104 L273.071429,221.636104 C269.266497,221.636104 266.222553,218.566194 266.222553,214.782513 L266.222553,182.0114 C266.222553,178.220789 269.266497,175.157809 273.071429,175.157809 L273.071429,175.157809 Z M470.651124,142.393625 L341.145105,142.393625 C355.603843,136.288455 368.955693,128.748812 378.917694,119.469784 C402.577447,97.4468196 405.137128,73.5874531 404.583684,61.3286034 C403.961059,47.4966849 398.841697,35.5496771 390.816751,29.3613488 C381.615736,22.195916 366.25765,21.1217941 357.955983,21.1217941 C344.258231,21.1217941 316.931907,23.9145111 288.360334,42.5765134 C266.430094,56.8935193 250.656925,79.9698163 240.072299,100.613747 C227.827339,72.7905239 207.626613,38.7304639 177.117984,19.1883746 C138.930312,-5.22537739 102.472154,-6.23713095 74.5923858,15.5502197 C64.5612038,23.4086343 52.5237854,40.0887085 51.624438,61.2523754 C51.0709935,74.4467506 54.806744,94.293752 75.9068165,113.988297 C88.7052212,125.935305 105.931182,135.200473 124.402393,142.393625 L7.348876,142.393625 C3.61312545,142.393625 0.5,145.456605 0.5,149.240286 L0.5,247.546697 C0.5,251.337308 3.61312545,254.407218 7.348876,254.407218 L25.0591008,254.407218 L25.0591008,493.139479 C25.0591008,496.93009 28.1030457,500 31.9079768,500 L446.161204,500 C449.896954,500 453.01008,496.93009 453.01008,493.139479 L453.01008,254.407218 L470.651124,254.407218 C474.456055,254.407218 477.5,251.337308 477.5,247.546697 L477.5,149.240286 C477.5,145.456605 474.456055,142.393625 470.651124,142.393625 L470.651124,142.393625 Z" id="icon-font_36_Gift" fill="#000000" sketch:type="MSShapeGroup"></path>
    </g>
</svg>