<?xml version="1.0" encoding="UTF-8" standalone="no"?>
<svg width="438px" height="500px" viewBox="0 0 438 500" version="1.1" xmlns="http://www.w3.org/2000/svg" xmlns:xlink="http://www.w3.org/1999/xlink" xmlns:sketch="http://www.bohemiancoding.com/sketch/ns">
    <!-- Generator: Sketch Beta 3.3 (11970) - http://www.bohemiancoding.com/sketch -->
    <title>icon-font_12_Fork</title>
    <desc>Created with Sketch Beta.</desc>
    <defs></defs>
    <g id="Page-1" stroke="none" stroke-width="1" fill="none" fill-rule="evenodd" sketch:type="MSPage">
        <path d="M335.831329,0 L233.946804,115.399586 L296.371476,115.399586 L296.371476,173.916065 L296.371476,174.249691 C296.371476,183.327078 292.058286,195.928382 281.202455,211.574016 C270.397625,227.275255 253.62573,245.096404 233.983233,263.508348 C229.145466,268.102645 224.125555,272.724745 219.003643,277.374647 C213.867159,272.724745 208.854534,268.102645 204.016767,263.508348 C184.381556,245.096404 167.602375,227.275255 156.804831,211.574016 C145.941714,195.928382 141.63581,183.327078 141.63581,174.249691 L141.63581,173.916065 L141.63581,115.399586 L204.060482,115.399586 L102.175957,0 L0,115.399586 L64.1222616,115.399586 L64.1222616,173.916065 C64.5885523,213.631372 85.1854883,245.860962 109.286891,274.497129 C125.155347,293.034183 143.508259,310.758024 162.36389,327.953626 L163.165328,327.953626 L163.165328,500 L276.83098,500 L276.83098,326.841542 C295.264035,309.993467 313.187085,292.638003 328.713109,274.497129 C352.821797,245.860962 373.411448,213.631372 373.885024,173.916065 L373.885024,115.399586 L438,115.399586 L335.831329,0" id="icon-font_12_Fork" fill="#000000" sketch:type="MSShapeGroup"></path>
    </g>
</svg>