<?xml version="1.0" encoding="UTF-8" standalone="no"?>
<svg width="501px" height="500px" viewBox="0 0 501 500" version="1.1" xmlns="http://www.w3.org/2000/svg" xmlns:xlink="http://www.w3.org/1999/xlink" xmlns:sketch="http://www.bohemiancoding.com/sketch/ns">
    <!-- Generator: Sketch Beta 3.3 (11970) - http://www.bohemiancoding.com/sketch -->
    <title>icon-font_33_Wifi</title>
    <desc>Created with Sketch Beta.</desc>
    <defs></defs>
    <g id="Page-1" stroke="none" stroke-width="1" fill="none" fill-rule="evenodd" sketch:type="MSPage">
        <g id="icon-font_33_Wifi" sketch:type="MSLayerGroup" transform="translate(0.577771, 0.000000)" fill="#000000">
            <g id="Page-1" sketch:type="MSShapeGroup">
                <g id="wifi-icon">
                    <path d="M0,172.666243 L0,268.426941 C62.482642,268.426941 121.202022,292.710722 165.340499,336.837307 C208.972116,380.445894 233.197245,438.295991 233.822141,500 L330.083875,500 C328.764651,319.28751 181.22674,172.666243 0,172.666243 L0,172.666243 Z M0,0 L0,95.746885 C221.796368,95.746885 402.356551,275.554604 403.731322,497.07158 L500,497.07158 C498.618286,222.74636 274.891684,0 0,0 L0,0 Z M66.669444,366.052436 C29.8491918,366.052436 0,395.737216 0,432.363179 C0,469.009862 29.8491918,498.687736 66.669444,498.687736 C103.482753,498.687736 133.359718,469.009862 133.359718,432.363179 C133.359718,395.737216 103.482753,366.052436 66.669444,366.052436 L66.669444,366.052436 Z" id="Fill-410"></path>
                </g>
            </g>
        </g>
    </g>
</svg>