<?xml version="1.0" encoding="UTF-8" standalone="no"?>
<svg width="500px" height="170px" viewBox="0 0 500 170" version="1.1" xmlns="http://www.w3.org/2000/svg" xmlns:xlink="http://www.w3.org/1999/xlink" xmlns:sketch="http://www.bohemiancoding.com/sketch/ns">
    <!-- Generator: Sketch Beta 3.3 (11970) - http://www.bohemiancoding.com/sketch -->
    <title>icon-font_47_ProgressBar</title>
    <desc>Created with Sketch Beta.</desc>
    <defs></defs>
    <g id="Page-1" stroke="none" stroke-width="1" fill="none" fill-rule="evenodd" sketch:type="MSPage">
        <g id="icon-font_47_ProgressBar" sketch:type="MSLayerGroup" transform="translate(8.000000, 7.000000)">
            <g id="Page-1" sketch:type="MSShapeGroup">
                <g id="Imported-Layers">
                    <path d="M0,77.78 C0,35.297 33.338888,0.857 74.465336,0.857 L409.534664,0.857 C450.661112,0.857 484,35.287 484,77.78 C484,120.264 450.66208,154.703 409.534664,154.703 L74.465336,154.703 C33.338888,154.703 0,120.273 0,77.78 L0,77.78 L0,77.78 Z" id="Stroke-1" stroke="#0B0B0A" stroke-width="15"></path>
                    <path d="M37.230248,78.78 C37.230248,57.538 53.900176,40.318 74.454688,40.318 L279.237992,40.318 C299.795408,40.318 316.461464,57.534 316.461464,78.78 C316.461464,100.022 299.791536,117.242 279.237992,117.242 L74.454688,117.242 C53.896304,117.242 37.230248,100.026 37.230248,78.78" id="Fill-2" fill="#0C0D0B"></path>
                </g>
            </g>
        </g>
    </g>
</svg>