<?xml version="1.0" encoding="UTF-8" standalone="no"?>
<svg width="2648px" height="471px" viewBox="0 0 2648 471" version="1.1" xmlns="http://www.w3.org/2000/svg" xmlns:xlink="http://www.w3.org/1999/xlink" xmlns:sketch="http://www.bohemiancoding.com/sketch/ns">
    <!-- Generator: Sketch Beta 3.3 (11970) - http://www.bohemiancoding.com/sketch -->
    <title>icon-font_26_CartoDB</title>
    <desc>Created with Sketch Beta.</desc>
    <defs></defs>
    <g id="Page-1" stroke="none" stroke-width="1" fill="none" fill-rule="evenodd" sketch:type="MSPage">
        <g id="icon-font_26_CartoDB" sketch:type="MSLayerGroup" fill="#000000">
            <path d="M201.711958,463.718579 C286.796624,463.718579 331.37377,423.179965 355.634396,378.50297 L292.655138,344.092254 C276.318056,375.599301 241.348278,400.681188 201.711958,400.681188 C130.596236,400.681188 79.2884466,346.420035 79.2884466,272.905766 C79.2884466,199.409202 130.596236,145.105183 201.711958,145.105183 C241.348278,145.105183 276.318056,170.230868 292.655138,201.736983 L355.634396,166.728014 C331.37377,121.604659 286.796624,82.0910891 201.711958,82.0910891 C84.5491152,82.0910891 0.0585758427,152.725917 0.0585758427,272.905766 C0.0585758427,392.505067 84.5491152,463.718579 201.711958,463.718579" id="Fill-3" sketch:type="MSShapeGroup"></path>
            <path d="M518.05498,76.2846826 L373.929584,465.893535 L464.213553,465.893535 L487.767551,400.104368 L648.164944,400.104368 L671.720801,465.893535 L762.026154,465.893535 L762.026154,463.439953 L617.879374,76.2846826 L518.05498,76.2846826 L518.05498,76.2846826 Z M509.641444,334.336634 L567.956949,164.894118 L626.29384,334.336634 L509.641444,334.336634 L509.641444,334.336634 Z" id="Fill-4" sketch:type="MSShapeGroup"></path>
            <path d="M1023.57008,328.359697 C1062.67178,319.777286 1103.39315,281.997903 1103.39315,203.848573 C1103.39315,122.157251 1056.71006,76.2846826 977.097124,76.2846826 L794.337705,76.2846826 L794.337705,465.893535 L875.098916,465.893535 L875.098916,334.336634 L937.077736,334.336634 L1015.81762,465.893535 L1105.65343,465.893535 L1023.57008,328.359697 L1023.57008,328.359697 Z M965.170896,273.609319 L875.098916,273.609319 L875.098916,142.072918 L964.468916,142.072918 C997.84134,142.072918 1024.14375,166.451252 1024.14375,205.899592 C1024.14375,246.778334 998.54425,273.609319 965.170896,273.609319 L965.170896,273.609319 Z" id="Fill-5" sketch:type="MSShapeGroup"></path>
            <path d="M1326.49552,465.893535 L1329.50055,463.140827 L1329.50055,142.072918 L1445.6174,142.072918 L1445.6174,76.2846826 L1137.64421,76.2846826 L1137.64421,142.072918 L1248.7161,142.072918 L1248.7161,465.893535 L1326.49552,465.893535" id="Fill-6" sketch:type="MSShapeGroup"></path>
            <path d="M1915.13718,76.2846826 L1915.13718,465.893535 L2070.29901,465.893535 C2194.52814,465.893535 2273.78126,391.160396 2273.78126,267.074199 C2273.78126,144.252533 2194.52814,76.2846826 2069.6993,76.2846826 L1915.13718,76.2846826 Z M2069.6993,400.104368 L1995.92442,400.104368 L1995.92442,142.072918 L2068.7844,142.072918 C2150.01515,142.072918 2194.52814,197.9788 2194.52814,269.828771 C2194.52814,339.864415 2148.54703,400.104368 2069.6993,400.104368 L2069.6993,400.104368 Z" id="Fill-7" sketch:type="MSShapeGroup"></path>
            <path d="M2577.68388,270.62085 C2602.96633,264.06523 2631.39886,227.587653 2631.39886,170.3576 C2631.39886,117.120559 2595.87494,76.2846826 2524.90798,76.2846826 L2324.08582,76.2846826 L2324.08582,465.893535 L2538.43249,465.893535 C2611.5714,465.893535 2647.65133,423.649621 2647.65133,365.396389 C2647.65133,312.670938 2617.04685,276.169132 2577.68388,270.62085 L2577.68388,270.62085 Z M2404.8712,142.072918 L2508.01954,142.072918 C2535.81331,142.072918 2552.14947,162.075248 2552.14947,190.358998 C2552.14947,220.006989 2534.76825,238.195923 2506.95588,238.195923 L2404.8712,238.195923 L2404.8712,142.072918 L2404.8712,142.072918 Z M2516.41169,400.95795 L2510.42394,400.104368 L2404.8712,400.104368 L2404.8712,303.983227 L2511.49039,303.983227 C2551.12671,303.983227 2568.40008,325.565987 2568.40008,352.246942 C2568.40008,382.75131 2548.84597,400.95795 2516.41169,400.95795 L2516.41169,400.95795 Z" id="Fill-8" sketch:type="MSShapeGroup"></path>
            <path d="M1581.92803,0.379266162 L1743.49601,0.379266162 L1743.49601,50.990332 L1581.92803,50.990332 L1581.92803,0.379266162 Z" id="Fill-9" sketch:type="MSShapeGroup"></path>
            <path d="M1665.22288,470.95166 C1772.58775,470.95166 1859.61472,383.731625 1859.61472,276.148631 C1859.61472,168.565638 1772.58775,81.3446709 1665.22288,81.3446709 C1557.88032,81.3446709 1470.85522,168.565638 1470.85522,276.148631 C1470.85522,383.731625 1557.88032,470.95166 1665.22288,470.95166 L1665.22288,470.95166 Z M1665.22288,147.132906 C1736.34046,147.132906 1793.96979,204.896913 1793.96979,276.148631 C1793.96979,347.403145 1736.34046,405.161561 1665.22288,405.161561 C1594.13226,405.161561 1536.49921,347.403145 1536.49921,276.148631 C1536.49921,204.896913 1594.13226,147.132906 1665.22288,147.132906 L1665.22288,147.132906 Z" id="Fill-10" sketch:type="MSShapeGroup"></path>
            <path d="M1605.50155,348.577286 L1670.65556,310.770879 C1679.11093,305.86092 1690.03579,294.931159 1694.93478,286.478276 L1732.73851,221.268725 C1737.65888,212.81491 1734.74125,209.914036 1726.30726,214.8212 L1661.13466,252.66954 C1652.67928,257.577635 1641.75442,268.504601 1636.85358,276.958416 L1599.04798,342.128829 C1594.15272,350.583576 1597.04711,353.48445 1605.50155,348.577286 L1605.50155,348.577286 Z M1666.58779,266.798369 C1674.807,266.798369 1681.47535,273.478858 1681.47535,281.719278 C1681.47535,289.939196 1674.807,296.619685 1666.58779,296.619685 C1658.34533,296.619685 1651.68163,289.939196 1651.68163,281.719278 C1651.68163,273.478858 1658.34533,266.798369 1666.58779,266.798369 L1666.58779,266.798369 Z" id="Fill-11" sketch:type="MSShapeGroup"></path>
        </g>
    </g>
</svg>