<?xml version="1.0" encoding="UTF-8" standalone="no"?>
<svg width="500px" height="350px" viewBox="0 0 500 350" version="1.1" xmlns="http://www.w3.org/2000/svg" xmlns:xlink="http://www.w3.org/1999/xlink" xmlns:sketch="http://www.bohemiancoding.com/sketch/ns">
    <!-- Generator: Sketch Beta 3.3 (11970) - http://www.bohemiancoding.com/sketch -->
    <title>icon-font_16_Cloud</title>
    <desc>Created with Sketch Beta.</desc>
    <defs></defs>
    <g id="Page-1" stroke="none" stroke-width="1" fill="none" fill-rule="evenodd" sketch:type="MSPage">
        <path d="M439.339231,159.006882 C439.512825,156.016925 439.783632,153.040973 439.783632,150.002001 C439.783632,67.1584907 373.192884,0 291.034205,0 C231.796909,0 180.794923,35.0042013 156.873637,85.5463748 C145.270599,76.4714709 130.737289,71.0167254 114.919383,71.0167254 C77.0272335,71.0167254 46.3010541,102.001641 46.3010541,140.212868 C46.3010541,147.390165 47.3912259,154.322383 49.404919,160.827465 C19.8661241,178.543134 0,210.956506 0,248.138404 C0,303.722191 44.2665296,348.809619 99.1848015,349.663892 L99.1848015,349.726913 L100.358298,349.726913 C100.497174,349.726913 100.629106,349.747919 100.761037,349.747919 C100.899913,349.747919 101.0249,349.726913 101.163776,349.726913 L396.155929,349.726913 C397.947422,349.817942 399.718083,350 401.530407,350 C455.920952,350 500,305.542774 500,250.701224 C500,209.366997 474.953824,173.956666 439.339231,159.006882 Z M141.304348,240.625 C159.313633,240.625 173.913043,225.934343 173.913043,207.8125 C173.913043,189.690657 159.313633,175 141.304348,175 C123.295063,175 108.695652,189.690657 108.695652,207.8125 C108.695652,225.934343 123.295063,240.625 141.304348,240.625 Z M250,240.625 C268.009285,240.625 282.608696,225.934343 282.608696,207.8125 C282.608696,189.690657 268.009285,175 250,175 C231.990715,175 217.391304,189.690657 217.391304,207.8125 C217.391304,225.934343 231.990715,240.625 250,240.625 Z M358.695652,240.625 C376.704937,240.625 391.304348,225.934343 391.304348,207.8125 C391.304348,189.690657 376.704937,175 358.695652,175 C340.686367,175 326.086957,189.690657 326.086957,207.8125 C326.086957,225.934343 340.686367,240.625 358.695652,240.625 Z" id="icon-font_16_Cloud" fill="#191919" sketch:type="MSShapeGroup"></path>
    </g>
</svg>