<?xml version="1.0" encoding="UTF-8" standalone="no"?>
<svg width="500px" height="500px" viewBox="0 0 500 500" version="1.1" xmlns="http://www.w3.org/2000/svg" xmlns:xlink="http://www.w3.org/1999/xlink" xmlns:sketch="http://www.bohemiancoding.com/sketch/ns">
    <!-- Generator: Sketch Beta 3.3 (11970) - http://www.bohemiancoding.com/sketch -->
    <title>icon-font_05_Alert</title>
    <desc>Created with Sketch Beta.</desc>
    <defs></defs>
    <g id="Page-1" stroke="none" stroke-width="1" fill="none" fill-rule="evenodd" sketch:type="MSPage">
        <g id="icon-font_05_Alert" sketch:type="MSLayerGroup" fill="#000000">
            <path d="M297.154905,66.6666667 C298.99743,61.4536846 300,55.8439237 300,50 C300,22.3857625 277.614237,0 250,0 C222.385763,0 200,22.3857625 200,50 C200,55.8439237 201.00257,61.4536846 202.845095,66.6666667 L200.078983,66.6666667 C126.397395,66.6666667 66.6666667,126.394061 66.6666667,200.078983 L66.6666667,366.666667 L33.3333333,366.666667 L0,433.333333 L166.666667,433.333333 C166.666667,470.152317 203.976271,500 250,500 C296.023729,500 333.333333,470.152317 333.333333,433.333333 L500,433.333333 L466.666667,366.666667 L433.333333,366.666667 L433.333333,200.078983 C433.333333,126.397395 373.605939,66.6666667 299.921017,66.6666667 L297.154905,66.6666667 Z M250,66.6666667 C259.204746,66.6666667 266.666667,59.2047458 266.666667,50 C266.666667,40.7952542 259.204746,33.3333333 250,33.3333333 C240.795254,33.3333333 233.333333,40.7952542 233.333333,50 C233.333333,59.2047458 240.795254,66.6666667 250,66.6666667 Z" id="Oval-27" sketch:type="MSShapeGroup"></path>
        </g>
    </g>
</svg>