<?xml version="1.0" encoding="UTF-8" standalone="no"?>
<svg width="500px" height="347px" viewBox="0 0 500 347" version="1.1" xmlns="http://www.w3.org/2000/svg" xmlns:xlink="http://www.w3.org/1999/xlink" xmlns:sketch="http://www.bohemiancoding.com/sketch/ns">
    <!-- Generator: Sketch Beta 3.3 (11970) - http://www.bohemiancoding.com/sketch -->
    <title>icon-font_56_Barometer</title>
    <desc>Created with Sketch Beta.</desc>
    <defs></defs>
    <g id="Page-1" stroke="none" stroke-width="1" fill="none" fill-rule="evenodd" sketch:type="MSPage">
        <g id="icon-font_56_Barometer" sketch:type="MSLayerGroup" fill="#000000">
            <g id="Page-1" sketch:type="MSShapeGroup">
                <path d="M396.903693,214.847327 L480.943616,192.474477 C477.19252,175.799061 471.709078,159.748973 464.73077,144.602136 L396.903693,214.847327 L396.903693,214.847327 Z M323.418539,145.852792 L407.255886,65.8107955 C363.339424,25.5118723 304.753866,0.846153046 240.433385,0.846153046 C123.129556,0.846153046 24.7907635,82.764134 0,192.057592 L112.092812,221.934379 C123.47882,161.763919 176.678723,116.114967 240.433385,116.114967 C271.944001,116.114967 300.835116,127.301392 323.418539,145.852792 L323.418539,145.852792 L323.418539,145.852792 Z M497.065636,44.2022358 C493.20279,40.3807858 486.978905,40.3113051 483.046174,44.0632724 L254.299174,262.441744 C249.947347,261.052127 245.309116,260.218356 240.475308,260.218356 C216.390049,260.218356 196.852216,279.603527 196.852216,303.574436 C196.852216,313.093321 199.925741,321.778433 205.094849,328.934965 C208.119475,333.103819 211.835645,336.716827 216.117624,339.565544 C223.074964,344.290244 231.457308,347 240.475308,347 C264.560558,347 284.084405,327.545348 284.084405,303.574436 C284.084405,296.556865 282.352058,289.8867 279.334424,283.980823 L497.212328,58.0984147 C500.984386,54.2074839 500.92152,48.0236839 497.065636,44.2022358 L497.065636,44.2022358 L497.065636,44.2022358 Z" id="icon-font_56_Barometer"></path>
            </g>
        </g>
    </g>
</svg>