<?xml version="1.0" encoding="UTF-8" standalone="no"?>
<svg width="334px" height="500px" viewBox="0 0 334 500" version="1.1" xmlns="http://www.w3.org/2000/svg" xmlns:xlink="http://www.w3.org/1999/xlink" xmlns:sketch="http://www.bohemiancoding.com/sketch/ns">
    <!-- Generator: Sketch Beta 3.3 (11970) - http://www.bohemiancoding.com/sketch -->
    <title>icon-font_46_Marker</title>
    <desc>Created with Sketch Beta.</desc>
    <defs></defs>
    <g id="Page-1" stroke="none" stroke-width="1" fill="none" fill-rule="evenodd" sketch:type="MSPage">
        <path d="M166.645805,0.00926271734 C165.719531,-0.00727784934 164.567948,0.0588844174 163.633329,0.0588844174 C73.2507197,0.0588844174 0,73.631325 0,162.247411 C0,250.880038 166.704218,500 166.704218,500 C166.704218,500 333.333333,250.574037 333.333333,162.23087 C333.333333,73.8877038 260.065924,0.0423438507 169.683315,0.0423438507 C168.56511,0.0423438507 167.747319,-0.023818416 166.645805,0.00926271734 Z M166.278633,222.256587 C124.880043,222.256587 91.308883,188.993507 91.308883,147.964632 C91.308883,106.935756 124.880043,73.6644061 166.278633,73.6644061 C207.685568,73.6644061 241.248383,106.935756 241.248383,147.964632 C241.248383,188.993507 207.685568,222.256587 166.278633,222.256587 L166.278633,222.256587 Z" id="icon-font_46_Marker" opacity="0.9" fill="#000000" sketch:type="MSShapeGroup"></path>
    </g>
</svg>