<?xml version="1.0" encoding="UTF-8" standalone="no"?>
<svg width="500px" height="465px" viewBox="0 0 500 465" version="1.1" xmlns="http://www.w3.org/2000/svg" xmlns:xlink="http://www.w3.org/1999/xlink" xmlns:sketch="http://www.bohemiancoding.com/sketch/ns">
    <!-- Generator: Sketch Beta 3.3.1 (11988) - http://www.bohemiancoding.com/sketch -->
    <title>icon-font_58_Outside</title>
    <desc>Created with Sketch Beta.</desc>
    <defs></defs>
    <g id="Page-1" stroke="none" stroke-width="1" fill="none" fill-rule="evenodd" sketch:type="MSPage">
        <path d="M337.54162,398.969112 C337.54162,407.136141 330.188679,414.043709 321.448391,414.043709 L70.5466149,414.043709 C61.8063263,414.043709 54.4533851,407.136141 54.4533851,398.969112 L54.4533851,164.183244 C54.4533851,155.996738 61.8063263,149.089171 70.5466149,149.089171 L202.760821,149.089171 L257.144839,98.1393715 L70.5466149,98.1393715 C31.7702553,98.1393715 0,127.853596 0,164.183244 L0,398.969112 C0,435.279284 31.7702553,465 70.5466149,465 L321.448391,465 C360.22475,465 391.995006,435.279284 391.995006,398.969112 L391.995006,224.319328 L337.54162,275.262636 L337.54162,398.969112 Z M247.36404,17.9622535 L327.830189,93.3222523 L180.355161,231.382705 L253.537736,299.913042 L401.082131,161.865573 L481.617647,237.225572 L500,0.758256496 L247.36404,17.9622535 Z" id="icon-font_58_Outside" fill="#000000" sketch:type="MSShapeGroup"></path>
    </g>
</svg>