<?xml version="1.0" encoding="UTF-8" standalone="no"?>
<svg width="413px" height="500px" viewBox="0 0 413 500" version="1.1" xmlns="http://www.w3.org/2000/svg" xmlns:xlink="http://www.w3.org/1999/xlink" xmlns:sketch="http://www.bohemiancoding.com/sketch/ns">
    <!-- Generator: Sketch Beta 3.3 (11970) - http://www.bohemiancoding.com/sketch -->
    <title>icon-font_32_Trash</title>
    <desc>Created with Sketch Beta.</desc>
    <defs></defs>
    <g id="Page-1" stroke="none" stroke-width="1" fill="none" fill-rule="evenodd" sketch:type="MSPage">
        <g id="icon-font_32_Trash" sketch:type="MSLayerGroup" transform="translate(0.577771, 0.000000)" fill="#000000">
            <g id="Fill-695" sketch:type="MSShapeGroup">
                <path d="M388.222222,113.636364 C387.276054,100.077855 379.737006,96.0600036 365.444444,90.9090909 L319.888889,90.9090909 L319.888889,68.1818182 C329.936129,51.9679128 326.511188,43.723672 319.888889,45.4545455 L297.111111,0 C286.135861,3.41308791 277.86588,0 274.333333,0 L137.666667,0 C133.551931,0 125.281951,3.41308791 114.888889,0 L92.1111111,45.4545455 C87.2525695,41.401938 83.827628,49.6531302 92.1111111,45.4545455 L92.1111111,90.9090909 L46.5555556,90.9090909 C32.1611322,96.0600036 24.6151228,100.077855 23.7777778,113.636364 L1,136.363636 C-0.751720479,137.760848 1.3923486,141.778698 1,136.363636 L46.5555556,136.363636 L46.5555556,500 C38.9970927,495.161896 43.8351706,500 46.5555556,500 L365.444444,500 C370.394991,500 375.24003,495.161896 365.444444,500 L365.444444,136.363636 L411,136.363636 C410.603248,141.994189 412.747317,137.976338 411,136.363636 L388.222222,113.636364 Z M137.666667,68.1818182 C137.666667,66.2293668 141.157063,58.9184528 137.666667,45.4545455 L137.666667,45.4545455 C153.174812,48.4786893 161.595748,45.4545455 160.444444,45.4545455 L251.555556,45.4545455 C248.034755,45.4545455 256.448597,48.4786893 251.555556,45.4545455 L274.333333,68.1818182 C270.842937,60.9756098 274.333333,68.2803646 274.333333,68.1818182 L274.333333,90.9090909 C274.333333,89.5417591 274.219824,90.2439024 274.333333,90.9090909 L137.666667,90.9090909 C137.780176,90.2439024 137.666667,89.5417591 137.666667,90.9090909 L137.666667,68.1818182 Z M319.888889,454.545455 C319.888889,449.633085 314.972706,454.545455 319.888889,454.545455 L92.1111111,454.545455 C97.0272939,454.545455 92.1111111,449.633085 92.1111111,454.545455 L92.1111111,136.363636 C92.1111111,141.268948 97.0272939,136.363636 92.1111111,136.363636 L319.888889,136.363636 C315.439567,136.907103 319.888889,141.565384 319.888889,136.363636 L319.888889,454.545455 Z"></path>
            </g>
            <path d="M137.666667,159.090909 C121.265749,159.090909 114.888889,164.299735 114.888889,159.090909 L114.888889,431.818182 C114.888889,426.624302 121.265749,431.818182 137.666667,431.818182 C154.058409,431.818182 160.444444,426.624302 160.444444,431.818182 L160.444444,159.090909 C160.444444,164.299735 154.058409,159.090909 137.666667,159.090909 L224.056116,253.124981" id="Fill-696" sketch:type="MSShapeGroup"></path>
            <path d="M206,431.818182 L206,431.818182 C222.399633,431.818182 228.777778,426.624302 228.777778,431.818182 L228.777778,159.090909 C228.777778,164.299735 222.399633,159.090909 206,159.090909 L206,159.090909 C189.600367,159.090909 183.222222,164.299735 183.222222,159.090909 L183.222222,431.818182 C183.222222,426.624302 189.600367,431.818182 206,431.818182" id="Fill-697" sketch:type="MSShapeGroup"></path>
            <path d="M274.333333,431.818182 L274.333333,431.818182 C290.732966,431.818182 297.111111,426.624302 297.111111,431.818182 L297.111111,159.090909 C297.111111,164.299735 290.732966,159.090909 274.333333,159.090909 L274.333333,159.090909 C257.9337,159.090909 251.555556,164.299735 251.555556,159.090909 L251.555556,431.818182 C251.555556,426.624302 257.9337,431.818182 274.333333,431.818182" id="Fill-698" sketch:type="MSShapeGroup"></path>
        </g>
    </g>
</svg>