<?xml version="1.0" encoding="UTF-8" standalone="no"?>
<svg width="500px" height="308px" viewBox="0 0 500 308" version="1.1" xmlns="http://www.w3.org/2000/svg" xmlns:xlink="http://www.w3.org/1999/xlink" xmlns:sketch="http://www.bohemiancoding.com/sketch/ns">
    <!-- Generator: Sketch Beta 3.3 (11970) - http://www.bohemiancoding.com/sketch -->
    <title>icon-font_57_Dollar</title>
    <desc>Created with Sketch Beta.</desc>
    <defs></defs>
    <g id="Page-1" stroke="none" stroke-width="1" fill="none" fill-rule="evenodd" sketch:type="MSPage">
        <g id="icon-font_57_Dollar" sketch:type="MSLayerGroup" transform="translate(0.000000, 0.307692)" fill="#000000">
            <path d="M250.006922,62.8218603 C301.960187,62.8218603 344.084831,103.57027 344.084831,153.847847 C344.084831,204.125425 301.960187,244.873834 250.006922,244.873834 C198.039813,244.873834 155.915169,204.125425 155.915169,153.847847 C155.915169,103.57027 198.039813,62.8218603 250.006922,62.8218603 L250.006922,62.8218603 Z M0,3.905754 L0,286.077608 C0,286.077608 102.155375,258.775839 250.006922,293.87907 C397.844625,328.995694 500,286.077608 500,286.077608 L500,3.905754 C500,3.905754 393.823196,50.7145268 250.006922,19.5086783 C106.183726,-11.7105633 0,3.905754 0,3.905754 L0,3.905754 Z" id="Fill-460" sketch:type="MSShapeGroup"></path>
            <path d="M243.190806,122.769345 L243.190806,147.692603 C239.370822,146.168939 231.422909,142.959518 231.422909,134.692829 C231.422909,125.674032 239.722759,123.527935 243.190806,122.769345 L243.190806,122.769345 Z M251.490657,169.108192 C255.464613,170.943073 263.075254,174.14601 263.075254,183.022165 C263.075254,191.437979 256.505761,194.342667 251.490657,195.574566 L251.490657,169.108192 L251.490657,169.108192 Z M241.966358,165.587555 L241.966358,195.574566 C231.422909,194.491791 219.823648,188.520324 218.797165,188.520324 C218.09329,188.520324 217.40408,189.44749 217.22078,189.752223 L212.227672,202.602873 C211.868403,203.517071 211.868403,203.517071 211.868403,203.983896 C211.868403,208.561373 236.093408,212.088494 241.966358,212.088494 L241.966358,218.97416 C241.966358,221.567631 242.501596,222.027972 245.610374,222.027972 L249.071089,222.027972 C252.165203,222.027972 252.700441,221.567631 252.700441,218.97416 L252.700441,212.088494 C264.116401,210.409221 282.967033,203.37443 282.967033,182.107966 C282.967033,162.527258 263.940432,155.946325 252.700441,151.064116 L252.700441,122.769345 C260.12778,122.769345 271.389768,128.876969 272.408919,128.876969 C273.120126,128.876969 273.618703,128.423112 273.963308,127.658038 L279.345013,117.258218 C279.682287,116.635785 279.858255,116.175444 279.858255,115.572462 C279.858255,110.366068 257.708213,107.00104 252.700441,106.696307 L252.700441,99.2011748 C252.700441,96.5947363 252.165203,96.1538462 249.071089,96.1538462 L245.610374,96.1538462 C242.501596,96.1538462 241.966358,96.5947363 241.966358,99.2011748 L241.966358,106.696307 C234.018445,107.00104 211.538462,113.426365 211.538462,135.91176 C211.538462,156.101934 231.422909,161.463935 241.966358,165.587555 L241.966358,165.587555 Z" id="Fill-461" sketch:type="MSShapeGroup"></path>
        </g>
    </g>
</svg>