<?xml version="1.0" encoding="UTF-8" standalone="no"?>
<svg width="500px" height="500px" viewBox="0 0 500 500" version="1.1" xmlns="http://www.w3.org/2000/svg" xmlns:xlink="http://www.w3.org/1999/xlink" xmlns:sketch="http://www.bohemiancoding.com/sketch/ns">
    <!-- Generator: Sketch Beta 3.3 (11970) - http://www.bohemiancoding.com/sketch -->
    <title>icon-font_08_Dribbble</title>
    <desc>Created with Sketch Beta.</desc>
    <defs></defs>
    <g id="Page-1" stroke="none" stroke-width="1" fill="none" fill-rule="evenodd" sketch:type="MSPage">
        <g id="icon-font_08_Dribbble" sketch:type="MSLayerGroup" fill="#000000">
            <path d="M250.003474,0 C111.934906,0 0,111.934906 0,250.003474 C0,388.072043 111.934906,500 250.003474,500 C388.072043,500 500,388.072043 500,250.003474 C500,111.934906 388.072043,0 250.003474,0 L250.003474,0 Z M341.419181,236.550996 C340.932779,212.932724 339.258168,191.190572 336.603805,171.394027 L420.125909,171.394027 C429.437025,191.461567 435.280793,213.426074 436.92761,236.550996 L341.419181,236.550996 L341.419181,236.550996 Z M63.079339,236.550996 C64.7261559,213.426074 70.5699237,191.461567 79.8810401,171.394027 L163.840905,171.394027 C161.186542,191.197521 159.504982,212.925775 159.004683,236.550996 L63.079339,236.550996 L63.079339,236.550996 Z M191.885432,171.394027 L308.545381,171.394027 C311.310922,190.947371 313.103659,212.661729 313.624804,236.550996 L186.799061,236.550996 C187.327154,212.668677 189.112942,190.940423 191.885432,171.394027 L191.885432,171.394027 Z M63.1418764,264.352322 L159.011632,264.352322 C159.511931,288.324972 161.235182,310.345067 163.952082,330.357019 L80.6731798,330.357019 C71.0146337,310.087969 64.9276651,287.810776 63.1418764,264.352322 L63.1418764,264.352322 Z M186.806009,264.352322 L313.610907,264.352322 C313.075865,288.589018 311.26923,310.616062 308.434204,330.357019 L192.017455,330.357019 C189.182428,310.609114 187.341051,288.609864 186.806009,264.352322 L186.806009,264.352322 Z M341.412232,264.352322 L436.865072,264.352322 C435.079283,287.810776 428.992315,310.087969 419.333769,330.357019 L336.443987,330.357019 C339.174785,310.338119 340.911934,288.345818 341.412232,264.352322 L341.412232,264.352322 Z M403.602151,142.731076 L331.864864,142.731076 C326.556138,115.506483 319.545006,92.4232528 311.91545,73.0922634 C349.291938,86.2181581 381.276318,110.843976 403.602151,142.731076 L403.602151,142.731076 Z M277.950721,64.6288756 C287.379963,84.2933974 296.760565,109.93371 303.584085,142.731076 L196.867574,142.731076 C203.691093,109.919813 213.071696,84.2378087 222.500938,64.5732868 C231.478522,63.2461053 240.657615,62.5373487 250.003474,62.5373487 C259.502203,62.5373487 268.834165,63.2600025 277.950721,64.6288756 L277.950721,64.6288756 Z M188.577901,72.9324458 C180.934447,92.2912295 173.895521,115.436997 168.565949,142.731076 L96.3978487,142.731076 C118.83486,110.705004 150.999903,86.0027516 188.577901,72.9324458 L188.577901,72.9324458 Z M97.0232222,358.151396 L168.586795,358.151396 C173.853829,385.035507 180.781578,407.868588 188.327751,426.99112 C151.194463,414.011146 119.37685,389.677168 97.0232222,358.151396 L97.0232222,358.151396 Z M222.257737,435.398919 C212.925775,415.942855 203.663299,390.545743 196.895368,358.151396 L303.500702,358.151396 C296.746668,390.497102 287.525884,415.901163 278.214767,435.34333 C269.00788,436.733049 259.592534,437.462651 250.003474,437.462651 C240.574232,437.462651 231.311756,436.746946 222.257737,435.398919 L222.257737,435.398919 Z M312.235085,426.803508 C319.739567,407.736565 326.604778,384.910433 331.850967,358.151396 L402.983726,358.151396 C380.734327,389.524299 349.132121,413.774893 312.235085,426.803508 L312.235085,426.803508 Z" id="Fill-728" sketch:type="MSShapeGroup"></path>
        </g>
    </g>
</svg>