<?xml version="1.0" encoding="UTF-8" standalone="no"?>
<svg width="500px" height="400px" viewBox="0 0 500 400" version="1.1" xmlns="http://www.w3.org/2000/svg" xmlns:xlink="http://www.w3.org/1999/xlink" xmlns:sketch="http://www.bohemiancoding.com/sketch/ns">
    <!-- Generator: Sketch Beta 3.3 (11970) - http://www.bohemiancoding.com/sketch -->
    <title>icon-font_09_Twitter</title>
    <desc>Created with Sketch Beta.</desc>
    <defs></defs>
    <g id="Page-1" stroke="none" stroke-width="1" fill="none" fill-rule="evenodd" sketch:type="MSPage">
        <g id="icon-font_09_Twitter" sketch:type="MSLayerGroup" fill="#000000" opacity="0.9">
            <path d="M157.247888,400 C99.3178244,400 45.3966861,383.283673 0,354.632772 C8.02516551,355.565358 16.1911555,356.042452 24.4705366,356.042452 C72.5300852,356.042452 116.761769,339.89864 151.869125,312.81585 C106.98087,312.000288 69.0972603,282.805678 56.0444786,242.686495 C62.306595,243.865729 68.7333114,244.497655 75.3429167,244.497655 C84.6995135,244.497655 93.7616592,243.26441 102.37024,240.95635 C55.4409452,231.680904 20.0830316,190.866782 20.0830316,141.940246 C20.0830316,141.515362 20.0830316,141.092277 20.0903471,140.670994 C33.9222356,148.234299 49.7384689,152.776603 66.5551044,153.300507 C39.030323,135.192503 20.9188339,104.283953 20.9188339,69.2507809 C20.9188339,50.7448982 25.9775412,33.3984463 34.807418,18.4842784 C85.4018069,79.5776359 160.987966,119.779636 246.243462,123.990674 C244.495044,116.600203 243.586086,108.89287 243.586086,100.978495 C243.586086,45.2123973 289.516807,0 346.170306,0 C375.673946,0 402.333663,12.2640405 421.046856,31.8897461 C444.412744,27.3600446 466.366729,18.9559722 486.1864,7.38506963 C478.527013,30.9643619 462.262702,50.7539 441.082337,63.2519871 C461.832913,60.8107013 481.603204,55.3826211 500,47.3512229 C486.246754,67.6016527 468.854018,85.3873921 448.813051,99.6246253 C449.010571,103.954487 449.109331,108.309554 449.109331,112.688025 C449.109331,246.12878 345.930722,400 157.247888,400" id="Fill-12" sketch:type="MSShapeGroup"></path>
        </g>
    </g>
</svg>