<?xml version="1.0" encoding="UTF-8" standalone="no"?>
<svg width="500px" height="450px" viewBox="0 0 500 450" version="1.1" xmlns="http://www.w3.org/2000/svg" xmlns:xlink="http://www.w3.org/1999/xlink" xmlns:sketch="http://www.bohemiancoding.com/sketch/ns">
    <!-- Generator: Sketch Beta 3.3 (11970) - http://www.bohemiancoding.com/sketch -->
    <title>icon-font_29_DefaultUser</title>
    <desc>Created with Sketch Beta.</desc>
    <defs></defs>
    <g id="Page-1" stroke="none" stroke-width="1" fill="none" fill-rule="evenodd" sketch:type="MSPage">
        <path d="M437.381088,337.113795 C407.189579,323.296249 362.381435,287.679593 296.033719,275.442626 C312.997347,256.740305 325.843321,227.488875 339.05037,192.830579 C346.709348,172.755086 345.390032,155.633344 345.390032,131.259536 C345.390032,113.250954 348.688322,84.3571202 344.348466,68.4798156 C329.717944,14.8116656 292.735429,0 249.413251,0 C206.056356,0 169.039121,14.8760331 154.42943,68.6371583 C150.124293,84.4715512 153.429528,113.301017 153.429528,131.259536 C153.429528,155.690559 152.137987,172.862365 159.817795,192.980769 C173.129001,227.810712 185.780549,257.019231 202.688627,275.650032 C136.868638,288.108709 92.4007388,323.453592 62.3967114,337.235378 C0.305525852,365.750159 0,396.968373 0,396.968373 L0,450 L500,449.942784 L500,396.968373 C500,396.968373 499.708362,365.64288 437.381088,337.113795" id="icon-font_29_DefaultUser" fill="#000000" sketch:type="MSShapeGroup"></path>
    </g>
</svg>