<?xml version="1.0" encoding="UTF-8" standalone="no"?>
<svg width="500px" height="500px" viewBox="0 0 500 500" version="1.1" xmlns="http://www.w3.org/2000/svg" xmlns:xlink="http://www.w3.org/1999/xlink" xmlns:sketch="http://www.bohemiancoding.com/sketch/ns">
    <!-- Generator: Sketch Beta 3.3.1 (11988) - http://www.bohemiancoding.com/sketch -->
    <title>icon-font_57_Label</title>
    <desc>Created with Sketch Beta.</desc>
    <defs></defs>
    <g id="Page-1" stroke="none" stroke-width="1" fill="none" fill-rule="evenodd" sketch:type="MSPage">
        <path d="M236.300359,25.5591054 C230.101617,19.3645722 217.899509,13.6403976 209.160881,12.8594249 L69.0497716,0.0976215832 C68.374837,0.0354987575 67.6554987,0 66.9361604,0 C58.437312,0 47.6117151,4.20660277 41.9102932,9.93077742 L9.9308228,41.8796592 C3.74984212,48.0653177 -0.699398284,60.2768903 0.0909857397,68.9829606 L12.5683965,209.362797 C13.3321383,218.086617 19.0513216,230.28044 25.241183,236.483848 L284.300648,495.358537 C287.391138,498.446929 291.476269,500 295.5614,500 C299.63765,500 303.722781,498.446929 306.831033,495.358537 L495.350943,306.957756 C501.549686,300.763223 501.549686,290.619453 495.350943,284.433795 L236.300359,25.5591054 L236.300359,25.5591054 Z M79.3965359,80.6058455 C88.3838239,71.6246598 100.165578,67.1281505 111.947333,67.1281505 C123.752769,67.1281505 135.570046,71.6364927 144.569175,80.6295113 C162.567433,98.6155485 162.543751,127.771861 144.569175,145.7224 C135.570046,154.739084 123.776451,159.223761 112.006537,159.223761 C100.212942,159.223761 88.4193467,154.715418 79.4202178,145.7224 C61.4101189,127.736363 61.386437,98.5918826 79.3965359,80.6058455 L79.3965359,80.6058455 Z" id="icon-font_57_Label" fill="#000000" sketch:type="MSShapeGroup"></path>
    </g>
</svg>