<?xml version="1.0" encoding="UTF-8" standalone="no"?>
<svg width="498px" height="463px" viewBox="0 0 498 463" version="1.1" xmlns="http://www.w3.org/2000/svg" xmlns:xlink="http://www.w3.org/1999/xlink" xmlns:sketch="http://www.bohemiancoding.com/sketch/ns">
    <!-- Generator: Sketch 3.3 (11970) - http://www.bohemiancoding.com/sketch -->
    <title>icon-font_58_Email</title>
    <desc>Created with Sketch.</desc>
    <defs></defs>
    <g id="Page-1" stroke="none" stroke-width="1" fill="none" fill-rule="evenodd" sketch:type="MSPage">
        <g id="icon-font_58_Email" sketch:type="MSLayerGroup" fill="#000000">
            <path d="M308.656844,337.68 L190.187852,337.68 L178.343022,346.458186 L20.8695652,462.746667 L477.913043,462.746667 L308.656844,337.68" id="Fill-404" sketch:type="MSShapeGroup"></path>
            <path d="M497.704581,182.959644 L497.566384,182.849281 L497.476555,182.787203 L248.990488,0 L0.124377776,182.959644 L0.0621888881,182.959644 L0,217.420204 L0.0829185174,217.358126 L0.0829185174,443.986667 L154.456468,330.499955 L154.470288,330.48616 L0.338583946,217.178787 L47.8439846,182.959644 L48.0720105,182.787203 L248.983578,34.2674273 L451.636435,182.787203 L451.864461,182.959644 L497.303808,217.440897 L343.545237,330.534444 L343.524508,330.534444 L497.697671,443.952179 L497.697671,217.730598 L497.711491,217.744393 L497.73913,182.959644 L497.704581,182.959644" id="Fill-405" sketch:type="MSShapeGroup"></path>
        </g>
    </g>
</svg>