<?xml version="1.0" encoding="UTF-8" standalone="no"?>
<svg width="494px" height="432px" viewBox="0 0 494 432" version="1.1" xmlns="http://www.w3.org/2000/svg" xmlns:xlink="http://www.w3.org/1999/xlink" xmlns:sketch="http://www.bohemiancoding.com/sketch/ns">
    <!-- Generator: Sketch Beta 3.3 (11970) - http://www.bohemiancoding.com/sketch -->
    <title>icon-font_54_Boss</title>
    <desc>Created with Sketch Beta.</desc>
    <defs></defs>
    <g id="Page-1" stroke="none" stroke-width="1" fill="none" fill-rule="evenodd" sketch:type="MSPage">
        <g id="icon-font_54_Boss" sketch:type="MSLayerGroup" transform="translate(-3.000000, 0.493151)" fill="#000000">
            <g id="Page-1" sketch:type="MSShapeGroup">
                <g id="Artboard-1">
                    <path d="M496.599315,380.445205 C496.599315,380.445205 496.311644,350.445205 434.832192,323.123288 C405.05137,309.890411 360.85274,275.780822 295.407534,264.061644 C312.140411,246.150685 324.811644,218.136986 337.839041,184.945205 C345.393836,165.719178 344.092466,149.321918 344.092466,125.979452 C344.092466,108.732877 347.34589,81.0616438 343.065068,65.8561644 C328.633562,14.4589041 292.15411,0.273972603 249.421233,0.273972603 C206.65411,0.273972603 170.140411,14.5205479 155.729452,66.0068493 C151.482877,81.1712329 154.743151,108.780822 154.743151,125.979452 C154.743151,149.376712 153.469178,165.821918 161.044521,185.089041 C174.174658,218.445205 186.65411,246.417808 203.332192,264.260274 C138.407534,276.191781 94.5445205,310.041096 64.9486301,323.239726 C3.70205479,350.547945 3.40068493,380.445205 3.40068493,380.445205 L3.40068493,431.232877 L221.325342,431.212329 L233.085616,375.287671 L209.003425,342.958904 C209.003425,342.958904 234.256849,315.924658 249.825342,315.924658 C265.393836,315.924658 290.393836,342.883562 290.393836,342.883562 L266.558219,375.287671 L278.15411,431.19863 L496.599315,431.178082 L496.599315,380.445205" id="Fill-794"></path>
                </g>
            </g>
        </g>
    </g>
</svg>