<svg width="39" height="35" xmlns="http://www.w3.org/2000/svg">
  <g fill="none" fill-rule="evenodd">
    <path d="M-1-3h41.03v40.7H-1z"/>
    <g fill="#E7E9EC" fill-rule="nonzero">
      <path d="M34.901.392H4.129c-1.886 0-3.42 1.52-3.42 3.391v27.134c0 1.87 1.534 3.391 3.42 3.391H34.9c1.886 0 3.42-1.52 3.42-3.391V3.783c0-1.87-1.534-3.391-3.42-3.391zm0 6.783H21.224V3.783h13.677v3.392zm-22.224 0V3.783h5.128v3.392h-5.128zm-3.42-3.392v3.392H4.13V3.783h5.128zM4.13 30.917v-20.35h30.77l-.003 20.35H4.129z"/>
      <path d="M21.224 22.438h8.548v3.391h-8.548zM9.758 16.855l3.92 3.887-3.92 3.89 2.418 2.398 6.337-6.288-6.337-6.285z"/>
    </g>
  </g>
</svg>