<svg width="20" height="19" xmlns="http://www.w3.org/2000/svg">
  <g fill="none" fill-rule="evenodd">
    <path fill="#FFF" d="M2.137 12.376l4.99-5.205 5.66 5.629-5.325 5.823z"/>
    <circle fill="#EB1510" fill-rule="nonzero" cx="6.773" cy="12.729" r="1.446"/>
    <path d="M16.673 0L9.102 7.573l-.858-.858c-.756-.756-2.072-.756-2.828 0l-3.951 3.949a2.003 2.003 0 0 0 .001 2.828l4.545 4.545c.378.378.88.586 1.414.586.534 0 1.036-.208 1.414-.586l3.949-3.949c.378-.378.586-.88.586-1.414 0-.534-.208-1.036-.586-1.414l-.858-.858 1.914-1.914-1.414-1.414 1.414-1.414 1.414 1.414 1.414-1.414-1.414-1.415 1.415-1.415 1.414 1.414 1.414-1.414L16.673 0zM7.425 16.623L2.88 12.077l3.95-3.948 4.545 4.545-3.95 3.949z" fill="#EB1510" fill-rule="nonzero"/>
  </g>
</svg>