<svg width="68" height="62" xmlns="http://www.w3.org/2000/svg">
  <g fill="none" fill-rule="evenodd">
    <path d="M-3-6h74v74H-3z"/>
    <g fill="#E7E9EC" fill-rule="nonzero">
      <path d="M61.75.167H6.25A6.173 6.173 0 0 0 .083 6.333v49.334c0 3.4 2.766 6.166 6.167 6.166h55.5c3.4 0 6.167-2.765 6.167-6.166V6.333c0-3.4-2.766-6.166-6.167-6.166zm0 12.333H37.083V6.333H61.75V12.5zm-40.083 0V6.333h9.25V12.5h-9.25zM15.5 6.333V12.5H6.25V6.333h9.25zM6.25 55.667v-37h55.497l-.006 37H6.25z"/>
      <path d="M37.083 40.25H52.5v6.167H37.083zM16.403 30.1l7.07 7.067-7.07 7.073 4.36 4.36 11.43-11.433-11.43-11.427z"/>
    </g>
  </g>
</svg>