<?xml version="1.0" encoding="UTF-8" standalone="no"?>
<svg width="42px" height="42px" viewBox="0 0 42 42" version="1.1" xmlns="http://www.w3.org/2000/svg" xmlns:xlink="http://www.w3.org/1999/xlink" xmlns:sketch="http://www.bohemiancoding.com/sketch/ns">
    <g id="Page-1" stroke="none" stroke-width="1" fill="none" fill-rule="evenodd" sketch:type="MSPage">
        <g id="Artboard-1" sketch:type="MSArtboardGroup" transform="translate(-370.000000, -157.000000)">
            <g id="create" sketch:type="MSLayerGroup" transform="translate(371.000000, 158.000000)">
                <circle id="Oval-6" stroke="#FFFFFF" stroke-opacity="0.5" sketch:type="MSShapeGroup" cx="20" cy="20" r="20"></circle>
                <path d="M21.5347201,15.2831752 L9,27.8391069 L12.1553992,31 L24.6895075,18.4440684 L21.5347201,15.2831752 L21.5347201,15.2831752 Z M18.5698991,19.6502027 L21.5341083,16.680526 L23.2948914,18.4443748 L20.3303763,21.4137451 L18.5698991,19.6502027 Z M28.3435301,12.664062 L27.2979504,11.6163554 L24.1596819,14.7610073 L25.2052615,15.8081011 L28.3435301,12.664062 Z M24.1599878,22.0958729 L27.2976445,25.2396055 L28.3435301,24.1922054 L25.2055675,21.0487791 L24.1599878,22.0958729 Z M18.9290303,14.7610073 L15.789844,11.6163554 L14.7442643,12.664062 L17.8828388,15.8081011 L18.9290303,14.7610073 Z M22.2844907,9.00030644 L20.8048333,9 L20.8048333,13.4457816 L22.2841848,13.4463945 L22.2844907,9.00030644 Z M26.5613337,19.2123048 L31,19.2129177 L30.9993882,17.7309905 L26.5607219,17.730684 L26.5613337,19.2123048 Z" id="Fill-914" fill="#FFFFFF" fill-opacity="0.5" sketch:type="MSShapeGroup"></path>
            </g>
        </g>
    </g>
</svg>