<?xml version="1.0" encoding="UTF-8" standalone="no"?>
<svg width="42px" height="42px" viewBox="0 0 42 42" version="1.1" xmlns="http://www.w3.org/2000/svg" xmlns:xlink="http://www.w3.org/1999/xlink" xmlns:sketch="http://www.bohemiancoding.com/sketch/ns">
    <g id="Page-1" stroke="none" stroke-width="1" fill="none" fill-rule="evenodd" sketch:type="MSPage">
        <g id="Artboard-1" sketch:type="MSArtboardGroup" transform="translate(-250.000000, -157.000000)">
            <g id="dashboard" sketch:type="MSLayerGroup" transform="translate(251.000000, 158.000000)">
                <circle id="Oval-4" stroke="#FFFFFF" stroke-opacity="0.5" sketch:type="MSShapeGroup" cx="20" cy="20" r="20"></circle>
                <path d="M10,11.2510896 C10,10.5601319 10.5616993,10 11.2507563,10 L29.7492437,10 C30.4400173,10 31,10.5557886 31,11.2510896 L31,27.9162486 C31,29.0670727 30.0705598,30 28.9096651,30 L12.0903349,30 C10.9358748,30 10,29.0621838 10,27.9162486 L10,11.2510896 Z M10.84,13.3346842 C10.84,13.1038195 11.0312168,12.9166667 11.2614932,12.9166667 L29.7385068,12.9166667 C29.9712911,12.9166667 30.16,13.0991618 30.16,13.3346842 L30.16,27.503998 C30.16,28.4222645 29.4144712,29.1666667 28.4960662,29.1666667 L12.5039338,29.1666667 C11.5849686,29.1666667 10.84,28.426212 10.84,27.503998 L10.84,13.3346842 Z M11.89,12.0833333 C12.2379394,12.0833333 12.52,11.8035113 12.52,11.4583333 C12.52,11.1131554 12.2379394,10.8333333 11.89,10.8333333 C11.5420606,10.8333333 11.26,11.1131554 11.26,11.4583333 C11.26,11.8035113 11.5420606,12.0833333 11.89,12.0833333 Z M13.99,12.0833333 C14.3379394,12.0833333 14.62,11.8035113 14.62,11.4583333 C14.62,11.1131554 14.3379394,10.8333333 13.99,10.8333333 C13.6420606,10.8333333 13.36,11.1131554 13.36,11.4583333 C13.36,11.8035113 13.6420606,12.0833333 13.99,12.0833333 Z M16.09,12.0833333 C16.4379394,12.0833333 16.72,11.8035113 16.72,11.4583333 C16.72,11.1131554 16.4379394,10.8333333 16.09,10.8333333 C15.7420606,10.8333333 15.46,11.1131554 15.46,11.4583333 C15.46,11.8035113 15.7420606,12.0833333 16.09,12.0833333 Z M13,19 L28,19 L28,21 L13,21 L13,19 Z M13,15 L28,15 L28,17 L13,17 L13,15 Z" id="Rectangle-155" fill="#FFFFFF" fill-opacity="0.5" sketch:type="MSShapeGroup"></path>
            </g>
        </g>
    </g>
</svg>