<?xml version="1.0" encoding="UTF-8" standalone="no"?>
<svg width="42px" height="42px" viewBox="0 0 42 42" version="1.1" xmlns="http://www.w3.org/2000/svg" xmlns:xlink="http://www.w3.org/1999/xlink" xmlns:sketch="http://www.bohemiancoding.com/sketch/ns">
    <g id="Page-1" stroke="none" stroke-width="1" fill="none" fill-rule="evenodd" sketch:type="MSPage">
        <g id="Artboard-1" sketch:type="MSArtboardGroup" transform="translate(-310.000000, -157.000000)">
            <g id="import" sketch:type="MSLayerGroup" transform="translate(311.000000, 158.000000)">
                <circle id="Oval-5" stroke="#FFFFFF" stroke-opacity="0.5" sketch:type="MSShapeGroup" cx="20" cy="20" r="20"></circle>
                <path d="M18.6213203,20 L18,20 L18,19 L18.6213203,19 L18.6213203,19 L18.267767,18.6464466 L21.267767,15.6464466 L21.9748737,16.3535534 L19.3284271,19 L27,19 L27,20 L19.3284271,20 L21.9748737,22.6464466 L21.267767,23.3535534 L18.267767,20.3535534 L18.6213203,20 L18.6213203,20 Z M24.7503906,12 L14,12 L14,27 L27,27 L27,14.2496094 L24.7503906,12 L24.7503906,12 Z M27,19 L31,19 L31,20 L27,20 L27,19 Z" id="Rectangle-112" fill="#FFFFFF" fill-opacity="0.5" sketch:type="MSShapeGroup"></path>
            </g>
        </g>
    </g>
</svg>