<?xml version="1.0" encoding="UTF-8" standalone="no"?>
<svg width="42px" height="42px" viewBox="0 0 42 42" version="1.1" xmlns="http://www.w3.org/2000/svg" xmlns:xlink="http://www.w3.org/1999/xlink" xmlns:sketch="http://www.bohemiancoding.com/sketch/ns">
    <g id="Page-1" stroke="none" stroke-width="1" fill="none" fill-rule="evenodd" sketch:type="MSPage">
        <g id="Artboard-1" sketch:type="MSArtboardGroup" transform="translate(-430.000000, -157.000000)">
            <g id="share" sketch:type="MSLayerGroup" transform="translate(431.000000, 158.000000)">
                <circle id="Oval-7" stroke="#FFFFFF" stroke-opacity="0.5" sketch:type="MSShapeGroup" cx="20" cy="20" r="20"></circle>
                <path d="M16.8285243,15 C17.4395697,14.5525577 18.1264015,14.1535105 18.8865851,13.808364 C18.9958781,13.7585798 19.1045882,13.7132406 19.2135898,13.6670124 L11,13.6670124 L11,27 L29.3612291,27 L29.3612291,20.3114293 L27.9615385,21.2696895 L27.9615385,25.4 L12.6153846,25.4 L12.6153846,15 L16.8285243,15 Z M32,16.3778823 L24.1416854,11 L24.1416854,14.2344934 C24.1416854,14.2344934 15.0802731,14.9418443 15.0802731,21.7563573 C15.0802731,21.7563573 16.226247,18.9595503 20.6105005,18.4294075 C21.3277542,18.3425814 22.4171871,18.2575334 24.1445999,18.2575334 L24.1445999,21.7554683 L32,16.3778823 Z" id="icon" fill="#FFFFFF" fill-opacity="0.5" sketch:type="MSShapeGroup"></path>
            </g>
        </g>
    </g>
</svg>