<svg xmlns="http://www.w3.org/2000/svg" width="57.5" height="57.599998"><g fill-rule="nonzero" fill="none"><path d="M46.649999 0c-5.984 0-10.85 4.8660002-10.85 10.8500002h3.617c0-3.987 3.244-7.233 7.233-7.233 3.99 0 7.233 3.246 7.233 7.233 0 3.987-3.244 7.233-7.233 7.233-1.933 0-3.75-.752-5.027-2.023l-.085-.098 3.304-3.304h-9.042v9.042l3.177-3.177c2.03 2.042 4.794 3.186 7.673 3.177 5.984 0 10.85-4.866 10.85-10.85S52.633999 0 46.649999 0z" fill="#036fe2"/><path d="M23.999999 4.2670002c2.192 0 4.388.123 6.514.369-.64 1.636-1.037 3.393-1.148 5.228-1.643-.168-3.434-.264-5.366-.264-12.125 0-18.667 3.787-18.667 5.333 0 1.547 6.542 5.334 18.667 5.334 2.893 0 5.469-.216 7.713-.565 1.04 1.773 2.389 3.345 3.971 4.642-3.592.832-7.643 1.256-11.684 1.256-7.003 0-14.037-1.275-18.667-3.733v3.733c0 1.547 6.542 5.333 18.667 5.333 8.644 0 14.45-1.924 17.072-3.59 1.755.6 3.637.924 5.595.924.448 0 .893-.017 1.333-.05v18.716c0 7.003-12.072 10.667-24 10.667S0 53.9360002 0 46.9330002v-32c0-7.002 12.071999-10.666 23.999999-10.666zm18.667 38.933c-4.63 2.459-11.664 3.733-18.667 3.733-7.003 0-14.037-1.272-18.667-3.733v3.733c0 1.547 6.542 5.334 18.667 5.334 12.125 0 18.667-3.787 18.667-5.334zm0-10.667c-4.63 2.459-11.664 3.734-18.667 3.734-7.003 0-14.037-1.272-18.667-3.734v3.734c0 1.546 6.542 5.333 18.667 5.333 12.125 0 18.667-3.787 18.667-5.333z" fill="#2e3c43"/></g></svg>