<svg width="64" height="64" viewBox="0 0 64 64" xmlns="http://www.w3.org/2000/svg">
  <g fill="none" fill-rule="evenodd">
    <path d="M0 .003h64v64.003H0z"/>
    <path d="M24 10.667c-11.928 0-24 3.664-24 10.666v32C0 60.336 12.072 64 24 64s24-3.664 24-10.667v-32c0-7.002-12.072-10.666-24-10.666zM24 16c12.125 0 18.667 3.787 18.667 5.333 0 1.547-6.542 5.334-18.667 5.334-12.125 0-18.667-3.787-18.667-5.334C5.333 19.787 11.875 16 24 16zm0 42.667c-12.125 0-18.667-3.787-18.667-5.334V49.6c4.63 2.461 11.664 3.733 18.667 3.733 7.003 0 14.037-1.274 18.667-3.733v3.733c0 1.547-6.542 5.334-18.667 5.334zM24 48c-12.125 0-18.667-3.787-18.667-5.333v-3.734c4.63 2.462 11.664 3.734 18.667 3.734 7.003 0 14.037-1.275 18.667-3.734v3.734C42.667 44.213 36.125 48 24 48zm0-10.667c-12.125 0-18.667-3.786-18.667-5.333v-3.733C9.963 30.725 16.997 32 24 32c7.003 0 14.037-1.275 18.667-3.733V32c0 1.547-6.542 5.333-18.667 5.333z" fill="#2E3C43" fill-rule="nonzero"/>
    <circle cx="17.333" cy="17.333" r="17.333" transform="translate(29.333)" fill="#FFF"/>
    <path stroke="#036FE2" stroke-width="4" stroke-linecap="round" stroke-linejoin="round" d="M50 23l4-4.98L50 13M39 18h15"/>
  </g>
</svg>