<svg xmlns="http://www.w3.org/2000/svg" width="64" height="65"><g fill="none" fill-rule="evenodd"><path d="M0 .003h64v64.003H0z"/><path fill="#036FE2" fill-rule="nonzero" d="M46.65 6.4c-5.984 0-10.85 4.866-10.85 10.85h3.617c0-3.987 3.244-7.233 7.233-7.233 3.99 0 7.233 3.246 7.233 7.233 0 3.987-3.244 7.233-7.233 7.233-1.933 0-3.75-.752-5.027-2.023l-.085-.098 3.304-3.304H35.8V28.1l3.177-3.177c2.03 2.042 4.794 3.186 7.673 3.177 5.984 0 10.85-4.866 10.85-10.85S52.634 6.4 46.65 6.4z"/><path fill="#2E3C43" fill-rule="nonzero" d="M24 10.667c2.192 0 4.388.123 6.514.369-.64 1.636-1.037 3.393-1.148 5.228C27.723 16.096 25.932 16 24 16c-12.125 0-18.667 3.787-18.667 5.333 0 1.547 6.542 5.334 18.667 5.334 2.893 0 5.469-.216 7.713-.565 1.04 1.773 2.389 3.345 3.971 4.642C32.092 31.576 28.041 32 24 32c-7.003 0-14.037-1.275-18.667-3.733V32c0 1.547 6.542 5.333 18.667 5.333 8.644 0 14.45-1.924 17.072-3.59 1.755.6 3.637.924 5.595.924.448 0 .893-.017 1.333-.05v18.716C48 60.336 35.928 64 24 64S0 60.336 0 53.333v-32c0-7.002 12.072-10.666 24-10.666zM42.667 49.6c-4.63 2.459-11.664 3.733-18.667 3.733-7.003 0-14.037-1.272-18.667-3.733v3.733c0 1.547 6.542 5.334 18.667 5.334 12.125 0 18.667-3.787 18.667-5.334zm0-10.667c-4.63 2.459-11.664 3.734-18.667 3.734-7.003 0-14.037-1.272-18.667-3.734v3.734C5.333 44.213 11.875 48 24 48c12.125 0 18.667-3.787 18.667-5.333z"/></g></svg>