<svg width="57" height="56" xmlns="http://www.w3.org/2000/svg"><g fill="none" fill-rule="evenodd"><path d="M0-7.99733333h64v64.0026667H0z"/><path d="M24 2.6666667c2.1915924 0 4.3880461.1236914 6.5135896.3690565-.6391938 1.6365256-1.0361151 3.3936985-1.1477881 5.2279142C27.7226729 8.0961591 25.9322368 8 24 8 11.8746667 8 5.33333333 11.7866667 5.33333333 13.3333333 5.33333333 14.88 11.8746667 18.6666667 24 18.6666667c2.8934183 0 5.4688708-.2156216 7.7133492-.5649749 1.0400632 1.7732671 2.3885176 3.3449867 3.9706685 4.6422233C32.0918062 23.5756186 28.0405761 24 24 24c-7.0026667 0-14.03733333-1.2746667-18.66666667-3.7333333V24c0 1.5466667 6.54133337 5.3333333 18.66666667 5.3333333 8.6439575 0 14.4501053-1.9243982 17.0716105-3.5897913 1.7554011.5985613 3.6373257.9231247 5.5950562.9231247.448774 0 .8935646-.0170549 1.333759-.0505519L48 45.3333333C48 52.336 35.928 56 24 56S0 52.336 0 45.3333333v-32C0 6.3306667 12.072 2.6666667 24 2.6666667zM42.6666667 41.6C38.0373333 44.0586667 31.0026667 45.3333333 24 45.3333333c-7.0026667 0-14.03733333-1.272-18.66666667-3.7333333v3.7333333C5.33333333 46.88 11.8746667 50.6666667 24 50.6666667c12.1253333 0 18.6666667-3.7866667 18.6666667-5.3333334zm0-10.6666667C38.0373333 33.392 31.0026667 34.6666667 24 34.6666667c-7.0026667 0-14.03733333-1.272-18.66666667-3.7333334v3.7333334C5.33333333 36.2133333 11.8746667 40 24 40c12.1253333 0 18.6666667-3.7866667 18.6666667-5.3333333z" fill="#2E3C43" fill-rule="nonzero"/><path stroke="#036FE2" stroke-width="4" stroke-linecap="round" stroke-linejoin="round" d="M47 17V2M39.381332 9.714666h15"/></g></svg>