<svg xmlns="http://www.w3.org/2000/svg" width="56.028484" height="53.333328"><path d="M50 12.33333l4-4.98-4-5.02m-11 5h15" fill="none" stroke="#036fe2" stroke-width="4" stroke-linecap="round" stroke-linejoin="round"/><path d="M24 0c2.191592 0 4.388046.123692 6.51359.369057-.639194 1.636525-1.036116 3.393698-1.147789 5.227914C27.722673 5.429493 25.932237 5.333333 24 5.333333c-12.125333 0-18.666667 3.786667-18.666667 5.333333C5.333333 12.213333 11.874667 16 24 16c2.893418 0 5.468871-.215622 7.713349-.564975 1.040063 1.773267 2.388518 3.344986 3.970669 4.642223-3.592212.831704-7.643442 1.256085-11.684018 1.256085-7.002667 0-14.037334-1.274667-18.666667-3.733333v3.733333c0 1.546667 6.541334 5.333333 18.666667 5.333333 8.643957 0 14.450101-1.924398 17.071611-3.589791 1.7554.598561 3.63732.923125 5.59506.923125.44877 0 .89356-.01705 1.33375-.05055l-.00042 18.71722C48.000001 49.66933 35.928 53.33333 24 53.33333s-24-3.664-24-10.66666V10.666666C0 3.664 12.072 0 24 0zm18.666671 38.933333C38.037331 41.392 31.002667 42.66667 24 42.66667c-7.002667 0-14.037334-1.272004-18.666667-3.733337v3.733337C5.333333 44.21333 11.874667 48 24 48c12.125333 0 18.666671-3.78667 18.666671-5.33333zm0-10.666667C38.037331 30.725333 31.002667 32 24 32c-7.002667 0-14.037334-1.272-18.666667-3.733334V32c0 1.546666 6.541334 5.333333 18.666667 5.333333 12.125333 0 18.666671-3.786667 18.666671-5.333333z" fill="#2e3c43"/></svg>