<svg width="61" height="57" xmlns="http://www.w3.org/2000/svg"><g fill="none" fill-rule="evenodd"><path d="M0-6.99733333h64v64.0026667H0z"/><path d="M24 3.6666667c2.1915924 0 4.3880461.1236914 6.5135896.3690565-.6391938 1.6365256-1.0361151 3.3936985-1.1477881 5.2279142C27.7226729 9.0961591 25.9322368 9 24 9 11.8746667 9 5.33333333 12.7866667 5.33333333 14.3333333 5.33333333 15.88 11.8746667 19.6666667 24 19.6666667c2.8934183 0 5.4688708-.2156216 7.7133492-.5649749 1.0400632 1.7732671 2.3885176 3.3449867 3.9706685 4.6422233C32.0918062 24.5756186 28.0405761 25 24 25c-7.0026667 0-14.03733333-1.2746667-18.66666667-3.7333333V25c0 1.5466667 6.54133337 5.3333333 18.66666667 5.3333333 8.6439575 0 14.4501053-1.9243982 17.0716105-3.5897913 1.7554011.5985613 3.6373257.9231247 5.5950562.9231247.448774 0 .8935646-.0170549 1.333759-.0505519L48 46.3333333C48 53.336 35.928 57 24 57S0 53.336 0 46.3333333v-32C0 7.3306667 12.072 3.6666667 24 3.6666667zM42.6666667 42.6C38.0373333 45.0586667 31.0026667 46.3333333 24 46.3333333c-7.0026667 0-14.03733333-1.272-18.66666667-3.7333333v3.7333333C5.33333333 47.88 11.8746667 51.6666667 24 51.6666667c12.1253333 0 18.6666667-3.7866667 18.6666667-5.3333334zm0-10.6666667C38.0373333 34.392 31.0026667 35.6666667 24 35.6666667c-7.0026667 0-14.03733333-1.272-18.66666667-3.7333334v3.7333334C5.33333333 37.2133333 11.8746667 41 24 41c12.1253333 0 18.6666667-3.7866667 18.6666667-5.3333333z" fill="#2E3C43" fill-rule="nonzero"/><g><path d="M36.333333-2h24v24h-24z"/><path d="M39.209333.513c1.02446686 0 2.49835398.629644 7.9690556 3.06841564 3.8559303 1.72431802 7.7074174 3.42173904 11.5678536 5.09793786.2396838-.0688233.4890606-.0696823.7225493-.009203.2868965.0743132.5498053.2412348.7412694.4884724.1914641.2472375.2872902.5435501.2874517.8399149.0001615.2963647-.0953416.5927816-.2865361.8402277-.1911946.247446-.4539212.4146541-.7407366.48928-.2335451.0607656-.483062.0601459-.7238482-.0083803-5.0687613 2.1992151-8.7750447 3.852282-11.5027602 5.0688887C41.69901295 18.8610099 40.2335265 19.487 39.211333 19.487c-1.03993828 0-1.55296701-.627833-1.7214661-.8360498-.31411088-.3880168-.49036824-.8534598-.5240085-1.3289917-.03364025-.475532.0753366-.9611531.33191475-1.3898944h0l3.55924162-5.9320694-3.56059629-5.93465114c-.25596277-.42839039-.36475297-.91386832-.33112186-1.38927102.0336311-.47540271.20968353-.9407302.52486305-1.33061083C37.66325346 1.13401284 38.17631034.513 39.209333.513zm12.551891 10.86h-8.52256364l-3.04580456 5.0766185c1.09915257-.4125909 2.99033126-1.2611781 5.84966764-2.5370718C47.9467771 13.06177 49.8530405 12.2152411 51.761224 11.373zM40.24174202 3.57034095L43.2398865 8.624h8.5176146c-2.2602319-.99638154-4.1402448-1.83403613-5.71504317-2.5365097-2.81372319-1.25489676-4.69169981-2.09655545-5.80071591-2.51714935z" stroke="#036FE2" stroke-width=".75" fill="#036FE2" fill-rule="nonzero"/></g></g></svg>