<svg xmlns="http://www.w3.org/2000/svg" width="58" height="56"><g fill="none" fill-rule="evenodd"><path d="M0-7.997h64v64.003H0z"/><path fill="#2E3C43" fill-rule="nonzero" d="M24 2.667c2.192 0 4.388.123 6.514.369-.64 1.636-1.037 3.393-1.148 5.228C27.723 8.096 25.932 8 24 8 11.875 8 5.333 11.787 5.333 13.333c0 1.547 6.542 5.334 18.667 5.334 2.893 0 5.469-.216 7.713-.565 1.04 1.773 2.389 3.345 3.971 4.642C32.092 23.576 28.041 24 24 24c-7.003 0-14.037-1.275-18.667-3.733V24c0 1.547 6.542 5.333 18.667 5.333 8.644 0 14.45-1.924 17.072-3.59 1.755.6 3.637.924 5.595.924.448 0 .893-.017 1.333-.05v18.716C48 52.336 35.928 56 24 56S0 52.336 0 45.333v-32C0 6.331 12.072 2.667 24 2.667zM42.667 41.6c-4.63 2.459-11.664 3.733-18.667 3.733-7.003 0-14.037-1.272-18.667-3.733v3.733c0 1.547 6.542 5.334 18.667 5.334 12.125 0 18.667-3.787 18.667-5.334zm0-10.667c-4.63 2.459-11.664 3.734-18.667 3.734-7.003 0-14.037-1.272-18.667-3.734v3.734C5.333 36.213 11.875 40 24 40c12.125 0 18.667-3.787 18.667-5.333z"/><path d="M38 10.667L43.333 16l12-13.333" stroke="#036FE2" stroke-linecap="round" stroke-linejoin="round" stroke-width="4"/></g></svg>