<svg width="16" height="18" viewBox="0 0 16 18" xmlns="http://www.w3.org/2000/svg">
  <g fill="none" fill-rule="evenodd">
    <path d="M-2-1h20v20.001H-2z"/>
    <path d="M8 .563C4.272.563.5 1.708.5 3.896v10c0 2.188 3.772 3.333 7.5 3.333 3.727 0 7.5-1.145 7.5-3.333v-10C15.5 1.708 11.727.563 8 .563zm0 1.666c3.79 0 5.833 1.183 5.833 1.667 0 .483-2.044 1.667-5.833 1.667-3.79 0-5.833-1.184-5.833-1.667 0-.484 2.044-1.667 5.833-1.667zm0 13.334c-3.79 0-5.833-1.184-5.833-1.667v-1.167c1.446.77 3.645 1.167 5.833 1.167s4.387-.399 5.833-1.167v1.167c0 .483-2.044 1.666-5.833 1.666zm0-3.334c-3.79 0-5.833-1.183-5.833-1.666V9.396c1.446.769 3.645 1.166 5.833 1.166s4.387-.398 5.833-1.166v1.166c0 .484-2.044 1.667-5.833 1.667zm0-3.333c-3.79 0-5.833-1.184-5.833-1.667V6.062C3.613 6.832 5.812 7.23 8 7.23s4.387-.398 5.833-1.167V7.23c0 .484-2.044 1.667-5.833 1.667z" fill="#162945" fill-rule="nonzero"/>
  </g>
</svg>