<svg width="16" height="14" viewBox="0 0 16 14" xmlns="http://www.w3.org/2000/svg">
  <g fill="none" fill-rule="evenodd">
    <path d="M-1-3h18v18H-1z"/>
    <g fill="#162945" fill-rule="nonzero">
      <path d="M8 4.5a1.496 1.496 0 00-.75 2.792V13.5h1.5V7.292A1.496 1.496 0 008 4.5zM3.757 1.756L2.697.696c-2.925 2.924-2.925 7.683 0 10.607l1.06-1.06a6.008 6.008 0 010-8.486zM13.303.696l-1.061 1.06A5.961 5.961 0 0114 6a5.957 5.957 0 01-1.758 4.242l1.06 1.06A7.448 7.448 0 0015.5 6c0-2.003-.78-3.887-2.197-5.304z"/>
      <path d="M4.819 2.818A4.473 4.473 0 003.5 6c0 1.202.469 2.332 1.319 3.181l1.06-1.06A2.974 2.974 0 015 6c0-.802.312-1.555.879-2.121l-1.06-1.061zM11.181 2.818l-1.06 1.061C10.688 4.445 11 5.199 11 6c0 .801-.312 1.554-.879 2.12l1.06 1.062A4.47 4.47 0 0012.5 6a4.473 4.473 0 00-1.319-3.182z"/>
    </g>
  </g>
</svg>