<svg xmlns="http://www.w3.org/2000/svg" width="58" height="56" viewBox="0 0 58 56">
    <g fill="none" fill-rule="evenodd">
        <path d="M0 0.003H64V64.006H0z" transform="translate(0 -8)"/>
        <path fill="#2E3C43" fill-rule="nonzero" d="M24 10.667c2.192 0 4.388.123 6.514.369-.64 1.636-1.037 3.393-1.148 5.228C27.723 16.096 25.932 16 24 16c-12.125 0-18.667 3.787-18.667 5.333 0 1.547 6.542 5.334 18.667 5.334 2.893 0 5.469-.216 7.713-.565 1.04 1.773 2.389 3.345 3.971 4.642C32.092 31.576 28.041 32 24 32c-7.003 0-14.037-1.275-18.667-3.733V32c0 1.547 6.542 5.333 18.667 5.333 8.644 0 14.45-1.924 17.072-3.59 1.755.6 3.637.924 5.595.924.448 0 .893-.017 1.333-.05v18.716C48 60.336 35.928 64 24 64S0 60.336 0 53.333v-32c0-7.002 12.072-10.666 24-10.666zM42.667 49.6c-4.63 2.459-11.664 3.733-18.667 3.733-7.003 0-14.037-1.272-18.667-3.733v3.733c0 1.547 6.542 5.334 18.667 5.334 12.125 0 18.667-3.787 18.667-5.334zm0-10.667c-4.63 2.459-11.664 3.734-18.667 3.734-7.003 0-14.037-1.272-18.667-3.734v3.734C5.333 44.213 11.875 48 24 48c12.125 0 18.667-3.787 18.667-5.333z" transform="translate(0 -8)"/>
        <g stroke="#036FE2" stroke-linecap="round" stroke-linejoin="round" stroke-width="4">
            <path d="M8.667 18.667L14 24 26 10.667" transform="translate(0 -8) translate(29.333)"/>
        </g>
    </g>
</svg>
