<?xml version="1.0" encoding="UTF-8"?>
<svg width="61px" height="57px" viewBox="0 0 61 57" version="1.1" xmlns="http://www.w3.org/2000/svg" xmlns:xlink="http://www.w3.org/1999/xlink">
    <!-- Generator: Sketch 64 (93537) - https://sketch.com -->
    <title>subsc-requested-icon</title>
    <desc>Created with Sketch.</desc>
    <g id="Catalog" stroke="none" stroke-width="1" fill="none" fill-rule="evenodd">
        <g id="Dataset-Subscription-flow-1.4-Premium-Confirmed" transform="translate(-695.000000, -127.000000)">
            <g id="subsc-requested-icon" transform="translate(695.000000, 120.000000)">
                <g id="icon-subsc">
                    <rect id="Rectangle" x="0" y="0.00266666667" width="64" height="64.0026667"></rect>
                    <path d="M24,10.6666667 C26.1915924,10.6666667 28.3880461,10.7903581 30.5135896,11.0357232 C29.8743958,12.6722488 29.4774745,14.4294217 29.3658015,16.2636374 C27.7226729,16.0961591 25.9322368,16 24,16 C11.8746667,16 5.33333333,19.7866667 5.33333333,21.3333333 C5.33333333,22.88 11.8746667,26.6666667 24,26.6666667 C26.8934183,26.6666667 29.4688708,26.4510451 31.7133492,26.1016918 C32.7534124,27.8749589 34.1018668,29.4466785 35.6840177,30.7439151 C32.0918062,31.5756186 28.0405761,32 24,32 C16.9973333,32 9.96266667,30.7253333 5.33333333,28.2666667 L5.33333333,28.2666667 L5.33333333,32 C5.33333333,33.5466667 11.8746667,37.3333333 24,37.3333333 C32.6439575,37.3333333 38.4501053,35.4089351 41.0716105,33.743542 C42.8270116,34.3421033 44.7089362,34.6666667 46.6666667,34.6666667 C47.1154407,34.6666667 47.5602313,34.6496118 48.0004257,34.6161148 L48,53.3333333 C48,60.336 35.928,64 24,64 C12.072,64 0,60.336 0,53.3333333 L0,53.3333333 L0,21.3333333 C0,14.3306667 12.072,10.6666667 24,10.6666667 Z M42.6666667,49.6 C38.0373333,52.0586667 31.0026667,53.3333333 24,53.3333333 C16.9973333,53.3333333 9.96266667,52.0613333 5.33333333,49.6 L5.33333333,49.6 L5.33333333,53.3333333 C5.33333333,54.88 11.8746667,58.6666667 24,58.6666667 C36.1253333,58.6666667 42.6666667,54.88 42.6666667,53.3333333 L42.6666667,53.3333333 Z M42.6666667,38.9333333 C38.0373333,41.392 31.0026667,42.6666667 24,42.6666667 C16.9973333,42.6666667 9.96266667,41.3946667 5.33333333,38.9333333 L5.33333333,38.9333333 L5.33333333,42.6666667 C5.33333333,44.2133333 11.8746667,48 24,48 C36.1253333,48 42.6666667,44.2133333 42.6666667,42.6666667 L42.6666667,42.6666667 Z" id="Combined-Shape" fill="#2E3C43" fill-rule="nonzero"></path>
                </g>
                <g id="Group-2" transform="translate(36.333333, 5.000000)">
                    <g id="paperplane">
                        <polygon id="Frame_-_24px" points="0 0 24 0 24 24 0 24"></polygon>
                        <path d="M2.876,2.513 C3.90046686,2.513 5.37435398,3.142644 10.8450556,5.58141564 C14.7009859,7.30573366 18.552473,9.00315468 22.4129092,10.6793535 C22.652593,10.6105302 22.9019698,10.6096712 23.1354585,10.6701505 C23.422355,10.7444637 23.6852638,10.9113853 23.8767279,11.1586229 C24.068192,11.4058604 24.1640181,11.702173 24.1641796,11.9985378 C24.1643411,12.2949025 24.068838,12.5913194 23.8776435,12.8387655 C23.6864489,13.0862115 23.4237223,13.2534196 23.1369069,13.3280455 C22.9033618,13.3888111 22.6538449,13.3881914 22.4130587,13.3196652 C17.3442974,15.5188803 13.638014,17.1719472 10.9102985,18.3885539 C5.36567995,20.8610099 3.9001935,21.487 2.878,21.487 C1.83806172,21.487 1.32503299,20.859167 1.1565339,20.6509502 C0.842423017,20.2629334 0.66616566,19.7974904 0.632525406,19.3219585 C0.598885152,18.8464265 0.707862002,18.3608054 0.964440153,17.9320641 L0.964440153,17.9320641 L4.52368177,11.9999947 L0.963085484,6.06534356 C0.707122714,5.63695317 0.598332509,5.15147524 0.631963618,4.67607254 C0.665594726,4.20066983 0.841647148,3.73534234 1.15682667,3.34546171 C1.32992046,3.13401284 1.84297734,2.513 2.876,2.513 Z M15.427891,13.373 L6.90532736,13.373 L3.8595228,18.4496185 C4.95867537,18.0370276 6.84985406,17.1884404 9.70919044,15.9125467 C11.6134441,15.06177 13.5197075,14.2152411 15.427891,13.373 Z M3.90840902,5.57034095 L6.9065535,10.624 L15.4241681,10.624 C13.1639362,9.62761846 11.2839233,8.78996387 9.70912493,8.0874903 C6.89540174,6.83259354 5.01742512,5.99093485 3.90840902,5.57034095 Z" id="Line_Icons" stroke="#036FE2" stroke-width="0.75" fill="#036FE2" fill-rule="nonzero"></path>
                    </g>
                </g>
            </g>
        </g>
    </g>
</svg>