<svg xmlns="http://www.w3.org/2000/svg" width="32" height="32"><g fill="none" fill-rule="evenodd"><rect width="32" height="32" fill="#162945" rx="4"/><path d="M16 7c4.97 0 9 4.03 9 9s-4.03 9-9 9-9-4.03-9-9 4.03-9 9-9zm0 13h-2v2h2v-2zm.556-10h-1.334l-.183.005C13.345 10.1 12 11.504 12 13.222V14h2v-.778l.006-.125c.064-.616.584-1.097 1.216-1.097h1.334l.139.007c.732.07 1.305.687 1.305 1.437v.337l-.006.154c-.061.764-.573 1.426-1.31 1.672l-.314.104-.182.067C14.874 16.298 14 17.573 14 19h2l.007-.144c.056-.571.443-1.063.996-1.247l.313-.105.19-.068C19.004 16.85 20 15.403 20 13.78v-.337l-.005-.189c-.098-1.813-1.6-3.254-3.44-3.254z" fill="#FFF"/></g></svg>