
<svg width="24" height="24" xmlns="http://www.w3.org/2000/svg">
  <g fill="none" fill-rule="evenodd">
    <path d="M0 0h24v24H0z"/>
    <path d="M3 6.542c1.569.722 4.216.722 7.941 0 3.726-.723 7.412-.723 11.059 0v11.916c-3.54-.686-6.742-.72-9.609-.103l-.45.103a18.72 18.72 0 01-8.941 0V6.542zm2 10.333c1.999.301 3.993.237 5.994-.192l.956-.218c2.482-.536 5.167-.628 8.05-.284V8.175a26.534 26.534 0 00-8.667.268c-2.34.453-4.326.649-5.983.559L5 8.978v7.897z" fill="#2E3C43" fill-rule="nonzero"/>
  </g>
</svg>
