<svg xmlns="http://www.w3.org/2000/svg" viewBox="0 0 20 20">
  <g fill="none" fill-rule="evenodd">
    <path d="M-2-2h24v24H-2z"/>
    <path d="M2.083 3.667a1.583 1.583 0 111.584-1.584c0 .141-.025.276-.059.406l2.598 2.597-1.12 1.12L2.49 3.608c-.13.034-.265.059-.406.059zm0 7.916a1.583 1.583 0 010-3.166c.585 0 1.09.32 1.364.791H5.25v1.584H3.447c-.274.47-.78.791-1.364.791zm3.003 2.211l1.12 1.12-2.598 2.597c.034.13.059.266.059.406a1.583 1.583 0 11-1.584-1.584c.141 0 .276.025.406.06l2.597-2.599zm12.83-5.377a1.583 1.583 0 010 3.166c-.584 0-1.09-.32-1.363-.791H14.75V9.208h1.803c.274-.47.78-.791 1.364-.791zm-3.002-2.211l-1.12-1.12 2.598-2.597a1.591 1.591 0 01-.059-.406 1.583 1.583 0 111.584 1.584c-.141 0-.276-.025-.406-.059l-2.597 2.598zm3.003 10.127a1.583 1.583 0 11-1.584 1.584c0-.14.025-.276.059-.405l-2.598-2.598 1.12-1.12 2.597 2.599c.13-.035.265-.06.406-.06zM12.375 4.458A2.378 2.378 0 0110 6.833a2.378 2.378 0 01-2.375-2.375A2.378 2.378 0 0110 2.083a2.378 2.378 0 012.375 2.375zM10 5.25a.792.792 0 10-.002-1.585A.792.792 0 0010 5.25zm3.958 5.542v2.375a.791.791 0 01-.791.791h-.792v3.167a.791.791 0 01-.792.792H8.417a.791.791 0 01-.792-.792v-3.167h-.792a.791.791 0 01-.791-.791v-2.375A3.963 3.963 0 0110 6.833a3.963 3.963 0 013.958 3.959zm-1.583 1.583v-1.583A2.378 2.378 0 0010 8.417a2.378 2.378 0 00-2.375 2.375v1.583h.792c.437 0 .791.355.791.792v3.166h1.584v-3.166c0-.437.354-.792.791-.792h.792z" fill="#2E3C43" fill-rule="nonzero"/>
  </g>
</svg>
