<svg width="54" height="52" viewBox="0 0 54 52" xmlns="http://www.w3.org/2000/svg" xmlns:xlink="http://www.w3.org/1999/xlink">
  <defs>
    <path id="a" d="M0 0h32v31H0z"/>
  </defs>
  <g fill="none" fill-rule="evenodd">
    <g transform="translate(27 23)">
      <mask id="b" fill="#fff">
        <use xlink:href="#a"/>
      </mask>
      <g mask="url(#b)" fill="#047AE6">
        <path d="M12 4c5.514 0 10 4.486 10 10a9.932 9.932 0 01-1.666 5.506L26.828 26 24 28.828l-6.494-6.494A9.932 9.932 0 0112 24C6.486 24 2 19.514 2 14S6.486 4 12 4zm8-22c2.206 0 4 1.794 4 4V0h-4.004l.002-6H-16v24H0v4h-16c-2.206 0-4-1.792-4-4v-32c0-2.206 1.794-4 4-4zM12 8c-3.308 0-6 2.692-6 6s2.692 6 6 6 6-2.692 6-6-2.692-6-6-6zm-22-22h-6v4h6v-4zm30 0H4v4h16v-4zM0-14h-6v4h6v-4z"/>
      </g>
    </g>
    <path d="M0 .004h48v48H0z"/>
    <path d="M26 35.138c-2.132.506-4.8.862-8 .862-9.094 0-14-2.84-14-4v-2.8c3.472 1.844 8.748 2.8 14 2.8 2.75 0 5.5-.27 8-.784v-4.078c-2.132.506-4.8.862-8 .862-9.094 0-14-2.84-14-4v-2.8c3.472 1.844 8.748 2.8 14 2.8 5.252 0 10.528-.956 14-2.8V24h4V8c0-5.252-9.054-8-18-8S0 2.748 0 8v24c0 5.252 9.054 8 18 8 2.746 0 5.5-.262 8-.772v-4.09zM18 4c9.094 0 14 2.84 14 4 0 1.16-4.906 4-14 4C8.906 12 4 9.16 4 8c0-1.16 4.906-4 14-4zM4 13.2c3.472 1.844 8.748 2.8 14 2.8 5.252 0 10.528-.956 14-2.8V16c0 1.16-4.906 4-14 4-9.094 0-14-2.84-14-4v-2.8z" fill="#162945"/>
  </g>
</svg>
