<svg xmlns="http://www.w3.org/2000/svg" viewBox="0 0 24 24">
  <g fill="none" fill-rule="evenodd">
    <path d="M0 0h24v24H0z"/>
    <path d="M16 7.5c3.86 0 7 3.141 7 7 0 3.86-3.14 7-7 7H8c-2.757 0-5-2.243-5-5s2.243-5 5-5c.533 0 1.06.087 1.563.254A6.961 6.961 0 0116 7.5zm0 2a4.975 4.975 0 00-4.865 3.868 1 1 0 01-1.516.614A2.992 2.992 0 008 13.5c-1.654 0-3 1.346-3 3s1.346 3 3 3h8c2.757 0 5-2.243 5-5s-2.243-5-5-5zm-8-4c1.24 0 2.34.561 3.08 1.451A9.045 9.045 0 008.5 9.52c-.17-.01-.33-.02-.5-.02-1.41 0-2.73.42-3.83 1.141A3.978 3.978 0 014 9.5c0-2.21 1.79-4 4-4zm-5 3v2H1v-2h2zm9.279-4.62l1.414 1.415-1.415 1.413-1.414-1.414L12.28 3.88zm-8.485-.072l1.414 1.416-1.415 1.413L2.38 5.221l1.415-1.413zM9.051 2.5v2h-2v-2h2z" fill="#2E3C43" fill-rule="nonzero"/>
  </g>
</svg>