<svg xmlns="http://www.w3.org/2000/svg" viewBox="0 0 20 20">
  <g fill="none" fill-rule="evenodd">
    <path d="M-1.999-1.999h23.04v23.041h-23.04z"/>
    <path d="M8.862 6.892h1.969v.985H12.8v1.97H9.354a.493.493 0 000 .984h.984a2.465 2.465 0 012.462 2.461 2.467 2.467 0 01-1.97 2.413v1.033H8.863v-.984h-1.97v-1.97h3.446a.493.493 0 000-.984h-.984a2.465 2.465 0 01-2.462-2.462c0-1.188.847-2.182 1.97-2.41V6.891zM19.404 9.15a.985.985 0 01-.696 1.68h-1.97v7.878a.985.985 0 01-.984.984H3.938a.985.985 0 01-.984-.984V10.83H.984A.985.985 0 01.289 9.15L9.15.288a.984.984 0 011.392 0l8.862 8.862zm-3.65-.288h.577L9.846 2.378 3.361 8.862h.577c.544 0 .985.44.985.984v7.877h9.846V9.846c0-.543.441-.984.985-.984z" fill="#2E3C43" fill-rule="nonzero"/>
  </g>
</svg>
