<svg xmlns="http://www.w3.org/2000/svg" width="24" height="24"><g fill="#6f777c" fill-rule="evenodd"><path d="M19.62479056 8.6052018v1.23247462c0 3.99035704-3.01056246 7.28512029-6.88690758 7.77007652v3.9864382H10.7701951v-3.9864382c-.05459645-.00682858-.10902122-.01422048-.16326792-.02215613l1.92964214-1.92106594c2.63078-.34831516 4.7191265-2.42788586 5.06891156-5.04761061l2.01930968-2.01171847zm-9.8384394-6.60520186v2.93912868h3.93537576V1.99999994h1.96768788v2.93912868h1.96768788c.77443374 0 1.44564848.4470645 1.76655673 1.09621221l-1.76655673 1.75866145v-.89545454H5.8509754v.97970956h11.7215167l-1.96768788 1.95941912H5.8509754c0 2.62499657 1.73583768 4.8530251 4.1247603 5.6058839L8.4632134 16.9502968c-2.70070475-1.24182498-4.57992587-3.96073601-4.57992587-7.11262038V6.89854774c0-1.08159935.88250801-1.95941912 1.96768788-1.95941912h1.96768788V1.99999994h1.96768788z"/><path d="M2.00000012 20.61448158L20.6086345 2.08404575l1.39136538 1.38551853L3.39136555 22.00000007z"/></g></svg>