<svg xmlns="http://www.w3.org/2000/svg" viewBox="0 0 22 21">
  <g fill="none" fill-rule="evenodd">
    <path d="M-2-2.999h24v24.001H-2z"/>
    <path d="M16.203 8.383c-.375-3.21-2.92-5.69-6.078-6.083v3.417h2.625v5.653l-4.821 3.593-1.935-5.767H4V4.61a6.895 6.895 0 00-1.75 4.586c0 3.835 3.14 6.956 7 6.956a6.98 6.98 0 003.014-.675l.755 1.568a8.709 8.709 0 01-3.769.846c-4.825 0-8.75-3.9-8.75-8.695S4.425.5 9.25.5c4.443 0 8.18 3.303 8.69 7.683l-1.737.2zM11 7.457H8.375V2.3a6.971 6.971 0 00-2.625.88v4.277h1.506l1.565 4.666L11 10.5V7.457zm6.773 2.66c1.855 0 3.36 1.495 3.36 3.34 0 2.504-3.36 6.678-3.36 6.678s-3.36-4.174-3.36-6.678c0-1.845 1.504-3.34 3.36-3.34zm0 5.01c.927 0 1.68-.749 1.68-1.67 0-.922-.753-1.67-1.68-1.67-.928 0-1.68.748-1.68 1.67 0 .921.752 1.67 1.68 1.67z" fill="#2E3C43" fill-rule="nonzero"/>
  </g>
</svg>
