<svg width="15" height="15" viewBox="0 0 15 15" xmlns="http://www.w3.org/2000/svg">
  <path d="M14.276 12.39l-2.64-2.639a6.28 6.28 0 001.013-3.427 6.279 6.279 0 00-1.853-4.471A6.283 6.283 0 006.324 0c-1.69 0-3.277.658-4.471 1.852A6.284 6.284 0 000 6.324c0 1.69.658 3.278 1.853 4.472a6.28 6.28 0 004.471 1.852 6.271 6.271 0 003.427-1.011l2.64 2.639c.252.252.586.39.942.39s.691-.138.943-.39c.252-.251.39-.586.39-.943 0-.356-.138-.691-.39-.942zM2.796 9.853a4.955 4.955 0 01-1.463-3.528c0-1.333.52-2.586 1.462-3.528a4.955 4.955 0 013.529-1.463c1.333 0 2.586.52 3.529 1.463a4.955 4.955 0 011.462 3.528c0 1.333-.52 2.586-1.462 3.529a4.954 4.954 0 01-3.529 1.462 4.952 4.952 0 01-3.529-1.463z" fill="#6F777C" fill-rule="evenodd"/>
</svg>