<svg width="44" height="44" viewBox="0 0 44 44" xmlns="http://www.w3.org/2000/svg">
  <path d="M42.828 37.172l-7.918-7.918a18.84 18.84 0 003.036-10.282 18.836 18.836 0 00-5.558-13.414A18.848 18.848 0 0018.972 0 18.847 18.847 0 005.558 5.556 18.852 18.852 0 000 18.972c0 5.068 1.974 9.834 5.558 13.416 3.55 3.57 8.38 5.57 13.414 5.556a18.814 18.814 0 0010.282-3.034l7.918 7.918A3.973 3.973 0 0040 44a3.973 3.973 0 002.828-1.172A3.966 3.966 0 0044 40c0-1.07-.416-2.074-1.172-2.828zM8.386 29.556A14.864 14.864 0 014 18.972c0-4 1.558-7.758 4.386-10.584A14.864 14.864 0 0118.972 4c4 0 7.758 1.558 10.586 4.388a14.864 14.864 0 014.386 10.584c0 4-1.558 7.758-4.386 10.586a14.862 14.862 0 01-10.586 4.386c-4 0-7.758-1.556-10.586-4.388z" fill="currentColor" fill-rule="evenodd"/>
</svg>