<svg width="100px" viewBox="0 0 428 427" version="1.1" xmlns="http://www.w3.org/2000/svg" xmlns:xlink="http://www.w3.org/1999/xlink">
    <g id="Page-1" stroke="none" stroke-width="1" fill="none" fill-rule="evenodd">
            <path d="M355,424 C355,425.657 294.558,427 220,427 C145.442,427 85,425.657 85,424 C85,422.343 145.442,421 220,421 C294.558,421 355,422.343 355,424 Z" id="Shape" fill="#7FAEE3" fill-rule="nonzero"></path>
              <g class="marker marker--02">
              <path d="M266,279.5 C275.5,271.5 300,242.5 301.5,218 C303,193.5 297.5,179 285,168 C300.681,174.088 312,191.487 312,212 C312,232.513 281.681,273.412 266,279.5 Z" id="Shape" fill="#92C5FB" fill-rule="nonzero"></path>
              <path d="M291,210 C291,196.745 280.255,186 267,186 C253.745,186 243,196.745 243,210 C243,223.255 253.745,234 267,234 C280.255,234 291,223.255 291,210 Z" id="Shape" fill="#2E81D8" fill-rule="nonzero"></path>
              <path d="M265,235 C273.969,228.398 279.436,219.627 279.436,210 C279.436,200.373 273.969,191.602 265,185 C280.681,188.459 292,198.345 292,210 C292,221.655 280.681,231.541 265,235 Z" id="Shape" fill="#0972E3" fill-rule="nonzero"></path>
              <path d="M247.273,189.914 C258.223,178.908 275.982,178.908 286.932,189.914 C297.874,200.914 297.874,218.741 286.932,229.74 C275.982,240.747 258.223,240.747 247.273,229.74 C236.331,218.741 236.331,200.914 247.273,189.914 Z M251.113,193.735 C259.945,184.856 274.259,184.856 283.092,193.735 C291.932,202.621 291.932,217.034 283.092,225.92 C274.259,234.798 259.945,234.798 251.113,225.92 C242.273,217.034 242.273,202.621 251.113,193.735 Z" id="Shape" fill="#1785FB"></path>
              <path d="M265.51,283.304 L265.499,283.296 L265.469,283.275 L265.363,283.196 L265.249,283.113 C265.171,283.054 265.075,282.982 264.963,282.898 C264.849,282.813 264.719,282.714 264.572,282.603 C264.272,282.374 263.904,282.091 263.475,281.756 C262.201,280.759 260.389,279.302 258.218,277.443 C253.879,273.728 248.089,268.393 242.29,261.916 C230.804,249.088 218.804,231.251 218.804,212.373 C218.804,184.375 238.826,161.292 267.103,161.292 C295.374,161.292 315.401,184.375 315.401,212.373 C315.401,231.251 303.401,249.088 291.915,261.916 C286.116,268.393 280.326,273.728 275.987,277.443 C273.816,279.302 272.004,280.759 270.73,281.756 C270.092,282.254 269.589,282.637 269.242,282.898 C269.154,282.964 269.076,283.023 269.008,283.073 L268.842,283.196 L268.735,283.275 L268.706,283.296 L268.698,283.302 L268.695,283.304 C267.746,283.993 266.459,283.993 265.51,283.304 Z M267.103,166.708 C242.221,166.708 224.221,186.947 224.221,212.373 C224.221,229.139 235.017,245.672 246.325,258.303 C251.924,264.556 257.531,269.723 261.741,273.328 C263.844,275.129 265.593,276.536 266.812,277.489 L267.103,277.715 L267.393,277.489 C268.612,276.536 270.361,275.129 272.464,273.328 C276.674,269.723 282.281,264.556 287.88,258.303 C299.188,245.672 309.984,229.139 309.984,212.373 C309.984,186.947 291.979,166.708 267.103,166.708 Z" id="Shape" fill="#1785FB"></path>
            </g>
            <g transform="translate(26.000000, 185.000000)">
              <g class="cloud cloud--01">
                <path d="M38,34 C42.651,30.963 45.485,26.928 45.485,22.5 C45.485,18.072 42.651,14.037 38,11 C46.131,12.591 52,17.139 52,22.5 C52,27.861 46.131,32.409 38,34 Z" id="Shape" fill="#92C5FB" fill-rule="nonzero"></path>
                <path d="M10.295,14.237 C12.007,6.278 19.036,0.292 27.5,0.292 C33.942,0.292 39.548,3.774 42.614,8.931 C49.468,9.561 54.708,15.377 54.708,22.286 C54.708,28.143 51.65,31.608 48.641,33.487 C47.18,34.399 45.74,34.939 44.678,35.253 C44.142,35.411 43.69,35.516 43.36,35.582 C43.309,35.593 43.261,35.602 43.216,35.611 C43.114,35.63 43.028,35.645 42.959,35.656 C42.908,35.664 42.867,35.671 42.834,35.676 L42.792,35.682 L42.77,35.684 L42.767,35.685 C42.72,35.691 42.673,35.696 42.625,35.7 C42.554,35.705 42.483,35.708 42.413,35.708 L11.522,35.708 L11.496,35.708 L11.453,35.708 L11.38,35.707 C11.287,35.706 11.163,35.702 11.011,35.694 C10.709,35.678 10.294,35.644 9.803,35.573 C8.833,35.433 7.495,35.138 6.121,34.5 C4.738,33.859 3.253,32.838 2.116,31.222 C0.964,29.583 0.292,27.503 0.292,24.964 C0.292,19.158 4.824,14.587 10.295,14.237 Z M42.192,30.292 C42.221,30.286 42.254,30.28 42.29,30.272 C42.485,30.233 42.781,30.166 43.144,30.058 C43.879,29.841 44.837,29.476 45.772,28.892 C47.556,27.778 49.292,25.886 49.292,22.286 C49.292,17.785 45.603,14.127 41.066,14.297 C39.981,14.338 38.977,13.727 38.514,12.745 C36.549,8.574 32.35,5.708 27.5,5.708 C21.022,5.708 15.715,10.8 15.335,17.257 C15.289,18.043 14.903,18.771 14.277,19.249 C13.651,19.728 12.847,19.91 12.076,19.749 C8.804,19.063 5.708,21.566 5.708,24.964 C5.708,26.507 6.101,27.473 6.547,28.106 C7.008,28.762 7.653,29.24 8.401,29.587 C9.157,29.938 9.949,30.121 10.578,30.212 C10.885,30.256 11.136,30.276 11.3,30.285 C11.381,30.289 11.44,30.291 11.472,30.291 L11.485,30.292 L11.49,30.292 L11.495,30.292 L11.498,30.292 L11.522,30.292 L42.192,30.292 Z" id="Shape" fill="#1785FB"></path>
              </g>
            </g>
            <g transform="translate(317.000000, 55.000000)">
              <g class="cloud cloud--02">
                <path d="M81,68 C89.969,61.398 95.436,52.627 95.436,43 C95.436,33.373 89.969,24.602 81,18 C96.681,21.459 108,31.345 108,43 C108,54.655 96.681,64.541 81,68 Z" id="Shape" fill="#92C5FB" fill-rule="nonzero"></path>
                <path d="M55.5,0.292 C38.073,0.292 23.651,12.99 21.231,29.567 C10.107,28.939 0.292,37.65 0.292,49.125 C0.292,53.921 1.579,57.684 3.653,60.573 C5.708,63.438 8.414,65.277 11.009,66.457 C13.598,67.634 16.149,68.189 18.028,68.456 C18.276,68.491 18.514,68.521 18.74,68.547 C18.895,68.565 19.045,68.581 19.188,68.595 C19.351,68.611 19.506,68.625 19.653,68.637 C19.906,68.657 20.135,68.672 20.335,68.682 C20.619,68.697 20.847,68.704 21.011,68.707 C21.093,68.708 21.159,68.708 21.208,68.708 L21.267,68.708 L21.274,68.708 L87.456,68.708 C87.572,68.708 87.687,68.701 87.801,68.686 L87.456,66 C87.801,68.686 87.804,68.686 87.804,68.686 L87.815,68.684 L87.836,68.681 L87.901,68.672 C87.954,68.665 88.026,68.654 88.117,68.639 C88.297,68.61 88.549,68.567 88.864,68.505 C89.492,68.381 90.372,68.182 91.42,67.879 C93.506,67.275 96.312,66.24 99.142,64.509 C104.883,60.996 110.708,54.586 110.708,43.5 C110.708,29.936 99.81,18.732 86.004,18.327 C80.156,7.599 68.699,0.292 55.5,0.292 Z M87.815,63.191 C87.567,63.239 87.378,63.272 87.258,63.291 L21.261,63.291 L21.228,63.292 L21.209,63.292 L21.156,63.291 L21.1,63.291 C21.048,63.29 20.981,63.288 20.899,63.285 C20.819,63.283 20.724,63.279 20.618,63.273 C20.406,63.262 20.146,63.245 19.846,63.217 C19.754,63.208 19.657,63.199 19.557,63.188 C19.461,63.178 19.361,63.166 19.258,63.154 C19.107,63.136 18.95,63.115 18.787,63.092 C17.242,62.874 15.228,62.425 13.251,61.526 C11.281,60.63 9.422,59.323 8.054,57.416 C6.703,55.534 5.708,52.901 5.708,49.125 C5.708,40.177 14.072,33.406 23.095,35.258 C23.864,35.416 24.664,35.233 25.287,34.755 C25.911,34.277 26.296,33.552 26.343,32.768 C27.246,17.708 39.902,5.708 55.5,5.708 C67.18,5.708 77.227,12.474 81.911,22.214 C82.378,23.185 83.375,23.786 84.452,23.747 C96.032,23.321 105.292,32.46 105.292,43.5 C105.292,52.276 100.845,57.116 96.315,59.888 C94.008,61.299 91.679,62.165 89.913,62.676 C89.035,62.93 88.31,63.093 87.815,63.191 Z" id="Shape" fill="#1785FB"></path>
              </g>
            </g>
            <g transform="translate(0.000000, 52.000000)">
              <g class="plane">
                <polygon id="Shape" fill="#C9E3FF" fill-rule="nonzero" points="99.5 23 123 46 228.5 46 247 46 253 54.5 253 64 244.5 73.5 200 75 150.5 115 129 118 123 115 162 75 109 75 76 26.5"></polygon>
                <path d="M128,56 L118.5,46 L120.5,46 L231,46 L245,47 L251,51.5 L253.5,60 L247,71 C239.5,74.167 227.1,80.1 239.5,72.5 C253.5,66.5 246,56 240,56 L128,56 Z" id="Shape" fill="#ADD4FE" fill-rule="nonzero"></path>
                <polygon id="Shape" fill="#4A91DE" fill-rule="nonzero" points="164 4 142 7 169 46 195 44.5"></polygon>
                <polygon id="Shape" fill="#2E7BDB" fill-rule="nonzero" points="164.5 4 156 4 184.5 44 193.5 44"></polygon>
                <polygon id="Shape" fill="#ADD4FE" fill-rule="nonzero" points="125.5 114 129.5 117.5 163.5 80.5 164 75.5"></polygon>
                <path d="M165.209,0.834 C166.162,0.745 167.091,1.166 167.653,1.941 L197.639,43.313 L239.568,43.49 C248.502,43.526 255.822,50.591 256.171,59.514 C256.343,63.938 254.728,68.279 251.699,71.528 C248.668,74.781 244.465,76.683 240.021,76.828 L199.687,78.074 L151.597,117.44 C151.181,117.781 150.674,117.99 150.14,118.041 L122.269,120.713 C121.148,120.82 120.077,120.223 119.58,119.213 C119.083,118.202 119.263,116.99 120.032,116.167 L155.806,77.892 L108.608,77.494 C107.735,77.487 106.919,77.059 106.416,76.345 L72.254,27.841 C71.71,27.069 71.607,26.07 71.983,25.203 C72.359,24.337 73.159,23.729 74.094,23.599 L99.125,20.109 C99.984,19.99 100.849,20.289 101.45,20.914 L122.695,42.996 L162.779,43.165 L138.312,7.382 C137.77,6.59 137.688,5.571 138.096,4.702 C138.504,3.834 139.341,3.246 140.296,3.157 L165.209,0.834 Z M169.359,43.193 L190.928,43.284 L164.174,6.371 L145.38,8.123 L169.359,43.193 Z M250.759,59.726 C250.523,53.703 245.581,48.931 239.547,48.906 L121.526,48.408 C120.793,48.405 120.093,48.105 119.586,47.577 L98.504,25.665 L79.238,28.351 L110.044,72.089 L162.019,72.528 C163.094,72.537 164.061,73.18 164.485,74.168 C164.909,75.155 164.709,76.3 163.975,77.085 L128.875,114.638 L148.803,112.727 L196.968,73.299 C197.429,72.921 198.003,72.706 198.6,72.688 L239.845,71.414 C242.854,71.316 245.693,70.028 247.737,67.835 C249.784,65.639 250.874,62.703 250.759,59.726 Z" id="Shape" fill="#1785FB"></path>
                <path d="M83,6.5 C83,7.881 81.881,9 80.5,9 L35.5,9 C34.119,9 33,7.881 33,6.5 C33,5.119 34.119,4 35.5,4 L80.5,4 C81.881,4 83,5.119 83,6.5 Z" id="Shape" fill="#1785FB" fill-rule="nonzero"></path>
                <path d="M47.5,32 C48.881,32 50,30.881 50,29.5 C50,28.119 48.881,27 47.5,27 L2.5,27 C1.1193,27 0,28.119 0,29.5 C0,30.881 1.1193,32 2.5,32 L47.5,32 Z" id="Shape" fill="#1785FB" fill-rule="nonzero"></path>
                <path d="M73,56.5 C73,57.881 71.881,59 70.5,59 L35.5,59 C34.119,59 33,57.881 33,56.5 C33,55.119 34.119,54 35.5,54 L70.5,54 C71.881,54 73,55.119 73,56.5 Z" id="Shape" fill="#1785FB" fill-rule="nonzero"></path>
              </g>
            </g>
            <g id="truck" transform="translate(85.000000, 242.000000)">
              <g class="truck">
                <polygon id="Shape" fill="#92C5FB" fill-rule="nonzero" points="53 24 102 23.5 102 134 3.5 134 4 95.5 25 74.5"></polygon>
                <polygon id="Shape" fill="#4A91DE" fill-rule="nonzero" points="4 136 38.5 136 29 157 4 157"></polygon>
                <polygon id="Shape" fill="#4A91DE" fill-rule="nonzero" points="221 136 255.5 136 256 157 232 157"></polygon>
                <polygon id="Shape" fill="#4A91DE" fill-rule="nonzero" points="66 136 194.5 136 185 157 76 157"></polygon>
                <path d="M206,179 C212.976,173.058 217.228,165.164 217.228,156.5 C217.228,147.836 212.976,139.942 206,134 C218.196,137.113 227,146.01 227,156.5 C227,166.99 218.196,175.887 206,179 Z" id="Shape" fill="#92C5FB" fill-rule="nonzero"></path>
                <path d="M52,179 C58.976,173.058 63.228,165.164 63.228,156.5 C63.228,147.836 58.976,139.942 52,134 C64.196,137.113 73,146.01 73,156.5 C73,166.99 64.196,175.887 52,179 Z" id="Shape" fill="#92C5FB" fill-rule="nonzero"></path>
                <polygon id="Shape" fill="#FFFFFF" fill-rule="nonzero" points="64 47 80 47 80 80 48 80"></polygon>
                <polygon id="Shape" fill="#5A9AE2" fill-rule="nonzero" points="90 26 102 26 102 134 90 134"></polygon>
                <path d="M44,82 C44,79.791 45.791,78 48,78 L79,78 C81.209,78 83,79.791 83,82 C83,84.209 81.209,86 79,86 L48,86 C45.791,86 44,84.209 44,82 Z" id="Shape" fill="#5A9AE2" fill-rule="nonzero"></path>
                <polygon id="Shape" fill="#5A9AE2" fill-rule="nonzero" points="51 27 90 27 90 35 51 35"></polygon>
                <polygon id="Shape" fill="#2E7BDB" fill-rule="nonzero" points="4 137 38 137 38 144 4 144"></polygon>
                <polygon id="Shape" fill="#2E7BDB" fill-rule="nonzero" points="68 137 192 137 192 144 68 144"></polygon>
                <polygon id="Shape" fill="#2E7BDB" fill-rule="nonzero" points="222 137 256 137 256 144 222 144"></polygon>
                <path d="M102,4 L125.5,4 C125.5,4 166.5,61 182,60.5 C197.5,60 239,4 239,4 L256,4 L256,135 L102,135 L102,4 Z" id="Shape" fill="#C9E3FF" fill-rule="nonzero"></path>
                <polygon id="Shape" fill="#ADD4FE" fill-rule="nonzero" points="247 6 256 6 256 133 247 133"></polygon>
                <path d="M61.319,46.03 C61.779,45.115 62.716,44.538 63.739,44.538 L80.304,44.538 C81.8,44.538 83.013,45.751 83.013,47.247 L83.013,80.185 C83.013,81.681 81.8,82.893 80.304,82.893 L47.174,82.893 C46.234,82.893 45.361,82.406 44.868,81.606 C44.375,80.806 44.332,79.808 44.754,78.968 L61.319,46.03 Z M65.409,49.955 L51.568,77.477 L77.596,77.477 L77.596,49.955 L65.409,49.955 Z" id="Shape" fill="#1785FB"></path>
                <path d="M99.683,3.329 C99.683,1.833 100.896,0.621 102.391,0.621 L124.543,0.621 C126.038,0.621 127.251,1.833 127.251,3.329 C127.251,4.825 126.038,6.037 124.543,6.037 L105.1,6.037 L105.1,132.374 L254.292,132.374 L254.292,6.037 L240.662,6.037 C239.167,6.037 237.954,4.825 237.954,3.329 C237.954,1.833 239.167,0.621 240.662,0.621 L257,0.621 C258.496,0.621 259.708,1.833 259.708,3.329 L259.708,157.041 C259.708,158.537 258.496,159.749 257,159.749 L231.95,159.749 C231.356,165.134 228.983,170.362 224.831,174.489 C215.15,184.115 199.459,184.115 189.777,174.489 C185.625,170.362 183.252,165.134 182.658,159.749 L77.341,159.749 C76.747,165.134 74.374,170.362 70.222,174.489 C60.541,184.115 44.85,184.115 35.168,174.489 C31.016,170.362 28.643,165.134 28.049,159.749 L3,159.749 C1.504,159.749 0.292,158.537 0.292,157.041 L0.292,96.654 C0.292,95.933 0.579,95.242 1.09,94.734 L22.908,73.042 L50.331,23.967 C50.81,23.11 51.714,22.58 52.696,22.58 L99.683,22.58 L99.683,3.329 Z M254.292,154.333 L231.95,154.333 C231.356,148.948 228.983,143.721 224.831,139.593 C224.184,138.949 223.509,138.348 222.811,137.79 L254.292,137.79 L254.292,154.333 Z M68.202,137.79 L191.797,137.79 C191.099,138.348 190.424,138.949 189.777,139.593 C185.625,143.721 183.252,148.948 182.658,154.333 L77.341,154.333 C76.747,148.948 74.374,143.721 70.222,139.593 C69.575,138.949 68.9,138.348 68.202,137.79 Z M187.926,157.041 L187.926,157.071 C187.933,161.985 189.823,166.897 193.596,170.648 C201.165,178.173 213.443,178.173 221.012,170.648 C228.573,163.131 228.573,150.951 221.012,143.434 C213.443,135.909 201.165,135.909 193.596,143.434 C189.823,147.185 187.933,152.097 187.926,157.011 L187.926,157.041 Z M5.708,137.79 L37.188,137.79 C36.49,138.348 35.815,138.949 35.168,139.593 C31.016,143.721 28.643,148.948 28.049,154.333 L5.708,154.333 L5.708,137.79 Z M33.317,157.041 L33.317,157.092 C33.33,162 35.22,166.902 38.987,170.648 C46.556,178.173 58.834,178.173 66.403,170.648 C73.964,163.131 73.964,150.951 66.403,143.434 C58.834,135.909 46.556,135.909 38.987,143.434 C35.22,147.18 33.33,152.083 33.317,156.99 L33.317,157.041 Z M99.683,27.996 L54.285,27.996 L27.451,76.016 C27.328,76.236 27.175,76.438 26.996,76.616 L5.708,97.781 L5.708,132.374 L99.683,132.374 L99.683,27.996 Z" id="Shape" fill="#1785FB"></path>
              </g>
          </g>
    </g>
</svg>