<svg width="100px" viewBox="0 0 453 412" version="1.1" xmlns="http://www.w3.org/2000/svg" xmlns:xlink="http://www.w3.org/1999/xlink">
  <g id="Page-1" stroke="none" stroke-width="1" fill="none" fill-rule="evenodd">
    <g id="site-planning">
      <polygon id="Shape" fill="#FF7791" fill-rule="nonzero" points="134 225 146.5 181 101.5 181 78 225"></polygon>
      <path d="M281,225 L270.5,180.5 L250,179.5 C250,179.5 238,192.5 228,201 C218,209.5 208.5,213 208.5,213 L208.5,223.5 L281,225 Z" id="Shape" fill="#FF7791" fill-rule="nonzero"></path>
      <path d="M134.5,259 L134.5,227 L76.5,227 C76.5,229.5 77,233 77.5,240.5 C78,255 90,266.5 105,270.5 C117,273.5 129.167,264.667 134.5,259 Z" id="Shape" fill="#F75F7B" fill-rule="nonzero"></path>
      <path d="M281,256.924 L281,225 L337,225 C337,227.494 336.517,230.986 336.034,238.468 C335.552,252.933 323.966,264.406 309.483,268.396 C297.897,271.389 286.149,262.577 281,256.924 Z" id="Shape" fill="#FFD4DC" fill-rule="nonzero"></path>
      <path d="M281,258.924 L281,227 L208,227 C208,229.494 207.871,259.018 208.5,266.5 C208.5,266.5 214.621,276.01 233.5,280 C248.603,282.993 271.5,273 281,258.924 Z" id="Shape" fill="#F85F7C" fill-rule="nonzero"></path>
      <path d="M135,259.203 L135,227 L207.989,227 C207.989,229.516 208.118,259.298 207.489,266.845 C207.489,266.845 201.369,276.438 182.493,280.464 C167.392,283.483 144.499,273.402 135,259.203 Z" id="Shape" fill="#FFD4DC" fill-rule="nonzero"></path>
      <path d="M280.478,258.145 L284.983,263.65 C288.742,268.246 298.896,275.519 312.513,270.753 L315.486,279.247 C300.814,284.383 289.031,279.095 282.208,273.495 C278.739,277.584 273.743,281.322 268.504,284.243 C261.037,288.406 252.023,291.5 244,291.5 C225.226,291.5 213.965,285.469 207.593,279.929 C199.728,287.095 186.405,292.999 171.845,292.497 C163.752,292.218 155.059,289.46 147.618,285.304 C141.967,282.147 136.741,278.016 133.009,273.215 C127.386,277.377 121.375,279.614 115.84,280.505 C109.067,281.595 102.649,280.717 98.404,278.482 L102.596,270.518 C104.684,271.617 109.016,272.488 114.41,271.62 C119.666,270.774 125.599,268.318 130.886,263.251 L135.216,259.102 L137.99,264.419 C140.447,269.129 145.529,273.828 152.007,277.446 C158.441,281.04 165.748,283.282 172.155,283.503 C186.421,283.995 198.92,277.021 203.986,270.689 L207.353,266.48 L210.893,270.545 C214.573,274.769 223.852,282.5 244,282.5 C249.977,282.5 257.463,280.094 264.121,276.382 C270.902,272.601 275.785,268.053 277.433,264.574 L280.478,258.145 Z" id="Shape" fill="#FFBDC9"></path>
      <polygon id="Shape" fill="#FFE3E9" fill-rule="nonzero" points="123 304 213 304 213 370 123 370"></polygon>
      <polygon id="Shape" fill="#FFFFFF" fill-rule="nonzero" opacity="0.6" points="183.52 301.413 191.863 306.231 153.198 373.202 144.854 368.385"></polygon>
      <polygon id="Shape" fill="#FFBEC4" fill-rule="nonzero" points="125 305 212 305 212 316 125 316"></polygon>
      <path d="M120,371 L216,371 C216,375.418 212.418,379 208,379 L128,379 C123.582,379 120,375.418 120,371 Z" id="Shape" fill="#FFE3E9" fill-rule="nonzero"></path>
      <polygon id="Shape" fill="#FFBDC9" fill-rule="nonzero" points="237 304 291 304 291 405 237 405"></polygon>
      <polygon id="Shape" fill="#FF9FA9" fill-rule="nonzero" points="235 305 292 305 292 316 235 316"></polygon>
      <path d="M350,407.5 C350,409.985 271.65,412 175,412 C78.35,412 0,409.985 0,407.5 C0,405.015 78.35,403 175,403 C271.65,403 350,405.015 350,407.5 Z" id="Shape" fill="#FFB6C4" fill-rule="nonzero"></path>
      <path d="M382,406.5 C382,407.328 377.523,408 372,408 C366.477,408 362,407.328 362,406.5 C362,405.672 366.477,405 372,405 C377.523,405 382,405.672 382,406.5 Z" id="Shape" fill="#FFB6C4" fill-rule="nonzero"></path>
      <polygon id="Shape" fill="#FFE3E9" fill-rule="nonzero" points="90 365 99 365 99 404 90 404"></polygon>
      <path d="M420,342 C429.633,334.87 435.505,325.397 435.505,315 C435.505,304.603 429.633,295.13 420,288 C436.843,291.736 449,302.412 449,315 C449,327.588 436.843,338.264 420,342 Z" id="Shape" fill="#FFBDC9" fill-rule="nonzero"></path>
      <path d="M393,369 C395.99,366.623 397.812,363.466 397.812,360 C397.812,356.534 395.99,353.377 393,351 C398.227,352.245 402,355.804 402,360 C402,364.196 398.227,367.755 393,369 Z" id="Shape" fill="#FFBDC9" fill-rule="nonzero"></path>
      <g id="cloud01">
        <g transform="translate(460.00000, 0.000000)">
          <path d="M40,36 C44.983,32.303 48.02,27.391 48.02,22 C48.02,16.6091 44.983,11.6969 40,8 C48.712,9.937 55,15.473 55,22 C55,28.527 48.712,34.063 40,36 Z" id="Shape" fill="#FFBDC9" fill-rule="nonzero"></path>
          <path d="M10.889,14.6968 C12.67,6.4359 20.125,0.2916 29,0.2916 C35.765,0.2916 41.687,3.8676 44.919,9.2102 C52.103,9.8074 57.708,15.7394 57.708,22.928 C57.708,28.979 54.467,32.531 51.32,34.444 C49.787,35.375 48.278,35.927 47.165,36.247 C46.603,36.409 46.129,36.515 45.785,36.583 C45.612,36.616 45.471,36.641 45.367,36.657 C45.315,36.666 45.272,36.672 45.239,36.677 L45.196,36.683 L45.181,36.685 L45.174,36.686 L45.171,36.686 C45.127,36.692 45.083,36.696 45.038,36.7 C44.994,36.703 44.949,36.706 44.905,36.707 C44.879,36.708 44.852,36.708 44.826,36.708 L12.043,36.708 L12.017,36.708 C11.986,36.708 11.946,36.708 11.897,36.707 C11.802,36.706 11.672,36.702 11.514,36.694 C11.2,36.677 10.767,36.643 10.253,36.571 C9.24,36.428 7.842,36.128 6.407,35.48 C4.966,34.829 3.41,33.79 2.218,32.139 C1.005,30.46 0.292,28.319 0.292,25.696 C0.292,19.632 5.156,14.9937 10.889,14.6968 Z M44.613,31.292 L12.043,31.292 L12.017,31.292 L12.012,31.292 L12.008,31.292 L11.986,31.291 C11.95,31.291 11.885,31.289 11.795,31.284 L11.674,31.277 C11.616,31.273 11.553,31.268 11.485,31.262 C11.434,31.257 11.379,31.252 11.322,31.246 C11.225,31.235 11.12,31.223 11.008,31.207 C10.326,31.111 9.463,30.917 8.637,30.544 C7.817,30.173 7.111,29.663 6.609,28.967 C6.125,28.298 5.708,27.291 5.708,25.696 C5.708,22.211 9.011,19.473 12.68,20.221 C13.449,20.378 14.248,20.194 14.87,19.716 C15.493,19.238 15.878,18.514 15.925,17.731 C16.327,11.072 21.973,5.7083 29,5.7083 C34.254,5.7083 38.757,8.7301 40.851,13.0569 C41.319,14.0238 42.314,14.6227 43.388,14.5835 C48.372,14.4015 52.292,18.298 52.292,22.928 C52.292,26.652 50.447,28.635 48.506,29.815 C47.495,30.429 46.461,30.813 45.667,31.042 C45.549,31.076 45.438,31.106 45.333,31.133 C45.25,31.154 45.171,31.173 45.097,31.191 C44.958,31.223 44.839,31.248 44.742,31.267 C44.693,31.277 44.65,31.285 44.613,31.292 Z" id="Shape" fill="#C4334E"></path>
        </g>
      </g>
      <g id="cloud02">
        <g transform="translate(460.000000, 15.000000)">
          <path d="M80,68 C88.969,61.398 94.436,52.627 94.436,43 C94.436,33.373 88.969,24.602 80,18 C95.681,21.459 107,31.345 107,43 C107,54.655 95.681,64.541 80,68 Z" id="Shape" fill="#FFBDC9" fill-rule="nonzero"></path>
          <path d="M21.231,29.567 C23.651,12.99 38.073,0.2916 55.5,0.2916 C68.699,0.2916 80.156,7.599 86.004,18.327 C99.81,18.732 110.708,29.936 110.708,43.5 C110.708,54.586 104.883,60.996 99.142,64.509 C96.312,66.24 93.506,67.275 91.42,67.879 C90.865,68.04 90.356,68.171 89.908,68.277 C89.817,68.299 89.729,68.319 89.644,68.339 C89.354,68.405 89.092,68.46 88.864,68.505 C88.55,68.567 88.297,68.61 88.117,68.639 C88.027,68.654 87.954,68.665 87.901,68.672 L87.837,68.681 L87.815,68.684 L87.804,68.686 C87.804,68.686 87.804,68.686 87.8,68.66 L87.802,68.686 C87.743,68.693 87.684,68.699 87.625,68.703 C87.569,68.706 87.513,68.708 87.457,68.708 L21.274,68.708 L21.268,68.708 L21.208,68.708 C21.159,68.708 21.093,68.708 21.011,68.707 C20.847,68.704 20.619,68.697 20.335,68.682 C20.117,68.671 19.866,68.655 19.585,68.631 C19.135,68.594 18.61,68.538 18.028,68.456 C16.149,68.189 13.598,67.634 11.01,66.457 C8.415,65.277 5.708,63.438 3.653,60.573 C1.579,57.684 0.292,53.921 0.292,49.125 C0.292,37.65 10.107,28.939 21.231,29.567 Z M87.328,63.28 L87.415,63.265 C87.522,63.246 87.656,63.222 87.815,63.191 C88.31,63.093 89.035,62.93 89.913,62.676 C91.679,62.165 94.008,61.299 96.315,59.888 C100.845,57.116 105.292,52.276 105.292,43.5 C105.292,32.46 96.032,23.321 84.452,23.747 C83.375,23.786 82.378,23.185 81.911,22.214 C77.228,12.474 67.18,5.708 55.5,5.708 C39.902,5.708 27.247,17.708 26.343,32.768 C26.296,33.552 25.911,34.277 25.287,34.755 C24.664,35.233 23.864,35.416 23.095,35.258 C14.072,33.406 5.708,40.177 5.708,49.125 C5.708,52.901 6.704,55.534 8.054,57.416 C9.422,59.323 11.281,60.63 13.251,61.526 C15.229,62.425 17.242,62.874 18.788,63.092 C19.553,63.201 20.186,63.251 20.618,63.273 C20.706,63.278 20.786,63.281 20.856,63.284 C20.958,63.288 21.04,63.29 21.101,63.291 C21.152,63.291 21.189,63.292 21.209,63.292 L21.228,63.292 L21.261,63.291 L87.258,63.291 L87.328,63.28 Z" id="Shape" fill="#C4334E"></path>
        </g>
      </g>
      <g transform="translate(24.000000, 31.000000)">
        <path d="M67,43 C67,29.745 56.255,19 43,19 C29.745,19 19,29.745 19,43 C19,56.255 29.745,67 43,67 C56.255,67 67,56.255 67,43 Z" id="Shape" fill="#FFE8EC" fill-rule="nonzero"></path>
        <path d="M41,68 C49.969,61.398 55.436,52.627 55.436,43 C55.436,33.373 49.969,24.602 41,18 C56.681,21.459 68,31.345 68,43 C68,54.655 56.681,64.541 41,68 Z" id="Shape" fill="#FFBDC9" fill-rule="nonzero"></path>
        <g id="sun">
          <path d="M43,14.837 C27.446,14.837 14.837,27.446 14.837,43 C14.837,58.554 27.446,71.163 43,71.163 C58.554,71.163 71.163,58.554 71.163,43 C71.163,27.446 58.554,14.837 43,14.837 Z M20.254,43 C20.254,30.438 30.437,20.254 43,20.254 C55.562,20.254 65.746,30.438 65.746,43 C65.746,55.562 55.562,65.746 43,65.746 C30.437,65.746 20.254,55.562 20.254,43 Z" id="Shape" fill="#C4334E"></path>
          <path d="M43,73.019 C44.496,73.019 45.708,74.231 45.708,75.727 L45.708,83 C45.708,84.496 44.496,85.708 43,85.708 C41.504,85.708 40.292,84.496 40.292,83 L40.292,75.727 C40.292,74.231 41.504,73.019 43,73.019 Z" id="Shape" fill="#C4334E" fill-rule="nonzero"></path>
          <path d="M68.551,64.721 C67.494,63.664 65.779,63.664 64.721,64.721 C63.664,65.779 63.664,67.494 64.721,68.552 L70.176,74.006 C71.233,75.064 72.948,75.064 74.006,74.006 C75.064,72.948 75.064,71.234 74.006,70.176 L68.551,64.721 Z" id="Shape" fill="#C4334E" fill-rule="nonzero"></path>
          <path d="M73.019,43 C73.019,41.504 74.231,40.292 75.727,40.292 L83,40.292 C84.496,40.292 85.708,41.504 85.708,43 C85.708,44.496 84.496,45.708 83,45.708 L75.727,45.708 C74.231,45.708 73.019,44.496 73.019,43 Z" id="Shape" fill="#C4334E" fill-rule="nonzero"></path>
          <path d="M74.006,15.824 C75.064,14.767 75.064,13.052 74.006,11.994 C72.948,10.936 71.233,10.936 70.176,11.994 L64.721,17.449 C63.664,18.506 63.664,20.221 64.721,21.279 C65.779,22.336 67.494,22.336 68.551,21.279 L74.006,15.824 Z" id="Shape" fill="#C4334E" fill-rule="nonzero"></path>
          <path d="M43,0.292 C44.496,0.292 45.708,1.504 45.708,3 L45.708,10.273 C45.708,11.768 44.496,12.981 43,12.981 C41.504,12.981 40.292,11.768 40.292,10.273 L40.292,3 C40.292,1.504 41.504,0.292 43,0.292 Z" id="Shape" fill="#C4334E" fill-rule="nonzero"></path>
          <path d="M15.824,11.994 C14.766,10.936 13.052,10.936 11.994,11.994 C10.936,13.052 10.936,14.767 11.994,15.824 L17.448,21.279 C18.506,22.336 20.221,22.336 21.279,21.279 C22.336,20.221 22.336,18.506 21.279,17.449 L15.824,11.994 Z" id="Shape" fill="#C4334E" fill-rule="nonzero"></path>
          <path d="M0.292,43 C0.292,41.504 1.504,40.292 3,40.292 L10.273,40.292 C11.769,40.292 12.981,41.504 12.981,43 C12.981,44.496 11.769,45.708 10.273,45.708 L3,45.708 C1.504,45.708 0.292,44.496 0.292,43 Z" id="Shape" fill="#C4334E" fill-rule="nonzero"></path>
          <path d="M21.279,68.552 C22.336,67.494 22.336,65.779 21.279,64.721 C20.221,63.664 18.506,63.664 17.448,64.721 L11.994,70.176 C10.936,71.234 10.936,72.948 11.994,74.006 C13.052,75.064 14.766,75.064 15.824,74.006 L21.279,68.552 Z" id="Shape" fill="#C4334E" fill-rule="nonzero"></path>
        </g>
      </g>
      <g id="marker">
        <g transform="translate(160, 70)">
          <path d="M70.377,29.594 C59.123,18.35 40.877,18.35 29.622,29.594 C18.366,40.84 18.366,59.073 29.622,70.319 C40.877,81.563 59.123,81.563 70.377,70.319 C81.633,59.073 81.633,40.84 70.377,29.594 Z M33.451,66.487 C24.312,57.357 24.312,42.556 33.451,33.426 C42.59,24.295 57.409,24.295 66.549,33.426 C75.687,42.556 75.687,57.357 66.549,66.487 C57.409,75.618 42.59,75.618 33.451,66.487 Z" id="Shape" fill="#C4334E"></path>
          <g id="Group">
            <path d="M74.889,49.87 C74.889,36.062 63.92,24.87 50.389,24.87 C36.858,24.87 25.889,36.062 25.889,49.87 C25.889,63.677 36.858,74.87 50.389,74.87 C63.92,74.87 74.889,63.677 74.889,49.87 Z" id="Shape" fill="#FF7791" fill-rule="nonzero"></path>
            <path d="M50,119.5 C59.5,111.5 84,82.5 85.5,58 C87,33.5 81.5,19 69,8 C84.681,14.088 96,31.487 96,52 C96,72.513 65.681,113.412 50,119.5 Z" id="Shape" fill="#FFBDC9" fill-rule="nonzero"></path>
            <path d="M47.889,75.869 C57.19,69.004 62.86,59.881 62.86,49.87 C62.86,39.858 57.19,30.735 47.889,23.87 C64.151,27.467 75.889,37.748 75.889,49.87 C75.889,61.991 64.151,72.272 47.889,75.869 Z" id="Shape" fill="#F75F7B" fill-rule="nonzero"></path>
            <path d="M48.414,125.195 L48.402,125.187 L48.372,125.165 L48.263,125.085 C48.167,125.015 48.029,124.913 47.851,124.78 C47.494,124.513 46.975,124.12 46.319,123.61 C45.006,122.59 43.138,121.097 40.901,119.193 C36.43,115.388 30.463,109.924 24.488,103.291 C12.65,90.15 0.292,71.888 0.292,52.565 C0.292,23.893 20.917,0.292 50,0.292 C79.078,0.292 99.708,23.893 99.708,52.565 C99.708,71.888 87.35,90.15 75.512,103.291 C69.537,109.924 63.57,115.388 59.099,119.193 C56.862,121.097 54.994,122.59 53.681,123.61 C53.025,124.12 52.506,124.513 52.149,124.78 C51.971,124.913 51.833,125.015 51.738,125.085 L51.628,125.165 L51.598,125.187 L51.589,125.193 L51.586,125.195 C50.64,125.878 49.36,125.878 48.414,125.195 Z M50,5.708 C24.282,5.708 5.708,26.497 5.708,52.565 C5.708,69.764 16.85,86.719 28.512,99.666 C34.287,106.076 40.07,111.373 44.412,115.068 C46.581,116.914 48.385,118.356 49.642,119.333 L49.878,119.515 L50,119.61 C50.114,119.522 50.233,119.43 50.358,119.333 C51.615,118.356 53.419,116.914 55.589,115.068 C59.93,111.373 65.713,106.076 71.488,99.666 C83.15,86.719 94.292,69.764 94.292,52.565 C94.292,26.497 75.713,5.708 50,5.708 Z" id="Shape" fill="#C4334E"></path>
          </g>
        </g>
      </g>
      <path d="M120.335,303.75 C120.335,302.254 121.548,301.042 123.044,301.042 L213.131,301.042 C214.626,301.042 215.839,302.254 215.839,303.75 L215.839,371.25 C215.839,372.746 214.626,373.958 213.131,373.958 L123.044,373.958 C121.548,373.958 120.335,372.746 120.335,371.25 L120.335,303.75 Z M125.752,306.458 L125.752,368.542 L210.422,368.542 L210.422,306.458 L125.752,306.458 Z" id="Shape" fill="#C4334E"></path>
      <path d="M261.096,360 C261.096,355.397 264.834,351.667 269.435,351.667 C274.036,351.667 277.774,355.397 277.774,360 C277.774,364.618 274.033,368.333 269.435,368.333 C264.837,368.333 261.096,364.618 261.096,360 Z M269.435,357.083 C267.82,357.083 266.513,358.393 266.513,360 C266.513,361.615 267.817,362.917 269.435,362.917 C271.053,362.917 272.357,361.615 272.357,360 C272.357,358.393 271.05,357.083 269.435,357.083 Z" id="Shape" fill="#C4334E"></path>
      <path d="M98.1,178.788 C98.559,177.871 99.496,177.292 100.522,177.292 L167.011,177.292 C168.507,177.292 169.719,178.504 169.719,180 C169.719,181.496 168.507,182.708 167.011,182.708 L147.679,182.708 L137.774,222.292 L204.792,222.292 L204.792,212 C204.792,210.504 206.004,209.292 207.5,209.292 C208.996,209.292 210.208,210.504 210.208,212 L210.208,222.292 L277.226,222.292 L267.321,182.708 L247.989,182.708 C246.493,182.708 245.281,181.496 245.281,180 C245.281,178.504 246.493,177.292 247.989,177.292 L314.478,177.292 C315.504,177.292 316.441,177.871 316.9,178.788 L339.398,223.74 L339.413,223.769 L339.422,223.788 C339.509,223.962 339.577,224.144 339.624,224.329 C339.66,224.468 339.684,224.609 339.697,224.751 C339.705,224.834 339.708,224.917 339.708,225 L339.708,236.25 C339.708,251.444 330.408,264.464 317.187,269.942 L317.187,276.392 C321.846,274.127 327.079,272.857 332.609,272.857 C334.321,272.857 335.996,272.988 337.628,273.224 C345.722,261.225 359.414,253.292 375,253.292 C395.768,253.292 413.237,267.329 418.48,286.43 C420.236,286.088 422.052,285.9 423.913,285.9 C439.815,285.9 452.708,298.793 452.708,314.696 C452.708,330.605 439.815,343.491 423.913,343.491 C415.444,343.491 407.857,339.82 402.598,334.015 C394.975,339.939 385.411,343.491 375,343.491 C374.816,343.491 374.631,343.49 374.448,343.488 L374.448,376.635 L383.323,367.76 C381.861,365.713 381,363.207 381,360.5 C381,353.596 386.596,348 393.5,348 C400.404,348 406,353.596 406,360.5 C406,367.404 400.404,373 393.5,373 C391.266,373 389.17,372.414 387.355,371.388 L374.448,384.295 L374.448,406 L369.031,406 L369.031,343.095 C363.032,342.294 357.41,340.304 352.4,337.389 C346.759,341.221 339.955,343.491 332.609,343.491 C327.079,343.491 321.846,342.221 317.187,339.956 L317.187,405 C317.187,406.496 315.974,407.708 314.478,407.708 L100.522,407.708 C99.834,407.708 99.207,407.452 98.729,407.03 C98.305,407.149 97.917,407.249 97.571,407.331 C97.043,407.456 96.612,407.542 96.304,407.597 C96.15,407.625 96.027,407.646 95.938,407.66 L95.829,407.676 L95.795,407.681 L95.783,407.683 L95.778,407.683 L95.775,407.684 C95.703,407.694 95.631,407.7 95.558,407.704 C95.51,407.707 95.461,407.708 95.413,407.708 L35.53,407.708 L35.473,407.708 C35.428,407.708 35.367,407.708 35.292,407.707 C35.141,407.704 34.931,407.698 34.67,407.685 C34.151,407.657 33.425,407.6 32.56,407.477 C30.845,407.234 28.511,406.726 26.14,405.648 C23.762,404.567 21.273,402.878 19.3811,400.241 C17.4705,397.578 16.2917,394.12 16.2917,389.732 C16.2917,379.276 25.166,371.326 35.275,371.767 C37.582,356.756 50.687,345.292 66.5,345.292 C78.47,345.292 88.871,351.881 94.233,361.576 C95.439,361.566 96.637,361.595 97.813,361.679 L97.813,269.942 C84.592,264.464 75.292,251.444 75.292,236.25 L75.292,225 L75.292,224.95 C75.3,224.553 75.394,224.155 75.578,223.788 C75.586,223.772 75.594,223.756 75.602,223.74 L98.1,178.788 Z M311.77,336.693 C302.992,330.269 297.292,319.888 297.292,308.174 C297.292,296.459 302.992,286.079 311.77,279.655 L311.77,271.702 C309.027,272.36 306.163,272.708 303.218,272.708 C294.079,272.708 286.974,268.218 281.138,262.911 C272.345,274.923 257.217,283.958 241.283,283.958 C228.069,283.958 216.136,278.564 207.501,269.908 C198.865,278.574 186.93,283.958 173.718,283.958 C157.783,283.958 142.656,274.923 133.863,262.913 C128.032,268.221 120.919,272.708 111.783,272.708 C108.837,272.708 105.974,272.36 103.23,271.702 L103.23,402.292 L232.944,402.292 L232.944,303.75 C232.944,302.254 234.156,301.042 235.652,301.042 L291.957,301.042 C293.452,301.042 294.665,302.254 294.665,303.75 L294.665,402.292 L311.77,402.292 L311.77,336.693 Z M97.813,367.112 C96.224,366.979 94.517,366.962 92.704,367.029 C91.628,367.068 90.63,366.467 90.164,365.496 C85.968,356.77 76.966,350.708 66.5,350.708 C52.522,350.708 41.187,361.461 40.377,374.948 C40.33,375.732 39.945,376.457 39.322,376.935 C38.698,377.413 37.898,377.597 37.129,377.439 C29.121,375.794 21.708,381.805 21.708,389.732 C21.708,393.1 22.595,395.428 23.782,397.083 C24.988,398.763 26.629,399.92 28.382,400.717 C30.142,401.518 31.938,401.918 33.32,402.114 C34.004,402.211 34.569,402.255 34.953,402.275 C35.145,402.285 35.29,402.289 35.381,402.291 L35.437,402.292 L35.475,402.292 L35.484,402.292 L35.489,402.292 L95.203,402.292 L95.339,402.268 C95.385,402.259 95.437,402.25 95.493,402.239 C95.577,402.223 95.671,402.204 95.776,402.182 C95.846,402.167 95.921,402.151 96,402.134 C96.1,402.112 96.207,402.087 96.32,402.06 C96.567,402.002 96.843,401.932 97.144,401.848 C97.356,401.79 97.579,401.725 97.813,401.654 L97.813,367.112 Z M289.248,402.292 L289.248,306.458 L238.361,306.458 L238.361,402.292 L289.248,402.292 Z M210.208,227.708 L277.988,227.708 L277.988,257.954 C270.335,269.612 256.033,278.542 241.283,278.542 C228.993,278.542 217.948,273.28 210.208,264.908 L210.208,227.708 Z M283.404,227.708 L283.404,257.611 C289.151,263.154 295.382,267.292 303.218,267.292 C320.383,267.292 334.292,253.393 334.292,236.25 L334.292,227.708 L283.404,227.708 Z M272.905,182.708 L282.81,222.292 L332.616,222.292 L312.805,182.708 L272.905,182.708 Z M204.792,227.708 L137.013,227.708 L137.013,257.954 C144.666,269.612 158.967,278.542 173.718,278.542 C186.009,278.542 197.052,273.29 204.792,264.91 L204.792,227.708 Z M102.195,182.708 L142.095,182.708 L132.19,222.292 L82.384,222.292 L102.195,182.708 Z M80.708,227.708 L131.596,227.708 L131.596,257.613 C125.86,263.153 119.619,267.292 111.783,267.292 C94.617,267.292 80.708,253.393 80.708,236.25 L80.708,227.708 Z M341.24,277.614 C348.238,266.276 360.724,258.708 375,258.708 C394.123,258.708 410.079,272.24 413.833,290.257 C413.988,290.998 414.445,291.64 415.095,292.029 C415.744,292.417 416.527,292.516 417.252,292.302 C419.385,291.671 421.617,291.317 423.913,291.317 C436.824,291.317 447.292,301.785 447.292,314.696 C447.292,327.612 436.824,338.074 423.913,338.074 C416.218,338.074 409.411,334.342 405.141,328.584 C404.689,327.976 404.004,327.584 403.25,327.505 C402.497,327.425 401.744,327.664 401.176,328.165 C394.179,334.324 385.038,338.074 375,338.074 C367.17,338.074 359.885,335.781 353.734,331.86 C352.779,331.251 351.545,331.301 350.642,331.985 C345.617,335.794 339.384,338.074 332.609,338.074 C316.092,338.074 302.708,324.691 302.708,308.174 C302.708,291.657 316.092,278.274 332.609,278.274 C334.583,278.274 336.523,278.482 338.418,278.85 C339.524,279.065 340.648,278.573 341.24,277.614 Z M401,360.5 C401,364.642 397.642,368 393.5,368 C389.358,368 386,364.642 386,360.5 C386,356.358 389.358,353 393.5,353 C397.642,353 401,356.358 401,360.5 Z" id="Shape" fill="#C4334E"></path>
    </g>
  </g>
</svg>