<svg width="100" viewBox="0 0 453 412" xmlns="http://www.w3.org/2000/svg">
  <g fill="none" fill-rule="evenodd">
    <path fill="#2E81D8" fill-rule="nonzero" d="M134 225l12.5-44h-45L78 225zM281 225l-10.5-44.5-20.5-1s-12 13-22 21.5-19.5 12-19.5 12v10.5L281 225z"/>
    <path d="M134.5 259v-32h-58c0 2.5.5 6 1 13.5.5 14.5 12.5 26 27.5 30 12 3 24.17-5.83 29.5-11.5z" fill="#0972E3" fill-rule="nonzero"/>
    <path d="M281 256.92V225h56c0 2.5-.48 5.99-.97 13.47-.48 14.46-12.06 25.94-26.55 29.93-11.58 2.99-23.33-5.82-28.48-11.48z" fill="#C6E1FF" fill-rule="nonzero"/>
    <path d="M281 258.92V227h-73c0 2.5-.13 32.02.5 39.5 0 0 6.12 9.51 25 13.5 15.1 3 38-7 47.5-21.08z" fill="#036FE2" fill-rule="nonzero"/>
    <path d="M135 259.2V227h72.99c0 2.52.13 32.3-.5 39.85 0 0-6.12 9.59-25 13.61-15.1 3.02-38-7.06-47.49-21.26z" fill="#C6E1FF" fill-rule="nonzero"/>
    <path d="M280.48 258.14l4.5 5.51a24.84 24.84 0 0 0 27.53 7.1l2.98 8.5c-14.68 5.13-26.46-.15-33.28-5.75-3.47 4.08-8.47 7.82-13.7 10.74-7.47 4.17-16.49 7.26-24.51 7.26-18.77 0-30.03-6.03-36.4-11.57-7.87 7.17-21.2 13.07-35.75 12.57-8.1-.28-16.8-3.04-24.23-7.2-5.65-3.15-10.88-7.28-14.61-12.09a39.4 39.4 0 0 1-17.17 7.3c-6.77 1.09-13.2.2-17.44-2.03l4.2-7.96c2.08 1.1 6.42 1.97 11.81 1.1a30.88 30.88 0 0 0 16.48-8.37l4.33-4.15 2.77 5.32c2.46 4.7 7.54 9.4 14.02 13.03 6.43 3.59 13.74 5.83 20.15 6.05 14.26.5 26.76-6.48 31.83-12.81l3.36-4.21 3.54 4.06c3.68 4.23 12.96 11.96 33.11 11.96 5.98 0 13.46-2.4 20.12-6.12 6.78-3.78 11.67-8.33 13.31-11.8l3.05-6.44z" fill="#92C5FB"/>
    <path fill="#C9E3FF" fill-rule="nonzero" d="M123 304h90v66h-90z"/>
    <path fill="#FFF" fill-rule="nonzero" opacity=".6" d="M183.52 301.41l8.34 4.82-38.66 66.97-8.35-4.81z"/>
    <path fill="#ADD4FE" fill-rule="nonzero" d="M125 305h87v11h-87z"/>
    <path d="M120 371h96a8 8 0 0 1-8 8h-80a8 8 0 0 1-8-8z" fill="#C9E3FF" fill-rule="nonzero"/>
    <path fill="#92C5FB" fill-rule="nonzero" d="M237 304h54v101h-54z"/>
    <path fill="#5A9AE2" fill-rule="nonzero" d="M235 305h57v11h-57z"/>
    <path d="M350 407.5c0 2.49-78.35 4.5-175 4.5S0 409.99 0 407.5s78.35-4.5 175-4.5 175 2.01 175 4.5zM382 406.5c0 .83-4.48 1.5-10 1.5s-10-.67-10-1.5 4.48-1.5 10-1.5 10 .67 10 1.5z" fill="#7FAEE3" fill-rule="nonzero"/>
    <path fill="#C9E3FF" fill-rule="nonzero" d="M90 365h9v39h-9z"/>
    <path d="M420 342c9.63-7.13 15.5-16.6 15.5-27 0-10.4-5.87-19.87-15.5-27 16.84 3.74 29 14.41 29 27s-12.16 23.26-29 27zM393 369c2.99-2.38 4.81-5.53 4.81-9 0-3.47-1.82-6.62-4.81-9 5.23 1.25 9 4.8 9 9s-3.77 7.75-9 9z" fill="#92C5FB" fill-rule="nonzero"/>
    <g class="cloud--01">
      <path d="M500 36c4.98-3.7 8.02-8.6 8.02-14S504.98 11.7 500 8c8.71 1.94 15 7.47 15 14s-6.29 12.06-15 14z" fill="#92C5FB" fill-rule="nonzero"/>
      <path d="M470.89 14.7A18.44 18.44 0 0 1 489 .3c6.77 0 12.69 3.57 15.92 8.91 7.18.6 12.79 6.53 12.79 13.72 0 6.05-3.24 9.6-6.39 11.51a17.27 17.27 0 0 1-5.95 2.22l-.13.02h-.06a2.85 2.85 0 0 1-.27.03H471.9c-.1 0-.23 0-.39-.02a14.93 14.93 0 0 1-5.1-1.21c-1.44-.65-3-1.69-4.2-3.34a10.75 10.75 0 0 1-1.92-6.44c0-6.07 4.87-10.7 10.6-11zm33.72 16.6H472l-.2-.02h-.12l-.18-.02-.17-.01-.31-.04a8.87 8.87 0 0 1-2.37-.67 4.95 4.95 0 0 1-2.03-1.57 5.37 5.37 0 0 1-.9-3.27c0-3.49 3.3-6.23 6.97-5.48a2.7 2.7 0 0 0 3.24-2.49A12.96 12.96 0 0 1 489 5.71c5.25 0 9.76 3.02 11.85 7.35a2.7 2.7 0 0 0 2.54 1.52 8.47 8.47 0 0 1 8.9 8.35 7.5 7.5 0 0 1-3.78 6.89 11.9 11.9 0 0 1-3.18 1.31l-.23.06-.36.08-.13.02z" fill="#1785FB"/>
    </g>
    <g class="cloud--02">
      <path d="M540 83c8.97-6.6 14.44-15.37 14.44-25S548.97 39.6 540 33c15.68 3.46 27 13.34 27 25s-11.32 21.54-27 25z" fill="#92C5FB" fill-rule="nonzero"/>
      <path d="M481.23 44.57c2.42-16.58 16.84-29.28 34.27-29.28 13.2 0 24.66 7.3 30.5 18.04 13.81.4 24.7 11.6 24.7 25.17 0 11.09-5.82 17.5-11.56 21a32 32 0 0 1-9.23 3.78l-.27.06a27.67 27.67 0 0 1-1.74.33l-.06.01h-.03l-.01-.02v.03a3.53 3.53 0 0 1-.34.02H481a19.83 19.83 0 0 1-1.43-.08 27.19 27.19 0 0 1-8.57-2.17 18.16 18.16 0 0 1-7.36-5.89c-2.07-2.89-3.36-6.65-3.36-11.44 0-11.48 9.82-20.2 20.94-19.56zm66.1 33.71l.08-.02a23.34 23.34 0 0 0 2.5-.58c1.77-.52 4.1-1.38 6.4-2.8 4.53-2.76 8.98-7.6 8.98-16.38 0-11.04-9.26-20.18-20.84-19.75a2.7 2.7 0 0 1-2.54-1.54 29.25 29.25 0 0 0-26.41-16.5c-15.6 0-28.25 12-29.16 27.06a2.7 2.7 0 0 1-3.25 2.49c-9.02-1.85-17.38 4.92-17.38 13.87 0 3.77 1 6.4 2.34 8.29a12.76 12.76 0 0 0 5.2 4.1 20.5 20.5 0 0 0 7.37 1.75l.24.01.24.01h66.16l.07-.01z" fill="#1785FB"/>
    </g>
    <g transform="translate(24.000000, 31.000000)">
      <path d="M91 74a24 24 0 1 0-48 0 24 24 0 0 0 48 0z" fill="#C9E3FF" fill-rule="nonzero"/>
      <path d="M65 99c8.97-6.6 14.44-15.37 14.44-25S73.97 55.6 65 49c15.68 3.46 27 13.34 27 25S80.68 95.54 65 99z" fill="#92C5FB" fill-rule="nonzero"/>
      <g class="sun">
        <path d="M67 45.84a28.16 28.16 0 1 0 0 56.32 28.16 28.16 0 0 0 0-56.32zM44.25 74a22.75 22.75 0 1 1 45.5 0 22.75 22.75 0 0 1-45.5 0z" fill="#1785FB"/>
        <path d="M67 104.02a2.7 2.7 0 0 1 2.7 2.7V114a2.7 2.7 0 1 1-5.4 0v-7.27a2.7 2.7 0 0 1 2.7-2.71zM92.55 95.72a2.7 2.7 0 0 0-3.83 3.83l5.46 5.46a2.7 2.7 0 1 0 3.83-3.83l-5.46-5.46zM97.02 74a2.7 2.7 0 0 1 2.7-2.7H107a2.7 2.7 0 1 1 0 5.4h-7.27a2.7 2.7 0 0 1-2.71-2.7zM98 46.82A2.7 2.7 0 1 0 94.19 43l-5.46 5.46a2.7 2.7 0 0 0 3.83 3.83l5.46-5.46zM67 31.3a2.7 2.7 0 0 1 2.7 2.7v7.27a2.7 2.7 0 0 1-5.4 0V34a2.7 2.7 0 0 1 2.7-2.7zM39.82 43A2.7 2.7 0 1 0 36 46.81l5.46 5.46a2.71 2.71 0 0 0 3.83-3.83l-5.46-5.46zM24.3 74a2.7 2.7 0 0 1 2.7-2.7h7.27a2.7 2.7 0 1 1 0 5.4H27a2.7 2.7 0 0 1-2.7-2.7zM45.28 99.55a2.71 2.71 0 0 0-3.83-3.83l-5.46 5.46a2.7 2.7 0 1 0 3.83 3.83l5.46-5.46z" fill="#1785FB" fill-rule="nonzero"/>
      </g>
    </g>
    <g class="marker">
      <path d="M230.38 99.6a28.84 28.84 0 0 0-40.76 0 28.78 28.78 0 0 0 0 40.72 28.84 28.84 0 0 0 40.76 0 28.78 28.78 0 0 0 0-40.73zm-36.93 36.89a23.36 23.36 0 0 1 0-33.06 23.42 23.42 0 0 1 33.1 0 23.36 23.36 0 0 1 0 33.06 23.42 23.42 0 0 1-33.1 0z" fill="#1785FB"/>
      <path d="M234.89 119.87c0-13.8-10.97-25-24.5-25s-24.5 11.2-24.5 25 10.97 25 24.5 25 24.5-11.2 24.5-25z" fill="#2E81D8" fill-rule="nonzero"/>
      <path d="M210 189.5c9.5-8 34-37 35.5-61.5s-4-39-16.5-50c15.68 6.09 27 23.49 27 44s-30.32 61.41-46 67.5z" fill="#92C5FB" fill-rule="nonzero"/>
      <path d="M207.89 145.87c9.3-6.87 14.97-15.99 14.97-26s-5.67-19.13-14.97-26c16.26 3.6 28 13.88 28 26s-11.74 22.4-28 26z" fill="#0972E3" fill-rule="nonzero"/>
      <path d="M208.41 195.2v-.01l-.04-.02-.1-.08a46.38 46.38 0 0 1-1.95-1.48 175.24 175.24 0 0 1-21.83-20.32c-11.84-13.14-24.2-31.4-24.2-50.72 0-28.68 20.63-52.28 49.71-52.28 29.08 0 49.7 23.6 49.7 52.27 0 19.33-12.35 37.59-24.19 50.73a175.24 175.24 0 0 1-23.77 21.8l-.11.07-.03.03h-.01c-.95.69-2.23.69-3.18 0zM210 75.7c-25.72 0-44.3 20.8-44.3 46.86 0 17.2 11.15 34.16 22.81 47.1a169.9 169.9 0 0 0 21.13 19.67l.24.18.12.1.36-.28a170.02 170.02 0 0 0 21.13-19.67c11.66-12.94 22.8-29.9 22.8-47.1 0-26.06-18.58-46.85-44.29-46.85z" fill="#1785FB"/>
    </g>
    <path d="M120.33 303.75a2.7 2.7 0 0 1 2.71-2.7h90.1a2.7 2.7 0 0 1 2.7 2.7v67.5a2.7 2.7 0 0 1-2.7 2.7h-90.1a2.7 2.7 0 0 1-2.7-2.7v-67.5zm5.42 2.7v62.1h84.67v-62.1h-84.67zM261.1 360a8.34 8.34 0 1 1 16.67.01 8.34 8.34 0 0 1-16.67-.01zm8.33-2.92a2.92 2.92 0 1 0 0 5.85 2.92 2.92 0 0 0 0-5.85z" fill="#1785FB"/>
    <path d="M98.1 178.79a2.7 2.7 0 0 1 2.42-1.5h66.5a2.7 2.7 0 1 1 0 5.42h-19.34l-9.9 39.58h67.01V212a2.7 2.7 0 1 1 5.42 0v10.3h67.02l-9.9-39.6h-19.34a2.7 2.7 0 1 1 0-5.4h66.49a2.7 2.7 0 0 1 2.42 1.49l22.5 44.95.01.03.01.02a2.7 2.7 0 0 1 .29 1.21v11.25c0 15.2-9.3 28.21-22.52 33.7v6.44a35.18 35.18 0 0 1 20.44-3.17A45 45 0 0 1 375 253.3a45.1 45.1 0 0 1 43.48 33.14 28.8 28.8 0 1 1 5.43 57.06 28.68 28.68 0 0 1-21.31-9.48 44.81 44.81 0 0 1-28.15 9.48v33.14l8.87-8.87a12.5 12.5 0 1 1 4.03 3.63l-12.9 12.9V406h-5.42v-62.9c-6-.8-11.62-2.8-16.63-5.71a35.18 35.18 0 0 1-35.21 2.57V405a2.7 2.7 0 0 1-2.71 2.7H100.52a2.7 2.7 0 0 1-1.8-.67 29.4 29.4 0 0 1-2.78.63l-.11.02h-.05a2.61 2.61 0 0 1-.37.03H35.3a20.78 20.78 0 0 1-2.73-.23 23.73 23.73 0 0 1-6.42-1.83 16.69 16.69 0 0 1-6.76-5.4c-1.9-2.67-3.09-6.13-3.09-10.52 0-10.45 8.88-18.4 18.98-17.96 2.31-15.01 15.42-26.48 31.23-26.48a31.64 31.64 0 0 1 27.73 16.29c1.2-.01 2.4.02 3.58.1v-91.74a36.47 36.47 0 0 1-22.52-33.69v-11.3a2.71 2.71 0 0 1 .31-1.21l22.5-44.95zm213.67 157.9a35.27 35.27 0 0 1-14.48-28.52c0-11.71 5.7-22.1 14.48-28.52v-7.95c-2.74.66-5.6 1-8.55 1-9.14 0-16.25-4.48-22.08-9.79-8.8 12.01-23.92 21.05-39.86 21.05a47.58 47.58 0 0 1-33.78-14.05 47.54 47.54 0 0 1-33.78 14.05c-15.94 0-31.06-9.04-39.86-21.05-5.83 5.31-12.94 9.8-22.08 9.8-2.94 0-5.8-.35-8.55-1v130.58h129.71v-98.54a2.7 2.7 0 0 1 2.71-2.7h56.3a2.7 2.7 0 0 1 2.72 2.7v98.54h17.1v-65.6zM97.81 367.11c-1.59-.13-3.3-.15-5.1-.08a2.7 2.7 0 0 1-2.55-1.53 26.21 26.21 0 0 0-23.66-14.8c-13.98 0-25.31 10.76-26.12 24.25a2.7 2.7 0 0 1-3.25 2.49c-8-1.65-15.42 4.37-15.42 12.3 0 3.36.88 5.69 2.07 7.34a11.3 11.3 0 0 0 4.6 3.64 18.3 18.3 0 0 0 7 1.57H95.2l.14-.02.15-.03.29-.06.22-.05a18.5 18.5 0 0 0 1.81-.48v-34.54zm191.44 35.18v-95.83h-50.89v95.83h50.89zM210.2 227.71h67.78v30.24c-7.66 11.66-21.96 20.6-36.7 20.6a42.2 42.2 0 0 1-31.08-13.64v-37.2zm73.2 0v29.9c5.74 5.54 11.97 9.68 19.8 9.68a31.06 31.06 0 0 0 31.08-31.04v-8.54H283.4zm-10.5-45l9.9 39.58h49.8l-19.8-39.58h-39.9zm-68.12 45h-67.78v30.24c7.66 11.66 21.96 20.6 36.7 20.6 12.3 0 23.34-5.26 31.08-13.64v-37.2zm-102.6-45h39.9l-9.9 39.58h-49.8l19.8-39.58zm-21.48 45h50.89v29.9c-5.74 5.54-11.98 9.68-19.82 9.68a31.06 31.06 0 0 1-31.07-31.04v-8.54zm260.53 49.9a39.62 39.62 0 0 1 33.76-18.9 39.68 39.68 0 0 1 38.83 31.55 2.71 2.71 0 0 0 3.42 2.04 23.38 23.38 0 1 1 6.66 45.77c-7.7 0-14.5-3.73-18.77-9.49a2.7 2.7 0 0 0-3.96-.41 39.46 39.46 0 0 1-47.45 3.69 2.7 2.7 0 0 0-3.09.13 29.74 29.74 0 0 1-18.03 6.08 29.9 29.9 0 1 1 5.8-59.22 2.7 2.7 0 0 0 2.83-1.24zM401 360.5a7.5 7.5 0 1 1-15 0 7.5 7.5 0 0 1 15 0z" fill="#1785FB"/>
  </g>
</svg>
