<svg width="100px" viewBox="0 0 396 438" version="1.1" xmlns="http://www.w3.org/2000/svg" xmlns:xlink="http://www.w3.org/1999/xlink">
    <g id="Page-1" stroke="none" stroke-width="1" fill="none" fill-rule="evenodd">
            <polygon id="Shape" fill="#4A91DE" fill-rule="nonzero" points="139.5 144 225.5 83 225.5 282.5 138 341"></polygon>
            <polygon id="Shape" fill="#CEE9FF" fill-rule="nonzero" points="310.514 144 226 83 226 282.5 313 341"></polygon>
            <polygon id="Shape" fill="#2E7BDB" fill-rule="nonzero" points="200 103.5 225 85 225 281 200.5 297.5"></polygon>
            <polygon id="Shape" fill="#2E7BDB" fill-rule="nonzero" points="200 100 200 113.5 141.649 157.554 141.649 144"></polygon>
            <polygon id="Shape" fill="#CEE9FF" fill-rule="nonzero" points="137.543 144 54 83 54 282.5 140 341"></polygon>
            <polygon id="Shape" fill="#B4D5FF" fill-rule="nonzero" points="311.582 145.48 312.193 158.922 227.565 100.238 226.884 85.246"></polygon>
            <path d="M230.665,281.389 C232.107,283.413 231.635,286.223 229.611,287.665 L146.111,347.165 C144.087,348.607 141.277,348.135 139.835,346.111 C138.393,344.087 138.865,341.277 140.889,339.835 L224.389,280.335 C226.413,278.893 229.223,279.365 230.665,281.389 Z" id="Shape" fill="#92C5FB"></path>
            <polygon id="Shape" fill="#B4D5FF" fill-rule="nonzero" points="137.189 143.196 137.7 154.565 51.62 94.587 56.5 85"></polygon>
            <path d="M211,241.022 C211,260.196 187,278 187,278 C187,278 163,260.196 163,241.022 C163,226.652 173.008,215 187,215 C200.989,215 211,226.652 211,241.022 Z" id="Shape" fill="#FFFFFF" fill-rule="nonzero"></path>
            <path d="M186,276 C190.957,271.91 203.739,257.085 204.522,244.561 C205.304,232.036 202.435,224.623 195.913,219 C204.094,222.112 210,231.007 210,241.493 C210,251.98 194.181,272.888 186,276 Z" id="Shape" fill="#92C5FB" fill-rule="nonzero"></path>
            <path d="M196.531,240 C196.531,233.638 191.487,228.48 185.265,228.48 C179.044,228.48 174,233.638 174,240 C174,246.362 179.044,251.52 185.265,251.52 C191.487,251.52 196.531,246.362 196.531,240 Z" id="Shape" fill="#2E81D8" fill-rule="nonzero"></path>
            <path d="M184.327,252 C188.536,248.831 191.103,244.621 191.103,240 C191.103,235.379 188.536,231.169 184.327,228 C191.687,229.66 197,234.405 197,240 C197,245.595 191.687,250.34 184.327,252 Z" id="Shape" fill="#0972E3" fill-rule="nonzero"></path>
            <path d="M121,197.261 C121,217.348 95.5,236 95.5,236 C95.5,236 70,217.348 70,197.261 C70,182.207 80.633,170 95.5,170 C110.364,170 121,182.207 121,197.261 Z" id="Shape" fill="#FFFFFF" fill-rule="nonzero"></path>
            <path d="M95,233 C99.956,228.767 112.739,213.421 113.522,200.457 C114.304,187.493 111.435,179.82 104.913,174 C113.094,177.221 119,186.428 119,197.282 C119,208.137 103.181,229.778 95,233 Z" id="Shape" fill="#92C5FB" fill-rule="nonzero"></path>
            <path d="M105.53,196 C105.53,189.637 100.487,184.48 94.265,184.48 C88.044,184.48 83,189.637 83,196 C83,202.362 88.044,207.52 94.265,207.52 C100.487,207.52 105.53,202.362 105.53,196 Z" id="Shape" fill="#2E81D8" fill-rule="nonzero"></path>
            <path d="M93.326,208 C97.536,204.831 100.102,200.62 100.102,196 C100.102,191.379 97.536,187.169 93.326,184 C100.687,185.66 106,190.405 106,196 C106,201.594 100.687,206.339 93.326,208 Z" id="Shape" fill="#0972E3" fill-rule="nonzero"></path>
            <path d="M293,220.848 C293,240.63 268,259 268,259 C268,259 243,240.63 243,220.848 C243,206.022 253.425,194 268,194 C282.572,194 293,206.022 293,220.848 Z" id="Shape" fill="#FFFFFF" fill-rule="nonzero"></path>
            <path d="M267,256 C271.957,251.839 284.739,236.753 285.522,224.009 C286.304,211.265 283.435,203.722 276.913,198 C285.094,201.167 291,210.217 291,220.888 C291,231.559 275.181,252.833 267,256 Z" id="Shape" fill="#92C5FB" fill-rule="nonzero"></path>
            <path d="M277.531,219 C277.531,212.638 272.487,207.48 266.265,207.48 C260.044,207.48 255,212.638 255,219 C255,225.362 260.044,230.52 266.265,230.52 C272.487,230.52 277.531,225.362 277.531,219 Z" id="Shape" fill="#2E81D8" fill-rule="nonzero"></path>
            <path d="M265.327,231 C269.536,227.831 272.103,223.621 272.103,219 C272.103,214.379 269.536,210.169 265.327,207 C272.687,208.66 278,213.405 278,219 C278,224.595 272.687,229.34 265.327,231 Z" id="Shape" fill="#0972E3" fill-rule="nonzero"></path>
            <path d="M382,436 C382,437.105 369.016,438 353,438 C336.984,438 324,437.105 324,436 C324,434.895 336.984,434 353,434 C369.016,434 382,434.895 382,436 Z" id="Shape" fill="#7FAEE3" fill-rule="nonzero"></path>
            <path d="M70,428 C70,429.105 57.016,430 41,430 C24.984,430 12,429.105 12,428 C12,426.895 24.984,426 41,426 C57.016,426 70,426.895 70,428 Z" id="shadow" fill="#7FAEE3" fill-rule="nonzero"></path>
            <path d="M177.572,229.968 C181.457,225.977 187.143,224.964 191.943,226.929 C193.576,227.597 195.106,228.61 196.428,229.968 C197.735,231.311 198.715,232.864 199.365,234.52 C201.307,239.462 200.328,245.331 196.428,249.337 C191.221,254.685 182.779,254.685 177.572,249.337 C172.365,243.988 172.365,235.317 177.572,229.968 Z M192.547,233.746 C195.707,236.992 195.707,242.313 192.547,245.558 C189.466,248.722 184.534,248.722 181.453,245.558 C178.293,242.313 178.293,236.992 181.453,233.746 C184.534,230.582 189.466,230.582 192.547,233.746 Z" id="Shape" fill="#1785FB"></path>
            <path d="M185.378,280.169 L185.385,280.174 C186.343,280.885 187.655,280.886 188.614,280.175 L187,278 C188.614,280.175 188.617,280.173 188.617,280.173 L188.622,280.169 L188.64,280.156 L188.7,280.11 C188.752,280.071 188.825,280.015 188.92,279.943 C189.108,279.798 189.38,279.587 189.722,279.314 C190.406,278.767 191.375,277.971 192.533,276.957 C194.847,274.932 197.938,272.023 201.037,268.486 C207.13,261.532 213.708,251.643 213.708,241.022 C213.708,225.424 202.739,212.292 187,212.292 C171.258,212.292 160.292,225.424 160.292,241.022 C160.292,251.643 166.87,261.532 172.963,268.486 C176.062,272.023 179.153,274.932 181.467,276.957 C182.625,277.971 183.594,278.767 184.278,279.314 C184.62,279.587 184.892,279.798 185.08,279.943 C185.174,280.015 185.248,280.071 185.3,280.11 L185.36,280.156 L185.378,280.169 Z M165.708,241.022 C165.708,227.881 174.758,217.708 187,217.708 C199.24,217.708 208.292,227.881 208.292,241.022 C208.292,249.574 202.87,258.174 196.963,264.916 C194.062,268.227 191.153,270.968 188.967,272.88 C188.212,273.54 187.547,274.099 187,274.548 C186.689,274.293 186.339,274.002 185.957,273.677 C185.667,273.431 185.358,273.165 185.033,272.88 C182.847,270.968 179.938,268.227 177.037,264.916 C171.13,258.174 165.708,249.574 165.708,241.022 Z" id="Shape" fill="#1785FB"></path>
            <path d="M95.5,172.708 C82.349,172.708 72.708,183.473 72.708,197.26 C72.708,206.256 78.489,215.291 84.774,222.364 C87.862,225.838 90.958,228.713 93.285,230.721 C94.144,231.462 94.896,232.083 95.5,232.569 C96.104,232.083 96.856,231.462 97.715,230.721 C100.042,228.713 103.138,225.838 106.225,222.364 C112.51,215.291 118.292,206.256 118.292,197.26 C118.292,183.473 108.648,172.708 95.5,172.708 Z M95.5,236 C93.901,238.186 93.9,238.185 93.9,238.185 L93.898,238.183 L93.874,238.165 L93.81,238.118 C93.755,238.078 93.678,238.019 93.578,237.944 C93.378,237.793 93.091,237.572 92.728,237.286 C92.003,236.715 90.976,235.883 89.746,234.822 C87.292,232.704 84.013,229.661 80.725,225.962 C74.26,218.686 67.292,208.352 67.292,197.26 C67.292,180.941 78.917,167.291 95.5,167.291 C112.079,167.291 123.708,180.941 123.708,197.26 C123.708,208.352 116.739,218.686 110.274,225.962 C106.987,229.661 103.708,232.704 101.253,234.822 C100.024,235.883 98.997,236.715 98.271,237.286 C97.909,237.572 97.621,237.793 97.422,237.944 C97.322,238.019 97.244,238.078 97.19,238.118 L97.126,238.165 L97.102,238.183 L97.1,238.185 C97.1,238.185 97.099,238.186 95.5,236 Z M95.5,236 L97.099,238.186 C96.147,238.882 94.853,238.882 93.901,238.186 L95.5,236 Z" id="Shape" fill="#1785FB"></path>
            <path d="M101.047,182.619 C95.887,180.398 89.69,181.419 85.482,185.68 C79.95,191.283 79.95,200.368 85.482,205.971 C91.015,211.574 99.985,211.574 105.517,205.971 C109.732,201.703 110.736,195.414 108.529,190.183 C107.839,188.548 106.835,187.015 105.517,185.68 C104.193,184.339 102.671,183.319 101.047,182.619 Z M101.663,202.165 C105.112,198.672 105.112,192.98 101.663,189.486 C98.251,186.031 92.748,186.031 89.337,189.486 C85.887,192.98 85.887,198.672 89.337,202.165 C92.748,205.621 98.251,205.621 101.663,202.165 Z" id="Shape" fill="#1785FB"></path>
            <path d="M258.179,209.443 C262.279,205.271 268.306,204.254 273.346,206.389 C274.973,207.078 276.497,208.097 277.821,209.443 C279.135,210.781 280.131,212.32 280.809,213.962 C282.926,219.097 281.93,225.246 277.821,229.427 C272.397,234.945 263.603,234.945 258.179,229.427 C252.755,223.908 252.755,214.961 258.179,209.443 Z M273.958,213.24 C277.31,216.651 277.31,222.219 273.958,225.63 C270.656,228.988 265.343,228.988 262.042,225.63 C258.689,222.219 258.689,216.651 262.042,213.24 C265.343,209.881 270.656,209.881 273.958,213.24 Z" id="Shape" fill="#1785FB"></path>
            <path d="M266.395,261.182 C266.395,261.182 266.396,261.182 266.736,260.719 L266.396,261.183 C267.35,261.884 268.649,261.884 269.604,261.183 L268,259 C269.604,261.183 269.605,261.182 269.605,261.182 L269.607,261.18 L269.613,261.176 L269.693,261.116 C269.747,261.076 269.823,261.019 269.921,260.944 C270.117,260.795 270.399,260.578 270.755,260.296 C271.466,259.733 272.474,258.912 273.68,257.867 C276.088,255.781 279.304,252.782 282.528,249.137 C288.869,241.969 295.708,231.783 295.708,220.848 C295.708,204.768 284.299,191.292 268,191.292 C251.698,191.292 240.292,204.769 240.292,220.848 C240.292,231.783 247.13,241.969 253.471,249.137 C256.696,252.782 259.912,255.781 262.32,257.867 C263.526,258.912 264.534,259.733 265.245,260.296 C265.601,260.578 265.883,260.795 266.079,260.944 C266.146,260.995 266.203,261.038 266.249,261.073 L266.307,261.116 L266.387,261.176 L266.393,261.18 L266.395,261.182 Z M245.708,220.848 C245.708,207.276 255.152,196.708 268,196.708 C280.846,196.708 290.292,207.276 290.292,220.848 C290.292,229.695 284.63,238.586 278.471,245.548 C275.446,248.968 272.412,251.798 270.132,253.774 C269.308,254.488 268.585,255.089 268,255.563 C267.415,255.089 266.692,254.488 265.867,253.774 C263.588,251.798 260.554,248.968 257.528,245.548 C251.369,238.586 245.708,229.695 245.708,220.848 Z" id="Shape" fill="#1785FB"></path>
            <g transform="translate(100.000000, 0.000000)">
              <g class="user user--01">
                <path d="M46,86 C58.291,74.909 65.783,60.173 65.783,44 C65.783,27.827 58.291,13.0908 46,2 C67.489,7.811 83,24.419 83,44 C83,63.581 67.489,80.189 46,86 Z" id="Shape" fill="#92C5FB" fill-rule="nonzero"></path>
                <path d="M50.714,20.0786 C54.974,24.339 54.974,31.246 50.714,35.506 C46.454,39.767 39.547,39.767 35.286,35.506 C31.026,31.246 31.026,24.339 35.286,20.0786 C39.547,15.8184 46.454,15.8184 50.714,20.0786 Z" id="Shape" fill="#92C5FB" fill-rule="nonzero"></path>
                <path d="M43,38.651 C27.414,38.651 21.182,51.837 21.182,61.182 L64.818,61.182 C64.818,51.837 58.585,38.651 43,38.651 Z" id="Shape" fill="#92C5FB" fill-rule="nonzero"></path>
                <path d="M50.479,37.123 C53.241,34.83 55,31.37 55,27.5 C55,20.5965 49.404,15 42.5,15 C35.596,15 30,20.5965 30,27.5 C30,31.377 31.765,34.842 34.536,37.135 C29.893,38.621 26.282,41.379 23.643,44.739 C19.718,49.736 18,55.977 18,61.182 C18,62.678 19.213,63.89 20.708,63.89 L64.345,63.89 C65.84,63.89 67.053,62.678 67.053,61.182 C67.053,55.977 65.335,49.736 61.41,44.739 C58.764,41.37 55.14,38.606 50.479,37.123 Z M42.5,35 C46.642,35 50,31.642 50,27.5 C50,23.358 46.642,20 42.5,20 C38.358,20 35,23.358 35,27.5 C35,31.642 38.358,35 42.5,35 Z M27.903,48.085 C30.919,44.244 35.603,41.359 42.527,41.359 C49.45,41.359 54.134,44.244 57.15,48.085 C59.589,51.191 60.974,54.978 61.449,58.474 L23.604,58.474 C24.079,54.978 25.463,51.191 27.903,48.085 Z" id="Shape" fill="#1785FB"></path>
                <path d="M12.801,12.8006 C29.479,-3.878 56.521,-3.878 73.199,12.8006 C89.878,29.479 89.878,56.521 73.199,73.199 C56.521,89.878 29.479,89.878 12.801,73.199 C-3.878,56.521 -3.878,29.479 12.801,12.8006 Z M69.369,16.6308 C54.806,2.0675 31.194,2.0675 16.631,16.6308 C2.067,31.194 2.067,54.806 16.631,69.369 C31.194,83.933 54.806,83.933 69.369,69.369 C83.933,54.806 83.933,31.194 69.369,16.6308 Z" id="Shape" fill="#1785FB"></path>
              </g>
            </g>
            <g transform="translate(0.000000, 331.000000)">
              <g class="user user--02">
                <path d="M46,85 C58.291,73.909 65.783,59.173 65.783,43 C65.783,26.827 58.291,12.091 46,1 C67.489,6.811 83,23.419 83,43 C83,62.581 67.489,79.189 46,85 Z M50.714,20.079 C54.974,24.339 54.974,31.246 50.714,35.506 C46.454,39.767 39.547,39.767 35.286,35.506 C31.026,31.246 31.026,24.339 35.286,20.079 C39.547,15.818 46.454,15.818 50.714,20.079 Z" id="Shape" fill="#92C5FB" fill-rule="nonzero"></path>
                <path d="M43,38.651 C27.414,38.651 21.182,51.837 21.182,61.182 L64.818,61.182 C64.818,51.837 58.585,38.651 43,38.651 Z" id="Shape" fill="#92C5FB" fill-rule="nonzero"></path>
                <path d="M55,26.5 C55,30.799 52.83,34.592 49.525,36.841 C54.648,38.237 58.586,41.143 61.41,44.739 C65.335,49.736 67.053,55.977 67.053,61.182 C67.053,62.678 65.841,63.89 64.345,63.89 L20.708,63.89 C19.213,63.89 18,62.678 18,61.182 C18,55.977 19.718,49.736 23.643,44.739 C26.46,41.152 30.385,38.251 35.491,36.851 C32.177,34.603 30,30.806 30,26.5 C30,19.596 35.596,14 42.5,14 C49.404,14 55,19.596 55,26.5 Z M50,26.5 C50,30.642 46.642,34 42.5,34 C38.358,34 35,30.642 35,26.5 C35,22.358 38.358,19 42.5,19 C46.642,19 50,22.358 50,26.5 Z M42.527,41.359 C35.603,41.359 30.919,44.244 27.903,48.085 C25.464,51.191 24.079,54.978 23.605,58.474 L61.449,58.474 C60.974,54.978 59.59,51.191 57.15,48.085 C54.134,44.244 49.45,41.359 42.527,41.359 Z" id="Shape" fill="#1785FB"></path>
                <path d="M73.199,12.801 C56.521,-3.878 29.479,-3.878 12.801,12.801 C-3.878,29.479 -3.878,56.521 12.801,73.199 C29.479,89.878 56.521,89.878 73.199,73.199 C89.878,56.521 89.878,29.479 73.199,12.801 Z M16.631,16.631 C31.194,2.068 54.806,2.068 69.369,16.631 C83.933,31.194 83.933,54.806 69.369,69.369 C54.806,83.932 31.194,83.932 16.631,69.369 C2.068,54.806 2.068,31.194 16.631,16.631 Z" id="Shape" fill="#1785FB"></path>
              </g>
            </g>
            <g transform="translate(310.000000, 337.000000)">
              <g class="user user--03">
                <path d="M46,85 C58.291,73.909 65.783,59.173 65.783,43 C65.783,26.827 58.291,12.091 46,1 C67.489,6.811 83,23.419 83,43 C83,62.581 67.489,79.189 46,85 Z" id="Shape" fill="#92C5FB" fill-rule="nonzero"></path>
                <path d="M50.714,20.079 C54.974,24.339 54.974,31.246 50.714,35.506 C46.454,39.767 39.547,39.767 35.286,35.506 C31.026,31.246 31.026,24.339 35.286,20.079 C39.547,15.818 46.454,15.818 50.714,20.079 Z" id="Shape" fill="#92C5FB" fill-rule="nonzero"></path>
                <path d="M43,38.651 C27.414,38.651 21.182,51.837 21.182,61.182 L64.818,61.182 C64.818,51.837 58.585,38.651 43,38.651 Z" id="Shape" fill="#92C5FB" fill-rule="nonzero"></path>
                <path d="M55,27.5 C55,31.37 53.241,34.83 50.479,37.123 C55.14,38.606 58.764,41.37 61.41,44.739 C65.335,49.736 67.053,55.977 67.053,61.182 C67.053,62.678 65.84,63.89 64.345,63.89 L20.708,63.89 C19.213,63.89 18,62.678 18,61.182 C18,55.977 19.718,49.736 23.643,44.739 C26.282,41.379 29.893,38.621 34.536,37.135 C31.765,34.842 30,31.377 30,27.5 C30,20.596 35.596,15 42.5,15 C49.404,15 55,20.596 55,27.5 Z M50,27.5 C50,31.642 46.642,35 42.5,35 C38.358,35 35,31.642 35,27.5 C35,23.358 38.358,20 42.5,20 C46.642,20 50,23.358 50,27.5 Z M42.526,41.359 C35.603,41.359 30.919,44.244 27.903,48.085 C25.464,51.191 24.079,54.979 23.604,58.474 L61.449,58.474 C60.974,54.979 59.589,51.191 57.15,48.085 C54.134,44.244 49.45,41.359 42.526,41.359 Z" id="Shape" fill="#1785FB"></path>
                <path d="M73.199,12.801 C56.521,-3.878 29.479,-3.878 12.801,12.801 C-3.878,29.479 -3.878,56.521 12.801,73.199 C29.479,89.878 56.521,89.878 73.199,73.199 C89.878,56.521 89.878,29.479 73.199,12.801 Z M16.631,16.631 C31.194,2.068 54.806,2.068 69.369,16.631 C83.932,31.194 83.932,54.806 69.369,69.369 C54.806,83.932 31.194,83.932 16.631,69.369 C2.068,54.806 2.068,31.194 16.631,16.631 Z" id="Shape" fill="#1785FB"></path>
              </g>
            </g>
            <path d="M110.259,82.57 C83.119,98.915 74.368,134.167 90.713,161.307 C91.568,162.726 91.111,164.57 89.691,165.425 C88.272,166.279 86.428,165.822 85.574,164.402 C67.519,134.424 77.185,95.485 107.163,77.43 C108.583,76.575 110.426,77.033 111.281,78.452 C112.136,79.872 111.678,81.715 110.259,82.57 Z" id="Shape" fill="#1785FB" fill-rule="nonzero"></path>
            <path d="M51.744,80.6 C52.637,80.133 53.716,80.2 54.544,80.775 L79.044,97.775 C80.273,98.628 80.578,100.315 79.725,101.544 C78.872,102.773 77.185,103.078 75.956,102.225 L55.708,88.176 L55.708,279.635 L64.988,285.737 C66.238,286.559 66.585,288.238 65.763,289.488 C64.941,290.738 63.262,291.085 62.012,290.263 L51.512,283.358 C50.75,282.857 50.292,282.007 50.292,281.095 L50.292,83 C50.292,81.992 50.851,81.068 51.744,80.6 Z" id="Shape" fill="#1785FB" fill-rule="nonzero"></path>
            <path d="M224.759,80.796 C225.701,80.124 226.966,80.124 227.908,80.796 L314.574,142.701 C315.286,143.209 315.708,144.03 315.708,144.905 L315.708,201 C315.708,202.496 314.496,203.708 313,203.708 C311.504,203.708 310.292,202.496 310.292,201 L310.292,146.298 L229.042,88.263 L229.042,279.701 L310.292,337.737 L310.292,223 C310.292,221.504 311.504,220.292 313,220.292 C314.496,220.292 315.708,221.504 315.708,223 L315.708,343 C315.708,344.014 315.141,344.944 314.239,345.408 C313.337,345.872 312.251,345.793 311.426,345.204 L226.333,284.423 L141.241,345.204 C140.296,345.879 139.026,345.876 138.083,345.197 L78.417,302.197 C77.203,301.323 76.928,299.63 77.803,298.417 C78.677,297.203 80.37,296.928 81.584,297.803 L136.949,337.703 C136.923,323.215 136.892,308.853 136.863,296.325 L136.844,287.94 L136.844,287.856 L136.838,285.297 C136.818,276.164 136.8,268.593 136.792,263.504 C136.789,262.009 138,260.794 139.495,260.792 C140.991,260.789 142.206,262 142.208,263.495 C142.217,268.764 142.235,276.696 142.257,286.269 L142.28,296.313 C142.308,308.855 142.34,323.237 142.366,337.744 L223.625,279.701 L223.625,88.263 L142.373,146.3 L142.208,241.505 C142.206,243 140.991,244.211 139.495,244.208 C138,244.206 136.789,242.991 136.792,241.495 L136.956,146.311 L91.944,114.717 C90.72,113.857 90.424,112.168 91.283,110.944 C92.143,109.72 93.832,109.424 95.056,110.283 L139.653,141.586 L224.759,80.796 Z" id="Shape" fill="#1785FB" fill-rule="nonzero"></path>
            <path d="M364.927,331.13 C381.139,282.017 354.467,229.061 305.354,212.849 C303.781,212.329 302.926,210.633 303.446,209.06 C303.965,207.486 305.661,206.632 307.235,207.151 C359.495,224.402 387.876,280.751 370.625,333.011 C370.106,334.585 368.409,335.439 366.836,334.919 C365.263,334.4 364.408,332.704 364.927,331.13 Z" id="Shape" fill="#1785FB" fill-rule="nonzero"></path>
            <path d="M64.979,325.781 C70.145,281.902 109.904,250.517 153.784,255.683 C155.429,255.876 156.92,254.699 157.114,253.054 C157.308,251.409 156.131,249.918 154.485,249.724 C134.235,247.34 114.801,252.197 98.775,262.25 L97,262.25 L97,263.394 C76.625,276.88 62.101,298.913 59.021,325.08 C58.827,326.725 60.004,328.216 61.649,328.41 C63.295,328.604 64.786,327.427 64.979,325.781 Z" id="Shape" fill="#1785FB" fill-rule="nonzero"></path>
            <polygon id="Shape" fill="#1785FB" fill-rule="nonzero" points="235.5 152.5 231 149 232.842 146.632 237.342 150.132"></polygon>
            <polygon id="Shape" fill="#1785FB" fill-rule="nonzero" points="244.5 159.5 253.5 166.5 255.342 164.132 246.342 157.132"></polygon>
            <polygon id="Shape" fill="#1785FB" fill-rule="nonzero" points="262.5 173.5 267 177 268.842 174.632 264.342 171.132"></polygon>
            <polygon id="Shape" fill="#1785FB" fill-rule="nonzero" points="181 183 181 188.75 184 188.75 184 183"></polygon>
            <polygon id="Shape" fill="#1785FB" fill-rule="nonzero" points="181 200.25 181 206 184 206 184 200.25"></polygon>
            <polygon id="Shape" fill="#1785FB" fill-rule="nonzero" points="97 236 97 239.75 100 239.75 100 236"></polygon>
            <polygon id="Shape" fill="#1785FB" fill-rule="nonzero" points="97 247.25 97 254.75 100 254.75 100 247.25"></polygon>
            <polygon id="Shape" fill="#1785FB" fill-rule="nonzero" points="97 272 101.25 275.125 103.027 272.708 98.777 269.583"></polygon>
            <polygon id="Shape" fill="#1785FB" fill-rule="nonzero" points="109.75 281.375 118.25 287.625 120.027 285.208 111.527 278.958"></polygon>
            <polygon id="Shape" fill="#1785FB" fill-rule="nonzero" points="126.75 293.875 131 297 132.777 294.583 128.527 291.458"></polygon>
            <polygon id="Shape" fill="#1785FB" fill-rule="nonzero" points="170 279 164.25 282.75 165.889 285.263 171.639 281.513"></polygon>
            <polygon id="Shape" fill="#1785FB" fill-rule="nonzero" points="152.75 290.25 147 294 148.639 296.513 154.389 292.763"></polygon>
            <polygon id="Shape" fill="#1785FB" fill-rule="nonzero" points="214.5 150.25 219 147 220.756 149.432 216.256 152.682"></polygon>
            <polygon id="Shape" fill="#1785FB" fill-rule="nonzero" points="196.5 163.25 205.5 156.75 207.256 159.182 198.256 165.682"></polygon>
            <polygon id="Shape" fill="#1785FB" fill-rule="nonzero" points="183 173 187.5 169.75 189.256 172.182 184.756 175.432"></polygon>
            <polygon id="Shape" fill="#1785FB" fill-rule="nonzero" points="267 182 267 185.5 270 185.5 270 182"></polygon>
            <polygon id="Shape" fill="#1785FB" fill-rule="nonzero" points="267 192.5 267 196 270 196 270 192.5"></polygon>
    </g>
</svg>