<svg width="10" height="12" viewBox="0 0 10 12" xmlns="http://www.w3.org/2000/svg">
  <g transform="translate(.92 .75)" fill="#6F757B" fill-rule="evenodd">
    <circle cx="4.08" cy="7.88" r="1"/>
    <path d="M7 4.67H2.33V2.92c0-.97.79-1.75 1.75-1.75.97 0 1.41 0 1.75.75v.58H7v-.58C6.69.36 5.7 0 4.08 0c-1.6 0-2.91 1.3-2.91 2.92v1.75C.52 4.67 0 5.19 0 5.83v4.09c0 .64.52 1.16 1.17 1.16H7c.64 0 1.17-.52 1.17-1.16V5.83c0-.64-.53-1.16-1.17-1.16zM1.17 9.92V5.83H7v4.09H1.17z" fill-rule="nonzero"/>
  </g>
</svg>