<svg width="13" height="13" viewBox="0 0 13 13" xmlns="http://www.w3.org/2000/svg">
  <g fill="#6F757B" fill-rule="evenodd">
    <path d="M1.47 8.88l.82-.82-.41-.41a.58.58 0 0 1 0-.83l4.95-4.95a.58.58 0 0 1 .83 0l.4.41.83-.82-.41-.41a1.8 1.8 0 0 0-2.48 0L1.05 5.99c-.68.69-.68 1.8 0 2.48l.42.41zM11.78 4.35l-.41-.42-.83.83.41.41a.58.58 0 0 1 0 .82L6 10.96a.6.6 0 0 1-.82 0l-.41-.42-.83.83.41.41a1.74 1.74 0 0 0 2.48 0l4.95-4.95a1.74 1.74 0 0 0 0-2.47zM10.95 1.05l.83.82L7.65 6l-.82-.83zM5.18 6.82l.82.82-4.12 4.13-.83-.82z"/>
  </g>
</svg>