<?xml version="1.0" encoding="UTF-8"?>
<svg width="20px" height="20px" viewBox="0 0 20 20" version="1.1" xmlns="http://www.w3.org/2000/svg" xmlns:xlink="http://www.w3.org/1999/xlink">
    <!-- Generator: Sketch 51.3 (57544) - http://www.bohemiancoding.com/sketch -->
    <title>Filled_Icons</title>
    <desc>Created with Sketch.</desc>
    <defs></defs>
    <g id="Active-Development-Cycle" stroke="none" stroke-width="1" fill="none" fill-rule="evenodd">
        <g id="04-Feedback-Menu" transform="translate(-1088.000000, -348.000000)" fill="#036FE2" fill-rule="nonzero">
            <g id="dropdown" transform="translate(1062.000000, 54.000000)">
                <g id="content" transform="translate(24.000000, 36.000000)">
                    <g id="public" transform="translate(0.000000, 255.000000)">
                        <g id="mini1">
                            <g id="chat-bubble-square-3" transform="translate(0.000000, 1.000000)">
                                <g id="Filled_Icons" transform="translate(1.000000, 2.000000)">
                                    <path d="M18.998,0 L2.998,0 C1.895,0 0.998,0.897 0.998,2 L0.998,14 C0.998,15.103 1.894,16 2.998,16 L4.998,16 L4.998,20 L10.332,16 L18.998,16 C20.102,16 20.998,15.103 20.998,14 L20.998,2 C20.998,0.897 20.102,0 18.998,0 Z M5.998,11.25 C5.308,11.25 4.748,10.69 4.748,10 C4.748,9.31 5.308,8.75 5.998,8.75 C6.688,8.75 7.248,9.31 7.248,10 C7.248,10.69 6.688,11.25 5.998,11.25 Z M5.998,7.25 C5.308,7.25 4.748,6.69 4.748,6 C4.748,5.31 5.308,4.75 5.998,4.75 C6.688,4.75 7.248,5.31 7.248,6 C7.248,6.69 6.688,7.25 5.998,7.25 Z M16.998,11 L8.998,11 L8.998,9 L16.998,9 L16.998,11 Z M16.998,7 L8.998,7 L8.998,5 L16.998,5 L16.998,7 Z" id="Shape"></path>
                                </g>
                            </g>
                        </g>
                    </g>
                </g>
            </g>
        </g>
    </g>
</svg>