<?xml version="1.0" encoding="UTF-8"?>
<svg width="12px" height="12px" viewBox="0 0 12 12" version="1.1" xmlns="http://www.w3.org/2000/svg" xmlns:xlink="http://www.w3.org/1999/xlink">
    <!-- Generator: Sketch 51.3 (57544) - http://www.bohemiancoding.com/sketch -->
    <title>search icon</title>
    <desc>Created with Sketch.</desc>
    <defs></defs>
    <g id="Symbols" stroke="none" stroke-width="1" fill="none" fill-rule="evenodd" opacity="0.359999985">
        <g id="Search-Dropdown-/-Loading" transform="translate(-19.000000, -24.000000)">
            <g id="search-icon" transform="translate(18.000000, 23.000000)">
                <g id="Frame_-_24px">
                    <rect id="Rectangle" x="0" y="0" width="14" height="14"></rect>
                </g>
                <g id="Line_Icons" transform="translate(1.000000, 1.000000)" fill="#2E3C43" fill-rule="nonzero">
                    <g id="Group">
                        <path d="M11.5306154,10.0078462 L9.39884615,7.87607692 C9.92869231,7.05815385 10.2162308,6.10561538 10.2162308,5.10784615 C10.2162308,3.74392308 9.68530769,2.46076923 8.71984615,1.49638462 C7.75492308,0.531461538 6.47230769,0 5.10784615,0 C3.74338462,0 2.46076923,0.531461538 1.49638462,1.49584615 C0.531461538,2.46076923 0,3.74392308 0,5.10784615 C0,6.47230769 0.531461538,7.75546154 1.49638462,8.71984615 C2.46076923,9.68476923 3.74392308,10.2156923 5.10784615,10.2156923 C6.10615385,10.2156923 7.05815385,9.92923077 7.87607692,9.39884615 L10.0078462,11.5306154 C10.2113846,11.7341538 10.4816923,11.8461538 10.7692308,11.8461538 C11.0567692,11.8461538 11.3270769,11.7341538 11.5306154,11.5306154 C11.7341538,11.3276154 11.8461538,11.0573077 11.8461538,10.7692308 C11.8461538,10.4811538 11.7341538,10.2108462 11.5306154,10.0078462 Z M2.25776923,7.95738462 C1.49638462,7.19653846 1.07692308,6.18476923 1.07692308,5.10784615 C1.07692308,4.03092308 1.49638462,3.01915385 2.25776923,2.25830769 C3.01915385,1.49638462 4.03092308,1.07692308 5.10784615,1.07692308 C6.18476923,1.07692308 7.19653846,1.49638462 7.95792308,2.25830769 C8.71930769,3.01915385 9.13876923,4.03092308 9.13876923,5.10784615 C9.13876923,6.18476923 8.71930769,7.19653846 7.95792308,7.95792308 C7.19653846,8.71984615 6.18476923,9.13876923 5.10784615,9.13876923 C4.03092308,9.13876923 3.01915385,8.71984615 2.25776923,7.95738462 Z" id="Shape"></path>
                    </g>
                </g>
            </g>
        </g>
    </g>
</svg>