<svg width="12" height="12" xmlns="http://www.w3.org/2000/svg">
  <g fill="none" fill-rule="evenodd" opacity=".36">
    <path d="M-1-1h14v14H-1z"/>
    <path d="M11.53 10.008L9.4 7.876c.53-.818.817-1.77.817-2.768 0-1.364-.53-2.647-1.496-3.612A5.075 5.075 0 0 0 5.108 0a5.074 5.074 0 0 0-3.612 1.496A5.076 5.076 0 0 0 0 5.108C0 6.472.531 7.755 1.496 8.72a5.073 5.073 0 0 0 3.612 1.496c.998 0 1.95-.287 2.768-.817l2.132 2.132c.203.203.474.315.761.315.288 0 .558-.112.762-.315.203-.203.315-.474.315-.762 0-.288-.112-.558-.315-.761zm-9.272-2.05a4.002 4.002 0 0 1-1.181-2.85c0-1.077.42-2.089 1.18-2.85a4.002 4.002 0 0 1 2.85-1.181c1.078 0 2.09.42 2.85 1.181a4.002 4.002 0 0 1 1.182 2.85c0 1.077-.42 2.089-1.181 2.85a4.002 4.002 0 0 1-2.85 1.18 4 4 0 0 1-2.85-1.18z" fill="#2E3C43" fill-rule="nonzero"/>
  </g>
</svg>
