<?xml version="1.0" encoding="UTF-8"?>
<svg width="20px" height="20px" viewBox="0 0 20 20" version="1.1" xmlns="http://www.w3.org/2000/svg" xmlns:xlink="http://www.w3.org/1999/xlink">
    <!-- Generator: Sketch 51.3 (57544) - http://www.bohemiancoding.com/sketch -->
    <title>organization-hierarchy-1</title>
    <desc>Created with Sketch.</desc>
    <defs></defs>
    <g id="First-Development-Cycle" stroke="none" stroke-width="1" fill="none" fill-rule="evenodd">
        <g id="dropdown" transform="translate(-26.000000, -158.000000)">
            <g id="content" transform="translate(24.000000, 36.000000)">
                <g id="settings" transform="translate(0.000000, 120.000000)">
                    <g id="Group-2">
                        <g id="mini1">
                            <g id="organization-hierarchy-1">
                                <g id="Frame_-_24px">
                                    <rect id="Rectangle" x="0" y="0" width="24" height="24"></rect>
                                </g>
                                <g id="Filled_Icons" transform="translate(2.000000, 2.000000)" fill="#036FE2">
                                    <path d="M18,14.184 L18,12 C18,10.346 16.654,9 15,9 L11,9 L11,6.837 C12.44,6.403 13.5,5.08 13.5,3.5 C13.5,1.57 11.93,0 10,0 C8.07,0 6.5,1.57 6.5,3.5 C6.5,5.08 7.56,6.403 9,6.837 L9,9 L5,9 C3.346,9 2,10.346 2,12 L2,14.184 C0.838,14.599 0,15.698 0,17 C0,18.654 1.346,20 3,20 C4.654,20 6,18.654 6,17 C6,15.698 5.162,14.599 4,14.184 L4,12 C4,11.449 4.449,11 5,11 L9,11 L9,14.184 C7.838,14.599 7,15.698 7,17 C7,18.654 8.346,20 10,20 C11.654,20 13,18.654 13,17 C13,15.698 12.162,14.599 11,14.184 L11,11 L15,11 C15.551,11 16,11.449 16,12 L16,14.184 C14.838,14.599 14,15.699 14,17 C14,18.654 15.346,20 17,20 C18.654,20 20,18.654 20,17 C20,15.698 19.162,14.599 18,14.184 Z" id="Path"></path>
                                </g>
                            </g>
                        </g>
                    </g>
                </g>
            </g>
        </g>
    </g>
</svg>