<svg width="18" height="18" viewBox="0 0 18 18" xmlns="http://www.w3.org/2000/svg">
    <g fill="#036FE2" fill-rule="nonzero">
    <circle cx="9" cy="9" r="2.4"/>
    <path d="M16 0H2a2 2 0 0 0-2 2v14c0 1.1.9 2 2 2h14a2 2 0 0 0 2-2V2a2 2 0 0 0-2-2zm-1 10.09h-1.79c-.1.37-.24.72-.43 1.05l1.13 1.13-1.64 1.64-1.13-1.13a4.2 4.2 0 0 1-1.05.43V15H7.9v-1.8a4.2 4.2 0 0 1-1.05-.42L5.72 13.9 4.1 12.27l1.13-1.13a4.36 4.36 0 0 1-.43-1.05H3V7.91h1.79c.1-.37.24-.72.43-1.05L4.1 5.73l1.64-1.64 1.13 1.13c.32-.19.68-.33 1.05-.43v-1.8h2.18v1.8c.38.1.73.24 1.05.43l1.13-1.13 1.64 1.64-1.13 1.13c.19.33.33.67.43 1.05H15v2.18z"/>
    </g>
</svg>