<svg height="16" viewBox="0 0 14 14" xmlns="http://www.w3.org/2000/svg" xmlns:xlink="http://www.w3.org/1999/xlink"><defs><path d="M0 2h3v1H0V2zm0-2h3v1H0V0zm2 1h1v1H2V1zM0 1h1v1H0V1z" id="a"></path><path d="M0 2h3v1H0V2zm0-2h3v1H0V0zm2 1h1v1H2V1zM0 1h1v1H0V1z" id="c"></path><path d="M0 2h3v1H0V2zm0-2h3v1H0V0zm2 1h1v1H2V1zM0 1h1v1H0V1z" id="e"></path></defs><g fill="none" fill-rule="evenodd"><path d="M13 11.5V5h-1v7h1m-.5-7.5l-.707-.707-7.647 7.353-.353.354.707.707.354-.353M4 3h3v1H4v3H3V4H0V3h3V0h1" fill="#1785FB"></path><path fill="#1785FB" d="M4.5 13H12v-1H4v1"></path><g transform="rotate(180 7 7)"><mask id="b" fill="#1785FB"><use xlink:href="#a"></use></mask><path d="M0 2h3v1H0V2zm0-2h3v1H0V0zm2 1h1v1H2V1zM0 1h1v1H0V1z" stroke="#1785FB" stroke-width="2" mask="url(#b)"></path></g><g transform="rotate(180 7 2.5)"><mask id="d" fill="#1785FB"><use xlink:href="#c"></use></mask><path d="M0 2h3v1H0V2zm0-2h3v1H0V0zm2 1h1v1H2V1zM0 1h1v1H0V1z" stroke="#1785FB" stroke-width="2" mask="url(#d)"></path></g><g transform="rotate(180 2.5 7)"><mask id="f" fill="#1785FB"><use xlink:href="#e"></use></mask><path d="M0 2h3v1H0V2zm0-2h3v1H0V0zm2 1h1v1H2V1zM0 1h1v1H0V1z" stroke="#1785FB" stroke-width="2" mask="url(#f)"></path></g></g></svg>
