<svg height="16" viewBox="0 0 14 12" xmlns="http://www.w3.org/2000/svg" xmlns:xlink="http://www.w3.org/1999/xlink">
    <defs>
        <path d="M0 2h3v1H0V2zm0-2h3v1H0V0zm2 1h1v1H2V1zM0 1h1v1H0V1z" id="a"></path>
        <path d="M0 2h3v1H0V2zm0-2h3v1H0V0zm2 1h1v1H2V1zM0 1h1v1H0V1z" id="c"></path>
        <path d="M0 2h3v1H0V2zm0-2h3v1H0V0zm2 1h1v1H2V1zM0 1h1v1H0V1z" id="e"></path>
    </defs>
    <g fill="none" fill-rule="evenodd">
    <path fill="#1785FB" d="M4 3h3v1H4v3H3V4H0V3h3V0h1"></path>
    <g transform="rotate(180 2.5 6)">
        <mask id="b" fill="#1785FB">
        <use xlink:href="#a"></use>
        </mask>
        <path d="M0 2h3v1H0V2zm0-2h3v1H0V0zm2 1h1v1H2V1zM0 1h1v1H0V1z" mask="url(#b)" stroke="#1785FB" stroke-width="2"></path>
    </g>
    <g transform="rotate(180 6 6)">
        <mask id="d" fill="#1785FB">
        <use xlink:href="#c"></use>
        </mask>
        <path d="M0 2h3v1H0V2zm0-2h3v1H0V0zm2 1h1v1H2V1zM0 1h1v1H0V1z" mask="url(#d)" stroke="#1785FB" stroke-width="2"></path>
    </g>
    <g transform="rotate(180 6 2.5)">
        <mask id="f" fill="#1785FB">
        <use xlink:href="#e"></use>
        </mask>
        <path d="M0 2h3v1H0V2zm0-2h3v1H0V0zm2 1h1v1H2V1zM0 1h1v1H0V1z" mask="url(#f)" stroke="#1785FB" stroke-width="2"></path>
    </g>
    </g>
</svg>
