<svg height="102" viewBox="0 0 125 102" width="125" xmlns="http://www.w3.org/2000/svg" xmlns:xlink="http://www.w3.org/1999/xlink"><linearGradient id="a" x1="50%" x2="50%" y1="100%" y2="0%"><stop offset="0" stop-color="#808080" stop-opacity=".25"/><stop offset=".54" stop-color="#808080" stop-opacity=".12"/><stop offset="1" stop-color="#808080" stop-opacity=".1"/></linearGradient><linearGradient id="b" x1="50.004159%" x2="50.004159%" y1="100%" y2="0%"><stop offset="0" stop-opacity=".12"/><stop offset=".55" stop-opacity=".09"/><stop offset="1" stop-opacity=".02"/></linearGradient><mask id="c" fill="#fff"><path d="m101.054239 89.8626036h-24.850987l-37.9068525 3.6620414-38.19976768-3.6620414v-89.71775153l38.04274098 2.74615385 38.8626016-2.74615385 38.0185826 5.18751479v70.49165684z" fill="#fff" fill-rule="evenodd"/></mask><g fill="none" fill-rule="nonzero"><path d="m106.757027 97.895858h-24.1217192l-41.0866435 3.989467-41.40522644-3.989467v-97.75855031l41.23310104 2.99210059 42.1239257-2.99210059 41.2074334 5.65224852-1.056911 75.07260359z" fill="url(#a)"/><path d="m105.971893 96.5363609h-23.5947734l-40.1882694 3.8823371-40.49930316-3.8823371v-95.11650883l40.33170736 2.91213018 41.2013937-2.91213018 40.3060399 5.49985207-1.034263 73.04467456z" fill="#fff"/><path d="m106.104762 93.9471302h-24.8509873l-37.9053426 3.6620414-38.20127763-3.6620414v-89.7177515l38.04274103 2.74766272 38.8626016-2.74766272 38.0185829 5.18902367v70.49165683z" fill="#6c63ff"/><path d="m139.21777 115.601006-87.264576-48.293077 22.1649245-73.59541421-7.5433218-2.98908284-10.7412311 35.66529585-85.5825784-47.3621006-3.4681765 8.2460059 86.426597 47.8283432-19.7310105 65.5153847 7.5433217 2.989083 8.3073171-27.5852665 86.420557 47.8268345z" fill="#fff" mask="url(#c)" transform="translate(14.796748 5.281065)"/><path d="m43.1898955 97.6091716 38.0412311-3.6620414v-89.7177515l-38.0412311 2.74766272" fill="#000" opacity=".1"/><path d="m104.344251 96.3884911.292915-18.5184319 17.857259.7197337z" fill="url(#b)"/><path d="m105.971893 96.3884911.265738-17.0895266 16.256794.6654142z" fill="#fff"/><path d="m92.3310326 31.9647395-4.3900118-4.4068157c-.4347036-.4437019-1.0289626-.6956669-1.6506702-.6998819-.6217077-.004215-1.2193403.2396694-1.6600412.6774363l-27.5671329 27.2852755-11.6560168-11.7262127c-.9012495-.9125332-2.372897-.9230605-3.2871552-.0235144l-4.4371241 4.3822324c-.9125156.9097336-.9225381 2.3828224-.0224855 3.3048446l17.7013844 17.808965c.9110542.9111976 2.3867604.9216788 3.3107113.0235145l33.6339151-33.3220679c.4444462-.4336066.6970356-1.0264238.7016598-1.6467675.0046241-.6203438-.2390999-1.2168475-.6770329-1.6570082z" fill="#3acc6c"/></g></svg>