<svg width="18" height="18" xmlns="http://www.w3.org/2000/svg">
  <g fill="none" fill-rule="evenodd">
    <path d="M-3-3h24v24H-3z"/>
    <path d="M17.484.523c-1.316-1.319-4.079.089-6.34 1.663a7.083 7.083 0 0 0-2.141-.33C5.062 1.856 1.857 5.062 1.857 9c0 .745.115 1.466.328 2.142-1.574 2.263-2.98 5.024-1.664 6.34.345.346.808.517 1.383.517 1.569 0 3.68-1.296 4.969-2.19a7.029 7.029 0 0 0 2.13.336c3.94 0 7.145-3.205 7.145-7.145 0-.744-.123-1.454-.336-2.13 1.17-1.685 3.124-4.898 1.672-6.348zM9.106 14.096a40.57 40.57 0 0 0 4.99-4.99 5.1 5.1 0 0 1-4.99 4.99zm5.957-8.86l-.006-.013c-1.219 1.863-2.598 3.57-4.43 5.403-1.595 1.592-3.267 3.032-5.403 4.43.004.001.009.002.012.005-.608.384-3.136 1.833-3.633 1.337-.18-.178-.103-1.345 1.34-3.625.29.464.626.895 1.01 1.28.555-.344 1.14-.753 1.737-1.2C4.603 11.915 3.898 10.546 3.898 9a5.11 5.11 0 0 1 5.105-5.104c1.544 0 2.914.705 3.851 1.793.45-.597.857-1.182 1.2-1.738a7.162 7.162 0 0 0-1.28-1.008c2.28-1.443 3.448-1.52 3.627-1.34.494.493-.954 3.024-1.338 3.632z" fill="#2E3C43" fill-rule="nonzero"/>
  </g>
</svg>