<svg width="21" height="21" xmlns="http://www.w3.org/2000/svg">
  <g fill="none" fill-rule="evenodd">
    <path d="M-2-2h24v24.001H-2z"/>
    <g fill="#2E3C43" fill-rule="nonzero">
      <path d="M10 8h2V5.48l3-2.399V7h2V1a1 1 0 0 0-1.625-.78L11 3.72 6.625.22a1.004 1.004 0 0 0-.627-.21c-.218 0-.447.07-.622.21l-5 4A.995.995 0 0 0 0 5v14a1 1 0 0 0 1.625.781l5-4A1 1 0 0 0 7 15V3.082l3 2.399V8zM2 5.48l3-2.399V14.52l-3 2.4V5.48z"/>
      <path d="M20.707 19.293l-2.54-2.54A4.966 4.966 0 0 0 19 14c0-2.757-2.243-5-5-5s-5 2.243-5 5 2.243 5 5 5a4.966 4.966 0 0 0 2.753-.833l2.54 2.54 1.414-1.414zM14 17c-1.654 0-3-1.346-3-3s1.346-3 3-3 3 1.346 3 3-1.346 3-3 3z"/>
    </g>
  </g>
</svg>