<svg width="38" height="40" xmlns="http://www.w3.org/2000/svg">
  <g fill="none" fill-rule="evenodd">
    <path d="M-4-4h48v48.002H-4z"/>
    <path d="M37.11 31.664A2 2 0 0 0 38 30V2c0-.738-.406-1.416-1.056-1.762a1.991 1.991 0 0 0-2.052.098l-10.784 7.19L15.25.438c-.3-.234-.75-.406-1.18-.422a2.128 2.128 0 0 0-1.18.32l-12 8C.334 8.708 0 9.334 0 10v28a2 2 0 0 0 3.11 1.664l10.784-7.188 8.858 7.086c.36.29.802.438 1.248.438.532 0 .79-.146 1.098-.352l12.012-7.984zM4 11.07l8-5.332V28.93l-8 5.334V11.07zm18 22.77l-6-4.8V6.164l6 4.798V33.84zm12-4.91l-8 5.334V11.07l8-5.332V28.93z" fill="#036FE2" fill-rule="nonzero"/>
  </g>
</svg>
