<svg width="22" height="18" xmlns="http://www.w3.org/2000/svg">
  <g fill="none" fill-rule="evenodd">
    <path d="M-1-2h24v24H-1z"/>
    <g fill="#2E3C43" fill-rule="nonzero">
      <path d="M21.447 5.106l-10-5a1 1 0 0 0-.895 0l-10 5a1 1 0 0 0-.445.462C.047 5.69 0 5.898 0 6v5.765a1.001 1.001 0 0 0 2 0V7.478l2 .8v4.904a1 1 0 0 0 .553.894c1.719.858 3.486 1.919 6.447 1.919s4.729-1.061 6.447-1.919c.339-.171.553-.516.553-.895V8.277l3.372-1.349a.999.999 0 0 0 .075-1.822zM16 12.563l-.975.487a9.038 9.038 0 0 1-8.05 0L6 12.563V9.078l4.628 1.852c.12.048.246.07.372.07a.98.98 0 0 0 .372-.071L16 9.077v3.486zm-5-3.64L3.439 5.898 11 2.119l7.561 3.779L11 8.923zM1 14a1 1 0 0 0-1 1v2a1 1 0 1 0 2 0v-2a1 1 0 0 0-1-1z"/>
    </g>
  </g>
</svg>