<svg width="36" height="40" xmlns="http://www.w3.org/2000/svg">
  <g fill="none" fill-rule="evenodd">
    <path d="M-6-4h48v48H-6z"/>
    <path d="M18 0C9.054 0 0 2.748 0 8v24c0 5.252 9.054 8 18 8s18-2.748 18-8V8c0-5.252-9.054-8-18-8zm0 4c9.094 0 14 2.84 14 4 0 1.16-4.906 4-14 4C8.906 12 4 9.16 4 8c0-1.16 4.906-4 14-4zm0 32c-9.094 0-14-2.84-14-4v-2.8c3.472 1.846 8.748 2.8 14 2.8 5.252 0 10.528-.956 14-2.8V32c0 1.16-4.906 4-14 4zm0-8c-9.094 0-14-2.84-14-4v-2.8c3.472 1.846 8.748 2.8 14 2.8 5.252 0 10.528-.956 14-2.8V24c0 1.16-4.906 4-14 4zm0-8c-9.094 0-14-2.84-14-4v-2.8c3.472 1.844 8.748 2.8 14 2.8 5.252 0 10.528-.956 14-2.8V16c0 1.16-4.906 4-14 4z" fill="#e9ebed" fill-rule="nonzero"/>
  </g>
</svg>
