<?xml version="1.0" encoding="UTF-8"?>
<svg width="58px" height="56px" viewBox="0 0 58 56" version="1.1" xmlns="http://www.w3.org/2000/svg" xmlns:xlink="http://www.w3.org/1999/xlink">
    <!-- Generator: Sketch 64 (93537) - https://sketch.com -->
    <title>Group@1x</title>
    <desc>Created with Sketch.</desc>
    <g id="Catalog" stroke="none" stroke-width="1" fill="none" fill-rule="evenodd">
        <g id="Dataset-Subscription-flow-1.3-Confirmed" transform="translate(-688.000000, -128.000000)">
            <g id="Group" transform="translate(688.000000, 120.000000)">
                <g id="icon-subsc">
                    <rect id="Rectangle" x="0" y="0.00266666667" width="64" height="64.0026667"></rect>
                    <path d="M24,10.6666667 C26.1915924,10.6666667 28.3880461,10.7903581 30.5135896,11.0357232 C29.8743958,12.6722488 29.4774745,14.4294217 29.3658015,16.2636374 C27.7226729,16.0961591 25.9322368,16 24,16 C11.8746667,16 5.33333333,19.7866667 5.33333333,21.3333333 C5.33333333,22.88 11.8746667,26.6666667 24,26.6666667 C26.8934183,26.6666667 29.4688708,26.4510451 31.7133492,26.1016918 C32.7534124,27.8749589 34.1018668,29.4466785 35.6840177,30.7439151 C32.0918062,31.5756186 28.0405761,32 24,32 C16.9973333,32 9.96266667,30.7253333 5.33333333,28.2666667 L5.33333333,28.2666667 L5.33333333,32 C5.33333333,33.5466667 11.8746667,37.3333333 24,37.3333333 C32.6439575,37.3333333 38.4501053,35.4089351 41.0716105,33.743542 C42.8270116,34.3421033 44.7089362,34.6666667 46.6666667,34.6666667 C47.1154407,34.6666667 47.5602313,34.6496118 48.0004257,34.6161148 L48,53.3333333 C48,60.336 35.928,64 24,64 C12.072,64 0,60.336 0,53.3333333 L0,53.3333333 L0,21.3333333 C0,14.3306667 12.072,10.6666667 24,10.6666667 Z M42.6666667,49.6 C38.0373333,52.0586667 31.0026667,53.3333333 24,53.3333333 C16.9973333,53.3333333 9.96266667,52.0613333 5.33333333,49.6 L5.33333333,49.6 L5.33333333,53.3333333 C5.33333333,54.88 11.8746667,58.6666667 24,58.6666667 C36.1253333,58.6666667 42.6666667,54.88 42.6666667,53.3333333 L42.6666667,53.3333333 Z M42.6666667,38.9333333 C38.0373333,41.392 31.0026667,42.6666667 24,42.6666667 C16.9973333,42.6666667 9.96266667,41.3946667 5.33333333,38.9333333 L5.33333333,38.9333333 L5.33333333,42.6666667 C5.33333333,44.2133333 11.8746667,48 24,48 C36.1253333,48 42.6666667,44.2133333 42.6666667,42.6666667 L42.6666667,42.6666667 Z" id="Combined-Shape" fill="#2E3C43" fill-rule="nonzero"></path>
                </g>
                <g id="Group-2" transform="translate(29.333333, 0.000000)" stroke="#036FE2" stroke-linecap="round" stroke-linejoin="round" stroke-width="4">
                    <polyline id="Path-2" points="8.66666667 18.6666667 14 24 26 10.6666667"></polyline>
                </g>
            </g>
        </g>
    </g>
</svg>