<svg xmlns="http://www.w3.org/2000/svg" xmlns:xlink="http://www.w3.org/1999/xlink" width="36" height="36" viewBox="0 0 36 36">
    <defs>
        <path id="prefix__a" d="M0 0H36V36H0z"/>
    </defs>
    <g fill="none" fill-rule="evenodd">
        <mask id="prefix__b" fill="#fff">
            <use xlink:href="#prefix__a"/>
        </mask>
        <use fill="#112E52" xlink:href="#prefix__a"/>
        <g mask="url(#prefix__b)">
            <g>
                <g>
                    <path fill="#FFF" fill-rule="nonzero" d="M.085 0H.89c.254 0 .403.042.53.148.127.106.17.233.17.382 0 .148-.043.275-.149.36-.064.064-.106.085-.19.106.296.085.423.254.423.551 0 .297-.19.572-.572.593H.064V0h.02zm.424.36v.488h.339c.106 0 .148 0 .19-.022.064-.02.106-.127.106-.211 0-.085-.042-.17-.127-.212C.975.38.932.38.847.38H.51v-.02zm0 .848v.572h.36c.085 0 .148-.021.19-.042.064-.043.107-.149.107-.255 0-.127-.064-.233-.149-.254-.042-.021-.063-.021-.17-.021H.51zM3.9.593v.149c.063-.085.126-.149.211-.191.043-.021.085-.021.127-.021.064 0 .085 0 .149.042l-.085.34C4.26.89 4.238.89 4.175.89c-.085 0-.17.042-.254.127V2.14h-.424V.593h.402zM5.637 1.717l.17.254c-.191.148-.382.212-.594.212-.445 0-.741-.318-.741-.827 0-.275.063-.466.19-.635.127-.149.297-.212.488-.212.19 0 .36.063.466.17.148.147.212.36.212.698v.106h-.911v.022c0 .254.127.381.339.381.127 0 .254-.063.381-.17zm-.72-.53h.487v-.021c0-.128-.021-.17-.042-.234C5.319.87 5.256.848 5.17.848c-.17-.022-.254.106-.254.339zM6.993 2.14v-.106c-.063.064-.063.064-.106.085-.084.064-.19.085-.317.085-.36 0-.551-.17-.551-.487 0-.382.254-.551.762-.551h.085v-.064c0-.17-.042-.233-.19-.233-.128 0-.297.063-.467.17L6.04.741c.107-.064.15-.085.255-.127.148-.064.297-.085.424-.085.275 0 .445.106.508.275.022.064.022.106.022.276v1.038l-.255.021zm-.127-.678c-.296 0-.402.043-.402.233 0 .128.084.212.19.212.085 0 .149-.042.212-.106v-.339zM8.52 2.14v-.106c-.107.106-.255.149-.425.149-.212 0-.423-.106-.466-.255-.021-.063-.042-.148-.042-.317V.593h.402v.933c0 .148 0 .212.043.254.021.043.085.064.148.064.106 0 .233-.064.254-.149V.572h.403V2.12H8.52v.021z" transform="translate(2 12) translate(21.404 10.384)"/>
                </g>
                <path fill="#FFF" fill-rule="nonzero" d="M4.81 3.73c-.402-.276-.805-.403-1.25-.403-.53 0-1.06.233-1.335.636C1.928 4.387 1.78 5 1.78 5.849c0 .996.085 1.568.318 1.97.318.53.827.827 1.505.827.423 0 .805-.106 1.186-.36.043-.021.106-.063.149-.106l.636.996c-.594.424-1.25.615-2.099.615-1.08 0-1.928-.318-2.564-1.017C.318 8.074 0 7.205 0 6.124c0-.91.17-1.652.53-2.267.614-1.06 1.738-1.695 3.01-1.695.72 0 1.44.19 1.885.508l-.614 1.06zM9.918 8.138l.55.826c-.614.509-1.27.742-2.012.742-1.526 0-2.522-1.08-2.522-2.776 0-.954.19-1.59.678-2.12.445-.487.975-.72 1.674-.72.615 0 1.208.212 1.547.572.488.509.7 1.23.7 2.331v.318H7.416v.043c0 .826.403 1.292 1.123 1.292.488.022.954-.148 1.378-.508zm-2.48-1.823H9.05v-.063c0-.403-.042-.615-.17-.806-.127-.212-.339-.318-.614-.318-.509 0-.827.424-.827 1.187zM12.44 4.154l.127.593c.318-.233.381-.275.614-.403.276-.148.657-.233.954-.233.593 0 1.123.318 1.293.763.063.19.106.424.106.763v3.9h-1.378V6.081c0-.614-.106-.784-.466-.784-.275 0-.657.19-.975.487v3.773h-1.398V4.154h1.123z" transform="translate(2 12)"/>
                <path fill="#FFF" fill-rule="nonzero" d="M12.567 4.154v.593c.318-.233.381-.275.614-.403.276-.148.657-.233.954-.233.593 0 1.123.318 1.293.763.063.19.106.424.106.763v3.9h-1.378V6.081c0-.614-.106-.784-.466-.784-.275 0-.657.19-.975.487v3.773h-1.398V4.154h1.25zM19.9 5.51c-.53-.276-.912-.382-1.315-.382-.402 0-.678.212-.678.53 0 .276.17.424.678.551l.657.17c.657.17.87.36 1.06.614.19.255.297.551.297.912 0 1.102-.912 1.865-2.29 1.865-.635 0-1.334-.191-2.097-.594l.445-1.06c.424.255 1.166.615 1.78.615.403 0 .72-.254.72-.614s-.254-.551-.826-.657l-.636-.106c-.36-.064-.784-.318-.974-.551-.191-.233-.297-.615-.297-.954 0-1.038.826-1.738 2.055-1.738.806 0 1.357.233 1.823.466l-.403.933zM24.286 9.558v-.594c-.318.233-.381.276-.614.403-.276.148-.657.233-.954.233-.593 0-1.123-.318-1.293-.763-.063-.19-.106-.424-.106-.763v-3.92h1.378v3.475c0 .615.106.784.466.784.275 0 .657-.19.975-.487V4.154h1.398v5.404h-1.25zM8.625.636v1.398c0 .785-.381 1.208-1.06 1.208-.699 0-1.038-.445-1.038-1.208V.636H6.21v-.36H7.29v.36h-.318v1.44c0 .51.212.785.615.785.424 0 .614-.276.614-.763V.636h-.318v-.36h1.081v.36h-.339M10.32 3.2v-.34h.255V1.845c0-.424-.127-.53-.36-.53-.212 0-.36.106-.467.275v1.272h.255V3.2H9.07v-.34h.255V1.357H9.07v-.36h.678v.233c.149-.17.318-.275.594-.275.445 0 .678.254.678.869V2.86h.254V3.2h-.953M12.029.636c-.174 0-.323-.127-.323-.276 0-.148.15-.275.323-.275.174 0 .323.127.323.275 0 .149-.15.276-.323.276M11.507 3.2v-.34h.323V1.357h-.323v-.36h.82V2.84h.323v.339h-1.143V3.2z" transform="translate(2 12)"/>
                <path fill="#FFF" fill-rule="nonzero" d="M13.817 3.136c-.106.064-.233.106-.402.106-.297 0-.467-.19-.467-.572V1.356h-.296v-.36h.296V.36l.424-.233v.848h.488v.339h-.488v1.271c0 .212.064.255.212.255.042 0 .085 0 .127-.021l.106.317z" transform="translate(2 12)"/>
                <path fill="#FFF" fill-rule="nonzero" d="M15.852 2.246h-1.357c.043.403.191.615.551.615.255 0 .403-.064.594-.212l.19.297c-.233.19-.487.296-.805.296-.53 0-.932-.423-.932-1.144 0-.742.381-1.144.911-1.144.593 0 .869.508.869 1.102 0 .084-.021.148-.021.19m-.89-.932c-.276 0-.424.212-.467.593h.933c-.021-.318-.127-.593-.466-.593M17.526 3.2v-.233c-.149.17-.318.275-.551.275-.466 0-.805-.339-.805-1.186 0-.742.36-1.102.784-1.102.254 0 .423.106.572.254V.445h-.254V.106h.678v2.755h.233V3.2h-.657m.021-1.61c-.085-.128-.275-.297-.487-.297-.297 0-.445.254-.445.741 0 .615.17.848.466.848.17 0 .296-.085.466-.275V1.589zM20.577 3.242c-.275 0-.487-.106-.635-.275V3.2h-.382v-.89h.36c.106.36.297.572.657.572.318 0 .488-.148.488-.445 0-.254-.085-.381-.615-.53-.572-.17-.869-.36-.869-.869 0-.487.34-.805.827-.805.339 0 .53.127.615.276V.275h.381v.89h-.36c-.064-.339-.255-.572-.615-.572-.318 0-.424.17-.424.382 0 .233.17.381.594.487.593.17.89.36.89.89.02.594-.36.89-.912.89M24.477 3.2v-.233c-.127.17-.34.275-.594.275-.381 0-.699-.19-.699-.72 0-.488.34-.72.805-.72.212 0 .36.042.488.105v-.212c0-.233-.149-.381-.403-.381-.212 0-.381.042-.55.127l-.15-.297c.192-.127.425-.19.721-.19.467 0 .784.233.784.741v1.166h.234V3.2h-.636m0-.975c-.106-.063-.233-.106-.488-.106-.233 0-.402.127-.402.36 0 .276.127.382.381.382.212 0 .403-.106.509-.276v-.36zM28.46 2.246h-1.355c.042.403.212.615.55.615.255 0 .403-.064.594-.212l.19.297c-.232.19-.487.296-.805.296-.53 0-.932-.423-.932-1.144 0-.742.381-1.144.911-1.144.594 0 .87.508.87 1.102-.022.084-.022.148-.022.19m-.89-.932c-.276 0-.424.212-.466.593h.932c-.021-.318-.148-.593-.466-.593M29.669 3.221c-.254 0-.382-.063-.488-.212v.17h-.339V2.5h.297c.127.254.276.381.509.381.17 0 .275-.106.275-.254 0-.17-.063-.254-.381-.34-.53-.148-.72-.317-.72-.72 0-.318.232-.614.677-.614.191 0 .34.042.467.17V.995h.339v.7h-.297c-.106-.255-.233-.382-.466-.382-.191 0-.276.085-.276.233 0 .127.043.233.382.34.508.147.72.317.72.72-.021.339-.275.614-.7.614M24.265 12.525v-.106c-.106.106-.254.148-.424.148-.212 0-.424-.106-.466-.254-.021-.064-.043-.149-.043-.318v-1.018h.403v.933c0 .148 0 .212.042.254.022.043.085.064.149.064.106 0 .233-.064.254-.149v-1.123h.403v1.547h-.318v.022zM29.923 5.51c-.53-.276-.911-.382-1.314-.382-.402 0-.678.212-.678.53 0 .276.17.424.678.551l.636.149c.657.17.869.36 1.06.614.19.254.296.551.296.911 0 1.102-.91 1.865-2.288 1.865-.636 0-1.336-.19-2.098-.593l.445-1.06c.423.255 1.165.615 1.78.615.402 0 .72-.254.72-.615 0-.36-.254-.55-.826-.657l-.636-.106c-.36-.063-.784-.317-.975-.55-.19-.234-.297-.615-.297-.954 0-1.039.827-1.738 2.077-1.738.806 0 1.357.233 1.823.466l-.403.954zM.805 11.105h19.03c.403 0 .721.318.721.72 0 .403-.318.72-.72.72H.806c-.403 0-.721-.317-.721-.72 0-.402.318-.72.72-.72zM22.909 3.136c-.106.064-.234.106-.403.106-.297 0-.466-.19-.466-.572V1.356h-.297v-.36h.297V.36l.424-.233v.848h.487v.339h-.487v1.271c0 .212.063.255.211.255.043 0 .085 0 .128-.021l.106.317zM26.426 3.136c-.105.064-.233.106-.402.106-.297 0-.466-.19-.466-.572V1.356h-.297v-.36h.297V.36l.423-.233v.848h.488v.339h-.488v1.271c0 .212.064.255.212.255.043 0 .085 0 .128-.021l.105.317z" transform="translate(2 12)"/>
                <g>
                    <path fill="#FFF" fill-rule="nonzero" d="M.254.943L.254.2.064.2.064.114.551.114.551.2.36.2.36.914.254.914zM.636.943V.114h.127L.91.686C.932.743.932.77.932.8c0-.029.022-.086.043-.143l.148-.571h.106v.828h-.085V.257l-.17.686H.912L.741.257v.686H.637z" transform="translate(2 12) translate(30.728 .636)"/>
                </g>
            </g>
        </g>
    </g>
</svg>
