<?xml version="1.0" encoding="UTF-8"?>
<svg width="82px" height="32px" viewBox="0 0 82 32" version="1.1" xmlns="http://www.w3.org/2000/svg" xmlns:xlink="http://www.w3.org/1999/xlink">
    <title>Logos/Connectors/aws</title>
    <g id="Logos/Connectors/aws" stroke="none" stroke-width="1" fill="none" fill-rule="evenodd">
        <g id="Amazon_Web_Services_Logo" transform="translate(14.000000, 0.000000)">
            <path d="M15.1822222,11.6266667 C15.1822222,12.2844444 15.2533333,12.8177778 15.3777778,13.2088889 C15.52,13.6 15.6977778,14.0266667 15.9466667,14.4888889 C16.0355556,14.6311111 16.0711111,14.7733333 16.0711111,14.8977778 C16.0711111,15.0755556 15.9644444,15.2533333 15.7333333,15.4311111 L14.6133333,16.1777778 C14.4533333,16.2844444 14.2933333,16.3377778 14.1511111,16.3377778 C13.9733333,16.3377778 13.7955556,16.2488889 13.6177778,16.0888889 C13.3688889,15.8222222 13.1555556,15.5377778 12.9777778,15.2533333 C12.8,14.9511111 12.6222222,14.6133333 12.4266667,14.2044444 C11.04,15.84 9.29777778,16.6577778 7.2,16.6577778 C5.70666667,16.6577778 4.51555556,16.2311111 3.64444444,15.3777778 C2.77333333,14.5244444 2.32888889,13.3866667 2.32888889,11.9644444 C2.32888889,10.4533333 2.86222222,9.22666667 3.94666667,8.30222222 C5.03111111,7.37777778 6.47111111,6.91555556 8.30222222,6.91555556 C8.90666667,6.91555556 9.52888889,6.96888889 10.1866667,7.05777778 C10.8444444,7.14666667 11.52,7.28888889 12.2311111,7.44888889 L12.2311111,6.15111111 C12.2311111,4.8 11.9466667,3.85777778 11.3955556,3.30666667 C10.8266667,2.75555556 9.86666667,2.48888889 8.49777778,2.48888889 C7.87555556,2.48888889 7.23555556,2.56 6.57777778,2.72 C5.92,2.88 5.28,3.07555556 4.65777778,3.32444444 C4.37333333,3.44888889 4.16,3.52 4.03555556,3.55555556 C3.91111111,3.59111111 3.82222222,3.60888889 3.75111111,3.60888889 C3.50222222,3.60888889 3.37777778,3.43111111 3.37777778,3.05777778 L3.37777778,2.18666667 C3.37777778,1.90222222 3.41333333,1.68888889 3.50222222,1.56444444 C3.59111111,1.44 3.75111111,1.31555556 4,1.19111111 C4.62222222,0.871111111 5.36888889,0.604444444 6.24,0.391111111 C7.11111111,0.16 8.03555556,0.0533333333 9.01333333,0.0533333333 C11.1288889,0.0533333333 12.6755556,0.533333333 13.6711111,1.49333333 C14.6488889,2.45333333 15.1466667,3.91111111 15.1466667,5.86666667 L15.1466667,11.6266667 L15.1822222,11.6266667 Z M7.96444444,14.3288889 C8.55111111,14.3288889 9.15555556,14.2222222 9.79555556,14.0088889 C10.4355556,13.7955556 11.0044444,13.4044444 11.4844444,12.8711111 C11.7688889,12.5333333 11.9822222,12.16 12.0888889,11.7333333 C12.1955556,11.3066667 12.2666667,10.7911111 12.2666667,10.1866667 L12.2666667,9.44 C11.7511111,9.31555556 11.2,9.20888889 10.6311111,9.13777778 C10.0622222,9.06666667 9.51111111,9.03111111 8.96,9.03111111 C7.76888889,9.03111111 6.89777778,9.26222222 6.31111111,9.74222222 C5.72444444,10.2222222 5.44,10.8977778 5.44,11.7866667 C5.44,12.6222222 5.65333333,13.2444444 6.09777778,13.6711111 C6.52444444,14.1155556 7.14666667,14.3288889 7.96444444,14.3288889 Z M22.24,16.2488889 C21.92,16.2488889 21.7066667,16.1955556 21.5644444,16.0711111 C21.4222222,15.9644444 21.2977778,15.7155556 21.1911111,15.3777778 L17.0133333,1.63555556 C16.9066667,1.28 16.8533333,1.04888889 16.8533333,0.924444444 C16.8533333,0.64 16.9955556,0.48 17.28,0.48 L19.0222222,0.48 C19.36,0.48 19.5911111,0.533333333 19.7155556,0.657777778 C19.8577778,0.764444444 19.9644444,1.01333333 20.0711111,1.35111111 L23.0577778,13.12 L25.8311111,1.35111111 C25.92,0.995555556 26.0266667,0.764444444 26.1688889,0.657777778 C26.3111111,0.551111111 26.56,0.48 26.88,0.48 L28.3022222,0.48 C28.64,0.48 28.8711111,0.533333333 29.0133333,0.657777778 C29.1555556,0.764444444 29.28,1.01333333 29.3511111,1.35111111 L32.16,13.2622222 L35.2355556,1.35111111 C35.3422222,0.995555556 35.4666667,0.764444444 35.5911111,0.657777778 C35.7333333,0.551111111 35.9644444,0.48 36.2844444,0.48 L37.9377778,0.48 C38.2222222,0.48 38.3822222,0.622222222 38.3822222,0.924444444 C38.3822222,1.01333333 38.3644444,1.10222222 38.3466667,1.20888889 C38.3288889,1.31555556 38.2933333,1.45777778 38.2222222,1.65333333 L33.9377778,15.3955556 C33.8311111,15.7511111 33.7066667,15.9822222 33.5644444,16.0888889 C33.4222222,16.1955556 33.1911111,16.2666667 32.8888889,16.2666667 L31.36,16.2666667 C31.0222222,16.2666667 30.7911111,16.2133333 30.6488889,16.0888889 C30.5066667,15.9644444 30.3822222,15.7333333 30.3111111,15.3777778 L27.5555556,3.91111111 L24.8177778,15.36 C24.7288889,15.7155556 24.6222222,15.9466667 24.48,16.0711111 C24.3377778,16.1955556 24.0888889,16.2488889 23.7688889,16.2488889 L22.24,16.2488889 Z M45.0844444,16.7288889 C44.16,16.7288889 43.2355556,16.6222222 42.3466667,16.4088889 C41.4577778,16.1955556 40.7644444,15.9644444 40.3022222,15.6977778 C40.0177778,15.5377778 39.8222222,15.36 39.7511111,15.2 C39.68,15.04 39.6444444,14.8622222 39.6444444,14.7022222 L39.6444444,13.7955556 C39.6444444,13.4222222 39.7866667,13.2444444 40.0533333,13.2444444 C40.16,13.2444444 40.2666667,13.2622222 40.3733333,13.2977778 C40.48,13.3333333 40.64,13.4044444 40.8177778,13.4755556 C41.4222222,13.7422222 42.08,13.9555556 42.7733333,14.0977778 C43.4844444,14.24 44.1777778,14.3111111 44.8888889,14.3111111 C46.0088889,14.3111111 46.88,14.1155556 47.4844444,13.7244444 C48.0888889,13.3333333 48.4088889,12.7644444 48.4088889,12.0355556 C48.4088889,11.5377778 48.2488889,11.1288889 47.9288889,10.7911111 C47.6088889,10.4533333 47.0044444,10.1511111 46.1333333,9.86666667 L43.5555556,9.06666667 C42.2577778,8.65777778 41.2977778,8.05333333 40.7111111,7.25333333 C40.1244444,6.47111111 39.8222222,5.6 39.8222222,4.67555556 C39.8222222,3.92888889 39.9822222,3.27111111 40.3022222,2.70222222 C40.6222222,2.13333333 41.0488889,1.63555556 41.5822222,1.24444444 C42.1155556,0.835555556 42.72,0.533333333 43.4311111,0.32 C44.1422222,0.106666667 44.8888889,0.0177777778 45.6711111,0.0177777778 C46.0622222,0.0177777778 46.4711111,0.0355555556 46.8622222,0.0888888889 C47.2711111,0.142222222 47.6444444,0.213333333 48.0177778,0.284444444 C48.3733333,0.373333333 48.7111111,0.462222222 49.0311111,0.568888889 C49.3511111,0.675555556 49.6,0.782222222 49.7777778,0.888888889 C50.0266667,1.03111111 50.2044444,1.17333333 50.3111111,1.33333333 C50.4177778,1.47555556 50.4711111,1.67111111 50.4711111,1.92 L50.4711111,2.75555556 C50.4711111,3.12888889 50.3288889,3.32444444 50.0622222,3.32444444 C49.92,3.32444444 49.6888889,3.25333333 49.3866667,3.11111111 C48.3733333,2.64888889 47.2355556,2.41777778 45.9733333,2.41777778 C44.96,2.41777778 44.16,2.57777778 43.6088889,2.91555556 C43.0577778,3.25333333 42.7733333,3.76888889 42.7733333,4.49777778 C42.7733333,4.99555556 42.9511111,5.42222222 43.3066667,5.76 C43.6622222,6.09777778 44.32,6.43555556 45.2622222,6.73777778 L47.7866667,7.53777778 C49.0666667,7.94666667 49.9911111,8.51555556 50.5422222,9.24444444 C51.0933333,9.97333333 51.36,10.8088889 51.36,11.7333333 C51.36,12.4977778 51.2,13.1911111 50.8977778,13.7955556 C50.5777778,14.4 50.1511111,14.9333333 49.6,15.36 C49.0488889,15.8044444 48.3911111,16.1244444 47.6266667,16.3555556 C46.8266667,16.6044444 45.9911111,16.7288889 45.0844444,16.7288889 Z" id="Shape" fill="#252F3E" fill-rule="nonzero"></path>
            <g id="Group" transform="translate(0.000000, 19.911111)" fill="#FF9900">
                <path d="M48.4444444,5.45777778 C42.5955556,9.77777778 34.0977778,12.0711111 26.7911111,12.0711111 C16.5511111,12.0711111 7.32444444,8.28444444 0.355555556,1.99111111 C-0.195555556,1.49333333 0.302222222,0.817777778 0.96,1.20888889 C8.49777778,5.58222222 17.7955556,8.23111111 27.4133333,8.23111111 C33.9022222,8.23111111 41.0311111,6.88 47.5911111,4.10666667 C48.5688889,3.66222222 49.4044444,4.74666667 48.4444444,5.45777778 Z" id="Path"></path>
                <path d="M50.88,2.68444444 C50.1333333,1.72444444 45.9377778,2.22222222 44.0355556,2.45333333 C43.4666667,2.52444444 43.3777778,2.02666667 43.8933333,1.65333333 C47.2355556,-0.693333333 52.7288889,-0.0177777778 53.3688889,0.764444444 C54.0088889,1.56444444 53.1911111,7.05777778 50.0622222,9.68888889 C49.5822222,10.0977778 49.12,9.88444444 49.3333333,9.35111111 C50.0444444,7.59111111 51.6266667,3.62666667 50.88,2.68444444 Z" id="Path"></path>
            </g>
        </g>
    </g>
</svg>