<svg xmlns="http://www.w3.org/2000/svg" width="52" height="20" viewBox="0 0 52 20">
    <g fill="none" fill-rule="evenodd">
        <g fill="#0089D6" fill-rule="nonzero">
            <g>
                <g>
                    <g>
                        <path d="M27.58 1.418c.006-.01 2.207 3.789 5.335 9.21l5.365 9.3.041.072-19.907-.003 6.031-1.065c3.318-.586 6.058-1.071 6.09-1.078l.057-.012-3.132-3.725c-1.723-2.05-3.132-3.734-3.132-3.743 0-.019 3.234-8.924 3.252-8.956zM26.715 0c.007-.002-.02.067-.061.155l-.015.032-4.135 8.87-4.076 8.741-2.964.004H13.59l-.42-.001c-.419-.001-.671-.003-.671-.005 0-.005 1.476-2.567 3.28-5.693l3.279-5.683 3.822-3.208C24.983 1.448 26.708.002 26.715 0z" transform="translate(-638 -152) translate(249 151) translate(389) translate(0 1)"/>
                    </g>
                </g>
            </g>
        </g>
    </g>
</svg>
