<svg width="23" height="20" xmlns="http://www.w3.org/2000/svg">
  <g fill-rule="nonzero" fill="none">
    <path d="M4.993 19.033l-4.8-8.315a1.436 1.436 0 010-1.436l4.8-8.315C5.25.523 5.723.25 6.234.25h9.606c.51.003.981.276 1.237.718l4.8 8.315c.256.444.256.992 0 1.436l-4.801 8.315c-.256.444-.73.717-1.242.718H6.231a1.437 1.437 0 01-1.239-.718h.001z" fill="#4386FA"/>
    <path d="M14.033 7.322s1.335 3.201-.484 5.016c-1.82 1.814-5.132.653-5.132.653l6.738 6.757h.684c.513 0 .986-.274 1.242-.718l3.178-5.502-6.226-6.206z" fill="#000" opacity=".1"/>
    <path d="M15.61 13.872l-1.472-1.474a.231.231 0 00-.055-.042 4.01 4.01 0 10-.7.703c.01.019.023.036.039.051l1.475 1.475c.09.09.236.09.326 0l.386-.386a.231.231 0 000-.327zm-4.7-.953a3.017 3.017 0 110-6.035 3.017 3.017 0 010 6.035zM8.982 9.74v1.247c.192.339.47.621.806.819V9.733l-.806.008zm1.508-1.034v3.37c.267.049.54.049.807 0v-3.37h-.807zm2.333 2.278v-.739h-.806v1.552c.336-.197.614-.478.806-.817v.004z" fill="#FFF"/>
  </g>
</svg>
