<svg xmlns="http://www.w3.org/2000/svg" width="19" height="21">
  <path d="M18.555 15.832l-6.006 3.992c-.154.103-.326.176-.549.176-.223 0-.444-.074-.624-.219l-4.429-3.543-5.392 3.594C1.387 19.944 1.162 20 1 20c-.162 0-.324-.038-.472-.118C.203 19.708 0 19.369 0 19V5c0-.333.167-.646.445-.832l6-4C6.6.066 6.82 0 7.035.008c.215.008.44.094.59.211l4.429 3.544L17.446.168c.306-.205.701-.222 1.026-.049.325.173.528.512.528.881v14c0 .334-.167.647-.445.832zM2 5.535v11.597l4-2.667V2.869zm9 11.385V5.481L8 3.082V14.52zm6-2.455V2.869l-4 2.666v11.597z" fill="#fff"/>
  <path class="navbar-iconFill" d="M12 17.5V4.274L6 1.5v13.225z" fill="transparent"/>
</svg>