<svg width="20" height="20" xmlns="http://www.w3.org/2000/svg">
  <g fill="none" fill-rule="evenodd">
    <path d="M-2-2h24v24H-2z"/>
    <path d="M19.707 18.293L14.314 12.9A7.928 7.928 0 0 0 16 8a7.945 7.945 0 0 0-2.344-5.656A7.94 7.94 0 0 0 8 0a7.94 7.94 0 0 0-5.656 2.344A7.945 7.945 0 0 0 0 8c0 2.137.833 4.146 2.344 5.656A7.94 7.94 0 0 0 8 16a7.922 7.922 0 0 0 4.9-1.686l5.393 5.392 1.414-1.413zM8 14a5.959 5.959 0 0 1-4.242-1.757A5.958 5.958 0 0 1 2 8c0-1.602.624-3.109 1.758-4.242A5.956 5.956 0 0 1 8 2c1.603 0 3.109.624 4.242 1.758A5.957 5.957 0 0 1 14 8c0 1.603-.624 3.11-1.758 4.243A5.959 5.959 0 0 1 8 14z" fill="#FFF" fill-rule="nonzero"/>
  </g>
</svg>