<svg width="18" height="18" xmlns="http://www.w3.org/2000/svg">
  <path d="M16.06 13.94l-2.969-2.97a7.064 7.064 0 0 0 1.139-3.856c0-1.9-.74-3.686-2.085-5.03A7.068 7.068 0 0 0 7.115 0c-1.901 0-3.688.74-5.03 2.083A7.07 7.07 0 0 0 0 7.114c0 1.901.74 3.688 2.084 5.032a7.066 7.066 0 0 0 5.03 2.083c1.391 0 2.717-.399 3.856-1.138l2.97 2.97c.283.283.66.439 1.06.439s.777-.156 1.06-.44c.284-.282.44-.659.44-1.06s-.156-.778-.44-1.06zM3.146 11.084A5.574 5.574 0 0 1 1.5 7.114c0-1.5.584-2.909 1.645-3.968A5.574 5.574 0 0 1 7.115 1.5c1.5 0 2.909.584 3.97 1.646a5.574 5.574 0 0 1 1.644 3.968c0 1.5-.584 2.91-1.645 3.97a5.574 5.574 0 0 1-3.97 1.645c-1.5 0-2.909-.583-3.97-1.645z" fill="#6F757B" fill-rule="nonzero"/>
</svg>