<svg width="17px" height="17px" viewBox="0 0 17 17" version="1.1" xmlns="http://www.w3.org/2000/svg" xmlns:xlink="http://www.w3.org/1999/xlink">
    <g id="Page-1" stroke="none" stroke-width="1" fill="none" fill-rule="evenodd">
        <g id="search-icon">
            <g id="Line_Icons" fill="#047AE6" fill-rule="nonzero">
                <g id="Group">
                    <path d="M16.0605,13.9395 L13.09125,10.97025 C13.82925,9.831 14.22975,8.50425 14.22975,7.1145 C14.22975,5.21475 13.49025,3.4275 12.1455,2.08425 C10.8015,0.74025 9.015,0 7.1145,0 C5.214,0 3.4275,0.74025 2.08425,2.0835 C0.74025,3.4275 0,5.21475 0,7.1145 C0,9.015 0.74025,10.80225 2.08425,12.1455 C3.4275,13.4895 5.21475,14.229 7.1145,14.229 C8.505,14.229 9.831,13.83 10.97025,13.09125 L13.9395,16.0605 C14.223,16.344 14.5995,16.5 15,16.5 C15.4005,16.5 15.777,16.344 16.0605,16.0605 C16.344,15.77775 16.5,15.40125 16.5,15 C16.5,14.59875 16.344,14.22225 16.0605,13.9395 Z M3.14475,11.0835 C2.08425,10.02375 1.5,8.6145 1.5,7.1145 C1.5,5.6145 2.08425,4.20525 3.14475,3.1455 C4.20525,2.08425 5.6145,1.5 7.1145,1.5 C8.6145,1.5 10.02375,2.08425 11.08425,3.1455 C12.14475,4.20525 12.729,5.6145 12.729,7.1145 C12.729,8.6145 12.14475,10.02375 11.08425,11.08425 C10.02375,12.1455 8.6145,12.729 7.1145,12.729 C5.6145,12.729 4.20525,12.1455 3.14475,11.0835 Z" id="Shape"></path>
                </g>
            </g>
        </g>
    </g>
</svg>