<svg xmlns="http://www.w3.org/2000/svg" width="18" height="18">
  <path d="M0 0h24v24H0z" fill="transparent"/>
  <path d="M15.71 14.726l-3.752-3.752c.762-.972 1.175-2.173 1.173-3.408.004-1.477-.583-2.894-1.631-3.935C10.45 2.579 9.052 2 7.566 2c-1.487 0-2.885.579-3.935 1.631C2.58 4.681 2 6.079 2 7.566c0 1.486.58 2.884 1.631 3.934 1.041 1.048 2.458 1.635 3.935 1.631 1.235.002 2.436-.411 3.408-1.173l3.752 3.751zM7.566 11.74c-1.108.003-2.171-.437-2.952-1.223-.785-.781-1.226-1.844-1.223-2.951 0-1.115.434-2.163 1.223-2.952.789-.789 1.836-1.223 2.952-1.223 1.115 0 2.162.434 2.951 1.223.785.781 1.226 1.844 1.223 2.952 0 1.115-.434 2.163-1.223 2.951-.781.786-1.844 1.226-2.951 1.223z" fill="#BABEC0"/>
</svg>