<svg width="583" height="391" viewBox="0 0 583 391" fill="none" xmlns="http://www.w3.org/2000/svg">
<rect width="583" height="391" fill="white"/>
<rect width="218" height="50" rx="4" transform="translate(32 309)" fill="#FF583E"/>
<path d="M1.82896 4.4H4.74496V14.624H11.063V17H1.82896V4.4ZM21.0957 14.3H15.2457L14.1297 17H11.1417L16.7577 4.4H19.6377L25.2717 17H22.2117L21.0957 14.3ZM20.1777 12.086L18.1797 7.262L16.1817 12.086H20.1777ZM31.8535 12.536V17H28.9375V12.5L24.0595 4.4H27.1555L30.5215 9.998L33.8875 4.4H36.7495L31.8535 12.536ZM47.6025 14.66V17H37.8465V4.4H47.3685V6.74H40.7445V9.476H46.5945V11.744H40.7445V14.66H47.6025ZM57.9507 17L55.5207 13.49H55.3767H52.8387V17H49.9227V4.4H55.3767C56.4927 4.4 57.4587 4.586 58.2747 4.958C59.1027 5.33 59.7387 5.858 60.1827 6.542C60.6267 7.226 60.8487 8.036 60.8487 8.972C60.8487 9.908 60.6207 10.718 60.1647 11.402C59.7207 12.074 59.0847 12.59 58.2567 12.95L61.0827 17H57.9507ZM57.8967 8.972C57.8967 8.264 57.6687 7.724 57.2127 7.352C56.7567 6.968 56.0907 6.776 55.2147 6.776H52.8387V11.168H55.2147C56.0907 11.168 56.7567 10.976 57.2127 10.592C57.6687 10.208 57.8967 9.668 57.8967 8.972Z" transform="translate(110 323)" fill="white"/>
<rect width="218" height="50" rx="4" transform="translate(333 309)" fill="#FF583E"/>
<path d="M1.8231 4.4H7.5471C8.9151 4.4 10.1211 4.664 11.1651 5.192C12.2211 5.708 13.0371 6.44 13.6131 7.388C14.2011 8.336 14.4951 9.44 14.4951 10.7C14.4951 11.96 14.2011 13.064 13.6131 14.012C13.0371 14.96 12.2211 15.698 11.1651 16.226C10.1211 16.742 8.9151 17 7.5471 17H1.8231V4.4ZM7.4031 14.606C8.6631 14.606 9.6651 14.258 10.4091 13.562C11.1651 12.854 11.5431 11.9 11.5431 10.7C11.5431 9.5 11.1651 8.552 10.4091 7.856C9.6651 7.148 8.6631 6.794 7.4031 6.794H4.7391V14.606H7.4031ZM24.8164 14.3H18.9664L17.8504 17H14.8624L20.4784 4.4H23.3584L28.9924 17H25.9324L24.8164 14.3ZM23.8984 12.086L21.9004 7.262L19.9024 12.086H23.8984ZM32.2769 6.776H28.2449V4.4H39.2249V6.776H35.1929V17H32.2769V6.776ZM48.459 14.3H42.609L41.493 17H38.505L44.121 4.4H47.001L52.635 17H49.575L48.459 14.3ZM47.541 12.086L45.543 7.262L43.545 12.086H47.541ZM65.3707 4.4L59.9167 17H57.0367L51.6007 4.4H54.7507L58.5847 13.4L62.4727 4.4H65.3707ZM66.4227 4.4H69.3387V17H66.4227V4.4ZM82.085 14.66V17H72.329V4.4H81.851V6.74H75.227V9.476H81.077V11.744H75.227V14.66H82.085ZM103.273 4.4L99.1514 17H96.0194L93.2474 8.468L90.3854 17H87.2714L83.1314 4.4H86.1554L88.9994 13.256L91.9694 4.4H94.6694L97.5494 13.328L100.483 4.4H103.273Z" transform="translate(390 323)" fill="white"/>
<path d="M25.3536 0.353553C25.5488 0.158291 25.5488 -0.158291 25.3536 -0.353553L22.1716 -3.53553C21.9763 -3.7308 21.6597 -3.7308 21.4645 -3.53553C21.2692 -3.34027 21.2692 -3.02369 21.4645 -2.82843L24.2929 0L21.4645 2.82843C21.2692 3.02369 21.2692 3.34027 21.4645 3.53553C21.6597 3.7308 21.9763 3.7308 22.1716 3.53553L25.3536 0.353553ZM0 0.5H25V-0.5H0V0.5Z" transform="translate(141 272) rotate(90)" fill="#898989"/>
<line y1="-0.5" x2="301" y2="-0.5" transform="translate(141 272.305)" stroke="#898989"/>
<path d="M25.3536 0.353553C25.5488 0.158291 25.5488 -0.158291 25.3536 -0.353553L22.1716 -3.53553C21.9763 -3.7308 21.6597 -3.7308 21.4645 -3.53553C21.2692 -3.34027 21.2692 -3.02369 21.4645 -2.82843L24.2929 0L21.4645 2.82843C21.2692 3.02369 21.2692 3.34027 21.4645 3.53553C21.6597 3.7308 21.9763 3.7308 22.1716 3.53553L25.3536 0.353553ZM0 0.5H25V-0.5H0V0.5Z" transform="translate(442 272) rotate(90)" fill="#898989"/>
<line y1="-0.5" x2="60" y2="-0.5" transform="translate(291 212) rotate(90)" stroke="#898989"/>
<rect width="70" height="25" transform="translate(241 231)" fill="white"/>
<path d="M2.156 8.288C2.38 7.756 2.73 7.35 3.206 7.07C3.682 6.78067 4.26067 6.636 4.942 6.636V7.322L4.774 7.308C3.962 7.308 3.32733 7.56467 2.87 8.078C2.41267 8.582 2.184 9.28667 2.184 10.192V14H1.484V6.692H2.156V8.288ZM12.9764 10.514H6.69036C6.70903 11.0833 6.85369 11.592 7.12436 12.04C7.39503 12.4787 7.75903 12.8193 8.21636 13.062C8.68303 13.3047 9.20569 13.426 9.78436 13.426C10.2604 13.426 10.699 13.342 11.1004 13.174C11.511 12.9967 11.8517 12.74 12.1224 12.404L12.5284 12.866C12.211 13.2487 11.8097 13.5427 11.3244 13.748C10.8484 13.9533 10.3304 14.056 9.77036 14.056C9.04236 14.056 8.39369 13.8973 7.82436 13.58C7.25503 13.2627 6.80703 12.824 6.48036 12.264C6.16303 11.704 6.00436 11.0647 6.00436 10.346C6.00436 9.63667 6.15369 9.002 6.45236 8.442C6.76036 7.87267 7.18036 7.42933 7.71236 7.112C8.24436 6.79467 8.84169 6.636 9.50436 6.636C10.167 6.636 10.7597 6.79467 11.2824 7.112C11.8144 7.42 12.2297 7.854 12.5284 8.414C12.8364 8.974 12.9904 9.60867 12.9904 10.318L12.9764 10.514ZM9.50436 7.252C8.99103 7.252 8.52903 7.36867 8.11836 7.602C7.70769 7.826 7.37636 8.148 7.12436 8.568C6.88169 8.97867 6.74169 9.44533 6.70436 9.968H12.3044C12.2764 9.44533 12.1364 8.97867 11.8844 8.568C11.6324 8.15733 11.301 7.83533 10.8904 7.602C10.4797 7.36867 10.0177 7.252 9.50436 7.252ZM17.3539 4.158C16.4392 4.158 15.9819 4.648 15.9819 5.628V6.692H18.3199V7.294H15.9959V14H15.2959V7.294H13.9519V6.692H15.2959V5.572C15.2959 4.956 15.4732 4.466 15.8279 4.102C16.1825 3.738 16.6819 3.556 17.3259 3.556C17.6059 3.556 17.8719 3.598 18.1239 3.682C18.3852 3.75667 18.5999 3.87333 18.7679 4.032L18.4879 4.564C18.1892 4.29333 17.8112 4.158 17.3539 4.158ZM21.5427 8.288C21.7667 7.756 22.1167 7.35 22.5927 7.07C23.0687 6.78067 23.6474 6.636 24.3287 6.636V7.322L24.1607 7.308C23.3487 7.308 22.7141 7.56467 22.2567 8.078C21.7994 8.582 21.5707 9.28667 21.5707 10.192V14H20.8707V6.692H21.5427V8.288ZM32.3631 10.514H26.0771C26.0957 11.0833 26.2404 11.592 26.5111 12.04C26.7817 12.4787 27.1457 12.8193 27.6031 13.062C28.0697 13.3047 28.5924 13.426 29.1711 13.426C29.6471 13.426 30.0857 13.342 30.4871 13.174C30.8977 12.9967 31.2384 12.74 31.5091 12.404L31.9151 12.866C31.5977 13.2487 31.1964 13.5427 30.7111 13.748C30.2351 13.9533 29.7171 14.056 29.1571 14.056C28.4291 14.056 27.7804 13.8973 27.2111 13.58C26.6417 13.2627 26.1937 12.824 25.8671 12.264C25.5497 11.704 25.3911 11.0647 25.3911 10.346C25.3911 9.63667 25.5404 9.002 25.8391 8.442C26.1471 7.87267 26.5671 7.42933 27.0991 7.112C27.6311 6.79467 28.2284 6.636 28.8911 6.636C29.5537 6.636 30.1464 6.79467 30.6691 7.112C31.2011 7.42 31.6164 7.854 31.9151 8.414C32.2231 8.974 32.3771 9.60867 32.3771 10.318L32.3631 10.514ZM28.8911 7.252C28.3777 7.252 27.9157 7.36867 27.5051 7.602C27.0944 7.826 26.7631 8.148 26.5111 8.568C26.2684 8.97867 26.1284 9.44533 26.0911 9.968H31.6911C31.6631 9.44533 31.5231 8.97867 31.2711 8.568C31.0191 8.15733 30.6877 7.83533 30.2771 7.602C29.8664 7.36867 29.4044 7.252 28.8911 7.252ZM36.3906 14.056C35.8026 14.056 35.2426 13.9673 34.7106 13.79C34.1786 13.6127 33.7633 13.3887 33.4646 13.118L33.7866 12.558C34.0853 12.81 34.4679 13.02 34.9346 13.188C35.4106 13.356 35.9053 13.44 36.4186 13.44C37.1559 13.44 37.6973 13.3187 38.0426 13.076C38.3973 12.8333 38.5746 12.4973 38.5746 12.068C38.5746 11.76 38.4766 11.5173 38.2806 11.34C38.0939 11.1627 37.8606 11.032 37.5806 10.948C37.3006 10.864 36.9133 10.7753 36.4186 10.682C35.8399 10.5793 35.3733 10.4673 35.0186 10.346C34.6639 10.2247 34.3606 10.0287 34.1086 9.758C33.8566 9.48733 33.7306 9.114 33.7306 8.638C33.7306 8.05933 33.9686 7.58333 34.4446 7.21C34.9299 6.82733 35.6159 6.636 36.5026 6.636C36.9693 6.636 37.4313 6.70133 37.8886 6.832C38.3459 6.96267 38.7193 7.13533 39.0086 7.35L38.6866 7.91C38.3879 7.69533 38.0473 7.532 37.6646 7.42C37.2819 7.308 36.8899 7.252 36.4886 7.252C35.8073 7.252 35.2939 7.378 34.9486 7.63C34.6033 7.882 34.4306 8.21333 34.4306 8.624C34.4306 8.95067 34.5286 9.20733 34.7246 9.394C34.9206 9.57133 35.1586 9.70667 35.4386 9.8C35.7279 9.884 36.1293 9.97733 36.6426 10.08C37.2119 10.1827 37.6693 10.2947 38.0146 10.416C38.3693 10.528 38.6679 10.7147 38.9106 10.976C39.1533 11.2373 39.2746 11.5967 39.2746 12.054C39.2746 12.6607 39.0226 13.146 38.5186 13.51C38.0146 13.874 37.3053 14.056 36.3906 14.056ZM44.7981 6.636C45.7128 6.636 46.4361 6.902 46.9681 7.434C47.5001 7.966 47.7661 8.73133 47.7661 9.73V14H47.0661V9.786C47.0661 8.96467 46.8561 8.33933 46.4361 7.91C46.0255 7.48067 45.4468 7.266 44.7001 7.266C43.8415 7.266 43.1648 7.52267 42.6701 8.036C42.1755 8.54933 41.9281 9.24 41.9281 10.108V14H41.2281V3.612H41.9281V8.218C42.1801 7.714 42.5535 7.32667 43.0481 7.056C43.5428 6.776 44.1261 6.636 44.7981 6.636ZM56.8357 10.514H50.5497C50.5684 11.0833 50.7131 11.592 50.9837 12.04C51.2544 12.4787 51.6184 12.8193 52.0757 13.062C52.5424 13.3047 53.0651 13.426 53.6437 13.426C54.1197 13.426 54.5584 13.342 54.9597 13.174C55.3704 12.9967 55.7111 12.74 55.9817 12.404L56.3877 12.866C56.0704 13.2487 55.6691 13.5427 55.1837 13.748C54.7077 13.9533 54.1897 14.056 53.6297 14.056C52.9017 14.056 52.2531 13.8973 51.6837 13.58C51.1144 13.2627 50.6664 12.824 50.3397 12.264C50.0224 11.704 49.8637 11.0647 49.8637 10.346C49.8637 9.63667 50.0131 9.002 50.3117 8.442C50.6197 7.87267 51.0397 7.42933 51.5717 7.112C52.1037 6.79467 52.7011 6.636 53.3637 6.636C54.0264 6.636 54.6191 6.79467 55.1417 7.112C55.6737 7.42 56.0891 7.854 56.3877 8.414C56.6957 8.974 56.8497 9.60867 56.8497 10.318L56.8357 10.514ZM53.3637 7.252C52.8504 7.252 52.3884 7.36867 51.9777 7.602C51.5671 7.826 51.2357 8.148 50.9837 8.568C50.7411 8.97867 50.6011 9.44533 50.5637 9.968H56.1637C56.1357 9.44533 55.9957 8.97867 55.7437 8.568C55.4917 8.15733 55.1604 7.83533 54.7497 7.602C54.3391 7.36867 53.8771 7.252 53.3637 7.252ZM60.8633 14.056C60.2752 14.056 59.7152 13.9673 59.1833 13.79C58.6513 13.6127 58.2359 13.3887 57.9372 13.118L58.2593 12.558C58.5579 12.81 58.9406 13.02 59.4073 13.188C59.8833 13.356 60.3779 13.44 60.8912 13.44C61.6286 13.44 62.1699 13.3187 62.5153 13.076C62.8699 12.8333 63.0472 12.4973 63.0472 12.068C63.0472 11.76 62.9492 11.5173 62.7532 11.34C62.5666 11.1627 62.3332 11.032 62.0533 10.948C61.7733 10.864 61.3859 10.7753 60.8912 10.682C60.3126 10.5793 59.8459 10.4673 59.4913 10.346C59.1366 10.2247 58.8332 10.0287 58.5813 9.758C58.3293 9.48733 58.2033 9.114 58.2033 8.638C58.2033 8.05933 58.4413 7.58333 58.9172 7.21C59.4026 6.82733 60.0886 6.636 60.9753 6.636C61.4419 6.636 61.9039 6.70133 62.3612 6.832C62.8186 6.96267 63.1919 7.13533 63.4813 7.35L63.1593 7.91C62.8606 7.69533 62.5199 7.532 62.1372 7.42C61.7546 7.308 61.3626 7.252 60.9613 7.252C60.2799 7.252 59.7666 7.378 59.4213 7.63C59.0759 7.882 58.9032 8.21333 58.9032 8.624C58.9032 8.95067 59.0012 9.20733 59.1973 9.394C59.3933 9.57133 59.6313 9.70667 59.9113 9.8C60.2006 9.884 60.6019 9.97733 61.1153 10.08C61.6846 10.1827 62.1419 10.2947 62.4873 10.416C62.8419 10.528 63.1406 10.7147 63.3833 10.976C63.6259 11.2373 63.7473 11.5967 63.7473 12.054C63.7473 12.6607 63.4952 13.146 62.9912 13.51C62.4872 13.874 61.7779 14.056 60.8633 14.056Z" transform="translate(259 234)" fill="black"/>
<rect width="218" height="50" rx="4" transform="translate(175 150)" fill="#FF583E"/>
<path d="M5.95138 17.216C4.95538 17.216 3.98938 17.084 3.05338 16.82C2.12938 16.544 1.38538 16.19 0.821383 15.758L1.81138 13.562C2.35138 13.958 2.99338 14.276 3.73738 14.516C4.48138 14.756 5.22538 14.876 5.96938 14.876C6.79738 14.876 7.40938 14.756 7.80538 14.516C8.20138 14.264 8.39938 13.934 8.39938 13.526C8.39938 13.226 8.27938 12.98 8.03938 12.788C7.81138 12.584 7.51138 12.422 7.13938 12.302C6.77938 12.182 6.28738 12.05 5.66338 11.906C4.70338 11.678 3.91738 11.45 3.30538 11.222C2.69338 10.994 2.16538 10.628 1.72138 10.124C1.28938 9.62 1.07338 8.948 1.07338 8.108C1.07338 7.376 1.27138 6.716 1.66738 6.128C2.06338 5.528 2.65738 5.054 3.44938 4.706C4.25338 4.358 5.23138 4.184 6.38338 4.184C7.18738 4.184 7.97338 4.28 8.74138 4.472C9.50938 4.664 10.1814 4.94 10.7574 5.3L9.85738 7.514C8.69338 6.854 7.52938 6.524 6.36538 6.524C5.54938 6.524 4.94338 6.656 4.54738 6.92C4.16338 7.184 3.97138 7.532 3.97138 7.964C3.97138 8.396 4.19338 8.72 4.63738 8.936C5.09338 9.14 5.78338 9.344 6.70738 9.548C7.66738 9.776 8.45338 10.004 9.06538 10.232C9.67738 10.46 10.1994 10.82 10.6314 11.312C11.0754 11.804 11.2974 12.47 11.2974 13.31C11.2974 14.03 11.0934 14.69 10.6854 15.29C10.2894 15.878 9.68938 16.346 8.88538 16.694C8.08138 17.042 7.10338 17.216 5.95138 17.216ZM19.3919 17.216C18.0839 17.216 16.9019 16.934 15.8459 16.37C14.8019 15.806 13.9799 15.032 13.3799 14.048C12.7919 13.052 12.4979 11.936 12.4979 10.7C12.4979 9.464 12.7919 8.354 13.3799 7.37C13.9799 6.374 14.8019 5.594 15.8459 5.03C16.9019 4.466 18.0839 4.184 19.3919 4.184C20.6999 4.184 21.8759 4.466 22.9199 5.03C23.9639 5.594 24.7859 6.374 25.3859 7.37C25.9859 8.354 26.2859 9.464 26.2859 10.7C26.2859 11.936 25.9859 13.052 25.3859 14.048C24.7859 15.032 23.9639 15.806 22.9199 16.37C21.8759 16.934 20.6999 17.216 19.3919 17.216ZM19.3919 14.732C20.1359 14.732 20.8079 14.564 21.4079 14.228C22.0079 13.88 22.4759 13.4 22.8119 12.788C23.1599 12.176 23.3339 11.48 23.3339 10.7C23.3339 9.92 23.1599 9.224 22.8119 8.612C22.4759 8 22.0079 7.526 21.4079 7.19C20.8079 6.842 20.1359 6.668 19.3919 6.668C18.6479 6.668 17.9759 6.842 17.3759 7.19C16.7759 7.526 16.3019 8 15.9539 8.612C15.6179 9.224 15.4499 9.92 15.4499 10.7C15.4499 11.48 15.6179 12.176 15.9539 12.788C16.3019 13.4 16.7759 13.88 17.3759 14.228C17.9759 14.564 18.6479 14.732 19.3919 14.732ZM34.0754 17.216C32.2754 17.216 30.8714 16.718 29.8634 15.722C28.8674 14.726 28.3694 13.304 28.3694 11.456V4.4H31.2854V11.348C31.2854 13.604 32.2214 14.732 34.0934 14.732C35.0054 14.732 35.7014 14.462 36.1814 13.922C36.6614 13.37 36.9014 12.512 36.9014 11.348V4.4H39.7814V11.456C39.7814 13.304 39.2774 14.726 38.2694 15.722C37.2734 16.718 35.8754 17.216 34.0754 17.216ZM50.6909 17L48.2609 13.49H48.1169H45.5789V17H42.6629V4.4H48.1169C49.2329 4.4 50.1989 4.586 51.0149 4.958C51.8429 5.33 52.4789 5.858 52.9229 6.542C53.3669 7.226 53.5889 8.036 53.5889 8.972C53.5889 9.908 53.3609 10.718 52.9049 11.402C52.4609 12.074 51.8249 12.59 50.9969 12.95L53.8229 17H50.6909ZM50.6369 8.972C50.6369 8.264 50.4089 7.724 49.9529 7.352C49.4969 6.968 48.8309 6.776 47.9549 6.776H45.5789V11.168H47.9549C48.8309 11.168 49.4969 10.976 49.9529 10.592C50.4089 10.208 50.6369 9.668 50.6369 8.972ZM61.9293 17.216C60.6453 17.216 59.4813 16.94 58.4373 16.388C57.4053 15.824 56.5893 15.05 55.9893 14.066C55.4013 13.07 55.1073 11.948 55.1073 10.7C55.1073 9.452 55.4013 8.336 55.9893 7.352C56.5893 6.356 57.4053 5.582 58.4373 5.03C59.4813 4.466 60.6513 4.184 61.9473 4.184C63.0393 4.184 64.0233 4.376 64.8993 4.76C65.7873 5.144 66.5313 5.696 67.1313 6.416L65.2593 8.144C64.4073 7.16 63.3513 6.668 62.0913 6.668C61.3113 6.668 60.6153 6.842 60.0033 7.19C59.3913 7.526 58.9113 8 58.5633 8.612C58.2273 9.224 58.0593 9.92 58.0593 10.7C58.0593 11.48 58.2273 12.176 58.5633 12.788C58.9113 13.4 59.3913 13.88 60.0033 14.228C60.6153 14.564 61.3113 14.732 62.0913 14.732C63.3513 14.732 64.4073 14.234 65.2593 13.238L67.1313 14.966C66.5313 15.698 65.7873 16.256 64.8993 16.64C64.0113 17.024 63.0213 17.216 61.9293 17.216ZM78.8564 14.66V17H69.1004V4.4H78.6224V6.74H71.9984V9.476H77.8484V11.744H71.9984V14.66H78.8564Z" transform="translate(244 164)" fill="white"/>
<path d="M60.3536 0.353553C60.5488 0.158291 60.5488 -0.158291 60.3536 -0.353553L57.1716 -3.53553C56.9763 -3.7308 56.6597 -3.7308 56.4645 -3.53553C56.2692 -3.34027 56.2692 -3.02369 56.4645 -2.82843L59.2929 0L56.4645 2.82843C56.2692 3.02369 56.2692 3.34027 56.4645 3.53553C56.6597 3.7308 56.9763 3.7308 57.1716 3.53553L60.3536 0.353553ZM0 0.5H60V-0.5H0V0.5Z" transform="translate(292 78) rotate(90)" fill="#898989"/>
<rect width="70" height="25" transform="translate(257 97)" fill="white"/>
<path d="M7.882 6.692V14H7.21V12.432C6.96733 12.9453 6.608 13.3467 6.132 13.636C5.656 13.916 5.096 14.056 4.452 14.056C3.5 14.056 2.75333 13.79 2.212 13.258C1.67067 12.726 1.4 11.9607 1.4 10.962V6.692H2.1V10.906C2.1 11.7273 2.31 12.3527 2.73 12.782C3.15 13.2113 3.74267 13.426 4.508 13.426C5.32933 13.426 5.978 13.1693 6.454 12.656C6.93933 12.1427 7.182 11.452 7.182 10.584V6.692H7.882ZM14.5172 6.636C15.1986 6.636 15.8146 6.79467 16.3652 7.112C16.9159 7.42933 17.3452 7.868 17.6532 8.428C17.9706 8.988 18.1292 9.62733 18.1292 10.346C18.1292 11.0647 17.9706 11.7087 17.6532 12.278C17.3452 12.838 16.9159 13.2767 16.3652 13.594C15.8146 13.902 15.1986 14.056 14.5172 14.056C13.8732 14.056 13.2899 13.9067 12.7672 13.608C12.2446 13.3 11.8386 12.8753 11.5492 12.334V16.716H10.8492V6.692H11.5212V8.414C11.8106 7.854 12.2166 7.42 12.7392 7.112C13.2712 6.79467 13.8639 6.636 14.5172 6.636ZM14.4752 13.426C15.0352 13.426 15.5392 13.2953 15.9872 13.034C16.4352 12.7727 16.7852 12.4087 17.0372 11.942C17.2986 11.4753 17.4292 10.9433 17.4292 10.346C17.4292 9.74867 17.2986 9.21667 17.0372 8.75C16.7852 8.28333 16.4352 7.91933 15.9872 7.658C15.5392 7.39667 15.0352 7.266 14.4752 7.266C13.9152 7.266 13.4112 7.39667 12.9632 7.658C12.5246 7.91933 12.1746 8.28333 11.9132 8.75C11.6612 9.21667 11.5352 9.74867 11.5352 10.346C11.5352 10.9433 11.6612 11.4753 11.9132 11.942C12.1746 12.4087 12.5246 12.7727 12.9632 13.034C13.4112 13.2953 13.9152 13.426 14.4752 13.426ZM26.7925 3.612V14H26.1065V12.278C25.8172 12.8473 25.4112 13.286 24.8885 13.594C24.3658 13.902 23.7732 14.056 23.1105 14.056C22.4292 14.056 21.8132 13.8973 21.2625 13.58C20.7118 13.2627 20.2778 12.824 19.9605 12.264C19.6525 11.704 19.4985 11.0647 19.4985 10.346C19.4985 9.62733 19.6525 8.988 19.9605 8.428C20.2778 7.85867 20.7118 7.42 21.2625 7.112C21.8132 6.79467 22.4292 6.636 23.1105 6.636C23.7638 6.636 24.3472 6.79 24.8605 7.098C25.3832 7.406 25.7938 7.83533 26.0925 8.386V3.612H26.7925ZM23.1525 13.426C23.7125 13.426 24.2118 13.2953 24.6505 13.034C25.0985 12.7727 25.4485 12.4087 25.7005 11.942C25.9618 11.4753 26.0925 10.9433 26.0925 10.346C26.0925 9.74867 25.9618 9.21667 25.7005 8.75C25.4485 8.28333 25.0985 7.91933 24.6505 7.658C24.2118 7.39667 23.7125 7.266 23.1525 7.266C22.5925 7.266 22.0885 7.39667 21.6405 7.658C21.2018 7.91933 20.8518 8.28333 20.5905 8.75C20.3385 9.21667 20.2125 9.74867 20.2125 10.346C20.2125 10.9433 20.3385 11.4753 20.5905 11.942C20.8518 12.4087 21.2018 12.7727 21.6405 13.034C22.0885 13.2953 22.5925 13.426 23.1525 13.426ZM32.2078 6.636C33.1131 6.636 33.8084 6.86933 34.2938 7.336C34.7791 7.79333 35.0218 8.47 35.0218 9.366V14H34.3498V12.698C34.1164 13.1273 33.7758 13.4633 33.3278 13.706C32.8798 13.9393 32.3431 14.056 31.7178 14.056C30.9058 14.056 30.2618 13.8647 29.7858 13.482C29.3191 13.0993 29.0858 12.5953 29.0858 11.97C29.0858 11.3633 29.3004 10.8733 29.7298 10.5C30.1684 10.1173 30.8638 9.926 31.8158 9.926H34.3218V9.338C34.3218 8.65667 34.1351 8.13867 33.7618 7.784C33.3978 7.42933 32.8611 7.252 32.1518 7.252C31.6664 7.252 31.1998 7.336 30.7518 7.504C30.3131 7.672 29.9398 7.896 29.6318 8.176L29.2818 7.672C29.6458 7.34533 30.0844 7.09333 30.5978 6.916C31.1111 6.72933 31.6478 6.636 32.2078 6.636ZM31.8158 13.482C32.4224 13.482 32.9358 13.342 33.3558 13.062C33.7851 12.782 34.1071 12.376 34.3218 11.844V10.472H31.8298C31.1111 10.472 30.5884 10.6027 30.2618 10.864C29.9444 11.1253 29.7858 11.4847 29.7858 11.942C29.7858 12.418 29.9631 12.796 30.3178 13.076C30.6724 13.3467 31.1718 13.482 31.8158 13.482ZM41.5319 13.538C41.3545 13.706 41.1305 13.8367 40.8599 13.93C40.5985 14.014 40.3232 14.056 40.0339 14.056C39.3992 14.056 38.9092 13.8833 38.5639 13.538C38.2185 13.1833 38.0459 12.6933 38.0459 12.068V7.294H36.7019V6.692H38.0459V5.096H38.7459V6.692H41.0699V7.294H38.7459V11.998C38.7459 12.474 38.8579 12.838 39.0819 13.09C39.3152 13.3327 39.6559 13.454 40.1039 13.454C40.5612 13.454 40.9392 13.3187 41.2379 13.048L41.5319 13.538ZM49.3982 10.514H43.1122C43.1309 11.0833 43.2756 11.592 43.5462 12.04C43.8169 12.4787 44.1809 12.8193 44.6382 13.062C45.1049 13.3047 45.6276 13.426 46.2062 13.426C46.6822 13.426 47.1209 13.342 47.5222 13.174C47.9329 12.9967 48.2736 12.74 48.5442 12.404L48.9502 12.866C48.6329 13.2487 48.2316 13.5427 47.7462 13.748C47.2702 13.9533 46.7522 14.056 46.1922 14.056C45.4642 14.056 44.8156 13.8973 44.2462 13.58C43.6769 13.2627 43.2289 12.824 42.9022 12.264C42.5849 11.704 42.4262 11.0647 42.4262 10.346C42.4262 9.63667 42.5756 9.002 42.8742 8.442C43.1822 7.87267 43.6022 7.42933 44.1342 7.112C44.6662 6.79467 45.2636 6.636 45.9262 6.636C46.5889 6.636 47.1816 6.79467 47.7042 7.112C48.2362 7.42 48.6516 7.854 48.9502 8.414C49.2582 8.974 49.4122 9.60867 49.4122 10.318L49.3982 10.514ZM45.9262 7.252C45.4129 7.252 44.9509 7.36867 44.5402 7.602C44.1296 7.826 43.7982 8.148 43.5462 8.568C43.3036 8.97867 43.1636 9.44533 43.1262 9.968H48.7262C48.6982 9.44533 48.5582 8.97867 48.3062 8.568C48.0542 8.15733 47.7229 7.83533 47.3122 7.602C46.9016 7.36867 46.4396 7.252 45.9262 7.252ZM53.4258 14.056C52.8377 14.056 52.2777 13.9673 51.7458 13.79C51.2138 13.6127 50.7984 13.3887 50.4997 13.118L50.8218 12.558C51.1204 12.81 51.5031 13.02 51.9698 13.188C52.4458 13.356 52.9404 13.44 53.4537 13.44C54.1911 13.44 54.7324 13.3187 55.0778 13.076C55.4324 12.8333 55.6097 12.4973 55.6097 12.068C55.6097 11.76 55.5117 11.5173 55.3157 11.34C55.1291 11.1627 54.8957 11.032 54.6158 10.948C54.3358 10.864 53.9484 10.7753 53.4537 10.682C52.8751 10.5793 52.4084 10.4673 52.0538 10.346C51.6991 10.2247 51.3957 10.0287 51.1438 9.758C50.8918 9.48733 50.7658 9.114 50.7658 8.638C50.7658 8.05933 51.0038 7.58333 51.4797 7.21C51.9651 6.82733 52.6511 6.636 53.5378 6.636C54.0044 6.636 54.4664 6.70133 54.9237 6.832C55.3811 6.96267 55.7544 7.13533 56.0438 7.35L55.7218 7.91C55.4231 7.69533 55.0824 7.532 54.6997 7.42C54.3171 7.308 53.9251 7.252 53.5238 7.252C52.8424 7.252 52.3291 7.378 51.9838 7.63C51.6384 7.882 51.4657 8.21333 51.4657 8.624C51.4657 8.95067 51.5637 9.20733 51.7598 9.394C51.9558 9.57133 52.1938 9.70667 52.4738 9.8C52.7631 9.884 53.1644 9.97733 53.6778 10.08C54.2471 10.1827 54.7044 10.2947 55.0498 10.416C55.4044 10.528 55.7031 10.7147 55.9458 10.976C56.1884 11.2373 56.3098 11.5967 56.3098 12.054C56.3098 12.6607 56.0577 13.146 55.5537 13.51C55.0497 13.874 54.3404 14.056 53.4258 14.056Z" transform="translate(263 100)" fill="black"/>
<rect width="262" height="34" rx="4" transform="translate(160 32)" fill="#2E3C43"/>
<path d="M5.04 15.888C4.844 16.084 4.60133 16.182 4.312 16.182C4.02267 16.182 3.77533 16.084 3.57 15.888C3.374 15.6827 3.276 15.44 3.276 15.16C3.276 14.88 3.374 14.642 3.57 14.446C3.77533 14.2407 4.02267 14.138 4.312 14.138C4.60133 14.138 4.844 14.2407 5.04 14.446C5.24533 14.642 5.348 14.88 5.348 15.16C5.348 15.44 5.24533 15.6827 5.04 15.888ZM12.239 16.168C11.6696 16.168 11.1376 16.056 10.643 15.832C10.1576 15.5987 9.76095 15.286 9.45295 14.894L10.391 14.068C10.951 14.6653 11.5996 14.964 12.337 14.964C12.7103 14.964 13.0136 14.894 13.247 14.754C13.4896 14.6047 13.611 14.3947 13.611 14.124C13.611 13.7413 13.0836 13.3353 12.029 12.906C12.0103 12.8967 11.9963 12.892 11.987 12.892C11.9776 12.8827 11.9636 12.8733 11.945 12.864C11.9263 12.8547 11.9076 12.85 11.889 12.85C11.8796 12.8407 11.8656 12.8313 11.847 12.822C11.4456 12.654 11.1376 12.5187 10.923 12.416C10.7083 12.304 10.4796 12.1593 10.237 11.982C9.99429 11.8047 9.81695 11.604 9.70495 11.38C9.60229 11.156 9.55095 10.8947 9.55095 10.596C9.55095 10.008 9.79829 9.54133 10.293 9.196C10.797 8.85067 11.4316 8.678 12.197 8.678C13.261 8.678 14.1196 9.05133 14.773 9.798L13.849 10.568C13.3356 10.1107 12.7663 9.882 12.141 9.882C11.7583 9.882 11.4503 9.94733 11.217 10.078C10.9836 10.2087 10.867 10.386 10.867 10.61C10.867 10.9367 11.3803 11.3007 12.407 11.702C12.4443 11.7207 12.4723 11.7347 12.491 11.744C12.827 11.8747 13.0696 11.9727 13.219 12.038C13.3683 12.1033 13.5736 12.2107 13.835 12.36C14.1056 12.5093 14.3016 12.654 14.423 12.794C14.5536 12.934 14.6703 13.1207 14.773 13.354C14.8756 13.578 14.927 13.8253 14.927 14.096C14.927 14.74 14.6843 15.2487 14.199 15.622C13.7136 15.986 13.0603 16.168 12.239 16.168ZM23.3579 12.094C23.3579 12.4487 23.3439 12.7427 23.3159 12.976H18.3879C18.4906 13.5733 18.7052 14.0447 19.0319 14.39C19.3679 14.7353 19.8019 14.908 20.3339 14.908C20.9592 14.908 21.5006 14.6933 21.9579 14.264L22.7839 15.16C22.1119 15.832 21.2906 16.168 20.3199 16.168C19.2839 16.168 18.4672 15.8227 17.8699 15.132C17.2726 14.432 16.9739 13.5267 16.9739 12.416C16.9739 11.2493 17.2726 10.3347 17.8699 9.672C18.4766 9.00933 19.2932 8.678 20.3199 8.678C21.2066 8.678 21.9346 8.96733 22.5039 9.546C23.0732 10.1247 23.3579 10.974 23.3579 12.094ZM18.3599 11.758H21.9719C21.9439 11.1233 21.7712 10.6567 21.4539 10.358C21.1366 10.0593 20.7586 9.91 20.3199 9.91C19.7412 9.91 19.2886 10.0733 18.9619 10.4C18.6352 10.7173 18.4346 11.17 18.3599 11.758ZM28.7509 16.168C27.4442 16.168 26.7909 15.5427 26.7909 14.292V10.078H25.2229V8.846H26.7909V6.564L28.1909 5.892V8.846H30.5989V10.078H28.1909V13.956C28.1909 14.2733 28.2655 14.5113 28.4149 14.67C28.5642 14.8287 28.8302 14.908 29.2129 14.908C29.6329 14.908 30.0529 14.7867 30.4729 14.544L30.3189 15.846C29.9082 16.0607 29.3855 16.168 28.7509 16.168ZM35.3058 16V7.572H32.4638V6.2H39.5758V7.572H36.7338V16H35.3058ZM43.4428 16.168C42.6681 16.168 42.0381 15.9627 41.5528 15.552C41.0674 15.132 40.8248 14.5393 40.8248 13.774C40.8248 12.9993 41.0954 12.4113 41.6368 12.01C42.1874 11.6087 42.8501 11.408 43.6248 11.408C44.3341 11.408 44.9548 11.548 45.4868 11.828V11.338C45.4868 10.3767 45.0014 9.896 44.0308 9.896C43.2934 9.896 42.5328 10.1433 41.7488 10.638L41.3288 9.49C42.1781 8.94867 43.1208 8.678 44.1568 8.678C45.9488 8.678 46.8448 9.55067 46.8448 11.296V16H45.4868V15.384C44.9454 15.9067 44.2641 16.168 43.4428 16.168ZM43.6668 14.936C44.3574 14.936 44.9641 14.656 45.4868 14.096V13.018C44.9921 12.738 44.4414 12.598 43.8348 12.598C43.3588 12.598 42.9621 12.7007 42.6448 12.906C42.3274 13.102 42.1688 13.3913 42.1688 13.774C42.1688 14.1287 42.2994 14.4133 42.5608 14.628C42.8314 14.8333 43.2001 14.936 43.6668 14.936ZM52.2097 16.168C51.4351 16.168 50.7957 15.916 50.2917 15.412V16H48.8917V6.55L50.2917 5.892V9.448C50.5064 9.224 50.7864 9.042 51.1317 8.902C51.4864 8.75267 51.8411 8.678 52.1957 8.678C53.1011 8.678 53.8337 9.014 54.3937 9.686C54.9537 10.3487 55.2337 11.2587 55.2337 12.416C55.2337 13.6107 54.9631 14.5347 54.4217 15.188C53.8897 15.8413 53.1524 16.168 52.2097 16.168ZM51.9857 14.852C52.5924 14.852 53.0451 14.6373 53.3437 14.208C53.6517 13.7787 53.8057 13.1813 53.8057 12.416C53.8057 10.8013 53.1991 9.994 51.9857 9.994C51.6031 9.994 51.2624 10.078 50.9637 10.246C50.6651 10.414 50.4411 10.61 50.2917 10.834V13.998C50.6837 14.5673 51.2484 14.852 51.9857 14.852ZM60.5007 14.754H62.5447V16H57.0427V14.754H59.1007V7.124H57.4067L56.7627 5.892H60.5007V14.754ZM70.9196 12.094C70.9196 12.4487 70.9056 12.7427 70.8776 12.976H65.9496C66.0523 13.5733 66.267 14.0447 66.5936 14.39C66.9296 14.7353 67.3636 14.908 67.8956 14.908C68.521 14.908 69.0623 14.6933 69.5196 14.264L70.3456 15.16C69.6736 15.832 68.8523 16.168 67.8816 16.168C66.8456 16.168 66.029 15.8227 65.4316 15.132C64.8343 14.432 64.5356 13.5267 64.5356 12.416C64.5356 11.2493 64.8343 10.3347 65.4316 9.672C66.0383 9.00933 66.855 8.678 67.8816 8.678C68.7683 8.678 69.4963 8.96733 70.0656 9.546C70.635 10.1247 70.9196 10.974 70.9196 12.094ZM65.9216 11.758H69.5336C69.5056 11.1233 69.333 10.6567 69.0156 10.358C68.6983 10.0593 68.3203 9.91 67.8816 9.91C67.303 9.91 66.8503 10.0733 66.5236 10.4C66.197 10.7173 65.9963 11.17 65.9216 11.758ZM72.5466 16V6.2H73.9326L77.1386 12.654C77.2692 12.8967 77.3672 13.0973 77.4326 13.256C77.4139 12.9013 77.4046 12.7007 77.4046 12.654V6.2H78.7626V16H77.4326L74.1846 9.574C74.1659 9.53667 74.1332 9.476 74.0866 9.392C74.0492 9.308 74.0119 9.22867 73.9746 9.154C73.9372 9.07933 73.9046 9.014 73.8766 8.958C73.8952 9.10733 73.9046 9.308 73.9046 9.56V16H72.5466ZM83.0775 16.168C82.3029 16.168 81.6729 15.9627 81.1875 15.552C80.7022 15.132 80.4595 14.5393 80.4595 13.774C80.4595 12.9993 80.7302 12.4113 81.2715 12.01C81.8222 11.6087 82.4849 11.408 83.2595 11.408C83.9689 11.408 84.5895 11.548 85.1215 11.828V11.338C85.1215 10.3767 84.6362 9.896 83.6655 9.896C82.9282 9.896 82.1675 10.1433 81.3835 10.638L80.9635 9.49C81.8129 8.94867 82.7555 8.678 83.7915 8.678C85.5835 8.678 86.4795 9.55067 86.4795 11.296V16H85.1215V15.384C84.5802 15.9067 83.8989 16.168 83.0775 16.168ZM83.3015 14.936C83.9922 14.936 84.5989 14.656 85.1215 14.096V13.018C84.6269 12.738 84.0762 12.598 83.4695 12.598C82.9935 12.598 82.5969 12.7007 82.2795 12.906C81.9622 13.102 81.8035 13.3913 81.8035 13.774C81.8035 14.1287 81.9342 14.4133 82.1955 14.628C82.4662 14.8333 82.8349 14.936 83.3015 14.936ZM93.4125 8.678C94.0098 8.678 94.4485 8.87867 94.7285 9.28C95.0178 9.68133 95.1625 10.344 95.1625 11.268V16H93.8465V11.632C93.8465 11.0533 93.7952 10.638 93.6925 10.386C93.5898 10.134 93.3938 10.008 93.1045 10.008C92.8058 10.008 92.5772 10.1573 92.4185 10.456C92.2692 10.7547 92.1945 11.1607 92.1945 11.674V16H90.8785V11.534C90.8785 10.5167 90.6312 10.008 90.1365 10.008C89.8378 10.008 89.5998 10.162 89.4225 10.47C89.2545 10.7687 89.1705 11.17 89.1705 11.674V16H87.8545V8.846H89.0865V9.784C89.3572 9.04667 89.8238 8.678 90.4865 8.678C90.8225 8.678 91.1072 8.78533 91.3405 9C91.5738 9.20533 91.7372 9.45267 91.8305 9.742C92.2225 9.03267 92.7498 8.678 93.4125 8.678ZM102.627 12.094C102.627 12.4487 102.613 12.7427 102.585 12.976H97.6574C97.7601 13.5733 97.9748 14.0447 98.3014 14.39C98.6374 14.7353 99.0714 14.908 99.6034 14.908C100.229 14.908 100.77 14.6933 101.227 14.264L102.053 15.16C101.381 15.832 100.56 16.168 99.5894 16.168C98.5534 16.168 97.7368 15.8227 97.1394 15.132C96.5421 14.432 96.2434 13.5267 96.2434 12.416C96.2434 11.2493 96.5421 10.3347 97.1394 9.672C97.7461 9.00933 98.5628 8.678 99.5894 8.678C100.476 8.678 101.204 8.96733 101.773 9.546C102.343 10.1247 102.627 10.974 102.627 12.094ZM97.6294 11.758H101.241C101.213 11.1233 101.041 10.6567 100.723 10.358C100.406 10.0593 100.028 9.91 99.5894 9.91C99.0108 9.91 98.5581 10.0733 98.2314 10.4C97.9048 10.7173 97.7041 11.17 97.6294 11.758Z" transform="translate(173 38)" fill="white"/>
<path d="M108.3 17.82C106.602 16.3267 105.752 14.3947 105.752 12.024C105.752 10.7173 106.009 9.55067 106.522 8.524C107.045 7.49733 107.689 6.66667 108.454 6.032H109.826C109.593 6.228 109.336 6.49867 109.056 6.844C108.786 7.18 108.496 7.60467 108.188 8.118C107.89 8.622 107.642 9.224 107.446 9.924C107.25 10.6147 107.152 11.3147 107.152 12.024C107.152 12.7427 107.246 13.438 107.432 14.11C107.619 14.7727 107.862 15.3513 108.16 15.846C108.468 16.3407 108.739 16.7373 108.972 17.036C109.206 17.3347 109.439 17.596 109.672 17.82H108.3ZM223.971 17.82C224.204 17.596 224.433 17.3347 224.657 17.036C224.89 16.7467 225.161 16.3547 225.469 15.86C225.777 15.356 226.024 14.7727 226.211 14.11C226.397 13.438 226.491 12.7427 226.491 12.024C226.491 11.3147 226.388 10.6147 226.183 9.924C225.987 9.224 225.735 8.622 225.427 8.118C225.128 7.60467 224.843 7.18 224.573 6.844C224.302 6.508 224.05 6.23733 223.817 6.032H225.189C225.954 6.66667 226.593 7.49733 227.107 8.524C227.629 9.55067 227.891 10.7173 227.891 12.024C227.891 14.3947 227.041 16.3267 225.343 17.82H223.971Z" transform="translate(173 38)" fill="#4DF4FF"/>
<path d="M115.275 9.84C114.967 9.84 114.711 9.728 114.505 9.504C114.3 9.28 114.197 8.958 114.197 8.538C114.197 7.90333 114.347 7.306 114.645 6.746C114.953 6.17667 115.299 5.752 115.681 5.472L116.339 5.822C115.807 6.438 115.509 7.10067 115.443 7.81C115.705 7.85667 115.915 7.96867 116.073 8.146C116.232 8.314 116.311 8.52867 116.311 8.79C116.311 9.098 116.209 9.35 116.003 9.546C115.798 9.742 115.555 9.84 115.275 9.84ZM125.12 8.678C125.718 8.678 126.156 8.87867 126.436 9.28C126.726 9.68133 126.87 10.344 126.87 11.268V16H125.554V11.632C125.554 11.0533 125.503 10.638 125.4 10.386C125.298 10.134 125.102 10.008 124.812 10.008C124.514 10.008 124.285 10.1573 124.126 10.456C123.977 10.7547 123.902 11.1607 123.902 11.674V16H122.586V11.534C122.586 10.5167 122.339 10.008 121.844 10.008C121.546 10.008 121.308 10.162 121.13 10.47C120.962 10.7687 120.878 11.17 120.878 11.674V16H119.562V8.846H120.794V9.784C121.065 9.04667 121.532 8.678 122.194 8.678C122.53 8.678 122.815 8.78533 123.048 9C123.282 9.20533 123.445 9.45267 123.538 9.742C123.93 9.03267 124.458 8.678 125.12 8.678ZM129.351 18.716L130.429 15.832L127.783 8.846H129.211L130.891 13.452C130.957 13.6387 131.031 13.8673 131.115 14.138C131.162 13.9793 131.241 13.7507 131.353 13.452L133.047 8.846H134.503L130.779 18.716H129.351ZM135.318 18.478V17.246H142.822V18.478H135.318ZM147.375 8.678C149.139 8.678 150.021 9.70467 150.021 11.758V16H148.621V11.856C148.621 10.6147 148.098 9.994 147.053 9.994C145.942 9.994 145.387 10.6053 145.387 11.828V16H143.987V8.846H145.289V9.714C145.466 9.406 145.742 9.15867 146.115 8.972C146.488 8.776 146.908 8.678 147.375 8.678ZM158.116 12.094C158.116 12.4487 158.102 12.7427 158.074 12.976H153.146C153.249 13.5733 153.463 14.0447 153.79 14.39C154.126 14.7353 154.56 14.908 155.092 14.908C155.717 14.908 156.259 14.6933 156.716 14.264L157.542 15.16C156.87 15.832 156.049 16.168 155.078 16.168C154.042 16.168 153.225 15.8227 152.628 15.132C152.031 14.432 151.732 13.5267 151.732 12.416C151.732 11.2493 152.031 10.3347 152.628 9.672C153.235 9.00933 154.051 8.678 155.078 8.678C155.965 8.678 156.693 8.96733 157.262 9.546C157.831 10.1247 158.116 10.974 158.116 12.094ZM153.118 11.758H156.73C156.702 11.1233 156.529 10.6567 156.212 10.358C155.895 10.0593 155.517 9.91 155.078 9.91C154.499 9.91 154.047 10.0733 153.72 10.4C153.393 10.7173 153.193 11.17 153.118 11.758ZM160.639 16L158.819 8.846H160.135L161.115 13.004C161.171 13.228 161.213 13.4427 161.241 13.648C161.306 13.3027 161.348 13.0833 161.367 12.99L162.305 8.846H163.397L164.349 12.99C164.368 13.0647 164.41 13.298 164.475 13.69C164.512 13.4473 164.559 13.214 164.615 12.99L165.567 8.846H166.883L165.063 16H163.943L163.019 11.982C162.916 11.45 162.86 11.1653 162.851 11.128C162.832 11.2307 162.8 11.38 162.753 11.576C162.706 11.772 162.678 11.9027 162.669 11.968L161.773 16H160.639ZM167.026 18.478V17.246H174.53V18.478H167.026ZM179.363 16.168C178.056 16.168 177.403 15.5427 177.403 14.292V10.078H175.835V8.846H177.403V6.564L178.803 5.892V8.846H181.211V10.078H178.803V13.956C178.803 14.2733 178.878 14.5113 179.027 14.67C179.176 14.8287 179.442 14.908 179.825 14.908C180.245 14.908 180.665 14.7867 181.085 14.544L180.931 15.846C180.52 16.0607 179.998 16.168 179.363 16.168ZM186.128 16.168C185.353 16.168 184.723 15.9627 184.238 15.552C183.753 15.132 183.51 14.5393 183.51 13.774C183.51 12.9993 183.781 12.4113 184.322 12.01C184.873 11.6087 185.535 11.408 186.31 11.408C187.019 11.408 187.64 11.548 188.172 11.828V11.338C188.172 10.3767 187.687 9.896 186.716 9.896C185.979 9.896 185.218 10.1433 184.434 10.638L184.014 9.49C184.863 8.94867 185.806 8.678 186.842 8.678C188.634 8.678 189.53 9.55067 189.53 11.296V16H188.172V15.384C187.631 15.9067 186.949 16.168 186.128 16.168ZM186.352 14.936C187.043 14.936 187.649 14.656 188.172 14.096V13.018C187.677 12.738 187.127 12.598 186.52 12.598C186.044 12.598 185.647 12.7007 185.33 12.906C185.013 13.102 184.854 13.3913 184.854 13.774C184.854 14.1287 184.985 14.4133 185.246 14.628C185.517 14.8333 185.885 14.936 186.352 14.936ZM194.895 16.168C194.12 16.168 193.481 15.916 192.977 15.412V16H191.577V6.55L192.977 5.892V9.448C193.192 9.224 193.472 9.042 193.817 8.902C194.172 8.75267 194.526 8.678 194.881 8.678C195.786 8.678 196.519 9.014 197.079 9.686C197.639 10.3487 197.919 11.2587 197.919 12.416C197.919 13.6107 197.648 14.5347 197.107 15.188C196.575 15.8413 195.838 16.168 194.895 16.168ZM194.671 14.852C195.278 14.852 195.73 14.6373 196.029 14.208C196.337 13.7787 196.491 13.1813 196.491 12.416C196.491 10.8013 195.884 9.994 194.671 9.994C194.288 9.994 193.948 10.078 193.649 10.246C193.35 10.414 193.126 10.61 192.977 10.834V13.998C193.369 14.5673 193.934 14.852 194.671 14.852ZM203.186 14.754H205.23V16H199.728V14.754H201.786V7.124H200.092L199.448 5.892H203.186V14.754ZM213.605 12.094C213.605 12.4487 213.591 12.7427 213.563 12.976H208.635C208.737 13.5733 208.952 14.0447 209.279 14.39C209.615 14.7353 210.049 14.908 210.581 14.908C211.206 14.908 211.747 14.6933 212.205 14.264L213.031 15.16C212.359 15.832 211.537 16.168 210.567 16.168C209.531 16.168 208.714 15.8227 208.117 15.132C207.519 14.432 207.221 13.5267 207.221 12.416C207.221 11.2493 207.519 10.3347 208.117 9.672C208.723 9.00933 209.54 8.678 210.567 8.678C211.453 8.678 212.181 8.96733 212.751 9.546C213.32 10.1247 213.605 10.974 213.605 12.094ZM208.607 11.758H212.219C212.191 11.1233 212.018 10.6567 211.701 10.358C211.383 10.0593 211.005 9.91 210.567 9.91C209.988 9.91 209.535 10.0733 209.209 10.4C208.882 10.7173 208.681 11.17 208.607 11.758ZM217.934 9.84L217.276 9.476C217.808 8.87867 218.106 8.216 218.172 7.488C217.91 7.44133 217.7 7.334 217.542 7.166C217.383 6.998 217.304 6.77867 217.304 6.508C217.304 6.2 217.406 5.95267 217.612 5.766C217.817 5.57 218.06 5.472 218.34 5.472C218.648 5.472 218.904 5.584 219.11 5.808C219.315 6.032 219.418 6.34933 219.418 6.76C219.418 7.39467 219.264 7.99667 218.956 8.566C218.657 9.126 218.316 9.55067 217.934 9.84Z" transform="translate(173 38)" fill="#6CDBDF"/>
</svg>
