<svg width="583" height="391" viewBox="0 0 583 391" fill="none" xmlns="http://www.w3.org/2000/svg">
<rect width="583" height="391" fill="white"/>
<rect width="218" height="50" rx="4" transform="translate(32 309)" fill="#FF583E"/>
<path d="M1.82896 4.4H4.74496V14.624H11.063V17H1.82896V4.4ZM21.0957 14.3H15.2457L14.1297 17H11.1417L16.7577 4.4H19.6377L25.2717 17H22.2117L21.0957 14.3ZM20.1777 12.086L18.1797 7.262L16.1817 12.086H20.1777ZM31.8535 12.536V17H28.9375V12.5L24.0595 4.4H27.1555L30.5215 9.998L33.8875 4.4H36.7495L31.8535 12.536ZM47.6025 14.66V17H37.8465V4.4H47.3685V6.74H40.7445V9.476H46.5945V11.744H40.7445V14.66H47.6025ZM57.9507 17L55.5207 13.49H55.3767H52.8387V17H49.9227V4.4H55.3767C56.4927 4.4 57.4587 4.586 58.2747 4.958C59.1027 5.33 59.7387 5.858 60.1827 6.542C60.6267 7.226 60.8487 8.036 60.8487 8.972C60.8487 9.908 60.6207 10.718 60.1647 11.402C59.7207 12.074 59.0847 12.59 58.2567 12.95L61.0827 17H57.9507ZM57.8967 8.972C57.8967 8.264 57.6687 7.724 57.2127 7.352C56.7567 6.968 56.0907 6.776 55.2147 6.776H52.8387V11.168H55.2147C56.0907 11.168 56.7567 10.976 57.2127 10.592C57.6687 10.208 57.8967 9.668 57.8967 8.972Z" transform="translate(110 323)" fill="white"/>
<rect width="218" height="50" rx="4" transform="translate(333 309)" fill="#FF583E"/>
<path d="M1.8231 4.4H7.5471C8.9151 4.4 10.1211 4.664 11.1651 5.192C12.2211 5.708 13.0371 6.44 13.6131 7.388C14.2011 8.336 14.4951 9.44 14.4951 10.7C14.4951 11.96 14.2011 13.064 13.6131 14.012C13.0371 14.96 12.2211 15.698 11.1651 16.226C10.1211 16.742 8.9151 17 7.5471 17H1.8231V4.4ZM7.4031 14.606C8.6631 14.606 9.6651 14.258 10.4091 13.562C11.1651 12.854 11.5431 11.9 11.5431 10.7C11.5431 9.5 11.1651 8.552 10.4091 7.856C9.6651 7.148 8.6631 6.794 7.4031 6.794H4.7391V14.606H7.4031ZM24.8164 14.3H18.9664L17.8504 17H14.8624L20.4784 4.4H23.3584L28.9924 17H25.9324L24.8164 14.3ZM23.8984 12.086L21.9004 7.262L19.9024 12.086H23.8984ZM32.2769 6.776H28.2449V4.4H39.2249V6.776H35.1929V17H32.2769V6.776ZM48.459 14.3H42.609L41.493 17H38.505L44.121 4.4H47.001L52.635 17H49.575L48.459 14.3ZM47.541 12.086L45.543 7.262L43.545 12.086H47.541ZM65.3707 4.4L59.9167 17H57.0367L51.6007 4.4H54.7507L58.5847 13.4L62.4727 4.4H65.3707ZM66.4227 4.4H69.3387V17H66.4227V4.4ZM82.085 14.66V17H72.329V4.4H81.851V6.74H75.227V9.476H81.077V11.744H75.227V14.66H82.085ZM103.273 4.4L99.1514 17H96.0194L93.2474 8.468L90.3854 17H87.2714L83.1314 4.4H86.1554L88.9994 13.256L91.9694 4.4H94.6694L97.5494 13.328L100.483 4.4H103.273Z" transform="translate(390 323)" fill="white"/>
<path d="M25.3536 0.353553C25.5488 0.158291 25.5488 -0.158291 25.3536 -0.353553L22.1716 -3.53553C21.9763 -3.7308 21.6597 -3.7308 21.4645 -3.53553C21.2692 -3.34027 21.2692 -3.02369 21.4645 -2.82843L24.2929 0L21.4645 2.82843C21.2692 3.02369 21.2692 3.34027 21.4645 3.53553C21.6597 3.7308 21.9763 3.7308 22.1716 3.53553L25.3536 0.353553ZM0 0.5H25V-0.5H0V0.5Z" transform="translate(141 272) rotate(90)" fill="#898989"/>
<line y1="-0.5" x2="301" y2="-0.5" transform="translate(141 272.305)" stroke="#898989"/>
<path d="M25.3536 0.353553C25.5488 0.158291 25.5488 -0.158291 25.3536 -0.353553L22.1716 -3.53553C21.9763 -3.7308 21.6597 -3.7308 21.4645 -3.53553C21.2692 -3.34027 21.2692 -3.02369 21.4645 -2.82843L24.2929 0L21.4645 2.82843C21.2692 3.02369 21.2692 3.34027 21.4645 3.53553C21.6597 3.7308 21.9763 3.7308 22.1716 3.53553L25.3536 0.353553ZM0 0.5H25V-0.5H0V0.5Z" transform="translate(442 272) rotate(90)" fill="#898989"/>
<line y1="-0.5" x2="60" y2="-0.5" transform="translate(291 212) rotate(90)" stroke="#898989"/>
<rect width="70" height="25" transform="translate(241 231)" fill="white"/>
<path d="M2.156 8.288C2.38 7.756 2.73 7.35 3.206 7.07C3.682 6.78067 4.26067 6.636 4.942 6.636V7.322L4.774 7.308C3.962 7.308 3.32733 7.56467 2.87 8.078C2.41267 8.582 2.184 9.28667 2.184 10.192V14H1.484V6.692H2.156V8.288ZM12.9764 10.514H6.69036C6.70903 11.0833 6.85369 11.592 7.12436 12.04C7.39503 12.4787 7.75903 12.8193 8.21636 13.062C8.68303 13.3047 9.20569 13.426 9.78436 13.426C10.2604 13.426 10.699 13.342 11.1004 13.174C11.511 12.9967 11.8517 12.74 12.1224 12.404L12.5284 12.866C12.211 13.2487 11.8097 13.5427 11.3244 13.748C10.8484 13.9533 10.3304 14.056 9.77036 14.056C9.04236 14.056 8.39369 13.8973 7.82436 13.58C7.25503 13.2627 6.80703 12.824 6.48036 12.264C6.16303 11.704 6.00436 11.0647 6.00436 10.346C6.00436 9.63667 6.15369 9.002 6.45236 8.442C6.76036 7.87267 7.18036 7.42933 7.71236 7.112C8.24436 6.79467 8.84169 6.636 9.50436 6.636C10.167 6.636 10.7597 6.79467 11.2824 7.112C11.8144 7.42 12.2297 7.854 12.5284 8.414C12.8364 8.974 12.9904 9.60867 12.9904 10.318L12.9764 10.514ZM9.50436 7.252C8.99103 7.252 8.52903 7.36867 8.11836 7.602C7.70769 7.826 7.37636 8.148 7.12436 8.568C6.88169 8.97867 6.74169 9.44533 6.70436 9.968H12.3044C12.2764 9.44533 12.1364 8.97867 11.8844 8.568C11.6324 8.15733 11.301 7.83533 10.8904 7.602C10.4797 7.36867 10.0177 7.252 9.50436 7.252ZM17.3539 4.158C16.4392 4.158 15.9819 4.648 15.9819 5.628V6.692H18.3199V7.294H15.9959V14H15.2959V7.294H13.9519V6.692H15.2959V5.572C15.2959 4.956 15.4732 4.466 15.8279 4.102C16.1825 3.738 16.6819 3.556 17.3259 3.556C17.6059 3.556 17.8719 3.598 18.1239 3.682C18.3852 3.75667 18.5999 3.87333 18.7679 4.032L18.4879 4.564C18.1892 4.29333 17.8112 4.158 17.3539 4.158ZM21.5427 8.288C21.7667 7.756 22.1167 7.35 22.5927 7.07C23.0687 6.78067 23.6474 6.636 24.3287 6.636V7.322L24.1607 7.308C23.3487 7.308 22.7141 7.56467 22.2567 8.078C21.7994 8.582 21.5707 9.28667 21.5707 10.192V14H20.8707V6.692H21.5427V8.288ZM32.3631 10.514H26.0771C26.0957 11.0833 26.2404 11.592 26.5111 12.04C26.7817 12.4787 27.1457 12.8193 27.6031 13.062C28.0697 13.3047 28.5924 13.426 29.1711 13.426C29.6471 13.426 30.0857 13.342 30.4871 13.174C30.8977 12.9967 31.2384 12.74 31.5091 12.404L31.9151 12.866C31.5977 13.2487 31.1964 13.5427 30.7111 13.748C30.2351 13.9533 29.7171 14.056 29.1571 14.056C28.4291 14.056 27.7804 13.8973 27.2111 13.58C26.6417 13.2627 26.1937 12.824 25.8671 12.264C25.5497 11.704 25.3911 11.0647 25.3911 10.346C25.3911 9.63667 25.5404 9.002 25.8391 8.442C26.1471 7.87267 26.5671 7.42933 27.0991 7.112C27.6311 6.79467 28.2284 6.636 28.8911 6.636C29.5537 6.636 30.1464 6.79467 30.6691 7.112C31.2011 7.42 31.6164 7.854 31.9151 8.414C32.2231 8.974 32.3771 9.60867 32.3771 10.318L32.3631 10.514ZM28.8911 7.252C28.3777 7.252 27.9157 7.36867 27.5051 7.602C27.0944 7.826 26.7631 8.148 26.5111 8.568C26.2684 8.97867 26.1284 9.44533 26.0911 9.968H31.6911C31.6631 9.44533 31.5231 8.97867 31.2711 8.568C31.0191 8.15733 30.6877 7.83533 30.2771 7.602C29.8664 7.36867 29.4044 7.252 28.8911 7.252ZM36.3906 14.056C35.8026 14.056 35.2426 13.9673 34.7106 13.79C34.1786 13.6127 33.7633 13.3887 33.4646 13.118L33.7866 12.558C34.0853 12.81 34.4679 13.02 34.9346 13.188C35.4106 13.356 35.9053 13.44 36.4186 13.44C37.1559 13.44 37.6973 13.3187 38.0426 13.076C38.3973 12.8333 38.5746 12.4973 38.5746 12.068C38.5746 11.76 38.4766 11.5173 38.2806 11.34C38.0939 11.1627 37.8606 11.032 37.5806 10.948C37.3006 10.864 36.9133 10.7753 36.4186 10.682C35.8399 10.5793 35.3733 10.4673 35.0186 10.346C34.6639 10.2247 34.3606 10.0287 34.1086 9.758C33.8566 9.48733 33.7306 9.114 33.7306 8.638C33.7306 8.05933 33.9686 7.58333 34.4446 7.21C34.9299 6.82733 35.6159 6.636 36.5026 6.636C36.9693 6.636 37.4313 6.70133 37.8886 6.832C38.3459 6.96267 38.7193 7.13533 39.0086 7.35L38.6866 7.91C38.3879 7.69533 38.0473 7.532 37.6646 7.42C37.2819 7.308 36.8899 7.252 36.4886 7.252C35.8073 7.252 35.2939 7.378 34.9486 7.63C34.6033 7.882 34.4306 8.21333 34.4306 8.624C34.4306 8.95067 34.5286 9.20733 34.7246 9.394C34.9206 9.57133 35.1586 9.70667 35.4386 9.8C35.7279 9.884 36.1293 9.97733 36.6426 10.08C37.2119 10.1827 37.6693 10.2947 38.0146 10.416C38.3693 10.528 38.6679 10.7147 38.9106 10.976C39.1533 11.2373 39.2746 11.5967 39.2746 12.054C39.2746 12.6607 39.0226 13.146 38.5186 13.51C38.0146 13.874 37.3053 14.056 36.3906 14.056ZM44.7981 6.636C45.7128 6.636 46.4361 6.902 46.9681 7.434C47.5001 7.966 47.7661 8.73133 47.7661 9.73V14H47.0661V9.786C47.0661 8.96467 46.8561 8.33933 46.4361 7.91C46.0255 7.48067 45.4468 7.266 44.7001 7.266C43.8415 7.266 43.1648 7.52267 42.6701 8.036C42.1755 8.54933 41.9281 9.24 41.9281 10.108V14H41.2281V3.612H41.9281V8.218C42.1801 7.714 42.5535 7.32667 43.0481 7.056C43.5428 6.776 44.1261 6.636 44.7981 6.636ZM56.8357 10.514H50.5497C50.5684 11.0833 50.7131 11.592 50.9837 12.04C51.2544 12.4787 51.6184 12.8193 52.0757 13.062C52.5424 13.3047 53.0651 13.426 53.6437 13.426C54.1197 13.426 54.5584 13.342 54.9597 13.174C55.3704 12.9967 55.7111 12.74 55.9817 12.404L56.3877 12.866C56.0704 13.2487 55.6691 13.5427 55.1837 13.748C54.7077 13.9533 54.1897 14.056 53.6297 14.056C52.9017 14.056 52.2531 13.8973 51.6837 13.58C51.1144 13.2627 50.6664 12.824 50.3397 12.264C50.0224 11.704 49.8637 11.0647 49.8637 10.346C49.8637 9.63667 50.0131 9.002 50.3117 8.442C50.6197 7.87267 51.0397 7.42933 51.5717 7.112C52.1037 6.79467 52.7011 6.636 53.3637 6.636C54.0264 6.636 54.6191 6.79467 55.1417 7.112C55.6737 7.42 56.0891 7.854 56.3877 8.414C56.6957 8.974 56.8497 9.60867 56.8497 10.318L56.8357 10.514ZM53.3637 7.252C52.8504 7.252 52.3884 7.36867 51.9777 7.602C51.5671 7.826 51.2357 8.148 50.9837 8.568C50.7411 8.97867 50.6011 9.44533 50.5637 9.968H56.1637C56.1357 9.44533 55.9957 8.97867 55.7437 8.568C55.4917 8.15733 55.1604 7.83533 54.7497 7.602C54.3391 7.36867 53.8771 7.252 53.3637 7.252ZM60.8633 14.056C60.2752 14.056 59.7152 13.9673 59.1833 13.79C58.6513 13.6127 58.2359 13.3887 57.9372 13.118L58.2593 12.558C58.5579 12.81 58.9406 13.02 59.4073 13.188C59.8833 13.356 60.3779 13.44 60.8912 13.44C61.6286 13.44 62.1699 13.3187 62.5153 13.076C62.8699 12.8333 63.0472 12.4973 63.0472 12.068C63.0472 11.76 62.9492 11.5173 62.7532 11.34C62.5666 11.1627 62.3332 11.032 62.0533 10.948C61.7733 10.864 61.3859 10.7753 60.8912 10.682C60.3126 10.5793 59.8459 10.4673 59.4913 10.346C59.1366 10.2247 58.8332 10.0287 58.5813 9.758C58.3293 9.48733 58.2033 9.114 58.2033 8.638C58.2033 8.05933 58.4413 7.58333 58.9172 7.21C59.4026 6.82733 60.0886 6.636 60.9753 6.636C61.4419 6.636 61.9039 6.70133 62.3612 6.832C62.8186 6.96267 63.1919 7.13533 63.4813 7.35L63.1593 7.91C62.8606 7.69533 62.5199 7.532 62.1372 7.42C61.7546 7.308 61.3626 7.252 60.9613 7.252C60.2799 7.252 59.7666 7.378 59.4213 7.63C59.0759 7.882 58.9032 8.21333 58.9032 8.624C58.9032 8.95067 59.0012 9.20733 59.1973 9.394C59.3933 9.57133 59.6313 9.70667 59.9113 9.8C60.2006 9.884 60.6019 9.97733 61.1153 10.08C61.6846 10.1827 62.1419 10.2947 62.4873 10.416C62.8419 10.528 63.1406 10.7147 63.3833 10.976C63.6259 11.2373 63.7473 11.5967 63.7473 12.054C63.7473 12.6607 63.4952 13.146 62.9912 13.51C62.4872 13.874 61.7779 14.056 60.8633 14.056Z" transform="translate(259 234)" fill="black"/>
<rect width="218" height="50" rx="4" transform="translate(175 150)" fill="#FF583E"/>
<path d="M5.95138 17.216C4.95538 17.216 3.98938 17.084 3.05338 16.82C2.12938 16.544 1.38538 16.19 0.821383 15.758L1.81138 13.562C2.35138 13.958 2.99338 14.276 3.73738 14.516C4.48138 14.756 5.22538 14.876 5.96938 14.876C6.79738 14.876 7.40938 14.756 7.80538 14.516C8.20138 14.264 8.39938 13.934 8.39938 13.526C8.39938 13.226 8.27938 12.98 8.03938 12.788C7.81138 12.584 7.51138 12.422 7.13938 12.302C6.77938 12.182 6.28738 12.05 5.66338 11.906C4.70338 11.678 3.91738 11.45 3.30538 11.222C2.69338 10.994 2.16538 10.628 1.72138 10.124C1.28938 9.62 1.07338 8.948 1.07338 8.108C1.07338 7.376 1.27138 6.716 1.66738 6.128C2.06338 5.528 2.65738 5.054 3.44938 4.706C4.25338 4.358 5.23138 4.184 6.38338 4.184C7.18738 4.184 7.97338 4.28 8.74138 4.472C9.50938 4.664 10.1814 4.94 10.7574 5.3L9.85738 7.514C8.69338 6.854 7.52938 6.524 6.36538 6.524C5.54938 6.524 4.94338 6.656 4.54738 6.92C4.16338 7.184 3.97138 7.532 3.97138 7.964C3.97138 8.396 4.19338 8.72 4.63738 8.936C5.09338 9.14 5.78338 9.344 6.70738 9.548C7.66738 9.776 8.45338 10.004 9.06538 10.232C9.67738 10.46 10.1994 10.82 10.6314 11.312C11.0754 11.804 11.2974 12.47 11.2974 13.31C11.2974 14.03 11.0934 14.69 10.6854 15.29C10.2894 15.878 9.68938 16.346 8.88538 16.694C8.08138 17.042 7.10338 17.216 5.95138 17.216ZM19.3919 17.216C18.0839 17.216 16.9019 16.934 15.8459 16.37C14.8019 15.806 13.9799 15.032 13.3799 14.048C12.7919 13.052 12.4979 11.936 12.4979 10.7C12.4979 9.464 12.7919 8.354 13.3799 7.37C13.9799 6.374 14.8019 5.594 15.8459 5.03C16.9019 4.466 18.0839 4.184 19.3919 4.184C20.6999 4.184 21.8759 4.466 22.9199 5.03C23.9639 5.594 24.7859 6.374 25.3859 7.37C25.9859 8.354 26.2859 9.464 26.2859 10.7C26.2859 11.936 25.9859 13.052 25.3859 14.048C24.7859 15.032 23.9639 15.806 22.9199 16.37C21.8759 16.934 20.6999 17.216 19.3919 17.216ZM19.3919 14.732C20.1359 14.732 20.8079 14.564 21.4079 14.228C22.0079 13.88 22.4759 13.4 22.8119 12.788C23.1599 12.176 23.3339 11.48 23.3339 10.7C23.3339 9.92 23.1599 9.224 22.8119 8.612C22.4759 8 22.0079 7.526 21.4079 7.19C20.8079 6.842 20.1359 6.668 19.3919 6.668C18.6479 6.668 17.9759 6.842 17.3759 7.19C16.7759 7.526 16.3019 8 15.9539 8.612C15.6179 9.224 15.4499 9.92 15.4499 10.7C15.4499 11.48 15.6179 12.176 15.9539 12.788C16.3019 13.4 16.7759 13.88 17.3759 14.228C17.9759 14.564 18.6479 14.732 19.3919 14.732ZM34.0754 17.216C32.2754 17.216 30.8714 16.718 29.8634 15.722C28.8674 14.726 28.3694 13.304 28.3694 11.456V4.4H31.2854V11.348C31.2854 13.604 32.2214 14.732 34.0934 14.732C35.0054 14.732 35.7014 14.462 36.1814 13.922C36.6614 13.37 36.9014 12.512 36.9014 11.348V4.4H39.7814V11.456C39.7814 13.304 39.2774 14.726 38.2694 15.722C37.2734 16.718 35.8754 17.216 34.0754 17.216ZM50.6909 17L48.2609 13.49H48.1169H45.5789V17H42.6629V4.4H48.1169C49.2329 4.4 50.1989 4.586 51.0149 4.958C51.8429 5.33 52.4789 5.858 52.9229 6.542C53.3669 7.226 53.5889 8.036 53.5889 8.972C53.5889 9.908 53.3609 10.718 52.9049 11.402C52.4609 12.074 51.8249 12.59 50.9969 12.95L53.8229 17H50.6909ZM50.6369 8.972C50.6369 8.264 50.4089 7.724 49.9529 7.352C49.4969 6.968 48.8309 6.776 47.9549 6.776H45.5789V11.168H47.9549C48.8309 11.168 49.4969 10.976 49.9529 10.592C50.4089 10.208 50.6369 9.668 50.6369 8.972ZM61.9293 17.216C60.6453 17.216 59.4813 16.94 58.4373 16.388C57.4053 15.824 56.5893 15.05 55.9893 14.066C55.4013 13.07 55.1073 11.948 55.1073 10.7C55.1073 9.452 55.4013 8.336 55.9893 7.352C56.5893 6.356 57.4053 5.582 58.4373 5.03C59.4813 4.466 60.6513 4.184 61.9473 4.184C63.0393 4.184 64.0233 4.376 64.8993 4.76C65.7873 5.144 66.5313 5.696 67.1313 6.416L65.2593 8.144C64.4073 7.16 63.3513 6.668 62.0913 6.668C61.3113 6.668 60.6153 6.842 60.0033 7.19C59.3913 7.526 58.9113 8 58.5633 8.612C58.2273 9.224 58.0593 9.92 58.0593 10.7C58.0593 11.48 58.2273 12.176 58.5633 12.788C58.9113 13.4 59.3913 13.88 60.0033 14.228C60.6153 14.564 61.3113 14.732 62.0913 14.732C63.3513 14.732 64.4073 14.234 65.2593 13.238L67.1313 14.966C66.5313 15.698 65.7873 16.256 64.8993 16.64C64.0113 17.024 63.0213 17.216 61.9293 17.216ZM78.8564 14.66V17H69.1004V4.4H78.6224V6.74H71.9984V9.476H77.8484V11.744H71.9984V14.66H78.8564Z" transform="translate(244 164)" fill="white"/>
<path d="M60.3536 0.353553C60.5488 0.158291 60.5488 -0.158291 60.3536 -0.353553L57.1716 -3.53553C56.9763 -3.7308 56.6597 -3.7308 56.4645 -3.53553C56.2692 -3.34027 56.2692 -3.02369 56.4645 -2.82843L59.2929 0L56.4645 2.82843C56.2692 3.02369 56.2692 3.34027 56.4645 3.53553C56.6597 3.7308 56.9763 3.7308 57.1716 3.53553L60.3536 0.353553ZM0 0.5H60V-0.5H0V0.5Z" transform="translate(292 78) rotate(90)" fill="#898989"/>
<rect width="70" height="25" transform="translate(257 97)" fill="white"/>
<path d="M7.882 6.692V14H7.21V12.432C6.96733 12.9453 6.608 13.3467 6.132 13.636C5.656 13.916 5.096 14.056 4.452 14.056C3.5 14.056 2.75333 13.79 2.212 13.258C1.67067 12.726 1.4 11.9607 1.4 10.962V6.692H2.1V10.906C2.1 11.7273 2.31 12.3527 2.73 12.782C3.15 13.2113 3.74267 13.426 4.508 13.426C5.32933 13.426 5.978 13.1693 6.454 12.656C6.93933 12.1427 7.182 11.452 7.182 10.584V6.692H7.882ZM14.5172 6.636C15.1986 6.636 15.8146 6.79467 16.3652 7.112C16.9159 7.42933 17.3452 7.868 17.6532 8.428C17.9706 8.988 18.1292 9.62733 18.1292 10.346C18.1292 11.0647 17.9706 11.7087 17.6532 12.278C17.3452 12.838 16.9159 13.2767 16.3652 13.594C15.8146 13.902 15.1986 14.056 14.5172 14.056C13.8732 14.056 13.2899 13.9067 12.7672 13.608C12.2446 13.3 11.8386 12.8753 11.5492 12.334V16.716H10.8492V6.692H11.5212V8.414C11.8106 7.854 12.2166 7.42 12.7392 7.112C13.2712 6.79467 13.8639 6.636 14.5172 6.636ZM14.4752 13.426C15.0352 13.426 15.5392 13.2953 15.9872 13.034C16.4352 12.7727 16.7852 12.4087 17.0372 11.942C17.2986 11.4753 17.4292 10.9433 17.4292 10.346C17.4292 9.74867 17.2986 9.21667 17.0372 8.75C16.7852 8.28333 16.4352 7.91933 15.9872 7.658C15.5392 7.39667 15.0352 7.266 14.4752 7.266C13.9152 7.266 13.4112 7.39667 12.9632 7.658C12.5246 7.91933 12.1746 8.28333 11.9132 8.75C11.6612 9.21667 11.5352 9.74867 11.5352 10.346C11.5352 10.9433 11.6612 11.4753 11.9132 11.942C12.1746 12.4087 12.5246 12.7727 12.9632 13.034C13.4112 13.2953 13.9152 13.426 14.4752 13.426ZM26.7925 3.612V14H26.1065V12.278C25.8172 12.8473 25.4112 13.286 24.8885 13.594C24.3658 13.902 23.7732 14.056 23.1105 14.056C22.4292 14.056 21.8132 13.8973 21.2625 13.58C20.7118 13.2627 20.2778 12.824 19.9605 12.264C19.6525 11.704 19.4985 11.0647 19.4985 10.346C19.4985 9.62733 19.6525 8.988 19.9605 8.428C20.2778 7.85867 20.7118 7.42 21.2625 7.112C21.8132 6.79467 22.4292 6.636 23.1105 6.636C23.7638 6.636 24.3472 6.79 24.8605 7.098C25.3832 7.406 25.7938 7.83533 26.0925 8.386V3.612H26.7925ZM23.1525 13.426C23.7125 13.426 24.2118 13.2953 24.6505 13.034C25.0985 12.7727 25.4485 12.4087 25.7005 11.942C25.9618 11.4753 26.0925 10.9433 26.0925 10.346C26.0925 9.74867 25.9618 9.21667 25.7005 8.75C25.4485 8.28333 25.0985 7.91933 24.6505 7.658C24.2118 7.39667 23.7125 7.266 23.1525 7.266C22.5925 7.266 22.0885 7.39667 21.6405 7.658C21.2018 7.91933 20.8518 8.28333 20.5905 8.75C20.3385 9.21667 20.2125 9.74867 20.2125 10.346C20.2125 10.9433 20.3385 11.4753 20.5905 11.942C20.8518 12.4087 21.2018 12.7727 21.6405 13.034C22.0885 13.2953 22.5925 13.426 23.1525 13.426ZM32.2078 6.636C33.1131 6.636 33.8084 6.86933 34.2938 7.336C34.7791 7.79333 35.0218 8.47 35.0218 9.366V14H34.3498V12.698C34.1164 13.1273 33.7758 13.4633 33.3278 13.706C32.8798 13.9393 32.3431 14.056 31.7178 14.056C30.9058 14.056 30.2618 13.8647 29.7858 13.482C29.3191 13.0993 29.0858 12.5953 29.0858 11.97C29.0858 11.3633 29.3004 10.8733 29.7298 10.5C30.1684 10.1173 30.8638 9.926 31.8158 9.926H34.3218V9.338C34.3218 8.65667 34.1351 8.13867 33.7618 7.784C33.3978 7.42933 32.8611 7.252 32.1518 7.252C31.6664 7.252 31.1998 7.336 30.7518 7.504C30.3131 7.672 29.9398 7.896 29.6318 8.176L29.2818 7.672C29.6458 7.34533 30.0844 7.09333 30.5978 6.916C31.1111 6.72933 31.6478 6.636 32.2078 6.636ZM31.8158 13.482C32.4224 13.482 32.9358 13.342 33.3558 13.062C33.7851 12.782 34.1071 12.376 34.3218 11.844V10.472H31.8298C31.1111 10.472 30.5884 10.6027 30.2618 10.864C29.9444 11.1253 29.7858 11.4847 29.7858 11.942C29.7858 12.418 29.9631 12.796 30.3178 13.076C30.6724 13.3467 31.1718 13.482 31.8158 13.482ZM41.5319 13.538C41.3545 13.706 41.1305 13.8367 40.8599 13.93C40.5985 14.014 40.3232 14.056 40.0339 14.056C39.3992 14.056 38.9092 13.8833 38.5639 13.538C38.2185 13.1833 38.0459 12.6933 38.0459 12.068V7.294H36.7019V6.692H38.0459V5.096H38.7459V6.692H41.0699V7.294H38.7459V11.998C38.7459 12.474 38.8579 12.838 39.0819 13.09C39.3152 13.3327 39.6559 13.454 40.1039 13.454C40.5612 13.454 40.9392 13.3187 41.2379 13.048L41.5319 13.538ZM49.3982 10.514H43.1122C43.1309 11.0833 43.2756 11.592 43.5462 12.04C43.8169 12.4787 44.1809 12.8193 44.6382 13.062C45.1049 13.3047 45.6276 13.426 46.2062 13.426C46.6822 13.426 47.1209 13.342 47.5222 13.174C47.9329 12.9967 48.2736 12.74 48.5442 12.404L48.9502 12.866C48.6329 13.2487 48.2316 13.5427 47.7462 13.748C47.2702 13.9533 46.7522 14.056 46.1922 14.056C45.4642 14.056 44.8156 13.8973 44.2462 13.58C43.6769 13.2627 43.2289 12.824 42.9022 12.264C42.5849 11.704 42.4262 11.0647 42.4262 10.346C42.4262 9.63667 42.5756 9.002 42.8742 8.442C43.1822 7.87267 43.6022 7.42933 44.1342 7.112C44.6662 6.79467 45.2636 6.636 45.9262 6.636C46.5889 6.636 47.1816 6.79467 47.7042 7.112C48.2362 7.42 48.6516 7.854 48.9502 8.414C49.2582 8.974 49.4122 9.60867 49.4122 10.318L49.3982 10.514ZM45.9262 7.252C45.4129 7.252 44.9509 7.36867 44.5402 7.602C44.1296 7.826 43.7982 8.148 43.5462 8.568C43.3036 8.97867 43.1636 9.44533 43.1262 9.968H48.7262C48.6982 9.44533 48.5582 8.97867 48.3062 8.568C48.0542 8.15733 47.7229 7.83533 47.3122 7.602C46.9016 7.36867 46.4396 7.252 45.9262 7.252ZM53.4258 14.056C52.8377 14.056 52.2777 13.9673 51.7458 13.79C51.2138 13.6127 50.7984 13.3887 50.4997 13.118L50.8218 12.558C51.1204 12.81 51.5031 13.02 51.9698 13.188C52.4458 13.356 52.9404 13.44 53.4537 13.44C54.1911 13.44 54.7324 13.3187 55.0778 13.076C55.4324 12.8333 55.6097 12.4973 55.6097 12.068C55.6097 11.76 55.5117 11.5173 55.3157 11.34C55.1291 11.1627 54.8957 11.032 54.6158 10.948C54.3358 10.864 53.9484 10.7753 53.4537 10.682C52.8751 10.5793 52.4084 10.4673 52.0538 10.346C51.6991 10.2247 51.3957 10.0287 51.1438 9.758C50.8918 9.48733 50.7658 9.114 50.7658 8.638C50.7658 8.05933 51.0038 7.58333 51.4797 7.21C51.9651 6.82733 52.6511 6.636 53.5378 6.636C54.0044 6.636 54.4664 6.70133 54.9237 6.832C55.3811 6.96267 55.7544 7.13533 56.0438 7.35L55.7218 7.91C55.4231 7.69533 55.0824 7.532 54.6997 7.42C54.3171 7.308 53.9251 7.252 53.5238 7.252C52.8424 7.252 52.3291 7.378 51.9838 7.63C51.6384 7.882 51.4657 8.21333 51.4657 8.624C51.4657 8.95067 51.5637 9.20733 51.7598 9.394C51.9558 9.57133 52.1938 9.70667 52.4738 9.8C52.7631 9.884 53.1644 9.97733 53.6778 10.08C54.2471 10.1827 54.7044 10.2947 55.0498 10.416C55.4044 10.528 55.7031 10.7147 55.9458 10.976C56.1884 11.2373 56.3098 11.5967 56.3098 12.054C56.3098 12.6607 56.0577 13.146 55.5537 13.51C55.0497 13.874 54.3404 14.056 53.4258 14.056Z" transform="translate(263 100)" fill="black"/>
<rect width="346" height="34" rx="4" transform="translate(118 32)" fill="#2E3C43"/>
<path d="M5.04 13.888C4.844 14.084 4.60133 14.182 4.312 14.182C4.02267 14.182 3.77533 14.084 3.57 13.888C3.374 13.6827 3.276 13.44 3.276 13.16C3.276 12.88 3.374 12.642 3.57 12.446C3.77533 12.2407 4.02267 12.138 4.312 12.138C4.60133 12.138 4.844 12.2407 5.04 12.446C5.24533 12.642 5.348 12.88 5.348 13.16C5.348 13.44 5.24533 13.6827 5.04 13.888ZM12.239 14.168C11.6696 14.168 11.1376 14.056 10.643 13.832C10.1576 13.5987 9.76095 13.286 9.45295 12.894L10.391 12.068C10.951 12.6653 11.5996 12.964 12.337 12.964C12.7103 12.964 13.0136 12.894 13.247 12.754C13.4896 12.6047 13.611 12.3947 13.611 12.124C13.611 11.7413 13.0836 11.3353 12.029 10.906C12.0103 10.8967 11.9963 10.892 11.987 10.892C11.9776 10.8827 11.9636 10.8733 11.945 10.864C11.9263 10.8547 11.9076 10.85 11.889 10.85C11.8796 10.8407 11.8656 10.8313 11.847 10.822C11.4456 10.654 11.1376 10.5187 10.923 10.416C10.7083 10.304 10.4796 10.1593 10.237 9.982C9.99429 9.80467 9.81695 9.604 9.70495 9.38C9.60229 9.156 9.55095 8.89467 9.55095 8.596C9.55095 8.008 9.79829 7.54133 10.293 7.196C10.797 6.85067 11.4316 6.678 12.197 6.678C13.261 6.678 14.1196 7.05133 14.773 7.798L13.849 8.568C13.3356 8.11067 12.7663 7.882 12.141 7.882C11.7583 7.882 11.4503 7.94733 11.217 8.078C10.9836 8.20867 10.867 8.386 10.867 8.61C10.867 8.93667 11.3803 9.30067 12.407 9.702C12.4443 9.72067 12.4723 9.73467 12.491 9.744C12.827 9.87467 13.0696 9.97267 13.219 10.038C13.3683 10.1033 13.5736 10.2107 13.835 10.36C14.1056 10.5093 14.3016 10.654 14.423 10.794C14.5536 10.934 14.6703 11.1207 14.773 11.354C14.8756 11.578 14.927 11.8253 14.927 12.096C14.927 12.74 14.6843 13.2487 14.199 13.622C13.7136 13.986 13.0603 14.168 12.239 14.168ZM23.3579 10.094C23.3579 10.4487 23.3439 10.7427 23.3159 10.976H18.3879C18.4906 11.5733 18.7052 12.0447 19.0319 12.39C19.3679 12.7353 19.8019 12.908 20.3339 12.908C20.9592 12.908 21.5006 12.6933 21.9579 12.264L22.7839 13.16C22.1119 13.832 21.2906 14.168 20.3199 14.168C19.2839 14.168 18.4672 13.8227 17.8699 13.132C17.2726 12.432 16.9739 11.5267 16.9739 10.416C16.9739 9.24933 17.2726 8.33467 17.8699 7.672C18.4766 7.00933 19.2932 6.678 20.3199 6.678C21.2066 6.678 21.9346 6.96733 22.5039 7.546C23.0732 8.12467 23.3579 8.974 23.3579 10.094ZM18.3599 9.758H21.9719C21.9439 9.12333 21.7712 8.65667 21.4539 8.358C21.1366 8.05933 20.7586 7.91 20.3199 7.91C19.7412 7.91 19.2886 8.07333 18.9619 8.4C18.6352 8.71733 18.4346 9.17 18.3599 9.758ZM28.7509 14.168C27.4442 14.168 26.7909 13.5427 26.7909 12.292V8.078H25.2229V6.846H26.7909V4.564L28.1909 3.892V6.846H30.5989V8.078H28.1909V11.956C28.1909 12.2733 28.2655 12.5113 28.4149 12.67C28.5642 12.8287 28.8302 12.908 29.2129 12.908C29.6329 12.908 30.0529 12.7867 30.4729 12.544L30.3189 13.846C29.9082 14.0607 29.3855 14.168 28.7509 14.168ZM39.5478 9.1C39.5478 11.004 39.0905 12.4087 38.1758 13.314L38.9178 14.42L37.8818 15.134L37.1118 13.986C36.8038 14.1073 36.4398 14.168 36.0198 14.168C35.4131 14.168 34.8765 14.028 34.4098 13.748C33.9431 13.4587 33.5745 13.0713 33.3038 12.586C33.0331 12.1007 32.8278 11.564 32.6878 10.976C32.5571 10.388 32.4918 9.76267 32.4918 9.1C32.4918 8.43733 32.5571 7.812 32.6878 7.224C32.8278 6.636 33.0331 6.09933 33.3038 5.614C33.5745 5.12867 33.9431 4.746 34.4098 4.466C34.8765 4.17667 35.4131 4.032 36.0198 4.032C36.6358 4.032 37.1771 4.17667 37.6438 4.466C38.1105 4.746 38.4791 5.12867 38.7498 5.614C39.0205 6.09933 39.2211 6.636 39.3518 7.224C39.4825 7.812 39.5478 8.43733 39.5478 9.1ZM36.0198 12.81C36.0945 12.81 36.1878 12.8007 36.2998 12.782L35.6278 11.788L36.6918 11.074L37.3498 12.054C37.8258 11.3633 38.0638 10.3787 38.0638 9.1C38.0638 8.02667 37.8958 7.14 37.5598 6.44C37.2238 5.73067 36.7105 5.376 36.0198 5.376C35.5625 5.376 35.1751 5.56733 34.8578 5.95C34.5405 6.32333 34.3165 6.78067 34.1858 7.322C34.0551 7.86333 33.9898 8.456 33.9898 9.1C33.9898 10.164 34.1578 11.0507 34.4938 11.76C34.8298 12.46 35.3385 12.81 36.0198 12.81ZM43.6108 14.168C41.8188 14.168 40.9228 13.1227 40.9228 11.032V6.846H42.3368V10.934C42.3368 11.5967 42.4768 12.082 42.7568 12.39C43.0461 12.6887 43.4241 12.838 43.8908 12.838C45.0014 12.838 45.5568 12.2127 45.5568 10.962V6.846H46.9708V14H45.5568V13.3C45.1088 13.8787 44.4601 14.168 43.6108 14.168ZM55.0657 10.094C55.0657 10.4487 55.0517 10.7427 55.0237 10.976H50.0957C50.1984 11.5733 50.4131 12.0447 50.7397 12.39C51.0757 12.7353 51.5097 12.908 52.0417 12.908C52.6671 12.908 53.2084 12.6933 53.6657 12.264L54.4917 13.16C53.8197 13.832 52.9984 14.168 52.0277 14.168C50.9917 14.168 50.1751 13.8227 49.5777 13.132C48.9804 12.432 48.6817 11.5267 48.6817 10.416C48.6817 9.24933 48.9804 8.33467 49.5777 7.672C50.1844 7.00933 51.0011 6.678 52.0277 6.678C52.9144 6.678 53.6424 6.96733 54.2117 7.546C54.7811 8.12467 55.0657 8.974 55.0657 10.094ZM50.0677 9.758H53.6797C53.6517 9.12333 53.4791 8.65667 53.1617 8.358C52.8444 8.05933 52.4664 7.91 52.0277 7.91C51.4491 7.91 50.9964 8.07333 50.6697 8.4C50.3431 8.71733 50.1424 9.17 50.0677 9.758ZM61.6067 6.678C62.2693 6.678 62.8107 6.79933 63.2307 7.042V9.604H61.8587V8.022C61.7933 8.01267 61.6953 8.008 61.5647 8.008C60.846 8.008 60.258 8.18533 59.8007 8.54C59.3527 8.89467 59.1287 9.40333 59.1287 10.066V12.754H61.1727V14H56.2027V12.754H57.7007V8.078H56.2027V6.846H59.0307V8.022C59.2547 7.61133 59.6047 7.28467 60.0807 7.042C60.566 6.79933 61.0747 6.678 61.6067 6.678ZM65.9356 16.716L67.0136 13.832L64.3676 6.846H65.7956L67.4756 11.452C67.541 11.6387 67.6156 11.8673 67.6996 12.138C67.7463 11.9793 67.8256 11.7507 67.9376 11.452L69.6316 6.846H71.0876L67.3636 16.716H65.9356Z" transform="translate(136 39)" fill="white"/>
<path d="M76.5926 15.82C74.8939 14.3267 74.0446 12.3947 74.0446 10.024C74.0446 8.71733 74.3012 7.55067 74.8146 6.524C75.3372 5.49733 75.9812 4.66667 76.7466 4.032H78.1186C77.8852 4.228 77.6286 4.49867 77.3486 4.844C77.0779 5.18 76.7886 5.60467 76.4806 6.118C76.1819 6.622 75.9346 7.224 75.7386 7.924C75.5426 8.61467 75.4446 9.31467 75.4446 10.024C75.4446 10.7427 75.5379 11.438 75.7246 12.11C75.9112 12.7727 76.1539 13.3513 76.4526 13.846C76.7606 14.3407 77.0312 14.7373 77.2646 15.036C77.4979 15.3347 77.7312 15.596 77.9646 15.82H76.5926ZM303.24 15.82C303.474 15.596 303.702 15.3347 303.926 15.036C304.16 14.7467 304.43 14.3547 304.738 13.86C305.046 13.356 305.294 12.7727 305.48 12.11C305.667 11.438 305.76 10.7427 305.76 10.024C305.76 9.31467 305.658 8.61467 305.452 7.924C305.256 7.224 305.004 6.622 304.696 6.118C304.398 5.60467 304.113 5.18 303.842 4.844C303.572 4.508 303.32 4.23733 303.086 4.032H304.458C305.224 4.66667 305.863 5.49733 306.376 6.524C306.899 7.55067 307.16 8.71733 307.16 10.024C307.16 12.3947 306.311 14.3267 304.612 15.82H303.24Z" transform="translate(136 39)" fill="#4DF4FF"/>
<path d="M83.5675 7.84C83.2595 7.84 83.0029 7.728 82.7975 7.504C82.5922 7.28 82.4895 6.958 82.4895 6.538C82.4895 5.90333 82.6389 5.306 82.9375 4.746C83.2455 4.17667 83.5909 3.752 83.9735 3.472L84.6315 3.822C84.0995 4.438 83.8009 5.10067 83.7355 5.81C83.9969 5.85667 84.2069 5.96867 84.3655 6.146C84.5242 6.314 84.6035 6.52867 84.6035 6.79C84.6035 7.098 84.5009 7.35 84.2955 7.546C84.0902 7.742 83.8475 7.84 83.5675 7.84ZM91.6065 14.168C90.8318 14.168 90.1458 13.9533 89.5485 13.524C88.9512 13.0853 88.5312 12.5207 88.2885 11.83L89.6185 11.34C89.8145 11.788 90.0945 12.1473 90.4585 12.418C90.8318 12.6887 91.2472 12.824 91.7045 12.824C92.1805 12.824 92.5538 12.698 92.8245 12.446C93.1045 12.194 93.2445 11.83 93.2445 11.354C93.2445 10.934 93.0672 10.5747 92.7125 10.276C92.3578 9.968 91.8725 9.67867 91.2565 9.408C90.8645 9.24 90.5472 9.086 90.3045 8.946C90.0618 8.806 89.7912 8.61933 89.4925 8.386C89.1938 8.15267 88.9698 7.882 88.8205 7.574C88.6805 7.266 88.6105 6.916 88.6105 6.524C88.6105 5.824 88.8718 5.236 89.3945 4.76C89.9265 4.27467 90.6265 4.032 91.4945 4.032C92.1852 4.032 92.7778 4.20933 93.2725 4.564C93.7765 4.91867 94.1078 5.376 94.2665 5.936L92.9645 6.37C92.8338 6.08067 92.6332 5.84267 92.3625 5.656C92.1012 5.46 91.7885 5.362 91.4245 5.362C91.0232 5.362 90.6965 5.46933 90.4445 5.684C90.1925 5.88933 90.0665 6.16933 90.0665 6.524C90.0665 6.71067 90.1085 6.87867 90.1925 7.028C90.2858 7.17733 90.4305 7.322 90.6265 7.462C90.8225 7.59267 90.9998 7.7 91.1585 7.784C91.3172 7.85867 91.5505 7.966 91.8585 8.106C91.8772 8.11533 91.8912 8.12467 91.9005 8.134C91.9098 8.134 91.9238 8.13867 91.9425 8.148C91.9612 8.148 91.9752 8.15267 91.9845 8.162C92.3578 8.33933 92.6752 8.50733 92.9365 8.666C93.1978 8.81533 93.4778 9.016 93.7765 9.268C94.0752 9.52 94.3038 9.81867 94.4625 10.164C94.6212 10.5093 94.7005 10.892 94.7005 11.312C94.7005 12.1893 94.4065 12.8847 93.8185 13.398C93.2305 13.9113 92.4932 14.168 91.6065 14.168ZM96.3274 14V4.2H102.333V5.558H97.7694V8.26H100.807V9.618H97.7694V12.628H102.641V14H96.3274ZM104.254 14V4.2H105.696V12.614H110.288V14H104.254ZM112.181 14V4.2H118.187V5.558H113.623V8.26H116.661V9.618H113.623V12.628H118.495V14H112.181ZM123.468 14.168C122.806 14.168 122.222 14.0233 121.718 13.734C121.224 13.4447 120.832 13.0573 120.542 12.572C120.253 12.0773 120.038 11.5407 119.898 10.962C119.758 10.374 119.688 9.75333 119.688 9.1C119.688 8.456 119.758 7.84467 119.898 7.266C120.048 6.678 120.267 6.14133 120.556 5.656C120.855 5.16133 121.252 4.76933 121.746 4.48C122.25 4.18133 122.824 4.032 123.468 4.032C124.206 4.032 124.808 4.214 125.274 4.578C125.75 4.93267 126.105 5.38533 126.338 5.936L125.05 6.566C124.845 6.18333 124.621 5.894 124.378 5.698C124.145 5.49267 123.842 5.39 123.468 5.39C122.936 5.39 122.488 5.59067 122.124 5.992C121.77 6.384 121.522 6.846 121.382 7.378C121.252 7.91 121.186 8.484 121.186 9.1C121.186 10.108 121.382 10.9807 121.774 11.718C122.166 12.446 122.731 12.81 123.468 12.81C124.168 12.81 124.714 12.39 125.106 11.55L126.408 12.054C125.83 13.4633 124.85 14.168 123.468 14.168ZM130.429 14V5.572H127.587V4.2H134.699V5.572H131.857V14H130.429ZM145.765 12.39L144.673 11.662L145.541 10.332L146.297 9.632L145.275 9.87H143.749V8.54H145.275L146.297 8.764L145.555 8.078L144.687 6.748L145.779 6.02L146.745 7.476L146.997 8.414L147.263 7.476L148.229 6.02L149.321 6.748L148.453 8.078L147.697 8.764L148.719 8.54H150.245V9.87H148.719L147.697 9.632L148.453 10.332L149.321 11.662L148.229 12.39L147.263 10.934L146.997 9.982L146.731 10.934L145.765 12.39ZM159.743 14V4.2H166.127V5.558H161.185V8.26H164.713V9.618H161.185V14H159.743ZM174.012 7.07C174.012 7.70467 173.839 8.27867 173.494 8.792C173.149 9.296 172.635 9.646 171.954 9.842L173.984 14H172.388L170.428 9.982H169.112V14H167.67V4.2H170.862C171.973 4.2 172.775 4.47067 173.27 5.012C173.765 5.55333 174.012 6.23933 174.012 7.07ZM169.112 5.53V8.638H170.89C171.478 8.638 171.903 8.49333 172.164 8.204C172.435 7.90533 172.57 7.53667 172.57 7.098C172.57 6.678 172.439 6.314 172.178 6.006C171.926 5.68867 171.497 5.53 170.89 5.53H169.112ZM178.705 14.168C178.098 14.168 177.562 14.028 177.095 13.748C176.628 13.4587 176.26 13.0713 175.989 12.586C175.718 12.1007 175.513 11.564 175.373 10.976C175.242 10.388 175.177 9.76267 175.177 9.1C175.177 8.43733 175.242 7.812 175.373 7.224C175.513 6.636 175.718 6.09933 175.989 5.614C176.26 5.12867 176.628 4.746 177.095 4.466C177.562 4.17667 178.098 4.032 178.705 4.032C179.321 4.032 179.862 4.17667 180.329 4.466C180.796 4.746 181.164 5.12867 181.435 5.614C181.706 6.09933 181.906 6.636 182.037 7.224C182.168 7.812 182.233 8.43733 182.233 9.1C182.233 9.76267 182.168 10.388 182.037 10.976C181.906 11.564 181.706 12.1007 181.435 12.586C181.164 13.0713 180.796 13.4587 180.329 13.748C179.862 14.028 179.321 14.168 178.705 14.168ZM178.705 12.81C179.162 12.81 179.55 12.6233 179.867 12.25C180.194 11.8767 180.422 11.4193 180.553 10.878C180.684 10.3367 180.749 9.744 180.749 9.1C180.749 8.02667 180.581 7.14 180.245 6.44C179.909 5.73067 179.396 5.376 178.705 5.376C178.248 5.376 177.86 5.56733 177.543 5.95C177.226 6.32333 177.002 6.78067 176.871 7.322C176.74 7.86333 176.675 8.456 176.675 9.1C176.675 10.164 176.843 11.0507 177.179 11.76C177.515 12.46 178.024 12.81 178.705 12.81ZM183.524 14V4.2H184.98L186.422 9.814C186.543 10.2713 186.618 10.6027 186.646 10.808C186.693 10.4907 186.767 10.1593 186.87 9.814L188.34 4.2H189.74V14H188.466V8.26C188.466 7.85867 188.475 7.57867 188.494 7.42C188.475 7.476 188.438 7.602 188.382 7.798C188.326 7.994 188.284 8.148 188.256 8.26L186.716 14H186.548L185.008 8.26C184.999 8.22267 184.919 7.94267 184.77 7.42C184.789 7.73733 184.798 8.01733 184.798 8.26V14H183.524ZM204.39 6.678C204.987 6.678 205.426 6.87867 205.706 7.28C205.995 7.68133 206.14 8.344 206.14 9.268V14H204.824V9.632C204.824 9.05333 204.772 8.638 204.67 8.386C204.567 8.134 204.371 8.008 204.082 8.008C203.783 8.008 203.554 8.15733 203.396 8.456C203.246 8.75467 203.172 9.16067 203.172 9.674V14H201.856V9.534C201.856 8.51667 201.608 8.008 201.114 8.008C200.815 8.008 200.577 8.162 200.4 8.47C200.232 8.76867 200.148 9.17 200.148 9.674V14H198.832V6.846H200.064V7.784C200.334 7.04667 200.801 6.678 201.464 6.678C201.8 6.678 202.084 6.78533 202.318 7C202.551 7.20533 202.714 7.45267 202.808 7.742C203.2 7.03267 203.727 6.678 204.39 6.678ZM208.621 16.716L209.699 13.832L207.053 6.846H208.481L210.161 11.452C210.226 11.6387 210.301 11.8673 210.385 12.138C210.431 11.9793 210.511 11.7507 210.623 11.452L212.317 6.846H213.773L210.049 16.716H208.621ZM214.588 16.478V15.246H222.092V16.478H214.588ZM226.645 6.678C228.409 6.678 229.291 7.70467 229.291 9.758V14H227.891V9.856C227.891 8.61467 227.368 7.994 226.323 7.994C225.212 7.994 224.657 8.60533 224.657 9.828V14H223.257V6.846H224.559V7.714C224.736 7.406 225.011 7.15867 225.385 6.972C225.758 6.776 226.178 6.678 226.645 6.678ZM237.386 10.094C237.386 10.4487 237.372 10.7427 237.344 10.976H232.416C232.518 11.5733 232.733 12.0447 233.06 12.39C233.396 12.7353 233.83 12.908 234.362 12.908C234.987 12.908 235.528 12.6933 235.986 12.264L236.812 13.16C236.14 13.832 235.318 14.168 234.348 14.168C233.312 14.168 232.495 13.8227 231.898 13.132C231.3 12.432 231.002 11.5267 231.002 10.416C231.002 9.24933 231.3 8.33467 231.898 7.672C232.504 7.00933 233.321 6.678 234.348 6.678C235.234 6.678 235.962 6.96733 236.532 7.546C237.101 8.12467 237.386 8.974 237.386 10.094ZM232.388 9.758H236C235.972 9.12333 235.799 8.65667 235.482 8.358C235.164 8.05933 234.786 7.91 234.348 7.91C233.769 7.91 233.316 8.07333 232.99 8.4C232.663 8.71733 232.462 9.17 232.388 9.758ZM239.909 14L238.089 6.846H239.405L240.385 11.004C240.441 11.228 240.483 11.4427 240.511 11.648C240.576 11.3027 240.618 11.0833 240.637 10.99L241.575 6.846H242.667L243.619 10.99C243.637 11.0647 243.679 11.298 243.745 11.69C243.782 11.4473 243.829 11.214 243.885 10.99L244.837 6.846H246.153L244.333 14H243.213L242.289 9.982C242.186 9.45 242.13 9.16533 242.121 9.128C242.102 9.23067 242.069 9.38 242.023 9.576C241.976 9.772 241.948 9.90267 241.939 9.968L241.043 14H239.909ZM246.296 16.478V15.246H253.8V16.478H246.296ZM258.633 14.168C257.326 14.168 256.673 13.5427 256.673 12.292V8.078H255.105V6.846H256.673V4.564L258.073 3.892V6.846H260.481V8.078H258.073V11.956C258.073 12.2733 258.147 12.5113 258.297 12.67C258.446 12.8287 258.712 12.908 259.095 12.908C259.515 12.908 259.935 12.7867 260.355 12.544L260.201 13.846C259.79 14.0607 259.267 14.168 258.633 14.168ZM265.397 14.168C264.623 14.168 263.993 13.9627 263.507 13.552C263.022 13.132 262.779 12.5393 262.779 11.774C262.779 10.9993 263.05 10.4113 263.591 10.01C264.142 9.60867 264.805 9.408 265.579 9.408C266.289 9.408 266.909 9.548 267.441 9.828V9.338C267.441 8.37667 266.956 7.896 265.985 7.896C265.248 7.896 264.487 8.14333 263.703 8.638L263.283 7.49C264.133 6.94867 265.075 6.678 266.111 6.678C267.903 6.678 268.799 7.55067 268.799 9.296V14H267.441V13.384C266.9 13.9067 266.219 14.168 265.397 14.168ZM265.621 12.936C266.312 12.936 266.919 12.656 267.441 12.096V11.018C266.947 10.738 266.396 10.598 265.789 10.598C265.313 10.598 264.917 10.7007 264.599 10.906C264.282 11.102 264.123 11.3913 264.123 11.774C264.123 12.1287 264.254 12.4133 264.515 12.628C264.786 12.8333 265.155 12.936 265.621 12.936ZM274.164 14.168C273.39 14.168 272.75 13.916 272.246 13.412V14H270.846V4.55L272.246 3.892V7.448C272.461 7.224 272.741 7.042 273.086 6.902C273.441 6.75267 273.796 6.678 274.15 6.678C275.056 6.678 275.788 7.014 276.348 7.686C276.908 8.34867 277.188 9.25867 277.188 10.416C277.188 11.6107 276.918 12.5347 276.376 13.188C275.844 13.8413 275.107 14.168 274.164 14.168ZM273.94 12.852C274.547 12.852 275 12.6373 275.298 12.208C275.606 11.7787 275.76 11.1813 275.76 10.416C275.76 8.80133 275.154 7.994 273.94 7.994C273.558 7.994 273.217 8.078 272.918 8.246C272.62 8.414 272.396 8.61 272.246 8.834V11.998C272.638 12.5673 273.203 12.852 273.94 12.852ZM282.455 12.754H284.499V14H278.997V12.754H281.055V5.124H279.361L278.717 3.892H282.455V12.754ZM292.874 10.094C292.874 10.4487 292.86 10.7427 292.832 10.976H287.904C288.007 11.5733 288.222 12.0447 288.548 12.39C288.884 12.7353 289.318 12.908 289.85 12.908C290.476 12.908 291.017 12.6933 291.474 12.264L292.3 13.16C291.628 13.832 290.807 14.168 289.836 14.168C288.8 14.168 287.984 13.8227 287.386 13.132C286.789 12.432 286.49 11.5267 286.49 10.416C286.49 9.24933 286.789 8.33467 287.386 7.672C287.993 7.00933 288.81 6.678 289.836 6.678C290.723 6.678 291.451 6.96733 292.02 7.546C292.59 8.12467 292.874 8.974 292.874 10.094ZM287.876 9.758H291.488C291.46 9.12333 291.288 8.65667 290.97 8.358C290.653 8.05933 290.275 7.91 289.836 7.91C289.258 7.91 288.805 8.07333 288.478 8.4C288.152 8.71733 287.951 9.17 287.876 9.758ZM297.203 7.84L296.545 7.476C297.077 6.87867 297.376 6.216 297.441 5.488C297.18 5.44133 296.97 5.334 296.811 5.166C296.653 4.998 296.573 4.77867 296.573 4.508C296.573 4.2 296.676 3.95267 296.881 3.766C297.087 3.57 297.329 3.472 297.609 3.472C297.917 3.472 298.174 3.584 298.379 3.808C298.585 4.032 298.687 4.34933 298.687 4.76C298.687 5.39467 298.533 5.99667 298.225 6.566C297.927 7.126 297.586 7.55067 297.203 7.84Z" transform="translate(136 39)" fill="#6CDBDF"/>
</svg>
