<svg width="902" height="203" fill="none" xmlns="http://www.w3.org/2000/svg">
  <path fill="#fff" d="M0 .00012207h902v203H0z"/>
  <rect width="428" height="179" rx="4" transform="translate(12 12.0001)" fill="#2E3C43"/>
  <path d="M31.312 43.1681c-.56933 0-1.10133-.112-1.596-.336-.48533-.2333-.882-.546-1.19-.938l.938-.826c.56.5973 1.20867.896 1.946.896.37333 0 .67667-.07.91-.21.24267-.1493.364-.3593.364-.63 0-.3827-.52733-.7887-1.582-1.218-.01867-.0093-.03267-.014-.042-.014-.00933-.0093-.02333-.0187-.042-.028-.01867-.0093-.03733-.014-.056-.014-.00933-.0093-.02333-.0187-.042-.028-.40133-.168-.70933-.3033-.924-.406-.21467-.112-.44333-.2567-.686-.434-.24267-.1773-.42-.378-.532-.602-.10267-.224-.154-.4853-.154-.784 0-.588.24733-1.0547.742-1.4.504-.3453 1.13867-.518 1.904-.518 1.064 0 1.92267.3733 2.576 1.12l-.924.77c-.51333-.4573-1.08267-.686-1.708-.686-.38267 0-.69067.0653-.924.196-.23333.1307-.35.308-.35.532 0 .3267.51333.6907 1.54 1.092.03733.0187.06533.0327.084.042.336.1307.57867.2287.728.294.14933.0653.35467.1727.616.322.27067.1493.46667.294.588.434.13067.14.24733.3267.35.56.10267.224.154.4713.154.742 0 .644-.24267 1.1527-.728 1.526-.48533.364-1.13867.546-1.96.546zm8.585 0c-1.3067 0-1.96-.6253-1.96-1.876v-4.214h-1.56805v-1.232H37.937v-2.282l1.4-.672v2.954h2.408v1.232h-2.408v3.878c0 .3173.0746.5553.224.714.1493.1587.4153.238.798.238.42 0 .84-.1213 1.26-.364l-.154 1.302c-.4107.2147-.9334.322-1.568.322zm5.4769 2.548l1.078-2.884-2.646-6.986h1.428l1.68 4.606c.0653.1867.14.4153.224.686.0467-.1587.126-.3873.238-.686l1.694-4.606h1.456l-3.724 9.87h-1.428zm10.419-3.962h2.044v1.246h-5.502v-1.246h2.058v-7.63h-1.694l-.644-1.232h3.738v8.862zm10.4189-2.66c0 .3547-.014.6487-.042.882h-4.928c.1027.5973.3173 1.0687.644 1.414.336.3453.77.518 1.302.518.6253 0 1.1667-.2147 1.624-.644l.826.896c-.672.672-1.4933 1.008-2.464 1.008-1.036 0-1.8527-.3453-2.45-1.036-.5973-.7-.896-1.6053-.896-2.716 0-1.1667.2987-2.0813.896-2.744.6067-.6627 1.4233-.994 2.45-.994.8867 0 1.6147.2893 2.184.868.5693.5787.854 1.428.854 2.548zm-4.998-.336h3.612c-.028-.6347-.2007-1.1013-.518-1.4-.3173-.2987-.6953-.448-1.134-.448-.5787 0-1.0313.1633-1.358.49-.3267.3173-.5273.77-.602 1.358zm10.461 4.13c-.196.196-.4387.294-.728.294-.2894 0-.5367-.098-.742-.294-.196-.2053-.294-.448-.294-.728 0-.28.098-.518.294-.714.2053-.2053.4526-.308.742-.308.2893 0 .532.1027.728.308.2053.196.308.434.308.714 0 .28-.1027.5227-.308.728zm7.1989.28c-.5693 0-1.1013-.112-1.596-.336-.4853-.2333-.882-.546-1.19-.938l.938-.826c.56.5973 1.2087.896 1.946.896.3734 0 .6767-.07.91-.21.2427-.1493.364-.3593.364-.63 0-.3827-.5273-.7887-1.582-1.218-.0186-.0093-.0326-.014-.042-.014-.0093-.0093-.0233-.0187-.042-.028-.0186-.0093-.0373-.014-.056-.014-.0093-.0093-.0233-.0187-.042-.028-.4013-.168-.7093-.3033-.924-.406-.2146-.112-.4433-.2567-.686-.434-.2426-.1773-.42-.378-.532-.602-.1026-.224-.154-.4853-.154-.784 0-.588.2474-1.0547.742-1.4.504-.3453 1.1387-.518 1.904-.518 1.064 0 1.9227.3733 2.576 1.12l-.924.77c-.5133-.4573-1.0826-.686-1.708-.686-.3826 0-.6906.0653-.924.196-.2333.1307-.35.308-.35.532 0 .3267.5134.6907 1.54 1.092l.084.042c.336.1307.5787.2287.728.294.1494.0653.3547.1727.616.322.2707.1493.4667.294.588.434.1307.14.2474.3267.35.56.1027.224.154.4713.154.742 0 .644-.2426 1.1527-.728 1.526-.4853.364-1.1386.546-1.96.546zm11.119-4.074c0 .3547-.014.6487-.042.882h-4.928c.1026.5973.3173 1.0687.644 1.414.336.3453.77.518 1.302.518.6253 0 1.1666-.2147 1.624-.644l.826.896c-.672.672-1.4934 1.008-2.464 1.008-1.036 0-1.8527-.3453-2.45-1.036-.5974-.7-.896-1.6053-.896-2.716 0-1.1667.2986-2.0813.896-2.744.6066-.6627 1.4233-.994 2.45-.994.8866 0 1.6146.2893 2.184.868.5693.5787.854 1.428.854 2.548zm-4.998-.336h3.612c-.028-.6347-.2007-1.1013-.518-1.4-.3174-.2987-.6954-.448-1.134-.448-.5787 0-1.0314.1633-1.358.49-.3267.3173-.5274.77-.602 1.358zm10.3909 4.41c-1.3066 0-1.96-.6253-1.96-1.876v-4.214h-1.568v-1.232h1.568v-2.282l1.4-.672v2.954h2.408v1.232h-2.408v3.878c0 .3173.0747.5553.224.714.1494.1587.4154.238.798.238.42 0 .84-.1213 1.26-.364l-.154 1.302c-.4106.2147-.9333.322-1.568.322zm7.521 0c-.6627 0-1.246-.1447-1.75-.434-.4947-.2893-.8867-.6767-1.176-1.162-.2894-.4947-.504-1.0313-.644-1.61-.14-.588-.21-1.2087-.21-1.862 0-.644.07-1.2553.21-1.834.1493-.588.3686-1.1247.658-1.61.2986-.4947.6953-.88667 1.19-1.176.504-.29867 1.078-.448 1.722-.448.7373 0 1.3393.182 1.806.546.476.35467.8306.8073 1.064 1.358l-1.288.63c-.2054-.3827-.4294-.672-.672-.868-.2334-.2053-.5367-.308-.91-.308-.532 0-.98.2007-1.344.602-.3547.392-.602.854-.742 1.386-.1307.532-.196 1.106-.196 1.722 0 1.008.196 1.8807.588 2.618.392.728.9566 1.092 1.694 1.092.7 0 1.246-.42 1.638-1.26l1.302.504c-.5787 1.4093-1.5587 2.114-2.94 2.114zm10.1389-1.008c-.6066.672-1.428 1.008-2.464 1.008s-1.862-.3313-2.478-.994c-.6066-.672-.91-1.5867-.91-2.744 0-1.1573.3034-2.072.91-2.744.616-.672 1.442-1.008 2.478-1.008 1.036 0 1.8574.336 2.464 1.008.616.672.924 1.582.924 2.73 0 1.1573-.308 2.072-.924 2.744zm-3.92-.952c.3454.4293.8307.644 1.456.644.6254 0 1.1107-.2193 1.456-.658.3454-.4387.518-1.0313.518-1.778 0-.7467-.1726-1.3347-.518-1.764-.336-.4387-.8213-.658-1.456-.658-.6346 0-1.12.2147-1.456.644-.336.42-.504 1.0173-.504 1.792 0 .7467.168 1.3393.504 1.778zm9.761-5.53c1.764 0 2.646 1.0267 2.646 3.08v4.242h-1.4v-4.144c0-1.2413-.5227-1.862-1.568-1.862-1.1107 0-1.666.6113-1.666 1.834v4.172h-1.4v-7.154h1.302v.868c.1773-.308.4527-.5553.826-.742.3733-.196.7933-.294 1.26-.294zm8.2065 7.49c-1.3062 0-1.9596-.6253-1.9596-1.876v-4.214h-1.568v-1.232h1.568v-2.282l1.4-.672v2.954h2.4076v1.232h-2.4076v3.878c0 .3173.0747.5553.224.714.1494.1587.4156.238.7976.238.42 0 .84-.1213 1.26-.364l-.154 1.302c-.41.2147-.933.322-1.568.322zm10.461-4.074c0 .3547-.014.6487-.042.882h-4.928c.103.5973.318 1.0687.644 1.414.336.3453.77.518 1.302.518.626 0 1.167-.2147 1.624-.644l.826.896c-.672.672-1.493 1.008-2.464 1.008-1.036 0-1.852-.3453-2.45-1.036-.597-.7-.896-1.6053-.896-2.716 0-1.1667.299-2.0813.896-2.744.607-.6627 1.424-.994 2.45-.994.887 0 1.615.2893 2.184.868.57.5787.854 1.428.854 2.548zm-4.998-.336h3.612c-.028-.6347-.2-1.1013-.518-1.4-.317-.2987-.695-.448-1.134-.448-.578 0-1.031.1633-1.358.49-.326.3173-.527.77-.602 1.358zm10.111-3.08c1.764 0 2.646 1.0267 2.646 3.08v4.242h-1.4v-4.144c0-1.2413-.522-1.862-1.568-1.862-1.11 0-1.666.6113-1.666 1.834v4.172h-1.4v-7.154h1.302v.868c.178-.308.453-.5553.826-.742.374-.196.794-.294 1.26-.294zm8.207 7.49c-1.306 0-1.96-.6253-1.96-1.876v-4.214h-1.568v-1.232h1.568v-2.282l1.4-.672v2.954h2.408v1.232h-2.408v3.878c0 .3173.075.5553.224.714.15.1587.416.238.798.238.42 0 .84-.1213 1.26-.364l-.154 1.302c-.41.2147-.933.322-1.568.322z" fill="#fff"/>
  <path d="M159.081 44.8201c-1.698-1.4933-2.548-3.4253-2.548-5.796 0-1.3067.257-2.4733.77-3.5.523-1.0267 1.167-1.85733 1.932-2.492h1.372c-.233.196-.49.46667-.77.812-.27.336-.56.7607-.868 1.274-.298.504-.546 1.106-.742 1.806-.196.6907-.294 1.3907-.294 2.1 0 .7187.094 1.414.28 2.086.187.6627.43 1.2413.728 1.736.308.4947.579.8913.812 1.19.234.2987.467.56.7.784h-1.372zm-122.13805 128c.23335-.224.46205-.485.68605-.784.2333-.289.504-.681.812-1.176.308-.504.5553-1.087.742-1.75.1866-.672.28-1.367.28-2.086 0-.709-.1027-1.409-.308-2.1-.196-.7-.448-1.302-.756-1.806-.2987-.513-.5834-.938-.854-1.274-.2707-.336-.5227-.607-.75605-.812H38.161c.7653.635 1.4046 1.465 1.918 2.492.5226 1.027.784 2.193.784 3.5 0 2.371-.8494 4.303-2.548 5.796h-1.37205z" fill="#4DF4FF"/>
  <path d="M166.336 34.9361l-2.492-2.184h1.89l1.988 2.184h-1.386zM44.2119 64.0001l.406-2.66h-1.61l.196-1.232h1.596l.336-2.226h-1.554l.182-1.218h1.554l.378-2.464h1.274l-.378 2.464h1.848l.378-2.464h1.274l-.378 2.464h1.61l-.182 1.218h-1.61l-.35 2.226h1.568l-.196 1.232h-1.554l-.406 2.66h-1.274l.406-2.66h-1.834l-.406 2.66h-1.274zm1.862-3.892h1.834l.35-2.226h-1.848l-.336 2.226zm9.719 2.646h2.044v1.246h-5.502v-1.246h2.058v-7.63h-1.694l-.644-1.232h3.738v8.862zm6.7229 1.414c-.7747 0-1.4047-.2053-1.89-.616-.4853-.42-.728-1.0127-.728-1.778 0-.7747.2707-1.3627.812-1.764.5507-.4013 1.2133-.602 1.988-.602.7093 0 1.33.14 1.862.42v-.49c0-.9613-.4853-1.442-1.456-1.442-.7373 0-1.498.2473-2.282.742l-.42-1.148c.8493-.5413 1.792-.812 2.828-.812 1.792 0 2.688.8727 2.688 2.618v4.704h-1.358v-.616c-.5413.5227-1.2227.784-2.044.784zm.224-1.232c.6907 0 1.2973-.28 1.82-.84v-1.078c-.4947-.28-1.0453-.42-1.652-.42-.476 0-.8727.1027-1.19.308-.3173.196-.476.4853-.476.868 0 .3547.1307.6393.392.854.2707.2053.6393.308 1.106.308zm6.415 3.78l1.078-2.884-2.646-6.986h1.428l1.68 4.606c.0653.1867.14.4153.224.686.0466-.1587.126-.3873.238-.686l1.694-4.606h1.456l-3.724 9.87h-1.428zm12.9109-6.622c0 .3547-.014.6487-.042.882h-4.928c.1027.5973.3174 1.0687.644 1.414.336.3453.77.518 1.302.518.6254 0 1.1667-.2147 1.624-.644l.826.896c-.672.672-1.4933 1.008-2.464 1.008-1.036 0-1.8526-.3453-2.45-1.036-.5973-.7-.896-1.6053-.896-2.716 0-1.1667.2987-2.0813.896-2.744.6067-.6627 1.4234-.994 2.45-.994.8867 0 1.6147.2893 2.184.868.5694.5787.854 1.428.854 2.548zm-4.998-.336h3.612c-.028-.6347-.2006-1.1013-.518-1.4-.3173-.2987-.6953-.448-1.134-.448-.5786 0-1.0313.1633-1.358.49-.3266.3173-.5273.77-.602 1.358zm11.539-3.08c.6626 0 1.204.1213 1.624.364v2.562h-1.372v-1.582c-.0654-.0093-.1634-.014-.294-.014-.7187 0-1.3067.1773-1.764.532-.448.3547-.672.8633-.672 1.526v2.688h2.044v1.246h-4.97v-1.246h1.498v-4.676h-1.498v-1.232h2.828v1.176c.224-.4107.574-.7373 1.05-.98.4853-.2427.994-.364 1.526-.364zm15.8679 9.142c-.9054-.0187-1.6194-.3033-2.142-.854-.5227-.5507-.784-1.3533-.784-2.408v-.812c0-.364-.0747-.658-.224-.882-.14-.224-.336-.336-.588-.336h-.322v-1.218h.322c.252 0 .448-.112.588-.336.1493-.224.224-.518.224-.882v-.798c0-1.0547.2613-1.8573.784-2.408.5226-.5507 1.2366-.8353 2.142-.854h.434v1.246h-.434c-1.008.028-1.512.616-1.512 1.764v.896c0 .644-.1074 1.1107-.322 1.4-.2054.2893-.5134.476-.924.56v.056c.42.0747.7326.2567.938.546.2053.2893.308.7607.308 1.414v.896c0 1.1573.504 1.75 1.512 1.778h.434v1.232h-.434zm-39.5508 12.858c.5973 0 1.036.2007 1.316.602.2893.4013.434 1.064.434 1.988v4.732h-1.316v-4.368c0-.5787-.0513-.994-.154-1.246s-.2987-.378-.588-.378c-.2987 0-.5273.1493-.686.448-.1493.2987-.224.7047-.224 1.218v4.326h-1.316v-4.466c0-1.0173-.2473-1.526-.742-1.526-.2987 0-.5367.154-.714.462-.168.2987-.252.7-.252 1.204v4.326h-1.316v-7.154h1.232v.938c.2707-.7373.7373-1.106 1.4-1.106.336 0 .6207.1073.854.322.2333.2053.3967.4527.49.742.392-.7093.9193-1.064 1.582-1.064zm5.519 7.49c-.7747 0-1.4047-.2053-1.89-.616-.4854-.42-.728-1.0127-.728-1.778 0-.7747.2706-1.3627.812-1.764.5506-.4013 1.2133-.602 1.988-.602.7093 0 1.33.14 1.862.42v-.49c0-.9613-.4854-1.442-1.456-1.442-.7374 0-1.498.2473-2.282.742l-.42-1.148c.8493-.5413 1.792-.812 2.828-.812 1.792 0 2.688.8727 2.688 2.618v4.704h-1.358v-.616c-.5414.5227-1.2227.784-2.044.784zm.224-1.232c.6906 0 1.2973-.28 1.82-.84v-1.078c-.4947-.28-1.0454-.42-1.652-.42-.476 0-.8727.1027-1.19.308-.3174.196-.476.4853-.476.868 0 .3547.1306.6393.392.854.2706.2053.6393.308 1.106.308zm10.0129-6.258c.6627 0 1.204.1213 1.624.364v2.562h-1.372v-1.582c-.0653-.0093-.1633-.014-.294-.014-.7186 0-1.3066.1773-1.764.532-.448.3547-.672.8633-.672 1.526v2.688h2.044v1.246h-4.97v-1.246h1.498v-4.676h-1.498v-1.232h2.828v1.176c.224-.4107.574-.7373 1.05-.98.4854-.2427.994-.364 1.526-.364zm7.843 7.322l-2.114-4.144-1.19 1.176v2.968h-1.4v-9.45l1.4-.658v5.558l2.562-2.604h1.652l-2.016 2.002 2.646 5.152h-1.54zm9.3969-3.906c0 .3547-.014.6487-.042.882h-4.928c.1027.5973.3174 1.0687.644 1.414.336.3453.77.518 1.302.518.6254 0 1.1667-.2147 1.624-.644l.826.896c-.672.672-1.4933 1.008-2.464 1.008-1.036 0-1.8526-.3453-2.45-1.036-.5973-.7-.896-1.6053-.896-2.716 0-1.1667.2987-2.0813.896-2.744.6067-.6627 1.4234-.994 2.45-.994.8867 0 1.6147.2893 2.184.868.5694.5787.854 1.428.854 2.548zm-4.998-.336h3.612c-.028-.6347-.2006-1.1013-.518-1.4-.3173-.2987-.6953-.448-1.134-.448-.5786 0-1.0313.1633-1.358.49-.3266.3173-.5273.77-.602 1.358zm11.539-3.08c.6626 0 1.204.1213 1.624.364v2.562h-1.372v-1.582c-.0654-.0093-.1634-.014-.294-.014-.7187 0-1.3067.1773-1.764.532-.448.3547-.672.8633-.672 1.526v2.688h2.044v1.246h-4.97v-1.246h1.498v-4.676h-1.498v-1.232h2.828v1.176c.224-.4107.574-.7373 1.05-.98.4853-.2427.994-.364 1.526-.364zm2.8309 3.836v-1.344h6.58v1.344h-6.58zm9.005 3.486l-1.82-7.154h1.316l.98 4.158c.056.224.098.4387.126.644.0653-.3453.1073-.5647.126-.658l.938-4.144h1.092l.952 4.144c.0187.0747.0607.308.126.7.0373-.2427.084-.476.14-.7l.952-4.144h1.316l-1.82 7.154h-1.12l-.924-4.018c-.1027-.532-.1587-.8167-.168-.854-.0187.1027-.0513.252-.098.448-.0467.196-.0747.3267-.084.392l-.896 4.032h-1.134zm10.8525-8.554c-.1582.1587-.3589.238-.6016.238-.2426 0-.448-.084-.616-.252-.1586-.168-.238-.3687-.238-.602 0-.2333.0794-.434.238-.602.168-.168.3734-.252.616-.252.2427 0 .4434.084.6016.252.168.1587.252.3593.252.602 0 .2427-.084.448-.252.616zm.098 7.308h1.974v1.246h-5.3476v-1.246h1.974v-4.676h-1.974v-1.232h3.3736v5.908zm6.877 1.414c-.961 0-1.722-.3313-2.282-.994-.55-.6627-.826-1.582-.826-2.758 0-1.1573.28-2.0673.84-2.73.57-.672 1.316-1.008 2.24-1.008.784 0 1.4.224 1.848.672v-2.8l1.4-.658v10.108h-1.4v-.574c-.42.4947-1.026.742-1.82.742zm.182-1.316c.756 0 1.302-.2847 1.638-.854v-3.192c-.345-.5413-.896-.812-1.652-.812-.597 0-1.059.21-1.386.63-.317.4107-.476 1.008-.476 1.792 0 .7187.168 1.3067.504 1.764.336.448.794.672 1.372.672zm8.641 1.316c-1.306 0-1.96-.6253-1.96-1.876v-4.214h-1.568v-1.232h1.568v-2.282l1.4-.672v2.954h2.408v1.232h-2.408v3.878c0 .3173.075.5553.224.714.15.1587.416.238.798.238.42 0 .84-.1213 1.26-.364l-.154 1.302c-.41.2147-.933.322-1.568.322zm4.259-.168v-9.464l1.4-.644v3.682c.458-.5973 1.12-.896 1.988-.896 1.764 0 2.646 1.0267 2.646 3.08v4.242h-1.4v-4.144c0-.6533-.144-1.1247-.434-1.414-.289-.2987-.667-.448-1.134-.448-1.11 0-1.666.6113-1.666 1.834v4.172h-1.4zm11.665-5.04c-.196.196-.438.294-.728.294-.289 0-.536-.098-.742-.294-.196-.2053-.294-.448-.294-.728 0-.28.098-.518.294-.714.206-.2053.453-.308.742-.308.29 0 .532.1027.728.308.206.196.308.434.308.714 0 .28-.102.5227-.308.728zm0 4.928c-.196.196-.438.294-.728.294-.289 0-.536-.098-.742-.294-.196-.2053-.294-.448-.294-.728 0-.28.098-.518.294-.714.206-.2053.453-.308.742-.308.29 0 .532.1027.728.308.206.196.308.434.308.714 0 .28-.102.5227-.308.728zm15.868-1.274h2.394v1.386h-6.272v-1.386h2.436v-6.566l-2.142.658v-1.372l3.584-1.162v8.442zm7.185 1.554c-.644 0-1.204-.1447-1.68-.434-.467-.2987-.826-.7-1.078-1.204-.252-.504-.439-1.036-.56-1.596-.112-.5693-.168-1.1807-.168-1.834 0-.4853.028-.9473.084-1.386.065-.448.177-.9007.336-1.358.168-.4573.378-.854.63-1.19.261-.336.597-.6067 1.008-.812.42-.2147.896-.322 1.428-.322.644 0 1.199.1493 1.666.448.476.2893.84.686 1.092 1.19.252.504.434 1.0407.546 1.61.121.56.182 1.1667.182 1.82 0 .4853-.033.952-.098 1.4-.056.4387-.168.8867-.336 1.344-.168.4573-.378.854-.63 1.19-.252.336-.588.6113-1.008.826-.411.2053-.882.308-1.414.308zm0-1.344c.392 0 .728-.1073 1.008-.322.28-.224.485-.5273.616-.91.14-.3827.238-.7747.294-1.176.065-.4013.098-.84.098-1.316 0-.4947-.033-.9473-.098-1.358-.065-.42-.168-.8167-.308-1.19-.14-.3733-.35-.6627-.63-.868-.271-.2147-.597-.322-.98-.322-.392 0-.728.112-1.008.336-.28.224-.49.5273-.63.91-.14.3733-.243.7653-.308 1.176-.056.4107-.084.8493-.084 1.316 0 .6813.051 1.2833.154 1.806.112.5227.327.9753.644 1.358.317.3733.728.56 1.232.56zm.672-3.052c-.177.1867-.401.28-.672.28s-.499-.0933-.686-.28c-.177-.1867-.266-.4107-.266-.672 0-.2613.089-.4853.266-.672.187-.1867.415-.28.686-.28.271 0 .495.0933.672.28.187.1867.28.4107.28.672 0 .2613-.093.4853-.28.672zm7.983-.812c-.196.196-.439.294-.728.294s-.537-.098-.742-.294c-.196-.2053-.294-.448-.294-.728 0-.28.098-.518.294-.714.205-.2053.453-.308.742-.308s.532.1027.728.308c.205.196.308.434.308.714 0 .28-.103.5227-.308.728zm-1.134 7.574l-.658-.35c.532-.616.831-1.2787.896-1.988-.261-.0467-.471-.154-.63-.322-.159-.1773-.238-.4013-.238-.672 0-.308.103-.5553.308-.742.205-.196.448-.294.728-.294.308 0 .565.112.77.336.205.224.308.5413.308.952 0 .644-.154 1.246-.462 1.806-.299.5693-.639.994-1.022 1.274zM64.9238 99.6781c.5973 0 1.036.2007 1.316.602.2893.4013.434 1.064.434 1.988v4.732h-1.316v-4.368c0-.5787-.0513-.994-.154-1.246s-.2987-.378-.588-.378c-.2987 0-.5273.1493-.686.448-.1493.2987-.224.7047-.224 1.218v4.326h-1.316v-4.466c0-1.0173-.2473-1.526-.742-1.526-.2987 0-.5367.154-.714.462-.168.2987-.252.7-.252 1.204v4.326h-1.316v-7.154h1.232v.938c.2707-.7373.7373-1.106 1.4-1.106.336 0 .6207.1073.854.322.2333.2053.3967.4527.49.742.392-.7093.9193-1.064 1.582-1.064zm5.519 7.49c-.7747 0-1.4047-.2053-1.89-.616-.4854-.42-.728-1.0127-.728-1.778 0-.7747.2706-1.3627.812-1.764.5506-.4013 1.2133-.602 1.988-.602.7093 0 1.33.14 1.862.42v-.49c0-.9613-.4854-1.442-1.456-1.442-.7374 0-1.498.2473-2.282.742l-.42-1.148c.8493-.5413 1.792-.812 2.828-.812 1.792 0 2.688.8727 2.688 2.618v4.704h-1.358v-.616c-.5414.5227-1.2227.784-2.044.784zm.224-1.232c.6906 0 1.2973-.28 1.82-.84v-1.078c-.4947-.28-1.0454-.42-1.652-.42-.476 0-.8727.1027-1.19.308-.3174.196-.476.4853-.476.868 0 .3547.1306.6393.392.854.2706.2053.6393.308 1.106.308zm10.0129-6.258c.6627 0 1.204.1213 1.624.364v2.562h-1.372v-1.582c-.0653-.0093-.1633-.014-.294-.014-.7186 0-1.3066.1773-1.764.532-.448.3547-.672.8633-.672 1.526v2.688h2.044v1.246h-4.97v-1.246h1.498v-4.676h-1.498v-1.232h2.828v1.176c.224-.4107.574-.7373 1.05-.98.4854-.2427.994-.364 1.526-.364zm7.843 7.322l-2.114-4.144-1.19 1.176v2.968h-1.4v-9.45l1.4-.658v5.558l2.562-2.604h1.652l-2.016 2.002 2.646 5.152h-1.54zm9.3969-3.906c0 .3547-.014.6487-.042.882h-4.928c.1027.5973.3174 1.0687.644 1.414.336.3453.77.518 1.302.518.6254 0 1.1667-.2147 1.624-.644l.826.896c-.672.672-1.4933 1.008-2.464 1.008-1.036 0-1.8526-.3453-2.45-1.036-.5973-.7-.896-1.6053-.896-2.716 0-1.1667.2987-2.0813.896-2.744.6067-.6627 1.4234-.994 2.45-.994.8867 0 1.6147.2893 2.184.868.5694.5787.854 1.428.854 2.548zm-4.998-.336h3.612c-.028-.6347-.2006-1.1013-.518-1.4-.3173-.2987-.6953-.448-1.134-.448-.5786 0-1.0313.1633-1.358.49-.3266.3173-.5273.77-.602 1.358zm11.539-3.08c.6626 0 1.204.1213 1.624.364v2.562h-1.372v-1.582c-.0654-.0093-.1634-.014-.294-.014-.7187 0-1.3067.1773-1.764.532-.448.3547-.672.8633-.672 1.526v2.688h2.044v1.246h-4.97v-1.246h1.498v-4.676h-1.498v-1.232h2.828v1.176c.224-.4107.574-.7373 1.05-.98.4853-.2427.994-.364 1.526-.364zm2.8309 3.836v-1.344h6.58v1.344h-6.58zm12.729-5.236c-.7653 0-1.148.2707-1.148.812v.756h2.254v1.232h-2.254v4.676h1.904v1.246h-4.816v-1.246h1.512v-4.676h-1.512v-1.232h1.512v-1.022c0-.3453.0653-.6393.196-.882.1307-.2427.3127-.4247.546-.546.2333-.1307.476-.224.728-.28.252-.056.5227-.084.812-.084.6067 0 1.148.112 1.624.336v1.19c-.4293-.1867-.882-.28-1.358-.28zm7.1285.168c-.1582.1587-.3589.238-.6016.238-.2426 0-.448-.084-.616-.252-.1586-.168-.238-.3687-.238-.602 0-.2333.0794-.434.238-.602.168-.168.3734-.252.616-.252.2427 0 .4434.084.6016.252.168.1587.252.3593.252.602 0 .2427-.084.448-.252.616zm.098 7.308h1.974v1.246h-5.3476v-1.246h1.974v-4.676h-1.974v-1.232h3.3736v5.908zm7.815 0h2.044v1.246h-5.502v-1.246h2.058v-7.63h-1.694l-.644-1.232h3.738v8.862zm7.927 0h2.044v1.246h-5.502v-1.246h2.058v-7.63h-1.694l-.644-1.232h3.738v8.862zm7.955-3.794c-.196.196-.438.294-.728.294-.289 0-.536-.098-.742-.294-.196-.2053-.294-.448-.294-.728 0-.28.098-.518.294-.714.206-.2053.453-.308.742-.308.29 0 .532.1027.728.308.206.196.308.434.308.714 0 .28-.102.5227-.308.728zm0 4.928c-.196.196-.438.294-.728.294-.289 0-.536-.098-.742-.294-.196-.2053-.294-.448-.294-.728 0-.28.098-.518.294-.714.206-.2053.453-.308.742-.308.29 0 .532.1027.728.308.206.196.308.434.308.714 0 .28-.102.5227-.308.728zm12.172.112l.406-2.66h-1.61l.196-1.232h1.596l.336-2.226h-1.554l.182-1.218h1.554l.378-2.464h1.274l-.378 2.464h1.848l.378-2.464h1.274l-.378 2.464h1.61l-.182 1.218h-1.61l-.35 2.226h1.568l-.196 1.232h-1.554l-.406 2.66h-1.274l.406-2.66h-1.834l-.406 2.66h-1.274zm1.862-3.892h1.834l.35-2.226h-1.848l-.336 2.226zm5.911 3.892v-9.8h6.384v1.358h-4.942v2.702h3.528v1.358h-3.528v4.382h-1.442zm7.927 0v-9.8h6.384v1.358h-4.942v2.702h3.528v1.358h-3.528v4.382h-1.442zm10.755.168c-.663 0-1.251-.1073-1.764-.322-.504-.2147-.901-.4713-1.19-.77l.798-1.106c.663.5693 1.377.854 2.142.854.607 0 1.101-.1867 1.484-.56.392-.3827.588-.868.588-1.456 0-.56-.149-1.0127-.448-1.358-.289-.3453-.691-.518-1.204-.518-.681 0-1.26.2707-1.736.812l-1.288-.546.532-4.998h5.04v1.344h-3.78l-.336 2.604c.467-.3827 1.036-.574 1.708-.574.905 0 1.624.3033 2.156.91.541.5973.812 1.358.812 2.282 0 .9613-.327 1.7687-.98 2.422-.653.6533-1.498.98-2.534.98zm10.685-.854c-.635.5693-1.461.854-2.478.854-1.017 0-1.848-.2847-2.492-.854-.635-.5693-.952-1.2927-.952-2.17 0-.5787.159-1.092.476-1.54.317-.448.742-.7793 1.274-.994-.392-.1867-.714-.4573-.966-.812-.243-.3547-.364-.756-.364-1.204 0-.7373.28-1.3487.84-1.834.56-.4853 1.288-.728 2.184-.728.887 0 1.61.2473 2.17.742.569.4853.854 1.092.854 1.82 0 .448-.126.8493-.378 1.204-.243.3547-.565.6207-.966.798.532.2147.957.5507 1.274 1.008.327.448.49.9613.49 1.54 0 .8773-.322 1.6007-.966 2.17zm-2.478-5.264c.476 0 .859-.1213 1.148-.364.289-.252.434-.574.434-.966 0-.42-.149-.7607-.448-1.022-.289-.2613-.667-.392-1.134-.392-.467 0-.849.1307-1.148.392-.289.252-.434.5927-.434 1.022 0 .392.14.714.42.966.289.2427.677.364 1.162.364zm0 4.816c.579 0 1.055-.1633 1.428-.49.373-.336.56-.7747.56-1.316 0-.5133-.187-.9427-.56-1.288-.373-.3547-.849-.532-1.428-.532-.588 0-1.069.1773-1.442.532-.364.3453-.546.7747-.546 1.288 0 .5507.182.9893.546 1.316.373.3267.854.49 1.442.49zm7.913 1.302c-1.596 0-2.679-.7653-3.248-2.296l1.316-.532c.411.98 1.064 1.47 1.96 1.47.523 0 .952-.1353 1.288-.406.336-.28.504-.672.504-1.176 0-.504-.159-.9053-.476-1.204-.317-.2987-.775-.448-1.372-.448h-.812v-1.344h.742c.467 0 .84-.1307 1.12-.392.289-.2613.434-.6113.434-1.05 0-.42-.135-.7607-.406-1.022s-.616-.392-1.036-.392c-.737 0-1.288.4013-1.652 1.204l-1.316-.504c.252-.6067.63-1.0967 1.134-1.47.504-.3827 1.115-.574 1.834-.574.84 0 1.531.2473 2.072.742.551.4853.826 1.106.826 1.862 0 .448-.112.8587-.336 1.232-.215.3733-.509.672-.882.896.476.1867.859.4947 1.148.924.289.4293.434.938.434 1.526 0 .8867-.313 1.6007-.938 2.142-.616.5413-1.395.812-2.338.812zm4.833-.168v-9.8h6.006v1.358h-4.564v2.702h3.038v1.358h-3.038v3.01h4.872v1.372h-6.314zm11.763-5.04c-.196.196-.439.294-.728.294s-.537-.098-.742-.294c-.196-.2053-.294-.448-.294-.728 0-.28.098-.518.294-.714.205-.2053.453-.308.742-.308s.532.1027.728.308c.205.196.308.434.308.714 0 .28-.103.5227-.308.728zm-1.134 7.574l-.658-.35c.532-.616.831-1.2787.896-1.988-.261-.0467-.471-.154-.63-.322-.159-.1773-.238-.4013-.238-.672 0-.308.103-.5553.308-.742.205-.196.448-.294.728-.294.308 0 .565.112.77.336.205.224.308.5413.308.952 0 .644-.154 1.246-.462 1.806-.299.5693-.639.994-1.022 1.274zm-156.2292 11.144c.5973 0 1.036.2007 1.316.602.2893.4013.434 1.064.434 1.988v4.732h-1.316v-4.368c0-.5787-.0513-.994-.154-1.246s-.2987-.378-.588-.378c-.2987 0-.5273.1493-.686.448-.1493.2987-.224.7047-.224 1.218v4.326h-1.316v-4.466c0-1.0173-.2473-1.526-.742-1.526-.2987 0-.5367.154-.714.462-.168.2987-.252.7-.252 1.204v4.326h-1.316v-7.154h1.232v.938c.2707-.7373.7373-1.106 1.4-1.106.336 0 .6207.1073.854.322.2333.2053.3967.4527.49.742.392-.7093.9193-1.064 1.582-1.064zm5.519 7.49c-.7747 0-1.4047-.205-1.89-.616-.4854-.42-.728-1.013-.728-1.778 0-.775.2706-1.363.812-1.764.5506-.4013 1.2133-.602 1.988-.602.7093 0 1.33.14 1.862.42v-.49c0-.9613-.4854-1.442-1.456-1.442-.7374 0-1.498.2473-2.282.742l-.42-1.148c.8493-.5413 1.792-.812 2.828-.812 1.792 0 2.688.8727 2.688 2.618v4.704h-1.358v-.616c-.5414.523-1.2227.784-2.044.784zm.224-1.232c.6906 0 1.2973-.28 1.82-.84v-1.078c-.4947-.28-1.0454-.42-1.652-.42-.476 0-.8727.103-1.19.308-.3174.196-.476.485-.476.868 0 .355.1306.639.392.854.2706.205.6393.308 1.106.308zm10.0129-6.258c.6627 0 1.204.1213 1.624.364v2.562h-1.372v-1.582c-.0653-.0093-.1633-.014-.294-.014-.7186 0-1.3066.1773-1.764.532-.448.3547-.672.8633-.672 1.526v2.688h2.044v1.246h-4.97v-1.246h1.498v-4.676h-1.498v-1.232h2.828v1.176c.224-.4107.574-.7373 1.05-.98.4854-.2427.994-.364 1.526-.364zm7.843 7.322l-2.114-4.144-1.19 1.176v2.968h-1.4v-9.45l1.4-.658v5.558l2.562-2.604h1.652l-2.016 2.002 2.646 5.152h-1.54zm9.3969-3.906c0 .355-.014.649-.042.882h-4.928c.1027.597.3174 1.069.644 1.414.336.345.77.518 1.302.518.6254 0 1.1667-.215 1.624-.644l.826.896c-.672.672-1.4933 1.008-2.464 1.008-1.036 0-1.8526-.345-2.45-1.036-.5973-.7-.896-1.605-.896-2.716 0-1.1667.2987-2.0813.896-2.744.6067-.6627 1.4234-.994 2.45-.994.8867 0 1.6147.2893 2.184.868.5694.5787.854 1.428.854 2.548zm-4.998-.336h3.612c-.028-.6347-.2006-1.1013-.518-1.4-.3173-.2987-.6953-.448-1.134-.448-.5786 0-1.0313.1633-1.358.49-.3266.3173-.5273.77-.602 1.358zm11.539-3.08c.6626 0 1.204.1213 1.624.364v2.562h-1.372v-1.582c-.0654-.0093-.1634-.014-.294-.014-.7187 0-1.3067.1773-1.764.532-.448.3547-.672.8633-.672 1.526v2.688h2.044v1.246h-4.97v-1.246h1.498v-4.676h-1.498v-1.232h2.828v1.176c.224-.4107.574-.7373 1.05-.98.4853-.2427.994-.364 1.526-.364zm2.8309 3.836v-1.344h6.58v1.344h-6.58zm10.713 3.654c-.7747 0-1.4047-.205-1.89-.616-.4853-.42-.728-1.013-.728-1.778 0-.775.2707-1.363.812-1.764.5507-.4013 1.2133-.602 1.988-.602.7093 0 1.33.14 1.862.42v-.49c0-.9613-.4853-1.442-1.456-1.442-.7373 0-1.498.2473-2.282.742l-.42-1.148c.8493-.5413 1.792-.812 2.828-.812 1.792 0 2.688.8727 2.688 2.618v4.704h-1.358v-.616c-.5413.523-1.2227.784-2.044.784zm.224-1.232c.6907 0 1.2973-.28 1.82-.84v-1.078c-.4947-.28-1.0453-.42-1.652-.42-.476 0-.8727.103-1.19.308-.3173.196-.476.485-.476.868 0 .355.1307.639.392.854.2707.205.6393.308 1.106.308zm8.9065-.182h2.044v1.246h-5.5016v-1.246h2.058v-7.63h-1.694l-.644-1.232h3.7376v8.862zm7.927 0h2.044v1.246h-5.502v-1.246h2.058v-7.63h-1.694l-.644-1.232h3.738v8.862zm9.691.406c-.606.672-1.428 1.008-2.464 1.008s-1.862-.331-2.478-.994c-.606-.672-.91-1.587-.91-2.744 0-1.1573.304-2.072.91-2.744.616-.672 1.442-1.008 2.478-1.008 1.036 0 1.858.336 2.464 1.008.616.672.924 1.582.924 2.73 0 1.157-.308 2.072-.924 2.744zm-3.92-.952c.346.429.831.644 1.456.644.626 0 1.111-.219 1.456-.658.346-.439.518-1.031.518-1.778 0-.7467-.172-1.3347-.518-1.764-.336-.4387-.821-.658-1.456-.658-.634 0-1.12.2147-1.456.644-.336.42-.504 1.0173-.504 1.792 0 .747.168 1.339.504 1.778zm7.171 1.792l-1.82-7.154h1.316l.98 4.158c.056.224.098.439.126.644.066-.345.108-.565.126-.658l.938-4.144h1.092l.952 4.144c.019.075.061.308.126.7.038-.243.084-.476.14-.7l.952-4.144h1.316l-1.82 7.154h-1.12l-.924-4.018c-.102-.532-.158-.8167-.168-.854-.018.1027-.051.252-.098.448-.046.196-.074.3267-.084.392l-.896 4.032h-1.134zm6.849-3.486v-1.344h6.58v1.344h-6.58zm13.681 2.646c-.606.672-1.428 1.008-2.464 1.008s-1.862-.331-2.478-.994c-.606-.672-.91-1.587-.91-2.744 0-1.1573.304-2.072.91-2.744.616-.672 1.442-1.008 2.478-1.008 1.036 0 1.858.336 2.464 1.008.616.672.924 1.582.924 2.73 0 1.157-.308 2.072-.924 2.744zm-3.92-.952c.346.429.831.644 1.456.644.626 0 1.111-.219 1.456-.658.346-.439.518-1.031.518-1.778 0-.7467-.172-1.3347-.518-1.764-.336-.4387-.821-.658-1.456-.658-.634 0-1.12.2147-1.456.644-.336.42-.504 1.0173-.504 1.792 0 .747.168 1.339.504 1.778zm8.753 1.792l-2.758-7.154h1.47l1.722 4.662c.103.289.177.541.224.756.047-.215.121-.467.224-.756l1.694-4.662h1.456l-2.758 7.154h-1.274zm11.749-3.906c0 .355-.014.649-.042.882h-4.928c.103.597.317 1.069.644 1.414.336.345.77.518 1.302.518.625 0 1.167-.215 1.624-.644l.826.896c-.672.672-1.493 1.008-2.464 1.008-1.036 0-1.853-.345-2.45-1.036-.597-.7-.896-1.605-.896-2.716 0-1.1667.299-2.0813.896-2.744.607-.6627 1.423-.994 2.45-.994.887 0 1.615.2893 2.184.868.569.5787.854 1.428.854 2.548zm-4.998-.336h3.612c-.028-.6347-.201-1.1013-.518-1.4-.317-.2987-.695-.448-1.134-.448-.579 0-1.031.1633-1.358.49-.327.3173-.527.77-.602 1.358zm11.539-3.08c.663 0 1.204.1213 1.624.364v2.562h-1.372v-1.582c-.065-.0093-.163-.014-.294-.014-.719 0-1.307.1773-1.764.532-.448.3547-.672.8633-.672 1.526v2.688h2.044v1.246h-4.97v-1.246h1.498v-4.676h-1.498v-1.232h2.828v1.176c.224-.4107.574-.7373 1.05-.98.485-.2427.994-.364 1.526-.364zm6.821 6.076h2.044v1.246h-5.502v-1.246h2.058v-7.63h-1.694l-.644-1.232h3.738v8.862zm6.723 1.414c-.775 0-1.405-.205-1.89-.616-.485-.42-.728-1.013-.728-1.778 0-.775.271-1.363.812-1.764.551-.4013 1.213-.602 1.988-.602.709 0 1.33.14 1.862.42v-.49c0-.9613-.485-1.442-1.456-1.442-.737 0-1.498.2473-2.282.742l-.42-1.148c.849-.5413 1.792-.812 2.828-.812 1.792 0 2.688.8727 2.688 2.618v4.704h-1.358v-.616c-.541.523-1.223.784-2.044.784zm.224-1.232c.691 0 1.297-.28 1.82-.84v-1.078c-.495-.28-1.045-.42-1.652-.42-.476 0-.873.103-1.19.308-.317.196-.476.485-.476.868 0 .355.131.639.392.854.271.205.639.308 1.106.308zm5.225 3.892v-9.982h1.4v.574c.495-.4947 1.111-.742 1.848-.742.961 0 1.722.3313 2.282.994.56.6627.84 1.5773.84 2.744 0 1.167-.289 2.086-.868 2.758-.579.663-1.325.994-2.24.994-.793 0-1.414-.266-1.862-.798v2.8l-1.4.658zm3.066-3.976c.597 0 1.059-.21 1.386-.63.327-.42.49-1.022.49-1.806 0-.7467-.168-1.3347-.504-1.764-.327-.4387-.793-.658-1.4-.658-.728 0-1.274.28-1.638.84v3.164c.429.569.985.854 1.666.854zm8.571-3.892c-.196.196-.439.294-.728.294s-.537-.098-.742-.294c-.196-.2053-.294-.448-.294-.728 0-.28.098-.518.294-.714.205-.2053.453-.308.742-.308s.532.1027.728.308c.205.196.308.434.308.714 0 .28-.103.5227-.308.728zm0 4.928c-.196.196-.439.294-.728.294s-.537-.098-.742-.294c-.196-.205-.294-.448-.294-.728 0-.28.098-.518.294-.714.205-.205.453-.308.742-.308s.532.103.728.308c.205.196.308.434.308.714 0 .28-.103.523-.308.728zm15.784.28c-1.307 0-1.96-.625-1.96-1.876v-4.214h-1.568v-1.232h1.568v-2.282l1.4-.672v2.954h2.408v1.232h-2.408v3.878c0 .317.074.555.224.714.149.159.415.238.798.238.42 0 .84-.121 1.26-.364l-.154 1.302c-.411.215-.934.322-1.568.322zm9.075-7.49c.662 0 1.204.1213 1.624.364v2.562h-1.372v-1.582c-.066-.0093-.164-.014-.294-.014-.719 0-1.307.1773-1.764.532-.448.3547-.672.8633-.672 1.526v2.688h2.044v1.246h-4.97v-1.246h1.498v-4.676h-1.498v-1.232h2.828v1.176c.224-.4107.574-.7373 1.05-.98.485-.2427.994-.364 1.526-.364zm5.785 7.49c-1.792 0-2.688-1.045-2.688-3.136v-4.186h1.414v4.088c0 .663.14 1.148.42 1.456.289.299.667.448 1.134.448 1.11 0 1.666-.625 1.666-1.876v-4.116h1.414v7.154h-1.414v-.7c-.448.579-1.097.868-1.946.868zm11.455-4.074c0 .355-.014.649-.042.882h-4.928c.102.597.317 1.069.644 1.414.336.345.77.518 1.302.518.625 0 1.166-.215 1.624-.644l.826.896c-.672.672-1.494 1.008-2.464 1.008-1.036 0-1.853-.345-2.45-1.036-.598-.7-.896-1.605-.896-2.716 0-1.1667.298-2.0813.896-2.744.606-.6627 1.423-.994 2.45-.994.886 0 1.614.2893 2.184.868.569.5787.854 1.428.854 2.548zm-4.998-.336H263c-.028-.6347-.201-1.1013-.518-1.4-.318-.2987-.696-.448-1.134-.448-.579 0-1.032.1633-1.358.49-.327.3173-.528.77-.602 1.358zm10.461-.798c-.196.196-.439.294-.728.294-.29 0-.537-.098-.742-.294-.196-.2053-.294-.448-.294-.728 0-.28.098-.518.294-.714.205-.2053.452-.308.742-.308.289 0 .532.1027.728.308.205.196.308.434.308.714 0 .28-.103.5227-.308.728zm-1.134 7.574l-.658-.35c.532-.616.83-1.279.896-1.988-.262-.047-.472-.154-.63-.322-.159-.177-.238-.401-.238-.672 0-.308.102-.555.308-.742.205-.196.448-.294.728-.294.308 0 .564.112.77.336.205.224.308.541.308.952 0 .644-.154 1.246-.462 1.806-.299.569-.64.994-1.022 1.274zm-223.7891 21.286v-1.232h.434c.4947-.009.868-.173 1.12-.49.2613-.308.392-.737.392-1.288v-.896c0-.653.1027-1.125.308-1.414.2053-.289.518-.471.938-.546v-.056c-.42-.084-.7327-.271-.938-.56-.2053-.289-.308-.756-.308-1.4v-.896c0-1.148-.504-1.736-1.512-1.764h-.434v-1.246h.434c.9053.019 1.6193.303 2.142.854.5227.551.784 1.353.784 2.408v.798c0 .373.07.672.21.896.1493.215.35.322.602.322h.322v1.218h-.322c-.252 0-.4527.112-.602.336-.14.224-.21.518-.21.882v.812c0 1.045-.2613 1.843-.784 2.394-.5227.56-1.2367.849-2.142.868h-.434zm-13.3479 11.116l-2.492-2.184h1.89l1.988 2.184h-1.386z" fill="#B98BFF"/>
  <path stroke="#898989" stroke-width="2" d="M585.642 134v12"/>
  <path d="M728.707 144.292893c.391.390524.391 1.02369 0 1.414214l-6.364 6.363963c-.39.39052-1.024.39052-1.414 0-.391-.39053-.391-1.02369 0-1.41422L726.586 145l-5.657-5.65685c-.391-.39053-.391-1.02369 0-1.41422.39-.39052 1.024-.39052 1.414 0l6.364 6.363963zM585 144h143v2H585v-2z" fill="#898989"/>
  <path fill="#fff" d="M615 133h79v25h-79z"/>
  <path d="M622.814 142.616c.504-.784 1.39067-1.176 2.66-1.176v1.666c-.14933-.028-.28467-.042-.406-.042-.68133 0-1.21333.20067-1.596.602-.38267.392-.574.96133-.574 1.708V149h-1.75v-7.476h1.666v1.092zm11.1042 2.688c0 .1213-.0093.294-.028.518h-5.86601c.10266.5507.36866.9893.798 1.316.43866.3173.98.476 1.62401.476.8213 0 1.498-.2707 2.03-.812l.938 1.078c-.336.4013-.7607.7047-1.274.91-.5133.2053-1.092.308-1.736.308-.82135 0-1.54468-.1633-2.17001-.49-.62534-.3267-1.11067-.7793-1.456-1.358-.336-.588-.504-1.2507-.504-1.988 0-.728.16333-1.38133.49-1.96.336-.588.798-1.04533 1.386-1.372.588-.32667 1.25066-.49 1.98801-.49.728 0 1.3767.16333 1.946.49.5787.31733 1.0267.77 1.344 1.358.3267.57867.49 1.25067.49 2.016zm-3.78-2.464c-.56001 0-1.03601.168-1.42801.504-.38267.32667-.616.76533-.7 1.316h4.24201c-.0747-.54133-.3033-.98-.686-1.316-.3827-.336-.8587-.504-1.428-.504zm8.499-2.912c-.7374 0-1.106.40133-1.106 1.204v.448h2.058v1.4h-2.002V149h-1.75v-6.02h-1.232v-1.4h1.232v-.476c0-.80267.2333-1.43267.7-1.89.4666-.46667 1.1246-.7 1.974-.7.672 0 1.1993.13533 1.582.406l-.49 1.316c-.2987-.20533-.6207-.308-.966-.308zm4.917 2.688c.504-.784 1.3907-1.176 2.66-1.176v1.666c-.1493-.028-.2846-.042-.406-.042-.6813 0-1.2133.20067-1.596.602-.3826.392-.574.96133-.574 1.708V149h-1.75v-7.476h1.666v1.092zm11.1042 2.688c0 .1213-.0093.294-.028.518h-5.866c.1027.5507.3687.9893.798 1.316.4387.3173.98.476 1.624.476.8214 0 1.498-.2707 2.03-.812l.938 1.078c-.336.4013-.7606.7047-1.274.91-.5133.2053-1.092.308-1.736.308-.8213 0-1.5446-.1633-2.17-.49-.6253-.3267-1.1106-.7793-1.456-1.358-.336-.588-.504-1.2507-.504-1.988 0-.728.1634-1.38133.49-1.96.336-.588.798-1.04533 1.386-1.372.588-.32667 1.2507-.49 1.988-.49.728 0 1.3767.16333 1.946.49.5787.31733 1.0267.77 1.344 1.358.3267.57867.49 1.25067.49 2.016zm-3.78-2.464c-.56 0-1.036.168-1.428.504-.3826.32667-.616.76533-.7 1.316h4.242c-.0746-.54133-.3033-.98-.686-1.316-.3826-.336-.8586-.504-1.428-.504zm7.771 6.258c-.6067 0-1.1993-.0793-1.778-.238s-1.0407-.3593-1.386-.602l.672-1.33c.336.224.7373.406 1.204.546.476.1307.9427.196 1.4.196 1.0453 0 1.568-.2753 1.568-.826 0-.2613-.1353-.4433-.406-.546-.2613-.1027-.686-.2007-1.274-.294-.616-.0933-1.12-.2007-1.512-.322-.3827-.1213-.7187-.3313-1.008-.63-.28-.308-.42-.73267-.42-1.274 0-.70933.294-1.274.882-1.694.5973-.42933 1.4-.644 2.408-.644.5133 0 1.0267.06067 1.54.182.5133.112.9333.266 1.26.462l-.672 1.33c-.6347-.37333-1.3487-.56-2.142-.56-.5133 0-.9053.07933-1.176.238-.2613.14933-.392.35-.392.602 0 .28.14.48067.42.602.2893.112.7327.21933 1.33.322.5973.09333 1.0873.20067 1.47.322.3827.1213.7093.3267.98.616.28.2893.42.7.42 1.232 0 .7-.3033 1.26-.91 1.68-.6067.42-1.4327.63-2.478.63zm9.1371-7.658c.9427 0 1.6987.27533 2.268.826.5693.55067.854 1.36733.854 2.45V149h-1.75v-4.06c0-.65333-.154-1.14333-.462-1.47-.308-.336-.7467-.504-1.316-.504-.644 0-1.1527.196-1.526.588-.3733.38267-.56.938-.56 1.666V149h-1.75v-10.388h1.75v3.78c.2893-.308.644-.54133 1.064-.7.4293-.168.9053-.252 1.428-.252zm12.4383 3.864c0 .1213-.0093.294-.028.518h-5.866c.1027.5507.3687.9893.798 1.316.4387.3173.98.476 1.624.476.8214 0 1.498-.2707 2.03-.812l.938 1.078c-.336.4013-.7606.7047-1.274.91-.5133.2053-1.092.308-1.736.308-.8213 0-1.5446-.1633-2.17-.49-.6253-.3267-1.1106-.7793-1.456-1.358-.336-.588-.504-1.2507-.504-1.988 0-.728.1634-1.38133.49-1.96.336-.588.798-1.04533 1.386-1.372.588-.32667 1.2507-.49 1.988-.49.728 0 1.3767.16333 1.946.49.5787.31733 1.0267.77 1.344 1.358.3267.57867.49 1.25067.49 2.016zm-3.78-2.464c-.56 0-1.036.168-1.428.504-.3826.32667-.616.76533-.7 1.316h4.242c-.0746-.54133-.3033-.98-.686-1.316-.3826-.336-.8586-.504-1.428-.504zm7.771 6.258c-.6067 0-1.1993-.0793-1.778-.238s-1.0407-.3593-1.386-.602l.672-1.33c.336.224.7373.406 1.204.546.476.1307.9427.196 1.4.196 1.0453 0 1.568-.2753 1.568-.826 0-.2613-.1353-.4433-.406-.546-.2613-.1027-.686-.2007-1.274-.294-.616-.0933-1.12-.2007-1.512-.322-.3827-.1213-.7187-.3313-1.008-.63-.28-.308-.42-.73267-.42-1.274 0-.70933.294-1.274.882-1.694.5973-.42933 1.4-.644 2.408-.644.5133 0 1.0267.06067 1.54.182.5133.112.9333.266 1.26.462l-.672 1.33c-.6347-.37333-1.3487-.56-2.142-.56-.5133 0-.9053.07933-1.176.238-.2613.14933-.392.35-.392.602 0 .28.14.48067.42.602.2893.112.7327.21933 1.33.322.5973.09333 1.0873.20067 1.47.322.3827.1213.7093.3267.98.616.28.2893.42.7.42 1.232 0 .7-.3033 1.26-.91 1.68-.6067.42-1.4327.63-2.478.63z" fill="#898989"/>
  <path stroke="#898989" stroke-width="2" d="M451 50.6668h135"/>
  <path d="M584.292893 70.7072c.390524.3905 1.02369.3905 1.414214 0l6.363963-6.364c.39052-.3905.39052-1.0236 0-1.4142-.39053-.3905-1.02369-.3905-1.41422 0L585 68.5859l-5.65685-5.6569c-.39053-.3905-1.02369-.3905-1.41422 0-.39052.3906-.39052 1.0237 0 1.4142l6.363963 6.364zM584 50.0001v20h2v-20h-2z" fill="#898989"/>
  <path fill="#fff" d="M484 38h70v25h-70z"/>
  <path d="M498.386 47.524V55h-1.666v-.952c-.28.336-.63.5973-1.05.784-.42.1773-.87267.266-1.358.266-.99867 0-1.78733-.2753-2.366-.826-.56933-.56-.854-1.386-.854-2.478v-4.27h1.75v4.032c0 .672.14933 1.176.448 1.512.308.3267.742.49 1.302.49.62533 0 1.12-.1913 1.484-.574.37333-.392.56-.952.56-1.68v-3.78h1.75zm6.4353-.084c.728 0 1.3767.15867 1.946.476.5787.31733 1.0313.76533 1.358 1.344.3267.57867.49 1.246.49 2.002 0 .756-.1633 1.428-.49 2.016-.3267.5787-.7793 1.0267-1.358 1.344-.5693.3173-1.218.476-1.946.476-1.008 0-1.806-.336-2.394-1.008v3.626h-1.75V47.524h1.666v.98c.2893-.35467.644-.62067 1.064-.798.4293-.17733.9007-.266 1.414-.266zm-.196 6.16c.644 0 1.1713-.2147 1.582-.644.42-.4293.63-.994.63-1.694s-.21-1.26467-.63-1.694c-.4107-.42933-.938-.644-1.582-.644-.42 0-.798.098-1.134.294-.336.18667-.602.45733-.798.812-.196.35467-.294.76533-.294 1.232 0 .4667.098.8773.294 1.232.196.3547.462.63.798.826.336.1867.714.28 1.134.28zm12.9717-8.988V55h-1.68v-.966c-.2894.3547-.6487.6207-1.078.798-.42.1773-.8867.266-1.4.266-.7187 0-1.3674-.1587-1.946-.476-.5694-.3173-1.0174-.7653-1.344-1.344-.3267-.588-.49-1.26-.49-2.016s.1633-1.42333.49-2.002c.3266-.57867.7746-1.02667 1.344-1.344.5786-.31733 1.2273-.476 1.946-.476.4946 0 .9473.084 1.358.252.4106.168.7606.42 1.05.756v-3.836h1.75zm-3.948 8.988c.42 0 .798-.0933 1.134-.28.336-.196.602-.4713.798-.826.196-.3547.294-.7653.294-1.232 0-.46667-.098-.87733-.294-1.232-.196-.35467-.462-.62533-.798-.812-.336-.196-.714-.294-1.134-.294-.42 0-.798.098-1.134.294-.336.18667-.602.45733-.798.812-.196.35467-.294.76533-.294 1.232 0 .4667.098.8773.294 1.232.196.3547.462.63.798.826.336.1867.714.28 1.134.28zm9.0933-6.16c1.1013 0 1.9413.266 2.52.798.588.52267.882 1.316.882 2.38V55h-1.652v-.91c-.2147.3267-.5227.5787-.924.756-.392.168-.868.252-1.428.252-.56 0-1.05-.0933-1.47-.28-.42-.196-.7467-.462-.98-.798-.224-.3453-.336-.7327-.336-1.162 0-.672.2473-1.2087.742-1.61.504-.41067 1.2926-.616 2.366-.616h1.932v-.112c0-.52267-.1587-.924-.476-1.204-.308-.28-.77-.42-1.386-.42-.42 0-.8354.06533-1.246.196-.4014.13067-.742.31267-1.022.546l-.686-1.274c.392-.29867.8633-.52733 1.414-.686.5506-.15867 1.134-.238 1.75-.238zm-.238 6.384c.4386 0 .826-.098 1.162-.294.3453-.2053.588-.4947.728-.868v-.868h-1.806c-1.008 0-1.512.3313-1.512.994 0 .3173.126.5693.378.756.252.1867.602.28 1.05.28zm10.3799.77c-.2053.168-.4573.294-.756.378-.2893.084-.5973.126-.924.126-.8213 0-1.456-.2147-1.904-.644-.448-.4293-.672-1.0547-.672-1.876V48.98h-1.232v-1.4h1.232v-1.708h1.75v1.708h2.002v1.4h-2.002v3.556c0 .364.0887.644.266.84.1773.1867.434.28.77.28.392 0 .7187-.1027.98-.308l.49 1.246zm8.2215-3.29c0 .1213-.0093.294-.028.518h-5.866c.1027.5507.3687.9893.798 1.316.4387.3173.98.476 1.624.476.8213 0 1.498-.2707 2.03-.812l.938 1.078c-.336.4013-.7607.7047-1.274.91-.5133.2053-1.092.308-1.736.308-.8213 0-1.5447-.1633-2.17-.49s-1.1107-.7793-1.456-1.358c-.336-.588-.504-1.2507-.504-1.988 0-.728.1633-1.38133.49-1.96.336-.588.798-1.04533 1.386-1.372.588-.32667 1.2507-.49 1.988-.49.728 0 1.3767.16333 1.946.49.5787.31733 1.0267.77 1.344 1.358.3267.57867.49 1.25067.49 2.016zm-3.78-2.464c-.56 0-1.036.168-1.428.504-.3827.32667-.616.76533-.7 1.316h4.242c-.0747-.54133-.3033-.98-.686-1.316-.3827-.336-.8587-.504-1.428-.504zm7.771 6.258c-.6067 0-1.1994-.0793-1.778-.238-.5787-.1587-1.0407-.3593-1.386-.602l.672-1.33c.336.224.7373.406 1.204.546.476.1307.9426.196 1.4.196 1.0453 0 1.568-.2753 1.568-.826 0-.2613-.1354-.4433-.406-.546-.2614-.1027-.686-.2007-1.274-.294-.616-.0933-1.12-.2007-1.512-.322-.3827-.1213-.7187-.3313-1.008-.63-.28-.308-.42-.73267-.42-1.274 0-.70933.294-1.274.882-1.694.5973-.42933 1.4-.644 2.408-.644.5133 0 1.0266.06067 1.54.182.5133.112.9333.266 1.26.462l-.672 1.33c-.6347-.37333-1.3487-.56-2.142-.56-.5134 0-.9054.07933-1.176.238-.2614.14933-.392.35-.392.602 0 .28.14.48067.42.602.2893.112.7326.21933 1.33.322.5973.09333 1.0873.20067 1.47.322.3826.1213.7093.3267.98.616.28.2893.42.7.42 1.232 0 .7-.3034 1.26-.91 1.68-.6067.42-1.4327.63-2.478.63z" fill="#898989"/>
  <rect width="150" height="35" rx="4" transform="translate(740 128)" fill="#00B9BF"/>
  <path d="M785.82896 138.4h2.916v10.224h6.31804V151h-9.23404v-12.6zm19.26674 9.9h-5.85l-1.116 2.7h-2.988l5.616-12.6h2.88l5.634 12.6h-3.06l-1.116-2.7zm-.918-2.214l-1.998-4.824-1.998 4.824h3.996zm11.6758.45V151h-2.916v-4.5l-4.878-8.1h3.096l3.366 5.598 3.366-5.598h2.862l-4.896 8.136zm15.749 2.124V151h-9.756v-12.6h9.522v2.34h-6.624v2.736h5.85v2.268h-5.85v2.916h6.858zm10.3482 2.34l-2.43-3.51h-2.682V151h-2.916v-12.6h5.454c1.116 0 2.082.186 2.898.558.828.372 1.464.9 1.908 1.584.444.684.666 1.494.666 2.43 0 .936-.228 1.746-.684 2.43-.444.672-1.08 1.188-1.908 1.548l2.826 4.05h-3.132zm-.054-8.028c0-.708-.228-1.248-.684-1.62-.456-.384-1.122-.576-1.998-.576h-2.376v4.392h2.376c.876 0 1.542-.192 1.998-.576.456-.384.684-.924.684-1.62z" fill="#fff"/>
  <rect width="150" height="35" rx="4" transform="translate(510 86)" fill="#00B9BF"/>
  <path d="M550.95138 110.216c-.996 0-1.962-.132-2.898-.396-.924-.276-1.668-.63-2.231997-1.062l.989997-2.196c.54.396 1.182.714 1.926.954s1.488.36 2.232.36c.828 0 1.44-.12 1.836-.36.396-.252.594-.582.594-.99 0-.3-.12-.546-.36-.738-.228-.204-.528-.366-.9-.486-.36-.12-.852-.252-1.476-.396-.96-.228-1.746-.456-2.358-.684-.612-.228-1.14-.594-1.584-1.098-.432-.504-.648-1.176-.648-2.016 0-.732.198-1.392.594-1.98.396-.6.99-1.074 1.782-1.422.804-.348 1.782-.522 2.934-.522.804 0 1.59.096 2.358.288.768.192 1.44002.468 2.01602.828l-.90002 2.214c-1.164-.66-2.328-.99-3.492-.99-.816 0-1.422.132-1.818.396-.384.264-.576.612-.576 1.044 0 .432.222.756.666.972.456.204 1.146.408 2.07.612.96.228 1.746.456 2.358.684.612.228 1.13402.588 1.56602 1.08.444.492.666 1.158.666 1.998 0 .72-.204 1.38-.612 1.98-.396.588-.99602 1.056-1.80002 1.404-.804.348-1.782.522-2.934.522zm13.44052 0c-1.308 0-2.49-.282-3.546-.846-1.044-.564-1.866-1.338-2.466-2.322-.588-.996-.882-2.112-.882-3.348 0-1.236.294-2.346.882-3.33.6-.996 1.422-1.776 2.466-2.34 1.056-.564 2.238-.846 3.546-.846 1.308 0 2.484.282 3.528.846 1.044.564 1.866 1.344 2.466 2.34.6.984.9 2.094.9 3.33 0 1.236-.3 2.352-.9 3.348-.6.984-1.422 1.758-2.466 2.322-1.044.564-2.22.846-3.528.846zm0-2.484c.744 0 1.416-.168 2.016-.504.6-.348 1.068-.828 1.404-1.44.348-.612.522-1.308.522-2.088s-.174-1.476-.522-2.088c-.336-.612-.804-1.086-1.404-1.422-.6-.348-1.272-.522-2.016-.522s-1.416.174-2.016.522c-.6.336-1.074.81-1.422 1.422-.336.612-.504 1.308-.504 2.088s.168 1.476.504 2.088c.348.612.822 1.092 1.422 1.44.6.336 1.272.504 2.016.504zm14.6835 2.484c-1.8 0-3.204-.498-4.212-1.494-.996-.996-1.494-2.418-1.494-4.266V97.4h2.916v6.948c0 2.256.936 3.384 2.808 3.384.912 0 1.608-.27 2.088-.81.48-.552.72-1.41.72-2.574V97.4h2.88v7.056c0 1.848-.504 3.27-1.512 4.266-.996.996-2.394 1.494-4.194 1.494zm16.6155-.216l-2.43-3.51h-2.682V110h-2.916V97.4h5.454c1.116 0 2.082.186 2.898.558.828.372 1.464.9 1.908 1.584.444.684.666 1.494.666 2.43 0 .936-.228 1.746-.684 2.43-.444.672-1.08 1.188-1.908 1.548l2.826 4.05h-3.132zm-.054-8.028c0-.708-.228-1.248-.684-1.62-.456-.384-1.122-.576-1.998-.576h-2.376v4.392h2.376c.876 0 1.542-.192 1.998-.576.456-.384.684-.924.684-1.62zm11.2924 8.244c-1.284 0-2.448-.276-3.492-.828-1.032-.564-1.848-1.338-2.448-2.322-.588-.996-.882-2.118-.882-3.366 0-1.248.294-2.364.882-3.348.6-.996 1.416-1.77 2.448-2.322 1.044-.564 2.214-.846 3.51-.846 1.092 0 2.076.192 2.952.576.888.384 1.632.936 2.232 1.656l-1.872 1.728c-.852-.984-1.908-1.476-3.168-1.476-.78 0-1.476.174-2.088.522-.612.336-1.092.81-1.44 1.422-.336.612-.504 1.308-.504 2.088s.168 1.476.504 2.088c.348.612.828 1.092 1.44 1.44.612.336 1.308.504 2.088.504 1.26 0 2.316-.498 3.168-1.494l1.872 1.728c-.6.732-1.344 1.29-2.232 1.674-.888.384-1.878.576-2.97.576zm16.9271-2.556V110h-9.756V97.4h9.522v2.34h-6.624v2.736h5.85v2.268h-5.85v2.916h6.858z" fill="#fff"/>
</svg>
