<svg width="690" height="200" fill="none" xmlns="http://www.w3.org/2000/svg">
  <path fill="#fff" d="M0 0h690v200H0z"/>
  <rect width="334" height="46" rx="4" transform="translate(12 12)" fill="#2E3C43"/>
  <path d="M29.04 37.888c-.196.196-.43867.294-.728.294s-.53667-.098-.742-.294c-.196-.2053-.294-.448-.294-.728 0-.28.098-.518.294-.714.20533-.2053.45267-.308.742-.308s.532.1027.728.308c.20533.196.308.434.308.714 0 .28-.10267.5227-.308.728zm7.199.28c-.5694 0-1.1014-.112-1.596-.336-.4854-.2333-.88205-.546-1.19005-.938l.93805-.826c.56.5973 1.2086.896 1.946.896.3733 0 .6766-.07.91-.21.2426-.1493.364-.3593.364-.63 0-.3827-.5274-.7887-1.582-1.218-.0187-.0093-.0327-.014-.042-.014-.0094-.0093-.0234-.0187-.042-.028-.0187-.0093-.0374-.014-.056-.014-.0094-.0093-.0234-.0187-.042-.028-.4014-.168-.7094-.3033-.924-.406-.2147-.112-.4434-.2567-.686-.434-.24271-.17733-.42005-.378-.53205-.602-.10266-.224-.154-.48533-.154-.784 0-.588.24734-1.05467.74205-1.4.504-.34533 1.1386-.518 1.904-.518 1.064 0 1.9226.37333 2.576 1.12l-.924.77c-.5134-.45733-1.0827-.686-1.708-.686-.3827 0-.6907.06533-.924.196-.2334.13067-.35.308-.35.532 0 .32667.5133.69067 1.54 1.092.0373.01867.0653.03267.084.042.336.13067.5786.22867.728.294.1493.0653.3546.1727.616.322.2706.1493.4666.294.588.434.1306.14.2473.3267.35.56.1026.224.154.4713.154.742 0 .644-.2427 1.1527-.728 1.526-.4854.364-1.1387.546-1.96.546zm11.1189-4.074c0 .3547-.014.6487-.042.882h-4.928c.1027.5973.3173 1.0687.644 1.414.336.3453.77.518 1.302.518.6253 0 1.1667-.2147 1.624-.644l.826.896c-.672.672-1.4933 1.008-2.464 1.008-1.036 0-1.8527-.3453-2.45-1.036-.5973-.7-.896-1.6053-.896-2.716 0-1.16667.2987-2.08133.896-2.744.6067-.66267 1.4233-.994 2.45-.994.8867 0 1.6147.28933 2.184.868.5693.57867.854 1.428.854 2.548zm-4.998-.336h3.612c-.028-.63467-.2007-1.10133-.518-1.4s-.6953-.448-1.134-.448c-.5787 0-1.0313.16333-1.358.49-.3267.31733-.5273.77-.602 1.358zm10.391 4.41c-1.3067 0-1.96-.6253-1.96-1.876v-4.214h-1.568v-1.232h1.568v-2.282l1.4-.672v2.954h2.408v1.232h-2.408v3.878c0 .3173.0746.5553.224.714.1493.1587.4153.238.798.238.42 0 .84-.1213 1.26-.364l-.154 1.302c-.4107.2147-.9334.322-1.568.322zM63.5478 33.1c0 1.904-.4573 3.3087-1.372 4.214l.742 1.106-1.036.714-.77-1.148c-.308.1213-.672.182-1.092.182-.6067 0-1.1433-.14-1.61-.42-.4667-.2893-.8353-.6767-1.106-1.162-.2707-.4853-.476-1.022-.616-1.61-.1307-.588-.196-1.21333-.196-1.876 0-.66267.0653-1.288.196-1.876.14-.588.3453-1.12467.616-1.61.2707-.48533.6393-.868 1.106-1.148.4667-.28933 1.0033-.434 1.61-.434.616 0 1.1573.14467 1.624.434.4667.28.8353.66267 1.106 1.148.2707.48533.4713 1.022.602 1.61.1307.588.196 1.21333.196 1.876zm-3.528 3.71c.0747 0 .168-.0093.28-.028l-.672-.994 1.064-.714.658.98c.476-.6907.714-1.6753.714-2.954 0-1.07333-.168-1.96-.504-2.66-.336-.70933-.8493-1.064-1.54-1.064-.4573 0-.8447.19133-1.162.574-.3173.37333-.5413.83067-.672 1.372-.1307.54133-.196 1.134-.196 1.778 0 1.064.168 1.9507.504 2.66.336.7.8447 1.05 1.526 1.05zm7.591 1.358c-1.792 0-2.688-1.0453-2.688-3.136v-4.186h1.414v4.088c0 .6627.14 1.148.42 1.456.2893.2987.6673.448 1.134.448 1.1106 0 1.666-.6253 1.666-1.876v-4.116h1.414V38h-1.414v-.7c-.448.5787-1.0967.868-1.946.868zm11.4549-4.074c0 .3547-.014.6487-.042.882h-4.928c.1027.5973.3174 1.0687.644 1.414.336.3453.77.518 1.302.518.6254 0 1.1667-.2147 1.624-.644l.826.896c-.672.672-1.4933 1.008-2.464 1.008-1.036 0-1.8526-.3453-2.45-1.036-.5973-.7-.896-1.6053-.896-2.716 0-1.16667.2987-2.08133.896-2.744.6067-.66267 1.4234-.994 2.45-.994.8867 0 1.6147.28933 2.184.868.5694.57867.854 1.428.854 2.548zm-4.998-.336h3.612c-.028-.63467-.2006-1.10133-.518-1.4-.3173-.29867-.6953-.448-1.134-.448-.5786 0-1.0313.16333-1.358.49-.3266.31733-.5273.77-.602 1.358zm11.539-3.08c.6626 0 1.204.12133 1.624.364v2.562h-1.372v-1.582c-.0654-.00933-.1634-.014-.294-.014-.7187 0-1.3067.17733-1.764.532-.448.35467-.672.86333-.672 1.526v2.688h2.044V38h-4.97v-1.246h1.498v-4.676h-1.498v-1.232h2.828v1.176c.224-.41067.574-.73733 1.05-.98.4853-.24267.994-.364 1.526-.364zm4.3289 10.038l1.078-2.884-2.646-6.986h1.428l1.68 4.606c.0654.1867.14.4153.224.686.0467-.1587.126-.3873.238-.686l1.694-4.606h1.456l-3.724 9.87h-1.428z" fill="#fff"/>
  <path d="M100.5926 39.82c-1.6987-1.4933-2.548-3.4253-2.548-5.796 0-1.30667.2566-2.47333.77-3.5.5226-1.02667 1.1666-1.85733 1.932-2.492h1.372c-.2334.196-.49.46667-.77.812-.2707.336-.56.76067-.868 1.274-.2987.504-.546 1.106-.742 1.806-.196.69067-.294 1.39067-.294 2.1 0 .7187.0933 1.414.28 2.086.1866.6627.4293 1.2413.728 1.736.308.4947.5786.8913.812 1.19.2333.2987.4666.56.7.784h-1.372zm226.6474 0c.234-.224.462-.4853.686-.784.234-.2893.504-.6813.812-1.176.308-.504.556-1.0873.742-1.75.187-.672.28-1.3673.28-2.086 0-.70933-.102-1.40933-.308-2.1-.196-.7-.448-1.302-.756-1.806-.298-.51333-.583-.938-.854-1.274-.27-.336-.522-.60667-.756-.812h1.372c.766.63467 1.405 1.46533 1.918 2.492.523 1.02667.784 2.19333.784 3.5 0 2.3707-.849 4.3027-2.548 5.796h-1.372z" fill="#4DF4FF"/>
  <path d="M107.5675 31.84c-.308 0-.5646-.112-.77-.336-.2053-.224-.308-.546-.308-.966 0-.63467.1494-1.232.448-1.792.308-.56933.6534-.994 1.036-1.274l.658.35c-.532.616-.8306 1.27867-.896 1.988.2614.04667.4714.15867.63.336.1587.168.238.38267.238.644 0 .308-.1026.56-.308.756-.2053.196-.448.294-.728.294zm8.039 6.328c-.7747 0-1.4607-.2147-2.058-.644-.5973-.4387-1.0173-1.0033-1.26-1.694l1.33-.49c.196.448.476.8073.84 1.078.3733.2707.7887.406 1.246.406.476 0 .8493-.126 1.12-.378.28-.252.42-.616.42-1.092 0-.42-.1773-.7793-.532-1.078-.3547-.308-.84-.59733-1.456-.868-.392-.168-.7093-.322-.952-.462-.2427-.14-.5133-.32667-.812-.56-.2987-.23333-.5227-.504-.672-.812-.14-.308-.21-.658-.21-1.05 0-.7.2613-1.288.784-1.764.532-.48533 1.232-.728 2.1-.728.6907 0 1.2833.17733 1.778.532.504.35467.8353.812.994 1.372l-1.302.434c-.1307-.28933-.3313-.52733-.602-.714-.2613-.196-.574-.294-.938-.294-.4013 0-.728.10733-.98.322-.252.20533-.378.48533-.378.84 0 .18667.042.35467.126.504.0933.14933.238.294.434.434.196.13067.3733.238.532.322.1587.07467.392.182.7.322.0187.00933.0327.01867.042.028.0093 0 .0233.00467.042.014.0187 0 .0327.00467.042.014.3733.17733.6907.34533.952.504.2613.14933.5413.35.84.602.2987.252.5273.55067.686.896.1587.3453.238.728.238 1.148 0 .8773-.294 1.5727-.882 2.086-.588.5133-1.3253.77-2.212.77zm4.7209-.168v-9.8h6.0056v1.358h-4.5636v2.702h3.0376v1.358h-3.0376v3.01h4.8716V38h-6.3136zm7.9266 0v-9.8h1.442v8.414h4.592V38h-6.034zm7.927 0v-9.8h6.006v1.358h-4.564v2.702h3.038v1.358h-3.038v3.01h4.872V38h-6.314zm11.287.168c-.662 0-1.246-.1447-1.75-.434-.494-.2893-.886-.6767-1.176-1.162-.289-.4947-.504-1.0313-.644-1.61-.14-.588-.21-1.20867-.21-1.862 0-.644.07-1.25533.21-1.834.15-.588.369-1.12467.658-1.61.299-.49467.696-.88667 1.19-1.176.504-.29867 1.078-.448 1.722-.448.738 0 1.34.182 1.806.546.476.35467.831.80733 1.064 1.358l-1.288.63c-.205-.38267-.429-.672-.672-.868-.233-.20533-.536-.308-.91-.308-.532 0-.98.20067-1.344.602-.354.392-.602.854-.742 1.386-.13.532-.196 1.106-.196 1.722 0 1.008.196 1.8807.588 2.618.392.728.957 1.092 1.694 1.092.7 0 1.246-.42 1.638-1.26l1.302.504c-.578 1.4093-1.558 2.114-2.94 2.114zm6.961-.168v-8.428h-2.842V28.2h7.112v1.372h-2.842V38h-1.428zm15.336-1.61l-1.092-.728.868-1.33.756-.7-1.022.238h-1.526v-1.33h1.526l1.022.224-.742-.686-.868-1.33 1.092-.728.966 1.456.252.938.266-.938.966-1.456 1.092.728-.868 1.33-.756.686 1.022-.224h1.526v1.33h-1.526l-1.022-.238.756.7.868 1.33-1.092.728-.966-1.456-.266-.952-.266.952-.966 1.456zM183.743 38v-9.8h6.384v1.358h-4.942v2.702h3.528v1.358h-3.528V38h-1.442zm14.269-6.93c0 .63467-.173 1.20867-.518 1.722-.345.504-.859.854-1.54 1.05l2.03 4.158h-1.596l-1.96-4.018h-1.316V38h-1.442v-9.8h3.192c1.111 0 1.913.27067 2.408.812.495.54133.742 1.22733.742 2.058zm-4.9-1.54v3.108h1.778c.588 0 1.013-.14467 1.274-.434.271-.29867.406-.66733.406-1.106 0-.42-.131-.784-.392-1.092-.252-.31733-.681-.476-1.288-.476h-1.778zm9.593 8.638c-.607 0-1.143-.14-1.61-.42-.467-.2893-.835-.6767-1.106-1.162-.271-.4853-.476-1.022-.616-1.61-.131-.588-.196-1.21333-.196-1.876 0-.66267.065-1.288.196-1.876.14-.588.345-1.12467.616-1.61.271-.48533.639-.868 1.106-1.148.467-.28933 1.003-.434 1.61-.434.616 0 1.157.14467 1.624.434.467.28.835.66267 1.106 1.148.271.48533.471 1.022.602 1.61.131.588.196 1.21333.196 1.876 0 .66267-.065 1.288-.196 1.876-.131.588-.331 1.1247-.602 1.61-.271.4853-.639.8727-1.106 1.162-.467.28-1.008.42-1.624.42zm0-1.358c.457 0 .845-.1867 1.162-.56.327-.3733.555-.8307.686-1.372.131-.5413.196-1.134.196-1.778 0-1.07333-.168-1.96-.504-2.66-.336-.70933-.849-1.064-1.54-1.064-.457 0-.845.19133-1.162.574-.317.37333-.541.83067-.672 1.372-.131.54133-.196 1.134-.196 1.778 0 1.064.168 1.9507.504 2.66.336.7.845 1.05 1.526 1.05zm4.819 1.19v-9.8h1.456l1.442 5.614c.121.4573.196.7887.224.994.047-.3173.121-.6487.224-.994l1.47-5.614h1.4V38h-1.274v-5.74c0-.40133.009-.68133.028-.84-.019.056-.056.182-.112.378s-.098.35-.126.462l-1.54 5.74h-.168l-1.54-5.74c-.009-.03733-.089-.31733-.238-.84.019.31733.028.59733.028.84V38h-1.274zm20.866-7.322c.597 0 1.036.20067 1.316.602.289.40133.434 1.064.434 1.988V38h-1.316v-4.368c0-.57867-.052-.994-.154-1.246-.103-.252-.299-.378-.588-.378-.299 0-.528.14933-.686.448-.15.29867-.224.70467-.224 1.218V38h-1.316v-4.466c0-1.01733-.248-1.526-.742-1.526-.299 0-.537.154-.714.462-.168.29867-.252.7-.252 1.204V38h-1.316v-7.154h1.232v.938c.27-.73733.737-1.106 1.4-1.106.336 0 .62.10733.854.322.233.20533.396.45267.49.742.392-.70933.919-1.064 1.582-1.064zm4.231 10.038l1.078-2.884-2.646-6.986h1.428l1.68 4.606c.065.1867.14.4153.224.686.046-.1587.126-.3873.238-.686l1.694-4.606h1.456l-3.724 9.87h-1.428zm5.967-.238v-1.232h7.504v1.232h-7.504zm12.057-9.8c1.764 0 2.646 1.02667 2.646 3.08V38h-1.4v-4.144c0-1.24133-.523-1.862-1.568-1.862-1.111 0-1.666.61133-1.666 1.834V38h-1.4v-7.154h1.302v.868c.177-.308.452-.55533.826-.742.373-.196.793-.294 1.26-.294zm10.741 3.416c0 .3547-.014.6487-.042.882h-4.928c.102.5973.317 1.0687.644 1.414.336.3453.77.518 1.302.518.625 0 1.166-.2147 1.624-.644l.826.896c-.672.672-1.494 1.008-2.464 1.008-1.036 0-1.853-.3453-2.45-1.036-.598-.7-.896-1.6053-.896-2.716 0-1.16667.298-2.08133.896-2.744.606-.66267 1.423-.994 2.45-.994.886 0 1.614.28933 2.184.868.569.57867.854 1.428.854 2.548zm-4.998-.336H260c-.028-.63467-.201-1.10133-.518-1.4-.318-.29867-.696-.448-1.134-.448-.579 0-1.032.16333-1.358.49-.327.31733-.528.77-.602 1.358zM263.909 38l-1.82-7.154h1.316l.98 4.158c.056.224.098.4387.126.644.065-.3453.107-.5647.126-.658l.938-4.144h1.092l.952 4.144c.018.0747.06.308.126.7.037-.2427.084-.476.14-.7l.952-4.144h1.316L268.333 38h-1.12l-.924-4.018c-.103-.532-.159-.81667-.168-.854-.019.10267-.052.252-.098.448-.047.196-.075.32667-.084.392L265.043 38h-1.134zm6.387 2.478v-1.232h7.504v1.232h-7.504zm12.337-2.31c-1.307 0-1.96-.6253-1.96-1.876v-4.214h-1.568v-1.232h1.568v-2.282l1.4-.672v2.954h2.408v1.232h-2.408v3.878c0 .3173.074.5553.224.714.149.1587.415.238.798.238.42 0 .84-.1213 1.26-.364l-.154 1.302c-.411.2147-.934.322-1.568.322zm6.764 0c-.774 0-1.404-.2053-1.89-.616-.485-.42-.728-1.0127-.728-1.778 0-.7747.271-1.3627.812-1.764.551-.40133 1.214-.602 1.988-.602.71 0 1.33.14 1.862.42v-.49c0-.96133-.485-1.442-1.456-1.442-.737 0-1.498.24733-2.282.742l-.42-1.148c.85-.54133 1.792-.812 2.828-.812 1.792 0 2.688.87267 2.688 2.618V38h-1.358v-.616c-.541.5227-1.222.784-2.044.784zm.224-1.232c.691 0 1.298-.28 1.82-.84v-1.078c-.494-.28-1.045-.42-1.652-.42-.476 0-.872.1027-1.19.308-.317.196-.476.4853-.476.868 0 .3547.131.6393.392.854.271.2053.64.308 1.106.308zm8.543 1.232c-.774 0-1.414-.252-1.918-.756V38h-1.4v-9.45l1.4-.658v3.556c.215-.224.495-.406.84-.546.355-.14933.71-.224 1.064-.224.906 0 1.638.336 2.198 1.008.56.66267.84 1.57267.84 2.73 0 1.1947-.27 2.1187-.812 2.772-.532.6533-1.269.98-2.212.98zm-.224-1.316c.607 0 1.06-.2147 1.358-.644.308-.4293.462-1.0267.462-1.792 0-1.61467-.606-2.422-1.82-2.422-.382 0-.723.084-1.022.252-.298.168-.522.364-.672.588v3.164c.392.5693.957.854 1.694.854zm8.515-.098h2.044V38h-5.502v-1.246h2.058v-7.63h-1.694l-.644-1.232h3.738v8.862zm10.419-2.66c0 .3547-.014.6487-.042.882h-4.928c.103.5973.318 1.0687.644 1.414.336.3453.77.518 1.302.518.626 0 1.167-.2147 1.624-.644l.826.896c-.672.672-1.493 1.008-2.464 1.008-1.036 0-1.852-.3453-2.45-1.036-.597-.7-.896-1.6053-.896-2.716 0-1.16667.299-2.08133.896-2.744.607-.66267 1.424-.994 2.45-.994.887 0 1.615.28933 2.184.868.57.57867.854 1.428.854 2.548zm-4.998-.336h3.612c-.028-.63467-.2-1.10133-.518-1.4-.317-.29867-.695-.448-1.134-.448-.578 0-1.031.16333-1.358.49-.326.31733-.527.77-.602 1.358zm9.327-1.918l-.658-.364c.532-.59733.831-1.26.896-1.988-.261-.04667-.471-.154-.63-.322-.158-.168-.238-.38733-.238-.658 0-.308.103-.55533.308-.742.206-.196.448-.294.728-.294.308 0 .565.112.77.336.206.224.308.54133.308.952 0 .63467-.154 1.23667-.462 1.806-.298.56-.639.98467-1.022 1.274z" fill="#6CDBDF"/>
  <rect width="150" height="35" rx="4" transform="translate(528 53)" fill="#00B9BF"/>
  <path d="M573.82896 63.4h2.916v10.224h6.31804V76h-9.23404V63.4zm19.26674 9.9h-5.85l-1.116 2.7h-2.988l5.616-12.6h2.88l5.634 12.6h-3.06l-1.116-2.7zm-.918-2.214l-1.998-4.824-1.998 4.824h3.996zm11.6758.45V76h-2.916v-4.5l-4.878-8.1h3.096l3.366 5.598 3.366-5.598h2.862l-4.896 8.136zm15.749 2.124V76h-9.756V63.4h9.522v2.34h-6.624v2.736h5.85v2.268h-5.85v2.916h6.858zM629.9507 76l-2.43-3.51h-2.682V76h-2.916V63.4h5.454c1.116 0 2.082.186 2.898.558.828.372 1.464.9 1.908 1.584.444.684.666 1.494.666 2.43 0 .936-.228 1.746-.684 2.43-.444.672-1.08 1.188-1.908 1.548l2.826 4.05h-3.132zm-.054-8.028c0-.708-.228-1.248-.684-1.62-.456-.384-1.122-.576-1.998-.576h-2.376v4.392h2.376c.876 0 1.542-.192 1.998-.576.456-.384.684-.924.684-1.62z" fill="#fff"/>
  <rect width="150" height="35" rx="4" transform="translate(528 153)" fill="#00B9BF"/>
  <path d="M552.8231 163.4h5.724c1.368 0 2.574.264 3.618.792 1.056.516 1.872 1.248 2.448 2.196.588.948.882 2.052.882 3.312 0 1.26-.294 2.364-.882 3.312-.576.948-1.392 1.686-2.448 2.214-1.044.516-2.25.774-3.618.774h-5.724v-12.6zm5.58 10.206c1.26 0 2.262-.348 3.006-1.044.756-.708 1.134-1.662 1.134-2.862 0-1.2-.378-2.148-1.134-2.844-.744-.708-1.746-1.062-3.006-1.062h-2.664v7.812h2.664zm17.4133-.306h-5.85l-1.116 2.7h-2.988l5.616-12.6h2.88l5.634 12.6h-3.06l-1.116-2.7zm-.918-2.214l-1.998-4.824-1.998 4.824h3.996zm8.3785-5.31h-4.032V163.4h10.98v2.376h-4.032V176h-2.916v-10.224zm16.1821 7.524h-5.85l-1.116 2.7h-2.988l5.616-12.6h2.88l5.634 12.6h-3.06l-1.116-2.7zm-.918-2.214l-1.998-4.824-1.998 4.824h3.996zm17.8297-7.686l-5.454 12.6h-2.88l-5.436-12.6h3.15l3.834 9 3.888-9h2.898zm1.052 0h2.916V176h-2.916v-12.6zm15.6623 10.26V176h-9.756v-12.6h9.522v2.34h-6.624v2.736h5.85v2.268h-5.85v2.916h6.858zm21.188-10.26l-4.1216 12.6h-3.132l-2.772-8.532-2.862 8.532h-3.114l-4.14-12.6h3.024l2.844 8.856 2.97-8.856h2.7l2.88 8.928 2.9336-8.928h2.79z" fill="#fff"/>
  <path stroke="#898989" stroke-width="2" d="M341 119h125M467 70v100"/>
  <path d="M516.7071 69.707107c.3905-.390525.3905-1.023689 0-1.414214l-6.364-6.363963c-.3905-.39052-1.0236-.39052-1.4142 0-.3905.39053-.3905 1.02369 0 1.41422L514.5858 69l-5.6569 5.65685c-.3905.39053-.3905 1.02369 0 1.41422.3906.39052 1.0237.39052 1.4142 0l6.364-6.363963zM466 70h50v-2h-50v2zM516.7071 170.707107c.3905-.390525.3905-1.023689 0-1.414214l-6.364-6.363963c-.3905-.39052-1.0236-.39052-1.4142 0-.3905.39053-.3905 1.02369 0 1.41422L514.5858 170l-5.6569 5.65685c-.3905.39053-.3905 1.02369 0 1.41422.3906.39052 1.0237.39052 1.4142 0l6.364-6.363963zM466 171h50v-2h-50v2z" fill="#898989"/>
  <path fill="#fff" d="M364 107h79v25h-79z"/>
  <path d="M371.814 116.616c.504-.784 1.39067-1.176 2.66-1.176v1.666c-.14933-.028-.28467-.042-.406-.042-.68133 0-1.21333.20067-1.596.602-.38267.392-.574.96133-.574 1.708V123h-1.75v-7.476h1.666v1.092zm11.1042 2.688c0 .1213-.0093.294-.028.518h-5.86601c.10266.5507.36866.9893.798 1.316.43866.3173.98.476 1.62401.476.8213 0 1.498-.2707 2.03-.812l.938 1.078c-.336.4013-.7607.7047-1.274.91-.5133.2053-1.092.308-1.736.308-.82135 0-1.54468-.1633-2.17001-.49-.62534-.3267-1.11067-.7793-1.456-1.358-.336-.588-.504-1.2507-.504-1.988 0-.728.16333-1.38133.49-1.96.336-.588.798-1.04533 1.386-1.372.588-.32667 1.25066-.49 1.98801-.49.728 0 1.3767.16333 1.946.49.5787.31733 1.0267.77 1.344 1.358.3267.57867.49 1.25067.49 2.016zm-3.78-2.464c-.56001 0-1.03601.168-1.42801.504-.38267.32667-.616.76533-.7 1.316h4.24201c-.0747-.54133-.3033-.98-.686-1.316-.3827-.336-.8587-.504-1.428-.504zm8.499-2.912c-.7374 0-1.106.40133-1.106 1.204v.448h2.058v1.4h-2.002V123h-1.75v-6.02h-1.232v-1.4h1.232v-.476c0-.80267.2333-1.43267.7-1.89.4666-.46667 1.1246-.7 1.974-.7.672 0 1.1993.13533 1.582.406l-.49 1.316c-.2987-.20533-.6207-.308-.966-.308zm4.917 2.688c.504-.784 1.3907-1.176 2.66-1.176v1.666c-.1493-.028-.2846-.042-.406-.042-.6813 0-1.2133.20067-1.596.602-.3826.392-.574.96133-.574 1.708V123h-1.75v-7.476h1.666v1.092zm11.1042 2.688c0 .1213-.0093.294-.028.518h-5.866c.1027.5507.3687.9893.798 1.316.4387.3173.98.476 1.624.476.8214 0 1.498-.2707 2.03-.812l.938 1.078c-.336.4013-.7606.7047-1.274.91-.5133.2053-1.092.308-1.736.308-.8213 0-1.5446-.1633-2.17-.49-.6253-.3267-1.1106-.7793-1.456-1.358-.336-.588-.504-1.2507-.504-1.988 0-.728.1634-1.38133.49-1.96.336-.588.798-1.04533 1.386-1.372.588-.32667 1.2507-.49 1.988-.49.728 0 1.3767.16333 1.946.49.5787.31733 1.0267.77 1.344 1.358.3267.57867.49 1.25067.49 2.016zm-3.78-2.464c-.56 0-1.036.168-1.428.504-.3826.32667-.616.76533-.7 1.316h4.242c-.0746-.54133-.3033-.98-.686-1.316-.3826-.336-.8586-.504-1.428-.504zm7.771 6.258c-.6067 0-1.1993-.0793-1.778-.238s-1.0407-.3593-1.386-.602l.672-1.33c.336.224.7373.406 1.204.546.476.1307.9427.196 1.4.196 1.0453 0 1.568-.2753 1.568-.826 0-.2613-.1353-.4433-.406-.546-.2613-.1027-.686-.2007-1.274-.294-.616-.0933-1.12-.2007-1.512-.322-.3827-.1213-.7187-.3313-1.008-.63-.28-.308-.42-.73267-.42-1.274 0-.70933.294-1.274.882-1.694.5973-.42933 1.4-.644 2.408-.644.5133 0 1.0267.06067 1.54.182.5133.112.9333.266 1.26.462l-.672 1.33c-.6347-.37333-1.3487-.56-2.142-.56-.5133 0-.9053.07933-1.176.238-.2613.14933-.392.35-.392.602 0 .28.14.48067.42.602.2893.112.7327.21933 1.33.322.5973.09333 1.0873.20067 1.47.322.3827.1213.7093.3267.98.616.28.2893.42.7.42 1.232 0 .7-.3033 1.26-.91 1.68-.6067.42-1.4327.63-2.478.63zm9.1371-7.658c.9427 0 1.6987.27533 2.268.826.5693.55067.854 1.36733.854 2.45V123h-1.75v-4.06c0-.65333-.154-1.14333-.462-1.47-.308-.336-.7467-.504-1.316-.504-.644 0-1.1527.196-1.526.588-.3733.38267-.56.938-.56 1.666V123h-1.75v-10.388h1.75v3.78c.2893-.308.644-.54133 1.064-.7.4293-.168.9053-.252 1.428-.252zm12.4383 3.864c0 .1213-.0093.294-.028.518h-5.866c.1027.5507.3687.9893.798 1.316.4387.3173.98.476 1.624.476.8214 0 1.498-.2707 2.03-.812l.938 1.078c-.336.4013-.7606.7047-1.274.91-.5133.2053-1.092.308-1.736.308-.8213 0-1.5446-.1633-2.17-.49-.6253-.3267-1.1106-.7793-1.456-1.358-.336-.588-.504-1.2507-.504-1.988 0-.728.1634-1.38133.49-1.96.336-.588.798-1.04533 1.386-1.372.588-.32667 1.2507-.49 1.988-.49.728 0 1.3767.16333 1.946.49.5787.31733 1.0267.77 1.344 1.358.3267.57867.49 1.25067.49 2.016zm-3.78-2.464c-.56 0-1.036.168-1.428.504-.3826.32667-.616.76533-.7 1.316h4.242c-.0746-.54133-.3033-.98-.686-1.316-.3826-.336-.8586-.504-1.428-.504zm7.771 6.258c-.6067 0-1.1993-.0793-1.778-.238s-1.0407-.3593-1.386-.602l.672-1.33c.336.224.7373.406 1.204.546.476.1307.9427.196 1.4.196 1.0453 0 1.568-.2753 1.568-.826 0-.2613-.1353-.4433-.406-.546-.2613-.1027-.686-.2007-1.274-.294-.616-.0933-1.12-.2007-1.512-.322-.3827-.1213-.7187-.3313-1.008-.63-.28-.308-.42-.73267-.42-1.274 0-.70933.294-1.274.882-1.694.5973-.42933 1.4-.644 2.408-.644.5133 0 1.0267.06067 1.54.182.5133.112.9333.266 1.26.462l-.672 1.33c-.6347-.37333-1.3487-.56-2.142-.56-.5133 0-.9053.07933-1.176.238-.2613.14933-.392.35-.392.602 0 .28.14.48067.42.602.2893.112.7327.21933 1.33.322.5973.09333 1.0873.20067 1.47.322.3827.1213.7093.3267.98.616.28.2893.42.7.42 1.232 0 .7-.3033 1.26-.91 1.68-.6067.42-1.4327.63-2.478.63z" fill="#898989"/>
  <path stroke="#898989" stroke-width="2" d="M25 70v52"/>
  <path d="M167.707 120.292893c.391.390525.391 1.023689 0 1.414214l-6.364 6.363963c-.39.39052-1.024.39052-1.414 0-.391-.39053-.391-1.02369 0-1.41422L165.586 121l-5.657-5.65685c-.391-.39053-.391-1.02369 0-1.41422.39-.39052 1.024-.39052 1.414 0l6.364 6.363963zM24 120h143v2H24v-2z" fill="#898989"/>
  <path fill="#fff" d="M64 108h70v25H64z"/>
  <path d="M78.386 117.524V125H76.72v-.952c-.28.336-.63.5973-1.05.784-.42.1773-.87267.266-1.358.266-.99867 0-1.78733-.2753-2.366-.826-.56933-.56-.854-1.386-.854-2.478v-4.27h1.75v4.032c0 .672.14933 1.176.448 1.512.308.3267.742.49 1.302.49.62533 0 1.12-.1913 1.484-.574.37333-.392.56-.952.56-1.68v-3.78h1.75zm6.4353-.084c.728 0 1.3767.15867 1.946.476.5787.31733 1.0313.76533 1.358 1.344.3267.57867.49 1.246.49 2.002 0 .756-.1633 1.428-.49 2.016-.3267.5787-.7793 1.0267-1.358 1.344-.5693.3173-1.218.476-1.946.476-1.008 0-1.806-.336-2.394-1.008v3.626h-1.75v-10.192h1.666v.98c.2893-.35467.644-.62067 1.064-.798.4293-.17733.9007-.266 1.414-.266zm-.196 6.16c.644 0 1.1713-.2147 1.582-.644.42-.4293.63-.994.63-1.694s-.21-1.26467-.63-1.694c-.4107-.42933-.938-.644-1.582-.644-.42 0-.798.098-1.134.294-.336.18667-.602.45733-.798.812-.196.35467-.294.76533-.294 1.232 0 .4667.098.8773.294 1.232.196.3547.462.63.798.826.336.1867.714.28 1.134.28zm12.9717-8.988V125h-1.68v-.966c-.2894.3547-.6487.6207-1.078.798-.42.1773-.8867.266-1.4.266-.7187 0-1.3674-.1587-1.946-.476-.5694-.3173-1.0174-.7653-1.344-1.344-.3267-.588-.49-1.26-.49-2.016s.1633-1.42333.49-2.002c.3266-.57867.7746-1.02667 1.344-1.344.5786-.31733 1.2273-.476 1.946-.476.4946 0 .9473.084 1.358.252.4106.168.7606.42 1.05.756v-3.836h1.75zm-3.948 8.988c.42 0 .798-.0933 1.134-.28.336-.196.602-.4713.798-.826.196-.3547.294-.7653.294-1.232 0-.46667-.098-.87733-.294-1.232-.196-.35467-.462-.62533-.798-.812-.336-.196-.714-.294-1.134-.294-.42 0-.798.098-1.134.294-.336.18667-.602.45733-.798.812-.196.35467-.294.76533-.294 1.232 0 .4667.098.8773.294 1.232.196.3547.462.63.798.826.336.1867.714.28 1.134.28zm9.0933-6.16c1.1013 0 1.9413.266 2.52.798.588.52267.882 1.316.882 2.38V125h-1.652v-.91c-.2147.3267-.5227.5787-.924.756-.392.168-.868.252-1.428.252-.56 0-1.05-.0933-1.47-.28-.42-.196-.7467-.462-.98-.798-.224-.3453-.336-.7327-.336-1.162 0-.672.2473-1.2087.742-1.61.504-.41067 1.2926-.616 2.366-.616h1.932v-.112c0-.52267-.1587-.924-.476-1.204-.308-.28-.77-.42-1.386-.42-.42 0-.8354.06533-1.246.196-.4014.13067-.742.31267-1.022.546l-.686-1.274c.392-.29867.8633-.52733 1.414-.686.5506-.15867 1.134-.238 1.75-.238zm-.238 6.384c.4386 0 .826-.098 1.162-.294.3453-.2053.588-.4947.728-.868v-.868h-1.806c-1.008 0-1.512.3313-1.512.994 0 .3173.126.5693.378.756.252.1867.602.28 1.05.28zm10.3799.77c-.2053.168-.4573.294-.756.378-.2893.084-.5973.126-.924.126-.8213 0-1.456-.2147-1.904-.644-.448-.4293-.672-1.0547-.672-1.876v-3.598h-1.232v-1.4h1.232v-1.708h1.75v1.708h2.002v1.4h-2.002v3.556c0 .364.0887.644.266.84.1773.1867.434.28.77.28.392 0 .7187-.1027.98-.308l.49 1.246zm8.2215-3.29c0 .1213-.0093.294-.028.518h-5.866c.1027.5507.3687.9893.798 1.316.4387.3173.98.476 1.624.476.8213 0 1.498-.2707 2.03-.812l.938 1.078c-.336.4013-.7607.7047-1.274.91-.5133.2053-1.092.308-1.736.308-.8213 0-1.5447-.1633-2.17-.49s-1.1107-.7793-1.456-1.358c-.336-.588-.504-1.2507-.504-1.988 0-.728.1633-1.38133.49-1.96.336-.588.798-1.04533 1.386-1.372.588-.32667 1.2507-.49 1.988-.49.728 0 1.3767.16333 1.946.49.5787.31733 1.0267.77 1.344 1.358.3267.57867.49 1.25067.49 2.016zm-3.78-2.464c-.56 0-1.036.168-1.428.504-.3827.32667-.616.76533-.7 1.316h4.242c-.0747-.54133-.3033-.98-.686-1.316-.3827-.336-.8587-.504-1.428-.504zm7.771 6.258c-.6067 0-1.1994-.0793-1.778-.238-.5787-.1587-1.0407-.3593-1.386-.602l.672-1.33c.336.224.7373.406 1.204.546.476.1307.9426.196 1.4.196 1.0453 0 1.568-.2753 1.568-.826 0-.2613-.1354-.4433-.406-.546-.2614-.1027-.686-.2007-1.274-.294-.616-.0933-1.12-.2007-1.512-.322-.3827-.1213-.7187-.3313-1.008-.63-.28-.308-.42-.73267-.42-1.274 0-.70933.294-1.274.882-1.694.5973-.42933 1.4-.644 2.408-.644.5133 0 1.0266.06067 1.54.182.5133.112.9333.266 1.26.462l-.672 1.33c-.6347-.37333-1.3487-.56-2.142-.56-.5134 0-.9054.07933-1.176.238-.2614.14933-.392.35-.392.602 0 .28.14.48067.42.602.2893.112.7326.21933 1.33.322.5973.09333 1.0873.20067 1.47.322.3826.1213.7093.3267.98.616.28.2893.42.7.42 1.232 0 .7-.3034 1.26-.91 1.68-.6067.42-1.4327.63-2.478.63z" fill="#898989"/>
  <rect width="150" height="35" rx="4" transform="translate(179 103)" fill="#00B9BF"/>
  <path d="M219.95138 127.216c-.996 0-1.962-.132-2.898-.396-.924-.276-1.668-.63-2.231997-1.062l.989997-2.196c.54.396 1.182.714 1.926.954s1.488.36 2.232.36c.828 0 1.44-.12 1.836-.36.396-.252.594-.582.594-.99 0-.3-.12-.546-.36-.738-.228-.204-.528-.366-.9-.486-.36-.12-.852-.252-1.476-.396-.96-.228-1.746-.456-2.358-.684-.612-.228-1.14-.594-1.584-1.098-.432-.504-.648-1.176-.648-2.016 0-.732.198-1.392.594-1.98.396-.6.99-1.074 1.782-1.422.804-.348 1.782-.522 2.934-.522.804 0 1.59.096 2.358.288.768.192 1.44002.468 2.01602.828l-.90002 2.214c-1.164-.66-2.328-.99-3.492-.99-.816 0-1.422.132-1.818.396-.384.264-.576.612-.576 1.044 0 .432.222.756.666.972.456.204 1.146.408 2.07.612.96.228 1.746.456 2.358.684.612.228 1.13402.588 1.56602 1.08.444.492.666 1.158.666 1.998 0 .72-.204 1.38-.612 1.98-.396.588-.99602 1.056-1.80002 1.404-.804.348-1.782.522-2.934.522zm13.44052 0c-1.308 0-2.49-.282-3.546-.846-1.044-.564-1.866-1.338-2.466-2.322-.588-.996-.882-2.112-.882-3.348 0-1.236.294-2.346.882-3.33.6-.996 1.422-1.776 2.466-2.34 1.056-.564 2.238-.846 3.546-.846 1.308 0 2.484.282 3.528.846 1.044.564 1.866 1.344 2.466 2.34.6.984.9 2.094.9 3.33 0 1.236-.3 2.352-.9 3.348-.6.984-1.422 1.758-2.466 2.322-1.044.564-2.22.846-3.528.846zm0-2.484c.744 0 1.416-.168 2.016-.504.6-.348 1.068-.828 1.404-1.44.348-.612.522-1.308.522-2.088s-.174-1.476-.522-2.088c-.336-.612-.804-1.086-1.404-1.422-.6-.348-1.272-.522-2.016-.522s-1.416.174-2.016.522c-.6.336-1.074.81-1.422 1.422-.336.612-.504 1.308-.504 2.088s.168 1.476.504 2.088c.348.612.822 1.092 1.422 1.44.6.336 1.272.504 2.016.504zm14.6835 2.484c-1.8 0-3.204-.498-4.212-1.494-.996-.996-1.494-2.418-1.494-4.266V114.4h2.916v6.948c0 2.256.936 3.384 2.808 3.384.912 0 1.608-.27 2.088-.81.48-.552.72-1.41.72-2.574V114.4h2.88v7.056c0 1.848-.504 3.27-1.512 4.266-.996.996-2.394 1.494-4.194 1.494zm16.6155-.216l-2.43-3.51h-2.682V127h-2.916v-12.6h5.454c1.116 0 2.082.186 2.898.558.828.372 1.464.9 1.908 1.584.444.684.666 1.494.666 2.43 0 .936-.228 1.746-.684 2.43-.444.672-1.08 1.188-1.908 1.548l2.826 4.05h-3.132zm-.054-8.028c0-.708-.228-1.248-.684-1.62-.456-.384-1.122-.576-1.998-.576h-2.376v4.392h2.376c.876 0 1.542-.192 1.998-.576.456-.384.684-.924.684-1.62zm11.2924 8.244c-1.284 0-2.448-.276-3.492-.828-1.032-.564-1.848-1.338-2.448-2.322-.588-.996-.882-2.118-.882-3.366 0-1.248.294-2.364.882-3.348.6-.996 1.416-1.77 2.448-2.322 1.044-.564 2.214-.846 3.51-.846 1.092 0 2.076.192 2.952.576.888.384 1.632.936 2.232 1.656l-1.872 1.728c-.852-.984-1.908-1.476-3.168-1.476-.78 0-1.476.174-2.088.522-.612.336-1.092.81-1.44 1.422-.336.612-.504 1.308-.504 2.088s.168 1.476.504 2.088c.348.612.828 1.092 1.44 1.44.612.336 1.308.504 2.088.504 1.26 0 2.316-.498 3.168-1.494l1.872 1.728c-.6.732-1.344 1.29-2.232 1.674-.888.384-1.878.576-2.97.576zm16.9271-2.556V127h-9.756v-12.6h9.522v2.34h-6.624v2.736h5.85v2.268h-5.85v2.916h6.858z" fill="#fff"/>
</svg>
