<svg width="492" height="512" viewBox="0 0 492 512" fill="none" xmlns="http://www.w3.org/2000/svg">
<rect width="492" height="512" fill="white"/>
<rect width="428" height="179" rx="4" transform="translate(32 33)" fill="#2E3C43"/>
<path d="M5.04 18.888C4.844 19.084 4.60133 19.182 4.312 19.182C4.02267 19.182 3.77533 19.084 3.57 18.888C3.374 18.6827 3.276 18.44 3.276 18.16C3.276 17.88 3.374 17.642 3.57 17.446C3.77533 17.2407 4.02267 17.138 4.312 17.138C4.60133 17.138 4.844 17.2407 5.04 17.446C5.24533 17.642 5.348 17.88 5.348 18.16C5.348 18.44 5.24533 18.6827 5.04 18.888ZM12.239 19.168C11.6696 19.168 11.1376 19.056 10.643 18.832C10.1576 18.5987 9.76095 18.286 9.45295 17.894L10.391 17.068C10.951 17.6653 11.5996 17.964 12.337 17.964C12.7103 17.964 13.0136 17.894 13.247 17.754C13.4896 17.6047 13.611 17.3947 13.611 17.124C13.611 16.7413 13.0836 16.3353 12.029 15.906C12.0103 15.8967 11.9963 15.892 11.987 15.892C11.9776 15.8827 11.9636 15.8733 11.945 15.864C11.9263 15.8547 11.9076 15.85 11.889 15.85C11.8796 15.8407 11.8656 15.8313 11.847 15.822C11.4456 15.654 11.1376 15.5187 10.923 15.416C10.7083 15.304 10.4796 15.1593 10.237 14.982C9.99429 14.8047 9.81695 14.604 9.70495 14.38C9.60229 14.156 9.55095 13.8947 9.55095 13.596C9.55095 13.008 9.79829 12.5413 10.293 12.196C10.797 11.8507 11.4316 11.678 12.197 11.678C13.261 11.678 14.1196 12.0513 14.773 12.798L13.849 13.568C13.3356 13.1107 12.7663 12.882 12.141 12.882C11.7583 12.882 11.4503 12.9473 11.217 13.078C10.9836 13.2087 10.867 13.386 10.867 13.61C10.867 13.9367 11.3803 14.3007 12.407 14.702C12.4443 14.7207 12.4723 14.7347 12.491 14.744C12.827 14.8747 13.0696 14.9727 13.219 15.038C13.3683 15.1033 13.5736 15.2107 13.835 15.36C14.1056 15.5093 14.3016 15.654 14.423 15.794C14.5536 15.934 14.6703 16.1207 14.773 16.354C14.8756 16.578 14.927 16.8253 14.927 17.096C14.927 17.74 14.6843 18.2487 14.199 18.622C13.7136 18.986 13.0603 19.168 12.239 19.168ZM23.3579 15.094C23.3579 15.4487 23.3439 15.7427 23.3159 15.976H18.3879C18.4906 16.5733 18.7052 17.0447 19.0319 17.39C19.3679 17.7353 19.8019 17.908 20.3339 17.908C20.9592 17.908 21.5006 17.6933 21.9579 17.264L22.7839 18.16C22.1119 18.832 21.2906 19.168 20.3199 19.168C19.2839 19.168 18.4672 18.8227 17.8699 18.132C17.2726 17.432 16.9739 16.5267 16.9739 15.416C16.9739 14.2493 17.2726 13.3347 17.8699 12.672C18.4766 12.0093 19.2932 11.678 20.3199 11.678C21.2066 11.678 21.9346 11.9673 22.5039 12.546C23.0732 13.1247 23.3579 13.974 23.3579 15.094ZM18.3599 14.758H21.9719C21.9439 14.1233 21.7712 13.6567 21.4539 13.358C21.1366 13.0593 20.7586 12.91 20.3199 12.91C19.7412 12.91 19.2886 13.0733 18.9619 13.4C18.6352 13.7173 18.4346 14.17 18.3599 14.758ZM28.7509 19.168C27.4442 19.168 26.7909 18.5427 26.7909 17.292V13.078H25.2229V11.846H26.7909V9.564L28.1909 8.892V11.846H30.5989V13.078H28.1909V16.956C28.1909 17.2733 28.2655 17.5113 28.4149 17.67C28.5642 17.8287 28.8302 17.908 29.2129 17.908C29.6329 17.908 30.0529 17.7867 30.4729 17.544L30.3189 18.846C29.9082 19.0607 29.3855 19.168 28.7509 19.168ZM36.2718 19.168C35.6091 19.168 35.0258 19.0233 34.5218 18.734C34.0271 18.4447 33.6351 18.0573 33.3458 17.572C33.0565 17.0773 32.8418 16.5407 32.7018 15.962C32.5618 15.374 32.4918 14.7533 32.4918 14.1C32.4918 13.456 32.5618 12.8447 32.7018 12.266C32.8511 11.678 33.0705 11.1413 33.3598 10.656C33.6585 10.1613 34.0551 9.76933 34.5498 9.48C35.0538 9.18133 35.6278 9.032 36.2718 9.032C37.0091 9.032 37.6111 9.214 38.0778 9.578C38.5538 9.93267 38.9085 10.3853 39.1418 10.936L37.8538 11.566C37.6485 11.1833 37.4245 10.894 37.1818 10.698C36.9485 10.4927 36.6451 10.39 36.2718 10.39C35.7398 10.39 35.2918 10.5907 34.9278 10.992C34.5731 11.384 34.3258 11.846 34.1858 12.378C34.0551 12.91 33.9898 13.484 33.9898 14.1C33.9898 15.108 34.1858 15.9807 34.5778 16.718C34.9698 17.446 35.5345 17.81 36.2718 17.81C36.9718 17.81 37.5178 17.39 37.9098 16.55L39.2118 17.054C38.6331 18.4633 37.6531 19.168 36.2718 19.168ZM46.4108 18.16C45.8041 18.832 44.9828 19.168 43.9468 19.168C42.9108 19.168 42.0848 18.8367 41.4688 18.174C40.8621 17.502 40.5588 16.5873 40.5588 15.43C40.5588 14.2727 40.8621 13.358 41.4688 12.686C42.0848 12.014 42.9108 11.678 43.9468 11.678C44.9828 11.678 45.8041 12.014 46.4108 12.686C47.0268 13.358 47.3348 14.268 47.3348 15.416C47.3348 16.5733 47.0268 17.488 46.4108 18.16ZM42.4908 17.208C42.8361 17.6373 43.3214 17.852 43.9468 17.852C44.5721 17.852 45.0574 17.6327 45.4028 17.194C45.7481 16.7553 45.9208 16.1627 45.9208 15.416C45.9208 14.6693 45.7481 14.0813 45.4028 13.652C45.0668 13.2133 44.5814 12.994 43.9468 12.994C43.3121 12.994 42.8268 13.2087 42.4908 13.638C42.1548 14.058 41.9868 14.6553 41.9868 15.43C41.9868 16.1767 42.1548 16.7693 42.4908 17.208ZM52.2517 11.678C54.0157 11.678 54.8977 12.7047 54.8977 14.758V19H53.4977V14.856C53.4977 13.6147 52.9751 12.994 51.9297 12.994C50.8191 12.994 50.2637 13.6053 50.2637 14.828V19H48.8637V11.846H50.1657V12.714C50.3431 12.406 50.6184 12.1587 50.9917 11.972C51.3651 11.776 51.7851 11.678 52.2517 11.678ZM60.4587 19.168C59.152 19.168 58.4987 18.5427 58.4987 17.292V13.078H56.9307V11.846H58.4987V9.564L59.8987 8.892V11.846H62.3067V13.078H59.8987V16.956C59.8987 17.2733 59.9733 17.5113 60.1227 17.67C60.272 17.8287 60.538 17.908 60.9207 17.908C61.3407 17.908 61.7607 17.7867 62.1807 17.544L62.0267 18.846C61.616 19.0607 61.0933 19.168 60.4587 19.168ZM70.9196 15.094C70.9196 15.4487 70.9056 15.7427 70.8776 15.976H65.9496C66.0523 16.5733 66.267 17.0447 66.5936 17.39C66.9296 17.7353 67.3636 17.908 67.8956 17.908C68.521 17.908 69.0623 17.6933 69.5196 17.264L70.3456 18.16C69.6736 18.832 68.8523 19.168 67.8816 19.168C66.8456 19.168 66.029 18.8227 65.4316 18.132C64.8343 17.432 64.5356 16.5267 64.5356 15.416C64.5356 14.2493 64.8343 13.3347 65.4316 12.672C66.0383 12.0093 66.855 11.678 67.8816 11.678C68.7683 11.678 69.4963 11.9673 70.0656 12.546C70.635 13.1247 70.9196 13.974 70.9196 15.094ZM65.9216 14.758H69.5336C69.5056 14.1233 69.333 13.6567 69.0156 13.358C68.6983 13.0593 68.3203 12.91 67.8816 12.91C67.303 12.91 66.8503 13.0733 66.5236 13.4C66.197 13.7173 65.9963 14.17 65.9216 14.758ZM76.0326 11.678C77.7966 11.678 78.6786 12.7047 78.6786 14.758V19H77.2786V14.856C77.2786 13.6147 76.7559 12.994 75.7106 12.994C74.5999 12.994 74.0446 13.6053 74.0446 14.828V19H72.6446V11.846H73.9466V12.714C74.1239 12.406 74.3992 12.1587 74.7726 11.972C75.1459 11.776 75.5659 11.678 76.0326 11.678ZM84.2395 19.168C82.9329 19.168 82.2795 18.5427 82.2795 17.292V13.078H80.7115V11.846H82.2795V9.564L83.6795 8.892V11.846H86.0875V13.078H83.6795V16.956C83.6795 17.2733 83.7542 17.5113 83.9035 17.67C84.0529 17.8287 84.3189 17.908 84.7015 17.908C85.1215 17.908 85.5415 17.7867 85.9615 17.544L85.8075 18.846C85.3969 19.0607 84.8742 19.168 84.2395 19.168Z" transform="translate(47 45)" fill="white"/>
<path d="M92.4465 20.82C90.7478 19.3267 89.8985 17.3947 89.8985 15.024C89.8985 13.7173 90.1552 12.5507 90.6685 11.524C91.1912 10.4973 91.8352 9.66667 92.6005 9.032H93.9725C93.7392 9.228 93.4825 9.49867 93.2025 9.844C92.9318 10.18 92.6425 10.6047 92.3345 11.118C92.0358 11.622 91.7885 12.224 91.5925 12.924C91.3965 13.6147 91.2985 14.3147 91.2985 15.024C91.2985 15.7427 91.3918 16.438 91.5785 17.11C91.7652 17.7727 92.0078 18.3513 92.3065 18.846C92.6145 19.3407 92.8852 19.7373 93.1185 20.036C93.3518 20.3347 93.5852 20.596 93.8185 20.82H92.4465ZM9.94295 148.82C10.1763 148.596 10.405 148.335 10.629 148.036C10.8623 147.747 11.133 147.355 11.441 146.86C11.749 146.356 11.9963 145.773 12.183 145.11C12.3696 144.438 12.463 143.743 12.463 143.024C12.463 142.315 12.3603 141.615 12.155 140.924C11.959 140.224 11.707 139.622 11.399 139.118C11.1003 138.605 10.8156 138.18 10.545 137.844C10.2743 137.508 10.0223 137.237 9.78895 137.032H11.161C11.9263 137.667 12.5656 138.497 13.079 139.524C13.6016 140.551 13.863 141.717 13.863 143.024C13.863 145.395 13.0136 147.327 11.315 148.82H9.94295Z" transform="translate(47 45)" fill="#4DF4FF"/>
<path d="M99.7014 10.936L97.2094 8.752H99.0994L101.087 10.936H99.7014ZM17.2119 40L17.6179 37.34H16.0079L16.2039 36.108H17.7999L18.1359 33.882H16.5819L16.7639 32.664H18.3179L18.6959 30.2H19.9699L19.5919 32.664H21.4399L21.8179 30.2H23.0919L22.7139 32.664H24.3239L24.1419 33.882H22.5319L22.1819 36.108H23.7499L23.5539 37.34H21.9999L21.5939 40H20.3199L20.7259 37.34H18.8919L18.4859 40H17.2119ZM19.0739 36.108H20.9079L21.2579 33.882H19.4099L19.0739 36.108ZM28.7929 38.754H30.8369V40H25.3349V38.754H27.3929V31.124H25.6989L25.0549 29.892H28.7929V38.754ZM35.5158 40.168C34.7411 40.168 34.1111 39.9627 33.6258 39.552C33.1405 39.132 32.8978 38.5393 32.8978 37.774C32.8978 36.9993 33.1685 36.4113 33.7098 36.01C34.2605 35.6087 34.9231 35.408 35.6978 35.408C36.4071 35.408 37.0278 35.548 37.5598 35.828V35.338C37.5598 34.3767 37.0745 33.896 36.1038 33.896C35.3665 33.896 34.6058 34.1433 33.8218 34.638L33.4018 33.49C34.2511 32.9487 35.1938 32.678 36.2298 32.678C38.0218 32.678 38.9178 33.5507 38.9178 35.296V40H37.5598V39.384C37.0185 39.9067 36.3371 40.168 35.5158 40.168ZM35.7398 38.936C36.4305 38.936 37.0371 38.656 37.5598 38.096V37.018C37.0651 36.738 36.5145 36.598 35.9078 36.598C35.4318 36.598 35.0351 36.7007 34.7178 36.906C34.4005 37.102 34.2418 37.3913 34.2418 37.774C34.2418 38.1287 34.3725 38.4133 34.6338 38.628C34.9045 38.8333 35.2731 38.936 35.7398 38.936ZM42.1548 42.716L43.2328 39.832L40.5868 32.846H42.0148L43.6948 37.452C43.7601 37.6387 43.8348 37.8673 43.9188 38.138C43.9654 37.9793 44.0448 37.7507 44.1568 37.452L45.8508 32.846H47.3068L43.5828 42.716H42.1548ZM55.0657 36.094C55.0657 36.4487 55.0517 36.7427 55.0237 36.976H50.0957C50.1984 37.5733 50.4131 38.0447 50.7397 38.39C51.0757 38.7353 51.5097 38.908 52.0417 38.908C52.6671 38.908 53.2084 38.6933 53.6657 38.264L54.4917 39.16C53.8197 39.832 52.9984 40.168 52.0277 40.168C50.9917 40.168 50.1751 39.8227 49.5777 39.132C48.9804 38.432 48.6817 37.5267 48.6817 36.416C48.6817 35.2493 48.9804 34.3347 49.5777 33.672C50.1844 33.0093 51.0011 32.678 52.0277 32.678C52.9144 32.678 53.6424 32.9673 54.2117 33.546C54.7811 34.1247 55.0657 34.974 55.0657 36.094ZM50.0677 35.758H53.6797C53.6517 35.1233 53.4791 34.6567 53.1617 34.358C52.8444 34.0593 52.4664 33.91 52.0277 33.91C51.4491 33.91 50.9964 34.0733 50.6697 34.4C50.3431 34.7173 50.1424 35.17 50.0677 35.758ZM61.6067 32.678C62.2693 32.678 62.8107 32.7993 63.2307 33.042V35.604H61.8587V34.022C61.7933 34.0127 61.6953 34.008 61.5647 34.008C60.846 34.008 60.258 34.1853 59.8007 34.54C59.3527 34.8947 59.1287 35.4033 59.1287 36.066V38.754H61.1727V40H56.2027V38.754H57.7007V34.078H56.2027V32.846H59.0307V34.022C59.2547 33.6113 59.6047 33.2847 60.0807 33.042C60.566 32.7993 61.0747 32.678 61.6067 32.678ZM77.4746 41.82C76.5692 41.8013 75.8552 41.5167 75.3326 40.966C74.8099 40.4153 74.5486 39.6127 74.5486 38.558V37.746C74.5486 37.382 74.4739 37.088 74.3246 36.864C74.1846 36.64 73.9886 36.528 73.7366 36.528H73.4146V35.31H73.7366C73.9886 35.31 74.1846 35.198 74.3246 34.974C74.4739 34.75 74.5486 34.456 74.5486 34.092V33.294C74.5486 32.2393 74.8099 31.4367 75.3326 30.886C75.8552 30.3353 76.5692 30.0507 77.4746 30.032H77.9086V31.278H77.4746C76.4666 31.306 75.9626 31.894 75.9626 33.042V33.938C75.9626 34.582 75.8552 35.0487 75.6406 35.338C75.4352 35.6273 75.1272 35.814 74.7166 35.898V35.954C75.1366 36.0287 75.4492 36.2107 75.6546 36.5C75.8599 36.7893 75.9626 37.2607 75.9626 37.914V38.81C75.9626 39.9673 76.4666 40.56 77.4746 40.588H77.9086V41.82H77.4746ZM37.9238 54.678C38.5211 54.678 38.9598 54.8787 39.2398 55.28C39.5291 55.6813 39.6738 56.344 39.6738 57.268V62H38.3578V57.632C38.3578 57.0533 38.3065 56.638 38.2038 56.386C38.1011 56.134 37.9051 56.008 37.6158 56.008C37.3171 56.008 37.0885 56.1573 36.9298 56.456C36.7805 56.7547 36.7058 57.1607 36.7058 57.674V62H35.3898V57.534C35.3898 56.5167 35.1425 56.008 34.6478 56.008C34.3491 56.008 34.1111 56.162 33.9338 56.47C33.7658 56.7687 33.6818 57.17 33.6818 57.674V62H32.3658V54.846H33.5978V55.784C33.8685 55.0467 34.3351 54.678 34.9978 54.678C35.3338 54.678 35.6185 54.7853 35.8518 55C36.0851 55.2053 36.2485 55.4527 36.3418 55.742C36.7338 55.0327 37.2611 54.678 37.9238 54.678ZM43.4428 62.168C42.6681 62.168 42.0381 61.9627 41.5528 61.552C41.0674 61.132 40.8248 60.5393 40.8248 59.774C40.8248 58.9993 41.0954 58.4113 41.6368 58.01C42.1874 57.6087 42.8501 57.408 43.6248 57.408C44.3341 57.408 44.9548 57.548 45.4868 57.828V57.338C45.4868 56.3767 45.0014 55.896 44.0308 55.896C43.2934 55.896 42.5328 56.1433 41.7488 56.638L41.3288 55.49C42.1781 54.9487 43.1208 54.678 44.1568 54.678C45.9488 54.678 46.8448 55.5507 46.8448 57.296V62H45.4868V61.384C44.9454 61.9067 44.2641 62.168 43.4428 62.168ZM43.6668 60.936C44.3574 60.936 44.9641 60.656 45.4868 60.096V59.018C44.9921 58.738 44.4414 58.598 43.8348 58.598C43.3588 58.598 42.9621 58.7007 42.6448 58.906C42.3274 59.102 42.1688 59.3913 42.1688 59.774C42.1688 60.1287 42.2994 60.4133 42.5608 60.628C42.8314 60.8333 43.2001 60.936 43.6668 60.936ZM53.6797 54.678C54.3424 54.678 54.8837 54.7993 55.3037 55.042V57.604H53.9317V56.022C53.8664 56.0127 53.7684 56.008 53.6377 56.008C52.9191 56.008 52.3311 56.1853 51.8737 56.54C51.4257 56.8947 51.2017 57.4033 51.2017 58.066V60.754H53.2457V62H48.2757V60.754H49.7737V56.078H48.2757V54.846H51.1037V56.022C51.3277 55.6113 51.6777 55.2847 52.1537 55.042C52.6391 54.7993 53.1477 54.678 53.6797 54.678ZM61.5227 62L59.4087 57.856L58.2187 59.032V62H56.8187V52.55L58.2187 51.892V57.45L60.7807 54.846H62.4327L60.4167 56.848L63.0627 62H61.5227ZM70.9196 58.094C70.9196 58.4487 70.9056 58.7427 70.8776 58.976H65.9496C66.0523 59.5733 66.267 60.0447 66.5936 60.39C66.9296 60.7353 67.3636 60.908 67.8956 60.908C68.521 60.908 69.0623 60.6933 69.5196 60.264L70.3456 61.16C69.6736 61.832 68.8523 62.168 67.8816 62.168C66.8456 62.168 66.029 61.8227 65.4316 61.132C64.8343 60.432 64.5356 59.5267 64.5356 58.416C64.5356 57.2493 64.8343 56.3347 65.4316 55.672C66.0383 55.0093 66.855 54.678 67.8816 54.678C68.7683 54.678 69.4963 54.9673 70.0656 55.546C70.635 56.1247 70.9196 56.974 70.9196 58.094ZM65.9216 57.758H69.5336C69.5056 57.1233 69.333 56.6567 69.0156 56.358C68.6983 56.0593 68.3203 55.91 67.8816 55.91C67.303 55.91 66.8503 56.0733 66.5236 56.4C66.197 56.7173 65.9963 57.17 65.9216 57.758ZM77.4606 54.678C78.1232 54.678 78.6646 54.7993 79.0846 55.042V57.604H77.7126V56.022C77.6472 56.0127 77.5492 56.008 77.4186 56.008C76.6999 56.008 76.1119 56.1853 75.6546 56.54C75.2066 56.8947 74.9826 57.4033 74.9826 58.066V60.754H77.0266V62H72.0566V60.754H73.5546V56.078H72.0566V54.846H74.8846V56.022C75.1086 55.6113 75.4586 55.2847 75.9346 55.042C76.4199 54.7993 76.9286 54.678 77.4606 54.678ZM80.2915 58.514V57.17H86.8715V58.514H80.2915ZM89.2965 62L87.4765 54.846H88.7925L89.7725 59.004C89.8285 59.228 89.8705 59.4427 89.8985 59.648C89.9638 59.3027 90.0058 59.0833 90.0245 58.99L90.9625 54.846H92.0545L93.0065 58.99C93.0252 59.0647 93.0672 59.298 93.1325 59.69C93.1698 59.4473 93.2165 59.214 93.2725 58.99L94.2245 54.846H95.5405L93.7205 62H92.6005L91.6765 57.982C91.5738 57.45 91.5178 57.1653 91.5085 57.128C91.4898 57.2307 91.4572 57.38 91.4105 57.576C91.3638 57.772 91.3358 57.9027 91.3265 57.968L90.4305 62H89.2965ZM100.149 53.446C99.9908 53.6047 99.7901 53.684 99.5474 53.684C99.3048 53.684 99.0994 53.6 98.9314 53.432C98.7728 53.264 98.6934 53.0633 98.6934 52.83C98.6934 52.5967 98.7728 52.396 98.9314 52.228C99.0994 52.06 99.3048 51.976 99.5474 51.976C99.7901 51.976 99.9908 52.06 100.149 52.228C100.317 52.3867 100.401 52.5873 100.401 52.83C100.401 53.0727 100.317 53.278 100.149 53.446ZM100.247 60.754H102.221V62H96.8734V60.754H98.8474V56.078H96.8734V54.846H100.247V60.754ZM107.124 62.168C106.163 62.168 105.402 61.8367 104.842 61.174C104.292 60.5113 104.016 59.592 104.016 58.416C104.016 57.2587 104.296 56.3487 104.856 55.686C105.426 55.014 106.172 54.678 107.096 54.678C107.88 54.678 108.496 54.902 108.944 55.35V52.55L110.344 51.892V62H108.944V61.426C108.524 61.9207 107.918 62.168 107.124 62.168ZM107.306 60.852C108.062 60.852 108.608 60.5673 108.944 59.998V56.806C108.599 56.2647 108.048 55.994 107.292 55.994C106.695 55.994 106.233 56.204 105.906 56.624C105.589 57.0347 105.43 57.632 105.43 58.416C105.43 59.1347 105.598 59.7227 105.934 60.18C106.27 60.628 106.728 60.852 107.306 60.852ZM115.947 62.168C114.641 62.168 113.987 61.5427 113.987 60.292V56.078H112.419V54.846H113.987V52.564L115.387 51.892V54.846H117.795V56.078H115.387V59.956C115.387 60.2733 115.462 60.5113 115.611 60.67C115.761 60.8287 116.027 60.908 116.409 60.908C116.829 60.908 117.249 60.7867 117.669 60.544L117.515 61.846C117.105 62.0607 116.582 62.168 115.947 62.168ZM120.206 62V52.536L121.606 51.892V55.574C122.064 54.9767 122.726 54.678 123.594 54.678C125.358 54.678 126.24 55.7047 126.24 57.758V62H124.84V57.856C124.84 57.2027 124.696 56.7313 124.406 56.442C124.117 56.1433 123.739 55.994 123.272 55.994C122.162 55.994 121.606 56.6053 121.606 57.828V62H120.206ZM131.871 56.96C131.675 57.156 131.433 57.254 131.143 57.254C130.854 57.254 130.607 57.156 130.401 56.96C130.205 56.7547 130.107 56.512 130.107 56.232C130.107 55.952 130.205 55.714 130.401 55.518C130.607 55.3127 130.854 55.21 131.143 55.21C131.433 55.21 131.675 55.3127 131.871 55.518C132.077 55.714 132.179 55.952 132.179 56.232C132.179 56.512 132.077 56.7547 131.871 56.96ZM131.871 61.888C131.675 62.084 131.433 62.182 131.143 62.182C130.854 62.182 130.607 62.084 130.401 61.888C130.205 61.6827 130.107 61.44 130.107 61.16C130.107 60.88 130.205 60.642 130.401 60.446C130.607 60.2407 130.854 60.138 131.143 60.138C131.433 60.138 131.675 60.2407 131.871 60.446C132.077 60.642 132.179 60.88 132.179 61.16C132.179 61.44 132.077 61.6827 131.871 61.888ZM147.739 60.614H150.133V62H143.861V60.614H146.297V54.048L144.155 54.706V53.334L147.739 52.172V60.614ZM154.924 62.168C154.28 62.168 153.72 62.0233 153.244 61.734C152.777 61.4353 152.418 61.034 152.166 60.53C151.914 60.026 151.727 59.494 151.606 58.934C151.494 58.3647 151.438 57.7533 151.438 57.1C151.438 56.6147 151.466 56.1527 151.522 55.714C151.587 55.266 151.699 54.8133 151.858 54.356C152.026 53.8987 152.236 53.502 152.488 53.166C152.749 52.83 153.085 52.5593 153.496 52.354C153.916 52.1393 154.392 52.032 154.924 52.032C155.568 52.032 156.123 52.1813 156.59 52.48C157.066 52.7693 157.43 53.166 157.682 53.67C157.934 54.174 158.116 54.7107 158.228 55.28C158.349 55.84 158.41 56.4467 158.41 57.1C158.41 57.5853 158.377 58.052 158.312 58.5C158.256 58.9387 158.144 59.3867 157.976 59.844C157.808 60.3013 157.598 60.698 157.346 61.034C157.094 61.37 156.758 61.6453 156.338 61.86C155.927 62.0653 155.456 62.168 154.924 62.168ZM154.924 60.824C155.316 60.824 155.652 60.7167 155.932 60.502C156.212 60.278 156.417 59.9747 156.548 59.592C156.688 59.2093 156.786 58.8173 156.842 58.416C156.907 58.0147 156.94 57.576 156.94 57.1C156.94 56.6053 156.907 56.1527 156.842 55.742C156.777 55.322 156.674 54.9253 156.534 54.552C156.394 54.1787 156.184 53.8893 155.904 53.684C155.633 53.4693 155.307 53.362 154.924 53.362C154.532 53.362 154.196 53.474 153.916 53.698C153.636 53.922 153.426 54.2253 153.286 54.608C153.146 54.9813 153.043 55.3733 152.978 55.784C152.922 56.1947 152.894 56.6333 152.894 57.1C152.894 57.7813 152.945 58.3833 153.048 58.906C153.16 59.4287 153.375 59.8813 153.692 60.264C154.009 60.6373 154.42 60.824 154.924 60.824ZM155.596 57.772C155.419 57.9587 155.195 58.052 154.924 58.052C154.653 58.052 154.425 57.9587 154.238 57.772C154.061 57.5853 153.972 57.3613 153.972 57.1C153.972 56.8387 154.061 56.6147 154.238 56.428C154.425 56.2413 154.653 56.148 154.924 56.148C155.195 56.148 155.419 56.2413 155.596 56.428C155.783 56.6147 155.876 56.8387 155.876 57.1C155.876 57.3613 155.783 57.5853 155.596 57.772ZM163.579 56.96C163.383 57.156 163.14 57.254 162.851 57.254C162.562 57.254 162.314 57.156 162.109 56.96C161.913 56.7547 161.815 56.512 161.815 56.232C161.815 55.952 161.913 55.714 162.109 55.518C162.314 55.3127 162.562 55.21 162.851 55.21C163.14 55.21 163.383 55.3127 163.579 55.518C163.784 55.714 163.887 55.952 163.887 56.232C163.887 56.512 163.784 56.7547 163.579 56.96ZM162.445 64.534L161.787 64.184C162.319 63.568 162.618 62.9053 162.683 62.196C162.422 62.1493 162.212 62.042 162.053 61.874C161.894 61.6967 161.815 61.4727 161.815 61.202C161.815 60.894 161.918 60.6467 162.123 60.46C162.328 60.264 162.571 60.166 162.851 60.166C163.159 60.166 163.416 60.278 163.621 60.502C163.826 60.726 163.929 61.0433 163.929 61.454C163.929 62.098 163.775 62.7 163.467 63.26C163.168 63.8293 162.828 64.254 162.445 64.534ZM37.9238 75.678C38.5211 75.678 38.9598 75.8787 39.2398 76.28C39.5291 76.6813 39.6738 77.344 39.6738 78.268V83H38.3578V78.632C38.3578 78.0533 38.3065 77.638 38.2038 77.386C38.1011 77.134 37.9051 77.008 37.6158 77.008C37.3171 77.008 37.0885 77.1573 36.9298 77.456C36.7805 77.7547 36.7058 78.1607 36.7058 78.674V83H35.3898V78.534C35.3898 77.5167 35.1425 77.008 34.6478 77.008C34.3491 77.008 34.1111 77.162 33.9338 77.47C33.7658 77.7687 33.6818 78.17 33.6818 78.674V83H32.3658V75.846H33.5978V76.784C33.8685 76.0467 34.3351 75.678 34.9978 75.678C35.3338 75.678 35.6185 75.7853 35.8518 76C36.0851 76.2053 36.2485 76.4527 36.3418 76.742C36.7338 76.0327 37.2611 75.678 37.9238 75.678ZM43.4428 83.168C42.6681 83.168 42.0381 82.9627 41.5528 82.552C41.0674 82.132 40.8248 81.5393 40.8248 80.774C40.8248 79.9993 41.0954 79.4113 41.6368 79.01C42.1874 78.6087 42.8501 78.408 43.6248 78.408C44.3341 78.408 44.9548 78.548 45.4868 78.828V78.338C45.4868 77.3767 45.0014 76.896 44.0308 76.896C43.2934 76.896 42.5328 77.1433 41.7488 77.638L41.3288 76.49C42.1781 75.9487 43.1208 75.678 44.1568 75.678C45.9488 75.678 46.8448 76.5507 46.8448 78.296V83H45.4868V82.384C44.9454 82.9067 44.2641 83.168 43.4428 83.168ZM43.6668 81.936C44.3574 81.936 44.9641 81.656 45.4868 81.096V80.018C44.9921 79.738 44.4414 79.598 43.8348 79.598C43.3588 79.598 42.9621 79.7007 42.6448 79.906C42.3274 80.102 42.1688 80.3913 42.1688 80.774C42.1688 81.1287 42.2994 81.4133 42.5608 81.628C42.8314 81.8333 43.2001 81.936 43.6668 81.936ZM53.6797 75.678C54.3424 75.678 54.8837 75.7993 55.3037 76.042V78.604H53.9317V77.022C53.8664 77.0127 53.7684 77.008 53.6377 77.008C52.9191 77.008 52.3311 77.1853 51.8737 77.54C51.4257 77.8947 51.2017 78.4033 51.2017 79.066V81.754H53.2457V83H48.2757V81.754H49.7737V77.078H48.2757V75.846H51.1037V77.022C51.3277 76.6113 51.6777 76.2847 52.1537 76.042C52.6391 75.7993 53.1477 75.678 53.6797 75.678ZM61.5227 83L59.4087 78.856L58.2187 80.032V83H56.8187V73.55L58.2187 72.892V78.45L60.7807 75.846H62.4327L60.4167 77.848L63.0627 83H61.5227ZM70.9196 79.094C70.9196 79.4487 70.9056 79.7427 70.8776 79.976H65.9496C66.0523 80.5733 66.267 81.0447 66.5936 81.39C66.9296 81.7353 67.3636 81.908 67.8956 81.908C68.521 81.908 69.0623 81.6933 69.5196 81.264L70.3456 82.16C69.6736 82.832 68.8523 83.168 67.8816 83.168C66.8456 83.168 66.029 82.8227 65.4316 82.132C64.8343 81.432 64.5356 80.5267 64.5356 79.416C64.5356 78.2493 64.8343 77.3347 65.4316 76.672C66.0383 76.0093 66.855 75.678 67.8816 75.678C68.7683 75.678 69.4963 75.9673 70.0656 76.546C70.635 77.1247 70.9196 77.974 70.9196 79.094ZM65.9216 78.758H69.5336C69.5056 78.1233 69.333 77.6567 69.0156 77.358C68.6983 77.0593 68.3203 76.91 67.8816 76.91C67.303 76.91 66.8503 77.0733 66.5236 77.4C66.197 77.7173 65.9963 78.17 65.9216 78.758ZM77.4606 75.678C78.1232 75.678 78.6646 75.7993 79.0846 76.042V78.604H77.7126V77.022C77.6472 77.0127 77.5492 77.008 77.4186 77.008C76.6999 77.008 76.1119 77.1853 75.6546 77.54C75.2066 77.8947 74.9826 78.4033 74.9826 79.066V81.754H77.0266V83H72.0566V81.754H73.5546V77.078H72.0566V75.846H74.8846V77.022C75.1086 76.6113 75.4586 76.2847 75.9346 76.042C76.4199 75.7993 76.9286 75.678 77.4606 75.678ZM80.2915 79.514V78.17H86.8715V79.514H80.2915ZM93.0205 74.278C92.2552 74.278 91.8725 74.5487 91.8725 75.09V75.846H94.1265V77.078H91.8725V81.754H93.7765V83H88.9605V81.754H90.4725V77.078H88.9605V75.846H90.4725V74.824C90.4725 74.4787 90.5378 74.1847 90.6685 73.942C90.7992 73.6993 90.9812 73.5173 91.2145 73.396C91.4478 73.2653 91.6905 73.172 91.9425 73.116C92.1945 73.06 92.4652 73.032 92.7545 73.032C93.3612 73.032 93.9025 73.144 94.3785 73.368V74.558C93.9492 74.3713 93.4965 74.278 93.0205 74.278ZM100.149 74.446C99.9908 74.6047 99.7901 74.684 99.5474 74.684C99.3048 74.684 99.0994 74.6 98.9314 74.432C98.7728 74.264 98.6934 74.0633 98.6934 73.83C98.6934 73.5967 98.7728 73.396 98.9314 73.228C99.0994 73.06 99.3048 72.976 99.5474 72.976C99.7901 72.976 99.9908 73.06 100.149 73.228C100.317 73.3867 100.401 73.5873 100.401 73.83C100.401 74.0727 100.317 74.278 100.149 74.446ZM100.247 81.754H102.221V83H96.8734V81.754H98.8474V77.078H96.8734V75.846H100.247V81.754ZM108.062 81.754H110.106V83H104.604V81.754H106.662V74.124H104.968L104.324 72.892H108.062V81.754ZM115.989 81.754H118.033V83H112.531V81.754H114.589V74.124H112.895L112.251 72.892H115.989V81.754ZM123.944 77.96C123.748 78.156 123.506 78.254 123.216 78.254C122.927 78.254 122.68 78.156 122.474 77.96C122.278 77.7547 122.18 77.512 122.18 77.232C122.18 76.952 122.278 76.714 122.474 76.518C122.68 76.3127 122.927 76.21 123.216 76.21C123.506 76.21 123.748 76.3127 123.944 76.518C124.15 76.714 124.252 76.952 124.252 77.232C124.252 77.512 124.15 77.7547 123.944 77.96ZM123.944 82.888C123.748 83.084 123.506 83.182 123.216 83.182C122.927 83.182 122.68 83.084 122.474 82.888C122.278 82.6827 122.18 82.44 122.18 82.16C122.18 81.88 122.278 81.642 122.474 81.446C122.68 81.2407 122.927 81.138 123.216 81.138C123.506 81.138 123.748 81.2407 123.944 81.446C124.15 81.642 124.252 81.88 124.252 82.16C124.252 82.44 124.15 82.6827 123.944 82.888ZM136.116 83L136.522 80.34H134.912L135.108 79.108H136.704L137.04 76.882H135.486L135.668 75.664H137.222L137.6 73.2H138.874L138.496 75.664H140.344L140.722 73.2H141.996L141.618 75.664H143.228L143.046 76.882H141.436L141.086 79.108H142.654L142.458 80.34H140.904L140.498 83H139.224L139.63 80.34H137.796L137.39 83H136.116ZM137.978 79.108H139.812L140.162 76.882H138.314L137.978 79.108ZM143.889 83V73.2H150.273V74.558H145.331V77.26H148.859V78.618H145.331V83H143.889ZM151.816 83V73.2H158.2V74.558H153.258V77.26H156.786V78.618H153.258V83H151.816ZM162.571 83.168C161.908 83.168 161.32 83.0607 160.807 82.846C160.303 82.6313 159.906 82.3747 159.617 82.076L160.415 80.97C161.078 81.5393 161.792 81.824 162.557 81.824C163.164 81.824 163.658 81.6373 164.041 81.264C164.433 80.8813 164.629 80.396 164.629 79.808C164.629 79.248 164.48 78.7953 164.181 78.45C163.892 78.1047 163.49 77.932 162.977 77.932C162.296 77.932 161.717 78.2027 161.241 78.744L159.953 78.198L160.485 73.2H165.525V74.544H161.745L161.409 77.148C161.876 76.7653 162.445 76.574 163.117 76.574C164.022 76.574 164.741 76.8773 165.273 77.484C165.814 78.0813 166.085 78.842 166.085 79.766C166.085 80.7273 165.758 81.5347 165.105 82.188C164.452 82.8413 163.607 83.168 162.571 83.168ZM173.256 82.314C172.621 82.8833 171.795 83.168 170.778 83.168C169.761 83.168 168.93 82.8833 168.286 82.314C167.651 81.7447 167.334 81.0213 167.334 80.144C167.334 79.5653 167.493 79.052 167.81 78.604C168.127 78.156 168.552 77.8247 169.084 77.61C168.692 77.4233 168.37 77.1527 168.118 76.798C167.875 76.4433 167.754 76.042 167.754 75.594C167.754 74.8567 168.034 74.2453 168.594 73.76C169.154 73.2747 169.882 73.032 170.778 73.032C171.665 73.032 172.388 73.2793 172.948 73.774C173.517 74.2593 173.802 74.866 173.802 75.594C173.802 76.042 173.676 76.4433 173.424 76.798C173.181 77.1527 172.859 77.4187 172.458 77.596C172.99 77.8107 173.415 78.1467 173.732 78.604C174.059 79.052 174.222 79.5653 174.222 80.144C174.222 81.0213 173.9 81.7447 173.256 82.314ZM170.778 77.05C171.254 77.05 171.637 76.9287 171.926 76.686C172.215 76.434 172.36 76.112 172.36 75.72C172.36 75.3 172.211 74.9593 171.912 74.698C171.623 74.4367 171.245 74.306 170.778 74.306C170.311 74.306 169.929 74.4367 169.63 74.698C169.341 74.95 169.196 75.2907 169.196 75.72C169.196 76.112 169.336 76.434 169.616 76.686C169.905 76.9287 170.293 77.05 170.778 77.05ZM170.778 81.866C171.357 81.866 171.833 81.7027 172.206 81.376C172.579 81.04 172.766 80.6013 172.766 80.06C172.766 79.5467 172.579 79.1173 172.206 78.772C171.833 78.4173 171.357 78.24 170.778 78.24C170.19 78.24 169.709 78.4173 169.336 78.772C168.972 79.1173 168.79 79.5467 168.79 80.06C168.79 80.6107 168.972 81.0493 169.336 81.376C169.709 81.7027 170.19 81.866 170.778 81.866ZM178.691 83.168C177.095 83.168 176.012 82.4027 175.443 80.872L176.759 80.34C177.17 81.32 177.823 81.81 178.719 81.81C179.242 81.81 179.671 81.6747 180.007 81.404C180.343 81.124 180.511 80.732 180.511 80.228C180.511 79.724 180.352 79.3227 180.035 79.024C179.718 78.7253 179.26 78.576 178.663 78.576H177.851V77.232H178.593C179.06 77.232 179.433 77.1013 179.713 76.84C180.002 76.5787 180.147 76.2287 180.147 75.79C180.147 75.37 180.012 75.0293 179.741 74.768C179.47 74.5067 179.125 74.376 178.705 74.376C177.968 74.376 177.417 74.7773 177.053 75.58L175.737 75.076C175.989 74.4693 176.367 73.9793 176.871 73.606C177.375 73.2233 177.986 73.032 178.705 73.032C179.545 73.032 180.236 73.2793 180.777 73.774C181.328 74.2593 181.603 74.88 181.603 75.636C181.603 76.084 181.491 76.4947 181.267 76.868C181.052 77.2413 180.758 77.54 180.385 77.764C180.861 77.9507 181.244 78.2587 181.533 78.688C181.822 79.1173 181.967 79.626 181.967 80.214C181.967 81.1007 181.654 81.8147 181.029 82.356C180.413 82.8973 179.634 83.168 178.691 83.168ZM183.524 83V73.2H189.53V74.558H184.966V77.26H188.004V78.618H184.966V81.628H189.838V83H183.524ZM195.287 77.96C195.091 78.156 194.848 78.254 194.559 78.254C194.27 78.254 194.022 78.156 193.817 77.96C193.621 77.7547 193.523 77.512 193.523 77.232C193.523 76.952 193.621 76.714 193.817 76.518C194.022 76.3127 194.27 76.21 194.559 76.21C194.848 76.21 195.091 76.3127 195.287 76.518C195.492 76.714 195.595 76.952 195.595 77.232C195.595 77.512 195.492 77.7547 195.287 77.96ZM194.153 85.534L193.495 85.184C194.027 84.568 194.326 83.9053 194.391 83.196C194.13 83.1493 193.92 83.042 193.761 82.874C193.602 82.6967 193.523 82.4727 193.523 82.202C193.523 81.894 193.626 81.6467 193.831 81.46C194.036 81.264 194.279 81.166 194.559 81.166C194.867 81.166 195.124 81.278 195.329 81.502C195.534 81.726 195.637 82.0433 195.637 82.454C195.637 83.098 195.483 83.7 195.175 84.26C194.876 84.8293 194.536 85.254 194.153 85.534ZM37.9238 96.678C38.5211 96.678 38.9598 96.8787 39.2398 97.28C39.5291 97.6813 39.6738 98.344 39.6738 99.268V104H38.3578V99.632C38.3578 99.0533 38.3065 98.638 38.2038 98.386C38.1011 98.134 37.9051 98.008 37.6158 98.008C37.3171 98.008 37.0885 98.1573 36.9298 98.456C36.7805 98.7547 36.7058 99.1607 36.7058 99.674V104H35.3898V99.534C35.3898 98.5167 35.1425 98.008 34.6478 98.008C34.3491 98.008 34.1111 98.162 33.9338 98.47C33.7658 98.7687 33.6818 99.17 33.6818 99.674V104H32.3658V96.846H33.5978V97.784C33.8685 97.0467 34.3351 96.678 34.9978 96.678C35.3338 96.678 35.6185 96.7853 35.8518 97C36.0851 97.2053 36.2485 97.4527 36.3418 97.742C36.7338 97.0327 37.2611 96.678 37.9238 96.678ZM43.4428 104.168C42.6681 104.168 42.0381 103.963 41.5528 103.552C41.0674 103.132 40.8248 102.539 40.8248 101.774C40.8248 100.999 41.0954 100.411 41.6368 100.01C42.1874 99.6087 42.8501 99.408 43.6248 99.408C44.3341 99.408 44.9548 99.548 45.4868 99.828V99.338C45.4868 98.3767 45.0014 97.896 44.0308 97.896C43.2934 97.896 42.5328 98.1433 41.7488 98.638L41.3288 97.49C42.1781 96.9487 43.1208 96.678 44.1568 96.678C45.9488 96.678 46.8448 97.5507 46.8448 99.296V104H45.4868V103.384C44.9454 103.907 44.2641 104.168 43.4428 104.168ZM43.6668 102.936C44.3574 102.936 44.9641 102.656 45.4868 102.096V101.018C44.9921 100.738 44.4414 100.598 43.8348 100.598C43.3588 100.598 42.9621 100.701 42.6448 100.906C42.3274 101.102 42.1688 101.391 42.1688 101.774C42.1688 102.129 42.2994 102.413 42.5608 102.628C42.8314 102.833 43.2001 102.936 43.6668 102.936ZM53.6797 96.678C54.3424 96.678 54.8837 96.7993 55.3037 97.042V99.604H53.9317V98.022C53.8664 98.0127 53.7684 98.008 53.6377 98.008C52.9191 98.008 52.3311 98.1853 51.8737 98.54C51.4257 98.8947 51.2017 99.4033 51.2017 100.066V102.754H53.2457V104H48.2757V102.754H49.7737V98.078H48.2757V96.846H51.1037V98.022C51.3277 97.6113 51.6777 97.2847 52.1537 97.042C52.6391 96.7993 53.1477 96.678 53.6797 96.678ZM61.5227 104L59.4087 99.856L58.2187 101.032V104H56.8187V94.55L58.2187 93.892V99.45L60.7807 96.846H62.4327L60.4167 98.848L63.0627 104H61.5227ZM70.9196 100.094C70.9196 100.449 70.9056 100.743 70.8776 100.976H65.9496C66.0523 101.573 66.267 102.045 66.5936 102.39C66.9296 102.735 67.3636 102.908 67.8956 102.908C68.521 102.908 69.0623 102.693 69.5196 102.264L70.3456 103.16C69.6736 103.832 68.8523 104.168 67.8816 104.168C66.8456 104.168 66.029 103.823 65.4316 103.132C64.8343 102.432 64.5356 101.527 64.5356 100.416C64.5356 99.2493 64.8343 98.3347 65.4316 97.672C66.0383 97.0093 66.855 96.678 67.8816 96.678C68.7683 96.678 69.4963 96.9673 70.0656 97.546C70.635 98.1247 70.9196 98.974 70.9196 100.094ZM65.9216 99.758H69.5336C69.5056 99.1233 69.333 98.6567 69.0156 98.358C68.6983 98.0593 68.3203 97.91 67.8816 97.91C67.303 97.91 66.8503 98.0733 66.5236 98.4C66.197 98.7173 65.9963 99.17 65.9216 99.758ZM77.4606 96.678C78.1232 96.678 78.6646 96.7993 79.0846 97.042V99.604H77.7126V98.022C77.6472 98.0127 77.5492 98.008 77.4186 98.008C76.6999 98.008 76.1119 98.1853 75.6546 98.54C75.2066 98.8947 74.9826 99.4033 74.9826 100.066V102.754H77.0266V104H72.0566V102.754H73.5546V98.078H72.0566V96.846H74.8846V98.022C75.1086 97.6113 75.4586 97.2847 75.9346 97.042C76.4199 96.7993 76.9286 96.678 77.4606 96.678ZM80.2915 100.514V99.17H86.8715V100.514H80.2915ZM91.0045 104.168C90.2298 104.168 89.5998 103.963 89.1145 103.552C88.6292 103.132 88.3865 102.539 88.3865 101.774C88.3865 100.999 88.6572 100.411 89.1985 100.01C89.7492 99.6087 90.4118 99.408 91.1865 99.408C91.8958 99.408 92.5165 99.548 93.0485 99.828V99.338C93.0485 98.3767 92.5632 97.896 91.5925 97.896C90.8552 97.896 90.0945 98.1433 89.3105 98.638L88.8905 97.49C89.7398 96.9487 90.6825 96.678 91.7185 96.678C93.5105 96.678 94.4065 97.5507 94.4065 99.296V104H93.0485V103.384C92.5072 103.907 91.8258 104.168 91.0045 104.168ZM91.2285 102.936C91.9192 102.936 92.5258 102.656 93.0485 102.096V101.018C92.5538 100.738 92.0032 100.598 91.3965 100.598C90.9205 100.598 90.5238 100.701 90.2065 100.906C89.8892 101.102 89.7305 101.391 89.7305 101.774C89.7305 102.129 89.8612 102.413 90.1225 102.628C90.3932 102.833 90.7618 102.936 91.2285 102.936ZM100.135 102.754H102.179V104H96.6774V102.754H98.7354V95.124H97.0414L96.3974 93.892H100.135V102.754ZM108.062 102.754H110.106V104H104.604V102.754H106.662V95.124H104.968L104.324 93.892H108.062V102.754ZM117.753 103.16C117.147 103.832 116.325 104.168 115.289 104.168C114.253 104.168 113.427 103.837 112.811 103.174C112.205 102.502 111.901 101.587 111.901 100.43C111.901 99.2727 112.205 98.358 112.811 97.686C113.427 97.014 114.253 96.678 115.289 96.678C116.325 96.678 117.147 97.014 117.753 97.686C118.369 98.358 118.677 99.268 118.677 100.416C118.677 101.573 118.369 102.488 117.753 103.16ZM113.833 102.208C114.179 102.637 114.664 102.852 115.289 102.852C115.915 102.852 116.4 102.633 116.745 102.194C117.091 101.755 117.263 101.163 117.263 100.416C117.263 99.6693 117.091 99.0813 116.745 98.652C116.409 98.2133 115.924 97.994 115.289 97.994C114.655 97.994 114.169 98.2087 113.833 98.638C113.497 99.058 113.329 99.6553 113.329 100.43C113.329 101.177 113.497 101.769 113.833 102.208ZM121.004 104L119.184 96.846H120.5L121.48 101.004C121.536 101.228 121.578 101.443 121.606 101.648C121.672 101.303 121.714 101.083 121.732 100.99L122.67 96.846H123.762L124.714 100.99C124.733 101.065 124.775 101.298 124.84 101.69C124.878 101.447 124.924 101.214 124.98 100.99L125.932 96.846H127.248L125.428 104H124.308L123.384 99.982C123.282 99.45 123.226 99.1653 123.216 99.128C123.198 99.2307 123.165 99.38 123.118 99.576C123.072 99.772 123.044 99.9027 123.034 99.968L122.138 104H121.004ZM127.853 100.514V99.17H134.433V100.514H127.853ZM141.534 103.16C140.928 103.832 140.106 104.168 139.07 104.168C138.034 104.168 137.208 103.837 136.592 103.174C135.986 102.502 135.682 101.587 135.682 100.43C135.682 99.2727 135.986 98.358 136.592 97.686C137.208 97.014 138.034 96.678 139.07 96.678C140.106 96.678 140.928 97.014 141.534 97.686C142.15 98.358 142.458 99.268 142.458 100.416C142.458 101.573 142.15 102.488 141.534 103.16ZM137.614 102.208C137.96 102.637 138.445 102.852 139.07 102.852C139.696 102.852 140.181 102.633 140.526 102.194C140.872 101.755 141.044 101.163 141.044 100.416C141.044 99.6693 140.872 99.0813 140.526 98.652C140.19 98.2133 139.705 97.994 139.07 97.994C138.436 97.994 137.95 98.2087 137.614 98.638C137.278 99.058 137.11 99.6553 137.11 100.43C137.11 101.177 137.278 101.769 137.614 102.208ZM146.367 104L143.609 96.846H145.079L146.801 101.508C146.904 101.797 146.978 102.049 147.025 102.264C147.072 102.049 147.146 101.797 147.249 101.508L148.943 96.846H150.399L147.641 104H146.367ZM158.116 100.094C158.116 100.449 158.102 100.743 158.074 100.976H153.146C153.249 101.573 153.463 102.045 153.79 102.39C154.126 102.735 154.56 102.908 155.092 102.908C155.717 102.908 156.259 102.693 156.716 102.264L157.542 103.16C156.87 103.832 156.049 104.168 155.078 104.168C154.042 104.168 153.225 103.823 152.628 103.132C152.031 102.432 151.732 101.527 151.732 100.416C151.732 99.2493 152.031 98.3347 152.628 97.672C153.235 97.0093 154.051 96.678 155.078 96.678C155.965 96.678 156.693 96.9673 157.262 97.546C157.831 98.1247 158.116 98.974 158.116 100.094ZM153.118 99.758H156.73C156.702 99.1233 156.529 98.6567 156.212 98.358C155.895 98.0593 155.517 97.91 155.078 97.91C154.499 97.91 154.047 98.0733 153.72 98.4C153.393 98.7173 153.193 99.17 153.118 99.758ZM164.657 96.678C165.32 96.678 165.861 96.7993 166.281 97.042V99.604H164.909V98.022C164.844 98.0127 164.746 98.008 164.615 98.008C163.896 98.008 163.308 98.1853 162.851 98.54C162.403 98.8947 162.179 99.4033 162.179 100.066V102.754H164.223V104H159.253V102.754H160.751V98.078H159.253V96.846H162.081V98.022C162.305 97.6113 162.655 97.2847 163.131 97.042C163.616 96.7993 164.125 96.678 164.657 96.678ZM171.478 102.754H173.522V104H168.02V102.754H170.078V95.124H168.384L167.74 93.892H171.478V102.754ZM178.201 104.168C177.426 104.168 176.796 103.963 176.311 103.552C175.826 103.132 175.583 102.539 175.583 101.774C175.583 100.999 175.854 100.411 176.395 100.01C176.946 99.6087 177.608 99.408 178.383 99.408C179.092 99.408 179.713 99.548 180.245 99.828V99.338C180.245 98.3767 179.76 97.896 178.789 97.896C178.052 97.896 177.291 98.1433 176.507 98.638L176.087 97.49C176.936 96.9487 177.879 96.678 178.915 96.678C180.707 96.678 181.603 97.5507 181.603 99.296V104H180.245V103.384C179.704 103.907 179.022 104.168 178.201 104.168ZM178.425 102.936C179.116 102.936 179.722 102.656 180.245 102.096V101.018C179.75 100.738 179.2 100.598 178.593 100.598C178.117 100.598 177.72 100.701 177.403 100.906C177.086 101.102 176.927 101.391 176.927 101.774C176.927 102.129 177.058 102.413 177.319 102.628C177.59 102.833 177.958 102.936 178.425 102.936ZM183.65 106.828V96.846H185.05V97.42C185.545 96.9253 186.161 96.678 186.898 96.678C187.859 96.678 188.62 97.0093 189.18 97.672C189.74 98.3347 190.02 99.2493 190.02 100.416C190.02 101.583 189.731 102.502 189.152 103.174C188.573 103.837 187.827 104.168 186.912 104.168C186.119 104.168 185.498 103.902 185.05 103.37V106.17L183.65 106.828ZM186.716 102.852C187.313 102.852 187.775 102.642 188.102 102.222C188.429 101.802 188.592 101.2 188.592 100.416C188.592 99.6693 188.424 99.0813 188.088 98.652C187.761 98.2133 187.295 97.994 186.688 97.994C185.96 97.994 185.414 98.274 185.05 98.834V101.998C185.479 102.567 186.035 102.852 186.716 102.852ZM195.287 98.96C195.091 99.156 194.848 99.254 194.559 99.254C194.27 99.254 194.022 99.156 193.817 98.96C193.621 98.7547 193.523 98.512 193.523 98.232C193.523 97.952 193.621 97.714 193.817 97.518C194.022 97.3127 194.27 97.21 194.559 97.21C194.848 97.21 195.091 97.3127 195.287 97.518C195.492 97.714 195.595 97.952 195.595 98.232C195.595 98.512 195.492 98.7547 195.287 98.96ZM195.287 103.888C195.091 104.084 194.848 104.182 194.559 104.182C194.27 104.182 194.022 104.084 193.817 103.888C193.621 103.683 193.523 103.44 193.523 103.16C193.523 102.88 193.621 102.642 193.817 102.446C194.022 102.241 194.27 102.138 194.559 102.138C194.848 102.138 195.091 102.241 195.287 102.446C195.492 102.642 195.595 102.88 195.595 103.16C195.595 103.44 195.492 103.683 195.287 103.888ZM211.071 104.168C209.764 104.168 209.111 103.543 209.111 102.292V98.078H207.543V96.846H209.111V94.564L210.511 93.892V96.846H212.919V98.078H210.511V101.956C210.511 102.273 210.585 102.511 210.735 102.67C210.884 102.829 211.15 102.908 211.533 102.908C211.953 102.908 212.373 102.787 212.793 102.544L212.639 103.846C212.228 104.061 211.705 104.168 211.071 104.168ZM220.146 96.678C220.808 96.678 221.35 96.7993 221.77 97.042V99.604H220.398V98.022C220.332 98.0127 220.234 98.008 220.104 98.008C219.385 98.008 218.797 98.1853 218.34 98.54C217.892 98.8947 217.668 99.4033 217.668 100.066V102.754H219.712V104H214.742V102.754H216.24V98.078H214.742V96.846H217.57V98.022C217.794 97.6113 218.144 97.2847 218.62 97.042C219.105 96.7993 219.614 96.678 220.146 96.678ZM225.931 104.168C224.139 104.168 223.243 103.123 223.243 101.032V96.846H224.657V100.934C224.657 101.597 224.797 102.082 225.077 102.39C225.366 102.689 225.744 102.838 226.211 102.838C227.321 102.838 227.877 102.213 227.877 100.962V96.846H229.291V104H227.877V103.3C227.429 103.879 226.78 104.168 225.931 104.168ZM237.386 100.094C237.386 100.449 237.372 100.743 237.344 100.976H232.416C232.518 101.573 232.733 102.045 233.06 102.39C233.396 102.735 233.83 102.908 234.362 102.908C234.987 102.908 235.528 102.693 235.986 102.264L236.812 103.16C236.14 103.832 235.318 104.168 234.348 104.168C233.312 104.168 232.495 103.823 231.898 103.132C231.3 102.432 231.002 101.527 231.002 100.416C231.002 99.2493 231.3 98.3347 231.898 97.672C232.504 97.0093 233.321 96.678 234.348 96.678C235.234 96.678 235.962 96.9673 236.532 97.546C237.101 98.1247 237.386 98.974 237.386 100.094ZM232.388 99.758H236C235.972 99.1233 235.799 98.6567 235.482 98.358C235.164 98.0593 234.786 97.91 234.348 97.91C233.769 97.91 233.316 98.0733 232.99 98.4C232.663 98.7173 232.462 99.17 232.388 99.758ZM242.849 98.96C242.653 99.156 242.41 99.254 242.121 99.254C241.831 99.254 241.584 99.156 241.379 98.96C241.183 98.7547 241.085 98.512 241.085 98.232C241.085 97.952 241.183 97.714 241.379 97.518C241.584 97.3127 241.831 97.21 242.121 97.21C242.41 97.21 242.653 97.3127 242.849 97.518C243.054 97.714 243.157 97.952 243.157 98.232C243.157 98.512 243.054 98.7547 242.849 98.96ZM241.715 106.534L241.057 106.184C241.589 105.568 241.887 104.905 241.953 104.196C241.691 104.149 241.481 104.042 241.323 103.874C241.164 103.697 241.085 103.473 241.085 103.202C241.085 102.894 241.187 102.647 241.393 102.46C241.598 102.264 241.841 102.166 242.121 102.166C242.429 102.166 242.685 102.278 242.891 102.502C243.096 102.726 243.199 103.043 243.199 103.454C243.199 104.098 243.045 104.7 242.737 105.26C242.438 105.829 242.097 106.254 241.715 106.534ZM17.9259 127.82V126.588H18.3599C18.8546 126.579 19.2279 126.415 19.4799 126.098C19.7412 125.79 19.8719 125.361 19.8719 124.81V123.914C19.8719 123.261 19.9746 122.789 20.1799 122.5C20.3852 122.211 20.6979 122.029 21.1179 121.954V121.898C20.6979 121.814 20.3852 121.627 20.1799 121.338C19.9746 121.049 19.8719 120.582 19.8719 119.938V119.042C19.8719 117.894 19.3679 117.306 18.3599 117.278H17.9259V116.032H18.3599C19.2652 116.051 19.9792 116.335 20.5019 116.886C21.0246 117.437 21.2859 118.239 21.2859 119.294V120.092C21.2859 120.465 21.3559 120.764 21.4959 120.988C21.6452 121.203 21.8459 121.31 22.0979 121.31H22.4199V122.528H22.0979C21.8459 122.528 21.6452 122.64 21.4959 122.864C21.3559 123.088 21.2859 123.382 21.2859 123.746V124.558C21.2859 125.603 21.0246 126.401 20.5019 126.952C19.9792 127.512 19.2652 127.801 18.3599 127.82H17.9259ZM4.578 138.936L2.086 136.752H3.976L5.964 138.936H4.578Z" transform="translate(47 45)" fill="#B98BFF"/>
<rect width="218" height="50" rx="4" transform="translate(137 430)" fill="#FF583E"/>
<path d="M1.82896 4.4H4.74496V14.624H11.063V17H1.82896V4.4ZM21.0957 14.3H15.2457L14.1297 17H11.1417L16.7577 4.4H19.6377L25.2717 17H22.2117L21.0957 14.3ZM20.1777 12.086L18.1797 7.262L16.1817 12.086H20.1777ZM31.8535 12.536V17H28.9375V12.5L24.0595 4.4H27.1555L30.5215 9.998L33.8875 4.4H36.7495L31.8535 12.536ZM47.6025 14.66V17H37.8465V4.4H47.3685V6.74H40.7445V9.476H46.5945V11.744H40.7445V14.66H47.6025ZM57.9507 17L55.5207 13.49H55.3767H52.8387V17H49.9227V4.4H55.3767C56.4927 4.4 57.4587 4.586 58.2747 4.958C59.1027 5.33 59.7387 5.858 60.1827 6.542C60.6267 7.226 60.8487 8.036 60.8487 8.972C60.8487 9.908 60.6207 10.718 60.1647 11.402C59.7207 12.074 59.0847 12.59 58.2567 12.95L61.0827 17H57.9507ZM57.8967 8.972C57.8967 8.264 57.6687 7.724 57.2127 7.352C56.7567 6.968 56.0907 6.776 55.2147 6.776H52.8387V11.168H55.2147C56.0907 11.168 56.7567 10.976 57.2127 10.592C57.6687 10.208 57.8967 9.668 57.8967 8.972Z" transform="translate(215 444)" fill="white"/>
<path d="M60.3536 0.353553C60.5488 0.158291 60.5488 -0.158291 60.3536 -0.353553L57.1716 -3.53553C56.9763 -3.7308 56.6597 -3.7308 56.4645 -3.53553C56.2692 -3.34027 56.2692 -3.02369 56.4645 -2.82843L59.2929 0L56.4645 2.82843C56.2692 3.02369 56.2692 3.34027 56.4645 3.53553C56.6597 3.7308 56.9763 3.7308 57.1716 3.53553L60.3536 0.353553ZM0 0.5H60V-0.5H0V0.5Z" transform="translate(246 358) rotate(90)" fill="#898989"/>
<rect width="79" height="25" transform="translate(211 377)" fill="white"/>
<path d="M2.156 8.288C2.38 7.756 2.73 7.35 3.206 7.07C3.682 6.78067 4.26067 6.636 4.942 6.636V7.322L4.774 7.308C3.962 7.308 3.32733 7.56467 2.87 8.078C2.41267 8.582 2.184 9.28667 2.184 10.192V14H1.484V6.692H2.156V8.288ZM12.9764 10.514H6.69036C6.70903 11.0833 6.85369 11.592 7.12436 12.04C7.39503 12.4787 7.75903 12.8193 8.21636 13.062C8.68303 13.3047 9.20569 13.426 9.78436 13.426C10.2604 13.426 10.699 13.342 11.1004 13.174C11.511 12.9967 11.8517 12.74 12.1224 12.404L12.5284 12.866C12.211 13.2487 11.8097 13.5427 11.3244 13.748C10.8484 13.9533 10.3304 14.056 9.77036 14.056C9.04236 14.056 8.39369 13.8973 7.82436 13.58C7.25503 13.2627 6.80703 12.824 6.48036 12.264C6.16303 11.704 6.00436 11.0647 6.00436 10.346C6.00436 9.63667 6.15369 9.002 6.45236 8.442C6.76036 7.87267 7.18036 7.42933 7.71236 7.112C8.24436 6.79467 8.84169 6.636 9.50436 6.636C10.167 6.636 10.7597 6.79467 11.2824 7.112C11.8144 7.42 12.2297 7.854 12.5284 8.414C12.8364 8.974 12.9904 9.60867 12.9904 10.318L12.9764 10.514ZM9.50436 7.252C8.99103 7.252 8.52903 7.36867 8.11836 7.602C7.70769 7.826 7.37636 8.148 7.12436 8.568C6.88169 8.97867 6.74169 9.44533 6.70436 9.968H12.3044C12.2764 9.44533 12.1364 8.97867 11.8844 8.568C11.6324 8.15733 11.301 7.83533 10.8904 7.602C10.4797 7.36867 10.0177 7.252 9.50436 7.252ZM17.3539 4.158C16.4392 4.158 15.9819 4.648 15.9819 5.628V6.692H18.3199V7.294H15.9959V14H15.2959V7.294H13.9519V6.692H15.2959V5.572C15.2959 4.956 15.4732 4.466 15.8279 4.102C16.1825 3.738 16.6819 3.556 17.3259 3.556C17.6059 3.556 17.8719 3.598 18.1239 3.682C18.3852 3.75667 18.5999 3.87333 18.7679 4.032L18.4879 4.564C18.1892 4.29333 17.8112 4.158 17.3539 4.158ZM21.5427 8.288C21.7667 7.756 22.1167 7.35 22.5927 7.07C23.0687 6.78067 23.6474 6.636 24.3287 6.636V7.322L24.1607 7.308C23.3487 7.308 22.7141 7.56467 22.2567 8.078C21.7994 8.582 21.5707 9.28667 21.5707 10.192V14H20.8707V6.692H21.5427V8.288ZM32.3631 10.514H26.0771C26.0957 11.0833 26.2404 11.592 26.5111 12.04C26.7817 12.4787 27.1457 12.8193 27.6031 13.062C28.0697 13.3047 28.5924 13.426 29.1711 13.426C29.6471 13.426 30.0857 13.342 30.4871 13.174C30.8977 12.9967 31.2384 12.74 31.5091 12.404L31.9151 12.866C31.5977 13.2487 31.1964 13.5427 30.7111 13.748C30.2351 13.9533 29.7171 14.056 29.1571 14.056C28.4291 14.056 27.7804 13.8973 27.2111 13.58C26.6417 13.2627 26.1937 12.824 25.8671 12.264C25.5497 11.704 25.3911 11.0647 25.3911 10.346C25.3911 9.63667 25.5404 9.002 25.8391 8.442C26.1471 7.87267 26.5671 7.42933 27.0991 7.112C27.6311 6.79467 28.2284 6.636 28.8911 6.636C29.5537 6.636 30.1464 6.79467 30.6691 7.112C31.2011 7.42 31.6164 7.854 31.9151 8.414C32.2231 8.974 32.3771 9.60867 32.3771 10.318L32.3631 10.514ZM28.8911 7.252C28.3777 7.252 27.9157 7.36867 27.5051 7.602C27.0944 7.826 26.7631 8.148 26.5111 8.568C26.2684 8.97867 26.1284 9.44533 26.0911 9.968H31.6911C31.6631 9.44533 31.5231 8.97867 31.2711 8.568C31.0191 8.15733 30.6877 7.83533 30.2771 7.602C29.8664 7.36867 29.4044 7.252 28.8911 7.252ZM36.3906 14.056C35.8026 14.056 35.2426 13.9673 34.7106 13.79C34.1786 13.6127 33.7633 13.3887 33.4646 13.118L33.7866 12.558C34.0853 12.81 34.4679 13.02 34.9346 13.188C35.4106 13.356 35.9053 13.44 36.4186 13.44C37.1559 13.44 37.6973 13.3187 38.0426 13.076C38.3973 12.8333 38.5746 12.4973 38.5746 12.068C38.5746 11.76 38.4766 11.5173 38.2806 11.34C38.0939 11.1627 37.8606 11.032 37.5806 10.948C37.3006 10.864 36.9133 10.7753 36.4186 10.682C35.8399 10.5793 35.3733 10.4673 35.0186 10.346C34.6639 10.2247 34.3606 10.0287 34.1086 9.758C33.8566 9.48733 33.7306 9.114 33.7306 8.638C33.7306 8.05933 33.9686 7.58333 34.4446 7.21C34.9299 6.82733 35.6159 6.636 36.5026 6.636C36.9693 6.636 37.4313 6.70133 37.8886 6.832C38.3459 6.96267 38.7193 7.13533 39.0086 7.35L38.6866 7.91C38.3879 7.69533 38.0473 7.532 37.6646 7.42C37.2819 7.308 36.8899 7.252 36.4886 7.252C35.8073 7.252 35.2939 7.378 34.9486 7.63C34.6033 7.882 34.4306 8.21333 34.4306 8.624C34.4306 8.95067 34.5286 9.20733 34.7246 9.394C34.9206 9.57133 35.1586 9.70667 35.4386 9.8C35.7279 9.884 36.1293 9.97733 36.6426 10.08C37.2119 10.1827 37.6693 10.2947 38.0146 10.416C38.3693 10.528 38.6679 10.7147 38.9106 10.976C39.1533 11.2373 39.2746 11.5967 39.2746 12.054C39.2746 12.6607 39.0226 13.146 38.5186 13.51C38.0146 13.874 37.3053 14.056 36.3906 14.056ZM44.7981 6.636C45.7128 6.636 46.4361 6.902 46.9681 7.434C47.5001 7.966 47.7661 8.73133 47.7661 9.73V14H47.0661V9.786C47.0661 8.96467 46.8561 8.33933 46.4361 7.91C46.0255 7.48067 45.4468 7.266 44.7001 7.266C43.8415 7.266 43.1648 7.52267 42.6701 8.036C42.1755 8.54933 41.9281 9.24 41.9281 10.108V14H41.2281V3.612H41.9281V8.218C42.1801 7.714 42.5535 7.32667 43.0481 7.056C43.5428 6.776 44.1261 6.636 44.7981 6.636ZM56.8357 10.514H50.5497C50.5684 11.0833 50.7131 11.592 50.9837 12.04C51.2544 12.4787 51.6184 12.8193 52.0757 13.062C52.5424 13.3047 53.0651 13.426 53.6437 13.426C54.1197 13.426 54.5584 13.342 54.9597 13.174C55.3704 12.9967 55.7111 12.74 55.9817 12.404L56.3877 12.866C56.0704 13.2487 55.6691 13.5427 55.1837 13.748C54.7077 13.9533 54.1897 14.056 53.6297 14.056C52.9017 14.056 52.2531 13.8973 51.6837 13.58C51.1144 13.2627 50.6664 12.824 50.3397 12.264C50.0224 11.704 49.8637 11.0647 49.8637 10.346C49.8637 9.63667 50.0131 9.002 50.3117 8.442C50.6197 7.87267 51.0397 7.42933 51.5717 7.112C52.1037 6.79467 52.7011 6.636 53.3637 6.636C54.0264 6.636 54.6191 6.79467 55.1417 7.112C55.6737 7.42 56.0891 7.854 56.3877 8.414C56.6957 8.974 56.8497 9.60867 56.8497 10.318L56.8357 10.514ZM53.3637 7.252C52.8504 7.252 52.3884 7.36867 51.9777 7.602C51.5671 7.826 51.2357 8.148 50.9837 8.568C50.7411 8.97867 50.6011 9.44533 50.5637 9.968H56.1637C56.1357 9.44533 55.9957 8.97867 55.7437 8.568C55.4917 8.15733 55.1604 7.83533 54.7497 7.602C54.3391 7.36867 53.8771 7.252 53.3637 7.252ZM60.8633 14.056C60.2752 14.056 59.7152 13.9673 59.1833 13.79C58.6513 13.6127 58.2359 13.3887 57.9372 13.118L58.2593 12.558C58.5579 12.81 58.9406 13.02 59.4073 13.188C59.8833 13.356 60.3779 13.44 60.8912 13.44C61.6286 13.44 62.1699 13.3187 62.5153 13.076C62.8699 12.8333 63.0472 12.4973 63.0472 12.068C63.0472 11.76 62.9492 11.5173 62.7532 11.34C62.5666 11.1627 62.3332 11.032 62.0533 10.948C61.7733 10.864 61.3859 10.7753 60.8912 10.682C60.3126 10.5793 59.8459 10.4673 59.4913 10.346C59.1366 10.2247 58.8332 10.0287 58.5813 9.758C58.3293 9.48733 58.2033 9.114 58.2033 8.638C58.2033 8.05933 58.4413 7.58333 58.9172 7.21C59.4026 6.82733 60.0886 6.636 60.9753 6.636C61.4419 6.636 61.9039 6.70133 62.3612 6.832C62.8186 6.96267 63.1919 7.13533 63.4813 7.35L63.1593 7.91C62.8606 7.69533 62.5199 7.532 62.1372 7.42C61.7546 7.308 61.3626 7.252 60.9613 7.252C60.2799 7.252 59.7666 7.378 59.4213 7.63C59.0759 7.882 58.9032 8.21333 58.9032 8.624C58.9032 8.95067 59.0012 9.20733 59.1973 9.394C59.3933 9.57133 59.6313 9.70667 59.9113 9.8C60.2006 9.884 60.6019 9.97733 61.1153 10.08C61.6846 10.1827 62.1419 10.2947 62.4873 10.416C62.8419 10.528 63.1406 10.7147 63.3833 10.976C63.6259 11.2373 63.7473 11.5967 63.7473 12.054C63.7473 12.6607 63.4952 13.146 62.9912 13.51C62.4872 13.874 61.7779 14.056 60.8633 14.056Z" transform="translate(218 380)" fill="black"/>
<rect width="218" height="50" rx="4" transform="translate(137 296)" fill="#FF583E"/>
<path d="M5.95138 17.216C4.95538 17.216 3.98938 17.084 3.05338 16.82C2.12938 16.544 1.38538 16.19 0.821383 15.758L1.81138 13.562C2.35138 13.958 2.99338 14.276 3.73738 14.516C4.48138 14.756 5.22538 14.876 5.96938 14.876C6.79738 14.876 7.40938 14.756 7.80538 14.516C8.20138 14.264 8.39938 13.934 8.39938 13.526C8.39938 13.226 8.27938 12.98 8.03938 12.788C7.81138 12.584 7.51138 12.422 7.13938 12.302C6.77938 12.182 6.28738 12.05 5.66338 11.906C4.70338 11.678 3.91738 11.45 3.30538 11.222C2.69338 10.994 2.16538 10.628 1.72138 10.124C1.28938 9.62 1.07338 8.948 1.07338 8.108C1.07338 7.376 1.27138 6.716 1.66738 6.128C2.06338 5.528 2.65738 5.054 3.44938 4.706C4.25338 4.358 5.23138 4.184 6.38338 4.184C7.18738 4.184 7.97338 4.28 8.74138 4.472C9.50938 4.664 10.1814 4.94 10.7574 5.3L9.85738 7.514C8.69338 6.854 7.52938 6.524 6.36538 6.524C5.54938 6.524 4.94338 6.656 4.54738 6.92C4.16338 7.184 3.97138 7.532 3.97138 7.964C3.97138 8.396 4.19338 8.72 4.63738 8.936C5.09338 9.14 5.78338 9.344 6.70738 9.548C7.66738 9.776 8.45338 10.004 9.06538 10.232C9.67738 10.46 10.1994 10.82 10.6314 11.312C11.0754 11.804 11.2974 12.47 11.2974 13.31C11.2974 14.03 11.0934 14.69 10.6854 15.29C10.2894 15.878 9.68938 16.346 8.88538 16.694C8.08138 17.042 7.10338 17.216 5.95138 17.216ZM19.3919 17.216C18.0839 17.216 16.9019 16.934 15.8459 16.37C14.8019 15.806 13.9799 15.032 13.3799 14.048C12.7919 13.052 12.4979 11.936 12.4979 10.7C12.4979 9.464 12.7919 8.354 13.3799 7.37C13.9799 6.374 14.8019 5.594 15.8459 5.03C16.9019 4.466 18.0839 4.184 19.3919 4.184C20.6999 4.184 21.8759 4.466 22.9199 5.03C23.9639 5.594 24.7859 6.374 25.3859 7.37C25.9859 8.354 26.2859 9.464 26.2859 10.7C26.2859 11.936 25.9859 13.052 25.3859 14.048C24.7859 15.032 23.9639 15.806 22.9199 16.37C21.8759 16.934 20.6999 17.216 19.3919 17.216ZM19.3919 14.732C20.1359 14.732 20.8079 14.564 21.4079 14.228C22.0079 13.88 22.4759 13.4 22.8119 12.788C23.1599 12.176 23.3339 11.48 23.3339 10.7C23.3339 9.92 23.1599 9.224 22.8119 8.612C22.4759 8 22.0079 7.526 21.4079 7.19C20.8079 6.842 20.1359 6.668 19.3919 6.668C18.6479 6.668 17.9759 6.842 17.3759 7.19C16.7759 7.526 16.3019 8 15.9539 8.612C15.6179 9.224 15.4499 9.92 15.4499 10.7C15.4499 11.48 15.6179 12.176 15.9539 12.788C16.3019 13.4 16.7759 13.88 17.3759 14.228C17.9759 14.564 18.6479 14.732 19.3919 14.732ZM34.0754 17.216C32.2754 17.216 30.8714 16.718 29.8634 15.722C28.8674 14.726 28.3694 13.304 28.3694 11.456V4.4H31.2854V11.348C31.2854 13.604 32.2214 14.732 34.0934 14.732C35.0054 14.732 35.7014 14.462 36.1814 13.922C36.6614 13.37 36.9014 12.512 36.9014 11.348V4.4H39.7814V11.456C39.7814 13.304 39.2774 14.726 38.2694 15.722C37.2734 16.718 35.8754 17.216 34.0754 17.216ZM50.6909 17L48.2609 13.49H48.1169H45.5789V17H42.6629V4.4H48.1169C49.2329 4.4 50.1989 4.586 51.0149 4.958C51.8429 5.33 52.4789 5.858 52.9229 6.542C53.3669 7.226 53.5889 8.036 53.5889 8.972C53.5889 9.908 53.3609 10.718 52.9049 11.402C52.4609 12.074 51.8249 12.59 50.9969 12.95L53.8229 17H50.6909ZM50.6369 8.972C50.6369 8.264 50.4089 7.724 49.9529 7.352C49.4969 6.968 48.8309 6.776 47.9549 6.776H45.5789V11.168H47.9549C48.8309 11.168 49.4969 10.976 49.9529 10.592C50.4089 10.208 50.6369 9.668 50.6369 8.972ZM61.9293 17.216C60.6453 17.216 59.4813 16.94 58.4373 16.388C57.4053 15.824 56.5893 15.05 55.9893 14.066C55.4013 13.07 55.1073 11.948 55.1073 10.7C55.1073 9.452 55.4013 8.336 55.9893 7.352C56.5893 6.356 57.4053 5.582 58.4373 5.03C59.4813 4.466 60.6513 4.184 61.9473 4.184C63.0393 4.184 64.0233 4.376 64.8993 4.76C65.7873 5.144 66.5313 5.696 67.1313 6.416L65.2593 8.144C64.4073 7.16 63.3513 6.668 62.0913 6.668C61.3113 6.668 60.6153 6.842 60.0033 7.19C59.3913 7.526 58.9113 8 58.5633 8.612C58.2273 9.224 58.0593 9.92 58.0593 10.7C58.0593 11.48 58.2273 12.176 58.5633 12.788C58.9113 13.4 59.3913 13.88 60.0033 14.228C60.6153 14.564 61.3113 14.732 62.0913 14.732C63.3513 14.732 64.4073 14.234 65.2593 13.238L67.1313 14.966C66.5313 15.698 65.7873 16.256 64.8993 16.64C64.0113 17.024 63.0213 17.216 61.9293 17.216ZM78.8564 14.66V17H69.1004V4.4H78.6224V6.74H71.9984V9.476H77.8484V11.744H71.9984V14.66H78.8564Z" transform="translate(206 310)" fill="white"/>
<path d="M60.3536 0.353553C60.5488 0.158291 60.5488 -0.158291 60.3536 -0.353553L57.1716 -3.53553C56.9763 -3.7308 56.6597 -3.7308 56.4645 -3.53553C56.2692 -3.34027 56.2692 -3.02369 56.4645 -2.82843L59.2929 0L56.4645 2.82843C56.2692 3.02369 56.2692 3.34027 56.4645 3.53553C56.6597 3.7308 56.9763 3.7308 57.1716 3.53553L60.3536 0.353553ZM0 0.5H60V-0.5H0V0.5Z" transform="translate(246 224) rotate(90)" fill="#898989"/>
<rect width="70" height="25" transform="translate(211 243)" fill="white"/>
<path d="M7.882 6.692V14H7.21V12.432C6.96733 12.9453 6.608 13.3467 6.132 13.636C5.656 13.916 5.096 14.056 4.452 14.056C3.5 14.056 2.75333 13.79 2.212 13.258C1.67067 12.726 1.4 11.9607 1.4 10.962V6.692H2.1V10.906C2.1 11.7273 2.31 12.3527 2.73 12.782C3.15 13.2113 3.74267 13.426 4.508 13.426C5.32933 13.426 5.978 13.1693 6.454 12.656C6.93933 12.1427 7.182 11.452 7.182 10.584V6.692H7.882ZM14.5172 6.636C15.1986 6.636 15.8146 6.79467 16.3652 7.112C16.9159 7.42933 17.3452 7.868 17.6532 8.428C17.9706 8.988 18.1292 9.62733 18.1292 10.346C18.1292 11.0647 17.9706 11.7087 17.6532 12.278C17.3452 12.838 16.9159 13.2767 16.3652 13.594C15.8146 13.902 15.1986 14.056 14.5172 14.056C13.8732 14.056 13.2899 13.9067 12.7672 13.608C12.2446 13.3 11.8386 12.8753 11.5492 12.334V16.716H10.8492V6.692H11.5212V8.414C11.8106 7.854 12.2166 7.42 12.7392 7.112C13.2712 6.79467 13.8639 6.636 14.5172 6.636ZM14.4752 13.426C15.0352 13.426 15.5392 13.2953 15.9872 13.034C16.4352 12.7727 16.7852 12.4087 17.0372 11.942C17.2986 11.4753 17.4292 10.9433 17.4292 10.346C17.4292 9.74867 17.2986 9.21667 17.0372 8.75C16.7852 8.28333 16.4352 7.91933 15.9872 7.658C15.5392 7.39667 15.0352 7.266 14.4752 7.266C13.9152 7.266 13.4112 7.39667 12.9632 7.658C12.5246 7.91933 12.1746 8.28333 11.9132 8.75C11.6612 9.21667 11.5352 9.74867 11.5352 10.346C11.5352 10.9433 11.6612 11.4753 11.9132 11.942C12.1746 12.4087 12.5246 12.7727 12.9632 13.034C13.4112 13.2953 13.9152 13.426 14.4752 13.426ZM26.7925 3.612V14H26.1065V12.278C25.8172 12.8473 25.4112 13.286 24.8885 13.594C24.3658 13.902 23.7732 14.056 23.1105 14.056C22.4292 14.056 21.8132 13.8973 21.2625 13.58C20.7118 13.2627 20.2778 12.824 19.9605 12.264C19.6525 11.704 19.4985 11.0647 19.4985 10.346C19.4985 9.62733 19.6525 8.988 19.9605 8.428C20.2778 7.85867 20.7118 7.42 21.2625 7.112C21.8132 6.79467 22.4292 6.636 23.1105 6.636C23.7638 6.636 24.3472 6.79 24.8605 7.098C25.3832 7.406 25.7938 7.83533 26.0925 8.386V3.612H26.7925ZM23.1525 13.426C23.7125 13.426 24.2118 13.2953 24.6505 13.034C25.0985 12.7727 25.4485 12.4087 25.7005 11.942C25.9618 11.4753 26.0925 10.9433 26.0925 10.346C26.0925 9.74867 25.9618 9.21667 25.7005 8.75C25.4485 8.28333 25.0985 7.91933 24.6505 7.658C24.2118 7.39667 23.7125 7.266 23.1525 7.266C22.5925 7.266 22.0885 7.39667 21.6405 7.658C21.2018 7.91933 20.8518 8.28333 20.5905 8.75C20.3385 9.21667 20.2125 9.74867 20.2125 10.346C20.2125 10.9433 20.3385 11.4753 20.5905 11.942C20.8518 12.4087 21.2018 12.7727 21.6405 13.034C22.0885 13.2953 22.5925 13.426 23.1525 13.426ZM32.2078 6.636C33.1131 6.636 33.8084 6.86933 34.2938 7.336C34.7791 7.79333 35.0218 8.47 35.0218 9.366V14H34.3498V12.698C34.1164 13.1273 33.7758 13.4633 33.3278 13.706C32.8798 13.9393 32.3431 14.056 31.7178 14.056C30.9058 14.056 30.2618 13.8647 29.7858 13.482C29.3191 13.0993 29.0858 12.5953 29.0858 11.97C29.0858 11.3633 29.3004 10.8733 29.7298 10.5C30.1684 10.1173 30.8638 9.926 31.8158 9.926H34.3218V9.338C34.3218 8.65667 34.1351 8.13867 33.7618 7.784C33.3978 7.42933 32.8611 7.252 32.1518 7.252C31.6664 7.252 31.1998 7.336 30.7518 7.504C30.3131 7.672 29.9398 7.896 29.6318 8.176L29.2818 7.672C29.6458 7.34533 30.0844 7.09333 30.5978 6.916C31.1111 6.72933 31.6478 6.636 32.2078 6.636ZM31.8158 13.482C32.4224 13.482 32.9358 13.342 33.3558 13.062C33.7851 12.782 34.1071 12.376 34.3218 11.844V10.472H31.8298C31.1111 10.472 30.5884 10.6027 30.2618 10.864C29.9444 11.1253 29.7858 11.4847 29.7858 11.942C29.7858 12.418 29.9631 12.796 30.3178 13.076C30.6724 13.3467 31.1718 13.482 31.8158 13.482ZM41.5319 13.538C41.3545 13.706 41.1305 13.8367 40.8599 13.93C40.5985 14.014 40.3232 14.056 40.0339 14.056C39.3992 14.056 38.9092 13.8833 38.5639 13.538C38.2185 13.1833 38.0459 12.6933 38.0459 12.068V7.294H36.7019V6.692H38.0459V5.096H38.7459V6.692H41.0699V7.294H38.7459V11.998C38.7459 12.474 38.8579 12.838 39.0819 13.09C39.3152 13.3327 39.6559 13.454 40.1039 13.454C40.5612 13.454 40.9392 13.3187 41.2379 13.048L41.5319 13.538ZM49.3982 10.514H43.1122C43.1309 11.0833 43.2756 11.592 43.5462 12.04C43.8169 12.4787 44.1809 12.8193 44.6382 13.062C45.1049 13.3047 45.6276 13.426 46.2062 13.426C46.6822 13.426 47.1209 13.342 47.5222 13.174C47.9329 12.9967 48.2736 12.74 48.5442 12.404L48.9502 12.866C48.6329 13.2487 48.2316 13.5427 47.7462 13.748C47.2702 13.9533 46.7522 14.056 46.1922 14.056C45.4642 14.056 44.8156 13.8973 44.2462 13.58C43.6769 13.2627 43.2289 12.824 42.9022 12.264C42.5849 11.704 42.4262 11.0647 42.4262 10.346C42.4262 9.63667 42.5756 9.002 42.8742 8.442C43.1822 7.87267 43.6022 7.42933 44.1342 7.112C44.6662 6.79467 45.2636 6.636 45.9262 6.636C46.5889 6.636 47.1816 6.79467 47.7042 7.112C48.2362 7.42 48.6516 7.854 48.9502 8.414C49.2582 8.974 49.4122 9.60867 49.4122 10.318L49.3982 10.514ZM45.9262 7.252C45.4129 7.252 44.9509 7.36867 44.5402 7.602C44.1296 7.826 43.7982 8.148 43.5462 8.568C43.3036 8.97867 43.1636 9.44533 43.1262 9.968H48.7262C48.6982 9.44533 48.5582 8.97867 48.3062 8.568C48.0542 8.15733 47.7229 7.83533 47.3122 7.602C46.9016 7.36867 46.4396 7.252 45.9262 7.252ZM53.4258 14.056C52.8377 14.056 52.2777 13.9673 51.7458 13.79C51.2138 13.6127 50.7984 13.3887 50.4997 13.118L50.8218 12.558C51.1204 12.81 51.5031 13.02 51.9698 13.188C52.4458 13.356 52.9404 13.44 53.4537 13.44C54.1911 13.44 54.7324 13.3187 55.0778 13.076C55.4324 12.8333 55.6097 12.4973 55.6097 12.068C55.6097 11.76 55.5117 11.5173 55.3157 11.34C55.1291 11.1627 54.8957 11.032 54.6158 10.948C54.3358 10.864 53.9484 10.7753 53.4537 10.682C52.8751 10.5793 52.4084 10.4673 52.0538 10.346C51.6991 10.2247 51.3957 10.0287 51.1438 9.758C50.8918 9.48733 50.7658 9.114 50.7658 8.638C50.7658 8.05933 51.0038 7.58333 51.4797 7.21C51.9651 6.82733 52.6511 6.636 53.5378 6.636C54.0044 6.636 54.4664 6.70133 54.9237 6.832C55.3811 6.96267 55.7544 7.13533 56.0438 7.35L55.7218 7.91C55.4231 7.69533 55.0824 7.532 54.6997 7.42C54.3171 7.308 53.9251 7.252 53.5238 7.252C52.8424 7.252 52.3291 7.378 51.9838 7.63C51.6384 7.882 51.4657 8.21333 51.4657 8.624C51.4657 8.95067 51.5637 9.20733 51.7598 9.394C51.9558 9.57133 52.1938 9.70667 52.4738 9.8C52.7631 9.884 53.1644 9.97733 53.6778 10.08C54.2471 10.1827 54.7044 10.2947 55.0498 10.416C55.4044 10.528 55.7031 10.7147 55.9458 10.976C56.1884 11.2373 56.3098 11.5967 56.3098 12.054C56.3098 12.6607 56.0577 13.146 55.5537 13.51C55.0497 13.874 54.3404 14.056 53.4258 14.056Z" transform="translate(217 246)" fill="black"/>
</svg>
