<svg height="8" viewBox="0 0 601 98" xmlns="http://www.w3.org/2000/svg">
  <g fill="#747D82" fill-rule="nonzero">
    <path d="M41 79.1c-3.1.5-6.3.4-9.4.4H19.7V57.4l.4-.2c6.8.1 13.6-.1 20.4.3 5.6.3 9.4 3.8 10 8.6.6 6.4-1.8 11.7-9.5 13zM19.6 17.4l.3-.2c5.5.1 11-.1 16.5.3 6.1.5 9.6 4.2 10.1 9.6.6 6.5-2.3 11.3-8.2 13-2 .6-4 .9-6.1 1H20.3l-.7-.1V17.4zm32.9 29.9l-2.6-.4c.5-.6 1.1-.8 1.6-1 3.4-1.3 6.3-3.3 8.8-6.1C68 31 67.3 13.2 53 5.7c-5.8-3-12-4.3-18.4-4.4-9.7-.2-19.5-.1-29.3-.1L.2 1.1v94.2l2.1-.1h33.5c5.7 0 11.4-.7 16.8-2.6 11.7-4 18.8-13.6 17.1-27a21.8 21.8 0 0 0-17.2-18.3zM330 74a26.2 26.2 0 0 1-35.5-1.7 33 33 0 0 1-3.6-42.8 26.7 26.7 0 0 1 25.4-11.2c11.6 1.3 19.3 8 23.5 18.8 1.5 3.8 2.2 7.7 2.1 11.8A31.9 31.9 0 0 1 330 74M309.4 1.5a45.2 45.2 0 0 0-31.1 14.8 48 48 0 0 0-11.8 41.8 46.5 46.5 0 0 0 35.4 37.5c2.8.6 5.6.9 8.3 1.4h6.2l1.6-.4c7.8-.7 15-3.1 21.5-7.4a45.8 45.8 0 0 0 21-37 46.4 46.4 0 0 0-14.4-37.9 46 46 0 0 0-36.7-12.8M140.3 73.9a26 26 0 0 1-35.8-1.9 32.8 32.8 0 0 1-1-45.4 27.4 27.4 0 0 1 20.6-8.5c9.5.3 17.3 4.6 22.8 13 9 13.5 6 32.7-6.6 42.8m13.4-62a47 47 0 0 0-37.3-10A47.5 47.5 0 0 0 77 59a46.1 46.1 0 0 0 35.4 36.7c2.6.6 5.3.9 8 1.4h6.2l4.7-.7a45.5 45.5 0 0 0 29-16.4 48 48 0 0 0 10.5-35.7 46.3 46.3 0 0 0-17.1-32.4M510.9 71.3a26.6 26.6 0 0 1-41.3-2.2 34.3 34.3 0 0 1-6.9-22.1c.3-9 4.1-18.3 13.6-24.4a27.7 27.7 0 0 1 39 9.3c7.4 12.4 5.6 29-4.4 39.4m11-59.1A46.8 46.8 0 0 0 484 1.9a45 45 0 0 0-28.6 15.3 48 48 0 0 0-11 40.5A46.3 46.3 0 0 0 480 95.6c2.7.6 5.4.9 8.2 1.4h6.2l4.5-.7c13-2.1 23.5-8.3 31.1-19.1a47.8 47.8 0 0 0 8.2-35 45.7 45.7 0 0 0-16.3-30M599.4 62.5c-1.9-7.5-6.5-13-13.1-16.8-5.8-3.3-11.8-6.1-17.7-9.2-1.6-.9-3.3-1.8-4.7-3a10.5 10.5 0 0 1-2.9-11.2c1.3-3.5 4.3-4.9 7.7-5.2 6.9-.7 13.1.9 18.2 5.8l.9.8.4.2 9.3-14.1a46 46 0 0 0-14.8-7.5c-2.5-.6-5.1-1-7.7-1.4h-6.5c-2 .4-4.1.6-6.1 1.1-21.9 5.3-23.9 27-16.1 38.9 3.2 5 7.9 8.2 13 10.9l15.9 8.3c3.1 1.6 5.3 4.1 6.1 7.5 1.5 5.6-.8 10.7-7.2 11.8-5.8 1-11.5.3-16.7-2.8-2.4-1.4-4.8-3-7.2-4.6l-10.3 13.3.8.4a43 43 0 0 0 37.5 9.6 25.6 25.6 0 0 0 21.1-19.6l.9-4.1v-4.9c-.2-1.5-.4-2.8-.8-4.2M412.8 78c-1.9.8-4.1 1.3-6.1 1.4-5.9.2-11.9.1-17.8.1l-1.1-.1v-5.5-15c0-1.3.3-1.8 1.7-1.8 5.4.1 10.8-.1 16.2.1 2.4.1 5 .6 7.3 1.6 4.2 1.7 5.9 5.2 5.8 9.6-.2 4.3-1.9 7.8-6 9.6zm-25-60.5l.3-.2c6 .2 12-.1 17.9.7 5.4.7 8.3 4.3 8.7 9.1.5 6.3-1.9 10.9-7 12.8-2 .8-4.2 1.2-6.3 1.3-4.4.2-8.9.1-13.5.1V17.5h-.1zm30.3 29.1l1.4-.6A19.5 19.5 0 0 0 433 29.8c1.3-8.5-1-16-8-21.5a36.1 36.1 0 0 0-22.2-6.9c-10.8-.2-21.7-.1-32.5-.1l-1.6.1v93.8l1.4.1h35.3c6 0 11.8-1 17.4-3.2a23.5 23.5 0 0 0 14.6-29.3 22 22 0 0 0-19.3-16.2zM256 1.8h-14.6c-1.6 0-2 .5-2 2V58.5l-.5.3-1-1.4-45.3-50.7c-1.5-1.7-2.7-3.9-4.6-4.8-1.9-.8-4.5-.2-6.8-.3-1.4-.1-1.8.4-1.8 1.7v89.3c0 1.4.5 1.9 1.9 1.9h14.4c1.6 0 2.1-.4 2.1-2.1-.1-17.4 0-34.9 0-52.3v-1.9l.4-.2 1.1 1.1 44.8 50c1.6 1.7 2.9 4.1 4.8 5 2 .9 4.7.2 7.1.3 1.5.1 1.9-.4 1.9-1.9V3.6c0-1.6-.5-1.8-1.9-1.8"/>
  </g>
</svg>