<svg height="8" viewBox="0 0 171 26" xmlns="http://www.w3.org/2000/svg">
  <g fill="#747D82" fill-rule="evenodd">
    <path d="M29.94.84l-5.4 7.56h29.88c.34.13.95-.03.96.54v.24c-1.03 1.8-2.48 3.47-3.6 5.22v.18l-.06.12.06.06c.02.59 1.22.57 1.62.54h12.12l3.6-4.98.18-.3c.95-1.56.84-3.6-.06-5.16l-.18-.42-.3-.36C67.1 1.64 64.1.88 61.32.84H29.94"/>
    <path d="M22.32 25.38l10.92-15.12h13.8c1.24.1 1.2.65.48 1.56l-2.76 3.9-.12.18-.18.24-.06.12v.48l.06.12.12.12.18.06.24.06.3.06h.12l.18.06h18.54l-.3.42c-3.43 4.63-9.04 7.91-14.88 7.74H22.32M84.9 17.22l-5.94 8.16h-15.6l5.88-8.16H84.9M108.84 15.3H70.56L81.06.84h15.6l-6 8.34h6.96l6-8.34h15.66L108.84 15.3M107.46 17.22l-5.94 8.16h-15.6l5.94-8.16h15.6M0 20.4h23.04l-1.26 1.8H0v-1.8M0 17.22h25.38l-1.26 1.68H0v-1.68M0 23.64h20.7l-1.26 1.74H0v-1.74M170.22 22.2H147.3l1.26-1.8h21.66v1.8M170.22 25.38h-25.26l1.32-1.74h23.94v1.74M150.9 17.22h19.32v1.68H149.7l1.2-1.68M140.94.84l-10.5 14.46h-16.56L124.38.84h16.56M112.56 17.22l-1.68 2.34c-2.91 4.26 2.86 6.06 6.18 5.82h25.08l5.94-8.16h-35.52"/>
  </g>
</svg>