<svg height="18" viewBox="0 0 50 21" xmlns="http://www.w3.org/2000/svg">
  <g fill="#747D82" fill-rule="evenodd">
    <path d="M32.17 16.57c-.9.26-2.1.36-3.1.36-2.65 0-4.39-1.37-4.39-3.9 0-2.38 1.63-3.93 4-3.93.53 0 1.1.07 1.44.23V5.86h2.05v10.71zm-2.05-5.46a3.1 3.1 0 0 0-1.27-.23c-1.25 0-2.07.76-2.07 2.1 0 1.41.88 2.22 2.35 2.22.25 0 .65 0 .99-.09v-4zm18.92 5.46c-.9.26-2.1.36-3.13.36-2.62 0-4.38-1.37-4.38-3.9 0-2.38 1.63-3.93 4-3.93.55 0 1.1.07 1.44.23V5.86h2.07v10.71zm-2.07-5.46a2.99 2.99 0 0 0-1.25-.23c-1.27 0-2.1.76-2.1 2.1 0 1.41.91 2.22 2.37 2.22.26 0 .64 0 .98-.09v-4zm-11.56 0c.34-.15.83-.19 1.23-.19 1.27 0 2.14.72 2.14 2.01 0 1.53-.98 2.23-2.27 2.25v1.75h.1c2.68 0 4.26-1.46 4.26-4.06 0-2.37-1.7-3.77-4.19-3.77-1.27 0-2.52.3-3.34.64v10.05h2.07v-8.68zM17.61 4.49h.02zM17.1 4.21l.34.38.2-.1-.54-.28z"/>
    <path d="M16.6 3.94l.65.76.23-.13-.25-.3-.64-.33z"/>
    <path d="M16.07 3.66l.99 1.14.23-.12-.57-.68-.65-.34z"/>
    <path d="M15.56 3.39l1.31 1.52.23-.13-.9-1.05-.64-.34zm2.52 2.68l-.15.09.15.17v-.26z"/>
    <path d="M15.05 3.11l1.63 1.9.23-.12-1.23-1.44-.63-.34zm2.94 3l-.23.16.32.38v-.4l-.09-.13z"/>
    <path d="M14.52 2.84l1.97 2.28.25-.12-1.56-1.83-.66-.33zm3.28 3.38l-.23.15.5.6v-.4l-.27-.35z"/>
    <path d="M14.01 2.56l2.3 2.67.24-.13-1.9-2.2-.64-.34zm3.6 3.79l-.23.13.7.82v-.4l-.47-.55z"/>
    <path d="M13.5 2.29l2.63 3.04.23-.12-2.22-2.59-.64-.33zm3.92 4.17l-.23.12.89 1.04v-.4l-.66-.76z"/>
    <path d="M12.98 2.01l2.96 3.43.23-.13-2.54-2.96-.65-.34zm4.25 4.55L17 6.7l1.08 1.25v-.4l-.85-.98z"/>
    <path d="M12.47 1.74l3.28 3.83.23-.15-2.88-3.35-.63-.33zm4.57 4.93l-.23.12 1.27 1.49v-.4l-1.04-1.21z"/>
    <path d="M11.94 1.46l3.62 4.21.23-.15-3.2-3.72-.65-.34zm4.93 5.31l-.25.13 1.46 1.7v-.4l-1.21-1.43z"/>
    <path d="M11.43 1.19l3.94 4.59.25-.15-3.53-4.1-.66-.34zm5.25 5.69l-.23.13 1.63 1.92v-.42l-1.4-1.63z"/>
    <path d="M10.92.91l4.28 4.97.23-.14-3.87-4.5-.64-.33zm5.57 6.07l-.23.13 1.82 2.14v-.4l-1.6-1.87z"/>
    <path d="M10.4.61L15 6l.24-.15-4.2-4.87-.65-.36zm5.9 6.48l-.23.13 2 2.35v-.4L16.3 7.09z"/>
    <path d="M9.88.34l4.94 5.76.23-.13L10.55.7 9.87.34zm6.23 6.86l-.24.12 2.2 2.59v-.43L16.12 7.2z"/>
    <path d="M9.38.08l5.25 6.12.23-.13L10 .42 9.38.08zm6.54 7.22l-.24.13 2.4 2.8v-.4L15.92 7.3z"/>
    <path d="M9.04 0l5.4 6.3.23-.12L9.5.15 9.38.08A.62.62 0 0 0 9.04 0zm6.69 7.4l-.24.14 2.59 3v-.4L15.73 7.4z"/>
    <path d="M9.04 0c-.09 0-.17.02-.26.04l5.47 6.37.25-.12L9.1 0h-.06zm6.52 7.51l-.24.13 2.76 3.24v-.42L15.56 7.5z"/>
    <path d="M8.85.02l-.13.06-.13.07 5.49 6.37.23-.13L8.85.02zm6.52 7.6l-.24.15 2.95 3.43v-.4l-2.71-3.18z"/>
    <path d="M8.64.1L8.4.24l5.49 6.4.23-.13L8.64.1zm6.54 7.63l-.24.14 3.14 3.64v-.4l-2.9-3.38z"/>
    <path d="M8.45.21L8.2.34l5.48 6.4.24-.14L8.45.21zm6.54 7.62l-.24.15 3.33 3.87v-.4l-3.1-3.62z"/>
    <path d="M8.25.32l-.23.12 5.48 6.4.24-.13L8.25.31zm6.55 7.62l-.24.15 3.52 4.08v-.4L14.8 7.94z"/>
    <path d="M8.06.42l-.23.13 5.48 6.4.24-.13L8.06.42zm6.54 7.62l-.23.15 3.7 4.3v-.4L14.6 8.04z"/>
    <path d="M7.87.53l-.23.13 5.48 6.39.24-.13L7.87.52zm6.57 7.62l-.24.15 3.88 4.53v-.4l-3.64-4.28z"/>
    <path d="M7.68.61l-.23.15 5.5 6.4.24-.13L7.69.6zm6.57 7.67L14 8.4l4.07 4.74v-.4l-3.83-4.46z"/>
    <path d="M7.5.72l-.24.13 5.5 6.41.24-.13L7.5.72zm6.55 7.66l-.23.13 4.26 4.97v-.42l-4.03-4.68z"/>
    <path d="M7.3.83l-.23.12 5.5 6.44.24-.15L7.3.83zm6.56 7.66l-.23.12 4.45 5.2v-.41l-4.22-4.91z"/>
    <path d="M7.11.93l-.23.13 5.5 6.43.24-.15-5.5-6.4zm6.56 7.66l-.23.13 4.64 5.4v-.4l-4.4-5.13z"/>
    <path d="M6.92 1.04l-.23.12 5.5 6.44.23-.15-5.5-6.41zm6.56 7.66l-.23.13 4.83 5.63v-.43l-4.6-5.33z"/>
    <path d="M6.73 1.14l-.23.13L12 7.7l.23-.14-5.5-6.42zm6.58 7.67l-.23.12 5 5.84v-.4L13.3 8.81z"/>
    <path d="M6.54 1.23l-.25.12 5.54 6.46.23-.15-5.52-6.43zm6.58 7.68l-.23.13 5.19 6.05v-.4l-4.96-5.78z"/>
    <path d="M6.35 1.33l-.25.13 5.56 6.48a.17.17 0 0 1 .09-.09l.12-.08-5.52-6.44zm6.58 7.69l-.23.12 5.33 6.23a.62.62 0 0 0 .05-.2v-.16l-5.15-6z"/>
    <path d="M6.16 1.44l-.25.13 5.69 6.62v-.08c0-.07.04-.15.08-.21L6.16 1.44zm6.58 7.68l-.17.1-.06.03 5.42 6.33c.06-.09.1-.17.13-.26l-5.32-6.2z"/>
    <path d="M5.97 1.55l-.26.12 5.89 6.86v-.42L5.97 1.55zm6.18 7.6l5.63 6.58.19-.2-5.42-6.3a.36.36 0 0 1-.3 0l-.1-.09z"/>
    <path d="M5.78 1.65l-.26.13L17.6 15.83l.17-.08.06-.07-5.54-6.45h-.02l-.5-.3-.1-.1c-.04-.07-.04-.1-.06-.15v-.23l-5.82-6.8z"/>
    <path d="M5.59 1.76l-.26.12L17.4 15.94l.23-.13z"/>
    <path d="M5.4 1.84l-.26.13 12.09 14.07.23-.12z"/>
    <path d="M5.2 1.95l-.25.12 12.09 14.08.23-.13z"/>
    <path d="M5.02 2.05l-.26.13 12.09 14.08.23-.13z"/>
    <path d="M4.8 2.16l-.23.13 12.09 14.1.23-.16z"/>
    <path d="M4.61 2.26l-.23.13 12.09 14.1.23-.15z"/>
    <path d="M4.42 2.37l-.23.13 12.1 14.1.24-.15z"/>
    <path d="M4.23 2.46L4 2.58 16.1 16.7l.24-.15z"/>
    <path d="M4.04 2.56l-.23.13 12.1 14.12.24-.13z"/>
    <path d="M3.85 2.67l-.23.12L9.5 9.65l.2.13c.08.04.16.15.16.25v.02l5.87 6.86.23-.12L3.86 2.67z"/>
    <path d="M3.66 2.77l-.23.13 5.52 6.46.7.38-5.99-6.97zm6.18 7.2l.02.06v.36l5.68 6.63.23-.13-5.93-6.92z"/>
    <path d="M3.47 2.88L3.24 3 8.4 9.04l.7.38-5.63-6.54zm6.4 7.43v.4l5.5 6.41.23-.12-5.74-6.7z"/>
    <path d="M3.28 2.98l-.23.13 4.82 5.61.68.38-5.27-6.12zm6.58 7.65v.42l5.32 6.18.23-.13-5.55-6.47z"/>
    <path d="M3.09 3.07l-.23.13 4.46 5.2.68.4L3.1 3.08zm6.77 7.9v.4L15 17.34l.23-.13-5.36-6.25z"/>
    <path d="M2.9 3.17l-.23.13 4.1 4.79.68.4L2.9 3.17zm6.96 8.11v.4l4.94 5.76.23-.13-5.17-6.03z"/>
    <path d="M2.7 3.28l-.22.13 3.74 4.38.68.38-4.2-4.89zm7.16 8.32v.42l4.74 5.55.24-.15-4.98-5.82z"/>
    <path d="M2.52 3.39l-.23.12 3.38 3.96.68.38L2.52 3.4zm7.34 8.55v.4l4.58 5.33.23-.14-4.8-5.6z"/>
    <path d="M2.33 3.5l-.23.12 3.02 3.53.7.39-3.5-4.05zm7.53 8.76v.4l4.39 5.12.23-.15-4.62-5.37z"/>
    <path d="M2.14 3.6l-.24.13 2.67 3.1.7.4L2.14 3.6zm5.54 6.86l.55.63v-.23c0-.04-.04-.1-.08-.13l-.47-.27zm2.18 2.11V13l4.2 4.89.23-.15-4.43-5.17z"/>
    <path d="M1.95 3.68l-.24.13 2.31 2.7.7.41-2.77-3.24zm5.18 6.46l1.1 1.27V11l-.4-.47-.7-.4zm2.73 2.77v.4l4 4.68.24-.13-4.24-4.95z"/>
    <path d="M1.76 3.79l-.24.13 1.97 2.3.68.38L1.76 3.8zm4.82 6.05l1.65 1.9v-.4l-.95-1.12-.7-.38zm3.28 3.39v.4l3.81 4.47.24-.13-4.05-4.74z"/>
    <path d="M1.57 3.9l-.24.12 1.61 1.89.68.38-2.05-2.4zm4.48 5.62l2.18 2.54v-.4l-1.5-1.75-.68-.39zm3.81 4.05v.4l3.64 4.23.24-.12-3.88-4.51z"/>
    <path d="M1.38 4l-.24.13L2.4 5.59l.68.38L1.37 4zM5.5 9.2l2.73 3.18v-.4L6.18 9.61l-.68-.4zm4.36 4.69v.4l3.45 4.02.24-.13-3.69-4.3z"/>
    <path d="M1.19 4.1l-.24.13.9 1.04.67.4-1.33-1.56zM4.95 8.9l3.28 3.83v-.4l-2.6-3.03-.68-.4zm4.91 5.31v.4l3.26 3.81.24-.12-3.5-4.09z"/>
    <path d="M1 4.21l-.24.13.53.61.7.4-1-1.14zM4.4 8.6l3.83 4.45v-.4L5.08 8.97 4.4 8.6zm5.46 5.95v.4l3.07 3.58.24-.13-3.3-3.85z"/>
    <path d="M.8 4.3l-.25.12.2.24.69.38L.8 4.3zm3.05 3.98l4.38 5.1v-.43l-3.68-4.3-.7-.37zm6.01 6.58v.4l2.88 3.39.24-.15-3.12-3.64z"/>
    <path d="M.61 4.4l-.14.09.42.23L.6 4.4zm2.7 3.56l4.92 5.73v-.4L4 8.36l-.7-.4zm6.55 7.22v.42l2.71 3.15.24-.14-2.95-3.43z"/>
    <path d="M2.77 7.64l5.46 6.37v-.4L3.45 8.04l-.68-.4zm7.1 7.88v.4l2.51 2.94.24-.15-2.76-3.2z"/>
    <path d="M2.22 7.34l6.01 7.01v-.42L2.9 7.73l-.68-.39zm7.64 8.5v.4l2.33 2.73.23-.15-2.56-2.99z"/>
    <path d="M1.67 7.03l6.56 7.64v-.4L2.35 7.4l-.68-.38zm8.2 9.12v.42l2.13 2.5.23-.13-2.37-2.79z"/>
    <path d="M1.12 6.71l7.11 8.28v-.4L1.8 7.1l-.68-.4zm8.74 9.78v.4l1.95 2.29.23-.13-2.18-2.56z"/>
    <path d="M.57 6.4l7.66 8.92v-.4L1.25 6.8l-.68-.4zm9.3 10.4v.4l1.77 2.08.23-.12-2-2.35z"/>
    <path d="M.02 6.1l8.21 9.54v-.4L.72 6.48l-.7-.38zm9.84 11.02v.43l1.6 1.84.22-.13-1.82-2.14z"/>
    <path d="M0 6.07v.3l8.23 9.59v-.4L.17 6.16 0 6.07zm9.86 11.4v.25c0 .04-.02.08-.04.1l1.44 1.67.23-.12-1.63-1.9z"/>
    <path d="M0 6.29v.42l8.23 9.59v-.4L0 6.29zm9.84 11.49c-.02.08-.08.17-.15.19l-.02.02 1.4 1.61.23-.13-1.46-1.69z"/>
    <path d="M0 6.63v.4l8.23 9.59v-.4L0 6.61zm9.72 11.32c0 .02 0 .02-.03.02l-.2.13 1.39 1.6.23-.12-1.4-1.63z"/>
    <path d="M0 6.94v.4l8.23 9.6v-.4L0 6.93zm9.55 11.12l-.26.14 1.42 1.63.23-.15-1.4-1.62z"/>
    <path d="M0 7.28v.4l8.23 9.6v-.41L0 7.28zm9.36 10.88l-.15.09c-.04.02-.09.02-.13.02l1.44 1.67.23-.15-1.4-1.63z"/>
    <path d="M0 7.6V8l8.23 9.59v-.4L0 7.59zm8.7 10.56l1.63 1.88.23-.14-1.42-1.63-.08.02h-.02c-.07 0-.1-.02-.15-.04l-.2-.09z"/>
    <path d="M0 7.92v.42l10.14 11.81.23-.15-1.52-1.78-.47-.25a.3.3 0 0 1-.15-.25v-.22L0 7.92z"/>
    <path d="M0 8.25v.4l9.95 11.6.23-.12z"/>
    <path d="M0 8.57v.4l9.76 11.4.23-.13z"/>
    <path d="M0 8.89v.42l9.59 11.16.23-.13z"/>
    <path d="M0 9.23v.4l9.4 10.94.23-.12z"/>
    <path d="M0 9.55v.4l9.19 10.7.19-.05.06-.05L0 9.55z"/>
    <path d="M0 9.86v.43l8.91 10.37h.13c.06 0 .13 0 .19-.02L0 9.86z"/>
    <path d="M0 10.2v.4l8.42 9.83.3.17a.5.5 0 0 0 .25.06L0 10.2z"/>
    <path d="M0 10.52v.4l7.87 9.19.7.4z"/>
    <path d="M0 10.86v.4l7.32 8.53.7.4z"/>
    <path d="M0 11.18v.4l6.77 7.9.68.4z"/>
    <path d="M0 11.5v.4l6.22 7.26.68.4z"/>
    <path d="M0 11.83v.4l5.65 6.59.7.4z"/>
    <path d="M0 12.15v.4l5.1 5.95.7.4z"/>
    <path d="M0 12.47v.4l4.55 5.31.7.4L0 12.47z"/>
    <path d="M0 12.8v.4l4 4.66.7.4z"/>
    <path d="M0 13.12v.4l3.45 4.03.7.4z"/>
    <path d="M0 13.44v.42l2.9 3.37.68.4z"/>
    <path d="M0 13.78v.4l2.33 2.73.7.4z"/>
    <path d="M0 14.1v.4l1.78 2.1.7.38z"/>
    <path d="M0 14.41v.43l1.23 1.42.7.4z"/>
    <path d="M0 14.75v.4l.68.79.7.4z"/>
    <path d="M0 15.07v.1c0 .22.15.47.32.58l.5.27-.82-.95z"/>
    <path d="M.13 15.56c.04.04.06.08.1.1l-.1-.1z"/>
  </g>
</svg>