<svg height="18" viewBox="0 0 57 20" xmlns="http://www.w3.org/2000/svg">
  <g fill-rule="nonzero" fill="none">
    <path fill="#747D82" d="M0 20V0h57v20z"/>
    <path d="M28.58 20c7.81 0 15.72-.93 22.99-4.1C53.9 14.9 57 12.99 57 10c0-3.01-3.11-4.91-5.43-5.92C44.3.93 36.39 0 28.58 0 20.8 0 12.78.88 5.54 4.08 3.4 5.04 0 7.16 0 9.99c0 2.82 3.4 4.96 5.54 5.92C12.77 19.12 20.8 20 28.58 20z" fill="#FFF"/>
    <path d="M37.15 11.15a.88.88 0 0 0-.5-.18h-2.69v.44h3.56c.17 0 .33-.07.48-.16V14h-9c.16-.13.3-.3.3-.5V6.51c0-.22-.14-.38-.3-.52h9v2.48a.88.88 0 0 0-.48-.17h-3.56v.52h2.7a.8.8 0 0 0 .5-.18v2.5zM45.9 12.42h-1.98l-.4 1.19a.46.46 0 0 0-.02.12c0 .1.04.2.07.27H39c.1-.1.17-.22.22-.35l2.44-6.73c.07-.16.12-.34.12-.51a.94.94 0 0 0-.12-.41h7.4a.94.94 0 0 0-.1.4c0 .18.04.36.1.51l2.7 6.72c.04.15.12.26.24.36h-5.71c.03-.1.06-.2.06-.3a.65.65 0 0 0-.03-.17l-.42-1.1zM21.22 11.05v2.42c0 .21.14.38.29.52H16c.15-.14.3-.3.3-.52V6.52c0-.23-.15-.38-.3-.52h5.52c-.16.14-.29.3-.29.52v2.4l1.6-2.4a.47.47 0 0 0 .1-.25c0-.1-.06-.2-.1-.27h5.45c-.24.13-.43.3-.58.52L25.8 9.3l2.63 4.18c.14.23.33.4.57.52h-6.37c.05-.06.1-.14.1-.22 0-.1-.05-.21-.1-.3l-1.41-2.43zM8 6h5c-.15.14-.26.3-.26.52v6.96c0 .22.13.38.26.52H8c.13-.14.26-.3.26-.52V6.52c0-.23-.13-.38-.26-.52z" fill="#747D82"/>
    <path fill="#FFF" d="M44 11h1l-.51-1z"/>
  </g>
</svg>