<svg height="20" viewBox="0 0 299 90" xmlns="http://www.w3.org/2000/svg">
  <g fill-rule="nonzero" fill="none">
    <path d="M197.8 35.73h8.72c1.9 0 3.52.19 5.19 1.3a4.23 4.23 0 0 1 1.84 4.4c-.47 2.62-3.6 5.55-8.53 5.55h-5.55l-1.27 7.2h-3.66l3.26-18.45zm2.14 8.6h5.4c2.72 0 4.3-1.52 4.55-2.97.22-1.25-.29-2-1.1-2.46a4.74 4.74 0 0 0-2.53-.52h-5.28l-1.04 5.95zM240.3 49.86a11.78 11.78 0 0 0 6.53 1.83c2.97 0 4.95-1.04 5.22-2.56.22-1.3-.57-2.28-2.71-2.49-1.07-.1-1.9-.2-3.12-.34-4.08-.43-5.95-2.5-5.48-5.17.56-3.17 3.81-5.4 8.8-5.4 2.96 0 5.48.81 7.47 1.92l-2.44 2.3a12.2 12.2 0 0 0-5.7-1.42c-2.22 0-4.18.89-4.5 2.65-.18 1.03.63 2.07 3.01 2.36.63.07 1.52.18 2.66.28 4.43.4 6.11 2.8 5.66 5.3-.6 3.4-4.22 5.37-9.4 5.37-3.55 0-6.53-.83-8.76-2.54l2.77-2.09zM266.66 38.22h-6.6l.44-2.49h16.86l-.44 2.5h-6.61l-2.81 15.95h-3.65zM235.4 39.05c-.85-1.6-3.15-3.32-6.95-3.32h-1.65c-3.78 0-6.68 1.72-8.12 3.32-.96 1.09-1.32 1.63-2.11 6.07-.79 4.43-.61 4.97-.02 6.05.87 1.6 3.16 3.32 6.96 3.32h1.64a11.1 11.1 0 0 0 8.13-3.32c.98-1.08 1.34-1.62 2.11-6.05.78-4.44.6-4.98.02-6.07m-5.8 11.3a6.23 6.23 0 0 1-3.96 1.34H224c-1.73 0-2.87-.62-3.48-1.34-.8-.93-.97-1.46-.3-5.23.66-3.79 1.03-4.31 2.14-5.24a6.2 6.2 0 0 1 3.96-1.35h1.64c1.73 0 2.87.63 3.48 1.35.8.93.97 1.45.3 5.24-.67 3.77-1.02 4.3-2.13 5.23M285.8 39.9a6.2 6.2 0 0 1 3.96-1.35h8.75l.49-2.82h-8.74c-3.79 0-6.7 1.72-8.13 3.34-.98 1.08-1.31 1.46-2.1 5.9-.78 4.45-.57 4.82.01 5.91.88 1.6 3.17 3.33 6.97 3.33h8.73l.5-2.8h-8.75c-1.71 0-2.86-.63-3.48-1.35-.7-.84-.93-1.22-.52-3.92h11.98l.41-2.49h-11.94c.52-2.57.9-2.94 1.87-3.76M182.86 39.05c-.86-1.6-3.17-3.32-6.97-3.32h-.2a11.1 11.1 0 0 0-8.13 3.32c-.96 1.09-1.33 1.63-2.1 6.07l-1.64 9.21h3.65l1.3-7.37h10.1l-1.31 7.37h3.65l1.63-9.21c.79-4.44.61-4.98.02-6.07m-11.61.83a6.21 6.21 0 0 1 3.96-1.35h.2c1.72 0 2.87.63 3.48 1.35.74.87.94 1.4.41 4.6h-10.08c.6-3.2.98-3.73 2.03-4.6M146.54 50.21l2.55-14.48h3.65s-2.1 12.1-2.42 13.63c-.4 1.94.1 2.03 1.59 2.03h9.8l-.48 2.81h-11.95c-3.06 0-3.03-2.42-2.74-3.99M116.73 25.46c7.64 21.98-11.94 48.74-43.72 59.78S9.3 87.42 1.65 65.44C-5.98 43.48 13.59 16.72 45.37 5.68c31.78-11.04 63.73-2.18 71.36 19.8z" fill="#747D82"/>
    <g fill="#FFF">
      <path d="M11.88 62.85C50.08 53.2 75.42 46 109.4 39.57c1.05-.15 1.67-.6 0-.62l-58.87 1.07c.23 2.4-2.32 5.83-7.66 9.13-2.73 1.7-8.97 5-31.06 13.32-.3.12-.16.43.07.38M74 49.6l-6.7 8.6c-.93 1.25-2.72 3.23-5.23 3.33l-40.85 1.3c-.26.01-.19-.16-.08-.2l52.74-13.29c.28-.1.29.08.12.26M83.15 27.77c5.24.07 5.08 3.36 2.64 6.63a63.9 63.9 0 0 1-2.32 3.02l-33.85.37C45 33.64 36.14 30.25 30.8 28.35c-1-.4-.42-.4.4-.4 5.13-.02 49.18-.21 51.96-.18"/>
    </g>
    <g fill="#FFF">
      <path d="M92.25 7.9l-.55.6c-5.72-.95-11.97-1.2-20.22-.78l1.87-2.67c5.16-.46 15.51 1.54 18.9 2.86M92.53 7.53l.66-.78c-1.86-1.02-6.04-1.6-8.77-1.57 3.17.5 6.68 1.5 8.1 2.35M26 79.44c-.31.56-1.96.28-3.68-.66-1.72-.93-2.87-2.14-2.55-2.71.3-.57 1.95-.28 3.67.65 1.72.94 2.86 2.15 2.56 2.72M29.5 18.09v2.73c4.35-2.94 8.43-5.29 10.67-6.25.04-.75.14-2 .31-3.22a89.52 89.52 0 0 0-10.99 6.74zm-9.91 9.01l2.95-2.44.08.09L19.48 28l-.06.5a95.66 95.66 0 0 1 7.9-6.19v-2.63a82.5 82.5 0 0 0-7.62 6.56l-.11.86zm-5.88 7.56l.2-.29.67-2.46c-.6.77-1.15 1.52-1.67 2.28.77.3.28.14.8.47zm1.27-1.69a32.9 32.9 0 0 1 2.31-2.48l.25-2.02c-.67.72-1.3 1.44-1.91 2.16l-.65 2.34z"/>
    </g>
  </g>
</svg>