<svg height="18" viewBox="0 0 73 27" xmlns="http://www.w3.org/2000/svg">
  <g fill="#747D82" fill-rule="evenodd">
    <path d="M49.73 19.63c.3 0 .45.31.56.78l.2.9c.26 1.21.67 3.11 1.18 4.38.23.59.58.91.99.91.6 0 1.23-.71 1.59-1.82.47-1.48 3.3-13.63 4.5-18.71l.08-.34c.03-.09.09-.15.15-.15.07 0 .14.05.14.17v.02c.1 5.14.35 14.19.74 15.11.22.52.54.79.95.79.48 0 1.04-.38 1.45-.96l.74-1.08c.67-1 1.44-2.12 1.66-2.36.34-.35.74-.35 1.29.02l.28.2c.6.42 1.58 1 2.68 1.3.74.2 1.68.24 2.34.24l1.02-.02.3-1.62-.99.02c-.7 0-1.67-.04-2.25-.23a6.92 6.92 0 0 1-1.9-1.17c-.33-.24-.66-.5-1.01-.73-.43-.28-.8-.41-1.14-.41-.46 0-.91.25-1.46.8-.74.76-1.92 2.47-2.4 3.17-.02.04-.06.09-.12.09-.12 0-.12-.15-.12-.2-.02-1.95-.33-12.63-.55-15.81-.1-1.41-.54-2.29-1.16-2.29-.5 0-1.24.65-1.7 2.5a646.65 646.65 0 0 0-4.8 20.36c-.03.14-.2.14-.24 0l-.32-1.67c-.33-1.63-.6-3.04-1.16-3.81-.63-.88-1.57-.94-2.7-.2-.25.17-.5.37-.75.59-.72.62-1.55 1.32-2.91 1.32H31.54l-.32 1.74h14.04c1.43 0 2.77-.81 3.56-1.37.4-.3.68-.46.9-.46M11.65 13.06c-2.55-.14-1.76-5.37.95-5.23 2.76.16 1.86 5.38-.95 5.23m3.43-6.3l-.22 1.15c-.3-.59-1.14-1.3-2.5-1.3-2.4 0-3.83 1.96-4.06 4.04-.28 2.38 1.28 3.77 2.86 3.77 1.5 0 2.3-.65 2.78-1.4l-.03.12c-.14.7.45 1.12 1 1.12h.48l1.34-7.5h-1.65"/>
    <path d="M37.6 13.06c-2.54-.14-1.75-5.37.95-5.23 2.76.16 1.86 5.38-.95 5.23m3.43-6.29l-.22 1.14c-.3-.58-1.14-1.3-2.5-1.3-2.4 0-3.82 1.96-4.06 4.04-.27 2.38 1.28 3.77 2.87 3.77 1.5 0 2.29-.65 2.78-1.4l-.03.12c-.14.7.44 1.12 1 1.12h.48l1.33-7.49h-1.65M27.47 6.77h-.43l-1.37 7.5h1.73l1.16-6.35c.12-.66-.4-1.15-1.09-1.15M29.08 4.12c-.3-.4-.91-.44-1.37-.1-.44.34-.56.93-.26 1.32.3.4.92.45 1.37.1.44-.33.57-.92.26-1.32M7.13 11.1c0-3.1-3.87-2.68-3.87-4.68 0-.38.34-1.39 1.75-1.39 1.3 0 1.89.5 2.18.7.06-.14.63-1.12.72-1.38-.32-.22-1.1-.67-2.77-.67-2.45 0-3.7 1.72-3.7 3.04 0 3.12 3.9 2.7 3.9 4.62 0 1.28-1.2 1.66-2.23 1.66-.8 0-1.65-.27-2.34-.86L0 13.52c.77.52 1.82.9 3.13.9 2.2 0 4-1.39 4-3.32M46.58 7.72c1.03 0 1.32.3 1.7.48l.6-1.14a3.76 3.76 0 0 0-2.14-.52h-.02c-2.1 0-3.1 1.35-3.1 2.39 0 2.14 3.01 1.8 3.01 3.12 0 .65-.67 1.09-1.58 1.09-.78 0-1.4-.36-1.86-.65-.07.14-.48.88-.62 1.1.33.24 1.15.76 2.58.76 1.82 0 3.22-1.17 3.22-2.47 0-2.22-3.06-1.99-3.06-3.23 0-.49.58-.93 1.27-.93M32.31 7.97h1.9l.22-1.19h-1.9l.22-1.14c.12-.66-.4-1.16-1.1-1.16h-.42l-.42 2.3h-1.09l-.22 1.2 1.08-.01-.73 4.04c-.35 1.75.74 2.43 2.01 2.43.42 0 1.02-.06 1.3-.16.1-.43.27-1.35.27-1.35-.61.18-2.1.46-1.86-.9l.74-4.06M22.2 14.27h1.73l.85-4.7c.33-1.8-.6-2.96-2.06-2.96a3.1 3.1 0 0 0-2.78 1.35c.15-.82-.55-1.19-1.02-1.19h-.43l-1.38 7.5h1.73l.71-3.89c.37-1.97 1.6-2.42 2.46-2.42.42 0 1.3.28 1.04 1.69l-.86 4.62"/>
  </g>
</svg>