<svg height="20" viewBox="0 0 48 27" xmlns="http://www.w3.org/2000/svg">
  <path d="M.006.006h47.982v26.89H.006V.007zm25.62 18.452h-2.915v.21l.596.403v4.465l-.596.402v.212h2.725v-.212l-.625-.402v-1.841h.292c.293 0 .415.093.5.411l.53 2.044h2.075v-.212l-.63-.402-.364-1.228c-.194-.592-.685-.797-1.086-.883v-.107c.897-.147 1.373-.62 1.373-1.344 0-1.004-.637-1.516-1.875-1.516zm-9.854-9.482c0-3.812-3.067-6.901-6.857-6.901-3.783 0-6.853 3.089-6.853 6.9 0 3.806 3.07 6.89 6.853 6.89 3.79 0 6.857-3.085 6.857-6.89zm30.16 0c0-3.812-3.068-6.901-6.856-6.901-3.785 0-6.854 3.089-6.854 6.9 0 3.806 3.07 6.89 6.854 6.89 3.788 0 6.855-3.085 6.855-6.89zm-15.08 0c0-3.812-3.068-6.901-6.857-6.901-3.784 0-6.853 3.089-6.853 6.9 0 3.806 3.07 6.89 6.853 6.89 3.789 0 6.856-3.085 6.856-6.89zm12.181 15.288c1.381 0 2.054-.755 2.054-1.895 0-.932-.48-1.2-1.035-1.534-.15-.09-.591-.297-.712-.371-.438-.27-.756-.424-.756-.88 0-.374.286-.556.75-.556.344 0 .573.05.702.1l.48.796h.229v-1.366c-.208-.093-.709-.216-1.403-.216-1.23 0-1.982.671-1.982 1.733 0 .74.366 1.248.97 1.634.097.062.394.22.504.277.687.355.973.507.973.976 0 .313-.175.618-.81.618-.35 0-.7-.051-.906-.14l-.523-.93h-.222v1.372c.308.182.864.382 1.687.382zm-9.875-.728l-.597.402v.212h2.697v-.212l-.598-.402v-4.458h.702l.644 1.2h.229v-1.82H31.58v1.82h.232l.644-1.2h.702v4.458zm-4.736-4.868l.596.403v4.465l-.596.402v.212h2.696v-.212l-.597-.402v-4.465l.597-.403v-.21h-2.696v.21zm-11.42.403v3.45c0 1.01.46 1.743 1.677 1.743.722 0 1.123-.345 1.417-.698h.12v.584h1.946v-.212l-.594-.402v-4.465l.594-.403v-.21h-2.619v.21l.523.403v3.806a1.05 1.05 0 0 1-.874.427c-.486 0-.687-.351-.687-.856V19.07l.522-.403v-.21h-2.619v.21l.595.403zm-2.714-.729c-1.474 0-2.655 1.048-2.655 2.961 0 1.914 1.181 2.961 2.655 2.961.823 0 1.3-.165 1.671-.326v-1.561h-.235l-.53 1.027c-.164.08-.265.126-.68.126-.83 0-1.264-.696-1.264-2.227 0-1.53.435-2.225 1.264-2.225.258 0 .516.037.68.118l.53 1.036h.235v-1.564c-.378-.195-.848-.326-1.67-.326zm-3.17.116H6.88v.21l.594.403v4.465l-.594.402v.212h4.25v-1.68h-.221l-.623 1.11h-1.31v-2.025h.609l.422.695h.222v-2.028h-.222l-.422.713h-.608v-1.857h1.338l.572.907h.23v-1.527zm-6.661 5.806c1.38 0 2.054-.755 2.054-1.895 0-.932-.481-1.2-1.035-1.534-.15-.09-.592-.297-.712-.371-.439-.27-.756-.424-.756-.88 0-.374.286-.556.75-.556.344 0 .573.05.702.1l.48.796h.228v-1.366c-.207-.093-.708-.216-1.402-.216-1.23 0-1.983.671-1.983 1.733 0 .74.366 1.248.97 1.634.098.062.395.22.504.277.687.355.973.507.973.976 0 .313-.175.618-.81.618-.35 0-.7-.051-.906-.14l-.523-.93H2.77v1.372c.308.182.865.382 1.688.382zm36.155-.728l-1.76-5.15-1.046.194-1.518 4.889-.586.469v.212h1.838v-.212l-.493-.47.176-.655h1.597l.204.723-.515.402v.212h2.654v-.212l-.55-.402zM37.4 22.158l.565-2.105h.08l.593 2.105h-1.238zM24.811 21.05V19.1h.513c.55 0 .71.304.71.975 0 .673-.16.975-.71.975h-.513z" fill="#747D82" fill-rule="nonzero"/>
</svg>