<?xml version="1.0" encoding="UTF-8" standalone="no"?>
<svg width="48px" height="48px" viewBox="0 0 48 48" version="1.1" xmlns="http://www.w3.org/2000/svg" xmlns:xlink="http://www.w3.org/1999/xlink" xmlns:sketch="http://www.bohemiancoding.com/sketch/ns">
    <!-- Generator: Sketch 3.3.2 (12043) - http://www.bohemiancoding.com/sketch -->
    <title>brand</title>
    <desc>Created with Sketch.</desc>
    <defs></defs>
    <g id="Page-1" stroke="none" stroke-width="1" fill="none" fill-rule="evenodd" sketch:type="MSPage">
        <g id="Artboard-1" sketch:type="MSArtboardGroup" fill="#FFFFFF">
            <path d="M0,3.86711994 C0,1.73136857 1.73670271,0 3.86711994,0 L44.1328801,0 C46.2686314,0 48,1.73670271 48,3.86711994 L48,44.1328801 C48,46.2686314 46.2632973,48 44.1328801,48 L3.86711994,48 C1.73136857,48 0,46.2632973 0,44.1328801 L0,3.86711994 Z M22.4339245,37.1418438 C20.7858113,37.1418438 20.6739862,37.3544269 20.6739862,37.3544269 L21.0787966,39.9509292 C21.0787966,39.9509292 21.4391559,40.2 22.3805177,40.2 C23.3218795,40.2 23.6288757,39.9509292 23.6288757,39.9509292 L24.1834254,37.3686153 C24.1834254,37.3686153 24.0820812,37.1418438 22.4339245,37.1418438 Z M33.7943065,17.8910801 L33.7039661,17.8186352 C33.7039661,17.8186352 33.8646657,17.7417039 33.9520209,17.6556452 C34.1227438,17.4871081 34.2220616,17.2764698 34.1881349,17.2997635 C33.8951278,17.5002136 33.3226015,17.4025743 33.3226015,17.4025743 C33.3226015,17.4025743 33.5207577,17.3650921 33.6380521,17.2876525 C33.817273,17.1696809 33.8691762,17.0066246 33.8471903,17.0223159 C33.7039661,17.1225409 33.548714,17.1519786 33.4409418,17.1519786 C32.764086,17.1540118 32.6542873,16.5581204 32.0273519,16.5581204 C31.7698186,16.5581204 31.2282338,16.8279434 31.0600167,16.5601536 C30.1376338,14.3184723 28.7485139,11.0779883 27.3943666,7.8 C21.8025222,8.95929527 19.3163307,18.5947549 24.7534459,20.3063817 C21.7970529,19.443231 20.3660095,16.484681 20.814247,13.9134394 C18.7902384,14.618639 16.1538065,15.7197662 14.0948689,18.2626531 C12.8609794,19.7864713 12.8660128,21.416106 12.8660128,24.6403904 C12.8050886,25.631701 12,26.008777 12,26.008777 C12,26.008777 12.9593384,26.0493311 13.2657898,25.5485817 C14.5870127,27.8348394 20.965468,33.7164463 20.965468,35.0611192 C20.965468,35.0611192 20.7368497,35.6923932 20.8067295,35.7009902 C21.3872744,35.7698549 24.0895769,35.9060813 24.0895769,35.9060813 C24.2073724,35.4489359 23.9353053,35.1278622 23.9353053,34.8069874 C23.9353053,31.5355187 28.5149057,28.5010541 29.0530042,28.1289949 C29.2451682,28.2444029 29.580077,28.3456445 29.7442848,28.4180673 C31.2861292,29.09794 29.5002175,32.9500287 27.9019811,32.9500287 C26.0606799,32.9500287 28.9406779,29.8552964 28.9985951,29.7813929 C29.190258,29.5368969 28.6676738,29.763138 28.502442,29.600148 C28.4016207,29.5004092 28.5149057,29.233636 28.2638439,29.440672 C28.2638439,29.440672 24.4394553,32.7890498 27.1437842,33.7741281 C32.2694581,35.6417392 39.7674502,23.6289243 33.7943065,17.8910801 Z" id="brand" sketch:type="MSShapeGroup"></path>
        </g>
    </g>
</svg>