<?xml version="1.0" encoding="UTF-8" standalone="no"?>
<svg width="90px" height="16px" viewBox="0 0 90 16" version="1.1" xmlns="http://www.w3.org/2000/svg" xmlns:xlink="http://www.w3.org/1999/xlink" xmlns:sketch="http://www.bohemiancoding.com/sketch/ns">
    <!-- Generator: Sketch Beta 3.2.1 (9971) - http://www.bohemiancoding.com/sketch -->
    <title>logo</title>
    <desc>Created with Sketch Beta.</desc>
    <defs></defs>
    <g id="Page-1" stroke="none" stroke-width="1" fill="none" fill-rule="evenodd" sketch:type="MSPage">
        <g id="03-Signup" sketch:type="MSArtboardGroup" transform="translate(-250.000000, -28.000000)" fill="#FFFFFF">
            <path d="M256.854832,43.754067 C259.747128,43.754067 261.262445,42.3757077 262.08714,40.8566387 L259.946277,39.686635 C259.390928,40.7579107 258.202195,41.6107235 256.854832,41.6107235 C254.437385,41.6107235 252.693272,39.7657822 252.693272,37.2662129 C252.693272,34.7672456 254.437385,32.9208468 256.854832,32.9208468 C258.202195,32.9208468 259.390928,33.7751489 259.946277,34.8463928 L262.08714,33.6560478 C261.262445,32.1218021 259.747128,30.7782955 256.854832,30.7782955 C252.872099,30.7782955 250,33.1799605 250,37.2662129 C250,41.3327261 252.872099,43.754067 256.854832,43.754067 Z M267.608326,30.580871 L262.709051,43.828018 L265.778087,43.828018 L266.578761,41.591111 L272.031173,41.591111 L272.83191,43.828018 L275.901673,43.828018 L275.901673,43.7445934 L271.001671,30.580871 L267.608326,30.580871 Z M267.322323,39.3549327 L269.304651,33.5936933 L271.287705,39.3549327 L267.322323,39.3549327 Z M284.792373,39.1517101 C286.121563,38.8598983 287.50581,37.575356 287.50581,34.9181893 C287.50581,32.1405909 285.918905,30.580871 283.212611,30.580871 L277.000044,30.580871 L277.000044,43.828018 L279.745372,43.828018 L279.745372,39.3549327 L281.852227,39.3549327 L284.528843,43.828018 L287.582644,43.828018 L284.792373,39.1517101 Z M282.807201,37.2901345 L279.745372,37.2901345 L279.745372,32.8177463 L282.783339,32.8177463 C283.917772,32.8177463 284.811874,33.6466376 284.811874,34.9879263 C284.811874,36.3778503 283.941667,37.2901345 282.807201,37.2901345 Z M295.089761,43.828018 L295.191912,43.7344227 L295.191912,32.8177463 L299.139088,32.8177463 L299.139088,30.580871 L288.670111,30.580871 L288.670111,32.8177463 L292.445794,32.8177463 L292.445794,43.828018 L295.089761,43.828018 Z M320.353594,30.580871 L315.099541,30.580871 L315.099541,43.828018 L320.37398,43.828018 C324.596918,43.828018 327.290981,41.2870057 327.290981,37.067933 C327.290981,32.8918558 324.596918,30.580871 320.353594,30.580871 Z M320.353594,41.591111 L317.845754,41.591111 L317.845754,32.8177463 L320.322493,32.8177463 C323.083782,32.8177463 324.596918,34.7186103 324.596918,37.1615916 C324.596918,39.5428836 323.033876,41.591111 320.353594,41.591111 Z M337.621586,37.1885232 C338.481016,36.9656246 339.447527,35.7253452 339.447527,33.7794579 C339.447527,31.9693376 338.239958,30.580871 335.827568,30.580871 L329.000991,30.580871 L329.000991,43.828018 L336.287308,43.828018 C338.77353,43.828018 340,42.3916766 340,40.411 C340,38.6182743 338.959657,37.3771711 337.621586,37.1885232 Z M331.74714,32.8177463 L335.253476,32.8177463 C336.198274,32.8177463 336.753591,33.4978484 336.753591,34.4595283 C336.753591,35.467594 336.162749,36.0860385 335.217319,36.0860385 L331.74714,36.0860385 L331.74714,32.8177463 L331.74714,32.8177463 Z M335.538752,41.6201337 L335.33521,41.591111 L331.74714,41.591111 L331.74714,38.3228822 L335.371462,38.3228822 C336.718825,38.3228822 337.306001,39.0567207 337.306001,39.9639037 C337.306001,41.0010872 336.641295,41.6201337 335.538752,41.6201337 Z M303.772715,28 L309.264919,28 L309.264919,29.7208342 L303.772715,29.7208342 L303.772715,28 Z M306.604169,44 C310.253838,44 313.212158,41.034419 313.212158,37.3764741 C313.212158,33.7185291 310.253838,30.7529164 306.604169,30.7529164 C302.955258,30.7529164 299.997001,33.7185291 299.997001,37.3764741 C299.997001,41.034419 302.955258,44 306.604169,44 Z M306.604169,32.9897917 C309.021679,32.9897917 310.980681,34.9538341 310.980681,37.3764741 C310.980681,39.7992091 309.021679,41.7630613 306.604169,41.7630613 C304.187575,41.7630613 302.228447,39.7992091 302.228447,37.3764741 C302.228447,34.9538341 304.187575,32.9897917 306.604169,32.9897917 Z M304.574053,39.8391312 L306.788843,38.5536701 C307.076267,38.3867259 307.447638,38.0151015 307.61417,37.7276938 L308.899237,35.5104944 C309.066496,35.223055 308.967317,35.124422 308.680619,35.2912712 L306.465197,36.5781581 C306.177772,36.7450389 305.806402,37.1165683 305.639807,37.4040077 L304.354676,39.6198763 C304.188271,39.9073474 304.28666,40.0059804 304.574053,39.8391312 Z M306.650566,37.0585544 C306.929963,37.0585544 307.156641,37.2856987 307.156641,37.5658824 C307.156641,37.8453691 306.929963,38.0725133 306.650566,38.0725133 C306.370379,38.0725133 306.143859,37.8453691 306.143859,37.5658824 C306.143859,37.2856987 306.370379,37.0585544 306.650566,37.0585544 L306.650566,37.0585544 Z" id="logo" sketch:type="MSShapeGroup"></path>
        </g>
    </g>
</svg>