<svg width="51px" height="13px" viewBox="0 0 51 13" version="1.1" xmlns="http://www.w3.org/2000/svg" xmlns:xlink="http://www.w3.org/1999/xlink">
    <g id="New" stroke="none" stroke-width="1" fill="none" fill-rule="evenodd">
        <g id="01---00-Sign-up" transform="translate(-777.000000, -587.000000)" fill="#000000">
            <g id="Form" transform="translate(560.000000, 353.000000)">
                <g id="Button-/-main-red-Copy">
                    <g transform="translate(0.000000, 216.000000)">
                        <g id="GitHub_Logo" transform="translate(217.000000, 18.000000)">
                            <path d="M8.82025174,5.56405005 L4.97201797,5.56405005 C4.87275116,5.56405005 4.79217436,5.64873147 4.79217436,5.75293167 L4.79217436,7.7279307 C4.79217436,7.8321309 4.87275116,7.91691242 4.97201797,7.91691242 L6.47322583,7.91691242 L6.47322583,10.3706718 C6.47322583,10.3706718 6.13613825,10.4912878 5.20421267,10.4912878 C4.10474455,10.4912878 2.56882668,10.0695823 2.56882668,6.52437344 C2.56882668,2.97836381 4.16815706,2.51181521 5.66965099,2.51181521 C6.96936916,2.51181521 7.52930644,2.7520462 7.88556081,2.86775746 C7.99751012,2.90379211 8.101068,2.7867796 8.101068,2.68247931 L8.53036596,0.774244466 C8.53036596,0.725497594 8.51463203,0.666741097 8.46161344,0.626802695 C8.31695662,0.518498556 7.43423534,0 5.20421267,0 C2.63519527,0 0,1.14730318 0,6.66260635 C0,12.1781097 3.01710072,13 5.55951347,13 C7.66461825,13 8.94164141,12.055692 8.94164141,12.055692 C8.99427857,12.0251627 9,11.9479885 9,11.9125544 L9,5.75293167 C9,5.64873147 8.91951855,5.56405005 8.82025174,5.56405005" id="Fill-1"></path>
                            <path d="M31,1.11519686 C31,1.01189865 30.9152606,0.928571429 30.8092344,0.928571429 L28.4948905,0.928571429 C28.3891699,0.928571429 28.3032083,1.01189865 28.3032083,1.11519686 C28.3032083,1.11568875 28.3038194,5.43532467 28.3038194,5.43532467 L24.6963843,5.43532467 L24.6963843,1.11519686 C24.6963843,1.01189865 24.6112375,0.928571429 24.505415,0.928571429 L22.191173,0.928571429 C22.0858598,0.928571429 22,1.01189865 22,1.11519686 L22,12.8127843 C22,12.9159841 22.0858598,13 22.191173,13 L24.505415,13 C24.6112375,13 24.6963843,12.9159841 24.6963843,12.8127843 L24.6963843,7.80931424 L28.3038194,7.80931424 C28.3038194,7.80931424 28.2975047,12.8123908 28.2975047,12.8127843 C28.2975047,12.9159841 28.3833645,13 28.4891869,13 L30.8090307,13 C30.9150569,13 30.9997963,12.9159841 31,12.8127843 L31,1.11519686" id="Fill-2"></path>
                            <path d="M14,2.78514956 C14,1.75834665 13.3283964,0.928571429 12.4998464,0.928571429 C11.6721155,0.928571429 11,1.75834665 11,2.78514956 C11,3.81082301 11.6721155,4.64285714 12.4998464,4.64285714 C13.3283964,4.64285714 14,3.81082301 14,2.78514956" id="Fill-3"></path>
                            <path d="M14,10.3089535 L14,4.83186008 C14,4.72787853 13.9047925,4.64285714 13.7871698,4.64285714 L11.2229057,4.64285714 C11.105283,4.64285714 11,4.7498324 11,4.85381395 L11,12.7008285 C11,12.931444 11.1630189,13 11.3740377,13 L13.6843774,13 C13.9378491,13 14,12.8903304 14,12.6971363 L14,10.3089535" id="Fill-4"></path>
                            <path d="M40.7794942,4.64285714 L38.1473152,4.64285714 C38.0266148,4.64285714 37.9283268,4.7256271 37.9283268,4.82753518 L37.9283268,10.4914485 C37.9283268,10.4914485 37.2596887,10.8985951 36.3105447,10.8985951 C35.3615175,10.8985951 35.1096109,10.5402167 35.1096109,9.76682277 L35.1096109,4.82753518 C35.1096109,4.7256271 35.0115564,4.64285714 34.8907393,4.64285714 L32.2193385,4.64285714 C32.0987549,4.64285714 32,4.7256271 32,4.82753518 L32,10.1408419 C32,12.4379998 33.5384047,13 35.6547471,13 C37.3908949,13 38.7907393,12.2017362 38.7907393,12.2017362 C38.7907393,12.2017362 38.857393,12.6223863 38.8875097,12.6723203 C38.9177432,12.72206 38.9963035,12.7722855 39.0811673,12.7722855 L40.7806615,12.766068 C40.9012451,12.766068 41,12.6831037 41,12.5816814 L40.9991829,4.82753518 C40.9991829,4.7256271 40.9007782,4.64285714 40.7794942,4.64285714" id="Fill-5"></path>
                            <path d="M46.4267908,11.1410018 C45.5766513,11.116636 45,10.7532988 45,10.7532988 L45,6.89838284 C45,6.89838284 45.5689337,6.56995637 46.2668937,6.51119178 C47.1495344,6.43676347 48,6.68789506 48,8.67094393 C48,10.7621033 47.6161817,11.1747863 46.4267908,11.1410018 L46.4267908,11.1410018 Z M47.4172919,4.44705965 C45.9736351,4.44705965 44.991696,4.99868786 44.991696,4.99868786 L44.991696,1.11170736 C44.991696,1.01034061 44.8971205,0.928571429 44.7803384,0.928571429 L42.2116957,0.928571429 C42.0949136,0.928571429 42,1.01034061 42,1.11170736 L42,12.5905749 C42,12.6918451 42.0949136,12.77429 42.2120339,12.77429 L43.994201,12.77429 C44.0744605,12.77429 44.1352187,12.7388599 44.1800829,12.6767849 C44.2243835,12.615096 44.288298,12.1475539 44.288298,12.1475539 C44.288298,12.1475539 45.3386606,13 47.3269999,13 C49.6612893,13 51,11.9859463 51,8.44766745 C51,4.90938858 48.8619632,4.44705965 47.4172919,4.44705965 L47.4172919,4.44705965 Z" id="Fill-6"></path>
                            <path d="M20.7768415,4.27245542 L19.0462968,4.27245542 C19.0462968,4.27245542 19.043657,1.98736836 19.043657,1.98686085 C19.043657,1.90038219 18.9990862,1.85714286 18.8990812,1.85714286 L16.5407889,1.85714286 C16.4491091,1.85714286 16.399868,1.89743867 16.399868,1.98554134 L16.399868,4.3474645 C16.399868,4.3474645 15.2180821,4.63268169 15.1381796,4.65572237 C15.0585817,4.67876304 15,4.75214811 15,4.83964178 L15,6.32388769 C15,6.43066651 15.0852835,6.51673917 15.1907711,6.51673917 L16.399868,6.51673917 L16.399868,10.0873336 C16.399868,12.7394475 18.2606731,13 19.5163714,13 C20.0901061,13 20.7764354,12.8157761 20.8897406,12.7739578 C20.958272,12.7487856 20.998071,12.6778365 20.998071,12.6008989 L21,10.9681574 C21,10.8616831 20.9100462,10.7755089 20.8087213,10.7755089 C20.707904,10.7755089 20.4499213,10.8165152 20.1843241,10.8165152 C19.3343317,10.8165152 19.0462968,10.4213727 19.0462968,9.90991025 C19.0462968,9.39885382 19.0461952,6.51673917 19.0461952,6.51673917 L20.7768415,6.51673917 C20.8823291,6.51673917 20.9677141,6.43066651 20.9677141,6.32388769 L20.9677141,4.4647994 C20.9677141,4.35832508 20.8823291,4.27245542 20.7768415,4.27245542" id="Fill-7"></path>
                        </g>
                    </g>
                </g>
            </g>
        </g>
    </g>
</svg>
