<svg width="50px" height="21px" viewBox="0 0 50 21" version="1.1" xmlns="http://www.w3.org/2000/svg" xmlns:xlink="http://www.w3.org/1999/xlink">
    <defs>
        <polygon id="path-1" points="6.10094007 0.0980512821 0.0125342466 0.0980512821 0.0125342466 12.3768205 12.1893459 12.3768205 12.1893459 0.0980512821 6.10094007 0.0980512821"></polygon>
    </defs>
    <g id="New" stroke="none" stroke-width="1" fill="none" fill-rule="evenodd" transform="translate(0,5)">
        <g id="01---00-Sign-up" transform="translate(-613.000000, -586.000000)">
            <g id="new-google-plus-logo" transform="translate(613.000000, 586.000000)">
                <g id="Group-3">
                    <mask id="mask-2" fill="white">
                        <use xlink:href="#path-1"></use>
                    </mask>
                    <g id="Clip-2"></g>
                    <path d="M12.0857295,5.68717949 L6.34964041,5.68717949 L6.34964041,7.3585641 L10.4176301,7.3585641 C10.2166644,9.70215385 8.23103082,10.7017436 6.35653425,10.7017436 C3.95831507,10.7017436 1.8657226,8.84882051 1.8657226,6.25210256 C1.8657226,3.72225641 3.86054795,1.77415385 6.36175685,1.77415385 C8.29161301,1.77415385 9.42867808,2.98194872 9.42867808,2.98194872 L10.620476,1.77025641 C10.620476,1.77025641 9.09067123,0.0980512821 6.30096575,0.0980512821 C2.74834247,0.0980512821 0,3.04205128 0,6.22215385 C0,9.33825641 2.58518836,12.3768205 6.39142123,12.3768205 C9.73890068,12.3768205 12.1893459,10.1251282 12.1893459,6.79528205 C12.1893459,6.09271795 12.0855205,5.68676923 12.0855205,5.68676923 L12.0857295,5.68717949" id="Fill-1" fill="#FFFFFF" mask="url(#mask-2)"></path>
                </g>
                <path d="M16.8077979,6.02707692 C17.9651267,6.02707692 19.0620822,6.94584615 19.0620822,8.42646154 C19.0620822,9.87548718 17.9699315,10.8205128 16.8023664,10.8205128 C15.5196952,10.8205128 14.5077637,9.81189744 14.5077637,8.41497436 C14.5077637,7.048 15.507161,6.02707692 16.8077979,6.02707692 L16.8077979,6.02707692 Z M16.7844007,4.47671795 C14.4306781,4.47671795 12.7439863,6.28369231 12.7439863,8.39097436 C12.7439863,10.5292308 14.3801233,12.369641 16.811976,12.369641 C19.0136164,12.369641 20.8172945,10.7173333 20.8172945,8.43692308 C20.8172945,5.82297436 18.7192705,4.47671795 16.7844007,4.47671795 L16.7844007,4.47671795 Z" id="Fill-4" fill="#FFFFFF"></path>
                <path d="M25.5949315,6.02707692 C26.7524692,6.02707692 27.8492158,6.94584615 27.8492158,8.42646154 C27.8492158,9.87548718 26.7570651,10.8205128 25.5897089,10.8205128 C24.3070377,10.8205128 23.2951062,9.81189744 23.2951062,8.41497436 C23.2951062,7.048 24.2945034,6.02707692 25.5949315,6.02707692 L25.5949315,6.02707692 Z M25.5715342,4.47671795 C23.2180205,4.47671795 21.5311199,6.28369231 21.5311199,8.39097436 C21.5311199,10.5292308 23.1672568,12.369641 25.5993185,12.369641 C27.80075,12.369641 29.6044281,10.7173333 29.6044281,8.43692308 C29.6044281,5.82297436 27.5064041,4.47671795 25.5715342,4.47671795 L25.5715342,4.47671795 Z" id="Fill-5" fill="#FFFFFF"></path>
                <path d="M34.3469692,6.02789744 C35.406113,6.02789744 36.4936678,6.91610256 36.4936678,8.43261538 C36.4936678,9.97415385 35.408411,10.8237949 34.3235719,10.8237949 C33.1718836,10.8237949 32.1002055,9.9054359 32.1002055,8.44717949 C32.1002055,6.93210256 33.2132466,6.02789744 34.3469692,6.02789744 L34.3469692,6.02789744 Z M34.1905,4.48102564 C32.0302226,4.48102564 30.3320411,6.33887179 30.3320411,8.42420513 C30.3320411,10.7995897 32.3007534,12.3749744 34.1533151,12.3749744 C35.2987363,12.3749744 35.9079007,11.9284103 36.3576712,11.416 L36.3576712,12.1940513 C36.3576712,13.5556923 35.5155788,14.3710769 34.2448151,14.3710769 C33.0172945,14.3710769 32.4014452,13.4746667 32.1875274,12.9661538 L30.6428904,13.6002051 C31.1908459,14.7378462 32.2938596,15.9243077 34.2575582,15.9243077 C36.4055103,15.9243077 38.0426918,14.5958974 38.0426918,11.809641 L38.0426918,4.71815385 L36.3576712,4.71815385 L36.3576712,5.38666667 C35.839589,4.8385641 35.1309863,4.48102564 34.1905,4.48102564 L34.1905,4.48102564 Z" id="Fill-6" fill="#FFFFFF"></path>
                <path d="M45.6052295,5.98933333 C46.3395274,5.98933333 46.8680548,6.37271795 47.0926267,6.83241026 L43.4936267,8.30933333 C43.338411,7.16574359 44.4418425,5.98933333 45.6052295,5.98933333 L45.6052295,5.98933333 Z M45.5350377,4.47158974 C43.4971781,4.47158974 41.7862534,6.06358974 41.7862534,8.41271795 C41.7862534,10.8984615 43.693339,12.3727179 45.7307808,12.3727179 C47.4312603,12.3727179 48.4749452,11.4592821 49.0978973,10.6408205 L47.708476,9.73312821 C47.3479075,10.2824615 46.7452192,10.8194872 45.7393459,10.8194872 C44.6095925,10.8194872 44.0900479,10.2118974 43.7681267,9.62338462 L49.157226,7.42769231 L48.8775034,6.78420513 C48.3567055,5.52410256 47.1423459,4.47179487 45.5352466,4.47179487 L45.5350377,4.47158974 L45.5350377,4.47158974 Z" id="Fill-7" fill="#FFFFFF"></path>
                <polygon id="Fill-8" fill="#FFFFFF" points="39.2169418 12.1384615 40.9871952 12.1384615 40.9871952 0.50625641 39.2169418 0.50625641"></polygon>
            </g>
        </g>
    </g>
</svg>
