<svg width="52" height="54" viewBox="0 0 52 54" xmlns="http://www.w3.org/2000/svg">
  <g fill="none" fill-rule="evenodd">
    <path d="M-6-2h64v64H-6z"/>
    <g transform="translate(-.67 .67)" fill="#E6E8EB">
      <path d="M26.67 45.33c-1.05 0-2-.6-2.43-1.56-1.82-4-10.9-24.28-10.9-30.44C13.33 5.98 19.3 0 26.66 0 34.02 0 40 5.98 40 13.33c0 6.16-9.08 26.44-10.9 30.44a2.66 2.66 0 0 1-2.43 1.56zm0-40c-4.41 0-8 3.6-8 8 0 3.16 4.24 14.03 8 22.74 3.75-8.71 8-19.58 8-22.74 0-4.4-3.6-8-8-8z" fill-rule="nonzero"/>
      <circle cx="26.67" cy="13.33" r="4"/>
      <path d="M46.62 53.33H6.72a5.32 5.32 0 0 1-4.9-7.43l5.7-13.33a5.32 5.32 0 0 1 4.9-3.24h2.2v5.34h-2.2L6.71 48h39.91l-5.71-13.33h-2.29v-5.34h2.29a5.32 5.32 0 0 1 4.9 3.24l5.71 13.33a5.3 5.3 0 0 1-4.9 7.43z"/>
    </g>
  </g>
</svg>