<svg height="54" viewBox="0 0 52 54" width="52" xmlns="http://www.w3.org/2000/svg"><g fill="none" fill-rule="evenodd"><path d="m-6-2h64v64h-64z"/><g fill="#e6e8eb" transform="translate(-.67 .67)"><path d="m26.67 45.33c-1.05 0-2-.6-2.43-1.56-1.82-4-10.9-24.28-10.9-30.44-.01-7.35 5.96-13.33 13.32-13.33s13.34 5.98 13.34 13.33c0 6.16-9.08 26.44-10.9 30.44a2.66 2.66 0 0 1 -2.43 1.56zm0-40c-4.41 0-8 3.6-8 8 0 3.16 4.24 14.03 8 22.74 3.75-8.71 8-19.58 8-22.74 0-4.4-3.6-8-8-8z" fill-rule="nonzero"/><circle cx="26.67" cy="13.33" r="4"/><path d="m46.62 53.33h-39.9a5.32 5.32 0 0 1 -4.9-7.43l5.7-13.33a5.32 5.32 0 0 1 4.9-3.24h2.2v5.34h-2.2l-5.71 13.33h39.91l-5.71-13.33h-2.29v-5.34h2.29a5.32 5.32 0 0 1 4.9 3.24l5.71 13.33a5.3 5.3 0 0 1 -4.9 7.43z"/></g></g></svg>