<svg xmlns="http://www.w3.org/2000/svg" viewBox="0 0 294 140">
  <g fill-rule="nonzero" fill="none">
    <path d="M1 0h292a1 1 0 011 1v139H0V1a1 1 0 011-1z" fill="#3D33CC"/>
    <path d="M164.11 71.664A2 2 0 00165 70V42c0-.738-.406-1.416-1.056-1.762a1.991 1.991 0 00-2.052.098l-10.784 7.19-8.858-7.088c-.3-.234-.75-.406-1.18-.422a2.126 2.126 0 00-1.18.32l-12 8c-.556.372-.89.998-.89 1.664v28a2 2 0 003.11 1.664l10.784-7.188 8.858 7.086c.36.29.802.438 1.248.438.532 0 .79-.146 1.098-.352l12.012-7.984zM131 51.07l8-5.332V68.93l-8 5.334V51.07zm18 22.77l-6-4.8V46.164l6 4.798V73.84zm12-4.91l-8 5.334V51.07l8-5.332V68.93z" fill="#FFF"/>
  </g>
</svg>