<svg xmlns="http://www.w3.org/2000/svg" viewBox="0 0 48 48">
  <g fill="none" fill-rule="evenodd">
    <rect fill="#3D33CC" fill-rule="nonzero" width="48" height="48" rx="2"/>
    <path d="M12 12h23.51v23.511H12z"/>
    <path d="M32.136 29.468a.98.98 0 00.435-.815V14.94a.977.977 0 00-1.522-.815l-5.282 3.521-4.338-3.471a1.052 1.052 0 00-.578-.207 1.041 1.041 0 00-.578.157l-5.878 3.918a.982.982 0 00-.436.815v13.714a.98.98 0 001.523.815l5.282-3.52 4.339 3.47a.973.973 0 00.611.215c.26 0 .387-.071.538-.172l5.884-3.91zM15.918 19.381l3.919-2.611v11.359l-3.919 2.613v-11.36zm8.817 11.153l-2.94-2.351V16.978l2.94 2.35v11.206zm5.877-2.405l-3.918 2.613v-11.36l3.918-2.612v11.359z" fill="#FFF" fill-rule="nonzero"/>
  </g>
</svg>