<?xml version="1.0" encoding="UTF-8"?>
<svg width="12px" height="13px" viewBox="0 0 12 13" version="1.1" xmlns="http://www.w3.org/2000/svg" xmlns:xlink="http://www.w3.org/1999/xlink">
    <!-- Generator: Sketch 51.3 (57544) - http://www.bohemiancoding.com/sketch -->
    <title>places-home-1</title>
    <desc>Created with Sketch.</desc>
    <defs></defs>
    <g id="Symbols" stroke="none" stroke-width="1" fill="none" fill-rule="evenodd" opacity="0.359999985">
        <g id="Search-Dropdown--/-Max" transform="translate(-19.000000, -199.000000)">
            <g id="Group-5" transform="translate(18.000000, 193.000000)">
                <g id="places-home-1" transform="translate(0.000000, 5.000000)">
                    <g id="Frame_-_24px">
                        <rect id="Rectangle" x="0" y="0.0006" width="14" height="14.4006"></rect>
                        <g id="server-2" transform="translate(0.000000, 0.600000)">
                            <g id="Frame-24px">
                                <rect id="Rectangle" x="0" y="0" width="14" height="14.4"></rect>
                            </g>
                            <g id="Line_Icons" transform="translate(1.750000, 1.200000)" fill="#2E3C43" fill-rule="nonzero">
                                <path d="M5.25,0 C2.64075,0 0,0.8244 0,2.4 L0,9.6 C0,11.1756 2.64075,12 5.25,12 C7.85925,12 10.5,11.1756 10.5,9.6 L10.5,2.4 C10.5,0.8244 7.85925,0 5.25,0 Z M5.25,1.2 C7.90241667,1.2 9.33333333,2.052 9.33333333,2.4 C9.33333333,2.748 7.90241667,3.6 5.25,3.6 C2.59758333,3.6 1.16666667,2.748 1.16666667,2.4 C1.16666667,2.052 2.59758333,1.2 5.25,1.2 Z M5.25,10.8 C2.59758333,10.8 1.16666667,9.948 1.16666667,9.6 L1.16666667,8.76 C2.17933333,9.3138 3.71816667,9.6 5.25,9.6 C6.78183333,9.6 8.32066667,9.3132 9.33333333,8.76 L9.33333333,9.6 C9.33333333,9.948 7.90241667,10.8 5.25,10.8 Z M5.25,8.4 C2.59758333,8.4 1.16666667,7.548 1.16666667,7.2 L1.16666667,6.36 C2.17933333,6.9138 3.71816667,7.2 5.25,7.2 C6.78183333,7.2 8.32066667,6.9132 9.33333333,6.36 L9.33333333,7.2 C9.33333333,7.548 7.90241667,8.4 5.25,8.4 Z M5.25,6 C2.59758333,6 1.16666667,5.148 1.16666667,4.8 L1.16666667,3.96 C2.17933333,4.5132 3.71816667,4.8 5.25,4.8 C6.78183333,4.8 8.32066667,4.5132 9.33333333,3.96 L9.33333333,4.8 C9.33333333,5.148 7.90241667,6 5.25,6 Z" id="Shape"></path>
                            </g>
                        </g>
                    </g>
                </g>
            </g>
        </g>
    </g>
</svg>