<?xml version="1.0" encoding="UTF-8"?>
<svg width="12px" height="12px" viewBox="0 0 12 12" version="1.1" xmlns="http://www.w3.org/2000/svg" xmlns:xlink="http://www.w3.org/1999/xlink">
    <!-- Generator: Sketch 51.3 (57544) - http://www.bohemiancoding.com/sketch -->
    <title>location-map</title>
    <desc>Created with Sketch.</desc>
    <defs></defs>
    <g id="Symbols" stroke="none" stroke-width="1" fill="none" fill-rule="evenodd" opacity="0.359999985">
        <g id="Search-Dropdown--/-Max" transform="translate(-19.000000, -159.000000)">
            <g id="Group-4" transform="translate(18.000000, 153.000000)">
                <g id="location-map" transform="translate(0.000000, 5.000000)">
                    <g id="Frame_-_24px">
                        <rect id="Rectangle" x="0" y="0" width="14" height="14.0005833"></rect>
                    </g>
                    <g id="Line_Icons" transform="translate(1.166667, 1.166667)" fill="#2E3C43" fill-rule="nonzero">
                        <path d="M10.82375,9.23533333 C10.9859167,9.12741667 11.0833333,8.94483333 11.0833333,8.75 L11.0833333,0.583333333 C11.0833333,0.368083333 10.9649167,0.170333333 10.7753333,0.0694166667 C10.58575,-0.0326666667 10.3553333,-0.0215833333 10.1768333,0.098 L7.0315,2.19508333 L4.44791667,0.12775 C4.36041667,0.0595 4.22916667,0.00933333333 4.10375,0.00466666667 C3.98358333,-5.65953534e-17 3.85,0.0385 3.75958333,0.098 L0.259583333,2.43133333 C0.0974166667,2.53983333 0,2.72241667 0,2.91666667 L0,11.0833333 C0,11.2985833 0.118416667,11.4963333 0.308,11.5978333 C0.394333333,11.6445 0.488833333,11.6666667 0.583333333,11.6666667 C0.6965,11.6666667 0.809083333,11.634 0.907083333,11.5686667 L4.05241667,9.47216667 L6.636,11.5389167 C6.741,11.6235 6.86991667,11.6666667 7,11.6666667 C7.15516667,11.6666667 7.23041667,11.6240833 7.32025,11.564 L10.82375,9.23533333 Z M1.16666667,3.22875 L3.5,1.67358333 L3.5,8.43791667 L1.16666667,9.99366667 L1.16666667,3.22875 Z M6.41666667,9.87 L4.66666667,8.47 L4.66666667,1.79783333 L6.41666667,3.19725 L6.41666667,9.87 Z M9.91666667,8.43791667 L7.58333333,9.99366667 L7.58333333,3.22875 L9.91666667,1.67358333 L9.91666667,8.43791667 Z" id="Shape"></path>
                    </g>
                </g>
            </g>
        </g>
    </g>
</svg>