<svg width="12" height="12" xmlns="http://www.w3.org/2000/svg">
  <g fill="none" fill-rule="evenodd" opacity=".36">
    <path d="M-1-1h14v14.001H-1z"/>
    <path d="M10.99 9.402a.583.583 0 0 0 .26-.485V.75a.582.582 0 0 0-.906-.485L7.198 2.362 4.615.294A.626.626 0 0 0 4.27.171a.62.62 0 0 0-.344.094l-3.5 2.333a.585.585 0 0 0-.26.485v8.167a.584.584 0 0 0 .908.485L4.219 9.64l2.584 2.067a.58.58 0 0 0 .364.127c.155 0 .23-.042.32-.102l3.503-2.329zM1.333 3.395L3.667 1.84v6.765L1.333 10.16V3.395zm5.25 6.642l-1.75-1.4V1.965l1.75 1.399v6.673zm3.5-1.432L7.75 10.16V3.395l2.333-1.555v6.765z" fill="#2E3C43" fill-rule="nonzero"/>
  </g>
</svg>
