<svg width="12" height="13" xmlns="http://www.w3.org/2000/svg">
  <g fill="none" fill-rule="evenodd" opacity=".36">
    <path d="M-1-.999h14v14.401H-1z"/>
    <path d="M-1-.4h14V14H-1z"/>
    <path d="M6 .8C3.39.8.75 1.624.75 3.2v7.2c0 1.576 2.64 2.4 5.25 2.4s5.25-.824 5.25-2.4V3.2C11.25 1.624 8.61.8 6 .8zM6 2c2.652 0 4.083.852 4.083 1.2S8.653 4.4 6 4.4c-2.652 0-4.083-.852-4.083-1.2S3.347 2 6 2zm0 9.6c-2.652 0-4.083-.852-4.083-1.2v-.84c1.012.554 2.551.84 4.083.84s3.07-.287 4.083-.84v.84c0 .348-1.43 1.2-4.083 1.2zm0-2.4c-2.652 0-4.083-.852-4.083-1.2v-.84C2.929 7.714 4.468 8 6 8s3.07-.287 4.083-.84V8c0 .348-1.43 1.2-4.083 1.2zm0-2.4c-2.652 0-4.083-.852-4.083-1.2v-.84c1.012.553 2.551.84 4.083.84s3.07-.287 4.083-.84v.84c0 .348-1.43 1.2-4.083 1.2z" fill="#2E3C43" fill-rule="nonzero"/>
  </g>
</svg>
