<svg width="12" height="12" xmlns="http://www.w3.org/2000/svg">
  <g fill="none" fill-rule="evenodd" opacity=".36">
    <path d="M-1-1h14v14H-1z"/>
    <g transform="translate(.167 .167)" fill="#2E3C43">
      <path d="M7 11.667a.582.582 0 0 1-.412-.171L.17 5.079A.58.58 0 0 1 0 4.667V.583C0 .261.26 0 .583 0h4.084a.58.58 0 0 1 .412.17l6.417 6.418a.583.583 0 0 1 0 .824l-4.084 4.084a.582.582 0 0 1-.412.17zM1.167 4.425L7 10.258 10.258 7 4.425 1.167H1.167v3.258z" fill-rule="nonzero"/>
      <circle cx="2.917" cy="2.917" r="1.167"/>
    </g>
  </g>
</svg>
